<?xml version="1.0" encoding="utf-8"?>
<!-- Generator: Adobe Illustrator 24.1.2, SVG Export Plug-In . SVG Version: 6.00 Build 0)  -->
<svg version="1.0" id="Layer_1" xmlns="http://www.w3.org/2000/svg" xmlns:xlink="http://www.w3.org/1999/xlink" x="0px" y="0px"
	 viewBox="0 0 60 60" style="enable-background:new 0 0 60 60;" xml:space="preserve">
<style type="text/css">
	.st0{fill:#155692;}
	.st1{fill:#2367B1;}
	.st2{fill:#FFFFFF;}
</style>
<g>
	<circle class="st0" cx="30" cy="30" r="29.67"/>
	<circle class="st1" cx="30" cy="30" r="25.49"/>
	<g>
		<path class="st2" d="M24.76,45.81L24.76,45.81c-0.77-0.75-0.77-1.99,0-2.74l14.68-12.31c0.77-0.75,0.77-1.99,0-2.74L24.76,15.72
			c-0.77-0.75-0.77-1.99,0-2.74l0,0c0.74-0.72,1.91-0.72,2.65,0l17.5,15.04c0.77,0.75,0.77,1.99,0,2.74l-17.5,15.04
			C26.68,46.52,25.5,46.52,24.76,45.81z"/>
	</g>
	<circle class="st0" cx="30" cy="30" r="29.67"/>
	<circle class="st1" cx="30" cy="30" r="25.49"/>
	<g>
		<path class="st2" d="M24.76,45.81L24.76,45.81c-0.77-0.75-0.77-1.99,0-2.74l14.68-12.31c0.77-0.75,0.77-1.99,0-2.74L24.76,15.72
			c-0.77-0.75-0.77-1.99,0-2.74l0,0c0.74-0.72,1.91-0.72,2.65,0l17.5,15.04c0.77,0.75,0.77,1.99,0,2.74l-17.5,15.04
			C26.68,46.52,25.5,46.52,24.76,45.81z"/>
	</g>
</g>
</svg>
