<?xml version="1.0" encoding="utf-8"?>
<!-- Generator: Adobe Illustrator 24.1.2, SVG Export Plug-In . SVG Version: 6.00 Build 0)  -->
<svg version="1.0" id="Layer_1" xmlns="http://www.w3.org/2000/svg" xmlns:xlink="http://www.w3.org/1999/xlink" x="0px" y="0px"
	 viewBox="0 0 24.74 20.59" style="enable-background:new 0 0 24.74 20.59;" xml:space="preserve">
<style type="text/css">
	.st0{fill:#FFFFFF;}
</style>
<g>
	<g>
		<path class="st0" d="M18.15,11.9H5.02c-0.52,0-0.94-0.45-0.94-1s0.42-1,0.94-1h13.14c0.52,0,0.94,0.45,0.94,1
			S18.67,11.9,18.15,11.9z"/>
	</g>
	<g>
		<path class="st0" d="M13.81,16.95c-0.26,0-0.51-0.1-0.71-0.3c-0.39-0.39-0.39-1.02,0.01-1.41l4.26-4.22L13.1,6.74
			c-0.39-0.39-0.39-1.02,0-1.41c0.39-0.39,1.02-0.39,1.41,0l4.97,4.99c0.19,0.19,0.29,0.44,0.29,0.71s-0.11,0.52-0.3,0.71
			l-4.97,4.93C14.32,16.85,14.06,16.95,13.81,16.95z"/>
	</g>
</g>
</svg>
