<?xml version="1.0" encoding="utf-8"?>
<!-- Generator: Adobe Illustrator 24.1.2, SVG Export Plug-In . SVG Version: 6.00 Build 0)  -->
<svg version="1.0" id="Layer_1" xmlns="http://www.w3.org/2000/svg" xmlns:xlink="http://www.w3.org/1999/xlink" x="0px" y="0px"
	 viewBox="0 0 565.66 664.24" style="enable-background:new 0 0 565.66 664.24;" xml:space="preserve">
<style type="text/css">
	.st0{opacity:0.3;}
	.st1{fill:#2A9FD9;}
</style>
<g class="st0">
	<g>
		<g>
			<g>
				<g>
					<polygon class="st1" points="478.49,330.65 529.62,301.13 529.62,244.02 528.65,244.02 528.65,300.57 478.49,329.53 					"/>
				</g>
				<g>
					<polygon class="st1" points="478.49,364.39 542.59,327.38 542.59,326.26 478.49,363.27 					"/>
				</g>
			</g>
			<g>
				<g>
					<polygon class="st1" points="405.32,350.44 405.56,350.58 478.85,308.27 479.09,308.13 479.09,223.23 406.89,181.55 
						406.89,182.67 478.12,223.79 478.12,307.57 405.56,349.46 335.86,309.22 335.86,310.33 					"/>
				</g>
			</g>
			<g>
				<g>
					<polygon class="st1" points="315.7,327.16 315.82,327.09 315.82,325.97 315.7,326.04 263.95,296.17 263.95,236.41 
						315.7,206.53 315.82,206.6 315.82,205.48 315.7,205.41 262.98,235.85 262.98,296.72 					"/>
				</g>
			</g>
		</g>
		<g>
			<g>
				<g>
					<polygon class="st1" points="370.06,126.97 370.45,126.75 430.57,161.46 430.57,160.34 370.45,125.63 370.06,125.85 					"/>
					<polygon class="st1" points="370.45,268.75 430.57,234.03 430.57,232.92 370.45,267.63 311.17,233.4 311.17,234.52 					"/>
				</g>
				<g>
					<polygon class="st1" points="158.77,212.78 159.16,212.56 219.28,247.27 219.28,246.15 159.16,211.44 158.77,211.66 					"/>
				</g>
				<g>
					<polygon class="st1" points="370.5,296.74 285.01,247.38 285.01,156.76 284.04,156.76 284.04,247.94 370.26,297.72 
						370.5,297.86 456.72,248.08 456.96,247.94 456.96,148.1 372.13,99.12 372.13,100.24 455.99,148.66 455.99,247.38 					"/>
				</g>
			</g>
			<polygon class="st1" points="175.46,246.99 175.46,152.68 260.95,103.32 346.45,152.68 346.45,246.99 347.42,246.99 
				347.42,152.12 261.2,102.34 260.95,102.2 174.73,151.98 174.49,152.12 174.49,246.99 			"/>
			<polygon class="st1" points="183.18,49.94 267.73,1.12 352.3,49.94 354.2,49.94 354.2,49.92 267.98,0.14 267.73,0 181.51,49.78 
				181.27,49.92 181.27,49.94 			"/>
			<g>
				<g>
					<polygon class="st1" points="207.15,175 207.15,238.93 146.15,274.15 85.15,238.93 85.15,175 84.18,175 84.18,239.49 
						146.15,275.27 208.12,239.49 208.12,175 					"/>
				</g>
				<g>
					<polygon class="st1" points="145.16,105.56 145.16,104.45 73.72,145.69 73.72,146.81 					"/>
					<polygon class="st1" points="145.91,303.41 146.15,303.55 223.48,258.9 223.48,257.79 146.15,302.43 73.72,260.62 
						73.72,261.74 					"/>
				</g>
			</g>
		</g>
		<g>
			<g>
				<g>
					<polygon class="st1" points="269.02,334.98 315.68,361.92 315.68,413.66 316.65,413.66 316.65,361.36 269.02,333.86 					"/>
				</g>
			</g>
			<g>
				<g>
					<polygon class="st1" points="237.23,219.54 237.23,165.76 284.05,138.73 284.45,138.96 284.45,137.84 284.05,137.61 
						236.26,165.2 236.26,219.54 					"/>
				</g>
			</g>
			<g>
				<g>
					<polygon class="st1" points="221.79,80.14 268.46,53.19 315.28,80.22 315.28,133.25 316.25,133.25 316.25,79.66 268.46,52.07 
						221.79,79.02 					"/>
				</g>
				<g>
					<polygon class="st1" points="268.16,184 268.16,182.88 202.81,145.15 202.81,69.34 268.46,31.44 334.12,69.34 334.12,145.15 
						334.09,145.17 335.08,145.17 335.08,68.78 268.7,30.46 268.46,30.32 202.08,68.64 201.84,68.78 201.84,145.71 					"/>
				</g>
			</g>
		</g>
	</g>
	<g>
		<g>
			<g>
				<g>
					<polygon class="st1" points="125.98,477.22 125.98,476.1 74.66,446.46 74.66,386.71 126.41,356.83 177.29,386.2 177.29,385.09 
						126.41,355.71 73.69,386.15 73.69,447.02 					"/>
				</g>
				<g>
					<polygon class="st1" points="195.96,373 195.96,371.88 127.1,332.13 126.86,331.99 61.17,369.91 61.17,371.03 126.86,333.11 
											"/>
				</g>
			</g>
			<g>
				<g>
					<polygon class="st1" points="228.8,329.85 228.56,329.71 155.27,372.02 155.03,372.16 155.03,457.06 227.23,498.74 
						227.23,497.62 156,456.5 156,372.72 228.56,330.83 298.26,371.07 298.26,369.96 					"/>
				</g>
			</g>
			<g>
				<g>
					<polygon class="st1" points="318.42,353.13 318.3,353.2 318.3,354.32 318.42,354.25 370.17,384.13 370.17,443.88 
						318.42,473.76 318.3,473.69 318.3,474.81 318.42,474.88 371.14,444.44 371.14,383.57 					"/>
				</g>
			</g>
		</g>
		<g>
			<g>
				<g>
					<polygon class="st1" points="264.06,553.32 263.67,553.54 203.55,518.83 203.55,519.95 263.67,554.66 264.06,554.44 					"/>
					<polygon class="st1" points="263.67,411.54 203.55,446.26 203.55,447.37 263.67,412.66 322.95,446.89 322.95,445.77 					"/>
				</g>
				<g>
					<polygon class="st1" points="261.99,581.17 261.99,580.05 178.12,531.63 178.12,432.91 263.55,383.59 263.55,382.47 
						177.4,432.21 177.16,432.35 177.16,532.19 					"/>
				</g>
			</g>
			<g>
				<g>
					<polygon class="st1" points="372.92,577.95 373.17,578.09 457.79,529.23 457.79,528.11 373.17,576.97 287.67,527.61 
						287.67,433.3 286.7,433.3 286.7,528.17 					"/>
				</g>
			</g>
			<g>
				<g>
					<polygon class="st1" points="426.97,505.29 426.97,441.36 487.97,406.14 548.97,441.36 548.97,505.29 549.94,505.29 
						549.94,440.8 487.97,405.02 426,440.8 426,505.29 					"/>
				</g>
				<g>
					<polygon class="st1" points="410.64,576.42 410.64,575.3 487.73,530.79 487.97,530.65 560.4,572.47 560.4,573.58 
						487.97,531.77 					"/>
					<polygon class="st1" points="7.49,248.56 7.49,247.44 84.58,202.93 84.82,202.79 157.25,244.6 157.25,245.72 84.82,203.91 
											"/>
					<polygon class="st1" points="488.21,376.88 487.97,376.74 410.64,421.39 410.64,422.5 487.97,377.86 560.4,419.67 
						560.4,418.55 					"/>
				</g>
			</g>
		</g>
		<g>
			<g>
				<g>
					<polygon class="st1" points="350.53,433.71 396.89,460.48 396.89,514.53 350.07,541.57 349.67,541.33 349.67,542.45 
						350.07,542.68 397.86,515.09 397.86,459.92 350.53,432.6 					"/>
				</g>
			</g>
			<g>
				<g>
					<polygon class="st1" points="327.61,605.8 374.16,632.67 420.83,605.73 420.83,604.61 374.16,631.55 327.61,604.68 					"/>
				</g>
				<g>
					<polygon class="st1" points="374.16,653.31 309.39,615.92 309.39,617.03 373.92,654.28 374.16,654.42 440.54,616.1 
						440.78,615.96 440.78,539.03 374.46,500.74 374.46,501.86 439.81,539.59 439.81,615.4 					"/>
				</g>
			</g>
		</g>
	</g>
	<g>
		<path class="st1" d="M346.68,433.94c0-2.68,2.17-4.86,4.86-4.86c2.68,0,4.86,2.17,4.86,4.86c0,2.68-2.17,4.86-4.86,4.86
			C348.86,438.8,346.68,436.62,346.68,433.94z"/>
		<circle class="st1" cx="322.95" cy="446.89" r="4.86"/>
		<path class="st1" d="M313.44,474.81c0-2.68,2.17-4.86,4.86-4.86s4.86,2.17,4.86,4.86c0,2.68-2.17,4.86-4.86,4.86
			S313.44,477.49,313.44,474.81z"/>
		<path class="st1" d="M369.91,501.79c0-2.68,2.17-4.86,4.86-4.86s4.86,2.17,4.86,4.86c0,2.68-2.17,4.86-4.86,4.86
			S369.91,504.47,369.91,501.79z"/>
		<circle class="st1" cx="350.07" cy="542.68" r="4.86"/>
		<circle class="st1" cx="203.55" cy="519.95" r="4.86"/>
		<circle class="st1" cx="315.95" cy="412.92" r="4.86"/>
		<circle class="st1" cx="426" cy="505.29" r="4.86"/>
		<path class="st1" d="M322.75,605.8c0-2.68,2.17-4.86,4.86-4.86c2.68,0,4.86,2.17,4.86,4.86c0,2.68-2.17,4.86-4.86,4.86
			C324.93,610.66,322.75,608.48,322.75,605.8z"/>
		<circle class="st1" cx="298.26" cy="369.96" r="4.86"/>
		<circle class="st1" cx="177.29" cy="386.2" r="4.86"/>
		<path class="st1" d="M120.01,476.04c0-2.68,2.17-4.86,4.86-4.86c2.68,0,4.86,2.17,4.86,4.86c0,2.68-2.17,4.86-4.86,4.86
			C122.19,480.89,120.01,478.72,120.01,476.04z"/>
		<circle class="st1" cx="61.55" cy="370.27" r="4.86"/>
		<path class="st1" d="M308.21,206.53c0-4.14,3.35-7.49,7.49-7.49s7.49,3.35,7.49,7.49s-3.35,7.49-7.49,7.49
			S308.21,210.67,308.21,206.53z"/>
		<path class="st1" d="M403.15,422.5c0-4.14,3.35-7.49,7.49-7.49c4.14,0,7.49,3.35,7.49,7.49c0,4.14-3.35,7.49-7.49,7.49
			C406.5,429.99,403.15,426.64,403.15,422.5z"/>
		<path class="st1" d="M450.3,529.23c0-4.14,3.35-7.49,7.49-7.49s7.49,3.35,7.49,7.49s-3.35,7.49-7.49,7.49
			S450.3,533.36,450.3,529.23z"/>
		<path class="st1" d="M175.69,49.94c0-4.14,3.35-7.49,7.49-7.49s7.49,3.35,7.49,7.49s-3.35,7.49-7.49,7.49
			S175.69,54.07,175.69,49.94z"/>
		<path class="st1" d="M214.73,79.77c0-4.14,3.35-7.49,7.49-7.49s7.49,3.35,7.49,7.49c0,4.14-3.35,7.49-7.49,7.49
			S214.73,83.9,214.73,79.77z"/>
		<path class="st1" d="M278.63,157.84c0-3.17,2.57-5.74,5.74-5.74c3.17,0,5.74,2.57,5.74,5.74c0,3.17-2.57,5.74-5.74,5.74
			C281.2,163.58,278.63,161.01,278.63,157.84z"/>
		<path class="st1" d="M403.15,576.42c0-4.14,3.35-7.49,7.49-7.49c4.14,0,7.49,3.35,7.49,7.49s-3.35,7.49-7.49,7.49
			C406.5,583.91,403.15,580.55,403.15,576.42z"/>
		<path class="st1" d="M196.06,447.37c0-4.14,3.35-7.49,7.49-7.49s7.49,3.35,7.49,7.49s-3.35,7.49-7.49,7.49
			S196.06,451.51,196.06,447.37z"/>
		
			<ellipse transform="matrix(0.9925 -0.1222 0.1222 0.9925 -69.046 36.3648)" class="st1" cx="261.99" cy="581.17" rx="7.49" ry="7.49"/>
		<path class="st1" d="M522.13,244.02c0-4.14,3.35-7.49,7.49-7.49s7.49,3.35,7.49,7.49s-3.35,7.49-7.49,7.49
			S522.13,248.16,522.13,244.02z"/>
		<path class="st1" d="M362.57,125.85c0-4.14,3.35-7.49,7.49-7.49c4.14,0,7.49,3.35,7.49,7.49s-3.35,7.49-7.49,7.49
			C365.92,133.34,362.57,129.99,362.57,125.85z"/>
		<path class="st1" d="M66.43,261.13c0-4.14,3.35-7.49,7.49-7.49c4.14,0,7.49,3.35,7.49,7.49s-3.35,7.49-7.49,7.49
			C69.79,268.62,66.43,265.27,66.43,261.13z"/>
		<path class="st1" d="M0,248.56c0-4.14,3.35-7.49,7.49-7.49s7.49,3.35,7.49,7.49s-3.35,7.49-7.49,7.49S0,252.69,0,248.56z"/>
		<path class="st1" d="M172.38,246.03c0-1.41,1.14-2.56,2.56-2.56s2.56,1.14,2.56,2.56c0,1.41-1.14,2.56-2.56,2.56
			S172.38,247.44,172.38,246.03z"/>
		<path class="st1" d="M154.7,245.42c0-1.41,1.14-2.56,2.56-2.56c1.41,0,2.56,1.14,2.56,2.56s-1.14,2.56-2.56,2.56
			C155.84,247.97,154.7,246.83,154.7,245.42z"/>
		<path class="st1" d="M312.78,326.47c0-1.41,1.14-2.56,2.56-2.56s2.56,1.14,2.56,2.56s-1.14,2.56-2.56,2.56
			S312.78,327.89,312.78,326.47z"/>
		<path class="st1" d="M333.81,310.23c0-1.41,1.14-2.56,2.56-2.56c1.41,0,2.56,1.14,2.56,2.56c0,1.41-1.14,2.56-2.56,2.56
			C334.95,312.79,333.81,311.64,333.81,310.23z"/>
		<path class="st1" d="M266.72,334.67c0-1.41,1.14-2.56,2.56-2.56c1.41,0,2.56,1.14,2.56,2.56c0,1.41-1.14,2.56-2.56,2.56
			C267.86,337.23,266.72,336.08,266.72,334.67z"/>
		<path class="st1" d="M405.25,182.58c0-1.41,1.14-2.56,2.56-2.56s2.56,1.14,2.56,2.56c0,1.41-1.14,2.56-2.56,2.56
			S405.25,183.99,405.25,182.58z"/>
		<path class="st1" d="M234.31,217.95c0-1.41,1.14-2.56,2.56-2.56c1.41,0,2.56,1.14,2.56,2.56c0,1.41-1.14,2.56-2.56,2.56
			C235.45,220.5,234.31,219.36,234.31,217.95z"/>
		<path class="st1" d="M308.69,233.76c0-1.41,1.14-2.56,2.56-2.56c1.41,0,2.56,1.14,2.56,2.56c0,1.41-1.14,2.56-2.56,2.56
			C309.83,236.31,308.69,235.17,308.69,233.76z"/>
		<path class="st1" d="M428.02,234.03c0-1.41,1.14-2.56,2.56-2.56c1.41,0,2.56,1.14,2.56,2.56c0,1.41-1.14,2.56-2.56,2.56
			C429.16,236.59,428.02,235.45,428.02,234.03z"/>
		<path class="st1" d="M220.93,258.9c0-1.41,1.14-2.56,2.56-2.56c1.41,0,2.56,1.14,2.56,2.56c0,1.41-1.14,2.56-2.56,2.56
			C222.07,261.46,220.93,260.32,220.93,258.9z"/>
		<path class="st1" d="M427.84,161.18c0-1.41,1.14-2.56,2.56-2.56s2.56,1.14,2.56,2.56c0,1.41-1.14,2.56-2.56,2.56
			S427.84,162.59,427.84,161.18z"/>
		<path class="st1" d="M475.93,364.39c0-1.41,1.14-2.56,2.56-2.56c1.41,0,2.56,1.14,2.56,2.56c0,1.41-1.14,2.56-2.56,2.56
			C477.07,366.94,475.93,365.8,475.93,364.39z"/>
		<path class="st1" d="M261,382.47c0-1.41,1.14-2.56,2.56-2.56s2.56,1.14,2.56,2.56s-1.14,2.56-2.56,2.56S261,383.88,261,382.47z"/>
		<path class="st1" d="M193.4,373c0-1.41,1.14-2.56,2.56-2.56c1.41,0,2.56,1.14,2.56,2.56c0,1.41-1.14,2.56-2.56,2.56
			C194.55,375.56,193.4,374.41,193.4,373z"/>
		<path class="st1" d="M555.87,418.46c0-1.41,1.14-2.56,2.56-2.56c1.41,0,2.55,1.14,2.55,2.56s-1.14,2.56-2.55,2.56
			C557.02,421.01,555.87,419.87,555.87,418.46z"/>
	</g>
</g>
</svg>
