<svg width="29" height="41" viewBox="0 0 29 41" fill="none" xmlns="http://www.w3.org/2000/svg">
<path d="M26.5119 21.9964H15.1272V26.8595C15.1272 27.5329 14.5241 28.1314 13.8455 28.1314H1.32984C0.87747 28.1314 0.500492 27.9069 0.198912 27.5329C-0.102671 27.1588 -0.0272751 26.7099 0.198912 26.261L5.17502 17.1332L0.198912 8.00548C-0.0272751 7.63139 -0.0272751 7.10767 0.198912 6.73358C0.425097 6.35949 0.87747 6.13504 1.32984 6.13504H12.5638V1.2719C12.5638 0.598541 13.1669 0 13.8455 0H27.7183C28.3968 0 29 0.598541 29 1.2719V20.7245V41H26.4366V21.9964H26.5119Z" fill="white"/>
</svg>
