<?xml version="1.0" encoding="utf-8"?>
<!-- Generator: Adobe Illustrator 24.1.2, SVG Export Plug-In . SVG Version: 6.00 Build 0)  -->
<svg version="1.0" id="Layer_1" xmlns="http://www.w3.org/2000/svg" xmlns:xlink="http://www.w3.org/1999/xlink" x="0px" y="0px"
	 viewBox="0 0 1198.39 430" style="enable-background:new 0 0 1198.39 430;" xml:space="preserve">
<style type="text/css">
	.st0{fill:#2A9FD9;}
	.st1{fill:none;stroke:#2367B1;stroke-width:0.75;stroke-miterlimit:10;}
	.st2{fill:#2367B1;}
	.st3{fill:#BBBBBB;}
	.st4{fill:#878787;}
	.st5{fill:none;}
	.st6{enable-background:new    ;}
	.st7{fill:#010101;}
	.st8{fill:#FFFFFF;}
	.st9{fill:none;stroke:#2A9FD9;stroke-miterlimit:10;}
</style>
<g>
	<rect x="176.5" y="352.15" class="st0" width="34.8" height="17.5"/>
	<rect x="305.5" y="352.15" class="st0" width="52.7" height="17.5"/>
	<rect x="547.5" y="352.15" class="st0" width="35.7" height="17.5"/>
	<line class="st1" x1="0.9" y1="347.75" x2="1201.7" y2="347.75"/>
	<rect x="128.7" y="224.95" class="st2" width="35.4" height="39.4"/>
	<rect x="175.3" y="72.25" class="st2" width="35.4" height="102.7"/>
	<rect x="128.7" y="264.35" class="st3" width="35.4" height="58.8"/>
	<rect x="175.3" y="174.85" class="st3" width="35.4" height="35.4"/>
	<rect x="128.7" y="323.15" class="st4" width="35.4" height="24.5"/>
	<rect x="221.9" y="255.15" class="st4" width="35.4" height="92.6"/>
	<rect x="221.9" y="202.25" class="st3" width="35.4" height="54.3"/>
	<rect x="221.9" y="160.95" class="st2" width="35.4" height="41.1"/>
	<rect x="315.2" y="229.45" class="st4" width="35.4" height="118.3"/>
	<rect x="361.3" y="315.25" class="st4" width="35.4" height="32.5"/>
	<rect x="361.3" y="282.75" class="st3" width="35.4" height="32.5"/>
	<rect x="361.3" y="256.55" class="st2" width="35.4" height="26.1"/>
	<rect x="361.3" y="151.85" class="st0" width="35.4" height="105.8"/>
	<rect x="455" y="340.55" class="st4" width="35.4" height="7.2"/>
	<rect x="455" y="247.35" class="st3" width="35.4" height="93.2"/>
	<rect x="455" y="204.75" class="st2" width="35.4" height="42.6"/>
	<rect x="455" y="192.15" class="st0" width="35.4" height="12.6"/>
	<rect x="501.8" y="344.15" class="st4" width="35.4" height="3.6"/>
	<rect x="501.8" y="292.05" class="st3" width="35.4" height="52"/>
	<rect x="501.8" y="249.45" class="st2" width="35.4" height="42.6"/>
	<rect x="501.8" y="210.55" class="st0" width="35.4" height="38.9"/>
	<rect x="547.8" y="309.05" class="st4" width="35.4" height="38.6"/>
	<rect x="547.8" y="230.05" class="st3" width="35.4" height="79.1"/>
	<rect x="547.8" y="222.15" class="st2" width="35.4" height="7.9"/>
	<rect x="547.8" y="212.45" class="st0" width="35.4" height="9.7"/>
	<rect x="640.7" y="298.95" class="st4" width="35.4" height="48.8"/>
	<rect x="640.7" y="288.15" class="st3" width="35.4" height="10.8"/>
	<rect x="640.7" y="274.35" class="st2" width="35.4" height="13.8"/>
	<rect x="640.7" y="271.05" class="st0" width="35.4" height="3.3"/>
	<rect x="687.4" y="306.25" class="st4" width="35.4" height="41.4"/>
	<rect x="687.4" y="293.55" class="st3" width="35.4" height="12.8"/>
	<rect x="687.4" y="281.25" class="st2" width="35.4" height="12.3"/>
	<rect x="687.4" y="279.15" class="st0" width="35.4" height="2.1"/>
	<rect x="779.6" y="343.15" class="st4" width="35.4" height="4.6"/>
	<rect x="826.3" y="334.75" class="st4" width="35.4" height="12.9"/>
	<rect x="826.3" y="291.95" class="st2" width="35.4" height="42.8"/>
	<rect x="873.1" y="344.55" class="st3" width="35.4" height="3.2"/>
	<rect x="873.1" y="338.75" class="st2" width="35.4" height="5.8"/>
	<rect x="873.1" y="308.25" class="st0" width="35.4" height="30.5"/>
	<rect x="919.8" y="318.85" class="st2" width="35.4" height="28.9"/>
	<rect x="966.6" y="338.25" class="st3" width="35.4" height="9.5"/>
	<rect x="966.6" y="321.45" class="st0" width="35.4" height="16.8"/>
	<rect x="1012.6" y="335.85" class="st4" width="35.4" height="11.8"/>
	<rect x="1061.5" y="322.95" class="st4" width="35.4" height="24.8"/>
	<rect x="1061.5" y="311.45" class="st3" width="35.4" height="11.5"/>
	<rect x="1061.5" y="77.75" class="st2" width="35.4" height="233.7"/>
	<rect x="1061.5" y="40.85" class="st0" width="35.4" height="36.9"/>
	<rect x="1061.5" y="322.95" class="st4" width="35.4" height="24.8"/>
	<rect x="1012.6" y="334.05" class="st2" width="35.4" height="1.8"/>
	<rect x="1012.6" y="323.95" class="st0" width="35.4" height="10.1"/>
	<rect x="175.3" y="207.65" class="st4" width="35.4" height="140"/>
	<rect x="175.3" y="66.45" class="st0" width="35.4" height="5.7"/>
	<rect x="221.9" y="93.15" class="st0" width="35.4" height="67.8"/>
	<rect x="315.2" y="149.35" class="st3" width="35.4" height="80"/>
	<rect x="315.2" y="145.35" class="st2" width="35.4" height="4"/>
	<rect x="315.2" y="142.05" class="st0" width="35.4" height="3.3"/>
	<rect x="779.6" y="342.45" class="st3" width="35.4" height="0.7"/>
	<rect x="779.6" y="269.55" class="st0" width="35.4" height="72"/>
	<rect x="779.6" y="341.35" class="st3" width="35.4" height="1.8"/>
	<rect x="826.3" y="332.95" class="st3" width="35.4" height="1.9"/>
	<rect x="95.1" y="23.75" class="st5" width="24" height="23.3"/>
	<g class="st6">
		<path class="st7" d="M100,34.55h-0.8v-9.3l-2.8,1v-0.8l3.5-1.3h0.1C100,24.15,100,34.55,100,34.55z"/>
		<path class="st7" d="M110.5,34.55h-6.4v-0.7l3.5-4c0.6-0.7,1-1.2,1.2-1.7c0.2-0.4,0.3-0.9,0.3-1.3c0-0.6-0.2-1.2-0.6-1.5
			c-0.4-0.4-0.9-0.6-1.6-0.6s-1.2,0.2-1.7,0.7s-0.6,1-0.6,1.7h-0.8c0-0.6,0.1-1.1,0.4-1.6s0.6-0.8,1.1-1.1s1-0.4,1.6-0.4
			c0.9,0,1.7,0.2,2.2,0.7s0.8,1.2,0.8,2c0,0.5-0.2,1-0.4,1.6c-0.3,0.6-0.8,1.3-1.6,2.1l-2.8,3.2h5.4
			C110.5,33.85,110.5,34.55,110.5,34.55z"/>
	</g>
	<rect x="95.1" y="77.25" class="st5" width="24" height="23.3"/>
	<g class="st6">
		<path class="st7" d="M100,88.05h-0.8v-9.2l-2.8,1v-0.8l3.5-1.3h0.1C100,77.75,100,88.05,100,88.05z"/>
		<path class="st7" d="M110.2,83.85c0,1.4-0.3,2.5-0.8,3.3s-1.3,1.1-2.3,1.1s-1.8-0.4-2.3-1.1s-0.8-1.8-0.8-3.2v-1.8
			c0-1.4,0.3-2.5,0.8-3.3s1.3-1.1,2.3-1.1s1.8,0.4,2.3,1.1s0.8,1.8,0.8,3.2V83.85z M109.4,81.95c0-1.2-0.2-2.1-0.6-2.7
			s-1-0.9-1.7-0.9c-0.8,0-1.3,0.3-1.7,0.9s-0.6,1.4-0.6,2.6v2c0,1.2,0.2,2.1,0.6,2.7s1,0.9,1.7,0.9c0.8,0,1.3-0.3,1.7-0.9
			c0.4-0.6,0.6-1.5,0.6-2.7V81.95L109.4,81.95z"/>
	</g>
	<rect x="95.1" y="127.95" class="st5" width="24" height="23.3"/>
	<g class="st6">
		<path class="st7" d="M109.1,131.15c0,0.5-0.2,1-0.5,1.4s-0.7,0.7-1.2,0.9c0.6,0.2,1.1,0.5,1.4,1s0.5,1,0.5,1.6
			c0,0.9-0.3,1.6-0.9,2.1s-1.4,0.8-2.4,0.8s-1.8-0.3-2.4-0.8s-0.9-1.2-0.9-2.1c0-0.6,0.2-1.1,0.5-1.6c0.3-0.4,0.8-0.8,1.4-1
			c-0.5-0.2-0.9-0.5-1.2-0.9c-0.3-0.4-0.4-0.9-0.4-1.4c0-0.9,0.3-1.5,0.8-2s1.3-0.8,2.2-0.8s1.6,0.2,2.2,0.8
			S109.1,130.35,109.1,131.15z M108.5,136.05c0-0.6-0.2-1.2-0.7-1.6s-1-0.6-1.7-0.6s-1.3,0.2-1.7,0.6c-0.4,0.4-0.7,0.9-0.7,1.6
			c0,0.6,0.2,1.2,0.7,1.6c0.4,0.4,1,0.6,1.8,0.6c0.7,0,1.3-0.2,1.8-0.6C108.3,137.25,108.5,136.65,108.5,136.05z M108.3,131.15
			c0-0.6-0.2-1.1-0.6-1.5s-0.9-0.6-1.6-0.6c-0.6,0-1.2,0.2-1.6,0.6s-0.6,0.9-0.6,1.5s0.2,1.1,0.6,1.4s0.9,0.6,1.6,0.6
			c0.6,0,1.2-0.2,1.6-0.6C108.1,132.25,108.3,131.75,108.3,131.15z"/>
	</g>
	<rect x="97" y="181.45" class="st5" width="24" height="23.3"/>
	<g class="st6">
		<path class="st7" d="M110,181.95v0.7h-0.1c-1.2,0-2.2,0.4-2.9,1.1s-1.1,1.7-1.2,3c0.3-0.4,0.6-0.7,1.1-0.9
			c0.4-0.2,0.9-0.3,1.5-0.3c0.9,0,1.6,0.3,2.2,0.9s0.8,1.4,0.8,2.4c0,0.7-0.1,1.3-0.4,1.8s-0.6,0.9-1.1,1.2s-1,0.4-1.6,0.4
			c-1,0-1.8-0.4-2.4-1.1s-0.9-1.6-0.9-2.8v-0.8c0-1.8,0.4-3.2,1.2-4.3c0.8-1,2-1.5,3.6-1.5h0.2V181.95z M108.2,186.35
			c-0.5,0-1,0.2-1.5,0.5s-0.8,0.7-0.9,1.2v0.7c0,0.9,0.2,1.6,0.7,2.2s1.1,0.8,1.8,0.8c0.7,0,1.2-0.3,1.6-0.8s0.6-1.2,0.6-2
			s-0.2-1.4-0.6-1.9C109.4,186.55,108.9,186.35,108.2,186.35z"/>
	</g>
	<rect x="96" y="235.65" class="st5" width="24" height="23.3"/>
	<g class="st6">
		<path class="st7" d="M109.2,243.15h1.6v0.7h-1.6v2.6h-0.8v-2.6h-4.8v-0.5l4.7-7.2h0.9C109.2,236.15,109.2,243.15,109.2,243.15z
			 M104.5,243.15h3.8v-5.9l-0.4,0.6L104.5,243.15z"/>
	</g>
	<rect x="96" y="289.75" class="st5" width="24" height="23.3"/>
	<g class="st6">
		<path class="st7" d="M110.4,300.55H104v-0.6l3.5-4c0.6-0.7,1-1.2,1.2-1.7c0.2-0.4,0.3-0.9,0.3-1.3c0-0.6-0.2-1.2-0.6-1.5
			s-0.9-0.6-1.6-0.6s-1.2,0.2-1.7,0.7s-0.6,1-0.6,1.7h-0.8c0-0.6,0.1-1.1,0.4-1.6s0.6-0.8,1.1-1.1s1-0.4,1.6-0.4
			c0.9,0,1.7,0.2,2.2,0.7s0.8,1.2,0.8,2c0,0.5-0.2,1-0.4,1.6c-0.3,0.6-0.8,1.3-1.6,2.1l-2.8,3.2h5.4
			C110.4,299.85,110.4,300.55,110.4,300.55z"/>
	</g>
	<rect x="97" y="341.95" class="st5" width="24" height="23.3"/>
	<g class="st6">
		<path class="st7" d="M111.2,348.45c0,1.4-0.3,2.5-0.8,3.3s-1.3,1.1-2.3,1.1s-1.8-0.4-2.3-1.1s-0.8-1.8-0.8-3.2v-1.8
			c0-1.4,0.3-2.5,0.8-3.3s1.3-1.1,2.3-1.1s1.8,0.4,2.3,1.1s0.8,1.8,0.8,3.2V348.45z M110.3,346.65c0-1.2-0.2-2.1-0.6-2.7
			s-1-0.9-1.7-0.9c-0.8,0-1.3,0.3-1.7,0.9s-0.6,1.5-0.6,2.6v2c0,1.2,0.2,2.1,0.6,2.7s1,0.9,1.7,0.9c0.8,0,1.3-0.3,1.7-0.9
			c0.4-0.6,0.6-1.5,0.6-2.7V346.65L110.3,346.65z"/>
	</g>
	<rect x="132.3" y="205.05" class="st5" width="32.6" height="14.3"/>
	<g class="st6">
		<path class="st7" d="M136.6,214.55h-0.7v-8.1l-2.4,0.9v-0.7l3.1-1.1h0.1L136.6,214.55L136.6,214.55z"/>
		<path class="st7" d="M145.6,210.75c0,1.3-0.2,2.2-0.7,2.9c-0.5,0.6-1.1,1-2.1,1c-0.9,0-1.6-0.3-2-1s-0.7-1.6-0.7-2.8v-1.6
			c0-1.3,0.2-2.2,0.7-2.9s1.1-1,2.1-1c0.9,0,1.6,0.3,2,0.9s0.7,1.6,0.7,2.8V210.75L145.6,210.75z M144.8,209.15c0-1-0.2-1.8-0.5-2.3
			s-0.8-0.8-1.5-0.8s-1.2,0.3-1.5,0.8s-0.5,1.3-0.5,2.3v1.8c0,1,0.2,1.8,0.5,2.3s0.9,0.8,1.5,0.8c0.7,0,1.1-0.3,1.5-0.8
			c0.3-0.5,0.5-1.3,0.5-2.3V209.15L144.8,209.15z"/>
		<path class="st7" d="M147.2,214.05c0-0.1,0.1-0.3,0.1-0.4s0.2-0.1,0.4-0.1s0.3,0.1,0.4,0.1s0.1,0.2,0.1,0.4c0,0.1-0.1,0.3-0.1,0.4
			c-0.1,0.1-0.2,0.1-0.4,0.1s-0.3-0.1-0.4-0.1C147.2,214.35,147.2,214.25,147.2,214.05z"/>
		<path class="st7" d="M154.5,205.45v0.6h-0.1c-1.1,0-1.9,0.3-2.5,0.9s-1,1.5-1,2.6c0.2-0.3,0.6-0.6,0.9-0.8s0.8-0.3,1.3-0.3
			c0.8,0,1.4,0.3,1.9,0.8s0.7,1.2,0.7,2.1c0,0.6-0.1,1.1-0.3,1.6s-0.5,0.8-0.9,1.1s-0.9,0.4-1.4,0.4c-0.9,0-1.6-0.3-2.1-0.9
			s-0.8-1.4-0.8-2.4v-0.7c0-1.6,0.4-2.8,1.1-3.7s1.8-1.3,3.1-1.3L154.5,205.45L154.5,205.45z M153,209.25c-0.5,0-0.9,0.1-1.3,0.4
			s-0.7,0.6-0.8,1.1v0.6c0,0.8,0.2,1.4,0.6,1.9c0.4,0.5,0.9,0.7,1.6,0.7c0.6,0,1-0.2,1.4-0.7s0.5-1,0.5-1.7s-0.2-1.3-0.5-1.7
			C154.1,209.45,153.6,209.25,153,209.25z"/>
	</g>
	<rect x="180.1" y="48.75" class="st5" width="32.6" height="14.3"/>
	<g class="st6">
		<path class="st7" d="M184.4,58.25h-0.7v-8.1l-2.4,0.9v-0.7l3.1-1.1h0.1L184.4,58.25L184.4,58.25z"/>
		<path class="st7" d="M193.4,54.55c0,1.3-0.2,2.2-0.7,2.9s-1.1,1-2.1,1c-0.9,0-1.6-0.3-2-1s-0.7-1.6-0.7-2.8v-1.6
			c0-1.3,0.2-2.2,0.7-2.9s1.1-1,2.1-1c0.9,0,1.6,0.3,2,0.9c0.5,0.6,0.7,1.5,0.7,2.8V54.55L193.4,54.55z M192.6,52.95
			c0-1-0.2-1.8-0.5-2.3s-0.8-0.8-1.5-0.8s-1.2,0.3-1.5,0.8s-0.5,1.3-0.5,2.3v1.8c0,1,0.2,1.8,0.5,2.3s0.9,0.8,1.5,0.8
			c0.7,0,1.1-0.3,1.5-0.8c0.3-0.5,0.5-1.3,0.5-2.3V52.95L192.6,52.95z"/>
		<path class="st7" d="M195,57.75c0-0.1,0.1-0.3,0.1-0.4s0.2-0.2,0.4-0.2s0.3,0,0.4,0.2s0.1,0.2,0.1,0.4c0,0.1-0.1,0.3-0.1,0.3
			s-0.2,0.1-0.4,0.1s-0.3,0-0.4-0.1C195,58.05,195,57.95,195,57.75z"/>
		<path class="st7" d="M202.3,49.25v0.6h-0.1c-1.1,0-1.9,0.3-2.5,1s-1,1.5-1,2.6c0.2-0.3,0.6-0.6,0.9-0.8s0.8-0.3,1.3-0.3
			c0.8,0,1.4,0.3,1.9,0.8s0.7,1.2,0.7,2.1c0,0.6-0.1,1.1-0.3,1.6s-0.5,0.8-0.9,1.1s-0.9,0.4-1.4,0.4c-0.9,0-1.6-0.3-2.1-0.9
			s-0.8-1.4-0.8-2.4v-0.7c0-1.6,0.4-2.8,1.1-3.7s1.8-1.3,3.1-1.3L202.3,49.25L202.3,49.25z M200.8,53.05c-0.5,0-0.9,0.1-1.3,0.4
			s-0.7,0.6-0.8,1v0.6c0,0.8,0.2,1.4,0.6,1.9c0.4,0.5,0.9,0.7,1.6,0.7c0.6,0,1-0.2,1.4-0.7s0.5-1,0.5-1.7s-0.2-1.3-0.5-1.7
			C201.9,53.25,201.4,53.05,200.8,53.05z"/>
	</g>
	<rect x="230.6" y="70.15" class="st5" width="32.6" height="14.3"/>
	<g class="st6">
		<path class="st7" d="M236,75.45c-0.3,0.4-0.6,0.7-1,0.9s-0.8,0.3-1.3,0.3s-1-0.1-1.4-0.4s-0.7-0.6-0.9-1.1s-0.3-1-0.3-1.5
			c0-0.6,0.1-1.1,0.3-1.6s0.5-0.9,0.9-1.1s0.9-0.4,1.4-0.4c0.9,0,1.6,0.3,2.1,0.9s0.8,1.5,0.8,2.7v0.7c0,1.6-0.3,2.8-1,3.6
			s-1.7,1.2-3.2,1.2h-0.1v-0.6h0.3c1.1,0,1.9-0.3,2.4-0.9S236,76.65,236,75.45z M233.8,76.05c0.5,0,0.9-0.2,1.3-0.4
			c0.4-0.3,0.7-0.7,0.8-1.1v-0.4c0-0.9-0.2-1.6-0.6-2.1s-0.9-0.8-1.5-0.8s-1.1,0.2-1.4,0.7c-0.4,0.5-0.6,1.1-0.6,1.8
			c0,0.7,0.2,1.2,0.5,1.7C232.8,75.75,233.3,76.05,233.8,76.05z"/>
		<path class="st7" d="M238.4,79.15c0-0.1,0.1-0.3,0.1-0.4c0.1-0.1,0.2-0.2,0.4-0.2s0.3,0.1,0.4,0.2c0.1,0.1,0.1,0.2,0.1,0.4
			c0,0.1-0.1,0.3-0.1,0.3s-0.2,0.1-0.4,0.1s-0.3-0.1-0.4-0.1C238.5,79.35,238.4,79.25,238.4,79.15z"/>
		<path class="st7" d="M245.7,70.55v0.6h-0.1c-1.1,0-1.9,0.3-2.5,0.9s-1,1.5-1,2.6c0.2-0.3,0.6-0.6,0.9-0.8s0.8-0.3,1.3-0.3
			c0.8,0,1.4,0.3,1.9,0.8s0.7,1.2,0.7,2.1c0,0.6-0.1,1.1-0.3,1.6s-0.5,0.8-0.9,1.1s-0.9,0.4-1.4,0.4c-0.9,0-1.6-0.3-2.1-0.9
			s-0.8-1.4-0.8-2.4v-0.7c0-1.6,0.4-2.8,1.1-3.7c0.7-0.9,1.8-1.3,3.1-1.3L245.7,70.55L245.7,70.55z M244.2,74.35
			c-0.5,0-0.9,0.1-1.3,0.4c-0.4,0.3-0.7,0.6-0.8,1.1v0.6c0,0.8,0.2,1.4,0.6,1.9c0.4,0.5,0.9,0.7,1.6,0.7c0.6,0,1-0.2,1.4-0.7
			s0.5-1,0.5-1.7s-0.2-1.3-0.5-1.7C245.3,74.55,244.8,74.35,244.2,74.35z"/>
	</g>
	<rect x="321.1" y="120.75" class="st5" width="32.6" height="14.3"/>
	<g class="st6">
		<path class="st7" d="M327.5,121.75l-3.8,8.5h-0.8l3.8-8.3h-5.1v-0.7h5.9V121.75L327.5,121.75z"/>
		<path class="st7" d="M329,129.85c0-0.1,0-0.3,0.1-0.4s0.2-0.1,0.4-0.1s0.3,0.1,0.4,0.1s0.1,0.2,0.1,0.4c0,0.1,0,0.3-0.1,0.4
			c-0.1,0.1-0.2,0.1-0.4,0.1c-0.2,0-0.3-0.1-0.4-0.1C329,130.05,329,129.95,329,129.85z"/>
		<path class="st7" d="M337.5,121.75l-3.8,8.5h-0.8l3.8-8.3h-5.1v-0.7h5.9V121.75L337.5,121.75z"/>
	</g>
	<rect x="368.2" y="123.85" class="st5" width="32.6" height="14.3"/>
	<g class="st6">
		<path class="st7" d="M374.6,124.85l-3.8,8.5H370l3.8-8.3h-5.1v-0.6h5.9L374.6,124.85L374.6,124.85z"/>
		<path class="st7" d="M376.1,132.85c0-0.1,0-0.3,0.1-0.4s0.2-0.1,0.4-0.1s0.3,0.1,0.4,0.1s0.1,0.2,0.1,0.4c0,0.1,0,0.3-0.1,0.4
			c-0.1,0.1-0.2,0.1-0.4,0.1c-0.2,0-0.3-0.1-0.4-0.1C376.2,133.15,376.1,133.05,376.1,132.85z"/>
		<path class="st7" d="M383.6,130.45h1.4v0.6h-1.4v2.3h-0.7v-2.3h-4.2v-0.4l4.1-6.3h0.8L383.6,130.45L383.6,130.45z M379.6,130.45
			h3.3v-5.1l-0.3,0.6L379.6,130.45z"/>
	</g>
	<rect x="464.7" y="167.75" class="st5" width="32.6" height="14.3"/>
	<g class="st6">
		<path class="st7" d="M466,172.55l0.4-4.4h4.5v0.7h-3.8l-0.3,3c0.5-0.3,1-0.5,1.7-0.5c0.8,0,1.5,0.3,1.9,0.8
			c0.5,0.5,0.7,1.2,0.7,2.1c0,0.9-0.2,1.7-0.7,2.2s-1.1,0.8-2,0.8c-0.8,0-1.4-0.2-1.9-0.6s-0.8-1-0.8-1.8h0.7
			c0.1,0.6,0.3,1.1,0.6,1.4c0.3,0.3,0.8,0.5,1.4,0.5s1.1-0.2,1.5-0.6s0.5-1,0.5-1.7s-0.2-1.2-0.5-1.6c-0.4-0.4-0.9-0.6-1.5-0.6
			c-0.4,0-0.6,0-0.9,0.1s-0.5,0.3-0.8,0.5L466,172.55z"/>
		<path class="st7" d="M472.6,176.75c0-0.1,0-0.3,0.1-0.4s0.2-0.1,0.4-0.1s0.3,0.1,0.4,0.1s0.1,0.2,0.1,0.4c0,0.1,0,0.3-0.1,0.4
			c-0.1,0.1-0.2,0.1-0.4,0.1c-0.2,0-0.3-0.1-0.4-0.1C472.6,176.95,472.6,176.85,472.6,176.75z"/>
		<path class="st7" d="M480.1,173.05c-0.3,0.4-0.6,0.7-1,0.9s-0.8,0.3-1.3,0.3s-1-0.1-1.4-0.4s-0.7-0.6-0.9-1.1
			c-0.2-0.5-0.3-1-0.3-1.5c0-0.6,0.1-1.1,0.3-1.6s0.5-0.9,1-1.1s0.9-0.4,1.4-0.4c0.9,0,1.6,0.3,2.1,0.9s0.8,1.5,0.8,2.7v0.7
			c0,1.6-0.3,2.8-1,3.6s-1.7,1.2-3.2,1.2h-0.1v-0.6h0.3c1.1,0,1.9-0.3,2.4-0.9S480.1,174.25,480.1,173.05z M478,173.55
			c0.5,0,0.9-0.1,1.3-0.4c0.4-0.3,0.7-0.7,0.8-1.1v-0.4c0-0.9-0.2-1.6-0.6-2.1s-0.9-0.8-1.5-0.8s-1.1,0.2-1.4,0.7s-0.6,1.1-0.6,1.8
			s0.2,1.2,0.5,1.7S477.4,173.55,478,173.55z"/>
	</g>
	<rect x="509" y="185.45" class="st5" width="32.6" height="14.3"/>
	<g class="st6">
		<path class="st7" d="M510.4,190.25l0.4-4.4h4.5v0.7h-3.8l-0.3,3c0.5-0.3,1-0.5,1.7-0.5c0.8,0,1.5,0.3,1.9,0.8s0.7,1.2,0.7,2.1
			c0,0.9-0.2,1.7-0.7,2.2s-1.1,0.8-2,0.8c-0.8,0-1.4-0.2-1.9-0.6s-0.8-1-0.8-1.8h0.7c0.1,0.6,0.3,1.1,0.6,1.4
			c0.3,0.3,0.8,0.5,1.4,0.5c0.6,0,1.1-0.2,1.5-0.6s0.5-1,0.5-1.7s-0.2-1.2-0.5-1.6c-0.4-0.4-0.9-0.6-1.5-0.6c-0.3,0-0.7,0-0.9,0.1
			c-0.2,0.1-0.5,0.3-0.8,0.5L510.4,190.25z"/>
		<path class="st7" d="M516.9,194.45c0-0.1,0-0.3,0.1-0.4s0.2-0.1,0.4-0.1s0.3,0.1,0.4,0.1s0.1,0.2,0.1,0.4c0,0.1,0,0.3-0.1,0.4
			c-0.1,0.1-0.2,0.1-0.4,0.1s-0.3-0.1-0.4-0.1C516.9,194.65,516.9,194.55,516.9,194.45z"/>
		<path class="st7" d="M525.5,194.85h-5.6v-0.6l3.1-3.5c0.5-0.6,0.9-1.1,1.1-1.4c0.2-0.4,0.3-0.8,0.3-1.1c0-0.6-0.2-1-0.5-1.3
			s-0.8-0.5-1.4-0.5c-0.6,0-1.1,0.2-1.5,0.6s-0.6,0.9-0.6,1.5h-0.7c0-0.5,0.1-1,0.3-1.4s0.5-0.7,1-1s0.9-0.4,1.4-0.4
			c0.8,0,1.5,0.2,1.9,0.6s0.7,1,0.7,1.8c0,0.4-0.1,0.9-0.4,1.4s-0.7,1.1-1.4,1.9l-2.5,2.8h4.7L525.5,194.85L525.5,194.85z"/>
	</g>
	<rect x="556.4" y="190.15" class="st5" width="32.6" height="14.3"/>
	<g class="st6">
		<path class="st7" d="M557.8,195.05l0.4-4.4h4.5v0.7h-3.8l-0.3,3c0.5-0.3,1-0.5,1.7-0.5c0.8,0,1.5,0.3,1.9,0.8s0.7,1.2,0.7,2.1
			c0,0.9-0.2,1.7-0.7,2.2s-1.1,0.8-2,0.8c-0.8,0-1.4-0.2-1.9-0.6s-0.8-1-0.8-1.8h0.7c0.1,0.6,0.3,1.1,0.6,1.4
			c0.3,0.3,0.8,0.5,1.4,0.5c0.6,0,1.1-0.2,1.5-0.6s0.5-1,0.5-1.7s-0.2-1.2-0.5-1.6c-0.4-0.4-0.9-0.6-1.5-0.6c-0.3,0-0.7,0-0.9,0.1
			s-0.5,0.3-0.8,0.5L557.8,195.05z"/>
		<path class="st7" d="M564.3,199.25c0-0.1,0-0.3,0.1-0.4s0.2-0.1,0.4-0.1s0.3,0.1,0.4,0.1s0.1,0.2,0.1,0.4c0,0.1,0,0.3-0.1,0.4
			c-0.1,0.1-0.2,0.1-0.4,0.1s-0.3-0.1-0.4-0.1C564.4,199.45,564.3,199.35,564.3,199.25z"/>
		<path class="st7" d="M570.7,199.65H570v-8.1l-2.4,0.9v-0.7l3-1.1h0.1L570.7,199.65L570.7,199.65z"/>
	</g>
	<rect x="649.2" y="249.45" class="st5" width="32.6" height="14.3"/>
	<g class="st6">
		<path class="st7" d="M655.7,258.85h-5.6v-0.6l3.1-3.5c0.5-0.6,0.9-1.1,1.1-1.4c0.2-0.4,0.3-0.8,0.3-1.1c0-0.6-0.2-1-0.5-1.3
			s-0.8-0.5-1.4-0.5c-0.6,0-1.1,0.2-1.5,0.6s-0.6,0.9-0.6,1.5h-0.7c0-0.5,0.1-1,0.3-1.4s0.5-0.7,1-1s0.9-0.4,1.4-0.4
			c0.8,0,1.5,0.2,1.9,0.6c0.5,0.4,0.7,1,0.7,1.8c0,0.4-0.1,0.9-0.4,1.4c-0.3,0.5-0.7,1.1-1.4,1.9l-2.4,2.8h4.7V258.85L655.7,258.85z
			"/>
		<path class="st7" d="M657.1,258.45c0-0.1,0-0.3,0.1-0.4s0.2-0.1,0.4-0.1s0.3,0,0.4,0.1c0.1,0.1,0.1,0.2,0.1,0.4
			c0,0.1,0,0.3-0.1,0.4s-0.2,0.1-0.4,0.1s-0.3,0-0.4-0.1C657.2,258.65,657.1,258.55,657.1,258.45z"/>
		<path class="st7" d="M664.7,254.75c-0.3,0.4-0.6,0.7-1,0.9s-0.8,0.3-1.3,0.3s-1-0.1-1.3-0.4s-0.7-0.6-0.9-1.1s-0.3-1-0.3-1.5
			c0-0.6,0.1-1.1,0.3-1.6s0.5-0.9,1-1.1c0.4-0.3,0.9-0.4,1.4-0.4c0.9,0,1.6,0.3,2.1,0.9c0.5,0.6,0.8,1.5,0.8,2.7v0.7
			c0,1.6-0.3,2.8-1,3.6s-1.7,1.2-3.2,1.2h-0.1v-0.6h0.3c1.1,0,1.9-0.3,2.4-0.9C664.4,256.75,664.7,255.95,664.7,254.75z
			 M662.5,255.25c0.5,0,0.9-0.1,1.3-0.4c0.4-0.3,0.7-0.7,0.8-1.1v-0.5c0-0.9-0.2-1.6-0.6-2.1c-0.4-0.5-0.9-0.8-1.5-0.8
			s-1.1,0.2-1.4,0.7s-0.6,1.1-0.6,1.8s0.2,1.2,0.5,1.7C661.5,255.05,662,255.25,662.5,255.25z"/>
	</g>
	<rect x="695.4" y="256.55" class="st5" width="32.6" height="14.3"/>
	<g class="st6">
		<path class="st7" d="M701.8,266.05h-5.6v-0.6l3.1-3.5c0.5-0.6,0.9-1.1,1.1-1.5s0.3-0.8,0.3-1.1c0-0.6-0.2-1-0.5-1.4
			c-0.3-0.3-0.8-0.5-1.4-0.5c-0.6,0-1.1,0.2-1.5,0.6s-0.6,0.9-0.6,1.5H696c0-0.5,0.1-1,0.3-1.4s0.5-0.7,1-1c0.4-0.2,0.9-0.4,1.4-0.4
			c0.8,0,1.5,0.2,1.9,0.6c0.5,0.4,0.7,1,0.7,1.8c0,0.4-0.1,0.9-0.4,1.4c-0.3,0.5-0.7,1.1-1.4,1.9l-2.5,2.8h4.7v0.8H701.8z"/>
		<path class="st7" d="M703.2,265.55c0-0.1,0-0.3,0.1-0.4s0.2-0.1,0.4-0.1s0.3,0,0.4,0.1c0.1,0.1,0.1,0.2,0.1,0.4
			c0,0.1,0,0.3-0.1,0.4s-0.2,0.1-0.4,0.1s-0.3,0-0.4-0.1C703.3,265.85,703.2,265.75,703.2,265.55z"/>
		<path class="st7" d="M710.5,257.05v0.6h-0.1c-1.1,0-1.9,0.3-2.5,1s-1,1.5-1,2.6c0.2-0.3,0.6-0.6,0.9-0.8s0.8-0.3,1.3-0.3
			c0.8,0,1.4,0.3,1.9,0.8s0.7,1.2,0.7,2.1c0,0.6-0.1,1.1-0.3,1.6s-0.5,0.8-0.9,1.1s-0.9,0.4-1.4,0.4c-0.9,0-1.5-0.3-2.1-0.9
			s-0.8-1.4-0.8-2.4v-0.7c0-1.6,0.4-2.8,1.1-3.7c0.7-0.9,1.8-1.3,3.1-1.3L710.5,257.05L710.5,257.05z M709,260.75
			c-0.5,0-0.9,0.1-1.3,0.4c-0.4,0.3-0.7,0.6-0.8,1v0.6c0,0.8,0.2,1.4,0.6,1.9c0.4,0.5,0.9,0.7,1.6,0.7c0.6,0,1-0.2,1.4-0.7
			c0.3-0.5,0.5-1,0.5-1.7s-0.2-1.3-0.5-1.7C710.1,261.05,709.6,260.75,709,260.75z"/>
	</g>
	<rect x="788.6" y="249.15" class="st5" width="32.6" height="14.3"/>
	<g class="st6">
		<path class="st7" d="M795,258.55h-5.6v-0.6l3.1-3.5c0.5-0.6,0.9-1.1,1.1-1.4c0.2-0.4,0.3-0.8,0.3-1.1c0-0.6-0.2-1-0.5-1.4
			s-0.8-0.5-1.4-0.5c-0.6,0-1.1,0.2-1.5,0.6s-0.6,0.9-0.6,1.5h-0.7c0-0.5,0.1-1,0.3-1.4s0.5-0.7,1-1c0.4-0.2,0.9-0.4,1.4-0.4
			c0.8,0,1.5,0.2,1.9,0.6c0.5,0.4,0.7,1,0.7,1.8c0,0.4-0.1,0.9-0.4,1.4c-0.3,0.5-0.7,1.1-1.4,1.9l-2.5,2.8h4.7v0.7H795z"/>
		<path class="st7" d="M796.5,258.15c0-0.1,0-0.3,0.1-0.4s0.2-0.1,0.4-0.1s0.3,0,0.4,0.1c0.1,0.1,0.1,0.2,0.1,0.4
			c0,0.1,0,0.3-0.1,0.4s-0.2,0.1-0.4,0.1s-0.3,0-0.4-0.1C796.5,258.35,796.5,258.25,796.5,258.15z"/>
		<path class="st7" d="M804,254.45c-0.3,0.4-0.6,0.7-1,0.9s-0.8,0.3-1.3,0.3s-1-0.1-1.3-0.4c-0.4-0.3-0.7-0.6-0.9-1.1
			s-0.3-1-0.3-1.5c0-0.6,0.1-1.1,0.3-1.6s0.5-0.9,1-1.1c0.4-0.3,0.9-0.4,1.4-0.4c0.9,0,1.6,0.3,2.1,0.9s0.8,1.5,0.8,2.7v0.7
			c0,1.6-0.3,2.8-1,3.6s-1.7,1.2-3.2,1.2h-0.1v-0.6h0.3c1.1,0,1.9-0.3,2.4-0.9C803.7,256.45,804,255.65,804,254.45z M801.9,254.95
			c0.5,0,0.9-0.1,1.3-0.4s0.7-0.7,0.8-1.1v-0.4c0-0.9-0.2-1.6-0.6-2.1s-0.9-0.8-1.5-0.8s-1.1,0.2-1.4,0.7s-0.6,1.1-0.6,1.8
			s0.2,1.2,0.5,1.7C800.8,254.75,801.3,254.95,801.9,254.95z"/>
	</g>
	<rect x="834.7" y="272.05" class="st5" width="32.6" height="14.3"/>
	<g class="st6">
		<path class="st7" d="M841.1,281.45h-5.6v-0.6l3.1-3.5c0.5-0.6,0.9-1.1,1.1-1.5s0.3-0.8,0.3-1.1c0-0.6-0.2-1-0.5-1.3
			s-0.8-0.5-1.4-0.5c-0.6,0-1.1,0.2-1.5,0.6s-0.6,0.9-0.6,1.5h-0.7c0-0.5,0.1-1,0.3-1.4s0.5-0.7,1-1c0.4-0.2,0.9-0.4,1.4-0.4
			c0.8,0,1.5,0.2,1.9,0.6c0.5,0.4,0.7,1,0.7,1.8c0,0.4-0.1,0.9-0.4,1.4c-0.3,0.5-0.7,1.1-1.4,1.9l-2.5,2.8h4.7v0.7H841.1z"/>
		<path class="st7" d="M842.5,281.05c0-0.1,0-0.3,0.1-0.4s0.2-0.1,0.4-0.1s0.3,0,0.4,0.1c0.1,0.1,0.1,0.2,0.1,0.4
			c0,0.1,0,0.3-0.1,0.4s-0.2,0.1-0.4,0.1s-0.3,0-0.4-0.1C842.6,281.25,842.5,281.15,842.5,281.05z"/>
		<path class="st7" d="M848.9,281.45h-0.7v-8.1l-2.4,0.9v-0.7l3-1.1h0.1L848.9,281.45L848.9,281.45z"/>
	</g>
	<rect x="882.3" y="288.15" class="st5" width="32.6" height="14.3"/>
	<g class="st6">
		<path class="st7" d="M886.6,297.55h-0.7v-8.1l-2.4,0.9v-0.7l3-1.1h0.1L886.6,297.55L886.6,297.55z"/>
		<path class="st7" d="M890.2,297.15c0-0.1,0-0.3,0.1-0.4s0.2-0.1,0.4-0.1s0.3,0,0.4,0.1c0.1,0.1,0.1,0.2,0.1,0.4
			c0,0.1,0,0.3-0.1,0.4s-0.2,0.1-0.4,0.1s-0.3,0-0.4-0.1C890.2,297.35,890.2,297.25,890.2,297.15z"/>
		<path class="st7" d="M893.7,292.95l0.4-4.4h4.5v0.7h-3.8l-0.3,3c0.5-0.3,1-0.5,1.7-0.5c0.8,0,1.5,0.3,1.9,0.8s0.7,1.2,0.7,2.1
			s-0.2,1.7-0.7,2.2s-1.1,0.8-2,0.8c-0.8,0-1.4-0.2-1.9-0.6s-0.8-1-0.8-1.8h0.7c0.1,0.6,0.3,1.1,0.6,1.4s0.8,0.5,1.4,0.5
			c0.6,0,1.1-0.2,1.5-0.6s0.5-1,0.5-1.7s-0.2-1.2-0.5-1.6c-0.4-0.4-0.9-0.6-1.5-0.6c-0.3,0-0.7,0-0.9,0.1c-0.3,0.1-0.5,0.3-0.8,0.5
			L893.7,292.95z"/>
	</g>
	<rect x="927.3" y="298.45" class="st5" width="32.6" height="14.3"/>
	<g class="st6">
		<path class="st7" d="M931.6,307.85h-0.7v-8.1l-2.4,0.9v-0.7l3-1.1h0.1L931.6,307.85L931.6,307.85z"/>
		<path class="st7" d="M935.2,307.45c0-0.1,0-0.3,0.1-0.4s0.2-0.1,0.4-0.1s0.3,0,0.4,0.1c0.1,0.1,0.1,0.2,0.1,0.4
			c0,0.1,0,0.3-0.1,0.4s-0.2,0.1-0.4,0.1s-0.3,0-0.4-0.1C935.3,307.65,935.2,307.55,935.2,307.45z"/>
		<path class="st7" d="M941.6,307.85h-0.7v-8.1l-2.4,0.9v-0.7l3-1.1h0.1L941.6,307.85L941.6,307.85z"/>
	</g>
	<rect x="975.4" y="305.55" class="st5" width="32.6" height="14.3"/>
	<g class="st6">
		<path class="st7" d="M979.7,315.05H979v-8.1l-2.4,0.9v-0.7l3-1.1h0.1L979.7,315.05L979.7,315.05z"/>
		<path class="st7" d="M983.3,314.55c0-0.1,0-0.3,0.1-0.4s0.2-0.1,0.4-0.1s0.3,0,0.4,0.1c0.1,0.1,0.1,0.2,0.1,0.4
			c0,0.1,0,0.3-0.1,0.4s-0.2,0.1-0.4,0.1s-0.3,0-0.4-0.1C983.3,314.85,983.3,314.75,983.3,314.55z"/>
		<path class="st7" d="M991.7,311.25c0,1.3-0.2,2.2-0.7,2.9c-0.5,0.6-1.2,1-2,1c-0.9,0-1.6-0.3-2-1s-0.7-1.6-0.7-2.8v-1.6
			c0-1.3,0.2-2.2,0.7-2.9c0.5-0.6,1.2-1,2-1c0.9,0,1.6,0.3,2,0.9c0.5,0.6,0.7,1.5,0.7,2.8V311.25L991.7,311.25z M990.9,309.65
			c0-1-0.2-1.8-0.5-2.3s-0.8-0.8-1.5-0.8s-1.2,0.3-1.5,0.8s-0.5,1.3-0.5,2.3v1.8c0,1,0.2,1.8,0.5,2.3s0.8,0.8,1.5,0.8
			s1.2-0.3,1.5-0.8s0.5-1.3,0.5-2.3V309.65L990.9,309.65z"/>
	</g>
	<rect x="1020.2" y="307.75" class="st5" width="32.6" height="14.3"/>
	<g class="st6">
		<path class="st7" d="M1026.4,313.45c0,1.3-0.2,2.2-0.7,2.9c-0.5,0.6-1.2,1-2.1,1c-0.9,0-1.6-0.3-2-1s-0.7-1.6-0.7-2.8v-1.6
			c0-1.3,0.2-2.2,0.7-2.9c0.5-0.6,1.2-1,2.1-1c0.9,0,1.6,0.3,2,0.9s0.7,1.5,0.7,2.8V313.45L1026.4,313.45z M1025.7,311.85
			c0-1-0.2-1.8-0.5-2.3s-0.8-0.8-1.5-0.8c-0.7,0-1.2,0.3-1.5,0.8c-0.3,0.5-0.5,1.3-0.5,2.3v1.8c0,1,0.2,1.8,0.5,2.3
			c0.3,0.5,0.8,0.8,1.5,0.8c0.7,0,1.2-0.3,1.5-0.8s0.5-1.3,0.5-2.3V311.85L1025.7,311.85z"/>
		<path class="st7" d="M1028.1,316.75c0-0.1,0.1-0.3,0.1-0.4c0.1-0.1,0.2-0.1,0.4-0.1s0.3,0,0.4,0.1s0.1,0.2,0.1,0.4
			c0,0.1-0.1,0.3-0.1,0.4s-0.2,0.1-0.4,0.1c-0.2,0-0.3,0-0.4-0.1S1028.1,316.95,1028.1,316.75z"/>
		<path class="st7" d="M1035.6,313.05c-0.3,0.4-0.6,0.7-1,0.9s-0.8,0.3-1.3,0.3s-1-0.1-1.3-0.4s-0.7-0.6-0.9-1.1
			c-0.2-0.5-0.3-1-0.3-1.5c0-0.6,0.1-1.1,0.3-1.6c0.2-0.5,0.5-0.9,0.9-1.1s0.9-0.4,1.4-0.4c0.9,0,1.6,0.3,2.1,0.9s0.8,1.5,0.8,2.7
			v0.7c0,1.6-0.3,2.8-1,3.6c-0.7,0.8-1.7,1.2-3.2,1.2h-0.1v-0.6h0.3c1.1,0,1.9-0.3,2.4-0.9S1035.6,314.25,1035.6,313.05z
			 M1033.5,313.65c0.5,0,0.9-0.1,1.3-0.4s0.7-0.7,0.8-1.1v-0.4c0-0.9-0.2-1.6-0.6-2.1s-0.9-0.8-1.5-0.8s-1.1,0.2-1.4,0.7
			s-0.6,1.1-0.6,1.8c0,0.7,0.2,1.2,0.5,1.7C1032.4,313.45,1032.9,313.65,1033.5,313.65z"/>
	</g>
	<rect x="1068.3" y="20.95" class="st5" width="32.6" height="14.3"/>
	<g class="st6">
		<path class="st7" d="M1072.6,30.35h-0.7v-8.1l-2.4,0.9v-0.7l3.1-1.1h0.1L1072.6,30.35L1072.6,30.35z"/>
		<path class="st7" d="M1079.5,30.35h-0.7v-8.1l-2.4,0.9v-0.7l3.1-1.1h0.1L1079.5,30.35L1079.5,30.35z"/>
		<path class="st7" d="M1083.1,29.95c0-0.1,0.1-0.3,0.1-0.4c0.1-0.1,0.2-0.1,0.4-0.1s0.3,0,0.4,0.1s0.1,0.2,0.1,0.4
			c0,0.1-0.1,0.3-0.1,0.4s-0.2,0.1-0.4,0.1c-0.2,0-0.3,0-0.4-0.1C1083.2,30.15,1083.1,30.05,1083.1,29.95z"/>
		<path class="st7" d="M1090.4,21.35v0.6h-0.1c-1.1,0-1.9,0.3-2.5,1s-1,1.5-1,2.6c0.2-0.3,0.6-0.6,0.9-0.8s0.8-0.3,1.3-0.3
			c0.8,0,1.4,0.3,1.9,0.8s0.7,1.2,0.7,2.1c0,0.6-0.1,1.1-0.3,1.6s-0.5,0.8-0.9,1.1s-0.9,0.4-1.4,0.4c-0.9,0-1.6-0.3-2.1-0.9
			s-0.8-1.4-0.8-2.4v-0.7c0-1.6,0.4-2.8,1.1-3.7s1.8-1.3,3.1-1.3L1090.4,21.35L1090.4,21.35z M1088.9,25.15c-0.5,0-0.9,0.1-1.3,0.4
			s-0.7,0.6-0.8,1v0.7c0,0.8,0.2,1.4,0.6,1.9s0.9,0.7,1.6,0.7c0.6,0,1-0.2,1.4-0.7s0.5-1,0.5-1.7s-0.2-1.3-0.5-1.7
			C1090,25.35,1089.5,25.15,1088.9,25.15z"/>
	</g>
	<rect x="127.8" y="357.45" class="st5" width="45" height="27.4"/>
	<g class="st6">
		<path class="st7" d="M134,358.65h-2.5v6.9h-1v-6.9H128v-0.8h5.9v0.8H134z"/>
		<path class="st7" d="M134.2,362.65c0-0.6,0.1-1.1,0.3-1.5s0.5-0.8,0.9-1s0.8-0.4,1.3-0.4c0.8,0,1.4,0.3,1.9,0.8s0.7,1.2,0.7,2.1
			v0.1c0,0.6-0.1,1-0.3,1.5c-0.2,0.4-0.5,0.8-0.9,1s-0.9,0.4-1.4,0.4c-0.8,0-1.4-0.3-1.9-0.8
			C134.4,364.25,134.2,363.55,134.2,362.65L134.2,362.65L134.2,362.65z M135.1,362.75c0,0.6,0.1,1.1,0.4,1.5
			c0.3,0.4,0.7,0.6,1.2,0.6s0.9-0.2,1.2-0.6s0.4-0.9,0.4-1.6c0-0.6-0.1-1.1-0.4-1.5c-0.3-0.4-0.7-0.6-1.2-0.6s-0.9,0.2-1.2,0.6
			C135.3,361.45,135.1,362.05,135.1,362.75z"/>
		<path class="st7" d="M142.4,364.05l1.3-4.3h1l-2.3,6.6c-0.4,1-0.9,1.4-1.7,1.4h-0.2l-0.4-0.1v-0.8h0.3c0.3,0,0.6-0.1,0.8-0.2
			s0.3-0.4,0.5-0.7l0.2-0.6l-2-5.6h1.1L142.4,364.05z"/>
		<path class="st7" d="M145.3,362.65c0-0.6,0.1-1.1,0.3-1.5s0.5-0.8,0.9-1s0.8-0.4,1.3-0.4c0.8,0,1.4,0.3,1.9,0.8s0.7,1.2,0.7,2.1
			v0.1c0,0.6-0.1,1-0.3,1.5c-0.2,0.4-0.5,0.8-0.9,1s-0.9,0.4-1.4,0.4c-0.8,0-1.4-0.3-1.9-0.8
			C145.5,364.25,145.3,363.55,145.3,362.65L145.3,362.65L145.3,362.65z M146.2,362.75c0,0.6,0.1,1.1,0.4,1.5
			c0.3,0.4,0.7,0.6,1.2,0.6s0.9-0.2,1.2-0.6s0.4-0.9,0.4-1.6c0-0.6-0.1-1.1-0.4-1.5c-0.3-0.4-0.7-0.6-1.2-0.6s-0.9,0.2-1.2,0.6
			C146.4,361.45,146.2,362.05,146.2,362.75z"/>
		<path class="st7" d="M153,358.45v1.4h1.1v0.8H153v3.5c0,0.2,0.1,0.4,0.1,0.5c0.1,0.1,0.3,0.2,0.5,0.2c0.1,0,0.3,0,0.5-0.1v0.8
			c-0.3,0.1-0.5,0.1-0.8,0.1c-0.4,0-0.8-0.1-1-0.4s-0.3-0.6-0.3-1.1v-3.5h-1v-0.8h1v-1.4H153L153,358.45z"/>
		<path class="st7" d="M158.7,365.55c-0.1-0.1-0.1-0.3-0.1-0.6c-0.4,0.5-1,0.7-1.6,0.7s-1-0.2-1.4-0.5s-0.5-0.7-0.5-1.2
			c0-0.6,0.2-1,0.7-1.4c0.4-0.3,1.1-0.5,1.9-0.5h0.9v-0.5c0-0.3-0.1-0.6-0.3-0.8c-0.2-0.2-0.5-0.3-0.9-0.3s-0.6,0.1-0.9,0.3
			c-0.2,0.2-0.4,0.4-0.4,0.6h-1c0-0.3,0.1-0.6,0.3-0.8s0.5-0.5,0.8-0.6c0.4-0.2,0.7-0.2,1.1-0.2c0.7,0,1.2,0.2,1.5,0.5
			s0.6,0.8,0.6,1.4v2.6c0,0.5,0.1,0.9,0.2,1.2v0.1L158.7,365.55L158.7,365.55z M157.1,364.75c0.3,0,0.6-0.1,0.9-0.2
			c0.3-0.2,0.5-0.4,0.6-0.6v-1.2h-0.8c-1.2,0-1.8,0.4-1.8,1c0,0.3,0.1,0.5,0.3,0.7S156.8,364.75,157.1,364.75z"/>
	</g>
	<rect x="185.6" y="357.45" class="st5" width="38.3" height="27.4"/>
	<g class="st6">
		<path class="st8" d="M189.1,364.15l2.2-6.3h1.1l-2.9,7.7h-0.9l-2.8-7.7h1.1L189.1,364.15z"/>
		<path class="st8" d="M195,363.05l0.1,1l0.2-0.9l1.5-5.4h0.9l1.5,5.4l0.2,0.9l0.2-1l1.2-5.2h1l-1.9,7.7H199l-1.6-5.6l-0.1-0.6
			l-0.1,0.6l-1.6,5.6h-0.9l-1.9-7.7h1L195,363.05z"/>
	</g>
	<rect x="227.6" y="356.55" class="st5" width="38.3" height="27.4"/>
	<g class="st6">
		<path class="st7" d="M231.4,361.55h-1.8v3.1h-1v-7.7h2.5c0.9,0,1.5,0.2,2,0.6s0.7,1,0.7,1.7c0,0.5-0.1,0.9-0.4,1.2
			s-0.6,0.6-1.1,0.8l1.8,3.3v0.1H233L231.4,361.55z M229.6,360.65h1.6c0.5,0,0.9-0.1,1.2-0.4s0.4-0.6,0.4-1c0-0.5-0.1-0.8-0.4-1.1
			s-0.7-0.4-1.2-0.4h-1.6V360.65L229.6,360.65z"/>
		<path class="st7" d="M241.1,364.65h-1l-3.9-5.9v5.9h-1v-7.7h1l3.9,5.9v-5.9h1V364.65L241.1,364.65z"/>
		<path class="st7" d="M244.2,356.95l2.5,6.3l2.5-6.3h1.3v7.7h-1v-3l0.1-3.2l-2.5,6.2h-0.8l-2.5-6.2l0.1,3.2v3h-1v-7.7H244.2
			L244.2,356.95z"/>
	</g>
	<rect x="308.8" y="356.55" class="st5" width="48.8" height="27.4"/>
	<g class="st6">
		<path class="st8" d="M314,361.25h-3.2v3.4h-1v-7.7h4.8v0.8h-3.7v2.6h3.2L314,361.25L314,361.25z"/>
		<path class="st8" d="M321.3,362.15c-0.1,0.8-0.4,1.4-0.9,1.9s-1.2,0.7-2,0.7c-0.9,0-1.6-0.3-2.2-1s-0.8-1.5-0.8-2.6v-0.7
			c0-0.7,0.1-1.3,0.4-1.9s0.6-1,1.1-1.2c0.5-0.3,1-0.4,1.6-0.4c0.8,0,1.5,0.2,2,0.7s0.8,1.1,0.9,1.9h-1c-0.1-0.6-0.3-1.1-0.6-1.3
			s-0.7-0.4-1.2-0.4c-0.6,0-1.1,0.2-1.5,0.7s-0.5,1.2-0.5,2v0.7c0,0.8,0.2,1.5,0.5,2s0.8,0.7,1.5,0.7c0.6,0,1-0.1,1.3-0.4
			c0.3-0.2,0.5-0.7,0.6-1.3L321.3,362.15L321.3,362.15z"/>
		<path class="st8" d="M327,362.65h-3.2l-0.7,2h-1l2.9-7.7h0.9l2.9,7.7h-1L327,362.65z M324,361.75h2.6l-1.3-3.6L324,361.75z"/>
		<path class="st8" d="M332.4,360.45h2.1v0.9h-2.1v2.4h-1v-2.4h-2.1v-0.9h2.1v-2.2h1V360.45z"/>
		<path class="st8" d="M336.9,361.65v3h-1v-7.7h2.8c0.8,0,1.5,0.2,2,0.6s0.7,1,0.7,1.7s-0.2,1.3-0.7,1.7s-1.1,0.6-2,0.6
			L336.9,361.65L336.9,361.65z M336.9,360.75h1.8c0.5,0,1-0.1,1.2-0.4s0.4-0.6,0.4-1.1s-0.1-0.8-0.4-1.1s-0.7-0.4-1.2-0.4h-1.9
			L336.9,360.75L336.9,360.75z"/>
		<path class="st8" d="M345,361.25c-0.9-0.2-1.5-0.6-1.9-0.9c-0.4-0.4-0.6-0.8-0.6-1.4s0.2-1.1,0.7-1.5s1.1-0.6,1.9-0.6
			c0.5,0,1,0.1,1.4,0.3c0.4,0.2,0.7,0.5,1,0.8c0.2,0.4,0.3,0.8,0.3,1.2h-1c0-0.5-0.1-0.8-0.4-1.1c-0.3-0.3-0.7-0.4-1.2-0.4
			s-0.9,0.1-1.2,0.3s-0.4,0.5-0.4,0.9c0,0.3,0.1,0.6,0.4,0.8c0.3,0.2,0.7,0.4,1.4,0.6c0.6,0.2,1.1,0.4,1.5,0.6s0.6,0.5,0.8,0.8
			c0.2,0.3,0.3,0.6,0.3,1c0,0.6-0.2,1.1-0.7,1.5s-1.1,0.6-2,0.6c-0.5,0-1-0.1-1.5-0.3c-0.5-0.2-0.8-0.5-1.1-0.8
			c-0.2-0.4-0.4-0.8-0.4-1.2h1c0,0.5,0.2,0.8,0.5,1.1c0.3,0.3,0.8,0.4,1.4,0.4c0.5,0,0.9-0.1,1.2-0.3c0.3-0.2,0.4-0.5,0.4-0.9
			s-0.1-0.7-0.4-0.9C346.1,361.65,345.7,361.35,345,361.25z"/>
		<path class="st8" d="M353.4,362.65h-3.2l-0.7,2h-1l2.9-7.7h0.9l2.9,7.7h-1L353.4,362.65z M350.4,361.75h2.6l-1.3-3.6L350.4,361.75
			z"/>
	</g>
	<rect x="361.1" y="355.05" class="st5" width="48.8" height="27.4"/>
	<g class="st6">
		<path class="st7" d="M367.9,363.15h-1v-3.5H363v3.5h-1v-7.7h1v3.3h3.9v-3.3h1V363.15z"/>
		<path class="st7" d="M371.4,361.65l1.3-4.3h1l-2.3,6.6c-0.4,1-0.9,1.4-1.7,1.4h-0.2l-0.4-0.1v-0.8h0.3c0.3,0,0.6-0.1,0.8-0.2
			s0.3-0.4,0.5-0.7l0.2-0.6l-2-5.6h1.1L371.4,361.65z"/>
		<path class="st7" d="M378.2,362.55c-0.4,0.5-0.9,0.7-1.7,0.7c-0.6,0-1.1-0.2-1.4-0.5s-0.5-0.9-0.5-1.6v-3.7h1v3.7
			c0,0.9,0.4,1.3,1,1.3c0.8,0,1.2-0.3,1.5-0.8v-4.1h1v5.7h-0.9V362.55z"/>
		<path class="st7" d="M381.5,357.45v0.7c0.4-0.5,1-0.8,1.7-0.8c1.2,0,1.8,0.7,1.8,2v3.8h-1v-3.8c0-0.4-0.1-0.7-0.3-0.9
			s-0.5-0.3-0.9-0.3c-0.3,0-0.6,0.1-0.8,0.2s-0.4,0.4-0.6,0.7v4.1h-1v-5.7L381.5,357.45L381.5,357.45z"/>
		<path class="st7" d="M386.3,360.25c0-0.9,0.2-1.6,0.6-2.1s1-0.8,1.6-0.8s1.2,0.2,1.6,0.7v-3h1v8.1h-0.9v-0.6
			c-0.4,0.5-0.9,0.7-1.6,0.7s-1.2-0.3-1.6-0.8S386.3,361.15,386.3,360.25L386.3,360.25L386.3,360.25z M387.3,360.35
			c0,0.6,0.1,1.1,0.4,1.5s0.6,0.5,1.1,0.5c0.6,0,1.1-0.3,1.4-0.8v-2.6c-0.3-0.5-0.7-0.8-1.3-0.8c-0.5,0-0.9,0.2-1.1,0.5
			S387.3,359.65,387.3,360.35z"/>
		<path class="st7" d="M396.2,363.15c-0.1-0.1-0.1-0.3-0.1-0.6c-0.5,0.5-1,0.7-1.6,0.7s-1-0.2-1.4-0.5s-0.5-0.7-0.5-1.2
			c0-0.6,0.2-1,0.7-1.4c0.5-0.3,1.1-0.5,1.9-0.5h1v-0.4c0-0.3-0.1-0.6-0.3-0.8c-0.2-0.2-0.5-0.3-0.9-0.3s-0.6,0.1-0.9,0.3
			c-0.2,0.2-0.4,0.4-0.4,0.6h-1c0-0.3,0.1-0.6,0.3-0.8s0.5-0.5,0.8-0.6c0.4-0.2,0.7-0.2,1.1-0.2c0.7,0,1.2,0.2,1.5,0.5
			s0.6,0.8,0.6,1.4v2.6c0,0.5,0.1,0.9,0.2,1.2v0.1L396.2,363.15L396.2,363.15z M394.6,362.35c0.3,0,0.6-0.1,0.9-0.2s0.5-0.4,0.6-0.6
			v-1.2h-0.8c-1.2,0-1.8,0.4-1.8,1c0,0.3,0.1,0.5,0.3,0.7S394.2,362.35,394.6,362.35z"/>
		<path class="st7" d="M398.5,355.85c0-0.2,0-0.3,0.1-0.4s0.2-0.2,0.4-0.2s0.3,0,0.4,0.2c0.1,0.1,0.1,0.2,0.1,0.4s0,0.3-0.1,0.4
			s-0.2,0.2-0.4,0.2s-0.3,0-0.4-0.2S398.5,356.05,398.5,355.85z M399.6,363.15h-1v-5.7h1V363.15z"/>
	</g>
	<rect x="464.7" y="356.55" class="st5" width="24.4" height="27.4"/>
	<g class="st6">
		<path class="st7" d="M471.2,363.65c-0.3,0.4-0.6,0.6-1.1,0.8s-1,0.3-1.6,0.3s-1.2-0.1-1.7-0.4s-0.9-0.7-1.1-1.2
			c-0.3-0.5-0.4-1.2-0.4-1.9v-0.7c0-1.2,0.3-2,0.8-2.7s1.3-1,2.3-1c0.8,0,1.5,0.2,1.9,0.6s0.8,1,0.9,1.7h-1c-0.2-1-0.8-1.5-1.8-1.5
			c-0.7,0-1.2,0.2-1.5,0.7c-0.4,0.5-0.5,1.2-0.5,2.1v0.6c0,0.9,0.2,1.5,0.6,2s0.9,0.8,1.6,0.8c0.4,0,0.7,0,1-0.1s0.5-0.2,0.7-0.4
			v-1.7h-1.8v-0.8h2.8L471.2,363.65L471.2,363.65z"/>
		<path class="st7" d="M474.2,356.95l2.5,6.3l2.5-6.3h1.3v7.7h-1v-3l0.1-3.2l-2.5,6.2h-0.8l-2.5-6.2l0.1,3.2v3h-1v-7.7H474.2
			L474.2,356.95z"/>
	</g>
	<rect x="504" y="356.55" class="st5" width="33.2" height="27.4"/>
	<g class="st6">
		<path class="st7" d="M510.8,364.65h-1v-3.5h-3.9v3.5h-1v-7.7h1v3.3h3.9v-3.3h1V364.65z"/>
		<path class="st7" d="M512.2,361.75c0-0.6,0.1-1.1,0.3-1.5c0.2-0.5,0.5-0.8,0.9-1s0.8-0.4,1.3-0.4c0.8,0,1.4,0.3,1.9,0.8
			s0.7,1.2,0.7,2.1v0.1c0,0.5-0.1,1-0.3,1.5s-0.5,0.8-0.9,1s-0.8,0.4-1.4,0.4c-0.8,0-1.4-0.3-1.9-0.8S512.2,362.65,512.2,361.75
			L512.2,361.75L512.2,361.75z M513.2,361.85c0,0.6,0.2,1.1,0.4,1.5s0.7,0.6,1.2,0.6s0.9-0.2,1.2-0.6s0.4-0.9,0.4-1.6
			c0-0.6-0.2-1.1-0.5-1.5s-0.7-0.6-1.2-0.6s-0.9,0.2-1.2,0.6C513.3,360.55,513.2,361.15,513.2,361.85z"/>
		<path class="st7" d="M519.5,358.95v0.7c0.4-0.5,1-0.8,1.7-0.8c1.2,0,1.8,0.7,1.8,2v3.8h-1v-3.8c0-0.4-0.1-0.7-0.3-0.9
			s-0.5-0.3-0.9-0.3c-0.3,0-0.6,0.1-0.8,0.2s-0.4,0.4-0.6,0.7v4.1h-1v-5.7L519.5,358.95L519.5,358.95z"/>
		<path class="st7" d="M524.3,361.75c0-0.9,0.2-1.6,0.6-2.1s1-0.8,1.6-0.8s1.2,0.2,1.6,0.7v-3h1v8.1h-0.9v-0.6
			c-0.4,0.5-0.9,0.7-1.6,0.7c-0.7,0-1.2-0.3-1.6-0.8S524.3,362.65,524.3,361.75L524.3,361.75z M525.3,361.85c0,0.6,0.1,1.1,0.4,1.5
			s0.6,0.5,1.1,0.5c0.6,0,1.1-0.3,1.3-0.8v-2.6c-0.3-0.5-0.7-0.8-1.3-0.8c-0.5,0-0.8,0.2-1.1,0.5S525.3,361.15,525.3,361.85z"/>
		<path class="st7" d="M534.2,364.65c-0.1-0.1-0.1-0.3-0.1-0.6c-0.5,0.5-1,0.7-1.6,0.7s-1-0.2-1.4-0.5s-0.5-0.7-0.5-1.2
			c0-0.6,0.2-1,0.7-1.4c0.5-0.3,1.1-0.5,1.9-0.5h0.9v-0.5c0-0.3-0.1-0.6-0.3-0.8c-0.2-0.2-0.5-0.3-0.9-0.3c-0.3,0-0.6,0.1-0.9,0.3
			c-0.2,0.2-0.3,0.4-0.3,0.6h-1c0-0.3,0.1-0.6,0.3-0.8s0.5-0.5,0.8-0.6c0.3-0.2,0.7-0.2,1.1-0.2c0.7,0,1.2,0.2,1.5,0.5
			s0.6,0.8,0.6,1.4v2.6c0,0.5,0.1,0.9,0.2,1.2v0.1L534.2,364.65L534.2,364.65z M532.5,363.85c0.3,0,0.6-0.1,0.9-0.2s0.5-0.4,0.6-0.6
			v-1.2h-0.8c-1.2,0-1.8,0.4-1.8,1c0,0.3,0.1,0.5,0.3,0.7C532,363.75,532.2,363.85,532.5,363.85z"/>
	</g>
	<rect x="554.6" y="356.55" class="st5" width="33.2" height="27.4"/>
	<g class="st6">
		<path class="st8" d="M559.7,361.25h-3.2v3.4h-1v-7.7h4.8v0.8h-3.7v2.6h3.2L559.7,361.25L559.7,361.25z"/>
		<path class="st8" d="M560.9,361.75c0-0.6,0.1-1.1,0.3-1.5c0.2-0.5,0.5-0.8,0.9-1s0.8-0.4,1.3-0.4c0.8,0,1.4,0.3,1.9,0.8
			s0.7,1.2,0.7,2.1v0.1c0,0.5-0.1,1-0.3,1.5s-0.5,0.8-0.9,1s-0.8,0.4-1.4,0.4c-0.8,0-1.4-0.3-1.9-0.8S560.9,362.65,560.9,361.75
			L560.9,361.75L560.9,361.75z M561.9,361.85c0,0.6,0.2,1.1,0.4,1.5c0.3,0.4,0.7,0.6,1.2,0.6s0.9-0.2,1.2-0.6s0.4-0.9,0.4-1.6
			c0-0.6-0.2-1.1-0.5-1.5s-0.7-0.6-1.2-0.6s-0.9,0.2-1.2,0.6C562,360.55,561.9,361.15,561.9,361.85z"/>
		<path class="st8" d="M570.1,359.75c-0.2,0-0.3,0-0.5,0c-0.6,0-1.1,0.3-1.3,0.8v4h-1v-5.7h1v0.7c0.3-0.5,0.8-0.8,1.4-0.8
			c0.2,0,0.3,0,0.4,0.1L570.1,359.75L570.1,359.75z"/>
		<path class="st8" d="M570.6,361.75c0-0.9,0.2-1.6,0.6-2.1c0.4-0.5,1-0.8,1.6-0.8s1.2,0.2,1.6,0.7v-3h1v8.1h-0.9v-0.6
			c-0.4,0.5-0.9,0.7-1.6,0.7c-0.7,0-1.2-0.3-1.6-0.8S570.6,362.65,570.6,361.75L570.6,361.75z M571.6,361.85c0,0.6,0.1,1.1,0.4,1.5
			s0.6,0.5,1.1,0.5c0.6,0,1.1-0.3,1.4-0.8v-2.6c-0.3-0.5-0.7-0.8-1.3-0.8c-0.5,0-0.8,0.2-1.1,0.5
			C571.7,360.55,571.6,361.15,571.6,361.85z"/>
	</g>
	<rect x="687.4" y="356.55" class="st5" width="39" height="27.4"/>
	<g class="st6">
		<path class="st7" d="M694.9,364.65v-7.7h2.5c0.8,0,1.5,0.2,1.9,0.5s0.6,0.9,0.6,1.5c0,0.4-0.1,0.7-0.3,1s-0.5,0.5-0.8,0.6
			c0.4,0.1,0.7,0.3,1,0.7s0.4,0.7,0.4,1.2c0,0.7-0.2,1.2-0.7,1.6s-1.1,0.6-1.9,0.6L694.9,364.65L694.9,364.65z M696,360.25h1.5
			c0.4,0,0.8-0.1,1.1-0.3c0.3-0.2,0.4-0.5,0.4-0.9s-0.1-0.7-0.4-0.9s-0.6-0.3-1.1-0.3H696V360.25L696,360.25z M696,361.05v2.8h1.7
			c0.5,0,0.8-0.1,1.1-0.4s0.4-0.6,0.4-1c0-0.9-0.5-1.4-1.5-1.4H696L696,361.05z"/>
		<path class="st7" d="M703,356.95l2.5,6.3l2.5-6.3h1.3v7.7h-1v-3l0.1-3.2l-2.5,6.2h-0.8l-2.5-6.2l0.1,3.2v3h-1v-7.7H703L703,356.95
			z"/>
		<path class="st7" d="M712.8,362.25l0.2,1l0.2-0.9l1.5-5.4h0.8l1.5,5.4l0.2,0.9l0.2-1l1.2-5.2h1l-1.9,7.7h-0.9l-1.6-5.6l-0.1-0.6
			l-0.1,0.6l-1.6,5.6h-0.9l-1.9-7.7h1L712.8,362.25z"/>
	</g>
	<rect x="778.7" y="356.55" class="st5" width="39" height="27.4"/>
	<g class="st6">
		<path class="st7" d="M785.5,361.25c-0.9-0.2-1.5-0.6-1.9-0.9c-0.4-0.4-0.6-0.8-0.6-1.4s0.2-1.1,0.7-1.5s1.1-0.6,1.9-0.6
			c0.5,0,1,0.1,1.4,0.3c0.4,0.2,0.7,0.5,1,0.8c0.2,0.4,0.3,0.8,0.3,1.2h-1c0-0.5-0.2-0.8-0.4-1.1c-0.3-0.3-0.7-0.4-1.2-0.4
			s-0.9,0.1-1.2,0.3s-0.4,0.5-0.4,0.9c0,0.3,0.1,0.6,0.4,0.8s0.7,0.4,1.4,0.6s1.1,0.4,1.5,0.6s0.6,0.5,0.8,0.8s0.3,0.6,0.3,1
			c0,0.6-0.2,1.1-0.7,1.5s-1.1,0.6-2,0.6c-0.5,0-1-0.1-1.5-0.3c-0.5-0.2-0.8-0.5-1.1-0.8c-0.2-0.4-0.4-0.8-0.4-1.2h1
			c0,0.5,0.2,0.8,0.5,1.1c0.3,0.3,0.8,0.4,1.4,0.4c0.5,0,0.9-0.1,1.2-0.3c0.3-0.2,0.4-0.5,0.4-0.9s-0.1-0.7-0.4-0.9
			C786.6,361.65,786.1,361.35,785.5,361.25z"/>
		<path class="st7" d="M793,364.05c-0.4,0.5-0.9,0.7-1.7,0.7c-0.6,0-1.1-0.2-1.4-0.5s-0.5-0.9-0.5-1.6v-3.7h1v3.7
			c0,0.9,0.3,1.3,1,1.3c0.8,0,1.2-0.3,1.5-0.8v-4.1h1v5.7H793V364.05z"/>
		<path class="st7" d="M796.3,363.85h3.3v0.8h-4.5v-0.7l3.2-4.2h-3.1v-0.8h4.3v0.7L796.3,363.85z"/>
		<path class="st7" d="M804.3,364.05c-0.4,0.5-0.9,0.7-1.7,0.7c-0.6,0-1.1-0.2-1.4-0.5s-0.5-0.9-0.5-1.6v-3.7h1v3.7
			c0,0.9,0.3,1.3,1,1.3c0.8,0,1.2-0.3,1.5-0.8v-4.1h1v5.7h-0.9L804.3,364.05z"/>
		<path class="st7" d="M808.3,361.95l-0.6,0.6v2h-1v-8.1h1v4.9l0.5-0.6l1.8-1.9h1.2l-2.2,2.4l2.5,3.3h-1.1L808.3,361.95z"/>
		<path class="st7" d="M812.2,357.35c0-0.2,0-0.3,0.1-0.4s0.2-0.2,0.4-0.2s0.3,0,0.4,0.2c0.1,0.1,0.2,0.2,0.2,0.4s0,0.3-0.2,0.4
			c-0.1,0.1-0.2,0.2-0.4,0.2s-0.3,0-0.4-0.2S812.2,357.55,812.2,357.35z M813.2,364.65h-1v-5.7h1V364.65z"/>
	</g>
	<rect x="824.5" y="356.55" class="st5" width="39" height="27.4"/>
	<g class="st6">
		<path class="st7" d="M837.3,363.65c-0.3,0.4-0.6,0.6-1.1,0.8s-1,0.3-1.6,0.3s-1.2-0.1-1.7-0.4s-0.9-0.7-1.1-1.2
			c-0.3-0.5-0.4-1.2-0.4-1.9v-0.7c0-1.2,0.3-2,0.8-2.7s1.3-1,2.3-1c0.8,0,1.5,0.2,1.9,0.6s0.8,1,0.9,1.7h-1c-0.2-1-0.8-1.5-1.8-1.5
			c-0.7,0-1.2,0.2-1.5,0.7s-0.5,1.2-0.5,2.1v0.6c0,0.9,0.2,1.5,0.6,2c0.4,0.5,0.9,0.8,1.6,0.8c0.4,0,0.7,0,1-0.1s0.5-0.2,0.7-0.4
			v-1.7h-1.8v-0.8h2.8L837.3,363.65L837.3,363.65z"/>
		<path class="st7" d="M841.2,364.75c-0.8,0-1.4-0.2-1.9-0.8s-0.7-1.2-0.7-2v-0.2c0-0.6,0.1-1.1,0.3-1.5s0.5-0.8,0.9-1
			s0.8-0.4,1.3-0.4c0.7,0,1.3,0.2,1.7,0.7s0.6,1.2,0.6,2.1v0.4h-3.9c0,0.6,0.2,1,0.5,1.4s0.7,0.5,1.2,0.5c0.3,0,0.6-0.1,0.9-0.2
			s0.5-0.3,0.6-0.6l0.6,0.5C842.9,364.35,842.2,364.75,841.2,364.75z M841.1,359.65c-0.4,0-0.7,0.1-1,0.4s-0.4,0.7-0.5,1.2h2.9v-0.1
			c0-0.5-0.2-0.9-0.4-1.1C841.8,359.75,841.5,359.65,841.1,359.65z"/>
		<path class="st7" d="M846.9,364.75c-0.8,0-1.4-0.2-1.9-0.8c-0.5-0.5-0.7-1.2-0.7-2v-0.2c0-0.6,0.1-1.1,0.3-1.5s0.5-0.8,0.9-1
			s0.8-0.4,1.3-0.4c0.7,0,1.3,0.2,1.7,0.7s0.6,1.2,0.6,2.1v0.4h-3.9c0,0.6,0.2,1,0.5,1.4s0.7,0.5,1.2,0.5c0.3,0,0.6-0.1,0.9-0.2
			c0.2-0.1,0.5-0.3,0.6-0.6l0.6,0.5C848.6,364.35,847.9,364.75,846.9,364.75z M846.8,359.65c-0.4,0-0.7,0.1-1,0.4s-0.4,0.7-0.5,1.2
			h2.9v-0.1c0-0.5-0.2-0.9-0.4-1.1C847.5,359.75,847.2,359.65,846.8,359.65z"/>
		<path class="st7" d="M851.3,364.65h-1v-8.1h1V364.65z"/>
		<path class="st7" d="M854.8,363.15l1.3-4.3h1l-2.3,6.6c-0.3,1-0.9,1.4-1.7,1.4h-0.2l-0.4-0.1v-0.8h0.3c0.3,0,0.6-0.1,0.8-0.2
			s0.3-0.4,0.5-0.7l0.2-0.6l-2-5.6h1.1L854.8,363.15z"/>
	</g>
	<rect x="871.3" y="356.55" class="st5" width="39" height="27.4"/>
	<g class="st6">
		<path class="st7" d="M876.7,356.95l2.5,6.3l2.5-6.3h1.3v7.7h-1v-3l0.1-3.2l-2.5,6.2h-0.8l-2.5-6.2l0.1,3.2v3h-1v-7.7H876.7
			L876.7,356.95z"/>
		<path class="st7" d="M888.2,364.65c-0.1-0.1-0.1-0.3-0.1-0.6c-0.5,0.5-1,0.7-1.6,0.7s-1-0.2-1.4-0.5s-0.5-0.7-0.5-1.2
			c0-0.6,0.2-1,0.7-1.4c0.5-0.3,1.1-0.5,1.9-0.5h0.9v-0.5c0-0.3-0.1-0.6-0.3-0.8c-0.2-0.2-0.5-0.3-0.9-0.3c-0.3,0-0.6,0.1-0.9,0.3
			c-0.2,0.2-0.3,0.4-0.3,0.6h-1c0-0.3,0.1-0.6,0.3-0.8s0.5-0.5,0.8-0.6c0.3-0.2,0.7-0.2,1.1-0.2c0.7,0,1.2,0.2,1.5,0.5
			s0.6,0.8,0.6,1.4v2.6c0,0.5,0.1,0.9,0.2,1.2v0.1L888.2,364.65L888.2,364.65z M886.5,363.85c0.3,0,0.6-0.1,0.9-0.2s0.5-0.4,0.6-0.6
			v-1.2h-0.8c-1.2,0-1.8,0.4-1.8,1c0,0.3,0.1,0.5,0.3,0.7C886,363.75,886.2,363.85,886.5,363.85z"/>
		<path class="st7" d="M891.4,363.85h3.3v0.8h-4.5v-0.7l3.2-4.2h-3.1v-0.8h4.3v0.7L891.4,363.85z"/>
		<path class="st7" d="M895.5,361.75c0-0.9,0.2-1.6,0.6-2.1s1-0.8,1.6-0.8s1.2,0.2,1.6,0.7v-3h1v8.1h-0.9v-0.6
			c-0.4,0.5-0.9,0.7-1.6,0.7c-0.7,0-1.2-0.3-1.6-0.8S895.5,362.65,895.5,361.75L895.5,361.75z M896.5,361.85c0,0.6,0.1,1.1,0.4,1.5
			s0.6,0.5,1.1,0.5c0.6,0,1.1-0.3,1.3-0.8v-2.6c-0.3-0.5-0.7-0.8-1.3-0.8c-0.5,0-0.8,0.2-1.1,0.5
			C896.6,360.55,896.5,361.15,896.5,361.85z"/>
		<path class="st7" d="M905.4,364.65c-0.1-0.1-0.1-0.3-0.1-0.6c-0.5,0.5-1,0.7-1.6,0.7s-1-0.2-1.4-0.5s-0.5-0.7-0.5-1.2
			c0-0.6,0.2-1,0.7-1.4c0.5-0.3,1.1-0.5,1.9-0.5h1v-0.5c0-0.3-0.1-0.6-0.3-0.8c-0.2-0.2-0.5-0.3-0.9-0.3c-0.3,0-0.6,0.1-0.9,0.3
			s-0.3,0.4-0.3,0.6h-1c0-0.3,0.1-0.6,0.3-0.8s0.5-0.5,0.8-0.6c0.3-0.2,0.7-0.2,1.1-0.2c0.7,0,1.2,0.2,1.5,0.5s0.6,0.8,0.6,1.4v2.6
			c0,0.5,0.1,0.9,0.2,1.2v0.1L905.4,364.65L905.4,364.65z M903.8,363.85c0.3,0,0.6-0.1,0.9-0.2s0.5-0.4,0.6-0.6v-1.2h-0.8
			c-1.2,0-1.8,0.4-1.8,1c0,0.3,0.1,0.5,0.3,0.7S903.5,363.85,903.8,363.85z"/>
	</g>
	<rect x="913.1" y="356.55" class="st5" width="50.2" height="27.4"/>
	<g class="st6">
		<path class="st7" d="M920,363.65c-0.3,0.4-0.6,0.6-1.1,0.8s-1,0.3-1.6,0.3s-1.2-0.1-1.7-0.4s-0.9-0.7-1.1-1.2s-0.4-1.2-0.4-1.9
			v-0.7c0-1.2,0.3-2,0.8-2.7s1.3-1,2.3-1c0.8,0,1.5,0.2,1.9,0.6c0.5,0.4,0.8,1,0.9,1.7h-1c-0.2-1-0.8-1.5-1.8-1.5
			c-0.7,0-1.2,0.2-1.5,0.7s-0.5,1.2-0.5,2.1v0.6c0,0.9,0.2,1.5,0.6,2c0.4,0.5,0.9,0.8,1.6,0.8c0.4,0,0.7,0,1-0.1s0.5-0.2,0.7-0.4
			v-1.7h-1.8v-0.8h2.8L920,363.65L920,363.65z"/>
		<path class="st7" d="M924.3,359.75c-0.2,0-0.3,0-0.5,0c-0.6,0-1.1,0.3-1.3,0.8v4h-1v-5.7h1v0.7c0.3-0.5,0.8-0.8,1.4-0.8
			c0.2,0,0.3,0,0.4,0.1L924.3,359.75L924.3,359.75z"/>
		<path class="st7" d="M927.4,364.75c-0.8,0-1.4-0.2-1.9-0.8c-0.5-0.5-0.7-1.2-0.7-2v-0.2c0-0.6,0.1-1.1,0.3-1.5s0.5-0.8,0.9-1
			s0.8-0.4,1.3-0.4c0.7,0,1.3,0.2,1.7,0.7s0.6,1.2,0.6,2.1v0.4h-3.9c0,0.6,0.2,1,0.5,1.4s0.7,0.5,1.2,0.5c0.3,0,0.6-0.1,0.9-0.2
			c0.2-0.1,0.5-0.3,0.6-0.6l0.6,0.5C929.1,364.35,928.4,364.75,927.4,364.75z M927.3,359.65c-0.4,0-0.7,0.1-1,0.4s-0.4,0.7-0.5,1.2
			h2.9v-0.1c0-0.5-0.2-0.9-0.4-1.1C928,359.75,927.7,359.65,927.3,359.65z"/>
		<path class="st7" d="M934.3,364.65c-0.1-0.1-0.1-0.3-0.1-0.6c-0.5,0.5-1,0.7-1.6,0.7s-1-0.2-1.4-0.5s-0.5-0.7-0.5-1.2
			c0-0.6,0.2-1,0.7-1.4c0.5-0.3,1.1-0.5,1.9-0.5h1v-0.5c0-0.3-0.1-0.6-0.3-0.8c-0.2-0.2-0.5-0.3-0.9-0.3c-0.3,0-0.6,0.1-0.9,0.3
			c-0.2,0.2-0.3,0.4-0.3,0.6h-1c0-0.3,0.1-0.6,0.3-0.8s0.5-0.5,0.8-0.6c0.3-0.2,0.7-0.2,1.1-0.2c0.7,0,1.2,0.2,1.5,0.5
			s0.6,0.8,0.6,1.4v2.6c0,0.5,0.1,0.9,0.2,1.2v0.1L934.3,364.65L934.3,364.65z M932.7,363.85c0.3,0,0.6-0.1,0.9-0.2s0.5-0.4,0.6-0.6
			v-1.2h-0.8c-1.2,0-1.8,0.4-1.8,1c0,0.3,0.1,0.5,0.3,0.7C932.1,363.75,932.4,363.85,932.7,363.85z"/>
		<path class="st7" d="M938,357.55v1.4h1.1v0.8H938v3.5c0,0.2,0,0.4,0.1,0.5s0.3,0.2,0.5,0.2c0.1,0,0.3,0,0.5-0.1v0.8
			c-0.3,0.1-0.5,0.1-0.8,0.1c-0.4,0-0.8-0.1-1-0.4s-0.3-0.6-0.3-1.1v-3.5h-1v-0.8h1v-1.4H938L938,357.55z"/>
		<path class="st7" d="M944.7,362.25l0.2,1l0.2-0.9l1.5-5.4h0.8l1.5,5.4l0.2,0.9l0.2-1l1.2-5.2h1l-1.9,7.7h-0.9l-1.6-5.6l-0.1-0.6
			l-0.1,0.6l-1.6,5.6h-0.9l-1.9-7.7h1L944.7,362.25z"/>
		<path class="st7" d="M955.8,364.65c-0.1-0.1-0.1-0.3-0.1-0.6c-0.5,0.5-1,0.7-1.6,0.7s-1-0.2-1.4-0.5s-0.5-0.7-0.5-1.2
			c0-0.6,0.2-1,0.7-1.4c0.5-0.3,1.1-0.5,1.9-0.5h1v-0.5c0-0.3-0.1-0.6-0.3-0.8c-0.2-0.2-0.5-0.3-0.9-0.3c-0.3,0-0.6,0.1-0.9,0.3
			c-0.2,0.2-0.3,0.4-0.3,0.6h-1c0-0.3,0.1-0.6,0.3-0.8s0.5-0.5,0.8-0.6c0.3-0.2,0.7-0.2,1.1-0.2c0.7,0,1.2,0.2,1.5,0.5
			s0.6,0.8,0.6,1.4v2.6c0,0.5,0.1,0.9,0.2,1.2v0.1L955.8,364.65L955.8,364.65z M954.2,363.85c0.3,0,0.6-0.1,0.9-0.2s0.5-0.4,0.6-0.6
			v-1.2h-0.8c-1.2,0-1.8,0.4-1.8,1c0,0.3,0.1,0.5,0.3,0.7C953.6,363.75,953.9,363.85,954.2,363.85z"/>
		<path class="st7" d="M959.2,364.65h-1v-8.1h1V364.65z"/>
		<path class="st7" d="M961.8,364.65h-1v-8.1h1V364.65z"/>
	</g>
	<rect x="960.8" y="356.55" class="st5" width="50.2" height="27.4"/>
	<g class="st6">
		<path class="st7" d="M972.1,361.25c-0.9-0.2-1.5-0.6-1.9-0.9c-0.4-0.4-0.6-0.8-0.6-1.4s0.2-1.1,0.7-1.5s1.1-0.6,1.9-0.6
			c0.5,0,1,0.1,1.4,0.3c0.4,0.2,0.7,0.5,1,0.8c0.2,0.4,0.3,0.8,0.3,1.2h-1c0-0.5-0.2-0.8-0.4-1.1c-0.3-0.3-0.7-0.4-1.2-0.4
			s-0.9,0.1-1.2,0.3s-0.4,0.5-0.4,0.9c0,0.3,0.1,0.6,0.4,0.8s0.7,0.4,1.4,0.6s1.1,0.4,1.5,0.6s0.6,0.5,0.8,0.8s0.3,0.6,0.3,1
			c0,0.6-0.2,1.1-0.7,1.5s-1.1,0.6-2,0.6c-0.5,0-1-0.1-1.5-0.3c-0.5-0.2-0.8-0.5-1.1-0.8c-0.2-0.4-0.4-0.8-0.4-1.2h1
			c0,0.5,0.2,0.8,0.5,1.1c0.3,0.3,0.8,0.4,1.4,0.4c0.5,0,0.9-0.1,1.2-0.3c0.3-0.2,0.4-0.5,0.4-0.9s-0.1-0.7-0.4-0.9
			C973.3,361.65,972.8,361.35,972.1,361.25z"/>
		<path class="st7" d="M979.6,364.05c-0.4,0.5-0.9,0.7-1.7,0.7c-0.6,0-1.1-0.2-1.4-0.5s-0.5-0.9-0.5-1.6v-3.7h1v3.7
			c0,0.9,0.3,1.3,1,1.3s1.2-0.3,1.5-0.8v-4.1h1v5.7h-0.9L979.6,364.05z"/>
		<path class="st7" d="M986.9,361.85c0,0.9-0.2,1.6-0.6,2.1c-0.4,0.5-0.9,0.8-1.6,0.8c-0.7,0-1.3-0.3-1.7-0.8v0.7h-0.9v-8.1h1v3
			c0.4-0.5,0.9-0.7,1.6-0.7s1.2,0.3,1.6,0.8S986.9,360.85,986.9,361.85L986.9,361.85L986.9,361.85z M985.9,361.75
			c0-0.7-0.1-1.2-0.4-1.5c-0.3-0.4-0.6-0.5-1.1-0.5c-0.6,0-1.1,0.3-1.4,0.9v2.5c0.3,0.6,0.8,0.9,1.4,0.9c0.5,0,0.8-0.2,1.1-0.5
			S985.9,362.45,985.9,361.75z"/>
		<path class="st7" d="M991.6,364.65c-0.1-0.1-0.1-0.3-0.1-0.6c-0.5,0.5-1,0.7-1.6,0.7s-1-0.2-1.4-0.5s-0.5-0.7-0.5-1.2
			c0-0.6,0.2-1,0.7-1.4c0.5-0.3,1.1-0.5,1.9-0.5h1v-0.5c0-0.3-0.1-0.6-0.3-0.8c-0.2-0.2-0.5-0.3-0.9-0.3c-0.3,0-0.6,0.1-0.9,0.3
			s-0.3,0.4-0.3,0.6h-1c0-0.3,0.1-0.6,0.3-0.8s0.5-0.5,0.8-0.6c0.3-0.2,0.7-0.2,1.1-0.2c0.7,0,1.2,0.2,1.5,0.5s0.6,0.8,0.6,1.4v2.6
			c0,0.5,0.1,0.9,0.2,1.2v0.1L991.6,364.65L991.6,364.65z M990,363.85c0.3,0,0.6-0.1,0.9-0.2s0.5-0.4,0.6-0.6v-1.2h-0.8
			c-1.2,0-1.8,0.4-1.8,1c0,0.3,0.1,0.5,0.3,0.7S989.7,363.85,990,363.85z"/>
		<path class="st7" d="M996.8,359.75c-0.2,0-0.3,0-0.5,0c-0.6,0-1.1,0.3-1.3,0.8v4h-1v-5.7h1v0.7c0.3-0.5,0.8-0.8,1.4-0.8
			c0.2,0,0.3,0,0.4,0.1L996.8,359.75L996.8,359.75z"/>
		<path class="st7" d="M1001.2,364.05c-0.4,0.5-0.9,0.7-1.7,0.7c-0.6,0-1.1-0.2-1.4-0.5s-0.5-0.9-0.5-1.6v-3.7h1v3.7
			c0,0.9,0.3,1.3,1,1.3c0.8,0,1.2-0.3,1.5-0.8v-4.1h1v5.7h-0.9L1001.2,364.05z"/>
	</g>
	<rect x="1006.9" y="356.55" class="st5" width="50.2" height="27.4"/>
	<g class="st6">
		<path class="st7" d="M1027.3,357.75h-2.5v6.9h-1v-6.9h-2.5v-0.8h5.9v0.8H1027.3z"/>
		<path class="st7" d="M1031.2,364.65c-0.1-0.1-0.1-0.3-0.1-0.6c-0.4,0.5-1,0.7-1.6,0.7s-1-0.2-1.4-0.5s-0.5-0.7-0.5-1.2
			c0-0.6,0.2-1,0.7-1.4c0.4-0.3,1.1-0.5,1.9-0.5h0.9v-0.5c0-0.3-0.1-0.6-0.3-0.8c-0.2-0.2-0.5-0.3-0.9-0.3c-0.3,0-0.6,0.1-0.9,0.3
			c-0.2,0.2-0.3,0.4-0.3,0.6h-1c0-0.3,0.1-0.6,0.3-0.8c0.2-0.3,0.5-0.5,0.8-0.6c0.3-0.2,0.7-0.2,1.1-0.2c0.7,0,1.2,0.2,1.5,0.5
			s0.6,0.8,0.6,1.4v2.6c0,0.5,0.1,0.9,0.2,1.2v0.1L1031.2,364.65L1031.2,364.65z M1029.6,363.85c0.3,0,0.6-0.1,0.9-0.2
			s0.5-0.4,0.6-0.6v-1.2h-0.8c-1.2,0-1.8,0.4-1.8,1c0,0.3,0.1,0.5,0.3,0.7S1029.3,363.85,1029.6,363.85z"/>
		<path class="st7" d="M1034.9,357.55v1.4h1.1v0.8h-1.1v3.5c0,0.2,0.1,0.4,0.1,0.5c0.1,0.1,0.3,0.2,0.5,0.2c0.1,0,0.3,0,0.5-0.1v0.8
			c-0.3,0.1-0.5,0.1-0.8,0.1c-0.4,0-0.8-0.1-1-0.4s-0.3-0.6-0.3-1.1v-3.5h-1v-0.8h1v-1.4H1034.9L1034.9,357.55z"/>
		<path class="st7" d="M1040.6,364.65c-0.1-0.1-0.1-0.3-0.1-0.6c-0.4,0.5-1,0.7-1.6,0.7s-1-0.2-1.4-0.5s-0.5-0.7-0.5-1.2
			c0-0.6,0.2-1,0.7-1.4c0.4-0.3,1.1-0.5,1.9-0.5h0.9v-0.5c0-0.3-0.1-0.6-0.3-0.8c-0.2-0.2-0.5-0.3-0.9-0.3c-0.3,0-0.6,0.1-0.9,0.3
			c-0.2,0.2-0.3,0.4-0.3,0.6h-1c0-0.3,0.1-0.6,0.3-0.8s0.5-0.5,0.8-0.6c0.3-0.2,0.7-0.2,1.1-0.2c0.7,0,1.2,0.2,1.5,0.5
			s0.6,0.8,0.6,1.4v2.6c0,0.5,0.1,0.9,0.2,1.2v0.1L1040.6,364.65L1040.6,364.65z M1039,363.85c0.3,0,0.6-0.1,0.9-0.2
			s0.5-0.4,0.6-0.6v-1.2h-0.8c-1.2,0-1.8,0.4-1.8,1c0,0.3,0.1,0.5,0.3,0.7S1038.7,363.85,1039,363.85z"/>
	</g>
	<rect x="1054.1" y="356.55" class="st5" width="50.2" height="27.4"/>
	<g class="st6">
		<path class="st7" d="M1070.1,361.05c0,0.8-0.1,1.4-0.4,2s-0.6,1-1.1,1.3s-1,0.4-1.6,0.4s-1.1-0.1-1.6-0.5
			c-0.5-0.3-0.8-0.7-1.1-1.3s-0.4-1.2-0.4-1.9v-0.5c0-0.7,0.1-1.4,0.4-2s0.6-1,1.1-1.3s1-0.5,1.6-0.5s1.2,0.1,1.6,0.5
			c0.5,0.3,0.8,0.7,1.1,1.3s0.4,1.2,0.4,2V361.05L1070.1,361.05z M1069,360.55c0-0.9-0.2-1.6-0.6-2.1s-0.9-0.7-1.5-0.7
			s-1.1,0.2-1.5,0.7s-0.6,1.2-0.6,2v0.6c0,0.9,0.2,1.6,0.6,2.1s0.9,0.8,1.5,0.8s1.2-0.2,1.5-0.7s0.5-1.2,0.6-2V360.55L1069,360.55z"
			/>
		<path class="st7" d="M1072.7,357.55v1.4h1.1v0.8h-1.1v3.5c0,0.2,0.1,0.4,0.1,0.5c0.1,0.1,0.3,0.2,0.5,0.2c0.1,0,0.3,0,0.5-0.1v0.8
			c-0.3,0.1-0.5,0.1-0.8,0.1c-0.4,0-0.8-0.1-1-0.4s-0.3-0.6-0.3-1.1v-3.5h-1v-0.8h1v-1.4H1072.7L1072.7,357.55z"/>
		<path class="st7" d="M1075.9,359.65c0.4-0.5,1-0.8,1.7-0.8c1.2,0,1.8,0.7,1.8,2v3.8h-1v-3.8c0-0.4-0.1-0.7-0.3-0.9
			s-0.5-0.3-0.9-0.3c-0.3,0-0.6,0.1-0.8,0.2s-0.4,0.4-0.6,0.7v4.1h-1v-8.1h1L1075.9,359.65L1075.9,359.65z"/>
		<path class="st7" d="M1083.2,364.75c-0.8,0-1.4-0.2-1.9-0.8s-0.7-1.2-0.7-2v-0.2c0-0.6,0.1-1.1,0.3-1.5c0.2-0.4,0.5-0.8,0.9-1
			s0.8-0.4,1.3-0.4c0.7,0,1.3,0.2,1.7,0.7c0.4,0.5,0.6,1.2,0.6,2.1v0.4h-3.9c0,0.6,0.2,1,0.5,1.4s0.7,0.5,1.2,0.5
			c0.3,0,0.6-0.1,0.9-0.2s0.4-0.3,0.6-0.6l0.6,0.5C1084.9,364.35,1084.2,364.75,1083.2,364.75z M1083.1,359.65c-0.4,0-0.7,0.1-1,0.4
			s-0.4,0.7-0.5,1.2h2.9v-0.1c0-0.5-0.2-0.9-0.4-1.1C1083.9,359.75,1083.5,359.65,1083.1,359.65z"/>
		<path class="st7" d="M1089.4,359.75c-0.2,0-0.3,0-0.5,0c-0.6,0-1.1,0.3-1.3,0.8v4h-1v-5.7h0.9v0.7c0.3-0.5,0.8-0.8,1.4-0.8
			c0.2,0,0.3,0,0.4,0.1L1089.4,359.75L1089.4,359.75z"/>
		<path class="st7" d="M1093.6,363.15c0-0.3-0.1-0.5-0.3-0.6c-0.2-0.1-0.5-0.3-1-0.4s-0.9-0.2-1.2-0.4s-0.5-0.3-0.6-0.5
			s-0.2-0.5-0.2-0.7c0-0.5,0.2-0.9,0.6-1.2c0.4-0.3,0.9-0.5,1.5-0.5c0.7,0,1.2,0.2,1.6,0.5s0.6,0.8,0.6,1.3h-1
			c0-0.3-0.1-0.5-0.3-0.7s-0.5-0.3-0.9-0.3s-0.6,0.1-0.8,0.2c-0.2,0.1-0.3,0.4-0.3,0.6s0.1,0.4,0.3,0.5s0.5,0.2,1,0.3
			s0.9,0.2,1.2,0.4c0.3,0.1,0.5,0.3,0.7,0.5s0.2,0.5,0.2,0.8c0,0.5-0.2,0.9-0.6,1.2s-0.9,0.5-1.6,0.5c-0.5,0-0.9-0.1-1.2-0.2
			s-0.6-0.4-0.8-0.7c-0.2-0.3-0.3-0.6-0.3-0.9h1c0,0.3,0.2,0.6,0.4,0.8s0.6,0.3,1,0.3s0.7-0.1,0.9-0.2
			C1093.5,363.55,1093.6,363.35,1093.6,363.15z"/>
	</g>
	<rect x="108" y="393.15" class="st4" width="8.6" height="7.4"/>
	<rect x="125.2" y="393.15" class="st5" width="64.8" height="27.4"/>
	<g class="st6">
		<path class="st7" d="M130.4,397.65h-3.3v2.7h3.9v0.8h-4.9v-7.7h4.8v0.8h-3.8v2.5h3.3V397.65L130.4,397.65z"/>
		<path class="st7" d="M133.5,393.55l2.5,6.3l2.5-6.3h1.3v7.7h-1v-3l0.1-3.2l-2.5,6.2h-0.8l-2.5-6.2l0.1,3.2v3h-1v-7.7H133.5
			L133.5,393.55z"/>
		<path class="st7" d="M146,397.65h-3.3v2.7h3.9v0.8h-4.9v-7.7h4.8v0.8h-3.8v2.5h3.3V397.65L146,397.65z"/>
		<path class="st7" d="M152,399.25h-3.2l-0.7,2h-1l2.9-7.7h0.9l2.9,7.7h-1L152,399.25z M149.1,398.35h2.6l-1.3-3.6L149.1,398.35z"/>
	</g>
	<rect x="174.4" y="393.15" class="st3" width="8.6" height="7.4"/>
	<rect x="263.1" y="393.15" class="st2" width="8.6" height="7.4"/>
	<rect x="280.3" y="393.15" class="st5" width="64.8" height="27.4"/>
	<g class="st6">
		<path class="st7" d="M286.8,398.75c-0.1,0.8-0.4,1.4-0.9,1.9c-0.5,0.4-1.2,0.7-2,0.7c-0.9,0-1.6-0.3-2.2-1s-0.8-1.5-0.8-2.6v-0.7
			c0-0.7,0.1-1.3,0.4-1.9s0.6-1,1.1-1.2c0.5-0.3,1-0.4,1.6-0.4c0.8,0,1.5,0.2,2,0.7s0.8,1.1,0.9,1.9h-1c-0.1-0.6-0.3-1.1-0.6-1.3
			s-0.7-0.4-1.2-0.4c-0.6,0-1.1,0.2-1.5,0.7s-0.5,1.2-0.5,2v0.7c0,0.8,0.2,1.5,0.5,2s0.8,0.7,1.5,0.7c0.6,0,1-0.1,1.3-0.4
			c0.3-0.2,0.5-0.7,0.6-1.3h0.8V398.75z"/>
		<path class="st7" d="M294.1,401.25h-1v-3.5h-3.9v3.5h-1v-7.7h1v3.3h3.9v-3.3h1V401.25z"/>
		<path class="st7" d="M297,401.25h-1v-7.7h1V401.25z"/>
		<path class="st7" d="M304.7,401.25h-1l-3.9-5.9v5.9h-1v-7.7h1l3.9,5.9v-5.9h1V401.25L304.7,401.25z"/>
		<path class="st7" d="M310.9,399.25h-3.2l-0.7,2h-1l2.9-7.7h0.9l2.9,7.7h-1L310.9,399.25z M308,398.35h2.6l-1.3-3.6L308,398.35z"/>
	</g>
	<rect x="324.7" y="393.15" class="st0" width="8.6" height="7.4"/>
	<rect x="341.9" y="393.15" class="st5" width="64.8" height="27.4"/>
	<g class="st6">
		<path class="st7" d="M348.7,397.65c0,0.8-0.1,1.4-0.4,2s-0.6,1-1.1,1.3s-1,0.4-1.6,0.4s-1.1-0.1-1.6-0.5s-0.8-0.7-1.1-1.3
			s-0.4-1.2-0.4-1.9v-0.5c0-0.7,0.1-1.4,0.4-2s0.6-1,1.1-1.3s1-0.5,1.6-0.5s1.2,0.1,1.6,0.5c0.5,0.3,0.8,0.7,1.1,1.3s0.4,1.2,0.4,2
			V397.65L348.7,397.65z M347.7,397.15c0-0.9-0.2-1.6-0.5-2.1c-0.4-0.5-0.9-0.7-1.5-0.7s-1.1,0.2-1.5,0.7s-0.6,1.2-0.6,2v0.6
			c0,0.9,0.2,1.6,0.6,2.1s0.9,0.8,1.5,0.8s1.2-0.2,1.5-0.7c0.4-0.5,0.5-1.2,0.5-2V397.15L347.7,397.15z"/>
		<path class="st7" d="M355.4,394.35H353v6.9h-1v-6.9h-2.5v-0.8h5.9V394.35z"/>
		<path class="st7" d="M362.5,401.25h-1v-3.5h-3.9v3.5h-1v-7.7h1v3.3h3.9v-3.3h1V401.25z"/>
		<path class="st7" d="M368.6,397.65h-3.3v2.7h3.9v0.8h-4.9v-7.7h4.8v0.8h-3.8v2.5h3.3V397.65L368.6,397.65z"/>
		<path class="st7" d="M373.2,398.15h-1.8v3.1h-1v-7.7h2.5c0.9,0,1.5,0.2,2,0.6s0.7,1,0.7,1.7c0,0.5-0.1,0.9-0.4,1.2
			s-0.6,0.6-1.1,0.8l1.8,3.3v0.1h-1.1L373.2,398.15z M371.4,397.25h1.6c0.5,0,0.9-0.1,1.2-0.4s0.5-0.6,0.5-1c0-0.5-0.1-0.8-0.4-1.1
			s-0.7-0.4-1.2-0.4h-1.5L371.4,397.25L371.4,397.25z"/>
	</g>
	<g class="st6">
		<path class="st7" d="M347.1,412.15h-3.2l-0.7,2h-1l2.9-7.7h0.9l2.9,7.7h-1L347.1,412.15z M344.2,411.35h2.6l-1.3-3.6L344.2,411.35
			z"/>
		<path class="st7" d="M350.9,411.15v3h-1v-7.7h2.8c0.8,0,1.5,0.2,2,0.6s0.7,1,0.7,1.7c0,0.8-0.2,1.3-0.7,1.7s-1.1,0.6-2,0.6
			L350.9,411.15L350.9,411.15z M350.9,410.35h1.8c0.5,0,1-0.1,1.2-0.4c0.3-0.3,0.4-0.6,0.4-1.1s-0.1-0.8-0.4-1.1
			c-0.3-0.3-0.7-0.4-1.2-0.4h-1.9L350.9,410.35L350.9,410.35z"/>
		<path class="st7" d="M360.2,412.15H357l-0.7,2h-1l2.9-7.7h0.9l2.9,7.7h-1L360.2,412.15z M357.3,411.35h2.6l-1.3-3.6L357.3,411.35z
			"/>
		<path class="st7" d="M368.6,411.75c-0.1,0.8-0.4,1.4-0.9,1.9c-0.5,0.4-1.2,0.7-2,0.7c-0.9,0-1.6-0.3-2.2-1
			c-0.5-0.6-0.8-1.5-0.8-2.6v-0.7c0-0.7,0.1-1.3,0.4-1.9s0.6-1,1.1-1.2s1-0.4,1.6-0.4c0.8,0,1.5,0.2,2,0.7s0.8,1.1,0.9,1.9h-1
			c-0.1-0.6-0.3-1.1-0.6-1.3c-0.3-0.3-0.7-0.4-1.2-0.4c-0.6,0-1.1,0.2-1.5,0.7s-0.5,1.2-0.5,2v0.7c0,0.8,0.2,1.5,0.5,2
			c0.4,0.5,0.8,0.7,1.5,0.7c0.6,0,1-0.1,1.3-0.4s0.5-0.7,0.6-1.3L368.6,411.75L368.6,411.75z"/>
	</g>
	<rect x="191.6" y="393.15" class="st5" width="64.8" height="27.4"/>
	<g class="st6">
		<path class="st7" d="M196.8,399.25h-3.2l-0.7,2h-1l2.9-7.7h0.9l2.9,7.7h-1L196.8,399.25z M193.9,398.35h2.6l-1.3-3.6L193.9,398.35
			z"/>
		<path class="st7" d="M200.9,393.55l2.5,6.3l2.5-6.3h1.3v7.7h-1v-3l0.1-3.2l-2.5,6.2H203l-2.5-6.2l0.1,3.2v3h-1v-7.7H200.9
			L200.9,393.55z"/>
		<path class="st7" d="M213.4,397.65H210v2.7h3.9v0.8H209v-7.7h4.8v0.8H210v2.5h3.3L213.4,397.65L213.4,397.65z"/>
		<path class="st7" d="M218,398.15h-1.8v3.1h-1v-7.7h2.5c0.9,0,1.5,0.2,2,0.6s0.7,1,0.7,1.7c0,0.5-0.1,0.9-0.4,1.2s-0.6,0.6-1.1,0.8
			l1.8,3.3v0.1h-1.1L218,398.15z M216.2,397.25h1.6c0.5,0,0.9-0.1,1.2-0.4s0.4-0.6,0.4-1c0-0.5-0.1-0.8-0.4-1.1s-0.7-0.4-1.2-0.4
			h-1.6V397.25L216.2,397.25z"/>
		<path class="st7" d="M222.9,401.25h-1v-7.7h1V401.25z"/>
		<path class="st7" d="M230.4,398.75c-0.1,0.8-0.4,1.4-0.9,1.9c-0.5,0.4-1.2,0.7-2,0.7c-0.9,0-1.6-0.3-2.2-1s-0.8-1.5-0.8-2.6v-0.7
			c0-0.7,0.1-1.3,0.4-1.9s0.6-1,1.1-1.2c0.5-0.3,1-0.4,1.6-0.4c0.8,0,1.5,0.2,2,0.7s0.8,1.1,0.9,1.9h-1c-0.1-0.6-0.3-1.1-0.6-1.3
			s-0.7-0.4-1.2-0.4c-0.6,0-1.1,0.2-1.5,0.7s-0.6,1.2-0.6,2v0.7c0,0.8,0.2,1.5,0.5,2s0.8,0.7,1.5,0.7c0.6,0,1-0.1,1.3-0.4
			c0.3-0.2,0.5-0.7,0.6-1.3L230.4,398.75L230.4,398.75z"/>
		<path class="st7" d="M236,399.25h-3.2l-0.7,2h-1l2.9-7.7h0.9l2.9,7.7h-1L236,399.25z M233.1,398.35h2.6l-1.3-3.6L233.1,398.35z"/>
		<path class="st7" d="M241.1,397.75c-0.9-0.2-1.5-0.6-1.9-0.9c-0.4-0.4-0.6-0.8-0.6-1.4s0.2-1.1,0.7-1.5s1.1-0.6,1.9-0.6
			c0.5,0,1,0.1,1.4,0.3s0.7,0.5,1,0.8c0.2,0.4,0.3,0.8,0.3,1.2h-1c0-0.5-0.1-0.8-0.4-1.1c-0.3-0.3-0.7-0.4-1.2-0.4s-0.9,0.1-1.2,0.3
			s-0.4,0.5-0.4,0.9c0,0.3,0.1,0.6,0.4,0.8c0.3,0.2,0.7,0.4,1.4,0.6c0.6,0.2,1.1,0.4,1.5,0.6s0.6,0.5,0.8,0.8s0.3,0.6,0.3,1
			c0,0.6-0.2,1.1-0.7,1.5s-1.1,0.6-1.9,0.6c-0.5,0-1-0.1-1.5-0.3c-0.5-0.2-0.8-0.5-1.1-0.8c-0.2-0.4-0.4-0.8-0.4-1.2h1
			c0,0.5,0.2,0.8,0.5,1.1c0.3,0.3,0.8,0.4,1.4,0.4c0.5,0,0.9-0.1,1.2-0.3c0.3-0.2,0.4-0.5,0.4-0.9s-0.1-0.7-0.4-0.9
			C242.2,398.15,241.8,397.95,241.1,397.75z"/>
	</g>
	<rect x="106.9" y="408.85" class="st5" width="213.1" height="13.2"/>
</g>
<polyline class="st9" points="193.2,42.95 193.2,25.65 692.7,25.65 "/>
<line class="st9" x1="565.2" y1="179.15" x2="565.2" y2="26.65"/>
<rect x="701.9" y="16.35" class="st5" width="248.3" height="167.2"/>
<g class="st6">
	<path class="st0" d="M705.3,23.05l2.2-6.3h1.1l-2.8,7.7h-0.9l-2.8-7.7h1.1L705.3,23.05z"/>
	<path class="st0" d="M711.3,22.05l0.2,1l0.2-0.9l1.5-5.4h0.8l1.5,5.4l0.2,0.9l0.2-1l1.2-5.2h1l-1.9,7.7h-0.9l-1.6-5.6l-0.1-0.6
		l-0.1,0.6l-1.6,5.6H711l-1.9-7.7h1L711.3,22.05z"/>
	<path class="st0" d="M724.6,20.35h2.1v0.9h-2.1v2.4h-1v-2.4h-2.1v-0.9h2.1v-2.2h1V20.35z"/>
	<path class="st0" d="M735,21.05h-3.2v3.4h-1v-7.7h4.8v0.8h-3.7v2.7h3.2L735,21.05L735,21.05z"/>
	<path class="st0" d="M736.2,21.55c0-0.6,0.1-1.1,0.3-1.5c0.2-0.5,0.5-0.8,0.9-1s0.8-0.4,1.3-0.4c0.8,0,1.4,0.3,1.9,0.8
		s0.7,1.2,0.7,2.1v0.1c0,0.6-0.1,1-0.3,1.5c-0.2,0.4-0.5,0.8-0.9,1s-0.8,0.4-1.4,0.4c-0.8,0-1.4-0.3-1.9-0.8
		S736.2,22.45,736.2,21.55L736.2,21.55L736.2,21.55z M737.2,21.65c0,0.6,0.2,1.1,0.4,1.5c0.3,0.4,0.7,0.6,1.2,0.6s0.9-0.2,1.2-0.6
		s0.4-0.9,0.4-1.6c0-0.6-0.2-1.1-0.5-1.5s-0.7-0.6-1.2-0.6s-0.9,0.2-1.2,0.6C737.3,20.35,737.2,20.95,737.2,21.65z"/>
	<path class="st0" d="M745.3,19.65c-0.2,0-0.3,0-0.5,0c-0.6,0-1.1,0.3-1.3,0.8v4.1h-1v-5.7h1v0.7c0.3-0.5,0.8-0.8,1.4-0.8
		c0.2,0,0.3,0,0.4,0.1L745.3,19.65L745.3,19.65z"/>
	<path class="st0" d="M745.9,21.55c0-0.9,0.2-1.6,0.6-2.1s1-0.8,1.6-0.8s1.2,0.2,1.6,0.7v-3h1v8.1h-0.9v-0.6
		c-0.4,0.5-0.9,0.7-1.6,0.7c-0.7,0-1.2-0.3-1.6-0.8C746.1,23.25,745.9,22.45,745.9,21.55L745.9,21.55z M746.9,21.65
		c0,0.6,0.1,1.1,0.4,1.5s0.6,0.5,1.1,0.5c0.6,0,1.1-0.3,1.3-0.8v-2.6c-0.3-0.5-0.7-0.8-1.3-0.8c-0.5,0-0.8,0.2-1.1,0.5
		C747,20.35,746.9,20.95,746.9,21.65z"/>
	<path class="st0" d="M760.7,22.05c-0.1,0.8-0.4,1.4-0.9,1.9c-0.5,0.4-1.2,0.7-2,0.7c-0.9,0-1.6-0.3-2.2-1s-0.8-1.5-0.8-2.6v-0.8
		c0-0.7,0.1-1.3,0.4-1.9c0.2-0.5,0.6-1,1.1-1.2c0.5-0.3,1-0.4,1.6-0.4c0.8,0,1.5,0.2,2,0.7s0.8,1.1,0.9,1.9h-1
		c-0.1-0.6-0.3-1.1-0.6-1.3c-0.3-0.3-0.7-0.4-1.2-0.4c-0.7,0-1.2,0.2-1.5,0.7s-0.5,1.2-0.5,2v0.7c0,0.8,0.2,1.5,0.5,2
		s0.8,0.7,1.5,0.7c0.6,0,1-0.1,1.3-0.4s0.5-0.7,0.6-1.3C759.7,21.95,760.7,21.95,760.7,22.05z"/>
	<path class="st0" d="M761.7,21.55c0-0.6,0.1-1.1,0.3-1.5s0.5-0.8,0.9-1s0.8-0.4,1.3-0.4c0.8,0,1.4,0.3,1.9,0.8s0.7,1.2,0.7,2.1v0.1
		c0,0.6-0.1,1-0.3,1.5c-0.2,0.4-0.5,0.8-0.9,1s-0.8,0.4-1.4,0.4c-0.8,0-1.4-0.3-1.9-0.8C761.9,23.25,761.7,22.45,761.7,21.55
		L761.7,21.55L761.7,21.55z M762.7,21.65c0,0.6,0.2,1.1,0.4,1.5c0.3,0.4,0.7,0.6,1.2,0.6s0.9-0.2,1.2-0.6s0.4-0.9,0.4-1.6
		c0-0.6-0.2-1.1-0.5-1.5s-0.7-0.6-1.2-0.6s-0.9,0.2-1.2,0.6C762.8,20.35,762.7,20.95,762.7,21.65z"/>
	<path class="st0" d="M769.2,24.45h-1v-8.1h1V24.45z"/>
	<path class="st0" d="M771.8,24.45h-1v-8.1h1V24.45z"/>
	<path class="st0" d="M776.8,24.45c-0.1-0.1-0.1-0.3-0.1-0.6c-0.5,0.5-1,0.7-1.6,0.7s-1-0.2-1.4-0.5s-0.5-0.7-0.5-1.2
		c0-0.6,0.2-1,0.7-1.4s1.1-0.5,1.9-0.5h1v-0.5c0-0.3-0.1-0.6-0.3-0.8s-0.5-0.3-0.9-0.3c-0.3,0-0.6,0.1-0.9,0.3
		c-0.2,0.2-0.3,0.4-0.3,0.6h-1c0-0.3,0.1-0.6,0.3-0.8s0.5-0.5,0.8-0.6c0.3-0.2,0.7-0.2,1.1-0.2c0.7,0,1.2,0.2,1.5,0.5
		s0.6,0.8,0.6,1.4v2.6c0,0.5,0.1,0.9,0.2,1.2v0.1L776.8,24.45L776.8,24.45z M775.2,23.65c0.3,0,0.6-0.1,0.9-0.2s0.5-0.4,0.6-0.6
		v-1.2h-0.8c-1.2,0-1.8,0.4-1.8,1c0,0.3,0.1,0.5,0.3,0.7C774.7,23.65,774.9,23.65,775.2,23.65z"/>
	<path class="st0" d="M784,21.65c0,0.9-0.2,1.6-0.6,2.1c-0.4,0.5-0.9,0.8-1.6,0.8c-0.7,0-1.3-0.2-1.7-0.8v0.7h-0.9v-8.1h1v3
		c0.4-0.5,0.9-0.7,1.6-0.7s1.2,0.3,1.6,0.8C783.8,19.95,784,20.65,784,21.65L784,21.65L784,21.65z M783.1,21.55
		c0-0.7-0.1-1.2-0.4-1.5s-0.6-0.5-1.1-0.5c-0.6,0-1.1,0.3-1.4,0.9v2.5c0.3,0.6,0.8,0.9,1.4,0.9c0.5,0,0.8-0.2,1.1-0.5
		C782.9,22.85,783.1,22.25,783.1,21.55z"/>
	<path class="st0" d="M785,21.55c0-0.6,0.1-1.1,0.3-1.5s0.5-0.8,0.9-1s0.8-0.4,1.3-0.4c0.8,0,1.4,0.3,1.9,0.8s0.7,1.2,0.7,2.1v0.1
		c0,0.6-0.1,1-0.3,1.5c-0.2,0.4-0.5,0.8-0.9,1s-0.8,0.4-1.4,0.4c-0.8,0-1.4-0.3-1.9-0.8C785.2,23.25,785,22.45,785,21.55L785,21.55
		L785,21.55z M786,21.65c0,0.6,0.2,1.1,0.4,1.5c0.3,0.4,0.7,0.6,1.2,0.6s0.9-0.2,1.2-0.6s0.4-0.9,0.4-1.6c0-0.6-0.2-1.1-0.5-1.5
		s-0.7-0.6-1.2-0.6s-0.9,0.2-1.2,0.6C786.1,20.35,786,20.95,786,21.65z"/>
	<path class="st0" d="M794.2,19.65c-0.2,0-0.3,0-0.5,0c-0.6,0-1.1,0.3-1.3,0.8v4.1h-1v-5.7h1v0.7c0.3-0.5,0.8-0.8,1.4-0.8
		c0.2,0,0.3,0,0.4,0.1L794.2,19.65L794.2,19.65z"/>
	<path class="st0" d="M798.4,24.45c-0.1-0.1-0.1-0.3-0.1-0.6c-0.5,0.5-1,0.7-1.6,0.7s-1-0.2-1.4-0.5s-0.5-0.7-0.5-1.2
		c0-0.6,0.2-1,0.7-1.4s1.1-0.5,1.9-0.5h1v-0.5c0-0.3-0.1-0.6-0.3-0.8s-0.5-0.3-0.9-0.3c-0.3,0-0.6,0.1-0.9,0.3
		c-0.2,0.2-0.3,0.4-0.3,0.6h-1c0-0.3,0.1-0.6,0.3-0.8s0.5-0.5,0.8-0.6c0.3-0.2,0.7-0.2,1.1-0.2c0.7,0,1.2,0.2,1.5,0.5
		s0.6,0.8,0.6,1.4v2.6c0,0.5,0.1,0.9,0.2,1.2v0.1L798.4,24.45L798.4,24.45z M796.8,23.65c0.3,0,0.6-0.1,0.9-0.2s0.5-0.4,0.6-0.6
		v-1.2h-0.8c-1.2,0-1.8,0.4-1.8,1c0,0.3,0.1,0.5,0.3,0.7C796.2,23.65,796.5,23.65,796.8,23.65z"/>
	<path class="st0" d="M802.1,17.35v1.4h1.1v0.8h-1.1v3.5c0,0.2,0,0.4,0.1,0.5s0.3,0.2,0.5,0.2c0.1,0,0.3,0,0.5-0.1v0.8
		c-0.3,0.1-0.5,0.1-0.8,0.1c-0.4,0-0.8-0.1-1-0.4s-0.3-0.6-0.3-1.1v-3.5h-1v-0.8h1v-1.4H802.1z"/>
	<path class="st0" d="M804.3,17.25c0-0.2,0-0.3,0.1-0.4s0.2-0.2,0.4-0.2s0.3,0,0.4,0.2s0.2,0.2,0.2,0.4s0,0.3-0.2,0.4
		s-0.2,0.2-0.4,0.2s-0.3,0-0.4-0.2S804.3,17.35,804.3,17.25z M805.3,24.45h-1v-5.7h1V24.45z"/>
	<path class="st0" d="M806.6,21.55c0-0.6,0.1-1.1,0.3-1.5c0.2-0.5,0.5-0.8,0.9-1s0.8-0.4,1.3-0.4c0.8,0,1.4,0.3,1.9,0.8
		s0.7,1.2,0.7,2.1v0.1c0,0.6-0.1,1-0.3,1.5c-0.2,0.4-0.5,0.8-0.9,1s-0.8,0.4-1.4,0.4c-0.8,0-1.4-0.3-1.9-0.8
		S806.6,22.45,806.6,21.55L806.6,21.55L806.6,21.55z M807.6,21.65c0,0.6,0.2,1.1,0.4,1.5c0.3,0.4,0.7,0.6,1.2,0.6s0.9-0.2,1.2-0.6
		s0.4-0.9,0.4-1.6c0-0.6-0.2-1.1-0.5-1.5s-0.7-0.6-1.2-0.6s-0.9,0.2-1.2,0.6C807.8,20.35,807.6,20.95,807.6,21.65z"/>
	<path class="st0" d="M814,18.75v0.7c0.4-0.5,1-0.8,1.7-0.8c1.2,0,1.8,0.7,1.8,2v3.8h-1v-3.8c0-0.4-0.1-0.7-0.3-0.9
		c-0.2-0.2-0.5-0.3-0.9-0.3c-0.3,0-0.6,0.1-0.8,0.2s-0.4,0.4-0.6,0.7v4.1h-1v-5.7C812.9,18.75,814,18.75,814,18.75z"/>
</g>
<g class="st6">
	<path class="st0" d="M707.1,46.85h-3.3v2.7h3.9v0.8h-4.9v-7.7h4.8v0.8h-3.8v2.5h3.3V46.85z"/>
	<path class="st0" d="M709.8,50.35h-1v-8.1h1V50.35z"/>
	<path class="st0" d="M713.8,50.45c-0.8,0-1.4-0.2-1.9-0.8c-0.5-0.5-0.7-1.2-0.7-2v-0.2c0-0.6,0.1-1.1,0.3-1.5s0.5-0.8,0.9-1
		s0.8-0.4,1.3-0.4c0.7,0,1.3,0.2,1.7,0.7s0.6,1.2,0.6,2.1v0.4h-3.9c0,0.6,0.2,1,0.5,1.4c0.3,0.3,0.7,0.5,1.2,0.5
		c0.3,0,0.6-0.1,0.9-0.2s0.5-0.3,0.6-0.6l0.6,0.5C715.5,50.05,714.7,50.45,713.8,50.45z M713.7,45.35c-0.4,0-0.7,0.1-1,0.4
		s-0.4,0.7-0.5,1.2h2.9v-0.1c0-0.5-0.2-0.9-0.4-1.2C714.4,45.45,714.1,45.35,713.7,45.35z"/>
	<path class="st0" d="M719.4,49.65c0.3,0,0.7-0.1,0.9-0.3c0.3-0.2,0.4-0.5,0.4-0.8h0.9c0,0.3-0.1,0.6-0.3,0.9s-0.5,0.5-0.8,0.7
		s-0.7,0.3-1.1,0.3c-0.8,0-1.4-0.3-1.8-0.8c-0.5-0.5-0.7-1.2-0.7-2.1v-0.2c0-0.6,0.1-1,0.3-1.5c0.2-0.4,0.5-0.8,0.9-1
		s0.8-0.4,1.3-0.4c0.6,0,1.2,0.2,1.6,0.6c0.4,0.4,0.7,0.9,0.7,1.5h-0.9c0-0.4-0.2-0.7-0.4-0.9s-0.6-0.4-0.9-0.4
		c-0.5,0-0.9,0.2-1.2,0.5s-0.4,0.9-0.4,1.5v0.2c0,0.7,0.1,1.2,0.4,1.5C718.5,49.45,718.9,49.65,719.4,49.65z"/>
	<path class="st0" d="M724.1,43.25v1.4h1.1v0.8h-1.1v3.5c0,0.2,0,0.4,0.1,0.5s0.3,0.2,0.5,0.2c0.1,0,0.3,0,0.5-0.1v0.8
		c-0.3,0.1-0.5,0.1-0.8,0.1c-0.4,0-0.8-0.1-1-0.4s-0.3-0.6-0.3-1.1v-3.5h-1v-0.7h1v-1.5H724.1z"/>
	<path class="st0" d="M729.1,45.55c-0.2,0-0.3,0-0.5,0c-0.6,0-1.1,0.3-1.3,0.8v4h-1v-5.7h1v0.7c0.3-0.5,0.8-0.8,1.4-0.8
		c0.2,0,0.3,0,0.4,0.1L729.1,45.55L729.1,45.55z"/>
	<path class="st0" d="M730,43.15c0-0.2,0-0.3,0.1-0.4c0.1-0.1,0.2-0.2,0.4-0.2s0.3,0,0.4,0.2s0.2,0.2,0.2,0.4s0,0.3-0.2,0.4
		s-0.2,0.2-0.4,0.2s-0.3,0-0.4-0.2S730,43.25,730,43.15z M731,50.35h-1v-5.7h1V50.35z"/>
	<path class="st0" d="M733.1,50.35v-5h-0.9v-0.7h0.9v-0.6c0-0.6,0.2-1.1,0.5-1.4s0.8-0.5,1.4-0.5c0.2,0,0.5,0,0.7,0.1v0.8
		c-0.2,0-0.3,0-0.5,0c-0.3,0-0.6,0.1-0.7,0.3c-0.2,0.2-0.3,0.5-0.3,0.8v0.6h1.2v0.8H734v5L733.1,50.35L733.1,50.35z"/>
	<path class="st0" d="M736.3,43.15c0-0.2,0-0.3,0.1-0.4c0.1-0.1,0.2-0.2,0.4-0.2s0.3,0,0.4,0.2s0.2,0.2,0.2,0.4s0,0.3-0.2,0.4
		s-0.2,0.2-0.4,0.2s-0.3,0-0.4-0.2S736.3,43.25,736.3,43.15z M737.4,50.35h-1v-5.7h1V50.35z"/>
	<path class="st0" d="M741.2,49.65c0.3,0,0.7-0.1,0.9-0.3c0.3-0.2,0.4-0.5,0.4-0.8h0.9c0,0.3-0.1,0.6-0.3,0.9s-0.5,0.5-0.8,0.7
		s-0.7,0.3-1.1,0.3c-0.8,0-1.4-0.3-1.8-0.8s-0.7-1.2-0.7-2.1v-0.2c0-0.6,0.1-1,0.3-1.5c0.2-0.4,0.5-0.8,0.9-1s0.8-0.4,1.3-0.4
		c0.6,0,1.2,0.2,1.6,0.6c0.4,0.4,0.7,0.9,0.7,1.5h-0.9c0-0.4-0.2-0.7-0.4-0.9s-0.6-0.4-0.9-0.4c-0.5,0-0.9,0.2-1.2,0.5
		s-0.4,0.9-0.4,1.5v0.2c0,0.7,0.1,1.2,0.4,1.5C740.3,49.45,740.7,49.65,741.2,49.65z"/>
	<path class="st0" d="M748.1,50.35c-0.1-0.1-0.1-0.3-0.1-0.6c-0.5,0.5-1,0.7-1.6,0.7s-1-0.2-1.4-0.5s-0.5-0.7-0.5-1.2
		c0-0.6,0.2-1,0.7-1.4s1.1-0.5,1.9-0.5h1v-0.4c0-0.3-0.1-0.6-0.3-0.8s-0.5-0.3-0.9-0.3c-0.3,0-0.6,0.1-0.9,0.3s-0.3,0.4-0.3,0.6h-1
		c0-0.3,0.1-0.6,0.3-0.8s0.5-0.5,0.8-0.6c0.3-0.2,0.7-0.2,1.1-0.2c0.7,0,1.2,0.2,1.5,0.5s0.6,0.8,0.6,1.4v2.6c0,0.5,0.1,0.9,0.2,1.2
		v0.1L748.1,50.35L748.1,50.35z M746.5,49.65c0.3,0,0.6-0.1,0.9-0.2s0.5-0.4,0.6-0.6v-1.2h-0.8c-1.2,0-1.8,0.3-1.8,1
		c0,0.3,0.1,0.5,0.3,0.7C745.9,49.55,746.2,49.65,746.5,49.65z"/>
	<path class="st0" d="M751.8,43.25v1.4h1.1v0.8h-1.1v3.5c0,0.2,0,0.4,0.1,0.5s0.3,0.2,0.5,0.2c0.1,0,0.3,0,0.5-0.1v0.8
		c-0.3,0.1-0.5,0.1-0.8,0.1c-0.4,0-0.8-0.1-1-0.4c-0.2-0.3-0.3-0.6-0.3-1.1v-3.5h-1v-0.7h1v-1.5H751.8z"/>
	<path class="st0" d="M754,43.15c0-0.2,0-0.3,0.1-0.4c0.1-0.1,0.2-0.2,0.4-0.2s0.3,0,0.4,0.2s0.2,0.2,0.2,0.4s0,0.3-0.2,0.4
		c-0.1,0.1-0.2,0.2-0.4,0.2s-0.3,0-0.4-0.2S754,43.25,754,43.15z M755.1,50.35h-1v-5.7h1V50.35z"/>
	<path class="st0" d="M756.4,47.45c0-0.6,0.1-1.1,0.3-1.5c0.2-0.5,0.5-0.8,0.9-1s0.8-0.4,1.3-0.4c0.8,0,1.4,0.3,1.9,0.8
		s0.7,1.2,0.7,2.2v0.1c0,0.6-0.1,1-0.3,1.5c-0.2,0.4-0.5,0.8-0.9,1s-0.8,0.4-1.4,0.4c-0.8,0-1.4-0.3-1.9-0.8
		S756.4,48.45,756.4,47.45L756.4,47.45L756.4,47.45z M757.3,47.55c0,0.6,0.2,1.1,0.4,1.5s0.7,0.6,1.2,0.6s0.9-0.2,1.2-0.6
		s0.4-0.9,0.4-1.6c0-0.6-0.2-1.1-0.5-1.5s-0.7-0.6-1.2-0.6s-0.9,0.2-1.2,0.6C757.5,46.25,757.3,46.85,757.3,47.55z"/>
	<path class="st0" d="M763.7,44.65v0.7c0.4-0.5,1-0.8,1.7-0.8c1.2,0,1.8,0.7,1.8,2v3.8h-1v-3.8c0-0.4-0.1-0.7-0.3-0.9
		s-0.5-0.3-0.9-0.3c-0.3,0-0.6,0.1-0.8,0.2s-0.4,0.4-0.6,0.7v4.1h-1v-5.7H763.7z"/>
</g>
<g class="st6">
	<path class="st0" d="M708.5,60.85c-0.1,0.8-0.4,1.4-0.9,1.9c-0.5,0.4-1.2,0.7-2,0.7c-0.9,0-1.6-0.3-2.2-1c-0.5-0.7-0.8-1.5-0.8-2.6
		v-0.7c0-0.7,0.1-1.3,0.4-1.9s0.6-1,1.1-1.2c0.5-0.3,1-0.4,1.6-0.4c0.8,0,1.5,0.2,2,0.7s0.8,1.1,0.9,1.9h-1
		c-0.1-0.6-0.3-1.1-0.6-1.3c-0.3-0.3-0.7-0.4-1.2-0.4c-0.7,0-1.2,0.2-1.5,0.7s-0.5,1.2-0.5,2v0.7c0,0.8,0.2,1.5,0.5,2
		s0.8,0.7,1.5,0.7c0.6,0,1-0.1,1.3-0.4s0.5-0.7,0.6-1.3C707.4,60.85,708.5,60.85,708.5,60.85z"/>
	<path class="st0" d="M709.4,60.45c0-0.6,0.1-1.1,0.3-1.5s0.5-0.8,0.9-1s0.8-0.4,1.3-0.4c0.8,0,1.4,0.3,1.9,0.8s0.7,1.2,0.7,2.2v0.1
		c0,0.6-0.1,1-0.3,1.5c-0.2,0.4-0.5,0.8-0.9,1s-0.8,0.4-1.4,0.4c-0.8,0-1.4-0.3-1.9-0.8S709.4,61.35,709.4,60.45L709.4,60.45
		L709.4,60.45z M710.4,60.55c0,0.6,0.2,1.1,0.4,1.5s0.7,0.6,1.2,0.6s0.9-0.2,1.2-0.6c0.3-0.4,0.4-0.9,0.4-1.6c0-0.6-0.2-1.1-0.5-1.5
		s-0.7-0.6-1.2-0.6s-0.9,0.2-1.2,0.6C710.5,59.25,710.4,59.75,710.4,60.55z"/>
	<path class="st0" d="M716.8,57.55v0.6c0.4-0.5,1-0.7,1.7-0.7c0.8,0,1.3,0.3,1.6,0.9c0.2-0.3,0.4-0.5,0.7-0.7s0.7-0.2,1.1-0.2
		c1.2,0,1.9,0.7,1.9,2v3.8h-1v-3.8c0-0.4-0.1-0.7-0.3-0.9s-0.5-0.3-0.9-0.3s-0.7,0.1-0.9,0.3s-0.4,0.5-0.4,0.9v3.8h-1v-3.7
		c0-0.8-0.4-1.2-1.2-1.2c-0.6,0-1.1,0.3-1.3,0.8v4.2h-1v-5.7h1V57.55z"/>
	<path class="st0" d="M726.2,57.55v0.6c0.4-0.5,1-0.7,1.7-0.7c0.8,0,1.3,0.3,1.6,0.9c0.2-0.3,0.4-0.5,0.7-0.7s0.7-0.2,1.1-0.2
		c1.2,0,1.9,0.7,1.9,2v3.8h-1v-3.8c0-0.4-0.1-0.7-0.3-0.9s-0.5-0.3-0.9-0.3s-0.7,0.1-0.9,0.3s-0.4,0.5-0.4,0.9v3.8h-1v-3.7
		c0-0.8-0.4-1.2-1.2-1.2c-0.6,0-1.1,0.3-1.3,0.8v4.2h-1v-5.7h1V57.55z"/>
	<path class="st0" d="M737.1,63.45c-0.8,0-1.4-0.2-1.9-0.8c-0.5-0.5-0.7-1.2-0.7-2v-0.2c0-0.6,0.1-1.1,0.3-1.5s0.5-0.8,0.9-1
		s0.8-0.4,1.3-0.4c0.7,0,1.3,0.2,1.7,0.7s0.6,1.2,0.6,2.1v0.4h-3.9c0,0.6,0.2,1,0.5,1.4c0.3,0.3,0.7,0.5,1.2,0.5
		c0.3,0,0.6-0.1,0.9-0.2s0.5-0.3,0.6-0.6l0.6,0.5C738.8,63.05,738.1,63.45,737.1,63.45z M737,58.25c-0.4,0-0.7,0.1-1,0.4
		s-0.4,0.7-0.5,1.2h2.9v-0.1c0-0.5-0.2-0.9-0.4-1.2C737.7,58.45,737.4,58.25,737,58.25z"/>
	<path class="st0" d="M743.2,58.45c-0.2,0-0.3,0-0.5,0c-0.6,0-1.1,0.3-1.3,0.8v4h-1v-5.7h1v0.7c0.3-0.5,0.8-0.8,1.4-0.8
		c0.2,0,0.3,0,0.4,0.1L743.2,58.45L743.2,58.45z"/>
	<path class="st0" d="M746.3,62.65c0.3,0,0.7-0.1,0.9-0.3c0.3-0.2,0.4-0.5,0.4-0.8h0.9c0,0.3-0.1,0.6-0.3,0.9s-0.5,0.5-0.8,0.7
		s-0.7,0.3-1.1,0.3c-0.8,0-1.4-0.3-1.8-0.8c-0.5-0.5-0.7-1.2-0.7-2.1v-0.2c0-0.6,0.1-1,0.3-1.5c0.2-0.4,0.5-0.8,0.9-1
		s0.8-0.4,1.3-0.4c0.6,0,1.2,0.2,1.6,0.6c0.4,0.4,0.7,0.9,0.7,1.5h-0.9c0-0.4-0.2-0.7-0.4-0.9s-0.6-0.4-0.9-0.4
		c-0.5,0-0.9,0.2-1.2,0.5s-0.4,0.9-0.4,1.5v0.2c0,0.7,0.1,1.2,0.4,1.5C745.4,62.45,745.8,62.65,746.3,62.65z"/>
	<path class="st0" d="M749.7,56.05c0-0.2,0-0.3,0.1-0.4c0.1-0.1,0.2-0.2,0.4-0.2s0.3,0,0.4,0.2s0.2,0.2,0.2,0.4s0,0.3-0.2,0.4
		s-0.2,0.2-0.4,0.2s-0.3,0-0.4-0.2S749.7,56.25,749.7,56.05z M750.8,63.35h-1v-5.7h1V63.35z"/>
	<path class="st0" d="M755.8,63.35c-0.1-0.1-0.1-0.3-0.1-0.6c-0.5,0.5-1,0.7-1.6,0.7s-1-0.2-1.4-0.5s-0.5-0.7-0.5-1.2
		c0-0.6,0.2-1,0.7-1.4s1.1-0.5,1.9-0.5h1v-0.5c0-0.3-0.1-0.6-0.3-0.8s-0.5-0.3-0.9-0.3c-0.3,0-0.6,0.1-0.9,0.3
		c-0.2,0.2-0.3,0.4-0.3,0.6h-1c0-0.3,0.1-0.6,0.3-0.8s0.5-0.5,0.8-0.6c0.3-0.2,0.7-0.2,1.1-0.2c0.7,0,1.2,0.2,1.5,0.5
		s0.6,0.8,0.6,1.4v2.6c0,0.5,0.1,0.9,0.2,1.2v0.1H755.8L755.8,63.35z M754.2,62.55c0.3,0,0.6-0.1,0.9-0.2s0.5-0.4,0.6-0.6v-1.2h-0.8
		c-1.2,0-1.8,0.3-1.8,1c0,0.3,0.1,0.5,0.3,0.7C753.6,62.45,753.9,62.55,754.2,62.55z"/>
	<path class="st0" d="M759.2,63.35h-1v-8.1h1V63.35z"/>
	<path class="st0" d="M766.2,61.95l2.2-6.3h1.1l-2.8,7.7h-0.9l-2.8-7.7h1.1L766.2,61.95z"/>
	<path class="st0" d="M772.5,63.45c-0.8,0-1.4-0.2-1.9-0.8c-0.5-0.5-0.7-1.2-0.7-2v-0.2c0-0.6,0.1-1.1,0.3-1.5s0.5-0.8,0.9-1
		s0.8-0.4,1.3-0.4c0.7,0,1.3,0.2,1.7,0.7s0.6,1.2,0.6,2.1v0.4h-3.9c0,0.6,0.2,1,0.5,1.4c0.3,0.3,0.7,0.5,1.2,0.5
		c0.3,0,0.6-0.1,0.9-0.2s0.5-0.3,0.6-0.6l0.6,0.5C774.2,63.05,773.4,63.45,772.5,63.45z M772.4,58.25c-0.4,0-0.7,0.1-1,0.4
		s-0.4,0.7-0.5,1.2h2.9v-0.1c0-0.5-0.2-0.9-0.4-1.2C773.1,58.45,772.8,58.25,772.4,58.25z"/>
	<path class="st0" d="M776.8,58.25c0.4-0.5,1-0.8,1.7-0.8c1.2,0,1.8,0.7,1.8,2v3.8h-1v-3.8c0-0.4-0.1-0.7-0.3-0.9s-0.5-0.3-0.9-0.3
		c-0.3,0-0.6,0.1-0.8,0.2s-0.4,0.4-0.6,0.7v4.1h-1v-8h1v3H776.8z"/>
	<path class="st0" d="M781.8,56.05c0-0.2,0-0.3,0.1-0.4c0.1-0.1,0.2-0.2,0.4-0.2s0.3,0,0.4,0.2s0.2,0.2,0.2,0.4s0,0.3-0.2,0.4
		c-0.1,0.1-0.2,0.2-0.4,0.2s-0.3,0-0.4-0.2S781.8,56.25,781.8,56.05z M782.8,63.35h-1v-5.7h1V63.35z"/>
	<path class="st0" d="M786.7,62.65c0.3,0,0.7-0.1,0.9-0.3c0.3-0.2,0.4-0.5,0.4-0.8h0.9c0,0.3-0.1,0.6-0.3,0.9s-0.5,0.5-0.8,0.7
		s-0.7,0.3-1.1,0.3c-0.8,0-1.4-0.3-1.8-0.8s-0.7-1.2-0.7-2.1v-0.2c0-0.6,0.1-1,0.3-1.5c0.2-0.4,0.5-0.8,0.9-1s0.8-0.4,1.3-0.4
		c0.6,0,1.2,0.2,1.6,0.6c0.4,0.4,0.7,0.9,0.7,1.5h-1c0-0.4-0.2-0.7-0.4-0.9s-0.6-0.4-0.9-0.4c-0.5,0-0.9,0.2-1.2,0.5
		s-0.4,0.9-0.4,1.5v0.2c0,0.7,0.1,1.2,0.4,1.5C785.8,62.45,786.2,62.65,786.7,62.65z"/>
	<path class="st0" d="M791.1,63.35h-1v-8.1h1V63.35z"/>
	<path class="st0" d="M795,63.45c-0.8,0-1.4-0.2-1.9-0.8s-0.7-1.2-0.7-2v-0.2c0-0.6,0.1-1.1,0.3-1.5s0.5-0.8,0.9-1s0.8-0.4,1.3-0.4
		c0.7,0,1.3,0.2,1.7,0.7s0.6,1.2,0.6,2.1v0.4h-3.9c0,0.6,0.2,1,0.5,1.4c0.3,0.3,0.7,0.5,1.2,0.5c0.3,0,0.6-0.1,0.9-0.2
		s0.5-0.3,0.6-0.6l0.6,0.5C796.7,63.05,796,63.45,795,63.45z M794.9,58.25c-0.4,0-0.7,0.1-1,0.4s-0.4,0.7-0.5,1.2h2.9v-0.1
		c0-0.5-0.2-0.9-0.4-1.2S795.3,58.25,794.9,58.25z"/>
	<path class="st0" d="M801.7,61.75c0-0.3-0.1-0.5-0.3-0.6c-0.2-0.2-0.5-0.3-1-0.4c-0.5-0.1-0.9-0.2-1.2-0.4s-0.5-0.3-0.6-0.5
		s-0.2-0.5-0.2-0.7c0-0.5,0.2-0.9,0.6-1.2s0.9-0.5,1.5-0.5c0.7,0,1.2,0.2,1.6,0.5s0.6,0.8,0.6,1.3h-1c0-0.3-0.1-0.5-0.3-0.7
		s-0.5-0.3-0.9-0.3s-0.6,0.1-0.8,0.2c-0.2,0.2-0.3,0.4-0.3,0.6c0,0.2,0.1,0.4,0.3,0.5s0.5,0.2,1,0.3s0.9,0.2,1.2,0.4
		s0.5,0.3,0.7,0.5s0.2,0.5,0.2,0.8c0,0.5-0.2,0.9-0.6,1.2s-0.9,0.5-1.6,0.5c-0.5,0-0.9-0.1-1.2-0.2c-0.3-0.2-0.6-0.4-0.8-0.7
		s-0.3-0.6-0.3-0.9h1c0,0.3,0.2,0.6,0.4,0.8s0.6,0.3,1,0.3s0.7-0.1,0.9-0.2C801.6,62.25,801.7,62.05,801.7,61.75z"/>
</g>
<rect x="432.9" y="48.35" class="st5" width="125.8" height="85.8"/>
<g class="st6">
	<path class="st0" d="M438,53.05h-3.2v3.4h-1v-7.7h4.8v0.8h-3.7v2.7h3.2L438,53.05L438,53.05z"/>
	<path class="st0" d="M445.4,54.05c-0.1,0.8-0.4,1.4-0.9,1.9c-0.5,0.4-1.2,0.7-2,0.7c-0.9,0-1.6-0.3-2.2-1s-0.8-1.5-0.8-2.6v-0.8
		c0-0.7,0.1-1.3,0.4-1.9s0.6-1,1.1-1.2c0.5-0.3,1-0.4,1.6-0.4c0.8,0,1.5,0.2,2,0.7s0.8,1.1,0.9,1.9h-1c-0.1-0.6-0.3-1.1-0.6-1.3
		s-0.7-0.4-1.2-0.4c-0.6,0-1.1,0.2-1.5,0.7s-0.5,1.2-0.5,2v0.7c0,0.8,0.2,1.5,0.5,2s0.8,0.7,1.5,0.7c0.6,0,1-0.1,1.3-0.4
		c0.3-0.2,0.5-0.7,0.6-1.3H445.4z"/>
	<path class="st0" d="M451,54.45h-3.2l-0.7,2h-1l2.9-7.7h0.9l2.9,7.7h-1L451,54.45z M448.1,53.55h2.6l-1.3-3.6L448.1,53.55z"/>
	<path class="st0" d="M459.2,52.35h2.1v0.9h-2.1v2.4h-1v-2.4H456v-0.9h2.1v-2.2h1v2.2H459.2z"/>
	<path class="st0" d="M466.3,53.45v3h-1v-7.7h2.8c0.8,0,1.5,0.2,2,0.6c0.5,0.4,0.7,1,0.7,1.7c0,0.8-0.2,1.3-0.7,1.7s-1.1,0.6-2,0.6
		L466.3,53.45L466.3,53.45z M466.3,52.55h1.8c0.5,0,1-0.1,1.2-0.4c0.3-0.3,0.4-0.6,0.4-1.1s-0.1-0.8-0.4-1.1s-0.7-0.4-1.2-0.4h-1.9
		L466.3,52.55L466.3,52.55z"/>
	<path class="st0" d="M474.4,53.05c-0.9-0.2-1.5-0.6-1.9-0.9c-0.4-0.4-0.6-0.8-0.6-1.3c0-0.6,0.2-1.1,0.7-1.5s1.1-0.6,1.9-0.6
		c0.5,0,1,0.1,1.4,0.3s0.7,0.5,1,0.8c0.2,0.4,0.3,0.8,0.3,1.2h-1c0-0.5-0.1-0.8-0.4-1.1s-0.7-0.4-1.2-0.4s-0.9,0.1-1.2,0.3
		s-0.4,0.5-0.4,0.9c0,0.3,0.1,0.6,0.4,0.8s0.7,0.4,1.4,0.6c0.6,0.2,1.1,0.4,1.5,0.6c0.4,0.2,0.6,0.5,0.8,0.8s0.3,0.6,0.3,1
		c0,0.6-0.2,1.1-0.7,1.5s-1.1,0.6-2,0.6c-0.5,0-1-0.1-1.5-0.3s-0.8-0.5-1.1-0.8c-0.2-0.3-0.4-0.8-0.4-1.2h1c0,0.5,0.2,0.8,0.5,1.1
		s0.8,0.4,1.4,0.4c0.5,0,0.9-0.1,1.2-0.3c0.3-0.2,0.4-0.5,0.4-0.9s-0.1-0.7-0.4-0.9C475.6,53.45,475.1,53.25,474.4,53.05z"/>
	<path class="st0" d="M482.8,54.45h-3.2l-0.7,2h-1l2.9-7.7h0.9l2.9,7.7h-1L482.8,54.45z M479.9,53.55h2.6l-1.3-3.6L479.9,53.55z"/>
	<path class="st0" d="M489.6,48.75l2.5,6.3l2.5-6.3h1.3v7.7h-1v-3l0.1-3.2l-2.5,6.2h-0.8l-2.5-6.2l0.1,3.2v3h-1v-7.7
		C488.3,48.75,489.6,48.75,489.6,48.75z"/>
	<path class="st0" d="M499.9,56.55c-0.8,0-1.4-0.2-1.9-0.8c-0.5-0.5-0.7-1.2-0.7-2v-0.2c0-0.6,0.1-1.1,0.3-1.5
		c0.2-0.4,0.5-0.8,0.9-1s0.8-0.4,1.3-0.4c0.7,0,1.3,0.2,1.7,0.7c0.4,0.5,0.6,1.2,0.6,2.1v0.4h-3.9c0,0.6,0.2,1,0.5,1.4
		c0.3,0.3,0.7,0.5,1.2,0.5c0.3,0,0.6-0.1,0.9-0.2s0.5-0.3,0.6-0.6l0.6,0.5C501.6,56.15,500.9,56.55,499.9,56.55z M499.8,51.45
		c-0.4,0-0.7,0.1-1,0.4s-0.4,0.7-0.5,1.2h2.9v-0.1c0-0.5-0.2-0.9-0.4-1.2C500.5,51.55,500.2,51.45,499.8,51.45z"/>
	<path class="st0" d="M506,51.55c-0.1,0-0.3,0-0.5,0c-0.6,0-1.1,0.3-1.3,0.8v4h-1v-5.7h1v0.7c0.3-0.5,0.8-0.8,1.4-0.8
		c0.2,0,0.3,0,0.4,0.1V51.55L506,51.55z"/>
	<path class="st0" d="M506.6,53.55c0-0.9,0.2-1.6,0.6-2.1s1-0.8,1.6-0.8c0.7,0,1.2,0.2,1.6,0.7v-0.6h0.9v5.5c0,0.7-0.2,1.3-0.7,1.8
		c-0.4,0.4-1,0.6-1.8,0.6c-0.4,0-0.8-0.1-1.2-0.3s-0.7-0.4-0.9-0.7l0.5-0.6c0.4,0.5,0.9,0.8,1.5,0.8c0.5,0,0.8-0.1,1.1-0.4
		c0.3-0.3,0.4-0.6,0.4-1.1v-0.5c-0.4,0.5-0.9,0.7-1.6,0.7s-1.2-0.3-1.6-0.8S506.6,54.45,506.6,53.55z M507.5,53.65
		c0,0.6,0.1,1.2,0.4,1.5s0.6,0.5,1.1,0.5c0.6,0,1.1-0.3,1.4-0.8v-2.6c-0.3-0.5-0.8-0.8-1.3-0.8s-0.9,0.2-1.1,0.5
		S507.5,52.95,507.5,53.65z"/>
	<path class="st0" d="M515.2,56.55c-0.8,0-1.4-0.2-1.9-0.8c-0.5-0.5-0.7-1.2-0.7-2v-0.2c0-0.6,0.1-1.1,0.3-1.5s0.5-0.8,0.9-1
		s0.8-0.4,1.3-0.4c0.7,0,1.3,0.2,1.7,0.7s0.6,1.2,0.6,2.1v0.4h-3.9c0,0.6,0.2,1,0.5,1.4c0.3,0.3,0.7,0.5,1.2,0.5
		c0.3,0,0.6-0.1,0.9-0.2s0.5-0.3,0.6-0.6l0.6,0.5C516.9,56.15,516.2,56.55,515.2,56.55z M515.1,51.45c-0.4,0-0.7,0.1-1,0.4
		s-0.4,0.7-0.5,1.2h2.9v-0.1c0-0.5-0.2-0.9-0.4-1.2C515.8,51.55,515.5,51.45,515.1,51.45z"/>
	<path class="st0" d="M521.3,51.55c-0.2,0-0.3,0-0.5,0c-0.6,0-1.1,0.3-1.3,0.8v4h-1v-5.7h1v0.7c0.3-0.5,0.8-0.8,1.4-0.8
		c0.2,0,0.3,0,0.4,0.1L521.3,51.55L521.3,51.55z"/>
</g>
<g class="st6">
	<path class="st0" d="M438.1,78.85h-3.3v2.7h3.9v0.8h-4.9v-7.7h4.8v0.8h-3.8v2.5h3.3V78.85L438.1,78.85z"/>
	<path class="st0" d="M440.7,76.65v0.7c0.4-0.6,1-0.8,1.7-0.8c1.2,0,1.8,0.7,1.8,2v3.8h-1v-3.8c0-0.4-0.1-0.7-0.3-0.9
		c-0.2-0.2-0.5-0.3-0.9-0.3c-0.3,0-0.6,0.1-0.8,0.2s-0.4,0.4-0.6,0.7v4.1h-1v-5.7L440.7,76.65L440.7,76.65z"/>
	<path class="st0" d="M446.7,77.35c0.4-0.5,1-0.8,1.7-0.8c1.2,0,1.8,0.7,1.8,2v3.8h-1v-3.8c0-0.4-0.1-0.7-0.3-0.9
		c-0.2-0.2-0.5-0.3-0.9-0.3c-0.3,0-0.6,0.1-0.8,0.2s-0.4,0.4-0.6,0.7v4.1h-1v-8.1h1L446.7,77.35L446.7,77.35z"/>
	<path class="st0" d="M455.2,82.35c-0.1-0.1-0.1-0.3-0.1-0.6c-0.5,0.5-1,0.7-1.6,0.7s-1-0.2-1.4-0.5s-0.5-0.7-0.5-1.2
		c0-0.6,0.2-1.1,0.7-1.4s1.1-0.5,1.9-0.5h1v-0.5c0-0.3-0.1-0.6-0.3-0.8c-0.2-0.2-0.5-0.3-0.9-0.3s-0.6,0.1-0.9,0.3
		c-0.2,0.2-0.4,0.4-0.4,0.6h-1c0-0.3,0.1-0.6,0.3-0.8s0.5-0.5,0.8-0.6c0.4-0.2,0.7-0.2,1.1-0.2c0.7,0,1.2,0.2,1.5,0.5
		s0.6,0.8,0.6,1.4v2.6c0,0.5,0.1,0.9,0.2,1.2v0.1L455.2,82.35L455.2,82.35z M453.6,81.65c0.3,0,0.6-0.1,0.9-0.2
		c0.3-0.2,0.5-0.4,0.6-0.6v-1.2h-0.8c-1.2,0-1.8,0.3-1.8,1.1c0,0.3,0.1,0.5,0.3,0.7C453,81.55,453.3,81.65,453.6,81.65z"/>
	<path class="st0" d="M458.5,76.65v0.7c0.4-0.6,1-0.8,1.7-0.8c1.2,0,1.8,0.7,1.8,2v3.8h-1v-3.8c0-0.4-0.1-0.7-0.3-0.9
		c-0.2-0.2-0.5-0.3-0.9-0.3c-0.3,0-0.6,0.1-0.8,0.2s-0.4,0.4-0.6,0.7v4.1h-1v-5.7L458.5,76.65L458.5,76.65z"/>
	<path class="st0" d="M465.8,81.65c0.4,0,0.6-0.1,0.9-0.3s0.4-0.5,0.4-0.8h0.9c0,0.3-0.1,0.6-0.3,0.9s-0.5,0.5-0.8,0.7
		c-0.4,0.2-0.7,0.3-1.1,0.3c-0.8,0-1.4-0.3-1.9-0.8s-0.7-1.2-0.7-2.1v-0.2c0-0.6,0.1-1.1,0.3-1.5c0.2-0.4,0.5-0.8,0.9-1
		s0.8-0.4,1.4-0.4s1.2,0.2,1.6,0.6s0.6,0.9,0.7,1.5h-0.9c0-0.4-0.2-0.7-0.4-0.9s-0.6-0.4-0.9-0.4c-0.5,0-0.9,0.2-1.1,0.5
		s-0.4,0.9-0.4,1.6v0.2c0,0.7,0.1,1.2,0.4,1.5C464.9,81.45,465.3,81.65,465.8,81.65z"/>
	<path class="st0" d="M471.5,82.45c-0.8,0-1.4-0.2-1.9-0.8c-0.5-0.5-0.7-1.2-0.7-2v-0.2c0-0.6,0.1-1.1,0.3-1.5
		c0.2-0.4,0.5-0.8,0.9-1s0.8-0.4,1.3-0.4c0.7,0,1.3,0.2,1.7,0.7c0.4,0.5,0.6,1.2,0.6,2.1v0.4h-3.9c0,0.6,0.2,1,0.5,1.4
		c0.3,0.3,0.7,0.5,1.2,0.5c0.3,0,0.6-0.1,0.9-0.2s0.5-0.3,0.6-0.6l0.6,0.5C473.2,82.05,472.5,82.45,471.5,82.45z M471.4,77.35
		c-0.4,0-0.7,0.1-1,0.4s-0.4,0.7-0.5,1.2h2.9v-0.1c0-0.5-0.2-0.9-0.4-1.2C472.1,77.45,471.8,77.35,471.4,77.35z"/>
	<path class="st0" d="M474.7,79.45c0-0.9,0.2-1.6,0.6-2.1s1-0.8,1.6-0.8s1.2,0.2,1.6,0.7v-3h1v8.1h-0.9v-0.6
		c-0.4,0.5-0.9,0.7-1.6,0.7s-1.2-0.3-1.6-0.8C474.9,81.15,474.7,80.45,474.7,79.45L474.7,79.45L474.7,79.45z M475.6,79.55
		c0,0.7,0.1,1.2,0.4,1.5s0.6,0.6,1.1,0.6c0.6,0,1.1-0.3,1.4-0.8v-2.6c-0.3-0.5-0.7-0.8-1.3-0.8c-0.5,0-0.9,0.2-1.1,0.6
		S475.6,78.85,475.6,79.55z"/>
	<path class="st0" d="M486.1,78.95c-0.9-0.2-1.5-0.6-1.9-0.9s-0.6-0.8-0.6-1.3c0-0.6,0.2-1.1,0.7-1.5s1.1-0.6,1.9-0.6
		c0.5,0,1,0.1,1.4,0.3s0.7,0.5,1,0.8c0.2,0.4,0.3,0.8,0.3,1.2h-1c0-0.5-0.1-0.8-0.4-1.1c-0.3-0.3-0.7-0.4-1.2-0.4s-0.9,0.1-1.2,0.3
		s-0.4,0.5-0.4,0.9c0,0.3,0.1,0.6,0.4,0.8c0.3,0.2,0.7,0.4,1.4,0.6c0.6,0.2,1.1,0.4,1.5,0.6s0.6,0.5,0.8,0.8s0.3,0.6,0.3,1
		c0,0.6-0.2,1.1-0.7,1.5s-1.1,0.6-2,0.6c-0.5,0-1-0.1-1.5-0.3c-0.5-0.2-0.8-0.5-1.1-0.8s-0.4-0.8-0.4-1.2h1c0,0.5,0.2,0.8,0.5,1.1
		s0.8,0.4,1.4,0.4c0.5,0,0.9-0.1,1.2-0.3c0.3-0.2,0.4-0.5,0.4-0.9s-0.1-0.7-0.4-0.9C487.2,79.35,486.8,79.15,486.1,78.95z"/>
	<path class="st0" d="M492.4,81.65c0.4,0,0.6-0.1,0.9-0.3s0.4-0.5,0.4-0.8h0.9c0,0.3-0.1,0.6-0.3,0.9s-0.5,0.5-0.8,0.7
		c-0.4,0.2-0.7,0.3-1.1,0.3c-0.8,0-1.4-0.3-1.9-0.8s-0.7-1.2-0.7-2.1v-0.2c0-0.6,0.1-1.1,0.3-1.5c0.2-0.4,0.5-0.8,0.9-1
		s0.8-0.4,1.4-0.4s1.2,0.2,1.6,0.6s0.6,0.9,0.7,1.5h-0.9c0-0.4-0.2-0.7-0.4-0.9s-0.6-0.4-0.9-0.4c-0.5,0-0.9,0.2-1.1,0.5
		s-0.4,0.9-0.4,1.6v0.2c0,0.7,0.1,1.2,0.4,1.5C491.5,81.45,491.9,81.65,492.4,81.65z"/>
	<path class="st0" d="M499.2,82.35c-0.1-0.1-0.1-0.3-0.1-0.6c-0.5,0.5-1,0.7-1.6,0.7s-1-0.2-1.4-0.5s-0.5-0.7-0.5-1.2
		c0-0.6,0.2-1.1,0.7-1.4s1.1-0.5,1.9-0.5h1v-0.5c0-0.3-0.1-0.6-0.3-0.8c-0.2-0.2-0.5-0.3-0.9-0.3s-0.6,0.1-0.9,0.3
		c-0.2,0.2-0.4,0.4-0.4,0.6h-1c0-0.3,0.1-0.6,0.3-0.8s0.5-0.5,0.8-0.6c0.4-0.2,0.7-0.2,1.1-0.2c0.7,0,1.2,0.2,1.5,0.5
		s0.6,0.8,0.6,1.4v2.6c0,0.5,0.1,0.9,0.2,1.2v0.1L499.2,82.35L499.2,82.35z M497.6,81.65c0.3,0,0.6-0.1,0.9-0.2
		c0.3-0.2,0.5-0.4,0.6-0.6v-1.2h-0.8c-1.2,0-1.8,0.3-1.8,1.1c0,0.3,0.1,0.5,0.3,0.7C497,81.55,497.3,81.65,497.6,81.65z"/>
	<path class="st0" d="M502.6,82.35h-1v-8.1h1V82.35z"/>
	<path class="st0" d="M506.6,82.45c-0.8,0-1.4-0.2-1.9-0.8c-0.5-0.5-0.7-1.2-0.7-2v-0.2c0-0.6,0.1-1.1,0.3-1.5
		c0.2-0.4,0.5-0.8,0.9-1s0.8-0.4,1.3-0.4c0.7,0,1.3,0.2,1.7,0.7c0.4,0.5,0.6,1.2,0.6,2.1v0.4h-3.9c0,0.6,0.2,1,0.5,1.4
		c0.3,0.3,0.7,0.5,1.2,0.5c0.3,0,0.6-0.1,0.9-0.2s0.5-0.3,0.6-0.6l0.6,0.5C508.2,82.05,507.5,82.45,506.6,82.45z M506.5,77.35
		c-0.4,0-0.7,0.1-1,0.4s-0.4,0.7-0.5,1.2h2.9v-0.1c0-0.5-0.2-0.9-0.4-1.2C507.2,77.45,506.9,77.35,506.5,77.35z"/>
	<path class="st0" d="M514.5,81.05l1.4-4.4h1l-2,5.7h-0.7l-2.1-5.7h1L514.5,81.05z"/>
	<path class="st0" d="M517.8,75.15c0-0.2,0-0.3,0.1-0.4s0.2-0.2,0.4-0.2s0.3,0.1,0.4,0.2s0.2,0.2,0.2,0.4s0,0.3-0.2,0.4
		c-0.1,0.1-0.2,0.2-0.4,0.2s-0.3-0.1-0.4-0.2S517.8,75.35,517.8,75.15z M518.9,82.35h-1v-5.7h1V82.35z"/>
	<path class="st0" d="M524,82.35c-0.1-0.1-0.1-0.3-0.1-0.6c-0.5,0.5-1,0.7-1.6,0.7s-1-0.2-1.4-0.5s-0.5-0.7-0.5-1.2
		c0-0.6,0.2-1.1,0.7-1.4s1.1-0.5,1.9-0.5h1v-0.5c0-0.3-0.1-0.6-0.3-0.8c-0.2-0.2-0.5-0.3-0.9-0.3c-0.3,0-0.6,0.1-0.9,0.3
		c-0.2,0.2-0.3,0.4-0.3,0.6h-1c0-0.3,0.1-0.6,0.3-0.8s0.5-0.5,0.8-0.6c0.3-0.2,0.7-0.2,1.1-0.2c0.7,0,1.2,0.2,1.5,0.5
		s0.6,0.8,0.6,1.4v2.6c0,0.5,0.1,0.9,0.2,1.2v0.1L524,82.35L524,82.35z M522.4,81.65c0.3,0,0.6-0.1,0.9-0.2c0.3-0.2,0.5-0.4,0.6-0.6
		v-1.2h-0.8c-1.2,0-1.8,0.3-1.8,1.1c0,0.3,0.1,0.5,0.3,0.7C521.8,81.55,522,81.65,522.4,81.65z"/>
</g>
<g class="st6">
	<path class="st0" d="M434.8,92.35v3h-1v-7.7h2.8c0.8,0,1.5,0.2,2,0.6s0.7,1,0.7,1.7c0,0.8-0.2,1.3-0.7,1.7s-1.1,0.6-2,0.6
		L434.8,92.35L434.8,92.35z M434.8,91.45h1.8c0.5,0,1-0.1,1.2-0.4c0.3-0.3,0.4-0.6,0.4-1.1s-0.1-0.8-0.4-1.1
		c-0.3-0.3-0.7-0.4-1.2-0.4h-1.9L434.8,91.45L434.8,91.45z"/>
	<path class="st0" d="M441.5,95.35h-1v-8.1h1V95.35z"/>
	<path class="st0" d="M446.6,95.35c-0.1-0.1-0.1-0.3-0.1-0.6c-0.5,0.5-1,0.7-1.6,0.7s-1-0.2-1.4-0.5s-0.5-0.7-0.5-1.2
		c0-0.6,0.2-1.1,0.7-1.4s1.1-0.5,1.9-0.5h1v-0.4c0-0.3-0.1-0.6-0.3-0.8c-0.2-0.2-0.5-0.3-0.9-0.3s-0.6,0.1-0.9,0.3
		c-0.2,0.2-0.4,0.4-0.4,0.6h-1c0-0.3,0.1-0.6,0.3-0.8s0.5-0.5,0.8-0.6c0.4-0.2,0.7-0.2,1.1-0.2c0.7,0,1.2,0.2,1.5,0.5
		s0.6,0.8,0.6,1.4v2.6c0,0.5,0.1,0.9,0.2,1.2v0.1L446.6,95.35L446.6,95.35z M445,94.55c0.3,0,0.6-0.1,0.9-0.2
		c0.3-0.2,0.5-0.4,0.6-0.6v-1.2h-0.8c-1.2,0-1.8,0.3-1.8,1.1c0,0.3,0.1,0.5,0.3,0.7C444.4,94.45,444.7,94.55,445,94.55z"/>
	<path class="st0" d="M450.3,88.25v1.4h1.1v0.8h-1.1v3.5c0,0.2,0,0.4,0.1,0.5s0.3,0.2,0.5,0.2c0.1,0,0.3,0,0.5-0.1v0.8
		c-0.3,0.1-0.5,0.1-0.8,0.1c-0.4,0-0.8-0.1-1-0.4s-0.3-0.6-0.3-1.1v-3.5h-1v-0.8h1v-1.4H450.3z"/>
	<path class="st0" d="M453,95.35v-5h-0.9v-0.8h0.9v-0.6c0-0.6,0.2-1.1,0.5-1.4s0.8-0.5,1.4-0.5c0.2,0,0.5,0,0.7,0.1v0.8
		c-0.2,0-0.3-0.1-0.5-0.1c-0.3,0-0.6,0.1-0.7,0.3c-0.2,0.2-0.3,0.4-0.3,0.8v0.6h1.2v0.8h-1.2v4.9C453.9,95.35,453,95.35,453,95.35z"
		/>
	<path class="st0" d="M456,92.45c0-0.6,0.1-1.1,0.3-1.5c0.2-0.4,0.5-0.8,0.9-1s0.8-0.4,1.3-0.4c0.8,0,1.4,0.3,1.9,0.8
		s0.7,1.2,0.7,2.2v0.1c0,0.6-0.1,1.1-0.3,1.5c-0.2,0.4-0.5,0.8-0.9,1s-0.9,0.4-1.4,0.4c-0.8,0-1.4-0.3-1.9-0.8S456,93.35,456,92.45
		L456,92.45z M457,92.55c0,0.6,0.1,1.1,0.4,1.5s0.7,0.6,1.2,0.6s0.9-0.2,1.2-0.6c0.3-0.4,0.4-0.9,0.4-1.6c0-0.6-0.1-1.1-0.5-1.5
		c-0.3-0.4-0.7-0.6-1.2-0.6s-0.9,0.2-1.2,0.6C457.1,91.25,457,91.85,457,92.55z"/>
	<path class="st0" d="M465.1,90.45c-0.1,0-0.3,0-0.5,0c-0.6,0-1.1,0.3-1.3,0.8v4.1h-1v-5.7h1v0.7c0.3-0.5,0.8-0.8,1.4-0.8
		c0.2,0,0.3,0,0.4,0.1V90.45L465.1,90.45z"/>
	<path class="st0" d="M467,89.55v0.6c0.4-0.5,1-0.7,1.7-0.7c0.8,0,1.3,0.3,1.6,0.9c0.2-0.3,0.4-0.5,0.7-0.7s0.7-0.2,1.1-0.2
		c1.2,0,1.9,0.7,1.9,2v3.8h-1v-3.8c0-0.4-0.1-0.7-0.3-0.9c-0.2-0.2-0.5-0.3-0.9-0.3s-0.7,0.1-0.9,0.3c-0.2,0.2-0.4,0.5-0.4,0.9v3.8
		h-1v-3.7c0-0.8-0.4-1.2-1.2-1.2c-0.6,0-1.1,0.3-1.3,0.8v4.2h-1v-5.7h1V89.55z"/>
	<path class="st0" d="M480.6,91.85c-0.9-0.2-1.5-0.6-1.9-0.9s-0.6-0.8-0.6-1.3c0-0.6,0.2-1.1,0.7-1.5s1.1-0.6,1.9-0.6
		c0.5,0,1,0.1,1.4,0.3s0.7,0.5,1,0.8c0.2,0.4,0.3,0.8,0.3,1.2h-1c0-0.5-0.1-0.8-0.4-1.1c-0.3-0.3-0.7-0.4-1.2-0.4s-0.9,0.1-1.2,0.3
		s-0.4,0.5-0.4,0.9c0,0.3,0.1,0.6,0.4,0.8c0.3,0.2,0.7,0.4,1.4,0.6c0.6,0.2,1.1,0.4,1.5,0.6s0.6,0.5,0.8,0.8s0.3,0.6,0.3,1
		c0,0.6-0.2,1.1-0.7,1.5s-1.1,0.6-2,0.6c-0.5,0-1-0.1-1.5-0.3c-0.5-0.2-0.8-0.5-1.1-0.8s-0.4-0.8-0.4-1.2h1c0,0.5,0.2,0.8,0.5,1.1
		s0.8,0.4,1.4,0.4c0.5,0,0.9-0.1,1.2-0.3c0.3-0.2,0.4-0.5,0.4-0.9s-0.1-0.7-0.4-0.9C481.8,92.25,481.3,92.05,480.6,91.85z"/>
	<path class="st0" d="M485.6,90.25c0.4-0.5,1-0.8,1.7-0.8c1.2,0,1.8,0.7,1.8,2v3.8h-1v-3.8c0-0.4-0.1-0.7-0.3-0.9
		c-0.2-0.2-0.5-0.3-0.9-0.3c-0.3,0-0.6,0.1-0.8,0.2s-0.4,0.4-0.6,0.7v4.1h-1v-8.1h1L485.6,90.25L485.6,90.25z"/>
	<path class="st0" d="M494.1,95.35c-0.1-0.1-0.1-0.3-0.1-0.6c-0.5,0.5-1,0.7-1.6,0.7s-1-0.2-1.4-0.5s-0.5-0.7-0.5-1.2
		c0-0.6,0.2-1.1,0.7-1.4s1.1-0.5,1.9-0.5h1v-0.4c0-0.3-0.1-0.6-0.3-0.8c-0.2-0.2-0.5-0.3-0.9-0.3s-0.6,0.1-0.9,0.3
		c-0.2,0.2-0.4,0.4-0.4,0.6h-1c0-0.3,0.1-0.6,0.3-0.8s0.5-0.5,0.8-0.6c0.4-0.2,0.7-0.2,1.1-0.2c0.7,0,1.2,0.2,1.5,0.5
		s0.6,0.8,0.6,1.4v2.6c0,0.5,0.1,0.9,0.2,1.2v0.1L494.1,95.35L494.1,95.35z M492.4,94.55c0.3,0,0.6-0.1,0.9-0.2
		c0.3-0.2,0.5-0.4,0.6-0.6v-1.2h-0.8c-1.2,0-1.8,0.3-1.8,1.1c0,0.3,0.1,0.5,0.3,0.7C491.9,94.45,492.1,94.55,492.4,94.55z"/>
	<path class="st0" d="M499.2,90.45c-0.1,0-0.3,0-0.5,0c-0.6,0-1.1,0.3-1.3,0.8v4.1h-1v-5.7h1v0.7c0.3-0.5,0.8-0.8,1.4-0.8
		c0.2,0,0.3,0,0.4,0.1V90.45L499.2,90.45z"/>
	<path class="st0" d="M500.1,88.05c0-0.2,0-0.3,0.1-0.4s0.2-0.2,0.4-0.2s0.3,0.1,0.4,0.2s0.1,0.2,0.1,0.4s0,0.3-0.1,0.4
		s-0.2,0.2-0.4,0.2s-0.3-0.1-0.4-0.2S500.1,88.25,500.1,88.05z M501.1,95.35h-1v-5.7h1V95.35z"/>
	<path class="st0" d="M503.6,89.55v0.7c0.4-0.6,1-0.8,1.7-0.8c1.2,0,1.8,0.7,1.8,2v3.8h-1v-3.8c0-0.4-0.1-0.7-0.3-0.9
		c-0.2-0.2-0.5-0.3-0.9-0.3c-0.3,0-0.6,0.1-0.8,0.2s-0.4,0.4-0.6,0.7v4.1h-1v-5.7L503.6,89.55L503.6,89.55z"/>
	<path class="st0" d="M508.4,92.45c0-0.9,0.2-1.6,0.6-2.1s1-0.8,1.6-0.8c0.7,0,1.2,0.2,1.6,0.7v-0.6h0.9v5.6c0,0.7-0.2,1.3-0.7,1.8
		c-0.4,0.4-1,0.6-1.8,0.6c-0.4,0-0.8-0.1-1.2-0.3s-0.7-0.4-0.9-0.7l0.5-0.6c0.4,0.5,0.9,0.8,1.5,0.8c0.5,0,0.8-0.1,1.1-0.4
		s0.4-0.6,0.4-1.1v-0.5c-0.4,0.4-0.9,0.7-1.6,0.7c-0.7,0-1.2-0.3-1.6-0.8S508.4,93.35,508.4,92.45z M509.4,92.55
		c0,0.6,0.1,1.2,0.4,1.5s0.6,0.6,1.1,0.6c0.6,0,1.1-0.3,1.3-0.8v-2.6c-0.3-0.5-0.8-0.8-1.3-0.8s-0.8,0.2-1.1,0.6
		S509.4,91.75,509.4,92.55z"/>
</g>
<g class="st6">
	<path class="st0" d="M439.5,107.25c-0.3,0.4-0.6,0.7-1.1,0.8c-0.5,0.2-1,0.3-1.6,0.3s-1.2-0.2-1.7-0.4c-0.5-0.3-0.9-0.7-1.1-1.2
		c-0.3-0.5-0.4-1.2-0.4-1.9v-0.7c0-1.2,0.3-2.1,0.8-2.7s1.3-0.9,2.3-0.9c0.8,0,1.5,0.2,1.9,0.6c0.5,0.4,0.8,1,0.9,1.7h-1
		c-0.2-1-0.8-1.5-1.8-1.5c-0.7,0-1.2,0.2-1.5,0.7c-0.4,0.5-0.5,1.2-0.5,2.1v0.6c0,0.9,0.2,1.6,0.6,2.1s0.9,0.8,1.6,0.8
		c0.4,0,0.7,0,1-0.1s0.5-0.2,0.7-0.4v-1.9h-1.8v-0.8h2.8L439.5,107.25L439.5,107.25z"/>
	<path class="st0" d="M442.1,108.25h-1v-8.1h1V108.25z"/>
	<path class="st0" d="M443.4,105.35c0-0.6,0.1-1.1,0.3-1.5c0.2-0.4,0.5-0.8,0.9-1s0.8-0.4,1.3-0.4c0.8,0,1.4,0.3,1.9,0.8
		s0.7,1.2,0.7,2.2v0.1c0,0.6-0.1,1.1-0.3,1.5c-0.2,0.4-0.5,0.8-0.9,1s-0.9,0.4-1.4,0.4c-0.8,0-1.4-0.3-1.9-0.8
		S443.4,106.35,443.4,105.35L443.4,105.35z M444.4,105.45c0,0.6,0.1,1.1,0.4,1.5s0.7,0.6,1.2,0.6s0.9-0.2,1.2-0.6
		c0.3-0.4,0.4-0.9,0.4-1.6c0-0.6-0.1-1.1-0.5-1.5c-0.3-0.4-0.7-0.6-1.2-0.6s-0.9,0.2-1.2,0.6
		C444.5,104.25,444.4,104.75,444.4,105.45z"/>
	<path class="st0" d="M454.6,105.45c0,0.9-0.2,1.6-0.6,2.1s-0.9,0.8-1.6,0.8s-1.3-0.2-1.7-0.8v0.7h-0.9v-8.1h1v3
		c0.4-0.5,0.9-0.7,1.6-0.7s1.2,0.3,1.6,0.8S454.6,104.45,454.6,105.45L454.6,105.45L454.6,105.45z M453.6,105.35
		c0-0.7-0.1-1.2-0.4-1.5c-0.3-0.4-0.6-0.5-1.1-0.5c-0.6,0-1.1,0.3-1.4,0.9v2.5c0.3,0.6,0.8,0.9,1.4,0.9c0.5,0,0.8-0.2,1.1-0.5
		C453.5,106.65,453.6,106.05,453.6,105.35z"/>
	<path class="st0" d="M459.4,108.25c-0.1-0.1-0.1-0.3-0.1-0.6c-0.5,0.5-1,0.7-1.6,0.7s-1-0.2-1.4-0.5s-0.5-0.7-0.5-1.2
		c0-0.6,0.2-1.1,0.7-1.4s1.1-0.5,1.9-0.5h1v-0.4c0-0.3-0.1-0.6-0.3-0.8c-0.2-0.2-0.5-0.3-0.9-0.3s-0.6,0.1-0.9,0.3
		c-0.2,0.2-0.4,0.4-0.4,0.6h-1c0-0.3,0.1-0.6,0.3-0.8s0.5-0.5,0.8-0.6c0.4-0.2,0.7-0.2,1.1-0.2c0.7,0,1.2,0.2,1.5,0.5
		s0.6,0.8,0.6,1.4v2.6c0,0.5,0.1,0.9,0.2,1.2v0.1L459.4,108.25L459.4,108.25z M457.8,107.55c0.3,0,0.6-0.1,0.9-0.2
		c0.3-0.2,0.5-0.4,0.6-0.6v-1.2h-0.8c-1.2,0-1.8,0.3-1.8,1.1c0,0.3,0.1,0.5,0.3,0.7C457.2,107.45,457.4,107.55,457.8,107.55z"/>
	<path class="st0" d="M462.8,108.25h-1v-8.1h1V108.25z"/>
	<path class="st0" d="M471.4,104.85h-3.2v3.4h-1v-7.7h4.8v0.8h-3.7v2.6h3.2L471.4,104.85L471.4,104.85z"/>
	<path class="st0" d="M472.6,105.35c0-0.6,0.1-1.1,0.3-1.5c0.2-0.4,0.5-0.8,0.9-1s0.8-0.4,1.3-0.4c0.8,0,1.4,0.3,1.9,0.8
		s0.7,1.2,0.7,2.2v0.1c0,0.6-0.1,1.1-0.3,1.5c-0.2,0.4-0.5,0.8-0.9,1s-0.9,0.4-1.4,0.4c-0.8,0-1.4-0.3-1.9-0.8
		S472.6,106.35,472.6,105.35L472.6,105.35z M473.6,105.45c0,0.6,0.1,1.1,0.4,1.5s0.7,0.6,1.2,0.6s0.9-0.2,1.2-0.6
		c0.3-0.4,0.4-0.9,0.4-1.6c0-0.6-0.1-1.1-0.5-1.5c-0.3-0.4-0.7-0.6-1.2-0.6s-0.9,0.2-1.2,0.6
		C473.7,104.25,473.6,104.75,473.6,105.45z"/>
	<path class="st0" d="M478.8,105.35c0-0.6,0.1-1.1,0.3-1.5c0.2-0.4,0.5-0.8,0.9-1s0.8-0.4,1.3-0.4c0.8,0,1.4,0.3,1.9,0.8
		s0.7,1.2,0.7,2.2v0.1c0,0.6-0.1,1.1-0.3,1.5c-0.2,0.4-0.5,0.8-0.9,1s-0.9,0.4-1.4,0.4c-0.8,0-1.4-0.3-1.9-0.8
		S478.8,106.35,478.8,105.35L478.8,105.35z M479.8,105.45c0,0.6,0.1,1.1,0.4,1.5s0.7,0.6,1.2,0.6s0.9-0.2,1.2-0.6
		c0.3-0.4,0.4-0.9,0.4-1.6c0-0.6-0.1-1.1-0.5-1.5c-0.3-0.4-0.7-0.6-1.2-0.6s-0.9,0.2-1.2,0.6
		C479.9,104.25,479.8,104.75,479.8,105.45z"/>
	<path class="st0" d="M486.5,101.15v1.4h1.1v0.8h-1.1v3.5c0,0.2,0,0.4,0.1,0.5s0.3,0.2,0.5,0.2c0.1,0,0.3,0,0.5-0.1v0.8
		c-0.3,0.1-0.5,0.1-0.8,0.1c-0.4,0-0.8-0.1-1-0.4s-0.3-0.6-0.3-1.1v-3.6h-1v-0.8h1v-1.4L486.5,101.15L486.5,101.15z"/>
	<path class="st0" d="M493.5,105.45c0,0.9-0.2,1.6-0.6,2.1s-0.9,0.8-1.6,0.8s-1.2-0.2-1.6-0.7v2.8h-1v-7.9h0.9v0.6
		c0.4-0.5,1-0.7,1.7-0.7s1.2,0.3,1.6,0.8S493.5,104.45,493.5,105.45L493.5,105.45L493.5,105.45z M492.6,105.35
		c0-0.6-0.1-1.2-0.4-1.5c-0.3-0.4-0.6-0.6-1.1-0.6c-0.6,0-1,0.3-1.3,0.8v2.7c0.3,0.5,0.7,0.8,1.3,0.8c0.5,0,0.8-0.2,1.1-0.6
		S492.6,106.05,492.6,105.35z"/>
	<path class="st0" d="M497.5,103.45c-0.1,0-0.3,0-0.5,0c-0.6,0-1.1,0.3-1.3,0.8v4.1h-1v-5.7h1v0.7c0.3-0.5,0.8-0.8,1.4-0.8
		c0.2,0,0.3,0,0.4,0.1V103.45L497.5,103.45z"/>
	<path class="st0" d="M498.4,101.05c0-0.2,0-0.3,0.1-0.4s0.2-0.2,0.4-0.2s0.3,0.1,0.4,0.2s0.1,0.2,0.1,0.4s0,0.3-0.1,0.4
		s-0.2,0.2-0.4,0.2s-0.3-0.1-0.4-0.2S498.4,101.25,498.4,101.05z M499.5,108.25h-1v-5.7h1V108.25z"/>
	<path class="st0" d="M502,102.55v0.7c0.4-0.6,1-0.8,1.7-0.8c1.2,0,1.8,0.7,1.8,2v3.8h-1v-3.8c0-0.4-0.1-0.7-0.3-0.9
		c-0.2-0.2-0.5-0.3-0.9-0.3c-0.3,0-0.6,0.1-0.8,0.2s-0.4,0.4-0.6,0.7v4.1h-1v-5.7L502,102.55L502,102.55z"/>
	<path class="st0" d="M508.3,101.15v1.4h1.1v0.8h-1.1v3.5c0,0.2,0,0.4,0.1,0.5s0.3,0.2,0.5,0.2c0.1,0,0.3,0,0.5-0.1v0.8
		c-0.3,0.1-0.5,0.1-0.8,0.1c-0.4,0-0.8-0.1-1-0.4s-0.3-0.6-0.3-1.1v-3.6h-1v-0.8h1v-1.4L508.3,101.15L508.3,101.15z"/>
</g>
<polyline class="st9" points="330.7,109.05 330.7,67.05 428.7,67.05 "/>
</svg>
