<?xml version="1.0" encoding="utf-8"?>
<!-- Generator: Adobe Illustrator 24.1.2, SVG Export Plug-In . SVG Version: 6.00 Build 0)  -->
<svg version="1.0" id="Layer_1" xmlns="http://www.w3.org/2000/svg" xmlns:xlink="http://www.w3.org/1999/xlink" x="0px" y="0px"
	 viewBox="0 0 69.04 19.18" style="enable-background:new 0 0 69.04 19.18;" xml:space="preserve">
<style type="text/css">
	.st0{fill:#0E4A7F;}
	.st1{fill:#2A9FD9;}
</style>
<g>
	<g>
		
			<rect x="0.34" y="0" transform="matrix(-1 -4.488688e-11 4.488688e-11 -1 69.4151 19.1615)" class="st0" width="68.73" height="19.16"/>
		<g>
			<path class="st1" d="M35.28,14.14h-2.04l-3.02-5.31v5.31h-2.06V5.61h2.06l3.02,5.31V5.61h2.05V14.14z"/>
			<path class="st1" d="M43.07,10.52h-3.23v2.04h3.82v1.58h-5.88V5.61h5.89V7.2h-3.83V9h3.23V10.52z"/>
			<path class="st1" d="M48.88,8.45l1.39-2.84h2.35l-2.38,4.23l2.45,4.3h-2.37l-1.44-2.89l-1.44,2.89h-2.37l2.44-4.3l-2.38-4.23
				h2.34L48.88,8.45z"/>
			<path class="st1" d="M61.25,7.2h-2.56v6.94h-2.06V7.2h-2.51V5.61h7.13V7.2z"/>
		</g>
	</g>
	<g>
		
			<rect x="0.02" y="0" transform="matrix(-1 -4.487622e-11 4.487622e-11 -1 19.6908 19.1615)" class="st1" width="19.66" height="19.16"/>
		<g>
			<g>
				<polygon class="st0" points="11.71,14.71 13.12,13.29 9.4,9.6 13.12,5.87 11.7,4.46 6.57,9.61 				"/>
			</g>
		</g>
	</g>
</g>
</svg>
