<?xml version="1.0" encoding="utf-8"?>
<!-- Generator: Adobe Illustrator 24.1.2, SVG Export Plug-In . SVG Version: 6.00 Build 0)  -->
<svg version="1.0" id="Layer_1" xmlns="http://www.w3.org/2000/svg" xmlns:xlink="http://www.w3.org/1999/xlink" x="0px" y="0px"
	 viewBox="0 0 1202.69 580.03" style="enable-background:new 0 0 1202.69 580.03;" xml:space="preserve">
<style type="text/css">
	.st0{fill:#FFFFFF;}
	.st1{fill:#2367B1;}
	.st2{fill:#2A9FD9;}
	.st3{font-family:'Roboto-Black';}
	.st4{font-size:36px;}
	.st5{letter-spacing:3;}
	.st6{fill:#555554;}
	.st7{font-family:'Roboto-Bold';}
	.st8{font-size:11px;}
	.st9{fill:#119A48;}
	.st10{font-size:21px;}
	.st11{letter-spacing:2;}
	.st12{fill:#ED2224;}
	.st13{font-size:8px;}
</style>
<rect x="-0.63" y="0.37" class="st0" width="1202" height="579.91"/>
<rect x="-0.63" y="0.29" class="st1" width="328" height="580"/>
<rect x="327.37" y="86.29" class="st2" width="62" height="402"/>
<g>
	<g>
		<text transform="matrix(1 0 0 1 91.9735 251.0405)"><tspan x="0" y="0" class="st0 st3 st4 st5">2020 </tspan><tspan x="0" y="48" class="st0 st3 st4 st5">mobility</tspan><tspan x="0" y="96" class="st0 st3 st4 st5">TRENDS</tspan></text>
	</g>
</g>
<g>
	<text transform="matrix(1 0 0 1 620.5674 201.8559)" class="st6 st7 st8">OEM Partnerships</text>
</g>
<g>
	<text transform="matrix(1 0 0 1 739.5674 201.8559)" class="st6 st7 st8">Full Stack AV</text>
</g>
<g>
	<text transform="matrix(1 0 0 1 833.5674 201.8559)" class="st6 st7 st8">ADAS Focus</text>
</g>
<g>
	<text transform="matrix(1 0 0 1 666.5674 386.8559)" class="st6 st7 st8">Regulatory  Targets</text>
</g>
<g>
	<text transform="matrix(1 0 0 1 785.5674 386.8559)" class="st6 st7 st8">Fewer Parts</text>
</g>
<g>
	<text transform="matrix(1 0 0 1 871.5674 386.8559)" class="st6 st7 st8">Batteries</text>
</g>
<g>
	<text transform="matrix(1 0 0 1 664.5674 294.8559)" class="st6 st7 st8">Non-Ownership </text>
</g>
<g>
	<text transform="matrix(1 0 0 1 772.5674 294.8559)" class="st6 st7 st8">Multi-Modal</text>
</g>
<g>
	<text transform="matrix(1 0 0 1 591.0674 108.8559)" class="st6 st7 st8">Embedded TCU</text>
	<text transform="matrix(1 0 0 1 989.0674 109.8559)" class="st6 st7 st8">Voice Enabled</text>
	<text transform="matrix(1 0 0 1 687.5674 108.8559)" class="st6 st7 st8">5G Adoption</text>
	<text transform="matrix(1 0 0 1 775.5674 108.8559)" class="st6 st7 st8">AR/VR</text>
	<text transform="matrix(1 0 0 1 834.5674 108.8559)" class="st6 st7 st8">Technology Convergence</text>
	<circle class="st9" cx="580.37" cy="105.29" r="5"/>
	<circle class="st9" cx="680.37" cy="105.29" r="5"/>
	<circle class="st9" cx="766.37" cy="105.29" r="5"/>
	<circle class="st9" cx="825.37" cy="105.29" r="5"/>
	<circle class="st9" cx="981.37" cy="105.29" r="5"/>
</g>
<g>
	<text transform="matrix(1 0 0 1 724.5674 477.8559)" class="st6 st7 st8">Big Data</text>
</g>
<g>
	<text transform="matrix(1 0 0 1 800.7559 477.8559)" class="st6 st7 st8">Data Security, Privacy &amp; Regs</text>
</g>
<g>
	<text transform="matrix(1 0 0 1 972.7559 477.8559)" class="st6 st7 st8">Partnerships</text>
</g>
<g>
	<text transform="matrix(1 0 0 1 724.5674 503.8559)" class="st6 st7 st8">Customer Value Proposition (OTA, Lifecycle Commerce, Location Based, etc.) </text>
</g>
<text transform="matrix(1 0 0 1 415.1059 483.1308)" class="st2 st7 st10 st11">NEW BUSINESS MODELS</text>
<text transform="matrix(1 0 0 1 415.1059 113.1308)" class="st2 st7 st10 st11">CONNECTED</text>
<text transform="matrix(1 0 0 1 415.1059 205.6308)" class="st2 st7 st10 st11">AUTONOMOUS</text>
<text transform="matrix(1 0 0 1 415.1059 298.1308)" class="st2 st7 st10 st11">SHARED mobility</text>
<text transform="matrix(1 0 0 1 415.1059 390.6308)" class="st2 st7 st10 st11">ELECTRIfication</text>
<circle class="st9" cx="609.37" cy="197.29" r="5"/>
<circle class="st12" cx="730.37" cy="197.29" r="5"/>
<circle class="st9" cx="824.37" cy="197.29" r="5"/>
<circle class="st12" cx="655.37" cy="291.29" r="5"/>
<circle class="st9" cx="715.37" cy="473.29" r="5"/>
<circle class="st9" cx="715.37" cy="500.29" r="5"/>
<circle class="st9" cx="791.37" cy="473.29" r="5"/>
<circle class="st9" cx="965.37" cy="473.29" r="5"/>
<circle class="st9" cx="776.57" cy="383.29" r="5"/>
<circle class="st9" cx="657.37" cy="383.29" r="5"/>
<circle class="st9" cx="863.37" cy="383.29" r="5"/>
<circle class="st12" cx="762.37" cy="291.29" r="5"/>
<g>
	<circle class="st9" cx="99.37" cy="422.29" r="5"/>
	<circle class="st2" cx="99.37" cy="452.29" r="5"/>
	<circle class="st12" cx="99.37" cy="482.29" r="5"/>
	<text transform="matrix(1 0 0 1 110.2353 425.7475)" class="st0 st7 st13">Accelerating Trends</text>
	<text transform="matrix(1 0 0 1 110.2353 484.7475)" class="st0 st7 st13">DeceleraltingTrends</text>
	<text transform="matrix(1 0 0 1 110.2353 455.9047)" class="st0 st7 st13">Neutral Trends</text>
</g>
</svg>
