<?xml version="1.0" encoding="utf-8"?>
<!-- Generator: Adobe Illustrator 24.1.2, SVG Export Plug-In . SVG Version: 6.00 Build 0)  -->
<svg version="1.0" id="Layer_1" xmlns="http://www.w3.org/2000/svg" xmlns:xlink="http://www.w3.org/1999/xlink" x="0px" y="0px"
	 viewBox="0 0 1200 669.43" style="enable-background:new 0 0 1200 669.43;" xml:space="preserve">
<style type="text/css">
	.st0{fill:#C7C6C5;}
	.st1{fill:#2367B1;}
	.st2{fill:#CECECD;}
	.st3{fill:#717171;}
	.st4{fill:#212121;}
	.st5{fill:#EF4461;}
	.st6{fill:#07B26F;}
	.st7{fill:#EF4462;}
</style>
<g>
	<g>
		<rect x="18.72" y="534.69" class="st0" width="1150.81" height="0.98"/>
	</g>
	<g>
		<rect x="19.7" y="454.17" class="st0" width="1150.81" height="0.98"/>
	</g>
	<g>
		<rect x="20.68" y="373.65" class="st0" width="1150.81" height="0.98"/>
	</g>
	<g>
		<rect x="21.66" y="293.14" class="st0" width="1150.81" height="0.98"/>
	</g>
	<g>
		<rect x="22.64" y="212.62" class="st0" width="1150.81" height="0.98"/>
	</g>
	<g>
		<rect x="23.63" y="132.1" class="st0" width="1150.81" height="0.98"/>
	</g>
	<g>
		<rect x="1120.43" y="615.7" class="st1" width="1.96" height="14.03"/>
	</g>
	<g>
		<rect x="1076.67" y="615.7" class="st1" width="1.96" height="14.03"/>
	</g>
	<g>
		<rect x="1037.94" y="616.4" class="st1" width="1.96" height="14.03"/>
	</g>
	<g>
		<rect x="994.74" y="616.4" class="st1" width="1.96" height="14.03"/>
	</g>
	<g>
		<rect x="953.5" y="616.4" class="st1" width="1.96" height="14.03"/>
	</g>
	<g>
		<rect x="911.47" y="615.7" class="st1" width="1.96" height="14.03"/>
	</g>
	<g>
		<rect x="867.72" y="615.7" class="st1" width="1.96" height="14.03"/>
	</g>
	<g>
		<rect x="825.85" y="616.4" class="st1" width="1.96" height="14.03"/>
	</g>
	<g>
		<rect x="784.61" y="616.4" class="st1" width="1.96" height="14.03"/>
	</g>
	<g>
		<rect x="741.41" y="616.4" class="st1" width="1.96" height="14.03"/>
	</g>
	<g>
		<rect x="700.17" y="616.4" class="st1" width="1.96" height="14.03"/>
	</g>
	<g>
		<rect x="658.93" y="616.4" class="st1" width="1.96" height="14.03"/>
	</g>
	<g>
		<rect x="617.69" y="616.4" class="st1" width="1.96" height="14.03"/>
	</g>
	<g>
		<rect x="572.52" y="616.4" class="st1" width="1.96" height="14.03"/>
	</g>
	<g>
		<rect x="529.31" y="616.4" class="st1" width="1.96" height="14.03"/>
	</g>
	<g>
		<rect x="490.04" y="616.4" class="st1" width="1.96" height="14.03"/>
	</g>
	<g>
		<rect x="446.83" y="616.4" class="st1" width="1.96" height="14.03"/>
	</g>
	<g>
		<rect x="403.63" y="616.4" class="st1" width="1.96" height="14.03"/>
	</g>
	<g>
		<rect x="362.39" y="616.4" class="st1" width="1.96" height="14.03"/>
	</g>
	<g>
		<rect x="321.15" y="616.4" class="st1" width="1.96" height="14.03"/>
	</g>
	<g>
		<rect x="277.94" y="616.4" class="st1" width="1.96" height="14.03"/>
	</g>
	<g>
		<rect x="236.7" y="616.4" class="st1" width="1.96" height="14.03"/>
	</g>
	<g>
		<rect x="191.53" y="616.4" class="st1" width="1.96" height="14.03"/>
	</g>
	<g>
		<rect x="150.29" y="616.4" class="st1" width="1.96" height="14.03"/>
	</g>
	<g>
		<rect x="109.05" y="616.4" class="st1" width="1.96" height="14.03"/>
	</g>
	<g>
		<rect x="69.78" y="616.4" class="st1" width="1.96" height="14.03"/>
	</g>
	<g>
		<rect x="26.57" y="616.4" class="st1" width="1.96" height="14.03"/>
	</g>
	<g>
		<path class="st1" d="M1088.09,657.2h-11.27v-1.92l5.58-6.09c0.81-0.9,1.38-1.65,1.72-2.25c0.34-0.6,0.51-1.21,0.51-1.81
			c0-0.8-0.22-1.44-0.67-1.93s-1.05-0.74-1.81-0.74c-0.91,0-1.61,0.28-2.11,0.83s-0.75,1.31-0.75,2.27h-2.8
			c0-1.02,0.23-1.94,0.7-2.76c0.46-0.82,1.13-1.45,1.99-1.9c0.86-0.45,1.86-0.68,2.99-0.68c1.63,0,2.91,0.41,3.85,1.23
			c0.94,0.82,1.41,1.95,1.41,3.39c0,0.84-0.24,1.71-0.71,2.63c-0.47,0.92-1.24,1.96-2.32,3.12l-4.1,4.38h7.78V657.2z"/>
		<path class="st1" d="M1102.32,650.15c0,2.41-0.45,4.22-1.35,5.45c-0.9,1.22-2.27,1.84-4.11,1.84c-1.81,0-3.17-0.6-4.09-1.79
			s-1.39-2.96-1.41-5.3v-2.9c0-2.41,0.45-4.22,1.35-5.42s2.28-1.81,4.13-1.81c1.83,0,3.2,0.59,4.1,1.76s1.36,2.93,1.39,5.27V650.15z
			 M1099.52,647.02c0-1.57-0.21-2.73-0.64-3.46c-0.43-0.73-1.11-1.1-2.05-1.1c-0.91,0-1.58,0.35-2.01,1.04
			c-0.43,0.69-0.66,1.78-0.68,3.25v3.8c0,1.56,0.22,2.73,0.66,3.5c0.44,0.77,1.12,1.15,2.06,1.15c0.9,0,1.56-0.35,1.99-1.06
			c0.43-0.71,0.66-1.82,0.68-3.33V647.02z"/>
		<path class="st1" d="M1115.43,651.23h2.08v2.24h-2.08v3.73h-2.8v-3.73h-7.24l-0.08-1.7l7.23-11.32h2.89V651.23z M1108.25,651.23
			h4.38v-7l-0.21,0.37L1108.25,651.23z"/>
		<path class="st1" d="M1131.46,650.15c0,2.41-0.45,4.22-1.35,5.45c-0.9,1.22-2.27,1.84-4.11,1.84c-1.81,0-3.17-0.6-4.09-1.79
			c-0.92-1.19-1.39-2.96-1.41-5.3v-2.9c0-2.41,0.45-4.22,1.35-5.42s2.28-1.81,4.13-1.81c1.83,0,3.2,0.59,4.1,1.76
			s1.36,2.93,1.39,5.27V650.15z M1128.67,647.02c0-1.57-0.21-2.73-0.64-3.46c-0.43-0.73-1.11-1.1-2.05-1.1
			c-0.91,0-1.58,0.35-2.01,1.04c-0.43,0.69-0.66,1.78-0.68,3.25v3.8c0,1.56,0.22,2.73,0.66,3.5c0.44,0.77,1.12,1.15,2.06,1.15
			c0.9,0,1.56-0.35,1.99-1.06c0.43-0.71,0.66-1.82,0.68-3.33V647.02z"/>
	</g>
	<g>
		<path class="st1" d="M876,657.2h-11.27v-1.92l5.58-6.09c0.81-0.9,1.38-1.65,1.72-2.25c0.34-0.6,0.51-1.21,0.51-1.81
			c0-0.8-0.22-1.44-0.67-1.93c-0.45-0.49-1.05-0.74-1.81-0.74c-0.91,0-1.61,0.28-2.11,0.83c-0.5,0.55-0.75,1.31-0.75,2.27h-2.8
			c0-1.02,0.23-1.94,0.7-2.76c0.46-0.82,1.13-1.45,1.99-1.9c0.86-0.45,1.86-0.68,2.99-0.68c1.63,0,2.91,0.41,3.85,1.23
			c0.94,0.82,1.41,1.95,1.41,3.39c0,0.84-0.24,1.71-0.71,2.63c-0.47,0.92-1.24,1.96-2.32,3.12l-4.1,4.38H876V657.2z"/>
		<path class="st1" d="M890.23,650.15c0,2.41-0.45,4.22-1.35,5.45c-0.9,1.22-2.27,1.84-4.11,1.84c-1.81,0-3.17-0.6-4.09-1.79
			c-0.92-1.19-1.39-2.96-1.41-5.3v-2.9c0-2.41,0.45-4.22,1.35-5.42s2.28-1.81,4.13-1.81c1.83,0,3.2,0.59,4.1,1.76
			s1.36,2.93,1.39,5.27V650.15z M887.43,647.02c0-1.57-0.21-2.73-0.64-3.46c-0.43-0.73-1.11-1.1-2.05-1.1
			c-0.91,0-1.58,0.35-2.01,1.04c-0.43,0.69-0.66,1.78-0.68,3.25v3.8c0,1.56,0.22,2.73,0.66,3.5c0.44,0.77,1.12,1.15,2.06,1.15
			c0.9,0,1.56-0.35,1.99-1.06c0.43-0.71,0.66-1.82,0.68-3.33V647.02z"/>
		<path class="st1" d="M897.11,647.55h1.7c0.86-0.01,1.54-0.23,2.04-0.67c0.5-0.44,0.75-1.07,0.75-1.9c0-0.8-0.21-1.42-0.63-1.86
			c-0.42-0.44-1.06-0.66-1.92-0.66c-0.75,0-1.37,0.22-1.85,0.65c-0.48,0.43-0.72,1-0.72,1.7h-2.8c0-0.86,0.23-1.64,0.68-2.35
			c0.46-0.71,1.09-1.26,1.91-1.65c0.82-0.4,1.73-0.59,2.74-0.59c1.67,0,2.99,0.42,3.94,1.26s1.43,2.01,1.43,3.5
			c0,0.75-0.24,1.46-0.72,2.12c-0.48,0.66-1.1,1.16-1.86,1.5c0.92,0.31,1.62,0.81,2.1,1.48c0.48,0.68,0.72,1.48,0.72,2.42
			c0,1.5-0.52,2.7-1.55,3.59c-1.03,0.89-2.39,1.33-4.07,1.33c-1.61,0-2.93-0.43-3.96-1.29c-1.03-0.86-1.54-2-1.54-3.43h2.8
			c0,0.74,0.25,1.33,0.74,1.8s1.16,0.69,2,0.69c0.87,0,1.55-0.23,2.05-0.69c0.5-0.46,0.75-1.13,0.75-2c0-0.88-0.26-1.56-0.78-2.04
			c-0.52-0.48-1.3-0.71-2.32-0.71h-1.65V647.55z"/>
		<path class="st1" d="M909.2,648.89l0.91-8.45h9v2.42h-6.67l-0.46,4c0.77-0.44,1.65-0.67,2.62-0.67c1.6,0,2.84,0.51,3.72,1.53
			c0.89,1.02,1.33,2.39,1.33,4.12c0,1.7-0.49,3.06-1.47,4.07c-0.98,1.01-2.33,1.51-4.04,1.51c-1.53,0-2.81-0.44-3.81-1.31
			c-1.01-0.87-1.56-2.02-1.64-3.45h2.7c0.11,0.81,0.4,1.44,0.87,1.87c0.48,0.43,1.1,0.65,1.86,0.65c0.86,0,1.53-0.31,2.01-0.92
			s0.72-1.45,0.72-2.51c0-1.02-0.26-1.83-0.79-2.42c-0.53-0.59-1.26-0.89-2.19-0.89c-0.51,0-0.94,0.07-1.29,0.2
			c-0.35,0.13-0.74,0.4-1.15,0.79L909.2,648.89z"/>
	</g>
	<g>
		<path class="st1" d="M663.91,657.2h-11.27v-1.92l5.58-6.09c0.81-0.9,1.38-1.65,1.72-2.25c0.34-0.6,0.51-1.21,0.51-1.81
			c0-0.8-0.22-1.44-0.67-1.93s-1.05-0.74-1.81-0.74c-0.91,0-1.61,0.28-2.11,0.83c-0.5,0.55-0.75,1.31-0.75,2.27h-2.8
			c0-1.02,0.23-1.94,0.7-2.76c0.46-0.82,1.13-1.45,1.99-1.9c0.86-0.45,1.86-0.68,2.99-0.68c1.63,0,2.91,0.41,3.85,1.23
			c0.94,0.82,1.41,1.95,1.41,3.39c0,0.84-0.24,1.71-0.71,2.63c-0.47,0.92-1.24,1.96-2.32,3.12l-4.1,4.38h7.78V657.2z"/>
		<path class="st1" d="M678.13,650.15c0,2.41-0.45,4.22-1.35,5.45c-0.9,1.22-2.27,1.84-4.11,1.84c-1.81,0-3.17-0.6-4.09-1.79
			c-0.92-1.19-1.39-2.96-1.41-5.3v-2.9c0-2.41,0.45-4.22,1.35-5.42s2.28-1.81,4.13-1.81c1.83,0,3.2,0.59,4.1,1.76
			s1.36,2.93,1.39,5.27V650.15z M675.34,647.02c0-1.57-0.21-2.73-0.64-3.46c-0.43-0.73-1.11-1.1-2.05-1.1
			c-0.91,0-1.58,0.35-2.01,1.04c-0.43,0.69-0.66,1.78-0.68,3.25v3.8c0,1.56,0.22,2.73,0.66,3.5c0.44,0.77,1.12,1.15,2.06,1.15
			c0.9,0,1.56-0.35,1.99-1.06c0.43-0.71,0.66-1.82,0.68-3.33V647.02z"/>
		<path class="st1" d="M685.02,647.55h1.7c0.86-0.01,1.54-0.23,2.04-0.67c0.5-0.44,0.75-1.07,0.75-1.9c0-0.8-0.21-1.42-0.63-1.86
			c-0.42-0.44-1.06-0.66-1.92-0.66c-0.75,0-1.37,0.22-1.85,0.65s-0.72,1-0.72,1.7h-2.8c0-0.86,0.23-1.64,0.68-2.35
			s1.09-1.26,1.91-1.65c0.82-0.4,1.73-0.59,2.74-0.59c1.67,0,2.99,0.42,3.94,1.26s1.43,2.01,1.43,3.5c0,0.75-0.24,1.46-0.72,2.12
			s-1.1,1.16-1.86,1.5c0.92,0.31,1.62,0.81,2.1,1.48s0.72,1.48,0.72,2.42c0,1.5-0.52,2.7-1.55,3.59c-1.03,0.89-2.39,1.33-4.07,1.33
			c-1.61,0-2.93-0.43-3.96-1.29c-1.03-0.86-1.54-2-1.54-3.43h2.8c0,0.74,0.25,1.33,0.74,1.8c0.49,0.46,1.16,0.69,2,0.69
			c0.87,0,1.55-0.23,2.05-0.69c0.5-0.46,0.75-1.13,0.75-2c0-0.88-0.26-1.56-0.78-2.04c-0.52-0.48-1.3-0.71-2.32-0.71h-1.65V647.55z"
			/>
		<path class="st1" d="M707.28,650.15c0,2.41-0.45,4.22-1.35,5.45c-0.9,1.22-2.27,1.84-4.11,1.84c-1.81,0-3.17-0.6-4.09-1.79
			c-0.92-1.19-1.39-2.96-1.41-5.3v-2.9c0-2.41,0.45-4.22,1.35-5.42s2.28-1.81,4.13-1.81c1.83,0,3.2,0.59,4.1,1.76
			s1.36,2.93,1.39,5.27V650.15z M704.48,647.02c0-1.57-0.21-2.73-0.64-3.46c-0.43-0.73-1.11-1.1-2.05-1.1
			c-0.91,0-1.58,0.35-2.01,1.04c-0.43,0.69-0.66,1.78-0.68,3.25v3.8c0,1.56,0.22,2.73,0.66,3.5c0.44,0.77,1.12,1.15,2.06,1.15
			c0.9,0,1.56-0.35,1.99-1.06c0.43-0.71,0.66-1.82,0.68-3.33V647.02z"/>
	</g>
	<g>
		<path class="st1" d="M451.81,657.2h-11.27v-1.92l5.58-6.09c0.81-0.9,1.38-1.65,1.72-2.25c0.34-0.6,0.51-1.21,0.51-1.81
			c0-0.8-0.22-1.44-0.67-1.93s-1.05-0.74-1.81-0.74c-0.91,0-1.61,0.28-2.11,0.83s-0.75,1.31-0.75,2.27h-2.8
			c0-1.02,0.23-1.94,0.7-2.76c0.46-0.82,1.13-1.45,1.99-1.9c0.86-0.45,1.86-0.68,2.99-0.68c1.63,0,2.91,0.41,3.85,1.23
			c0.94,0.82,1.41,1.95,1.41,3.39c0,0.84-0.24,1.71-0.71,2.63c-0.47,0.92-1.24,1.96-2.32,3.12l-4.1,4.38h7.78V657.2z"/>
		<path class="st1" d="M466.04,650.15c0,2.41-0.45,4.22-1.35,5.45c-0.9,1.22-2.27,1.84-4.11,1.84c-1.81,0-3.17-0.6-4.09-1.79
			c-0.92-1.19-1.39-2.96-1.41-5.3v-2.9c0-2.41,0.45-4.22,1.35-5.42s2.28-1.81,4.13-1.81c1.83,0,3.2,0.59,4.1,1.76
			s1.36,2.93,1.39,5.27V650.15z M463.24,647.02c0-1.57-0.21-2.73-0.64-3.46c-0.43-0.73-1.11-1.1-2.05-1.1
			c-0.91,0-1.58,0.35-2.01,1.04c-0.43,0.69-0.66,1.78-0.68,3.25v3.8c0,1.56,0.22,2.73,0.66,3.5c0.44,0.77,1.12,1.15,2.06,1.15
			c0.9,0,1.56-0.35,1.99-1.06c0.43-0.71,0.66-1.82,0.68-3.33V647.02z"/>
		<path class="st1" d="M480.96,657.2h-11.27v-1.92l5.58-6.09c0.81-0.9,1.38-1.65,1.72-2.25c0.34-0.6,0.51-1.21,0.51-1.81
			c0-0.8-0.22-1.44-0.67-1.93s-1.05-0.74-1.81-0.74c-0.91,0-1.61,0.28-2.11,0.83s-0.75,1.31-0.75,2.27h-2.8
			c0-1.02,0.23-1.94,0.7-2.76c0.46-0.82,1.13-1.45,1.99-1.9c0.86-0.45,1.86-0.68,2.99-0.68c1.63,0,2.91,0.41,3.85,1.23
			c0.94,0.82,1.41,1.95,1.41,3.39c0,0.84-0.24,1.71-0.71,2.63c-0.47,0.92-1.24,1.96-2.32,3.12l-4.1,4.38h7.78V657.2z"/>
		<path class="st1" d="M485.01,648.89l0.91-8.45h9v2.42h-6.67l-0.46,4c0.77-0.44,1.65-0.67,2.62-0.67c1.6,0,2.84,0.51,3.72,1.53
			c0.89,1.02,1.33,2.39,1.33,4.12c0,1.7-0.49,3.06-1.47,4.07c-0.98,1.01-2.33,1.51-4.04,1.51c-1.53,0-2.81-0.44-3.81-1.31
			s-1.56-2.02-1.64-3.45h2.7c0.11,0.81,0.4,1.44,0.87,1.87c0.48,0.43,1.1,0.65,1.86,0.65c0.86,0,1.53-0.31,2.01-0.92
			s0.72-1.45,0.72-2.51c0-1.02-0.26-1.83-0.79-2.42s-1.26-0.89-2.19-0.89c-0.51,0-0.94,0.07-1.29,0.2c-0.35,0.13-0.74,0.4-1.15,0.79
			L485.01,648.89z"/>
	</g>
	<g>
		<path class="st1" d="M241.68,657.2h-11.27v-1.92l5.58-6.09c0.81-0.9,1.38-1.65,1.72-2.25c0.34-0.6,0.51-1.21,0.51-1.81
			c0-0.8-0.22-1.44-0.67-1.93c-0.45-0.49-1.05-0.74-1.81-0.74c-0.91,0-1.61,0.28-2.11,0.83c-0.5,0.55-0.75,1.31-0.75,2.27h-2.8
			c0-1.02,0.23-1.94,0.7-2.76c0.46-0.82,1.13-1.45,1.99-1.9c0.86-0.45,1.86-0.68,2.99-0.68c1.63,0,2.91,0.41,3.85,1.23
			c0.94,0.82,1.41,1.95,1.41,3.39c0,0.84-0.24,1.71-0.71,2.63c-0.47,0.92-1.24,1.96-2.32,3.12l-4.1,4.38h7.78V657.2z"/>
		<path class="st1" d="M255.91,650.15c0,2.41-0.45,4.22-1.35,5.45c-0.9,1.22-2.27,1.84-4.11,1.84c-1.81,0-3.17-0.6-4.09-1.79
			c-0.92-1.19-1.39-2.96-1.41-5.3v-2.9c0-2.41,0.45-4.22,1.35-5.42s2.28-1.81,4.13-1.81c1.83,0,3.2,0.59,4.1,1.76
			c0.9,1.17,1.36,2.93,1.39,5.27V650.15z M253.11,647.02c0-1.57-0.21-2.73-0.64-3.46c-0.43-0.73-1.11-1.1-2.05-1.1
			c-0.91,0-1.58,0.35-2.01,1.04c-0.43,0.69-0.66,1.78-0.68,3.25v3.8c0,1.56,0.22,2.73,0.66,3.5c0.44,0.77,1.12,1.15,2.06,1.15
			c0.9,0,1.56-0.35,1.99-1.06c0.43-0.71,0.66-1.82,0.68-3.33V647.02z"/>
		<path class="st1" d="M270.83,657.2h-11.27v-1.92l5.58-6.09c0.81-0.9,1.38-1.65,1.72-2.25c0.34-0.6,0.51-1.21,0.51-1.81
			c0-0.8-0.22-1.44-0.67-1.93s-1.05-0.74-1.81-0.74c-0.91,0-1.61,0.28-2.11,0.83s-0.75,1.31-0.75,2.27h-2.8
			c0-1.02,0.23-1.94,0.7-2.76c0.46-0.82,1.13-1.45,1.99-1.9c0.86-0.45,1.86-0.68,2.99-0.68c1.63,0,2.91,0.41,3.85,1.23
			c0.94,0.82,1.41,1.95,1.41,3.39c0,0.84-0.24,1.71-0.71,2.63c-0.47,0.92-1.24,1.96-2.32,3.12l-4.1,4.38h7.78V657.2z"/>
		<path class="st1" d="M285.05,650.15c0,2.41-0.45,4.22-1.35,5.45c-0.9,1.22-2.27,1.84-4.11,1.84c-1.81,0-3.17-0.6-4.09-1.79
			c-0.92-1.19-1.39-2.96-1.41-5.3v-2.9c0-2.41,0.45-4.22,1.35-5.42s2.28-1.81,4.13-1.81c1.83,0,3.2,0.59,4.1,1.76
			s1.36,2.93,1.39,5.27V650.15z M282.26,647.02c0-1.57-0.21-2.73-0.64-3.46c-0.43-0.73-1.11-1.1-2.05-1.1
			c-0.91,0-1.58,0.35-2.01,1.04c-0.43,0.69-0.66,1.78-0.68,3.25v3.8c0,1.56,0.22,2.73,0.66,3.5c0.44,0.77,1.12,1.15,2.06,1.15
			c0.9,0,1.56-0.35,1.99-1.06c0.43-0.71,0.66-1.82,0.68-3.33V647.02z"/>
	</g>
	<g>
		<path class="st1" d="M29.59,657.2H18.32v-1.92l5.58-6.09c0.81-0.9,1.38-1.65,1.72-2.25c0.34-0.6,0.51-1.21,0.51-1.81
			c0-0.8-0.22-1.44-0.67-1.93s-1.05-0.74-1.81-0.74c-0.91,0-1.61,0.28-2.11,0.83s-0.75,1.31-0.75,2.27H18c0-1.02,0.23-1.94,0.7-2.76
			c0.46-0.82,1.13-1.45,1.99-1.9c0.86-0.45,1.86-0.68,2.99-0.68c1.63,0,2.91,0.41,3.85,1.23c0.94,0.82,1.41,1.95,1.41,3.39
			c0,0.84-0.24,1.71-0.71,2.63c-0.47,0.92-1.24,1.96-2.32,3.12l-4.1,4.38h7.78V657.2z"/>
		<path class="st1" d="M43.81,650.15c0,2.41-0.45,4.22-1.35,5.45c-0.9,1.22-2.27,1.84-4.11,1.84c-1.81,0-3.17-0.6-4.09-1.79
			s-1.39-2.96-1.41-5.3v-2.9c0-2.41,0.45-4.22,1.35-5.42c0.9-1.2,2.28-1.81,4.13-1.81c1.83,0,3.2,0.59,4.1,1.76s1.36,2.93,1.39,5.27
			V650.15z M41.02,647.02c0-1.57-0.21-2.73-0.64-3.46c-0.43-0.73-1.11-1.1-2.05-1.1c-0.91,0-1.58,0.35-2.01,1.04
			c-0.43,0.69-0.66,1.78-0.68,3.25v3.8c0,1.56,0.22,2.73,0.66,3.5c0.44,0.77,1.12,1.15,2.06,1.15c0.9,0,1.56-0.35,1.99-1.06
			c0.43-0.71,0.66-1.82,0.68-3.33V647.02z"/>
		<path class="st1" d="M55.04,657.2h-2.78v-13.46l-4.11,1.4v-2.35l6.54-2.4h0.36V657.2z"/>
		<path class="st1" d="M62.79,648.89l0.91-8.45h9v2.42h-6.67l-0.46,4c0.77-0.44,1.65-0.67,2.62-0.67c1.6,0,2.84,0.51,3.72,1.53
			s1.33,2.39,1.33,4.12c0,1.7-0.49,3.06-1.47,4.07c-0.98,1.01-2.33,1.51-4.04,1.51c-1.53,0-2.81-0.44-3.81-1.31
			c-1.01-0.87-1.56-2.02-1.64-3.45h2.7c0.11,0.81,0.4,1.44,0.87,1.87c0.48,0.43,1.1,0.65,1.86,0.65c0.86,0,1.53-0.31,2.01-0.92
			c0.48-0.61,0.72-1.45,0.72-2.51c0-1.02-0.26-1.83-0.79-2.42s-1.26-0.89-2.19-0.89c-0.51,0-0.94,0.07-1.29,0.2
			c-0.35,0.13-0.74,0.4-1.15,0.79L62.79,648.89z"/>
	</g>
	<g>
		<path class="st1" d="M1153.65,594.29c0,2.81-0.53,4.93-1.58,6.36c-1.05,1.43-2.65,2.14-4.8,2.14c-2.11,0-3.7-0.7-4.77-2.09
			c-1.07-1.39-1.62-3.45-1.64-6.18v-3.38c0-2.81,0.53-4.92,1.58-6.32c1.05-1.4,2.65-2.11,4.81-2.11c2.14,0,3.73,0.68,4.78,2.05
			c1.05,1.37,1.59,3.42,1.62,6.15V594.29z M1150.39,590.64c0-1.83-0.25-3.18-0.75-4.03c-0.5-0.86-1.3-1.28-2.39-1.28
			c-1.06,0-1.85,0.4-2.35,1.22c-0.5,0.81-0.77,2.07-0.79,3.79v4.43c0,1.83,0.26,3.19,0.77,4.08c0.51,0.9,1.31,1.34,2.4,1.34
			c1.05,0,1.82-0.41,2.32-1.24c0.5-0.83,0.77-2.12,0.79-3.89V590.64z"/>
	</g>
	<g>
		<path class="st1" d="M1132.74,523.96h-3.25v-15.7l-4.79,1.63v-2.74l7.63-2.81h0.42V523.96z"/>
		<path class="st1" d="M1153.65,515.74c0,2.81-0.53,4.93-1.58,6.36c-1.05,1.43-2.65,2.14-4.8,2.14c-2.11,0-3.7-0.7-4.77-2.09
			c-1.07-1.39-1.62-3.45-1.64-6.18v-3.38c0-2.81,0.53-4.92,1.58-6.32c1.05-1.4,2.65-2.11,4.81-2.11c2.14,0,3.73,0.68,4.78,2.05
			c1.05,1.37,1.59,3.42,1.62,6.15V515.74z M1150.39,512.08c0-1.83-0.25-3.18-0.75-4.03c-0.5-0.86-1.3-1.28-2.39-1.28
			c-1.06,0-1.85,0.4-2.35,1.22c-0.5,0.81-0.77,2.07-0.79,3.79v4.43c0,1.83,0.26,3.19,0.77,4.08c0.51,0.9,1.31,1.34,2.4,1.34
			c1.05,0,1.82-0.41,2.32-1.24c0.5-0.83,0.77-2.12,0.79-3.89V512.08z"/>
	</g>
	<g>
		<path class="st1" d="M1137.05,445.41h-13.14v-2.24l6.51-7.1c0.94-1.05,1.61-1.92,2.01-2.62c0.4-0.7,0.6-1.41,0.6-2.12
			c0-0.93-0.26-1.68-0.79-2.26c-0.52-0.57-1.23-0.86-2.11-0.86c-1.06,0-1.88,0.32-2.46,0.97c-0.58,0.64-0.87,1.53-0.87,2.64h-3.26
			c0-1.19,0.27-2.26,0.81-3.21c0.54-0.95,1.32-1.69,2.32-2.22c1-0.53,2.17-0.79,3.48-0.79c1.9,0,3.39,0.48,4.49,1.43
			c1.1,0.95,1.64,2.27,1.64,3.95c0,0.98-0.27,2-0.83,3.07c-0.55,1.07-1.45,2.28-2.7,3.64l-4.78,5.11h9.07V445.41z"/>
		<path class="st1" d="M1153.65,437.18c0,2.81-0.53,4.93-1.58,6.36c-1.05,1.43-2.65,2.14-4.8,2.14c-2.11,0-3.7-0.7-4.77-2.09
			c-1.07-1.39-1.62-3.45-1.64-6.18v-3.38c0-2.81,0.53-4.92,1.58-6.32c1.05-1.4,2.65-2.11,4.81-2.11c2.14,0,3.73,0.68,4.78,2.05
			c1.05,1.37,1.59,3.42,1.62,6.15V437.18z M1150.39,433.53c0-1.83-0.25-3.18-0.75-4.03c-0.5-0.86-1.3-1.28-2.39-1.28
			c-1.06,0-1.85,0.4-2.35,1.22c-0.5,0.81-0.77,2.07-0.79,3.79v4.43c0,1.83,0.26,3.19,0.77,4.08c0.51,0.9,1.31,1.34,2.4,1.34
			c1.05,0,1.82-0.41,2.32-1.24c0.5-0.83,0.77-2.12,0.79-3.89V433.53z"/>
	</g>
	<g>
		<path class="st1" d="M1127.68,351.67h1.99c1-0.01,1.8-0.27,2.38-0.78c0.59-0.51,0.88-1.25,0.88-2.22c0-0.93-0.24-1.65-0.73-2.17
			c-0.49-0.51-1.23-0.77-2.24-0.77c-0.88,0-1.6,0.25-2.16,0.76s-0.85,1.17-0.85,1.98h-3.26c0-1,0.27-1.91,0.8-2.74
			c0.53-0.82,1.27-1.47,2.23-1.93c0.95-0.46,2.02-0.69,3.2-0.69c1.95,0,3.48,0.49,4.6,1.47c1.12,0.98,1.67,2.34,1.67,4.09
			c0,0.88-0.28,1.7-0.84,2.48c-0.56,0.77-1.28,1.36-2.17,1.75c1.07,0.37,1.89,0.95,2.45,1.73c0.56,0.79,0.84,1.73,0.84,2.82
			c0,1.75-0.6,3.15-1.8,4.19c-1.2,1.04-2.79,1.56-4.75,1.56c-1.88,0-3.42-0.5-4.62-1.5c-1.2-1-1.8-2.34-1.8-4h3.26
			c0,0.86,0.29,1.56,0.87,2.09c0.58,0.54,1.35,0.81,2.33,0.81c1.01,0,1.81-0.27,2.39-0.81c0.58-0.54,0.87-1.32,0.87-2.34
			c0-1.03-0.3-1.82-0.91-2.38c-0.61-0.55-1.51-0.83-2.71-0.83h-1.92V351.67z"/>
		<path class="st1" d="M1153.65,354.7c0,2.81-0.53,4.93-1.58,6.36c-1.05,1.43-2.65,2.14-4.8,2.14c-2.11,0-3.7-0.7-4.77-2.09
			c-1.07-1.39-1.62-3.45-1.64-6.18v-3.38c0-2.81,0.53-4.92,1.58-6.32c1.05-1.4,2.65-2.11,4.81-2.11c2.14,0,3.73,0.68,4.78,2.05
			c1.05,1.37,1.59,3.42,1.62,6.15V354.7z M1150.39,351.05c0-1.83-0.25-3.18-0.75-4.03c-0.5-0.85-1.3-1.28-2.39-1.28
			c-1.06,0-1.85,0.4-2.35,1.21c-0.5,0.81-0.77,2.07-0.79,3.79v4.43c0,1.83,0.26,3.19,0.77,4.08c0.51,0.9,1.31,1.34,2.4,1.34
			c1.05,0,1.82-0.41,2.32-1.24c0.5-0.83,0.77-2.12,0.79-3.89V351.05z"/>
	</g>
	<g>
		<path class="st1" d="M1134.94,277.41h2.43v2.62h-2.43v4.35h-3.26v-4.35h-8.44l-0.09-1.99l8.43-13.21h3.37V277.41z M1126.56,277.41
			h5.11v-8.16l-0.24,0.43L1126.56,277.41z"/>
		<path class="st1" d="M1153.65,276.15c0,2.81-0.53,4.93-1.58,6.36c-1.05,1.43-2.65,2.14-4.8,2.14c-2.11,0-3.7-0.7-4.77-2.09
			c-1.07-1.39-1.62-3.45-1.64-6.18v-3.38c0-2.81,0.53-4.92,1.58-6.32c1.05-1.4,2.65-2.11,4.81-2.11c2.14,0,3.73,0.68,4.78,2.05
			c1.05,1.37,1.59,3.42,1.62,6.15V276.15z M1150.39,272.5c0-1.83-0.25-3.18-0.75-4.03c-0.5-0.85-1.3-1.28-2.39-1.28
			c-1.06,0-1.85,0.4-2.35,1.21c-0.5,0.81-0.77,2.07-0.79,3.79v4.43c0,1.83,0.26,3.19,0.77,4.08s1.31,1.34,2.4,1.34
			c1.05,0,1.82-0.41,2.32-1.24c0.5-0.83,0.77-2.12,0.79-3.89V272.5z"/>
	</g>
	<g>
		<path class="st1" d="M1124.78,196.13l1.06-9.85h10.5v2.82h-7.79l-0.54,4.67c0.9-0.52,1.92-0.78,3.06-0.78
			c1.86,0,3.31,0.6,4.34,1.79c1.03,1.19,1.55,2.79,1.55,4.81c0,1.99-0.57,3.57-1.72,4.75s-2.72,1.77-4.71,1.77
			c-1.79,0-3.27-0.51-4.45-1.52c-1.18-1.02-1.81-2.36-1.91-4.02h3.15c0.12,0.95,0.47,1.68,1.02,2.18c0.55,0.51,1.28,0.76,2.17,0.76
			c1,0,1.78-0.36,2.34-1.07c0.56-0.72,0.84-1.69,0.84-2.93c0-1.19-0.31-2.13-0.93-2.83c-0.62-0.69-1.47-1.04-2.55-1.04
			c-0.59,0-1.09,0.08-1.5,0.23c-0.41,0.16-0.86,0.46-1.34,0.92L1124.78,196.13z"/>
		<path class="st1" d="M1153.65,197.59c0,2.81-0.53,4.93-1.58,6.36c-1.05,1.43-2.65,2.14-4.8,2.14c-2.11,0-3.7-0.7-4.77-2.09
			c-1.07-1.39-1.62-3.45-1.64-6.18v-3.38c0-2.81,0.53-4.92,1.58-6.32c1.05-1.4,2.65-2.11,4.81-2.11c2.14,0,3.73,0.68,4.78,2.05
			c1.05,1.37,1.59,3.42,1.62,6.15V197.59z M1150.39,193.94c0-1.83-0.25-3.18-0.75-4.03c-0.5-0.85-1.3-1.28-2.39-1.28
			c-1.06,0-1.85,0.4-2.35,1.21c-0.5,0.81-0.77,2.07-0.79,3.79v4.43c0,1.83,0.26,3.19,0.77,4.08s1.31,1.34,2.4,1.34
			c1.05,0,1.82-0.41,2.32-1.24c0.5-0.83,0.77-2.12,0.79-3.89V193.94z"/>
	</g>
	<g>
		<path class="st1" d="M1077.1,74.25v2.7h-0.4c-1.83,0.03-3.29,0.53-4.38,1.5c-1.09,0.98-1.74,2.36-1.95,4.15
			c1.05-1.1,2.39-1.65,4.01-1.65c1.73,0,3.09,0.61,4.09,1.83c1,1.22,1.5,2.79,1.5,4.71c0,1.99-0.58,3.6-1.75,4.83
			c-1.17,1.23-2.7,1.85-4.6,1.85c-1.95,0-3.53-0.72-4.74-2.16c-1.21-1.44-1.82-3.33-1.82-5.67v-1.11c0-3.43,0.83-6.11,2.5-8.05
			c1.67-1.94,4.07-2.91,7.2-2.91H1077.1z M1073.6,83.58c-0.72,0-1.37,0.2-1.97,0.6c-0.59,0.4-1.03,0.94-1.31,1.61v0.99
			c0,1.45,0.3,2.6,0.91,3.46c0.61,0.85,1.4,1.28,2.36,1.28s1.73-0.36,2.3-1.09s0.85-1.68,0.85-2.86s-0.29-2.14-0.86-2.89
			C1075.31,83.95,1074.55,83.58,1073.6,83.58z"/>
		<path class="st1" d="M1096.7,85.66c0,2.81-0.53,4.93-1.58,6.36c-1.05,1.43-2.65,2.14-4.8,2.14c-2.11,0-3.7-0.7-4.77-2.09
			c-1.07-1.39-1.62-3.45-1.64-6.18V82.5c0-2.81,0.53-4.92,1.58-6.32c1.05-1.4,2.65-2.11,4.81-2.11c2.14,0,3.73,0.68,4.78,2.05
			c1.05,1.37,1.59,3.42,1.62,6.15V85.66z M1093.43,82c0-1.83-0.25-3.18-0.75-4.03c-0.5-0.85-1.3-1.28-2.39-1.28
			c-1.06,0-1.85,0.4-2.35,1.21c-0.5,0.81-0.77,2.07-0.79,3.79v4.43c0,1.83,0.26,3.19,0.77,4.08s1.31,1.34,2.4,1.34
			c1.05,0,1.82-0.41,2.32-1.24c0.5-0.83,0.77-2.12,0.79-3.89V82z"/>
		<path class="st1" d="M1105.89,74.34l5.64,14.98l5.62-14.98h4.39v19.55h-3.38v-6.44l0.34-8.62l-5.77,15.06h-2.43l-5.76-15.05
			l0.34,8.61v6.44h-3.38V74.34H1105.89z"/>
		<path class="st1" d="M1146.57,85.16h-8.03v6.01h9.38v2.71h-12.78V74.34h12.69v2.74h-9.29v5.4h8.03V85.16z"/>
		<path class="st1" d="M1158.95,89.63l4.97-15.29h3.73l-7.03,19.55h-3.29l-7.01-19.55h3.72L1158.95,89.63z"/>
		<path class="st1" d="M1179.06,89.94c0-0.58-0.24-1.03-0.72-1.33c-0.48-0.3-1.27-0.57-2.38-0.81c-1.11-0.23-2.04-0.53-2.78-0.89
			c-1.63-0.79-2.44-1.93-2.44-3.42c0-1.25,0.53-2.3,1.58-3.14c1.06-0.84,2.4-1.26,4.03-1.26c1.74,0,3.14,0.43,4.21,1.29
			c1.07,0.86,1.6,1.97,1.6,3.34h-3.26c0-0.63-0.23-1.15-0.7-1.56s-1.08-0.62-1.85-0.62c-0.72,0-1.3,0.17-1.75,0.5
			c-0.45,0.33-0.68,0.77-0.68,1.33c0,0.5,0.21,0.89,0.63,1.17s1.27,0.56,2.55,0.84c1.28,0.28,2.28,0.62,3.01,1.01
			c0.73,0.39,1.27,0.86,1.63,1.4c0.35,0.55,0.53,1.21,0.53,1.99c0,1.31-0.54,2.36-1.62,3.17c-1.08,0.81-2.5,1.21-4.26,1.21
			c-1.19,0-2.25-0.21-3.18-0.64c-0.93-0.43-1.66-1.02-2.17-1.77c-0.52-0.75-0.78-1.56-0.78-2.43h3.17c0.04,0.77,0.34,1.36,0.87,1.78
			c0.54,0.42,1.25,0.62,2.13,0.62c0.86,0,1.51-0.16,1.96-0.49C1178.83,90.89,1179.06,90.47,1179.06,89.94z"/>
		<path class="st1" d="M1079.88,114.26c0,2.25-0.51,4.04-1.53,5.38s-2.39,2.01-4.11,2.01c-1.59,0-2.87-0.52-3.83-1.57v6.89h-3.26
			v-20.11h3.01l0.13,1.48c0.96-1.16,2.26-1.75,3.91-1.75c1.77,0,3.16,0.66,4.17,1.98c1.01,1.32,1.51,3.15,1.51,5.5V114.26z
			 M1076.63,113.98c0-1.45-0.29-2.6-0.87-3.45c-0.58-0.85-1.4-1.28-2.48-1.28c-1.33,0-2.29,0.55-2.87,1.65v6.44
			c0.59,1.13,1.56,1.69,2.9,1.69c1.04,0,1.85-0.42,2.44-1.26C1076.34,116.95,1076.63,115.68,1076.63,113.98z"/>
		<path class="st1" d="M1090.41,121.65c-2.07,0-3.74-0.65-5.03-1.95c-1.28-1.3-1.93-3.04-1.93-5.2v-0.4c0-1.45,0.28-2.75,0.84-3.89
			c0.56-1.14,1.35-2.03,2.36-2.66c1.01-0.64,2.14-0.95,3.38-0.95c1.98,0,3.51,0.63,4.59,1.89c1.08,1.26,1.62,3.05,1.62,5.36v1.32
			h-9.49c0.1,1.2,0.5,2.15,1.2,2.85c0.7,0.7,1.59,1.05,2.65,1.05c1.49,0,2.71-0.6,3.65-1.81l1.76,1.68
			c-0.58,0.87-1.36,1.54-2.33,2.02C1092.71,121.41,1091.62,121.65,1090.41,121.65z M1090.02,109.2c-0.9,0-1.62,0.31-2.17,0.94
			c-0.55,0.63-0.9,1.5-1.05,2.62h6.22v-0.24c-0.07-1.09-0.36-1.92-0.87-2.48C1091.64,109.48,1090.93,109.2,1090.02,109.2z"/>
		<path class="st1" d="M1107.75,109.83c-0.43-0.07-0.87-0.11-1.33-0.11c-1.49,0-2.5,0.57-3.02,1.72v9.93h-3.26v-14.53h3.11
			l0.08,1.62c0.79-1.26,1.88-1.89,3.28-1.89c0.47,0,0.85,0.06,1.15,0.19L1107.75,109.83z"/>
		<path class="st1" d="M1124.49,116.71l2.95-9.85h3.48l-5.77,16.73c-0.89,2.44-2.39,3.66-4.51,3.66c-0.47,0-1-0.08-1.57-0.24v-2.54
			l0.62,0.04c0.82,0,1.44-0.15,1.86-0.45c0.42-0.3,0.75-0.8,0.99-1.51l0.47-1.25l-5.1-14.45h3.52L1124.49,116.71z"/>
		<path class="st1" d="M1140.39,121.65c-2.07,0-3.74-0.65-5.03-1.95c-1.28-1.3-1.93-3.04-1.93-5.2v-0.4c0-1.45,0.28-2.75,0.84-3.89
			c0.56-1.14,1.35-2.03,2.36-2.66c1.01-0.64,2.14-0.95,3.38-0.95c1.98,0,3.51,0.63,4.59,1.89c1.08,1.26,1.62,3.05,1.62,5.36v1.32
			h-9.49c0.1,1.2,0.5,2.15,1.2,2.85c0.7,0.7,1.59,1.05,2.65,1.05c1.49,0,2.71-0.6,3.65-1.81l1.76,1.68
			c-0.58,0.87-1.36,1.54-2.33,2.02C1142.69,121.41,1141.6,121.65,1140.39,121.65z M1140,109.2c-0.9,0-1.62,0.31-2.17,0.94
			c-0.55,0.63-0.9,1.5-1.05,2.62h6.22v-0.24c-0.07-1.09-0.36-1.92-0.87-2.48C1141.61,109.48,1140.9,109.2,1140,109.2z"/>
		<path class="st1" d="M1158.8,121.38c-0.14-0.28-0.27-0.73-0.38-1.36c-1.04,1.08-2.31,1.62-3.81,1.62c-1.46,0-2.65-0.42-3.57-1.25
			c-0.92-0.83-1.38-1.86-1.38-3.09c0-1.55,0.58-2.74,1.73-3.56c1.15-0.83,2.79-1.24,4.93-1.24h2v-0.95c0-0.75-0.21-1.35-0.63-1.81
			c-0.42-0.45-1.06-0.68-1.92-0.68c-0.74,0-1.35,0.19-1.83,0.56c-0.47,0.37-0.71,0.84-0.71,1.42h-3.26c0-0.8,0.26-1.54,0.79-2.24
			c0.53-0.69,1.25-1.24,2.16-1.63c0.91-0.39,1.92-0.59,3.04-0.59c1.7,0,3.06,0.43,4.07,1.28c1.01,0.85,1.53,2.06,1.56,3.6v6.55
			c0,1.31,0.18,2.35,0.55,3.13v0.23H1158.8z M1155.21,119.03c0.64,0,1.25-0.16,1.82-0.47c0.57-0.31,1-0.73,1.28-1.26v-2.74h-1.76
			c-1.21,0-2.12,0.21-2.73,0.63c-0.61,0.42-0.91,1.02-0.91,1.79c0,0.63,0.21,1.13,0.62,1.5
			C1153.96,118.84,1154.52,119.03,1155.21,119.03z"/>
		<path class="st1" d="M1173.97,109.83c-0.43-0.07-0.87-0.11-1.33-0.11c-1.49,0-2.5,0.57-3.02,1.72v9.93h-3.26v-14.53h3.11
			l0.08,1.62c0.79-1.26,1.88-1.89,3.28-1.89c0.47,0,0.85,0.06,1.15,0.19L1173.97,109.83z"/>
	</g>
	<g>
		<path class="st2" d="M791.88,36.61h-3.24v6.44h-2.91V26.3h5.89c1.93,0,3.43,0.43,4.48,1.3c1.05,0.87,1.58,2.12,1.58,3.77
			c0,1.12-0.27,2.06-0.81,2.82c-0.54,0.76-1.29,1.34-2.26,1.74l3.76,6.98v0.15h-3.12L791.88,36.61z M788.64,34.26h2.99
			c0.98,0,1.75-0.25,2.3-0.74c0.55-0.49,0.83-1.17,0.83-2.03c0-0.9-0.26-1.59-0.77-2.08c-0.51-0.49-1.27-0.74-2.28-0.76h-3.07V34.26
			z"/>
		<path class="st2" d="M806.23,43.29c-1.77,0-3.21-0.56-4.31-1.67c-1.1-1.12-1.65-2.6-1.65-4.46v-0.35c0-1.24,0.24-2.35,0.72-3.33
			s1.15-1.74,2.02-2.28c0.87-0.54,1.83-0.82,2.9-0.82c1.7,0,3.01,0.54,3.93,1.62s1.39,2.61,1.39,4.59v1.13h-8.14
			c0.08,1.03,0.43,1.84,1.03,2.44c0.6,0.6,1.36,0.9,2.27,0.9c1.28,0,2.32-0.52,3.13-1.55l1.51,1.44c-0.5,0.74-1.16,1.32-2,1.73
			C808.2,43.08,807.27,43.29,806.23,43.29z M805.9,32.62c-0.77,0-1.39,0.27-1.86,0.81c-0.47,0.54-0.77,1.28-0.9,2.24h5.33v-0.21
			c-0.06-0.94-0.31-1.64-0.75-2.12C807.28,32.86,806.67,32.62,805.9,32.62z"/>
		<path class="st2" d="M820.96,39.67c0-0.5-0.21-0.88-0.62-1.14c-0.41-0.26-1.09-0.49-2.04-0.69s-1.75-0.45-2.38-0.76
			c-1.4-0.68-2.09-1.65-2.09-2.93c0-1.07,0.45-1.97,1.36-2.69s2.06-1.08,3.45-1.08c1.49,0,2.69,0.37,3.61,1.1s1.38,1.69,1.38,2.87
			h-2.8c0-0.54-0.2-0.98-0.6-1.34c-0.4-0.36-0.93-0.54-1.59-0.54c-0.61,0-1.11,0.14-1.5,0.43c-0.39,0.28-0.58,0.66-0.58,1.14
			c0,0.43,0.18,0.76,0.54,1s1.09,0.48,2.19,0.72s1.96,0.53,2.58,0.86c0.63,0.33,1.09,0.73,1.39,1.2c0.3,0.47,0.45,1.04,0.45,1.7
			c0,1.12-0.46,2.03-1.39,2.72c-0.93,0.69-2.14,1.04-3.65,1.04c-1.02,0-1.93-0.18-2.73-0.55c-0.8-0.37-1.42-0.87-1.86-1.52
			c-0.44-0.64-0.67-1.34-0.67-2.08h2.72c0.04,0.66,0.29,1.17,0.75,1.52c0.46,0.36,1.07,0.54,1.83,0.54c0.74,0,1.3-0.14,1.68-0.42
			S820.96,40.12,820.96,39.67z"/>
		<path class="st2" d="M830.24,27.58v3.03h2.2v2.07h-2.2v6.95c0,0.48,0.09,0.82,0.28,1.03c0.19,0.21,0.52,0.32,1.01,0.32
			c0.32,0,0.65-0.04,0.98-0.12v2.16c-0.64,0.18-1.25,0.26-1.84,0.26c-2.15,0-3.22-1.19-3.22-3.56v-7.05h-2.05V30.6h2.05v-3.03
			H830.24z"/>
		<path class="st2" d="M841.1,36.71c0-1.22,0.24-2.32,0.72-3.3c0.48-0.98,1.16-1.73,2.04-2.26s1.88-0.79,3.01-0.79
			c1.68,0,3.04,0.54,4.09,1.62s1.61,2.52,1.7,4.3l0.01,0.66c0,1.23-0.24,2.32-0.71,3.29c-0.47,0.97-1.15,1.71-2.03,2.24
			c-0.88,0.53-1.89,0.79-3.04,0.79c-1.76,0-3.16-0.58-4.22-1.75c-1.05-1.17-1.58-2.73-1.58-4.68V36.71z M843.89,36.96
			c0,1.28,0.26,2.28,0.79,3.01c0.53,0.72,1.27,1.09,2.21,1.09s1.68-0.37,2.2-1.1c0.53-0.74,0.79-1.81,0.79-3.23
			c0-1.26-0.27-2.26-0.81-2.99c-0.54-0.74-1.28-1.1-2.2-1.1c-0.91,0-1.64,0.36-2.17,1.09S843.89,35.51,843.89,36.96z"/>
		<path class="st2" d="M856.61,43.06V32.68h-1.9V30.6h1.9v-1.14c0-1.38,0.38-2.45,1.15-3.2c0.77-0.75,1.84-1.13,3.22-1.13
			c0.49,0,1.01,0.07,1.56,0.21l-0.07,2.19c-0.31-0.06-0.66-0.09-1.07-0.09c-1.33,0-2,0.69-2,2.06v1.1h2.53v2.07h-2.53v10.38H856.61z
			"/>
		<path class="st2" d="M884.44,38.91l2.58-12.61h2.89l-3.87,16.75h-2.78l-3.19-12.23l-3.26,12.23h-2.8l-3.87-16.75h2.89l2.6,12.59
			l3.2-12.59h2.44L884.44,38.91z"/>
		<path class="st2" d="M891.47,36.71c0-1.22,0.24-2.32,0.72-3.3c0.48-0.98,1.16-1.73,2.04-2.26s1.88-0.79,3.01-0.79
			c1.68,0,3.04,0.54,4.09,1.62s1.61,2.52,1.7,4.3l0.01,0.66c0,1.23-0.24,2.32-0.71,3.29c-0.47,0.97-1.15,1.71-2.03,2.24
			c-0.88,0.53-1.89,0.79-3.04,0.79c-1.76,0-3.16-0.58-4.22-1.75s-1.58-2.73-1.58-4.68V36.71z M894.27,36.96
			c0,1.28,0.26,2.28,0.79,3.01s1.27,1.09,2.21,1.09c0.94,0,1.68-0.37,2.2-1.1c0.53-0.74,0.79-1.81,0.79-3.23
			c0-1.26-0.27-2.26-0.81-2.99c-0.54-0.74-1.28-1.1-2.2-1.1c-0.91,0-1.64,0.36-2.17,1.09S894.27,35.51,894.27,36.96z"/>
		<path class="st2" d="M912.52,33.16c-0.37-0.06-0.75-0.09-1.14-0.09c-1.28,0-2.14,0.49-2.59,1.47v8.52h-2.8V30.6h2.67l0.07,1.39
			c0.68-1.08,1.61-1.62,2.81-1.62c0.4,0,0.73,0.05,0.99,0.16L912.52,33.16z"/>
		<path class="st2" d="M917.85,43.06h-2.8V25.38h2.8V43.06z"/>
		<path class="st2" d="M920.96,36.74c0-1.92,0.44-3.46,1.33-4.62c0.89-1.16,2.08-1.74,3.58-1.74c1.32,0,2.39,0.46,3.2,1.38v-6.37
			h2.8v17.67h-2.53l-0.14-1.29c-0.84,1.01-1.95,1.52-3.35,1.52c-1.46,0-2.64-0.59-3.54-1.76S920.96,38.76,920.96,36.74z
			 M923.75,36.98c0,1.27,0.24,2.25,0.73,2.96s1.18,1.06,2.08,1.06c1.14,0,1.98-0.51,2.51-1.53v-5.32c-0.51-1-1.34-1.5-2.49-1.5
			c-0.91,0-1.6,0.36-2.09,1.08S923.75,35.54,923.75,36.98z"/>
	</g>
	<g>
		<path class="st3" d="M592.21,38.74c0-0.74-0.26-1.3-0.78-1.7c-0.52-0.4-1.45-0.8-2.8-1.21c-1.35-0.41-2.42-0.86-3.22-1.36
			c-1.53-0.96-2.29-2.21-2.29-3.75c0-1.35,0.55-2.46,1.65-3.34c1.1-0.87,2.53-1.31,4.29-1.31c1.17,0,2.21,0.21,3.12,0.64
			c0.91,0.43,1.63,1.04,2.15,1.84c0.52,0.79,0.78,1.67,0.78,2.64h-2.9c0-0.87-0.27-1.56-0.82-2.05c-0.55-0.49-1.33-0.74-2.35-0.74
			c-0.95,0-1.69,0.2-2.22,0.61c-0.53,0.41-0.79,0.97-0.79,1.7c0,0.61,0.28,1.13,0.85,1.54c0.57,0.41,1.5,0.81,2.81,1.2
			c1.3,0.39,2.35,0.83,3.14,1.32c0.79,0.49,1.37,1.06,1.74,1.7c0.37,0.64,0.55,1.39,0.55,2.25c0,1.4-0.54,2.51-1.61,3.33
			c-1.07,0.82-2.52,1.24-4.36,1.24c-1.21,0-2.33-0.22-3.34-0.67c-1.02-0.45-1.81-1.07-2.37-1.86s-0.85-1.71-0.85-2.76h2.91
			c0,0.95,0.31,1.69,0.94,2.21c0.63,0.52,1.53,0.78,2.7,0.78c1.01,0,1.77-0.21,2.28-0.62C591.95,39.96,592.21,39.42,592.21,38.74z"
			/>
		<path class="st3" d="M597.47,36.71c0-1.22,0.24-2.32,0.72-3.3c0.48-0.98,1.16-1.73,2.04-2.26s1.88-0.79,3.01-0.79
			c1.68,0,3.04,0.54,4.09,1.62s1.61,2.52,1.7,4.3l0.01,0.66c0,1.23-0.24,2.32-0.71,3.29c-0.47,0.97-1.15,1.71-2.03,2.24
			c-0.88,0.53-1.89,0.79-3.04,0.79c-1.76,0-3.16-0.58-4.22-1.75s-1.58-2.73-1.58-4.68V36.71z M600.26,36.96
			c0,1.28,0.26,2.28,0.79,3.01s1.27,1.09,2.21,1.09c0.94,0,1.68-0.37,2.2-1.1c0.53-0.74,0.79-1.81,0.79-3.23
			c0-1.26-0.27-2.26-0.81-2.99c-0.54-0.74-1.28-1.1-2.2-1.1c-0.91,0-1.64,0.36-2.17,1.09S600.26,35.51,600.26,36.96z"/>
		<path class="st3" d="M619.54,41.84c-0.82,0.97-1.99,1.45-3.5,1.45c-1.35,0-2.37-0.4-3.07-1.19c-0.69-0.79-1.04-1.93-1.04-3.43
			V30.6h2.8v8.03c0,1.58,0.66,2.37,1.97,2.37c1.36,0,2.27-0.49,2.75-1.46V30.6h2.8v12.45h-2.64L619.54,41.84z"/>
		<path class="st3" d="M629.19,27.58v3.03h2.2v2.07h-2.2v6.95c0,0.48,0.09,0.82,0.28,1.03c0.19,0.21,0.52,0.32,1.01,0.32
			c0.32,0,0.65-0.04,0.98-0.12v2.16c-0.64,0.18-1.25,0.26-1.84,0.26c-2.15,0-3.22-1.19-3.22-3.56v-7.05h-2.05V30.6h2.05v-3.03
			H629.19z"/>
		<path class="st3" d="M636.86,31.96c0.91-1.06,2.07-1.59,3.46-1.59c2.65,0,4,1.52,4.04,4.55v8.14h-2.8v-8.03
			c0-0.86-0.19-1.47-0.56-1.82s-0.92-0.54-1.64-0.54c-1.12,0-1.96,0.5-2.51,1.5v8.89h-2.8V25.38h2.8V31.96z"/>
		<path class="st3" d="M659.32,35.82l-1.9,2.01v5.22h-2.91V26.3h2.91v7.86l1.61-1.99l4.9-5.87h3.52l-6.23,7.42l6.58,9.33h-3.45
			L659.32,35.82z"/>
		<path class="st3" d="M668.85,36.71c0-1.22,0.24-2.32,0.72-3.3c0.48-0.98,1.16-1.73,2.04-2.26s1.88-0.79,3.01-0.79
			c1.68,0,3.04,0.54,4.09,1.62s1.61,2.52,1.7,4.3l0.01,0.66c0,1.23-0.24,2.32-0.71,3.29c-0.47,0.97-1.15,1.71-2.03,2.24
			c-0.88,0.53-1.89,0.79-3.04,0.79c-1.76,0-3.16-0.58-4.22-1.75s-1.58-2.73-1.58-4.68V36.71z M671.64,36.96
			c0,1.28,0.26,2.28,0.79,3.01c0.53,0.72,1.27,1.09,2.21,1.09c0.94,0,1.68-0.37,2.2-1.1c0.53-0.74,0.79-1.81,0.79-3.23
			c0-1.26-0.27-2.26-0.81-2.99c-0.54-0.74-1.28-1.1-2.2-1.1c-0.91,0-1.64,0.36-2.17,1.09S671.64,35.51,671.64,36.96z"/>
		<path class="st3" d="M689.9,33.16c-0.37-0.06-0.75-0.09-1.14-0.09c-1.28,0-2.14,0.49-2.59,1.47v8.52h-2.8V30.6h2.67l0.07,1.39
			c0.68-1.08,1.61-1.62,2.81-1.62c0.4,0,0.73,0.05,0.99,0.16L689.9,33.16z"/>
		<path class="st3" d="M697.52,43.29c-1.77,0-3.21-0.56-4.31-1.67s-1.65-2.6-1.65-4.46v-0.35c0-1.24,0.24-2.35,0.72-3.33
			s1.15-1.74,2.02-2.28c0.87-0.54,1.83-0.82,2.9-0.82c1.7,0,3.01,0.54,3.93,1.62s1.39,2.61,1.39,4.59v1.13h-8.14
			c0.08,1.03,0.43,1.84,1.03,2.44c0.6,0.6,1.36,0.9,2.27,0.9c1.28,0,2.32-0.52,3.13-1.55l1.51,1.44c-0.5,0.74-1.16,1.32-2,1.73
			C699.49,43.08,698.55,43.29,697.52,43.29z M697.18,32.62c-0.77,0-1.39,0.27-1.86,0.81c-0.47,0.54-0.77,1.28-0.9,2.24h5.33v-0.21
			c-0.06-0.94-0.31-1.64-0.75-2.12C698.56,32.86,697.96,32.62,697.18,32.62z"/>
		<path class="st3" d="M712.71,43.06c-0.12-0.24-0.23-0.63-0.32-1.16c-0.89,0.93-1.98,1.39-3.27,1.39c-1.25,0-2.27-0.36-3.06-1.07
			c-0.79-0.71-1.19-1.6-1.19-2.65c0-1.33,0.49-2.35,1.48-3.06c0.99-0.71,2.4-1.06,4.23-1.06h1.71v-0.82c0-0.64-0.18-1.16-0.54-1.55
			c-0.36-0.39-0.91-0.58-1.65-0.58c-0.64,0-1.16,0.16-1.56,0.48c-0.41,0.32-0.61,0.72-0.61,1.21h-2.8c0-0.68,0.23-1.32,0.68-1.92
			c0.45-0.59,1.07-1.06,1.85-1.4s1.65-0.51,2.61-0.51c1.46,0,2.62,0.37,3.49,1.1c0.87,0.73,1.31,1.76,1.33,3.09v5.62
			c0,1.12,0.16,2.01,0.47,2.68v0.2H712.71z M709.63,41.04c0.55,0,1.07-0.13,1.56-0.4c0.49-0.27,0.85-0.63,1.1-1.08v-2.35h-1.51
			c-1.04,0-1.81,0.18-2.34,0.54c-0.52,0.36-0.78,0.87-0.78,1.53c0,0.54,0.18,0.96,0.54,1.28S709.04,41.04,709.63,41.04z"/>
	</g>
	<g>
		<path class="st4" d="M452.84,26.3h2.9v11.75c0,1.6-0.5,2.88-1.5,3.82c-1,0.94-2.32,1.42-3.96,1.42c-1.75,0-3.1-0.44-4.05-1.32
			s-1.43-2.11-1.43-3.68h2.9c0,0.89,0.22,1.56,0.66,2.01c0.44,0.45,1.08,0.67,1.92,0.67c0.78,0,1.41-0.26,1.87-0.78
			s0.7-1.23,0.7-2.15V26.3z"/>
		<path class="st4" d="M466.82,43.06c-0.12-0.24-0.23-0.63-0.32-1.16c-0.89,0.93-1.98,1.39-3.27,1.39c-1.25,0-2.27-0.36-3.06-1.07
			c-0.79-0.71-1.19-1.6-1.19-2.65c0-1.33,0.49-2.35,1.48-3.06s2.4-1.06,4.23-1.06h1.71v-0.82c0-0.64-0.18-1.16-0.54-1.55
			c-0.36-0.39-0.91-0.58-1.65-0.58c-0.64,0-1.16,0.16-1.56,0.48c-0.41,0.32-0.61,0.72-0.61,1.21h-2.8c0-0.68,0.23-1.32,0.68-1.92
			c0.45-0.59,1.07-1.06,1.85-1.4s1.65-0.51,2.61-0.51c1.46,0,2.62,0.37,3.49,1.1c0.87,0.73,1.31,1.76,1.33,3.09v5.62
			c0,1.12,0.16,2.01,0.47,2.68v0.2H466.82z M463.75,41.04c0.55,0,1.07-0.13,1.56-0.4c0.49-0.27,0.85-0.63,1.1-1.08v-2.35h-1.51
			c-1.04,0-1.81,0.18-2.34,0.54s-0.78,0.87-0.78,1.53c0,0.54,0.18,0.96,0.54,1.28S463.15,41.04,463.75,41.04z"/>
		<path class="st4" d="M483.62,36.96c0,1.93-0.44,3.46-1.31,4.61s-2.05,1.72-3.52,1.72c-1.37,0-2.46-0.45-3.28-1.35v5.9h-2.8V30.6
			h2.58l0.12,1.27c0.82-1,1.94-1.5,3.35-1.5c1.52,0,2.71,0.57,3.57,1.7c0.86,1.13,1.29,2.7,1.29,4.71V36.96z M480.84,36.71
			c0-1.24-0.25-2.23-0.74-2.96c-0.49-0.73-1.2-1.09-2.12-1.09c-1.14,0-1.96,0.47-2.46,1.42v5.52c0.51,0.97,1.33,1.45,2.49,1.45
			c0.89,0,1.59-0.36,2.09-1.08C480.59,39.26,480.84,38.17,480.84,36.71z"/>
		<path class="st4" d="M494.02,43.06c-0.12-0.24-0.23-0.63-0.32-1.16c-0.89,0.93-1.98,1.39-3.27,1.39c-1.25,0-2.27-0.36-3.06-1.07
			c-0.79-0.71-1.19-1.6-1.19-2.65c0-1.33,0.49-2.35,1.48-3.06s2.4-1.06,4.23-1.06h1.71v-0.82c0-0.64-0.18-1.16-0.54-1.55
			c-0.36-0.39-0.91-0.58-1.65-0.58c-0.64,0-1.16,0.16-1.56,0.48s-0.61,0.72-0.61,1.21h-2.8c0-0.68,0.23-1.32,0.68-1.92
			c0.45-0.59,1.07-1.06,1.85-1.4s1.65-0.51,2.61-0.51c1.46,0,2.62,0.37,3.49,1.1c0.87,0.73,1.31,1.76,1.33,3.09v5.62
			c0,1.12,0.16,2.01,0.47,2.68v0.2H494.02z M490.95,41.04c0.55,0,1.07-0.13,1.56-0.4c0.49-0.27,0.85-0.63,1.1-1.08v-2.35h-1.51
			c-1.04,0-1.81,0.18-2.34,0.54c-0.52,0.36-0.78,0.87-0.78,1.53c0,0.54,0.18,0.96,0.54,1.28S490.35,41.04,490.95,41.04z"/>
		<path class="st4" d="M502.51,30.6l0.08,1.44c0.92-1.11,2.13-1.67,3.62-1.67c2.59,0,3.91,1.48,3.96,4.45v8.23h-2.8v-8.07
			c0-0.79-0.17-1.38-0.51-1.75c-0.34-0.38-0.9-0.57-1.67-0.57c-1.13,0-1.97,0.51-2.52,1.53v8.86h-2.8V30.6H502.51z"/>
	</g>
	<g>
		<path class="st5" d="M331.12,37.6c-0.17,1.79-0.83,3.18-1.98,4.18c-1.15,1-2.68,1.5-4.59,1.5c-1.33,0-2.51-0.32-3.53-0.95
			c-1.02-0.63-1.8-1.53-2.35-2.7c-0.55-1.17-0.84-2.52-0.86-4.06v-1.56c0-1.58,0.28-2.97,0.84-4.18s1.36-2.13,2.41-2.78
			c1.05-0.65,2.26-0.98,3.63-0.98c1.85,0,3.34,0.5,4.46,1.5c1.13,1,1.78,2.42,1.97,4.25h-2.9c-0.14-1.2-0.49-2.07-1.05-2.61
			c-0.56-0.53-1.39-0.8-2.48-0.8c-1.27,0-2.24,0.46-2.92,1.39c-0.68,0.93-1.03,2.28-1.04,4.07v1.49c0,1.81,0.32,3.19,0.97,4.15
			s1.6,1.43,2.85,1.43c1.14,0,2-0.26,2.58-0.77c0.58-0.51,0.94-1.37,1.09-2.57H331.12z"/>
		<path class="st5" d="M336.79,31.96c0.91-1.06,2.07-1.59,3.46-1.59c2.65,0,4,1.52,4.04,4.55v8.14h-2.8v-8.03
			c0-0.86-0.19-1.47-0.56-1.82c-0.37-0.36-0.92-0.54-1.64-0.54c-1.12,0-1.96,0.5-2.51,1.5v8.89h-2.8V25.38h2.8V31.96z"/>
		<path class="st5" d="M347.71,27.37c0-0.43,0.14-0.79,0.41-1.07c0.27-0.28,0.66-0.43,1.17-0.43c0.51,0,0.9,0.14,1.17,0.43
			s0.41,0.64,0.41,1.07c0,0.42-0.14,0.77-0.41,1.05s-0.67,0.42-1.17,0.42c-0.51,0-0.9-0.14-1.17-0.42
			C347.85,28.14,347.71,27.79,347.71,27.37z M350.68,43.06h-2.8V30.6h2.8V43.06z"/>
		<path class="st5" d="M356.91,30.6l0.08,1.44c0.92-1.11,2.13-1.67,3.62-1.67c2.59,0,3.91,1.48,3.96,4.45v8.23h-2.8v-8.07
			c0-0.79-0.17-1.38-0.51-1.75c-0.34-0.38-0.9-0.57-1.67-0.57c-1.13,0-1.97,0.51-2.52,1.53v8.86h-2.8V30.6H356.91z"/>
		<path class="st5" d="M375.45,43.06c-0.12-0.24-0.23-0.63-0.32-1.16c-0.89,0.93-1.98,1.39-3.27,1.39c-1.25,0-2.27-0.36-3.06-1.07
			c-0.79-0.71-1.19-1.6-1.19-2.65c0-1.33,0.49-2.35,1.48-3.06s2.4-1.06,4.23-1.06h1.71v-0.82c0-0.64-0.18-1.16-0.54-1.55
			c-0.36-0.39-0.91-0.58-1.65-0.58c-0.64,0-1.16,0.16-1.56,0.48c-0.41,0.32-0.61,0.72-0.61,1.21h-2.8c0-0.68,0.23-1.32,0.68-1.92
			c0.45-0.59,1.07-1.06,1.85-1.4c0.78-0.34,1.65-0.51,2.61-0.51c1.46,0,2.62,0.37,3.49,1.1c0.87,0.73,1.31,1.76,1.33,3.09v5.62
			c0,1.12,0.16,2.01,0.47,2.68v0.2H375.45z M372.38,41.04c0.55,0,1.07-0.13,1.56-0.4c0.49-0.27,0.85-0.63,1.1-1.08v-2.35h-1.51
			c-1.04,0-1.81,0.18-2.34,0.54s-0.78,0.87-0.78,1.53c0,0.54,0.18,0.96,0.54,1.28S371.78,41.04,372.38,41.04z"/>
	</g>
	<g>
		<path class="st1" d="M208.83,26.3v11.2c0,1.78-0.57,3.19-1.71,4.23c-1.14,1.04-2.66,1.56-4.55,1.56c-1.92,0-3.44-0.51-4.57-1.54
			c-1.13-1.02-1.69-2.45-1.69-4.26V26.3h2.9v11.21c0,1.12,0.28,1.98,0.85,2.57s1.4,0.89,2.51,0.89c2.24,0,3.36-1.18,3.36-3.54V26.3
			H208.83z"/>
		<path class="st1" d="M221.28,38.74c0-0.74-0.26-1.3-0.78-1.7c-0.52-0.4-1.45-0.8-2.8-1.21c-1.35-0.41-2.42-0.86-3.22-1.36
			c-1.53-0.96-2.29-2.21-2.29-3.75c0-1.35,0.55-2.46,1.65-3.34c1.1-0.87,2.53-1.31,4.29-1.31c1.17,0,2.21,0.21,3.12,0.64
			c0.91,0.43,1.63,1.04,2.15,1.84c0.52,0.79,0.78,1.67,0.78,2.64h-2.9c0-0.87-0.27-1.56-0.82-2.05s-1.33-0.74-2.35-0.74
			c-0.95,0-1.69,0.2-2.22,0.61c-0.53,0.41-0.79,0.97-0.79,1.7c0,0.61,0.28,1.13,0.85,1.54c0.57,0.41,1.5,0.81,2.81,1.2
			c1.3,0.39,2.35,0.83,3.14,1.32c0.79,0.49,1.37,1.06,1.74,1.7c0.37,0.64,0.55,1.39,0.55,2.25c0,1.4-0.54,2.51-1.61,3.33
			c-1.07,0.82-2.52,1.24-4.36,1.24c-1.21,0-2.33-0.22-3.34-0.67s-1.81-1.07-2.37-1.86c-0.56-0.79-0.85-1.71-0.85-2.76h2.91
			c0,0.95,0.31,1.69,0.94,2.21c0.63,0.52,1.53,0.78,2.7,0.78c1.01,0,1.77-0.21,2.28-0.62C221.03,39.96,221.28,39.42,221.28,38.74z"
			/>
	</g>
	<g>
		<path class="st6" d="M63.01,35.58h-6.88v5.16h8.04v2.32H53.21V26.3h10.87v2.35h-7.96v4.63h6.88V35.58z"/>
		<path class="st6" d="M74.21,41.84c-0.82,0.97-1.99,1.45-3.5,1.45c-1.35,0-2.37-0.4-3.07-1.19s-1.04-1.93-1.04-3.43V30.6h2.8v8.03
			c0,1.58,0.66,2.37,1.97,2.37c1.36,0,2.27-0.49,2.75-1.46V30.6h2.8v12.45h-2.64L74.21,41.84z"/>
		<path class="st6" d="M86.86,33.16c-0.37-0.06-0.75-0.09-1.14-0.09c-1.28,0-2.14,0.49-2.59,1.47v8.52h-2.8V30.6h2.67L83.08,32
			c0.68-1.08,1.61-1.62,2.81-1.62c0.4,0,0.73,0.05,0.99,0.16L86.86,33.16z"/>
		<path class="st6" d="M88.28,36.71c0-1.22,0.24-2.32,0.72-3.3c0.48-0.98,1.16-1.73,2.04-2.26s1.88-0.79,3.01-0.79
			c1.68,0,3.04,0.54,4.09,1.62s1.61,2.52,1.7,4.3l0.01,0.66c0,1.23-0.24,2.32-0.71,3.29c-0.47,0.97-1.15,1.71-2.03,2.24
			c-0.88,0.53-1.89,0.79-3.04,0.79c-1.76,0-3.16-0.58-4.22-1.75s-1.58-2.73-1.58-4.68V36.71z M91.08,36.96
			c0,1.28,0.26,2.28,0.79,3.01s1.27,1.09,2.21,1.09c0.94,0,1.68-0.37,2.2-1.1c0.53-0.74,0.79-1.81,0.79-3.23
			c0-1.26-0.27-2.26-0.81-2.99c-0.54-0.74-1.28-1.1-2.2-1.1c-0.91,0-1.64,0.36-2.17,1.09S91.08,35.51,91.08,36.96z"/>
		<path class="st6" d="M113.72,36.96c0,1.93-0.44,3.46-1.31,4.61s-2.05,1.72-3.52,1.72c-1.37,0-2.46-0.45-3.28-1.35v5.9h-2.8V30.6
			h2.58l0.12,1.27c0.82-1,1.94-1.5,3.35-1.5c1.52,0,2.71,0.57,3.57,1.7c0.86,1.13,1.29,2.7,1.29,4.71V36.96z M110.93,36.71
			c0-1.24-0.25-2.23-0.74-2.96c-0.49-0.73-1.2-1.09-2.12-1.09c-1.14,0-1.96,0.47-2.46,1.42v5.52c0.51,0.97,1.33,1.45,2.49,1.45
			c0.89,0,1.59-0.36,2.09-1.08S110.93,38.17,110.93,36.71z"/>
		<path class="st6" d="M122.15,43.29c-1.77,0-3.21-0.56-4.31-1.67c-1.1-1.12-1.65-2.6-1.65-4.46v-0.35c0-1.24,0.24-2.35,0.72-3.33
			c0.48-0.98,1.15-1.74,2.02-2.28c0.87-0.54,1.83-0.82,2.9-0.82c1.7,0,3.01,0.54,3.93,1.62c0.92,1.08,1.39,2.61,1.39,4.59v1.13
			h-8.14c0.08,1.03,0.43,1.84,1.03,2.44s1.36,0.9,2.27,0.9c1.28,0,2.32-0.52,3.13-1.55l1.51,1.44c-0.5,0.74-1.16,1.32-2,1.73
			C124.12,43.08,123.19,43.29,122.15,43.29z M121.82,32.62c-0.77,0-1.39,0.27-1.86,0.81c-0.47,0.54-0.77,1.28-0.9,2.24h5.33v-0.21
			c-0.06-0.94-0.31-1.64-0.75-2.12C123.2,32.86,122.59,32.62,121.82,32.62z"/>
	</g>
	<g>
		<rect x="755.15" y="25.57" class="st2" width="17.67" height="17.67"/>
	</g>
	<g>
		<rect x="552.88" y="25.57" class="st3" width="17.67" height="17.67"/>
	</g>
	<g>
		<rect x="419.34" y="25.57" class="st4" width="17.67" height="17.67"/>
	</g>
	<g>
		<rect x="289.73" y="25.57" class="st5" width="17.67" height="17.67"/>
	</g>
	<g>
		<rect x="166" y="25.57" class="st1" width="17.67" height="17.67"/>
	</g>
	<g>
		<rect x="20.68" y="25.57" class="st6" width="17.67" height="17.67"/>
	</g>
	<g>
		<g>
			<rect x="1087.04" y="140.57" class="st2" width="29.46" height="475.16"/>
		</g>
		<g>
			<rect x="1043.84" y="160.19" class="st2" width="29.46" height="455.54"/>
		</g>
		<g>
			<rect x="1000.63" y="183.27" class="st2" width="29.46" height="432.46"/>
		</g>
		<g>
			<rect x="959.39" y="206.75" class="st2" width="29.46" height="408.97"/>
		</g>
		<g>
			<rect x="918.15" y="226.21" class="st2" width="29.46" height="389.52"/>
		</g>
		<g>
			<rect x="876.91" y="251.78" class="st2" width="29.46" height="363.95"/>
		</g>
		<g>
			<rect x="833.71" y="269.89" class="st2" width="29.46" height="345.83"/>
		</g>
		<g>
			<rect x="790.5" y="293.85" class="st2" width="29.46" height="321.88"/>
		</g>
		<g>
			<rect x="749.26" y="317.03" class="st2" width="29.46" height="298.7"/>
		</g>
		<g>
			<rect x="706.06" y="345.08" class="st2" width="29.46" height="270.65"/>
		</g>
		<g>
			<rect x="664.82" y="379.37" class="st2" width="29.46" height="236.36"/>
		</g>
		<g>
			<rect x="623.58" y="424.62" class="st2" width="29.46" height="191.11"/>
		</g>
		<g>
			<rect x="580.37" y="459.79" class="st2" width="29.46" height="155.93"/>
		</g>
		<g>
			<rect x="537.17" y="490.83" class="st2" width="29.46" height="124.9"/>
		</g>
		<g>
			<rect x="495.93" y="517.12" class="st2" width="29.46" height="98.61"/>
		</g>
		<g>
			<rect x="454.69" y="529.94" class="st2" width="29.46" height="85.78"/>
		</g>
		<g>
			<rect x="411.48" y="551.48" class="st2" width="29.46" height="64.25"/>
		</g>
		<g>
			<rect x="370.24" y="567.09" class="st2" width="29.46" height="48.64"/>
		</g>
		<g>
			<rect x="327.04" y="578.63" class="st2" width="29.46" height="37.1"/>
		</g>
		<g>
			<rect x="285.8" y="584.79" class="st2" width="29.46" height="30.94"/>
		</g>
		<g>
			<rect x="244.56" y="594.03" class="st2" width="29.46" height="21.7"/>
		</g>
		<g>
			<rect x="201.35" y="599.95" class="st2" width="29.46" height="15.78"/>
		</g>
		<g>
			<rect x="158.15" y="604.74" class="st2" width="29.46" height="10.98"/>
		</g>
		<g>
			<rect x="115.64" y="609.76" class="st2" width="29.46" height="5.97"/>
		</g>
		<g>
			<rect x="76.36" y="612.74" class="st2" width="29.46" height="2.99"/>
		</g>
		<g>
			<rect x="33.97" y="612.74" class="st2" width="29.46" height="2.99"/>
		</g>
	</g>
	<g>
		<g>
			<rect x="1087.04" y="280.83" class="st3" width="29.46" height="334.9"/>
		</g>
		<g>
			<rect x="1043.84" y="288.32" class="st3" width="29.46" height="327.41"/>
		</g>
		<g>
			<rect x="1000.63" y="295.01" class="st3" width="29.46" height="320.72"/>
		</g>
		<g>
			<rect x="959.39" y="299.33" class="st3" width="29.46" height="316.4"/>
		</g>
		<g>
			<rect x="918.15" y="309.38" class="st3" width="29.46" height="306.35"/>
		</g>
		<g>
			<rect x="876.91" y="320.9" class="st3" width="29.46" height="294.83"/>
		</g>
		<g>
			<rect x="833.71" y="328.69" class="st3" width="29.46" height="287.04"/>
		</g>
		<g>
			<rect x="790.5" y="341.03" class="st3" width="29.46" height="274.7"/>
		</g>
		<g>
			<rect x="749.26" y="356.51" class="st3" width="29.46" height="259.22"/>
		</g>
		<g>
			<rect x="706.06" y="375.1" class="st3" width="29.46" height="240.63"/>
		</g>
		<g>
			<rect x="664.82" y="403.58" class="st3" width="29.46" height="212.15"/>
		</g>
		<g>
			<rect x="623.58" y="440.73" class="st3" width="29.46" height="175"/>
		</g>
		<g>
			<rect x="580.37" y="472.74" class="st3" width="29.46" height="142.98"/>
		</g>
		<g>
			<rect x="537.17" y="499.67" class="st3" width="29.46" height="116.06"/>
		</g>
		<g>
			<rect x="495.93" y="524.1" class="st3" width="29.46" height="91.63"/>
		</g>
		<g>
			<rect x="454.69" y="536.01" class="st3" width="29.46" height="79.71"/>
		</g>
		<g>
			<rect x="411.48" y="556.03" class="st3" width="29.46" height="59.7"/>
		</g>
		<g>
			<rect x="370.24" y="570.53" class="st3" width="29.46" height="45.2"/>
		</g>
		<g>
			<rect x="327.04" y="581.25" class="st3" width="29.46" height="34.48"/>
		</g>
		<g>
			<rect x="285.8" y="586.98" class="st3" width="29.46" height="28.75"/>
		</g>
		<g>
			<rect x="244.56" y="595.56" class="st3" width="29.46" height="20.17"/>
		</g>
		<g>
			<rect x="201.35" y="601.07" class="st3" width="29.46" height="14.66"/>
		</g>
		<g>
			<rect x="158.15" y="605.52" class="st3" width="29.46" height="10.21"/>
		</g>
		<g>
			<rect x="115.64" y="610.18" class="st3" width="29.46" height="5.55"/>
		</g>
		<g>
			<rect x="76.36" y="612.95" class="st3" width="29.46" height="2.78"/>
		</g>
		<g>
			<rect x="33.97" y="612.95" class="st3" width="29.46" height="2.78"/>
		</g>
	</g>
	<g>
		<g>
			<rect x="1087.04" y="288.34" class="st4" width="29.46" height="327.39"/>
		</g>
		<g>
			<rect x="1043.84" y="295.66" class="st4" width="29.46" height="320.07"/>
		</g>
		<g>
			<rect x="1000.63" y="302.2" class="st4" width="29.46" height="313.53"/>
		</g>
		<g>
			<rect x="959.39" y="306.42" class="st4" width="29.46" height="309.3"/>
		</g>
		<g>
			<rect x="918.15" y="316.25" class="st4" width="29.46" height="299.48"/>
		</g>
		<g>
			<rect x="876.91" y="327.51" class="st4" width="29.46" height="288.22"/>
		</g>
		<g>
			<rect x="833.71" y="335.12" class="st4" width="29.46" height="280.61"/>
		</g>
		<g>
			<rect x="790.5" y="347.19" class="st4" width="29.46" height="268.54"/>
		</g>
		<g>
			<rect x="749.26" y="362.32" class="st4" width="29.46" height="253.41"/>
		</g>
		<g>
			<rect x="706.06" y="380.49" class="st4" width="29.46" height="235.24"/>
		</g>
		<g>
			<rect x="664.82" y="408.33" class="st4" width="29.46" height="207.4"/>
		</g>
		<g>
			<rect x="623.58" y="444.65" class="st4" width="29.46" height="171.08"/>
		</g>
		<g>
			<rect x="580.37" y="475.95" class="st4" width="29.46" height="139.78"/>
		</g>
		<g>
			<rect x="537.17" y="502.27" class="st4" width="29.46" height="113.46"/>
		</g>
		<g>
			<rect x="495.93" y="526.15" class="st4" width="29.46" height="89.58"/>
		</g>
		<g>
			<rect x="454.69" y="537.8" class="st4" width="29.46" height="77.93"/>
		</g>
		<g>
			<rect x="411.48" y="557.37" class="st4" width="29.46" height="58.36"/>
		</g>
		<g>
			<rect x="370.24" y="571.55" class="st4" width="29.46" height="44.18"/>
		</g>
		<g>
			<rect x="327.04" y="582.02" class="st4" width="29.46" height="33.7"/>
		</g>
		<g>
			<rect x="285.8" y="587.62" class="st4" width="29.46" height="28.1"/>
		</g>
		<g>
			<rect x="244.56" y="596.01" class="st4" width="29.46" height="19.72"/>
		</g>
		<g>
			<rect x="201.35" y="601.39" class="st4" width="29.46" height="14.33"/>
		</g>
		<g>
			<rect x="158.15" y="605.75" class="st4" width="29.46" height="9.98"/>
		</g>
		<g>
			<rect x="115.64" y="610.3" class="st4" width="29.46" height="5.43"/>
		</g>
		<g>
			<rect x="76.36" y="613.02" class="st4" width="29.46" height="2.71"/>
		</g>
		<g>
			<rect x="33.97" y="613.02" class="st4" width="29.46" height="2.71"/>
		</g>
	</g>
	<g>
		<g>
			<rect x="1087.04" y="307.75" class="st7" width="29.46" height="307.98"/>
		</g>
		<g>
			<rect x="1043.84" y="314.63" class="st7" width="29.46" height="301.09"/>
		</g>
		<g>
			<rect x="1000.63" y="320.78" class="st7" width="29.46" height="294.95"/>
		</g>
		<g>
			<rect x="959.39" y="324.76" class="st7" width="29.46" height="290.97"/>
		</g>
		<g>
			<rect x="918.15" y="330.35" class="st7" width="29.46" height="285.38"/>
		</g>
		<g>
			<rect x="876.91" y="338.39" class="st7" width="29.46" height="277.34"/>
		</g>
		<g>
			<rect x="833.71" y="345.18" class="st7" width="29.46" height="270.55"/>
		</g>
		<g>
			<rect x="790.5" y="358.79" class="st7" width="29.46" height="256.94"/>
		</g>
		<g>
			<rect x="749.26" y="369" class="st7" width="29.46" height="246.73"/>
		</g>
		<g>
			<rect x="706.06" y="387.98" class="st7" width="29.46" height="227.74"/>
		</g>
		<g>
			<rect x="664.82" y="414.53" class="st7" width="29.46" height="201.2"/>
		</g>
		<g>
			<rect x="623.58" y="450.52" class="st7" width="29.46" height="165.2"/>
		</g>
		<g>
			<rect x="580.37" y="480.75" class="st7" width="29.46" height="134.97"/>
		</g>
		<g>
			<rect x="537.17" y="509" class="st7" width="29.46" height="106.73"/>
		</g>
		<g>
			<rect x="495.93" y="531.46" class="st7" width="29.46" height="84.27"/>
		</g>
		<g>
			<rect x="454.69" y="542.42" class="st7" width="29.46" height="73.31"/>
		</g>
		<g>
			<rect x="411.48" y="560.83" class="st7" width="29.46" height="54.9"/>
		</g>
		<g>
			<rect x="370.24" y="574.17" class="st7" width="29.46" height="41.56"/>
		</g>
		<g>
			<rect x="327.04" y="584.02" class="st7" width="29.46" height="31.71"/>
		</g>
		<g>
			<rect x="285.8" y="589.29" class="st7" width="29.46" height="26.44"/>
		</g>
		<g>
			<rect x="244.56" y="597.18" class="st7" width="29.46" height="18.55"/>
		</g>
		<g>
			<rect x="201.35" y="602.24" class="st7" width="29.46" height="13.48"/>
		</g>
		<g>
			<rect x="158.15" y="606.34" class="st7" width="29.46" height="9.39"/>
		</g>
		<g>
			<rect x="115.64" y="610.62" class="st7" width="29.46" height="5.1"/>
		</g>
		<g>
			<rect x="76.36" y="613.18" class="st7" width="29.46" height="2.55"/>
		</g>
		<g>
			<rect x="33.97" y="613.18" class="st7" width="29.46" height="2.55"/>
		</g>
	</g>
	<g>
		<g>
			<rect x="1087.04" y="438" class="st1" width="29.46" height="177.73"/>
		</g>
		<g>
			<rect x="1043.84" y="439.97" class="st1" width="29.46" height="175.76"/>
		</g>
		<g>
			<rect x="1000.63" y="443.89" class="st1" width="29.46" height="171.84"/>
		</g>
		<g>
			<rect x="959.39" y="447.82" class="st1" width="29.46" height="167.91"/>
		</g>
		<g>
			<rect x="918.15" y="451.75" class="st1" width="29.46" height="163.98"/>
		</g>
		<g>
			<rect x="876.91" y="453.71" class="st1" width="29.46" height="162.02"/>
		</g>
		<g>
			<rect x="833.71" y="459.6" class="st1" width="29.46" height="156.12"/>
		</g>
		<g>
			<rect x="790.5" y="467.46" class="st1" width="29.46" height="148.27"/>
		</g>
		<g>
			<rect x="749.26" y="473.35" class="st1" width="29.46" height="142.38"/>
		</g>
		<g>
			<rect x="706.06" y="490.48" class="st1" width="29.46" height="125.25"/>
		</g>
		<g>
			<rect x="664.82" y="506.74" class="st1" width="29.46" height="108.99"/>
		</g>
		<g>
			<rect x="623.58" y="526.27" class="st1" width="29.46" height="89.46"/>
		</g>
		<g>
			<rect x="580.37" y="544.16" class="st1" width="29.46" height="71.57"/>
		</g>
		<g>
			<rect x="537.17" y="561.72" class="st1" width="29.46" height="54.01"/>
		</g>
		<g>
			<rect x="495.93" y="572.79" class="st1" width="29.46" height="42.94"/>
		</g>
		<g>
			<rect x="454.69" y="583.52" class="st1" width="29.46" height="32.21"/>
		</g>
		<g>
			<rect x="411.48" y="590.68" class="st1" width="29.46" height="25.05"/>
		</g>
		<g>
			<rect x="370.24" y="597.07" class="st1" width="29.46" height="18.66"/>
		</g>
		<g>
			<rect x="327.04" y="602.96" class="st1" width="29.46" height="12.76"/>
		</g>
		<g>
			<rect x="285.8" y="604.93" class="st1" width="29.46" height="10.8"/>
		</g>
		<g>
			<rect x="244.56" y="606.89" class="st1" width="29.46" height="8.84"/>
		</g>
		<g>
			<rect x="201.35" y="610.82" class="st1" width="29.46" height="4.91"/>
		</g>
		<g>
			<rect x="158.15" y="612.78" class="st1" width="29.46" height="2.95"/>
		</g>
	</g>
	<g>
		<g>
			<rect x="1087.04" y="527.36" class="st6" width="29.46" height="88.37"/>
		</g>
		<g>
			<rect x="1043.84" y="531.28" class="st6" width="29.46" height="84.44"/>
		</g>
		<g>
			<rect x="1000.63" y="531.28" class="st6" width="29.46" height="84.44"/>
		</g>
		<g>
			<rect x="959.39" y="535.21" class="st6" width="29.46" height="80.52"/>
		</g>
		<g>
			<rect x="918.15" y="535.21" class="st6" width="29.46" height="80.52"/>
		</g>
		<g>
			<rect x="876.91" y="535.21" class="st6" width="29.46" height="80.52"/>
		</g>
		<g>
			<rect x="833.71" y="537.18" class="st6" width="29.46" height="78.55"/>
		</g>
		<g>
			<rect x="790.5" y="539.14" class="st6" width="29.46" height="76.59"/>
		</g>
		<g>
			<rect x="749.26" y="541.1" class="st6" width="29.46" height="74.63"/>
		</g>
		<g>
			<rect x="706.06" y="546.99" class="st6" width="29.46" height="68.73"/>
		</g>
		<g>
			<rect x="664.82" y="552.89" class="st6" width="29.46" height="62.84"/>
		</g>
		<g>
			<rect x="623.58" y="566.63" class="st6" width="29.46" height="49.1"/>
		</g>
		<g>
			<rect x="580.37" y="576.45" class="st6" width="29.46" height="39.28"/>
		</g>
		<g>
			<rect x="537.17" y="584.31" class="st6" width="29.46" height="31.42"/>
		</g>
		<g>
			<rect x="495.93" y="592.16" class="st6" width="29.46" height="23.57"/>
		</g>
		<g>
			<rect x="454.69" y="598.05" class="st6" width="29.46" height="17.67"/>
		</g>
		<g>
			<rect x="411.48" y="601.98" class="st6" width="29.46" height="13.75"/>
		</g>
		<g>
			<rect x="370.24" y="605.91" class="st6" width="29.46" height="9.82"/>
		</g>
		<g>
			<rect x="327.04" y="609.84" class="st6" width="29.46" height="5.89"/>
		</g>
		<g>
			<rect x="285.8" y="609.84" class="st6" width="29.46" height="5.89"/>
		</g>
		<g>
			<rect x="244.56" y="611.8" class="st6" width="29.46" height="3.93"/>
		</g>
	</g>
	<g>
		<rect x="17.73" y="614.72" class="st1" width="1150.81" height="1.96"/>
	</g>
</g>
</svg>
