<?xml version="1.0" encoding="utf-8"?>
<!-- Generator: Adobe Illustrator 24.1.2, SVG Export Plug-In . SVG Version: 6.00 Build 0)  -->
<svg version="1.0" id="Layer_1" xmlns="http://www.w3.org/2000/svg" xmlns:xlink="http://www.w3.org/1999/xlink" x="0px" y="0px"
	 viewBox="0 0 500 231.68" style="enable-background:new 0 0 500 231.68;" xml:space="preserve">
<style type="text/css">
	.st0{fill:#2A9FD9;}
	.st1{enable-background:new    ;}
	.st2{fill:none;stroke:#2367B1;stroke-width:0.5;stroke-miterlimit:10;}
	.st3{fill:#2367B1;}
</style>
<rect x="57.49" y="99.72" class="st0" width="339.97" height="31"/>
<rect x="57.49" y="148.34" class="st0" width="111.12" height="31"/>
<g class="st1">
	<path class="st0" d="M186.02,171.64h-2.75v-8.77l-2.71,0.79v-2.09l5.21-1.8h0.25V171.64z"/>
	<path class="st0" d="M197.84,161.25l-4.43,10.4h-2.9l4.44-9.75h-5.66v-2.12h8.55V161.25z"/>
	<path class="st0" d="M207.26,162.95c0,0.58-0.14,1.08-0.43,1.52c-0.29,0.44-0.68,0.79-1.18,1.06c0.56,0.28,1.01,0.66,1.34,1.14
		c0.33,0.48,0.5,1.05,0.5,1.71c0,1.06-0.37,1.9-1.1,2.51c-0.73,0.61-1.74,0.92-3.02,0.92c-1.29,0-2.3-0.31-3.05-0.92
		c-0.74-0.62-1.12-1.45-1.12-2.51c0-0.64,0.16-1.2,0.49-1.69c0.33-0.49,0.79-0.87,1.39-1.16c-0.51-0.27-0.9-0.62-1.19-1.06
		c-0.29-0.44-0.43-0.95-0.43-1.52c0-1.03,0.35-1.85,1.05-2.44c0.7-0.6,1.65-0.9,2.84-0.9c1.2,0,2.15,0.3,2.85,0.9
		C206.91,161.1,207.26,161.92,207.26,162.95z M204.74,168.16c0-0.49-0.13-0.86-0.38-1.13c-0.25-0.26-0.59-0.4-1-0.4
		c-0.41,0-0.75,0.13-1,0.4s-0.38,0.64-0.38,1.13c0,0.47,0.13,0.85,0.39,1.12c0.26,0.27,0.6,0.41,1.01,0.41
		c0.41,0,0.74-0.14,0.99-0.41C204.62,169.01,204.74,168.63,204.74,168.16z M203.36,161.73c-0.37,0-0.65,0.12-0.84,0.36
		c-0.19,0.24-0.29,0.58-0.29,1.01c0,0.42,0.1,0.77,0.29,1.03c0.2,0.26,0.48,0.39,0.86,0.39c0.38,0,0.66-0.13,0.84-0.39
		s0.28-0.6,0.28-1.03s-0.1-0.76-0.29-1S203.74,161.73,203.36,161.73z"/>
	<path class="st0" d="M217.01,159.78l2.65,8.25l2.64-8.25h3.77v11.87h-2.87v-2.77l0.28-5.67l-2.87,8.44h-1.89l-2.88-8.45l0.28,5.68
		v2.77h-2.86v-11.87H217.01z"/>
	<path class="st0" d="M227.73,160.55c0-0.39,0.14-0.71,0.42-0.96c0.28-0.25,0.65-0.38,1.1-0.38c0.45,0,0.82,0.12,1.1,0.38
		c0.28,0.25,0.42,0.57,0.42,0.96c0,0.39-0.14,0.71-0.42,0.96c-0.28,0.25-0.65,0.38-1.1,0.38c-0.45,0-0.82-0.12-1.1-0.38
		C227.87,161.26,227.73,160.94,227.73,160.55z M230.65,171.64h-2.75v-8.82h2.75V171.64z"/>
	<path class="st0" d="M235.24,171.64h-2.75v-12.52h2.75V171.64z"/>
	<path class="st0" d="M239.83,171.64h-2.75v-12.52h2.75V171.64z"/>
	<path class="st0" d="M241.5,160.55c0-0.39,0.14-0.71,0.42-0.96c0.28-0.25,0.65-0.38,1.1-0.38c0.45,0,0.82,0.12,1.1,0.38
		c0.28,0.25,0.42,0.57,0.42,0.96c0,0.39-0.14,0.71-0.42,0.96c-0.28,0.25-0.65,0.38-1.1,0.38c-0.45,0-0.82-0.12-1.1-0.38
		C241.64,161.26,241.5,160.94,241.5,160.55z M244.41,171.64h-2.75v-8.82h2.75V171.64z"/>
	<path class="st0" d="M245.76,167.15c0-0.88,0.17-1.66,0.51-2.35c0.34-0.69,0.83-1.22,1.48-1.59c0.64-0.37,1.39-0.55,2.26-0.55
		c1.32,0,2.36,0.41,3.12,1.23c0.76,0.82,1.14,1.93,1.14,3.34v0.1c0,1.38-0.38,2.47-1.15,3.27c-0.76,0.81-1.8,1.21-3.1,1.21
		c-1.26,0-2.26-0.38-3.02-1.13c-0.76-0.75-1.17-1.77-1.23-3.06L245.76,167.15z M248.5,167.32c0,0.82,0.13,1.41,0.38,1.79
		c0.26,0.38,0.63,0.57,1.13,0.57c0.98,0,1.48-0.75,1.5-2.26v-0.28c0-1.58-0.51-2.37-1.52-2.37c-0.92,0-1.41,0.68-1.49,2.04
		L248.5,167.32z"/>
	<path class="st0" d="M258,162.83l0.09,1.04c0.61-0.8,1.45-1.2,2.52-1.2c0.92,0,1.6,0.27,2.06,0.82c0.45,0.55,0.69,1.37,0.71,2.48
		v5.68h-2.75v-5.57c0-0.45-0.09-0.77-0.27-0.98c-0.18-0.21-0.51-0.31-0.98-0.31c-0.54,0-0.94,0.21-1.2,0.64v6.23h-2.75v-8.82H258z"
		/>
</g>
<g class="st1">
	<path class="st0" d="M418.35,120.26h-8.28v-1.79l3.81-4.01c0.94-1.07,1.41-1.92,1.41-2.55c0-0.51-0.11-0.9-0.33-1.17
		c-0.22-0.27-0.55-0.4-0.97-0.4c-0.42,0-0.76,0.18-1.02,0.53s-0.39,0.8-0.39,1.33h-2.75c0-0.73,0.18-1.4,0.55-2.02
		c0.36-0.62,0.87-1.1,1.52-1.45c0.65-0.35,1.37-0.52,2.17-0.52c1.28,0,2.27,0.3,2.96,0.89c0.69,0.59,1.04,1.44,1.04,2.55
		c0,0.47-0.09,0.92-0.26,1.37c-0.17,0.44-0.44,0.91-0.81,1.39c-0.37,0.49-0.96,1.14-1.77,1.95l-1.53,1.77h4.67V120.26z"/>
	<path class="st0" d="M425.82,120.26h-2.75v-8.77l-2.71,0.79v-2.09l5.21-1.8h0.25V120.26z"/>
	<path class="st0" d="M435.49,120.26h-2.75v-8.77l-2.71,0.79v-2.09l5.21-1.8h0.25V120.26z"/>
	<path class="st0" d="M447.15,108.4l2.65,8.26l2.64-8.26h3.76v11.87h-2.87v-2.77l0.28-5.67l-2.87,8.44h-1.89l-2.88-8.45l0.28,5.68
		v2.77h-2.86V108.4H447.15z"/>
	<path class="st0" d="M457.88,109.17c0-0.39,0.14-0.71,0.42-0.96c0.28-0.25,0.65-0.38,1.1-0.38s0.82,0.12,1.1,0.38
		c0.28,0.25,0.42,0.57,0.42,0.96c0,0.39-0.14,0.71-0.42,0.96c-0.28,0.25-0.65,0.38-1.1,0.38s-0.82-0.12-1.1-0.38
		C458.02,109.88,457.88,109.56,457.88,109.17z M460.79,120.26h-2.75v-8.82h2.75V120.26z"/>
	<path class="st0" d="M465.38,120.26h-2.75v-12.52h2.75V120.26z"/>
	<path class="st0" d="M469.97,120.26h-2.75v-12.52h2.75V120.26z"/>
	<path class="st0" d="M471.64,109.17c0-0.39,0.14-0.71,0.42-0.96c0.28-0.25,0.65-0.38,1.1-0.38s0.82,0.12,1.1,0.38
		c0.28,0.25,0.42,0.57,0.42,0.96c0,0.39-0.14,0.71-0.42,0.96c-0.28,0.25-0.65,0.38-1.1,0.38s-0.82-0.12-1.1-0.38
		C471.78,109.88,471.64,109.56,471.64,109.17z M474.56,120.26h-2.75v-8.82h2.75V120.26z"/>
	<path class="st0" d="M475.9,115.77c0-0.88,0.17-1.66,0.51-2.35c0.34-0.69,0.83-1.22,1.47-1.58s1.39-0.55,2.26-0.55
		c1.32,0,2.36,0.41,3.12,1.23c0.76,0.82,1.14,1.93,1.14,3.34v0.1c0,1.37-0.38,2.46-1.15,3.27c-0.76,0.81-1.8,1.21-3.1,1.21
		c-1.25,0-2.26-0.38-3.02-1.13s-1.17-1.77-1.23-3.06L475.9,115.77z M478.65,115.94c0,0.81,0.13,1.41,0.38,1.79
		c0.26,0.38,0.63,0.57,1.13,0.57c0.98,0,1.48-0.75,1.5-2.26v-0.28c0-1.58-0.51-2.37-1.52-2.37c-0.92,0-1.42,0.68-1.49,2.05
		L478.65,115.94z"/>
	<path class="st0" d="M488.14,111.45l0.09,1.03c0.61-0.8,1.45-1.2,2.52-1.2c0.92,0,1.6,0.27,2.06,0.82
		c0.45,0.55,0.69,1.37,0.71,2.48v5.68h-2.75v-5.57c0-0.45-0.09-0.77-0.27-0.98c-0.18-0.21-0.51-0.31-0.98-0.31
		c-0.54,0-0.94,0.21-1.2,0.64v6.23h-2.75v-8.82H488.14z"/>
</g>
<line class="st2" x1="58.35" y1="61.1" x2="58.35" y2="219"/>
<g>
	<g class="st1">
		<path class="st3" d="M14.58,120.2h-7.2v-1l3.8-4.22c0.56-0.64,0.95-1.16,1.17-1.56c0.21-0.4,0.32-0.81,0.32-1.24
			c0-0.57-0.17-1.04-0.52-1.41c-0.35-0.37-0.81-0.55-1.39-0.55c-0.69,0-1.23,0.2-1.62,0.59c-0.38,0.4-0.58,0.94-0.58,1.65h-1.4
			c0-1.01,0.33-1.83,0.98-2.45c0.65-0.62,1.52-0.94,2.61-0.94c1.02,0,1.83,0.27,2.42,0.8s0.89,1.25,0.89,2.14
			c0,1.08-0.69,2.37-2.07,3.86l-2.94,3.19h5.51V120.2z"/>
		<path class="st3" d="M22.94,115.51c0,1.63-0.28,2.85-0.84,3.64c-0.56,0.79-1.43,1.19-2.62,1.19c-1.17,0-2.04-0.39-2.6-1.17
			s-0.85-1.94-0.88-3.48v-1.86c0-1.61,0.28-2.81,0.84-3.6c0.56-0.78,1.43-1.18,2.62-1.18c1.18,0,2.05,0.38,2.61,1.14
			s0.84,1.92,0.86,3.5V115.51z M21.55,113.61c0-1.18-0.17-2.04-0.5-2.58c-0.33-0.54-0.86-0.81-1.58-0.81
			c-0.71,0-1.23,0.27-1.56,0.81c-0.33,0.54-0.5,1.36-0.51,2.48v2.23c0,1.19,0.17,2.06,0.52,2.63c0.34,0.57,0.87,0.85,1.56,0.85
			c0.69,0,1.2-0.27,1.54-0.8c0.33-0.53,0.51-1.37,0.52-2.52V113.61z"/>
		<path class="st3" d="M31.93,120.2h-7.2v-1l3.8-4.22c0.56-0.64,0.95-1.16,1.17-1.56c0.21-0.4,0.32-0.81,0.32-1.24
			c0-0.57-0.17-1.04-0.52-1.41c-0.35-0.37-0.81-0.55-1.39-0.55c-0.69,0-1.23,0.2-1.62,0.59c-0.38,0.4-0.58,0.94-0.58,1.65h-1.4
			c0-1.01,0.33-1.83,0.98-2.45c0.65-0.62,1.52-0.94,2.61-0.94c1.02,0,1.83,0.27,2.42,0.8s0.89,1.25,0.89,2.14
			c0,1.08-0.69,2.37-2.07,3.86l-2.94,3.19h5.51V120.2z"/>
		<path class="st3" d="M40.29,115.51c0,1.63-0.28,2.85-0.84,3.64c-0.56,0.79-1.43,1.19-2.62,1.19c-1.17,0-2.04-0.39-2.6-1.17
			s-0.85-1.94-0.88-3.48v-1.86c0-1.61,0.28-2.81,0.84-3.6c0.56-0.78,1.43-1.18,2.62-1.18c1.18,0,2.05,0.38,2.61,1.14
			s0.84,1.92,0.86,3.5V115.51z M38.89,113.61c0-1.18-0.17-2.04-0.5-2.58c-0.33-0.54-0.86-0.81-1.58-0.81
			c-0.71,0-1.23,0.27-1.56,0.81c-0.33,0.54-0.5,1.36-0.51,2.48v2.23c0,1.19,0.17,2.06,0.52,2.63c0.34,0.57,0.87,0.85,1.56,0.85
			c0.69,0,1.2-0.27,1.54-0.8c0.33-0.53,0.51-1.37,0.52-2.52V113.61z"/>
	</g>
</g>
<g>
	<g class="st1">
		<path class="st3" d="M14.58,169.38h-7.2v-1l3.8-4.22c0.56-0.64,0.95-1.16,1.17-1.56c0.21-0.4,0.32-0.81,0.32-1.24
			c0-0.57-0.17-1.04-0.52-1.41c-0.35-0.37-0.81-0.55-1.39-0.55c-0.69,0-1.23,0.2-1.62,0.59s-0.58,0.94-0.58,1.65h-1.4
			c0-1.01,0.33-1.83,0.98-2.45c0.65-0.62,1.52-0.94,2.61-0.94c1.02,0,1.83,0.27,2.42,0.8s0.89,1.25,0.89,2.14
			c0,1.08-0.69,2.37-2.07,3.86l-2.94,3.19h5.51V169.38z"/>
		<path class="st3" d="M22.94,164.7c0,1.63-0.28,2.85-0.84,3.64c-0.56,0.79-1.43,1.19-2.62,1.19c-1.17,0-2.04-0.39-2.6-1.17
			c-0.56-0.78-0.85-1.94-0.88-3.48v-1.86c0-1.61,0.28-2.81,0.84-3.6c0.56-0.78,1.43-1.18,2.62-1.18c1.18,0,2.05,0.38,2.61,1.14
			s0.84,1.92,0.86,3.5V164.7z M21.55,162.79c0-1.18-0.17-2.04-0.5-2.58c-0.33-0.54-0.86-0.81-1.58-0.81c-0.71,0-1.23,0.27-1.56,0.81
			c-0.33,0.54-0.5,1.37-0.51,2.48v2.23c0,1.19,0.17,2.06,0.52,2.63c0.34,0.57,0.87,0.85,1.56,0.85c0.69,0,1.2-0.27,1.54-0.8
			c0.33-0.53,0.51-1.37,0.52-2.52V162.79z"/>
		<path class="st3" d="M29.32,169.38h-1.4v-9.3l-2.81,1.03v-1.27l4-1.5h0.22V169.38z"/>
		<path class="st3" d="M38.88,158.39v1.18h-0.26c-1.09,0.02-1.95,0.34-2.59,0.96c-0.64,0.62-1.02,1.5-1.12,2.63
			c0.58-0.66,1.37-1,2.37-1c0.96,0,1.72,0.34,2.29,1.01c0.57,0.67,0.86,1.54,0.86,2.61c0,1.13-0.31,2.04-0.92,2.72
			c-0.62,0.68-1.44,1.02-2.48,1.02c-1.05,0-1.9-0.4-2.56-1.21c-0.65-0.81-0.98-1.85-0.98-3.12v-0.54c0-2.02,0.43-3.57,1.29-4.63
			s2.15-1.62,3.85-1.64H38.88z M37.05,163.34c-0.48,0-0.92,0.14-1.32,0.43c-0.4,0.29-0.68,0.65-0.84,1.08v0.51
			c0,0.9,0.2,1.63,0.61,2.19c0.41,0.55,0.92,0.83,1.52,0.83c0.63,0,1.12-0.23,1.48-0.69c0.36-0.46,0.54-1.07,0.54-1.82
			c0-0.75-0.18-1.36-0.55-1.83S37.65,163.34,37.05,163.34z"/>
	</g>
</g>
<g>
	<g class="st1">
		<path class="st3" d="M67.81,27.57h-2.63l-3.89-6.83v6.83h-2.65V16.59h2.65l3.88,6.83v-6.83h2.64V27.57z"/>
		<path class="st3" d="M74.23,26.69c-0.54,0.69-1.26,1.03-2.18,1.03c-0.9,0-1.57-0.26-2.03-0.78s-0.69-1.27-0.69-2.24v-5.29h2.54
			v5.3c0,0.7,0.34,1.05,1.02,1.05c0.58,0,1-0.21,1.24-0.63v-5.72h2.56v8.16H74.3L74.23,26.69z"/>
		<path class="st3" d="M80.48,19.41l0.08,0.96c0.58-0.74,1.35-1.11,2.33-1.11c1.03,0,1.73,0.41,2.09,1.23
			c0.55-0.82,1.35-1.23,2.4-1.23c1.65,0,2.5,1,2.55,3v5.31h-2.55v-5.15c0-0.42-0.07-0.72-0.21-0.91c-0.14-0.19-0.4-0.29-0.77-0.29
			c-0.5,0-0.88,0.22-1.12,0.67L85.29,22v5.57h-2.55v-5.14c0-0.43-0.07-0.74-0.2-0.93s-0.4-0.29-0.78-0.29
			c-0.49,0-0.86,0.22-1.12,0.67v5.68H78.1v-8.16H80.48z"/>
		<path class="st3" d="M98.96,23.56c0,1.34-0.28,2.37-0.83,3.08c-0.55,0.72-1.33,1.08-2.34,1.08c-0.83,0-1.5-0.33-2.01-0.99
			l-0.11,0.84H91.4V15.99h2.54v4.08c0.47-0.54,1.08-0.81,1.83-0.81c1.02,0,1.8,0.36,2.35,1.09c0.55,0.73,0.83,1.75,0.83,3.08V23.56z
			 M96.41,23.4c0-0.78-0.1-1.34-0.31-1.68c-0.21-0.33-0.53-0.5-0.96-0.5c-0.57,0-0.97,0.22-1.19,0.66v3.24
			c0.22,0.43,0.62,0.65,1.21,0.65c0.6,0,0.98-0.29,1.14-0.87C96.37,24.6,96.41,24.1,96.41,23.4z"/>
		<path class="st3" d="M104.03,27.72c-1.25,0-2.27-0.37-3.04-1.12s-1.16-1.72-1.16-2.92v-0.21c0-0.83,0.15-1.57,0.46-2.21
			c0.31-0.64,0.76-1.13,1.35-1.48c0.59-0.35,1.3-0.52,2.11-0.52c1.15,0,2.05,0.36,2.72,1.07c0.66,0.71,1,1.7,1,2.98v0.99h-5.05
			c0.09,0.46,0.29,0.82,0.6,1.08c0.31,0.26,0.7,0.39,1.19,0.39c0.8,0,1.43-0.28,1.89-0.84l1.16,1.37c-0.32,0.44-0.77,0.79-1.35,1.04
			C105.32,27.59,104.7,27.72,104.03,27.72z M103.74,21.22c-0.74,0-1.19,0.49-1.33,1.48h2.56v-0.2c0.01-0.41-0.09-0.72-0.31-0.95
			C104.45,21.33,104.14,21.22,103.74,21.22z"/>
		<path class="st3" d="M113.42,21.71l-0.84-0.06c-0.8,0-1.31,0.25-1.54,0.75v5.17h-2.54v-8.16h2.38l0.08,1.05
			c0.43-0.8,1.02-1.2,1.79-1.2c0.27,0,0.51,0.03,0.71,0.09L113.42,21.71z"/>
		<path class="st3" d="M127.6,22.31c0,1.07-0.2,2.02-0.6,2.84c-0.4,0.82-0.96,1.46-1.69,1.9c-0.73,0.44-1.57,0.67-2.5,0.67
			s-1.76-0.21-2.49-0.65c-0.72-0.43-1.29-1.04-1.69-1.84c-0.4-0.8-0.62-1.72-0.64-2.75v-0.62c0-1.08,0.2-2.02,0.59-2.85
			c0.4-0.82,0.96-1.46,1.7-1.9c0.74-0.45,1.57-0.67,2.52-0.67c0.93,0,1.76,0.22,2.49,0.66c0.73,0.44,1.3,1.07,1.7,1.89
			c0.4,0.82,0.61,1.75,0.61,2.81V22.31z M124.91,21.85c0-1.09-0.18-1.92-0.55-2.49c-0.36-0.57-0.89-0.85-1.56-0.85
			c-1.33,0-2.03,1-2.1,2.99l-0.01,0.81c0,1.08,0.18,1.9,0.54,2.48c0.36,0.58,0.89,0.87,1.59,0.87c0.67,0,1.18-0.28,1.55-0.85
			c0.36-0.57,0.55-1.39,0.55-2.45V21.85z"/>
		<path class="st3" d="M129.41,27.57v-6.4h-1.18v-1.76h1.18v-0.65c0-0.93,0.27-1.65,0.82-2.16c0.55-0.51,1.32-0.77,2.31-0.77
			c0.36,0,0.76,0.05,1.19,0.16l0.01,1.87c-0.16-0.05-0.36-0.07-0.63-0.07c-0.77,0-1.15,0.33-1.15,1v0.63h1.59v1.76h-1.59v6.4H129.41
			z"/>
		<path class="st3" d="M141.89,16.59l2.45,7.64l2.44-7.64h3.48v10.98h-2.65v-2.56l0.26-5.25l-2.65,7.81h-1.75l-2.66-7.82l0.26,5.26
			v2.56h-2.65V16.59H141.89z"/>
		<path class="st3" d="M151.51,23.42c0-0.81,0.16-1.54,0.48-2.18c0.32-0.64,0.77-1.12,1.37-1.47c0.59-0.34,1.29-0.51,2.09-0.51
			c1.22,0,2.18,0.38,2.89,1.14c0.7,0.76,1.06,1.79,1.06,3.09v0.09c0,1.27-0.35,2.28-1.06,3.03s-1.66,1.12-2.87,1.12
			c-1.16,0-2.09-0.35-2.8-1.04c-0.7-0.7-1.08-1.64-1.14-2.83L151.51,23.42z M154.06,23.57c0,0.75,0.12,1.31,0.35,1.66
			s0.59,0.53,1.05,0.53c0.9,0,1.37-0.7,1.39-2.09v-0.26c0-1.46-0.47-2.19-1.4-2.19c-0.85,0-1.31,0.63-1.38,1.89L154.06,23.57z"/>
		<path class="st3" d="M168.08,23.56c0,1.34-0.28,2.37-0.83,3.08c-0.55,0.72-1.33,1.08-2.34,1.08c-0.83,0-1.5-0.33-2.01-0.99
			l-0.11,0.84h-2.28V15.99h2.54v4.08c0.47-0.54,1.08-0.81,1.83-0.81c1.02,0,1.8,0.36,2.35,1.09c0.55,0.73,0.83,1.75,0.83,3.08V23.56
			z M165.53,23.4c0-0.78-0.1-1.34-0.31-1.68c-0.21-0.33-0.53-0.5-0.96-0.5c-0.57,0-0.97,0.22-1.19,0.66v3.24
			c0.22,0.43,0.62,0.65,1.21,0.65c0.6,0,0.98-0.29,1.14-0.87C165.49,24.6,165.53,24.1,165.53,23.4z"/>
		<path class="st3" d="M169.18,17.31c0-0.36,0.13-0.66,0.39-0.89c0.26-0.23,0.6-0.35,1.02-0.35c0.42,0,0.76,0.12,1.02,0.35
			c0.26,0.23,0.39,0.53,0.39,0.89c0,0.36-0.13,0.66-0.39,0.89c-0.26,0.23-0.6,0.35-1.02,0.35c-0.42,0-0.76-0.12-1.02-0.35
			C169.32,17.96,169.18,17.67,169.18,17.31z M171.88,27.57h-2.55v-8.16h2.55V27.57z"/>
		<path class="st3" d="M176.13,27.57h-2.55V15.99h2.55V27.57z"/>
		<path class="st3" d="M181.64,27.72c-1.25,0-2.27-0.37-3.04-1.12s-1.16-1.72-1.16-2.92v-0.21c0-0.83,0.15-1.57,0.46-2.21
			c0.31-0.64,0.76-1.13,1.35-1.48c0.59-0.35,1.3-0.52,2.11-0.52c1.15,0,2.05,0.36,2.72,1.07c0.66,0.71,1,1.7,1,2.98v0.99h-5.05
			c0.09,0.46,0.29,0.82,0.6,1.08c0.31,0.26,0.7,0.39,1.19,0.39c0.8,0,1.43-0.28,1.89-0.84l1.16,1.37c-0.32,0.44-0.77,0.79-1.35,1.04
			C182.94,27.59,182.31,27.72,181.64,27.72z M181.36,21.22c-0.74,0-1.19,0.49-1.33,1.48h2.56v-0.2c0.01-0.41-0.09-0.72-0.31-0.95
			C182.07,21.33,181.76,21.22,181.36,21.22z"/>
		<path class="st3" d="M195.73,24.65c0-0.39-0.14-0.69-0.41-0.9c-0.27-0.22-0.76-0.44-1.44-0.67c-0.69-0.23-1.25-0.46-1.69-0.67
			c-1.42-0.7-2.13-1.66-2.13-2.88c0-0.61,0.18-1.15,0.53-1.61c0.35-0.47,0.86-0.83,1.5-1.09c0.65-0.26,1.38-0.39,2.19-0.39
			c0.79,0,1.5,0.14,2.12,0.42c0.63,0.28,1.11,0.68,1.46,1.2c0.35,0.52,0.52,1.11,0.52,1.78h-2.64c0-0.45-0.14-0.79-0.41-1.04
			c-0.27-0.25-0.65-0.37-1.11-0.37c-0.47,0-0.85,0.1-1.12,0.31c-0.27,0.21-0.41,0.47-0.41,0.8c0,0.28,0.15,0.54,0.45,0.77
			c0.3,0.23,0.83,0.46,1.59,0.71c0.76,0.24,1.38,0.51,1.87,0.79c1.19,0.68,1.78,1.63,1.78,2.83c0,0.96-0.36,1.71-1.09,2.26
			c-0.72,0.55-1.72,0.82-2.98,0.82c-0.89,0-1.7-0.16-2.42-0.48c-0.72-0.32-1.26-0.76-1.63-1.31c-0.36-0.56-0.55-1.2-0.55-1.92h2.65
			c0,0.59,0.15,1.02,0.46,1.3c0.3,0.28,0.8,0.42,1.48,0.42c0.44,0,0.78-0.09,1.04-0.28S195.73,24.99,195.73,24.65z"/>
		<path class="st3" d="M203.57,27.72c-1.25,0-2.27-0.37-3.04-1.12s-1.16-1.72-1.16-2.92v-0.21c0-0.83,0.15-1.57,0.46-2.21
			c0.31-0.64,0.76-1.13,1.35-1.48c0.59-0.35,1.3-0.52,2.11-0.52c1.15,0,2.05,0.36,2.72,1.07c0.66,0.71,1,1.7,1,2.98v0.99h-5.05
			c0.09,0.46,0.29,0.82,0.6,1.08c0.31,0.26,0.7,0.39,1.19,0.39c0.8,0,1.43-0.28,1.89-0.84l1.16,1.37c-0.32,0.44-0.77,0.79-1.35,1.04
			C204.86,27.59,204.24,27.72,203.57,27.72z M203.28,21.22c-0.74,0-1.19,0.49-1.33,1.48h2.56v-0.2c0.01-0.41-0.09-0.72-0.31-0.95
			C203.99,21.33,203.69,21.22,203.28,21.22z"/>
		<path class="st3" d="M212.63,27.57c-0.09-0.17-0.17-0.41-0.24-0.73c-0.47,0.59-1.12,0.88-1.96,0.88c-0.77,0-1.42-0.23-1.96-0.7
			c-0.54-0.46-0.81-1.05-0.81-1.75c0-0.88,0.33-1.55,0.98-2.01s1.6-0.68,2.85-0.68h0.78v-0.43c0-0.75-0.32-1.13-0.97-1.13
			c-0.6,0-0.91,0.3-0.91,0.89h-2.54c0-0.79,0.34-1.43,1.01-1.92s1.53-0.74,2.57-0.74c1.04,0,1.86,0.25,2.47,0.76
			c0.6,0.51,0.91,1.2,0.93,2.09v3.61c0.01,0.75,0.13,1.32,0.35,1.72v0.13H212.63z M211.04,25.91c0.32,0,0.58-0.07,0.79-0.2
			s0.36-0.29,0.45-0.46v-1.3h-0.74c-0.89,0-1.33,0.4-1.33,1.19c0,0.23,0.08,0.42,0.23,0.56C210.6,25.84,210.8,25.91,211.04,25.91z"
			/>
		<path class="st3" d="M221.17,21.71l-0.84-0.06c-0.8,0-1.31,0.25-1.54,0.75v5.17h-2.54v-8.16h2.38l0.08,1.05
			c0.43-0.8,1.02-1.2,1.79-1.2c0.27,0,0.51,0.03,0.71,0.09L221.17,21.71z"/>
		<path class="st3" d="M225.39,25.76c0.36,0,0.63-0.1,0.83-0.29c0.2-0.19,0.29-0.46,0.29-0.81h2.38c0,0.9-0.32,1.63-0.96,2.2
			s-1.47,0.86-2.48,0.86c-1.19,0-2.12-0.37-2.81-1.12c-0.68-0.74-1.03-1.77-1.03-3.09v-0.11c0-0.82,0.15-1.55,0.46-2.18
			s0.74-1.12,1.32-1.46s1.25-0.51,2.04-0.51c1.06,0,1.9,0.29,2.53,0.88s0.94,1.39,0.94,2.39h-2.38c0-0.42-0.1-0.75-0.31-0.97
			c-0.21-0.23-0.48-0.34-0.83-0.34c-0.66,0-1.04,0.42-1.15,1.26c-0.04,0.27-0.05,0.63-0.05,1.1c0,0.82,0.1,1.39,0.29,1.7
			C224.65,25.6,224.96,25.76,225.39,25.76z"/>
		<path class="st3" d="M232.45,20.29c0.54-0.68,1.24-1.03,2.08-1.03c0.9,0,1.58,0.27,2.04,0.8c0.46,0.53,0.69,1.32,0.7,2.36v5.15
			h-2.55v-5.09c0-0.43-0.09-0.75-0.26-0.95s-0.48-0.31-0.9-0.31c-0.52,0-0.89,0.17-1.11,0.5v5.85h-2.54V15.99h2.54V20.29z"/>
		<path class="st3" d="M251.26,16.59v7.19c0,0.81-0.17,1.52-0.52,2.12c-0.35,0.6-0.84,1.05-1.49,1.36c-0.65,0.31-1.42,0.47-2.3,0.47
			c-1.34,0-2.39-0.35-3.16-1.04c-0.77-0.69-1.16-1.64-1.18-2.85v-7.24h2.66v7.29c0.03,1.2,0.59,1.8,1.67,1.8
			c0.55,0,0.96-0.15,1.24-0.45c0.28-0.3,0.42-0.79,0.42-1.47v-7.17H251.26z"/>
		<path class="st3" d="M257.07,25.28c0-0.22-0.11-0.39-0.34-0.52c-0.23-0.13-0.66-0.27-1.29-0.41c-0.63-0.14-1.16-0.33-1.57-0.55
			c-0.41-0.23-0.73-0.51-0.94-0.83c-0.22-0.33-0.32-0.7-0.32-1.12c0-0.75,0.31-1.37,0.93-1.85c0.62-0.49,1.43-0.73,2.43-0.73
			c1.08,0,1.94,0.24,2.59,0.73c0.65,0.49,0.98,1.13,0.98,1.92h-2.55c0-0.65-0.34-0.98-1.03-0.98c-0.27,0-0.49,0.07-0.67,0.22
			c-0.18,0.15-0.27,0.33-0.27,0.55c0,0.23,0.11,0.41,0.33,0.55c0.22,0.14,0.58,0.26,1.06,0.35c0.48,0.09,0.91,0.2,1.28,0.32
			c1.23,0.42,1.84,1.18,1.84,2.27c0,0.74-0.33,1.35-0.99,1.82c-0.66,0.47-1.52,0.7-2.57,0.7c-0.7,0-1.32-0.13-1.87-0.38
			c-0.55-0.25-0.98-0.59-1.28-1.03s-0.46-0.89-0.46-1.37h2.38c0.01,0.38,0.14,0.65,0.38,0.83c0.24,0.17,0.55,0.26,0.93,0.26
			c0.35,0,0.61-0.07,0.78-0.21C256.98,25.69,257.07,25.5,257.07,25.28z"/>
		<path class="st3" d="M264.65,27.72c-1.25,0-2.27-0.37-3.04-1.12c-0.77-0.75-1.16-1.72-1.16-2.92v-0.21c0-0.83,0.15-1.57,0.46-2.21
			s0.76-1.13,1.35-1.48c0.59-0.35,1.3-0.52,2.11-0.52c1.15,0,2.05,0.36,2.71,1.07c0.66,0.71,1,1.7,1,2.98v0.99h-5.05
			c0.09,0.46,0.29,0.82,0.6,1.08c0.31,0.26,0.7,0.39,1.19,0.39c0.8,0,1.43-0.28,1.88-0.84l1.16,1.37c-0.32,0.44-0.77,0.79-1.35,1.04
			C265.95,27.59,265.32,27.72,264.65,27.72z M264.37,21.22c-0.74,0-1.19,0.49-1.33,1.48h2.56v-0.2c0.01-0.41-0.09-0.72-0.31-0.95
			C265.08,21.33,264.77,21.22,264.37,21.22z"/>
		<path class="st3" d="M274.05,21.71l-0.84-0.06c-0.8,0-1.31,0.25-1.54,0.75v5.17h-2.54v-8.16h2.38l0.08,1.05
			c0.43-0.8,1.02-1.2,1.79-1.2c0.27,0,0.51,0.03,0.71,0.09L274.05,21.71z"/>
		<path class="st3" d="M279.24,25.28c0-0.22-0.11-0.39-0.34-0.52c-0.23-0.13-0.66-0.27-1.29-0.41c-0.63-0.14-1.16-0.33-1.57-0.55
			c-0.41-0.23-0.73-0.51-0.94-0.83c-0.22-0.33-0.32-0.7-0.32-1.12c0-0.75,0.31-1.37,0.93-1.85c0.62-0.49,1.43-0.73,2.43-0.73
			c1.08,0,1.94,0.24,2.59,0.73c0.65,0.49,0.98,1.13,0.98,1.92h-2.55c0-0.65-0.34-0.98-1.03-0.98c-0.27,0-0.49,0.07-0.67,0.22
			c-0.18,0.15-0.27,0.33-0.27,0.55c0,0.23,0.11,0.41,0.33,0.55c0.22,0.14,0.58,0.26,1.06,0.35c0.48,0.09,0.91,0.2,1.28,0.32
			c1.23,0.42,1.84,1.18,1.84,2.27c0,0.74-0.33,1.35-0.99,1.82c-0.66,0.47-1.52,0.7-2.57,0.7c-0.7,0-1.32-0.13-1.87-0.38
			c-0.55-0.25-0.98-0.59-1.28-1.03s-0.46-0.89-0.46-1.37h2.38c0.01,0.38,0.14,0.65,0.38,0.83c0.24,0.17,0.55,0.26,0.93,0.26
			c0.35,0,0.61-0.07,0.78-0.21C279.15,25.69,279.24,25.5,279.24,25.28z"/>
		<path class="st3" d="M283.77,30.53l-1.28-0.6l0.26-0.51c0.35-0.65,0.54-1.28,0.55-1.87v-1.89h2.04l-0.01,1.64
			c0,0.58-0.15,1.17-0.45,1.77C284.59,29.65,284.22,30.15,283.77,30.53z"/>
		<path class="st3" d="M299.62,16.59v7.19c0,0.81-0.17,1.52-0.52,2.12c-0.35,0.6-0.84,1.05-1.49,1.36c-0.65,0.31-1.42,0.47-2.3,0.47
			c-1.34,0-2.39-0.35-3.16-1.04s-1.16-1.64-1.18-2.85v-7.24h2.66v7.29c0.03,1.2,0.59,1.8,1.67,1.8c0.55,0,0.96-0.15,1.24-0.45
			c0.28-0.3,0.42-0.79,0.42-1.47v-7.17H299.62z"/>
		<path class="st3" d="M306.94,24.65c0-0.39-0.14-0.69-0.41-0.9c-0.27-0.22-0.76-0.44-1.44-0.67c-0.69-0.23-1.25-0.46-1.69-0.67
			c-1.42-0.7-2.13-1.66-2.13-2.88c0-0.61,0.18-1.15,0.53-1.61c0.35-0.47,0.86-0.83,1.5-1.09c0.65-0.26,1.38-0.39,2.19-0.39
			c0.79,0,1.5,0.14,2.12,0.42s1.11,0.68,1.46,1.2c0.35,0.52,0.52,1.11,0.52,1.78h-2.64c0-0.45-0.14-0.79-0.41-1.04
			c-0.27-0.25-0.65-0.37-1.11-0.37c-0.47,0-0.85,0.1-1.12,0.31c-0.27,0.21-0.41,0.47-0.41,0.8c0,0.28,0.15,0.54,0.45,0.77
			c0.3,0.23,0.83,0.46,1.59,0.71c0.76,0.24,1.38,0.51,1.87,0.79c1.19,0.68,1.78,1.63,1.78,2.83c0,0.96-0.36,1.71-1.09,2.26
			c-0.72,0.55-1.72,0.82-2.98,0.82c-0.89,0-1.7-0.16-2.42-0.48c-0.72-0.32-1.26-0.76-1.63-1.31c-0.36-0.56-0.55-1.2-0.55-1.92h2.66
			c0,0.59,0.15,1.02,0.46,1.3c0.3,0.28,0.8,0.42,1.48,0.42c0.44,0,0.78-0.09,1.04-0.28S306.94,24.99,306.94,24.65z"/>
	</g>
</g>
</svg>
