<?xml version="1.0" encoding="utf-8"?>
<!-- Generator: Adobe Illustrator 24.1.2, SVG Export Plug-In . SVG Version: 6.00 Build 0)  -->
<svg version="1.0" id="Layer_1" xmlns="http://www.w3.org/2000/svg" xmlns:xlink="http://www.w3.org/1999/xlink" x="0px" y="0px"
	 viewBox="0 0 300 179.97" style="enable-background:new 0 0 300 179.97;" xml:space="preserve">
<style type="text/css">
	.st0{fill:#B2E0E7;}
	.st1{fill:#D5EEF1;}
	.st2{fill:#8DCED6;}
	.st3{fill:#FFFFFF;}
	.st4{fill:#1F2959;}
	.st5{fill:#5A7195;}
	.st6{fill:#D2D2D2;}
	.st7{fill:#F6F6F6;}
	.st8{fill:#EC7B36;}
	.st9{fill:url(#SVGID_1_);}
	.st10{fill:#1D1D1B;}
	.st11{fill:#3D3D3C;}
	.st12{fill:#878787;}
	.st13{fill:url(#SVGID_2_);}
	.st14{clip-path:url(#SVGID_7_);}
	.st15{clip-path:url(#SVGID_8_);fill:url(#SVGID_9_);}
	.st16{fill:url(#SVGID_10_);}
	.st17{fill:#4CA8C6;}
	.st18{fill:url(#SVGID_11_);}
	.st19{fill:url(#SVGID_12_);}
	.st20{fill:#585856;}
	.st21{fill:#EDEDEE;}
	.st22{fill:url(#SVGID_13_);}
	.st23{fill:#8CCEF2;}
	.st24{fill:url(#SVGID_14_);}
	.st25{fill:url(#SVGID_15_);}
	.st26{fill:url(#SVGID_16_);}
	.st27{fill:url(#SVGID_17_);}
	.st28{fill:url(#SVGID_18_);}
	.st29{fill:url(#SVGID_19_);}
	.st30{fill:url(#SVGID_20_);}
	.st31{fill:#DBDADA;}
	.st32{clip-path:url(#SVGID_25_);}
	.st33{clip-path:url(#SVGID_26_);fill:url(#SVGID_27_);}
	.st34{fill:#223B62;}
	.st35{fill:#C05059;}
	.st36{opacity:0.8;fill:url(#SVGID_28_);enable-background:new    ;}
</style>
<g>
	<g>
		<rect x="23.57" y="110.73" class="st0" width="19.74" height="41.44"/>
		<g>
			<rect x="26.7" y="114.4" class="st1" width="6.74" height="1.79"/>
			<rect x="30.73" y="118.71" class="st1" width="12.59" height="1.79"/>
			<rect x="26.7" y="123.03" class="st1" width="12" height="1.79"/>
			<rect x="26.7" y="127.34" class="st1" width="14.51" height="1.79"/>
			<rect x="26.7" y="131.65" class="st1" width="16.61" height="1.79"/>
			<rect x="34.47" y="135.96" class="st1" width="8.86" height="1.79"/>
			<rect x="26.7" y="140.27" class="st1" width="13.75" height="1.79"/>
			<rect x="30.73" y="144.58" class="st1" width="12.59" height="7.59"/>
		</g>
		<rect x="50.97" y="96.93" class="st0" width="9.77" height="55.25"/>
		<rect x="43.32" y="110.73" class="st2" width="7.65" height="41.44"/>
		<rect x="40.12" y="106.9" class="st2" width="6.38" height="3.84"/>
		<rect x="32.76" y="106.89" class="st0" width="7.36" height="3.84"/>
		<rect x="235.46" y="75.75" class="st2" width="14.1" height="76.43"/>
		<rect x="242.51" y="89.86" class="st0" width="19.9" height="62.31"/>
		<rect x="262.41" y="89.72" class="st2" width="11.22" height="62.46"/>
		<g>
			<g>
				<rect x="242.51" y="92.85" class="st1" width="18.18" height="1.79"/>
				<rect x="242.51" y="97.16" class="st1" width="14.32" height="1.79"/>
				<rect x="242.51" y="101.47" class="st1" width="18.18" height="1.79"/>
				<rect x="250.7" y="105.78" class="st1" width="9.99" height="1.79"/>
				<rect x="242.51" y="110.1" class="st1" width="18.18" height="1.79"/>
				<rect x="242.51" y="114.4" class="st1" width="16.38" height="1.79"/>
				<rect x="254.98" y="118.71" class="st1" width="5.71" height="1.79"/>
				<rect x="244.99" y="123.03" class="st1" width="15.71" height="1.79"/>
				<rect x="252.46" y="127.34" class="st1" width="8.24" height="1.79"/>
				<rect x="242.51" y="131.65" class="st1" width="18.18" height="1.79"/>
				<rect x="242.51" y="135.96" class="st1" width="12.9" height="1.79"/>
				<rect x="242.51" y="140.27" class="st1" width="18.18" height="1.79"/>
				<rect x="242.51" y="144.58" class="st1" width="18.18" height="7.59"/>
			</g>
			<rect x="263.89" y="144.58" class="st0" width="4.13" height="7.59"/>
		</g>
		<rect x="211.92" y="75.74" class="st0" width="23.54" height="76.43"/>
		<g>
			<g>
				<rect x="211.91" y="79.92" class="st1" width="18.18" height="1.79"/>
				<rect x="211.91" y="84.23" class="st1" width="18.18" height="1.79"/>
				<rect x="211.91" y="88.53" class="st1" width="18.18" height="1.79"/>
				<rect x="211.91" y="92.85" class="st1" width="18.18" height="1.79"/>
				<rect x="211.91" y="97.16" class="st1" width="18.18" height="1.79"/>
				<rect x="211.91" y="101.47" class="st1" width="18.18" height="1.79"/>
				<rect x="211.91" y="105.78" class="st1" width="18.18" height="1.79"/>
				<rect x="211.91" y="110.1" class="st1" width="18.18" height="1.79"/>
				<rect x="211.91" y="114.4" class="st1" width="18.18" height="1.79"/>
				<rect x="211.91" y="118.71" class="st1" width="18.18" height="1.79"/>
				<rect x="211.91" y="123.03" class="st1" width="18.18" height="1.79"/>
				<rect x="211.91" y="127.34" class="st1" width="18.18" height="1.79"/>
				<rect x="211.91" y="131.65" class="st1" width="18.18" height="1.79"/>
				<rect x="211.91" y="135.96" class="st1" width="18.18" height="1.79"/>
				<rect x="211.91" y="140.27" class="st1" width="18.18" height="1.79"/>
				<rect x="211.91" y="144.58" class="st1" width="18.18" height="1.79"/>
				<rect x="211.91" y="148.89" class="st1" width="18.18" height="1.79"/>
			</g>
			<rect x="211.91" y="92.85" class="st3" width="5.95" height="1.79"/>
			<rect x="217.87" y="101.47" class="st3" width="1.42" height="1.79"/>
			<rect x="227.19" y="84.23" class="st3" width="2.91" height="1.79"/>
			<rect x="220.03" y="88.53" class="st3" width="1.4" height="1.79"/>
			<rect x="223.95" y="110.1" class="st3" width="4.64" height="1.79"/>
			<rect x="214.21" y="79.93" class="st3" width="1.29" height="1.78"/>
			<rect x="216.49" y="88.53" class="st3" width="1.38" height="1.79"/>
		</g>
		<rect x="159.51" y="61.65" class="st2" width="12.58" height="90.52"/>
		<rect x="139.74" y="61.65" class="st0" width="19.77" height="90.52"/>
		<g>
			<g>
				<rect x="139.74" y="65.82" class="st1" width="19.77" height="1.79"/>
				<rect x="139.74" y="70.13" class="st1" width="19.77" height="1.79"/>
				<rect x="139.74" y="74.44" class="st1" width="19.77" height="1.79"/>
				<rect x="139.74" y="78.75" class="st1" width="19.77" height="1.79"/>
				<rect x="139.74" y="83.06" class="st1" width="19.77" height="1.79"/>
				<rect x="139.74" y="87.37" class="st1" width="19.77" height="1.79"/>
				<rect x="139.74" y="91.69" class="st1" width="19.77" height="1.79"/>
				<rect x="139.74" y="96" class="st1" width="19.77" height="1.79"/>
				<rect x="139.74" y="100.31" class="st1" width="19.77" height="1.79"/>
				<rect x="139.74" y="104.62" class="st1" width="19.77" height="1.79"/>
				<rect x="139.74" y="108.93" class="st1" width="19.77" height="1.79"/>
				<rect x="139.74" y="113.24" class="st1" width="19.77" height="1.79"/>
				<rect x="139.74" y="117.55" class="st1" width="19.77" height="1.79"/>
				<rect x="139.74" y="121.87" class="st1" width="19.77" height="1.79"/>
				<rect x="139.74" y="126.18" class="st1" width="19.77" height="1.79"/>
				<rect x="139.74" y="130.48" class="st1" width="19.77" height="1.79"/>
				<rect x="139.74" y="134.8" class="st1" width="19.77" height="1.79"/>
			</g>
			<g>
				<rect x="159.51" y="65.82" class="st0" width="8.15" height="1.79"/>
				<rect x="159.51" y="70.13" class="st0" width="8.15" height="1.79"/>
				<rect x="159.51" y="74.44" class="st0" width="8.15" height="1.79"/>
				<rect x="159.51" y="78.75" class="st0" width="8.15" height="1.79"/>
				<rect x="159.51" y="83.06" class="st0" width="8.15" height="1.79"/>
				<rect x="159.51" y="87.37" class="st0" width="8.15" height="1.79"/>
				<rect x="159.51" y="91.69" class="st0" width="8.15" height="1.79"/>
				<rect x="159.51" y="96" class="st0" width="8.15" height="1.79"/>
				<rect x="159.51" y="100.31" class="st0" width="8.15" height="1.79"/>
				<rect x="159.51" y="104.62" class="st0" width="8.15" height="1.79"/>
				<rect x="159.51" y="108.93" class="st0" width="8.15" height="1.79"/>
				<rect x="159.51" y="113.24" class="st0" width="8.15" height="1.79"/>
				<rect x="159.51" y="117.55" class="st0" width="8.15" height="1.79"/>
				<rect x="159.51" y="121.87" class="st0" width="8.15" height="1.79"/>
				<rect x="159.51" y="126.18" class="st0" width="8.15" height="1.79"/>
				<rect x="159.51" y="130.48" class="st0" width="8.15" height="1.79"/>
				<rect x="159.51" y="134.8" class="st0" width="8.15" height="1.79"/>
			</g>
			<rect x="142.39" y="65.82" class="st3" width="1.79" height="1.79"/>
			<rect x="152.24" y="74.44" class="st3" width="7.27" height="1.79"/>
			<rect x="146.19" y="91.69" class="st3" width="1.79" height="1.79"/>
			<rect x="151.46" y="96" class="st3" width="6.1" height="1.79"/>
			<rect x="143.84" y="104.62" class="st3" width="1.71" height="1.79"/>
			<rect x="149.63" y="104.62" class="st3" width="1.65" height="1.79"/>
			<rect x="143.84" y="108.93" class="st3" width="1.71" height="1.79"/>
			<rect x="161.7" y="96" class="st1" width="1.55" height="1.79"/>
			<rect x="164.68" y="78.75" class="st1" width="2.98" height="1.79"/>
			<rect x="161.7" y="70.13" class="st1" width="1.58" height="1.79"/>
		</g>
		<rect x="122.18" y="82.66" class="st2" width="10.81" height="69.52"/>
		<g>
			<rect x="124.4" y="87.37" class="st0" width="1.87" height="64.79"/>
			<rect x="124.4" y="91.69" class="st1" width="1.87" height="1.79"/>
			<rect x="124.4" y="100.31" class="st1" width="1.87" height="6.1"/>
			<rect x="124.4" y="121.87" class="st1" width="1.87" height="1.79"/>
		</g>
		<rect x="175.78" y="47.53" class="st0" width="27.43" height="104.64"/>
		<g>
			<g>
				<rect x="178.22" y="51.94" class="st3" width="0.6" height="100.23"/>
			</g>
			<g>
				<rect x="180.97" y="51.94" class="st3" width="0.6" height="100.23"/>
			</g>
			<g>
				<rect x="183.71" y="51.94" class="st3" width="0.6" height="100.23"/>
			</g>
			<g>
				<rect x="186.45" y="51.94" class="st3" width="0.6" height="100.23"/>
			</g>
			<g>
				<rect x="189.19" y="51.94" class="st1" width="0.6" height="100.23"/>
			</g>
			<g>
				<rect x="191.93" y="51.94" class="st1" width="0.6" height="57.6"/>
			</g>
			<g>
				<rect x="194.68" y="51.94" class="st3" width="0.6" height="100.23"/>
			</g>
			<g>
				<rect x="197.42" y="51.94" class="st1" width="0.6" height="49.04"/>
			</g>
			<g>
				<rect x="200.17" y="51.94" class="st1" width="0.6" height="47.36"/>
			</g>
		</g>
		<rect x="203.21" y="96.92" class="st2" width="8.71" height="55.25"/>
		<rect x="161.45" y="57.81" class="st2" width="6.38" height="3.84"/>
		<rect x="154.09" y="57.81" class="st0" width="7.36" height="3.84"/>
		<rect x="232.27" y="71.91" class="st2" width="6.38" height="3.84"/>
		<rect x="224.91" y="71.91" class="st0" width="7.36" height="3.84"/>
	</g>
	<g>
		<g>
			<path class="st4" d="M15.62,152.24c-0.56-2.05-0.48-3.6,0.23-4.74c1.07-1.72,3.4-2.17,5.66-2.61c2.17-0.42,4.22-0.82,5.13-2.24
				c0.56-0.89,0.63-2.11,0.21-3.73c-0.95-3.68-0.76-5.94,0.58-7.1c2.47-2.14,8.6-0.21,19.05,4.12c1.97,0.81,3.25,1.02,3.92,0.62
				c0.63-0.37,0.72-1.28,0.84-2.33c0.12-1.1,0.25-2.35,1.09-3.19c1.85-1.86,4.1-0.69,6.49,0.55c1.8,0.94,3.85,2,6.06,2v0.51
				c-2.33,0-4.43-1.09-6.29-2.06c-2.41-1.26-4.3-2.24-5.9-0.64c-0.71,0.72-0.83,1.82-0.94,2.89c-0.12,1.14-0.24,2.21-1.09,2.72
				c-0.83,0.49-2.21,0.31-4.37-0.59c-10.03-4.15-16.27-6.16-18.53-4.21c-1.17,1.01-1.3,3.17-0.43,6.6c0.46,1.77,0.37,3.12-0.27,4.13
				c-1.01,1.61-3.27,2.04-5.45,2.47c-2.15,0.42-4.37,0.85-5.33,2.39c-0.63,1.01-0.68,2.44-0.17,4.34L15.62,152.24z"/>
		</g>
		<g>
			<path class="st4" d="M114.91,126.88l-0.43-0.26c2.57-4.3,9.35-11.74,16.53-13.39c5.47-1.25,7.47,0.43,9.24,1.92
				c1.05,0.89,2.04,1.72,3.68,1.85c2.5,0.2,4.57-0.88,6.76-2.03c3.89-2.04,7.92-4.14,14.86,0.49l-0.28,0.42
				c-6.69-4.46-10.59-2.43-14.35-0.46c-2.25,1.17-4.39,2.29-7.03,2.08c-1.8-0.14-2.85-1.03-3.96-1.96
				c-1.75-1.48-3.56-3.02-8.79-1.82C124.09,115.33,117.44,122.65,114.91,126.88z"/>
		</g>
		<g>
			<path class="st4" d="M292.7,152.25l-0.46-0.14c0.67-2.09,0.65-3.69-0.04-4.91c-1.16-2.03-4.17-2.7-7.06-3.36
				c-4.01-0.9-8.15-1.83-7.93-6.28c0.02-0.37,0.04-0.74,0.06-1.11c0.24-4.33,0.45-8.07-3.7-8.42c-4.44-0.37-9.04,1.63-15.35,6.72
				l-0.31-0.38c6.42-5.17,11.11-7.22,15.69-6.82c4.62,0.39,4.39,4.54,4.14,8.93c-0.02,0.37-0.04,0.74-0.06,1.11
				c-0.19,4.04,3.57,4.88,7.56,5.79c3,0.68,6.11,1.38,7.38,3.59C293.39,148.29,293.41,150.02,292.7,152.25z"/>
		</g>
		<g>
			<path class="st4" d="M257.99,134.79c-3.26-0.96-3.05-3.54-2.82-6.28c0.12-1.51,0.25-3.08-0.2-4.47
				c-1.07-3.23-5.07-3.56-8.93-3.87c-1.98-0.16-3.85-0.31-5.25-0.85c-3.65-1.41-4.91-3.41-6.11-5.34c-0.92-1.46-1.79-2.84-3.65-3.95
				c-4.14-2.46-8.57-1.53-13.27-0.55c-3.68,0.77-7.47,1.57-11.24,0.68c-1.23-0.29-2.36-0.89-3.56-1.53
				c-2.49-1.33-5.08-2.7-8.91-1.46c-2.94,0.96-7.31,3.79-9.84,5.97l-0.31-0.36c2.53-2.19,6.9-5.05,10-6.07
				c4.02-1.31,6.81,0.18,9.28,1.49c1.17,0.63,2.28,1.21,3.44,1.49c3.66,0.86,7.41,0.07,11.03-0.68c4.8-1.01,9.32-1.96,13.61,0.6
				c1.96,1.17,2.9,2.66,3.81,4.11c1.17,1.87,2.38,3.8,5.88,5.15c1.34,0.51,3.17,0.67,5.11,0.82c3.84,0.31,8.18,0.66,9.35,4.2
				c0.49,1.47,0.35,3.09,0.23,4.66c-0.22,2.65-0.4,4.93,2.49,5.78L257.99,134.79z"/>
		</g>
	</g>
	<ellipse class="st5" cx="87.67" cy="173.87" rx="43.02" ry="1.56"/>
	<g>
		<ellipse class="st5" cx="151.01" cy="173.87" rx="46.13" ry="1.27"/>
		<ellipse class="st5" cx="218.17" cy="173.87" rx="52.77" ry="1.52"/>
	</g>
	<g>
		<path class="st4" d="M106.29,173.87H76.62c-8.77,0-15.88-7.11-15.88-15.88V66.82c0-8.77,7.11-15.88,15.88-15.88h29.67
			c8.77,0,15.88,7.11,15.88,15.88v91.16C122.17,166.76,115.06,173.87,106.29,173.87z"/>
		<path class="st3" d="M108.65,172.08h-34.4c-6.49,0-11.74-5.25-11.74-11.74V64.46c0-6.49,5.25-11.74,11.74-11.74h34.4
			c6.49,0,11.74,5.25,11.74,11.74v95.89C120.39,166.83,115.14,172.08,108.65,172.08z"/>
		<path class="st4" d="M91.46,52.72H78.9l1.98,3.27c0.57,0.94,1.59,1.51,2.69,1.51h7.89h7.89c1.1,0,2.12-0.57,2.69-1.51l1.98-3.27
			H91.46z"/>
		<rect x="62.52" y="65.97" class="st6" width="57.87" height="91.39"/>
	</g>
	<g>
		<path class="st0" d="M200.14,36.97c0.26-0.48,0.41-1.01,0.41-1.57c0-2.42-2.75-4.39-6.16-4.39c-3.4,0-6.16,1.96-6.16,4.39
			c0,0.56,0.15,1.08,0.41,1.57H200.14z"/>
		<path class="st0" d="M177.33,27.3c-2.46-0.12-4.61,1.26-5.62,3.31c-0.56,1.16-1.75,1.9-3.03,1.73c-0.54-0.07-1.09-0.11-1.67-0.11
			c-3.86,0-6.99,1.67-6.99,3.73c0,0.35,0.1,0.69,0.27,1.01h12.17h1.27h7.86c0.92-1.11,1.43-2.56,1.34-4.13
			C182.75,29.88,180.3,27.45,177.33,27.3z"/>
	</g>
	<g>
		<path class="st0" d="M106.2,36.97c3.22-9.68-11.78-4.3-11.62-10.17c0.19-6.4-5.09-10.16-17.64-4.92
			C64.42,27.1,65.01,35.77,67.4,36.97H106.2z"/>
		<path class="st0" d="M130.31,36.97c0.23-0.43,0.36-0.9,0.36-1.39c0-2.15-2.45-3.89-5.46-3.89c-3.02,0-5.46,1.74-5.46,3.89
			c0,0.49,0.13,0.96,0.36,1.39H130.31z"/>
		<path class="st0" d="M57.87,28.39c-2.19-0.11-4.1,1.12-4.98,2.94c-0.5,1.02-1.56,1.68-2.69,1.54c-0.47-0.06-0.97-0.1-1.49-0.1
			c-3.43,0-6.2,1.48-6.2,3.31c0,0.31,0.09,0.61,0.24,0.9h10.8h1.13h6.98c0.81-0.98,1.27-2.27,1.19-3.66
			C62.68,30.68,60.51,28.53,57.87,28.39z"/>
	</g>
	<path class="st7" d="M120.39,67.39L85.12,87.8l-12.6-21.83h-3.48L82.5,89.31l-19.99,11.57v3.49l21.5-12.43l7.24,12.54L62.52,121.1
		v3.49l12.41-7.19l7.98,13.82l-20.4,11.8v3.49l21.88-12.66c4.77,8.88,5.43,16.74,5.48,23.5h3.03c-0.06-7.17-0.75-15.5-5.88-25.01
		l15.24-8.82l18.13,31.4v-6.04l-15.51-26.87l15.51-8.97v-3.49l-17.03,9.85l-7.06-12.22l11.49-6.65l-3.36-5.82l-11.48,6.65
		l-6.32-10.94L120.4,70.9L120.39,67.39L120.39,67.39L120.39,67.39z M100.75,120.92l-15.22,8.8l-7.98-13.82l15.21-8.81L100.75,120.92
		z"/>
	<g>
		<path class="st8" d="M103.86,121.26c-0.32,0-0.64-0.04-0.96-0.13c-0.96-0.26-1.75-0.87-2.24-1.72L83.85,90.29l1.46-0.84
			l16.82,29.13c0.27,0.47,0.71,0.8,1.22,0.94c0.52,0.14,1.06,0.06,1.53-0.2l49.68-28.74c0.85-0.5,1.85-0.63,2.81-0.37
			c0.96,0.26,1.75,0.87,2.24,1.72l5.17,8.96c0.27,0.47,0.71,0.8,1.22,0.94c0.52,0.14,1.06,0.06,1.53-0.2l21.56-12.47l0.84,1.46
			l-21.56,12.47c-0.85,0.5-1.85,0.63-2.81,0.37c-0.96-0.26-1.75-0.87-2.24-1.72l-5.17-8.96c-0.27-0.47-0.71-0.8-1.22-0.94
			c-0.52-0.14-1.06-0.06-1.53,0.2l-49.68,28.74C105.13,121.1,104.51,121.26,103.86,121.26z"/>
	</g>
	<g>
		<ellipse class="st4" cx="189.5" cy="89.86" rx="17.89" ry="1.96"/>
		
			<linearGradient id="SVGID_1_" gradientUnits="userSpaceOnUse" x1="178.4054" y1="-76.3132" x2="198.4719" y2="-111.0693" gradientTransform="matrix(1 0 0 1 0 160)">
			<stop  offset="0" style="stop-color:#EC7B36"/>
			<stop  offset="1" style="stop-color:#F79557"/>
		</linearGradient>
		<path class="st9" d="M201.2,74.57c2.33-2.71,3.75-6.23,3.75-10.08c0-8.54-6.92-15.46-15.46-15.46s-15.46,6.92-15.46,15.46
			c0,3.85,1.42,7.37,3.75,10.08l11.71,15.3L201.2,74.57z"/>
		<circle class="st3" cx="189.5" cy="64.48" r="8.91"/>
	</g>
	<g>
		<ellipse class="st4" cx="84.56" cy="89.86" rx="9.2" ry="1.01"/>
		<path class="st8" d="M89.98,82.77c1.08-1.26,1.74-2.88,1.74-4.67c0-3.96-3.21-7.16-7.16-7.16c-3.96,0-7.16,3.21-7.16,7.16
			c0,1.79,0.66,3.41,1.74,4.67l5.42,7.09L89.98,82.77z"/>
		<circle class="st3" cx="84.56" cy="78.11" r="4.13"/>
	</g>
	<g>
		<g>
			<path class="st10" d="M114.58,147.61c-4.34,0-7.85,5.87-7.85,13.12s3.52,13.12,7.85,13.12h7.6v-26.25L114.58,147.61
				L114.58,147.61z"/>
			<ellipse class="st10" cx="122.17" cy="160.74" rx="7.85" ry="13.12"/>
			<ellipse class="st11" cx="122.17" cy="160.74" rx="5.66" ry="9.85"/>
		</g>
		<path class="st10" d="M238.27,164.21c0,0,6.56,0.25,8.47,0c0.81-0.1,2.35-1.26,2.35-1.26c0.06-0.41,0.13-0.82,0.19-1.23
			c1.31-10.08-2.05-18.8-7.51-19.49c-5.46-0.68-10.94,6.94-12.25,17.02c-0.23,1.71-0.31,3.36-0.27,4.96H238.27z"/>
		<g>
			<path class="st10" d="M231.08,147.61c-4.34,0-7.85,5.87-7.85,13.12s3.52,13.12,7.85,13.12h7.6v-26.25L231.08,147.61
				L231.08,147.61z"/>
			<ellipse class="st11" cx="238.67" cy="160.74" rx="7.85" ry="13.12"/>
			<ellipse class="st12" cx="238.67" cy="160.74" rx="5.66" ry="9.85"/>
		</g>
		<g>
			<path class="st10" d="M175.25,147.61c-4.34,0-7.85,5.87-7.85,13.12s3.52,13.12,7.85,13.12h7.6v-26.25L175.25,147.61
				L175.25,147.61z"/>
			<ellipse class="st10" cx="182.85" cy="160.74" rx="7.85" ry="13.12"/>
			<ellipse class="st11" cx="182.85" cy="160.74" rx="5.66" ry="9.85"/>
		</g>
		<path class="st10" d="M188.86,166.17c0.38-1.3,0.67-2.67,0.85-4.1c1.29-9.89-2.91-18.57-9.39-19.37
			c-6.48-0.81-12.49,6.59-14.05,16.45c-0.43,2.7-0.61,5.03-0.6,7.03L188.86,166.17L188.86,166.17z"/>
		<g>
			<path class="st10" d="M170.4,147.61c-4.34,0-7.85,5.87-7.85,13.12s3.52,13.12,7.85,13.12h7.6v-26.25L170.4,147.61L170.4,147.61z"
				/>
			<ellipse class="st11" cx="178" cy="160.74" rx="7.85" ry="13.12"/>
			<ellipse class="st12" cx="178" cy="160.74" rx="5.66" ry="9.85"/>
		</g>
		
			<linearGradient id="SVGID_2_" gradientUnits="userSpaceOnUse" x1="128.2442" y1="-39.2785" x2="231.894" y2="20.5637" gradientTransform="matrix(1 0 0 1 0 160)">
			<stop  offset="0" style="stop-color:#3FB2D8"/>
			<stop  offset="0.3455" style="stop-color:#3AAFD6"/>
			<stop  offset="0.7029" style="stop-color:#2BA5D0"/>
			<stop  offset="1" style="stop-color:#079AC8"/>
		</linearGradient>
		<path class="st13" d="M251.34,144.35c-0.03-1.07-0.33-1.98-0.82-2.9c-0.65-1.23-0.35-2.3-0.27-3.61c0.06-0.99,0.09-2.04-0.12-3.02
			c-0.27-1.22-1.09-1.6-1.86-2.47c-0.64-0.72-0.99-1.49-2-1.78c-0.56-0.16-0.89-0.2-1.4-0.51c-0.62-0.37-1.22-0.77-1.81-1.18
			c-4.24-2.95-8.02-6.39-12.57-8.92c-4.45-2.49-9.28-4.35-14.28-5.45c-5.09-1.1-10.31-1.55-15.5-1.94
			c-5.38-0.4-10.77-0.46-16.17-0.45c-5.62,0.01-12.84,0.4-18.46,1c-2.53,0.27-4.93,0.77-7.35,1.37c-2.65,0.65-4.77,1.48-7.13,2.53
			c-6.51,2.9-17.73,10.84-20.55,12.83c-0.72,0.51-1.81,1.05-2.86,1.27c-4.24,0.89-8.3,2.46-10.95,4.01
			c-0.93,0.55-1.77,1.09-2.7,1.65c-1.01,0.61-1.99,0.91-3.07,1.38c-1.1,0.48-2.3,0.87-3.33,1.36c-1.02,0.49-1.72,0.9-2.64,1.57
			c-0.8,0.58-1.67,1.52-1.82,2.51c-0.14,0.92,0.25,2.21-0.28,3.03c-0.14,0.21-0.73,0.69-0.93,0.83c-1.04,0.71-1.11,2.32-1.16,3.52
			c-0.14,3.45,0.38,6.6,0.2,8.5c-0.11,1.17-0.34,2.35-0.06,3.51c0.2,0.85,0.76,2.48,1.58,2.94c0.34,0.19,0.62,0.17,0.94,0.43
			c0.27,0.21,0.42,0.47,0.75,0.6c0.24,0.1,0.48,0.11,0.72,0.11c7.83,0,21.6,0,34.24,0c11.98,0,22.92,0,26.78,0h1.11
			c0.03-2.76,0.31-5.9,0.97-9.04c0.6-2.82,2.24-6.66,3.55-8.58c4.12-6.07,9.67-4.72,11.55-3.27c3.26,2.53,4.53,7.38,4.53,11.28
			c0,4.71-0.73,6.76-1.25,8.74h1.72c1.56,0,3.39,0,5.3,0c3.75,0,7.84,0,10.89,0c5.51,0,11.01,0,16.53,0c3.31,0,5.47,0,9.6,0
			c0.24,0,0.47-0.04,0.62-0.22c0.32-0.37-0.65-3.43,0.13-8.02c0.43-2.56,1.09-5.05,2.33-7.35c1.13-2.11,3.42-5.8,6.49-5.56
			c3.83,0.31,6.02,5.06,6.61,7.89c1.01,4.84,0.42,7.79-0.06,10.47c-0.19,1.08,0.72,0.42,1.29,0.1c0.88-0.51,1.34-0.77,1.91-1.46
			c0.69-0.85,0.6-1.8,0.71-2.84c0.26-2.58,0.76-5,0-7.79C250.32,149.05,251.41,146.71,251.34,144.35z"/>
		<g>
			<g>
				<g>
					<defs>
						<polygon id="SVGID_3_" points="7.16,8.93 7.96,8.93 7.16,9.74 						"/>
					</defs>
					<clipPath id="SVGID_4_">
						<use xlink:href="#SVGID_3_"  style="overflow:visible;"/>
					</clipPath>
				</g>
				<g>
					<defs>
						<polygon id="SVGID_5_" points="7.16,8.93 7.96,8.93 7.16,9.74 						"/>
					</defs>
					<defs>
						<polygon id="SVGID_6_" points="5.55,7.33 4.75,7.33 5.55,6.52 						"/>
					</defs>
					<clipPath id="SVGID_7_">
						<use xlink:href="#SVGID_5_"  style="overflow:visible;"/>
					</clipPath>
					<clipPath id="SVGID_8_" class="st14">
						<use xlink:href="#SVGID_6_"  style="overflow:visible;"/>
					</clipPath>
					
						<linearGradient id="SVGID_9_" gradientUnits="userSpaceOnUse" x1="170.1759" y1="-42.918" x2="179.975" y2="12.6556" gradientTransform="matrix(1 0 0 1 0 160)">
						<stop  offset="0" style="stop-color:#000000"/>
						<stop  offset="0.5" style="stop-color:#1A1A1A"/>
						<stop  offset="0.5618" style="stop-color:#222222"/>
						<stop  offset="0.6626" style="stop-color:#3B3B3B"/>
						<stop  offset="0.7899" style="stop-color:#636363"/>
						<stop  offset="0.9372" style="stop-color:#999999"/>
						<stop  offset="1" style="stop-color:#B3B3B3"/>
					</linearGradient>
					<path class="st15" d="M251.34,144.35c-0.03-1.07-0.33-1.98-0.82-2.9c-0.65-1.23-0.35-2.3-0.27-3.61
						c0.06-0.99,0.09-2.04-0.12-3.02c-0.27-1.22-1.09-1.6-1.86-2.47c-0.64-0.72-0.99-1.49-2-1.78c-0.56-0.16-0.89-0.2-1.4-0.51
						c-0.62-0.37-1.22-0.77-1.81-1.18c-4.24-2.95-8.02-6.39-12.57-8.92c-4.45-2.49-9.28-4.35-14.28-5.45
						c-5.09-1.1-10.31-1.55-15.5-1.94c-5.38-0.4-10.77-0.46-16.17-0.45c-5.62,0.01-12.84,0.4-18.46,1
						c-2.53,0.27-4.93,0.77-7.35,1.37c-2.65,0.65-4.77,1.48-7.13,2.53c-6.51,2.9-17.73,10.84-20.55,12.83
						c-0.72,0.51-1.81,1.05-2.86,1.27c-4.24,0.89-8.3,2.46-10.95,4.01c-0.93,0.55-1.77,1.09-2.7,1.65
						c-1.01,0.61-1.99,0.91-3.07,1.38c-1.1,0.48-2.3,0.87-3.33,1.36c-1.02,0.49-1.72,0.9-2.64,1.57c-0.8,0.58-1.67,1.52-1.82,2.51
						c-0.14,0.92,0.25,2.21-0.28,3.03c-0.14,0.21-0.73,0.69-0.93,0.83c-1.04,0.71-1.11,2.32-1.16,3.52c-0.14,3.45,0.38,6.6,0.2,8.5
						c-0.11,1.17-0.34,2.35-0.06,3.51c0.2,0.85,0.76,2.48,1.58,2.94c0.34,0.19,0.62,0.17,0.94,0.43c0.27,0.21,0.42,0.47,0.75,0.6
						c0.24,0.1,0.48,0.11,0.72,0.11c7.83,0,21.6,0,34.24,0c11.98,0,22.92,0,26.78,0h1.11c0.03-2.76,0.31-5.9,0.97-9.04
						c0.6-2.82,2.24-6.66,3.55-8.58c4.12-6.07,9.67-4.72,11.55-3.27c3.26,2.53,4.53,7.38,4.53,11.28c0,4.71-0.73,6.76-1.25,8.74
						h1.72c1.56,0,3.39,0,5.3,0c3.75,0,7.84,0,10.89,0c5.51,0,11.01,0,16.53,0c3.31,0,5.47,0,9.6,0c0.24,0,0.47-0.04,0.62-0.22
						c0.32-0.37-0.65-3.43,0.13-8.02c0.43-2.56,1.09-5.05,2.33-7.35c1.13-2.11,3.42-5.8,6.49-5.56c3.83,0.31,6.02,5.06,6.61,7.89
						c1.01,4.84,0.42,7.79-0.06,10.47c-0.19,1.08,0.72,0.42,1.29,0.1c0.88-0.51,1.34-0.77,1.91-1.46c0.69-0.85,0.6-1.8,0.71-2.84
						c0.26-2.58,0.76-5,0-7.79C250.32,149.05,251.41,146.71,251.34,144.35z"/>
				</g>
			</g>
		</g>
		
			<linearGradient id="SVGID_10_" gradientUnits="userSpaceOnUse" x1="170.1759" y1="-42.918" x2="179.975" y2="12.6556" gradientTransform="matrix(1 0 0 1 0 160)">
			<stop  offset="0" style="stop-color:#36C2DA"/>
			<stop  offset="0.5" style="stop-color:#36C2DA"/>
			<stop  offset="0.5939" style="stop-color:#35BAD4"/>
			<stop  offset="0.7469" style="stop-color:#2AAACA"/>
			<stop  offset="0.9391" style="stop-color:#1391B9"/>
			<stop  offset="1" style="stop-color:#0989B3"/>
		</linearGradient>
		<path class="st16" d="M251.34,144.35c-0.03-1.07-0.33-1.98-0.82-2.9c-0.65-1.23-0.35-2.3-0.27-3.61c0.06-0.99,0.09-2.04-0.12-3.02
			c-0.27-1.22-1.09-1.6-1.86-2.47c-0.64-0.72-0.99-1.49-2-1.78c-0.56-0.16-0.89-0.2-1.4-0.51c-0.62-0.37-1.22-0.77-1.81-1.18
			c-4.24-2.95-8.02-6.39-12.57-8.92c-4.45-2.49-9.28-4.35-14.28-5.45c-5.09-1.1-10.31-1.55-15.5-1.94
			c-5.38-0.4-10.77-0.46-16.17-0.45c-5.62,0.01-12.84,0.4-18.46,1c-2.53,0.27-4.93,0.77-7.35,1.37c-2.65,0.65-4.77,1.48-7.13,2.53
			c-6.51,2.9-17.73,10.84-20.55,12.83c-0.72,0.51-1.81,1.05-2.86,1.27c-4.24,0.89-8.3,2.46-10.95,4.01
			c-0.93,0.55-1.77,1.09-2.7,1.65c-1.01,0.61-1.99,0.91-3.07,1.38c-1.1,0.48-2.3,0.87-3.33,1.36c-1.02,0.49-1.72,0.9-2.64,1.57
			c-0.8,0.58-1.67,1.52-1.82,2.51c-0.14,0.92,0.25,2.21-0.28,3.03c-0.14,0.21-0.73,0.69-0.93,0.83c-1.04,0.71-1.11,2.32-1.16,3.52
			c-0.14,3.45,0.38,6.6,0.2,8.5c-0.11,1.17-0.34,2.35-0.06,3.51c0.2,0.85,0.76,2.48,1.58,2.94c0.34,0.19,0.62,0.17,0.94,0.43
			c0.27,0.21,0.42,0.47,0.75,0.6c0.24,0.1,0.48,0.11,0.72,0.11c7.83,0,21.6,0,34.24,0c11.98,0,22.92,0,26.78,0h1.11
			c0.03-2.76,0.31-5.9,0.97-9.04c0.6-2.82,2.24-6.66,3.55-8.58c4.12-6.07,9.67-4.72,11.55-3.27c3.26,2.53,4.53,7.38,4.53,11.28
			c0,4.71-0.73,6.76-1.25,8.74h1.72c1.56,0,3.39,0,5.3,0c3.75,0,7.84,0,10.89,0c5.51,0,11.01,0,16.53,0c3.31,0,5.47,0,9.6,0
			c0.24,0,0.47-0.04,0.62-0.22c0.32-0.37-0.65-3.43,0.13-8.02c0.43-2.56,1.09-5.05,2.33-7.35c1.13-2.11,3.42-5.8,6.49-5.56
			c3.83,0.31,6.02,5.06,6.61,7.89c1.01,4.84,0.42,7.79-0.06,10.47c-0.19,1.08,0.72,0.42,1.29,0.1c0.88-0.51,1.34-0.77,1.91-1.46
			c0.69-0.85,0.6-1.8,0.71-2.84c0.26-2.58,0.76-5,0-7.79C250.32,149.05,251.41,146.71,251.34,144.35z"/>
		<path class="st17" d="M137.04,125.05c-1.43-0.03-2.99,0.14-4.27,0.79c-1,0.51-2.78,2.2-1.82,3.43c0.57,0.72,1.54,0.01,2.04-0.35
			c0.62-0.45,3.61-2.35,4.26-2.83C138.2,125.37,138.23,125.07,137.04,125.05z"/>
		
			<linearGradient id="SVGID_11_" gradientUnits="userSpaceOnUse" x1="242.3975" y1="-27.4273" x2="187.4008" y2="-34.282" gradientTransform="matrix(1 0 0 1 0 160)">
			<stop  offset="0" style="stop-color:#2F6790"/>
			<stop  offset="0.0572" style="stop-color:#2E638B"/>
			<stop  offset="0.4698" style="stop-color:#24476B"/>
			<stop  offset="0.7984" style="stop-color:#1D3758"/>
			<stop  offset="1" style="stop-color:#1B3152"/>
		</linearGradient>
		<path class="st18" d="M196.81,115.58c-9.68-1.05-19.25-1.18-30-0.9c-2.35,0.06-5.63,0.29-7.84,0.56
			c-2.44,0.31-3.32,0.64-6.11,1.89c-2.15,0.96-4.4,2.19-6.4,3.42c-1.92,1.19-8.38,5.44-11.34,7.98c-0.62,0.53-2.45,1.96-0.76,1.85
			c5.13-0.35,14.81-0.59,19.49-0.57c15.37,0.05,22.17,1.29,24.54,1.25c0.92-0.02,2.04,0.23,2.89-0.23c0.87-0.46,1.69-1.65,2.36-2.37
			c1.79-1.95,9.14-9.26,11.03-10.93C194.92,117.28,195.84,116.39,196.81,115.58z"/>
		
			<linearGradient id="SVGID_12_" gradientUnits="userSpaceOnUse" x1="141.1326" y1="-15.4763" x2="177.9326" y2="-15.4763" gradientTransform="matrix(1 0 0 1 0 160)">
			<stop  offset="0" style="stop-color:#EDEDEE"/>
			<stop  offset="0.2458" style="stop-color:#E9E9E9"/>
			<stop  offset="0.5004" style="stop-color:#DCDCDD"/>
			<stop  offset="0.7581" style="stop-color:#CAC9C9"/>
			<stop  offset="1" style="stop-color:#B3B3B3"/>
		</linearGradient>
		<path class="st19" d="M169.08,140.92c-1.19-0.26-2.39-0.48-3.6-0.58c-2.36-0.19-4.96,0.45-7.25,0.96
			c-4.75,1.06-15.39,3.6-16.41,3.85c-1.51,0.39-0.23,0.94,0.84,1.57c1.91,1.13,3.52,2.06,5.8,2.03c4.55-0.07,9.32-0.39,13.71-1.13
			c2.41-0.4,4.42-0.93,6.52-2.17c0.9-0.54,2.21-1.59,2.96-2.33c0.25-0.24,0.73-0.78,0.81-1.13
			C172.54,141.64,169.45,140.99,169.08,140.92z"/>
		<path class="st7" d="M108.14,145.39c0-0.32-0.36-0.7-0.57-0.98c-0.35-0.5-0.56-1.23-0.63-1.85c-0.08-0.7,0.12-2.46-0.5-2.23
			c-0.57,0.22-1.59,1.05-2.07,1.49c-1.05,0.96-0.93,2.1-0.87,3.42c0.04,0.93,0.58,4.56,1.93,3.21c0.56-0.56,0.94-1.02,1.5-1.62
			C107.4,146.34,108.14,145.76,108.14,145.39z"/>
		<path class="st10" d="M138.2,165.56c-0.97-0.54-1.42-0.73-2.7-0.73c-2.59,0-22.13,0-26.49,0c-1.84,0-2.56-0.17-4.03,1.17
			c-1.36,1.24,0.41,1.04,1.27,1.04c5.5,0,28.72,0,32.87,0c0.35,0,0.51-0.23,0.38-0.49C139.37,166.31,138.57,165.77,138.2,165.56z"/>
		<path class="st10" d="M140.38,148.91c-1.02-0.97-2.31-2.11-3.54-2.83c-0.93-0.56-2.45-0.85-4.39-0.8c-3.39,0.1-8.21,0.3-11.91,0.3
			c-3.36,0-5.6,0.03-8.75-0.16c-1.59-0.1-2.45-0.3-3.55,0.6c-1.08,0.89-2.65,2.99-3.27,4.26c-0.43,0.88-0.1,2.49,0.56,4.3
			c0.52,1.42,2.16,4.89,2.93,6.2c0.44,0.76,1.79,1.44,3.15,1.44c1.62,0,16.41,0,19.78,0c1.66,0,2.62-0.75,3.39-1.57
			c1.38-1.5,5.31-6.65,6.18-8.04C141.88,151.15,141.53,150,140.38,148.91z"/>
		<path class="st12" d="M126.81,158.93h-13.36c-1.46,0-2.63-1.17-2.63-2.63l0,0c0-1.46,1.17-2.63,2.63-2.63h13.36
			c1.46,0,2.63,1.17,2.63,2.63l0,0C129.44,157.75,128.27,158.93,126.81,158.93z"/>
		<path class="st10" d="M160.47,157.62c-0.63-0.84-2.19-2.86-3.23-3.71c-0.96-0.78-2.61-0.69-4.14-0.69c-0.32,0-0.35,0.22-0.21,0.44
			c0.75,1.17,1.46,2.29,2.24,3.43c0.85,1.23,1.61,2.12,1.15,3.62c-0.14,0.47-0.91,0.96-1.81,1.18c-1.3,0.33-9.26,1.69-11.96,2.2
			c-0.25,0.05-0.19,0.29-0.02,0.45c0.56,0.51,2.12,0.31,3.07,0.23c1.37-0.13,11.1-1.24,12.37-1.46c1.14-0.2,1.9-0.68,2.49-1.17
			c0.55-0.45,1.08-1.12,1.17-1.66C161.84,159.23,161.18,158.57,160.47,157.62z"/>
		<path class="st10" d="M104.05,164c-0.1-0.39-0.67-1.64-0.8-2.61c-0.11-0.88-0.08-1.85-0.08-2.77c0.01-1.67,0.05-2.87,0.1-4.57
			c0.01-0.36-0.37-0.64-0.49-0.68c-0.39-0.17-0.81-0.25-1.25-0.26c-0.19,0-0.3,0.2-0.3,0.35c0,0,0.2,6.16,0.27,6.91
			c0.05,0.55,0.12,1.21,0.23,1.75c0.21,0.96,0.56,2.16,1.55,2.75C103.98,165.28,104.19,164.52,104.05,164z"/>
		<ellipse class="st20" cx="159.74" cy="159.08" rx="1.17" ry="1.24"/>
		<path class="st21" d="M103.18,158.29c0,0.1,0,0.21,0,0.32c0,0.41-0.01,0.84-0.01,1.26c-0.22,0.27-0.54,0.44-0.9,0.44
			c-0.31,0-0.59-0.13-0.8-0.33c-0.23-0.23-0.37-0.55-0.37-0.9c0-0.31,0.11-0.6,0.3-0.82c0.21-0.26,0.52-0.42,0.87-0.42
			C102.63,157.84,102.96,158.02,103.18,158.29z"/>
		<ellipse class="st21" cx="159.21" cy="159.08" rx="1.17" ry="1.24"/>
		
			<linearGradient id="SVGID_13_" gradientUnits="userSpaceOnUse" x1="184.3807" y1="-21.9422" x2="243.5914" y2="-21.9422" gradientTransform="matrix(1 0 0 1 0 160)">
			<stop  offset="0" style="stop-color:#1395C0"/>
			<stop  offset="0.2364" style="stop-color:#1292BF"/>
			<stop  offset="0.4814" style="stop-color:#0E8BBB"/>
			<stop  offset="0.7303" style="stop-color:#0A7FB5"/>
			<stop  offset="0.9805" style="stop-color:#0370AE"/>
			<stop  offset="1" style="stop-color:#026FAD"/>
		</linearGradient>
		<path class="st22" d="M243.78,134.01c-7.76,0.35-39.47,3.52-47.53,4.59c-2.03,0.27-4.1,0.44-6.12,0.73
			c-0.9,0.13-5.04,0.52-5.04,1.47c0,1.07,2.3,1.24,3.9,1.3c2,0.06,3.93,0.02,5.82-0.34c3.89-0.73,7.51-1.87,11.38-2.7
			c3.97-0.85,8.03-1.51,12.06-1.96c4.67-0.52,23.33-2.39,24.44-2.51c0.31-0.03,2.12-0.15,2.3-0.43
			C245.11,133.96,244.1,133.99,243.78,134.01z"/>
		<path class="st23" d="M226.53,154.6c-1.45-0.18-2.9-0.09-4.34,0.02c-2.82,0.21-20.07,1.83-25.86,2.53
			c-0.6,0.07-6.08,0.7-5.38,1.69c0.23,0.31,1.34,0.2,1.67,0.21c1.26,0.02,27.87-2.08,31.22-2.34c1.46-0.11,6.32-0.38,6.41-0.84
			C230.36,155.34,227.61,154.73,226.53,154.6z"/>
		<path class="st3" d="M159.32,141.97c-1.08,0-1.96,1.07-1.96,2.39c0,1.32,0.88,2.39,1.96,2.39c1.08,0,1.96-1.07,1.96-2.39
			C161.28,143.04,160.4,141.97,159.32,141.97z M159.32,145.76c-0.63,0-1.14-0.63-1.14-1.4c0-0.77,0.51-1.4,1.14-1.4
			c0.63,0,1.14,0.63,1.14,1.4C160.47,145.13,159.95,145.76,159.32,145.76z"/>
		<path class="st3" d="M166.68,142.31c0.39-1.47-1.15-1.46-2.6-1.45c-0.35,0.01-2.91,0.17-2.84,0.45c0.08,0.32,2.74,0.3,3.23,0.35
			c1.77,0.19-0.64,3.35-1.42,3.86c-1.61,1.05-3.89,1.15-5.74,1.4c-2.53,0.34-5.1,0.6-7.67,0.79c-0.86,0.06-1.65,0.07-1.97,0.31
			c-0.3,0.23,0.66,0.23,0.97,0.23c2.33-0.07,4.66-0.23,6.98-0.45c2.45-0.23,4.95-0.38,7.28-0.99c1.14-0.3,1.89-1.09,2.53-2.05
			C165.89,144.05,166.45,143.17,166.68,142.31z"/>
		
			<linearGradient id="SVGID_14_" gradientUnits="userSpaceOnUse" x1="147.0046" y1="-15.8138" x2="230.7587" y2="-35.5671" gradientTransform="matrix(1 0 0 1 0 160)">
			<stop  offset="0" style="stop-color:#1395C0"/>
			<stop  offset="0.2364" style="stop-color:#1292BF"/>
			<stop  offset="0.4814" style="stop-color:#0E8BBB"/>
			<stop  offset="0.7303" style="stop-color:#0A7FB5"/>
			<stop  offset="0.9805" style="stop-color:#0370AE"/>
			<stop  offset="1" style="stop-color:#026FAD"/>
		</linearGradient>
		<path class="st24" d="M229.85,130.08c-0.37-0.65-19.87-0.06-30.78,0.41c-1.71,0.07-14.7,0.93-16.4,1.03
			c-3.48,0.19-7.13,0.78-10.56,1.38c-6.36,1.1-12.67,2.56-22.07,5.67c-1.76,0.58-10.15,4.01-11.14,5.11
			c-0.54,0.6,2.57-1.21,6.61-2.52c8.21-2.65,16.37-4.55,26.95-6.1c2.77-0.4,6.47-0.39,8.08-0.36c1.89,0.03,5.49,0.02,7.38,0.01
			c3.22-0.02,6.36-0.57,11.96-1.06C207.97,132.92,230.38,130.99,229.85,130.08z"/>
		
			<linearGradient id="SVGID_15_" gradientUnits="userSpaceOnUse" x1="242.0787" y1="-30.7398" x2="187.9253" y2="-37.4894" gradientTransform="matrix(1 0 0 1 0 160)">
			<stop  offset="0" style="stop-color:#2F6790"/>
			<stop  offset="0.0572" style="stop-color:#2E638B"/>
			<stop  offset="0.4698" style="stop-color:#24476B"/>
			<stop  offset="0.7984" style="stop-color:#1D3758"/>
			<stop  offset="1" style="stop-color:#1B3152"/>
		</linearGradient>
		<path class="st25" d="M235.49,125.07c-0.43-0.43-6.22-4.08-9.57-5.62c-3.37-1.54-6.65-2.7-10.32-3.25
			c-3.75-0.56-7.52-0.87-11.3-0.37c-3.27,0.43-5.89,2.28-8.3,4.41c-2.66,2.37-5.06,5.09-7.45,7.6c-0.53,0.56-2.88,2.9-2.45,3.54
			c0.36,0.54,1.78,0.78,2.38,0.89c0.94,0.18,1.89,0.32,2.85,0.43c0.74,0.08,1.52,0.14,2.27,0.15c3.4,0.02,16.63-1.05,20.54-1.31
			c4.34-0.3,8.68-0.64,13.02-1c0.9-0.07,1.98-0.16,2.85-0.42c0.95-0.27,1.79-0.65,2.62-1.16
			C233.17,128.63,236.54,126.12,235.49,125.07z"/>
		<g>
			
				<linearGradient id="SVGID_16_" gradientUnits="userSpaceOnUse" x1="259.2141" y1="-36.3829" x2="188.6826" y2="-36.3829" gradientTransform="matrix(1 0 0 1 0 160)">
				<stop  offset="0" style="stop-color:#31B4BE"/>
				<stop  offset="1" style="stop-color:#254F79"/>
			</linearGradient>
			<path class="st26" d="M165.13,118.13c-5.62,0.18-9.63,1.44-13.83,3.26c-3.59,1.55-9.85,5.51-11.51,7.12
				c-0.19,0.19-0.39,0.59-0.11,0.59c1.23,0,2.26,0,3.63,0c1.18,0,2.26-0.57,3.39-0.89c2.47-0.71,5.07-0.89,7.62-0.88
				c0.18,0,0.17-0.15,0.24-0.27c1.11-1.78,4.43-1.63,6.29-0.73c0.1,0.05,0.48,0.11,0.61-0.16c0.97-2.07,2.88-5.69,3.96-7.54
				C165.53,118.46,165.61,118.12,165.13,118.13z"/>
			
				<linearGradient id="SVGID_17_" gradientUnits="userSpaceOnUse" x1="259.2139" y1="-32.1152" x2="188.6823" y2="-32.1152" gradientTransform="matrix(1 0 0 1 0 160)">
				<stop  offset="0" style="stop-color:#31B4BE"/>
				<stop  offset="1" style="stop-color:#254F79"/>
			</linearGradient>
			<path class="st27" d="M161.01,127.38c-0.97-0.62-2.74-0.92-3.78-0.25c-0.17,0.1-0.49,0.3,0.01,0.43
				c0.26,0.06,0.51,0.15,0.64,0.33c0.19,0.27,0.17,0.91,0.59,1.07c0.26,0.1,1.7,0.06,2.05,0.05c0.1,0,0.22-0.01,0.27-0.14
				c0.07-0.2,0.31-1,0.4-1.21C161.23,127.52,161.09,127.44,161.01,127.38z"/>
			
				<linearGradient id="SVGID_18_" gradientUnits="userSpaceOnUse" x1="259.214" y1="-35.7554" x2="188.6825" y2="-35.7554" gradientTransform="matrix(1 0 0 1 0 160)">
				<stop  offset="0" style="stop-color:#31B4BE"/>
				<stop  offset="1" style="stop-color:#254F79"/>
			</linearGradient>
			<path class="st28" d="M186.62,123.06c-4.78-3.16-8.88-4.18-14.03-4.58c-0.57-0.04-0.75-0.1-1.09,0.43
				c-0.39,0.61-3.25,7.68-3.85,9.63c-0.13,0.41-0.2,0.64,0.39,0.68c4.41,0.2,7.19,0.44,11.8,0.8c0.72,0.06,1.14-0.01,1.65-0.51
				c0.82-0.8,3.6-3.68,5.24-5.37C187.29,123.55,186.95,123.28,186.62,123.06z M181.81,126.94h-7.72c-0.56,0-0.96-0.46-0.9-1.01
				l0.32-3.27c0.04-0.43,0.46-0.77,0.93-0.77h6.58c0.47,0,0.92,0.34,1,0.77l0.61,3.27C182.73,126.49,182.37,126.94,181.81,126.94z"
				/>
			
				<linearGradient id="SVGID_19_" gradientUnits="userSpaceOnUse" x1="259.214" y1="-38.2337" x2="188.6825" y2="-38.2337" gradientTransform="matrix(1 0 0 1 0 160)">
				<stop  offset="0" style="stop-color:#31B4BE"/>
				<stop  offset="1" style="stop-color:#254F79"/>
			</linearGradient>
			<path class="st29" d="M208.87,124.22c-0.13-0.91-0.23-1.75-0.43-2.64c-0.17-0.77-0.27-1.7-0.56-2.44
				c-0.19-0.48-0.55-0.76-1.07-0.74c-1.67,0.07-4.15-0.05-6.07,0.59c-1.66,0.55-3.12,1.54-4.33,2.66c-0.13,0.12-0.37,0.34-0.24,0.55
				c0.06,0.09,0.18,0.19,0.26,0.27c0.23,0.19,1.34,1.15,1.59,1.33c0.23,0.17,0.74,0.57,1.21,0.23c0.36-0.27,0.51-0.94,0.76-1.32
				c0.48-0.73,1.04-0.96,1.92-1.01c0.71-0.04,3.08-0.05,4.27-0.05c0.87,0,1.2,1.46,1.38,2.02c0.15,0.44,0.28,0.91,0.57,1.36
				C208.34,125.32,208.99,125.02,208.87,124.22z"/>
			
				<linearGradient id="SVGID_20_" gradientUnits="userSpaceOnUse" x1="259.2141" y1="-36.0463" x2="188.6826" y2="-36.0463" gradientTransform="matrix(1 0 0 1 0 160)">
				<stop  offset="0" style="stop-color:#31B4BE"/>
				<stop  offset="1" style="stop-color:#254F79"/>
			</linearGradient>
			<path class="st30" d="M231.58,126.9c-1.55-1.31-5-3.69-8.26-5.09c-3.19-1.37-5.04-2.1-9.51-2.94c-0.22-0.04-0.33,0.16-0.26,0.41
				c0.96,3.4,1.81,6.82,2.11,8.26c0.16,0.76,0.3,1.42,0.44,1.47c0.27,0.1,0.5-0.27,0.51-0.59c0.06-0.99,0.16-2.37,0.43-3.07
				c0.31-0.79,1.24-0.67,1.82-0.67c1.14,0,4.01-0.08,4.64-0.08c0.91,0,1.13,0.88,1.26,1.37c0.12,0.47,0.16,0.76,0.29,1.22
				c0.06,0.25,0.28,0.39,0.49,0.39c0.98,0,4.63-0.03,5.74-0.03C231.68,127.58,231.97,127.24,231.58,126.9z"/>
		</g>
		<path class="st3" d="M235.49,125.07c-0.08-0.08-0.33-0.26-0.71-0.51c0.72,1.11-2.39,3.46-2.9,3.78c-0.82,0.51-1.63,0.87-2.56,1.14
			c-0.85,0.25-1.94,0.36-2.82,0.43c-4.27,0.35-8.54,0.7-12.81,1c-3.85,0.27-16.87,1.33-20.21,1.31c-0.73,0-1.5-0.06-2.23-0.15
			c-0.94-0.1-1.87-0.25-2.8-0.43c-0.57-0.11-1.88-0.34-2.29-0.84c-0.1,0.24-0.14,0.44-0.05,0.57c0.36,0.54,1.78,0.78,2.38,0.89
			c0.94,0.18,1.89,0.32,2.85,0.43c0.74,0.08,1.52,0.14,2.27,0.15c3.4,0.02,16.63-1.05,20.54-1.31c4.34-0.3,8.68-0.64,13.02-1
			c0.9-0.07,1.98-0.16,2.85-0.42c0.95-0.27,1.79-0.65,2.62-1.16C233.17,128.63,236.54,126.12,235.49,125.07z"/>
		<path class="st17" d="M205.31,128.84c-0.42-2.19-5-2.99-6.86-3.11c-1.3-0.08-2.77-0.19-3.75,0.72c-0.84,0.79-1.36,1.9-1.46,3.05
			c-0.09,1.01,0.33,2.2,1.18,2.83c0.99,0.73,3.2,0.55,4.35,0.4C200.89,132.46,205.9,131.97,205.31,128.84z"/>
		<path class="st31" d="M181.44,154.9c-0.1-0.19-0.39-0.1-0.39,0.11c0.01,0.21,0.02,0.41,0.02,0.62c0,4.62-2.16,8.37-4.81,8.37
			c-0.94,0-1.81-0.47-2.55-1.27c-0.14-0.14-0.39-0.02-0.35,0.18c0.55,3.57,2.42,6.21,4.65,6.21c2.66,0,4.81-3.75,4.81-8.37
			C182.81,158.46,182.29,156.4,181.44,154.9z"/>
		<path class="st31" d="M242.12,154.9c-0.1-0.19-0.39-0.1-0.39,0.11c0.01,0.21,0.02,0.41,0.02,0.62c0,4.62-2.16,8.37-4.81,8.37
			c-0.94,0-1.81-0.47-2.55-1.27c-0.14-0.14-0.39-0.02-0.35,0.18c0.55,3.57,2.42,6.21,4.65,6.21c2.66,0,4.81-3.75,4.81-8.37
			C243.48,158.46,242.96,156.4,242.12,154.9z"/>
		<g>
			<g>
				<g>
					<defs>
						<polygon id="SVGID_21_" points="7.16,8.93 7.96,8.93 7.16,9.74 						"/>
					</defs>
					<clipPath id="SVGID_22_">
						<use xlink:href="#SVGID_21_"  style="overflow:visible;"/>
					</clipPath>
				</g>
				<g>
					<defs>
						<polygon id="SVGID_23_" points="7.16,8.93 7.96,8.93 7.16,9.74 						"/>
					</defs>
					<defs>
						<polygon id="SVGID_24_" points="5.55,7.33 4.75,7.33 5.55,6.52 						"/>
					</defs>
					<clipPath id="SVGID_25_">
						<use xlink:href="#SVGID_23_"  style="overflow:visible;"/>
					</clipPath>
					<clipPath id="SVGID_26_" class="st32">
						<use xlink:href="#SVGID_24_"  style="overflow:visible;"/>
					</clipPath>
					
						<linearGradient id="SVGID_27_" gradientUnits="userSpaceOnUse" x1="167.389" y1="-42.4703" x2="183.461" y2="17.511" gradientTransform="matrix(1 0 0 1 0 160)">
						<stop  offset="0" style="stop-color:#FFFFFF"/>
						<stop  offset="1" style="stop-color:#808080"/>
					</linearGradient>
					<path class="st33" d="M250.95,151.37c-0.64-2.32,0.47-4.67,0.39-7.02c-0.03-1.07-0.33-1.98-0.82-2.9
						c-0.65-1.23-0.35-2.3-0.27-3.61c0.06-0.99,0.09-2.04-0.12-3.02c-0.27-1.22-1.09-1.6-1.86-2.47c-0.64-0.72-0.99-1.49-2-1.78
						c-0.56-0.16-0.89-0.2-1.4-0.51c-0.62-0.37-1.22-0.77-1.81-1.18c-4.24-2.95-8.02-6.39-12.57-8.92
						c-4.45-2.49-9.28-4.35-14.28-5.45c-5.09-1.1-10.31-1.55-15.5-1.94c-5.38-0.4-10.77-0.46-16.17-0.45
						c-5.62,0.01-12.84,0.4-18.46,1c-2.53,0.27-4.93,0.77-7.35,1.37c-2.65,0.65-4.77,1.48-7.13,2.53
						c-6.51,2.9-17.73,10.84-20.55,12.83c-0.72,0.51-1.81,1.05-2.86,1.27c-4.24,0.89-8.3,2.46-10.95,4.01
						c-0.93,0.55-1.77,1.09-2.7,1.65c-1.01,0.61-1.99,0.91-3.07,1.38c-1.1,0.48-2.3,0.87-3.33,1.36c-1.02,0.49-1.72,0.9-2.64,1.57
						c-0.8,0.58-1.67,1.52-1.82,2.51c-0.14,0.92,0.25,2.21-0.28,3.03c-0.14,0.21-0.73,0.69-0.93,0.83
						c-1.04,0.71-1.11,2.32-1.16,3.52c-0.14,3.45,0.38,6.6,0.2,8.5c-0.11,1.17-0.34,2.35-0.06,3.51c0.2,0.85,0.76,2.48,1.58,2.94
						c0.34,0.19,0.62,0.17,0.94,0.43c0.27,0.21,0.42,0.47,0.75,0.6c0.24,0.1,0.48,0.11,0.72,0.11c7.83,0,21.6,0,34.24,0
						c11.98,0,22.92,0,26.78,0h1.11c0.03-2.76,0.31-5.9,0.97-9.04c0.6-2.82,2.24-6.66,3.55-8.58c4.12-6.07,9.67-4.72,11.55-3.27
						c3.26,2.53,4.53,7.38,4.53,11.28c0,4.71-0.73,6.76-1.25,8.74h1.72c1.56,0,3.39,0,5.3,0c3.75,0,7.84,0,10.89,0
						c5.51,0,11.01,0,16.53,0c3.31,0,5.47,0,9.6,0c0.24,0,0.47-0.04,0.62-0.22c0.32-0.37-0.65-3.43,0.13-8.02
						c0.43-2.56,1.09-5.05,2.33-7.35c1.13-2.11,3.42-5.8,6.49-5.56c3.83,0.31,6.02,5.06,6.61,7.89c1.01,4.84,0.42,7.79-0.06,10.47
						c-0.19,1.08,0.72,0.42,1.29,0.1c0.88-0.51,1.34-0.77,1.91-1.46c0.69-0.85,0.6-1.8,0.71-2.84
						C251.21,156.58,251.71,154.16,250.95,151.37z M183.61,128.46c-0.67,0.72-1.5,1.91-2.36,2.37c-0.84,0.45-1.97,0.21-2.89,0.23
						c-2.37,0.04-9.16-1.2-24.54-1.25c-4.67-0.02-14.36,0.22-19.49,0.57c-1.68,0.11,0.15-1.32,0.76-1.85
						c2.96-2.53,9.41-6.79,11.34-7.98c2-1.23,4.25-2.46,6.4-3.42c2.79-1.25,3.68-1.59,6.11-1.89c2.2-0.27,5.49-0.5,7.84-0.56
						c10.75-0.28,20.32-0.14,30,0.9c-0.97,0.8-1.89,1.7-2.16,1.95C192.75,119.2,185.41,126.51,183.61,128.46z M232.63,128.96
						c-0.84,0.51-1.67,0.89-2.62,1.16c-0.87,0.25-1.95,0.35-2.85,0.42c-4.34,0.35-8.68,0.7-13.02,1c-2.5,0.17-8.79,0.67-13.89,1
						c2.37-0.36,5.54-1.17,5.06-3.7c-0.42-2.19-5-2.99-6.86-3.11c-1.3-0.08-2.77-0.19-3.75,0.72c-0.84,0.79-1.36,1.9-1.46,3.05
						c-0.09,1.01,0.33,2.2,1.18,2.83c0.34,0.25,0.81,0.39,1.34,0.47c-0.89,0.04-1.64,0.06-2.15,0.06c-0.74,0-1.53-0.06-2.27-0.15
						c-0.96-0.1-1.91-0.25-2.85-0.43c-0.6-0.11-2.01-0.35-2.38-0.89c-0.43-0.64,1.92-2.98,2.45-3.54c2.39-2.52,4.8-5.24,7.45-7.6
						c2.41-2.14,5.02-3.98,8.3-4.41c3.77-0.5,7.56-0.19,11.3,0.37c3.67,0.55,6.94,1.71,10.32,3.25c3.35,1.54,9.14,5.19,9.57,5.62
						C236.54,126.12,233.17,128.63,232.63,128.96z"/>
				</g>
			</g>
		</g>
		<g>
			<path class="st34" d="M110.12,145.12c-0.07,0-0.14-0.06-0.15-0.13c-0.31-1.65,0.13-3.34,1.29-5.02
				c2.99-4.33,10.7-8.14,19.63-9.72c0.09-0.02,0.17,0.04,0.19,0.13c0.02,0.09-0.04,0.17-0.13,0.19c-8.85,1.57-16.47,5.33-19.42,9.59
				c-1.11,1.61-1.53,3.22-1.24,4.78c0.02,0.09-0.04,0.17-0.13,0.19C110.14,145.12,110.13,145.12,110.12,145.12z"/>
			<g>
				<path class="st34" d="M242.33,139.9c-0.88,0-1.87-1.22-2.33-2.95c-0.35-1.3-0.31-2.53,0.1-3.24c0.17-0.29,0.39-0.47,0.66-0.54
					c0.93-0.24,2.05,1.05,2.56,2.92c0.35,1.3,0.31,2.53-0.1,3.24c-0.17,0.29-0.39,0.47-0.66,0.54
					C242.48,139.89,242.41,139.9,242.33,139.9z M240.99,133.45c-0.06,0-0.1,0.01-0.15,0.02c-0.19,0.05-0.34,0.18-0.47,0.39
					c-0.36,0.63-0.39,1.8-0.07,3c0.44,1.65,1.44,2.89,2.18,2.7c0.19-0.05,0.34-0.18,0.47-0.39c0.36-0.63,0.39-1.8,0.07-3
					C242.6,134.63,241.71,133.45,240.99,133.45z"/>
			</g>
			<g>
				<path class="st34" d="M211.26,140.2c-0.51,0-0.9-0.26-1.06-0.7c-0.03-0.08,0.01-0.17,0.1-0.2c0.08-0.03,0.17,0.01,0.2,0.1
					c0.06,0.15,0.24,0.51,0.8,0.49c1.74-0.05,2.19-0.07,3.49-0.26c1.04-0.14,1.45-0.38,1.45-0.83c0-0.09,0.07-0.16,0.16-0.16
					c0.09,0,0.16,0.07,0.16,0.16c0,0.79-0.83,1.01-1.71,1.13c-1.32,0.19-1.78,0.21-3.52,0.27
					C211.28,140.2,211.28,140.2,211.26,140.2z"/>
			</g>
			<g>
				<path class="st34" d="M232.74,138.07c-0.02,0-0.06,0-0.08,0c-0.26,0-0.48-0.05-0.68-0.14c-0.23-0.1-0.4-0.32-0.45-0.57
					c-0.02-0.09,0.04-0.17,0.12-0.19c0.09-0.02,0.17,0.04,0.19,0.12c0.03,0.15,0.14,0.29,0.27,0.35c0.14,0.07,0.33,0.1,0.54,0.1
					c1.01,0,1.91-0.08,2.91-0.19h0.02c0.46-0.05,0.97-0.1,1.19-0.42c0.05-0.07,0.14-0.1,0.22-0.05c0.07,0.05,0.1,0.14,0.05,0.22
					c-0.29,0.44-0.92,0.51-1.42,0.56h-0.02C234.63,137.98,233.73,138.07,232.74,138.07z"/>
			</g>
			<g>
				<path class="st34" d="M162.32,140.65c-0.09,0-0.15-0.07-0.16-0.15c-0.02-1.16,0.43-1.33,1.01-1.55l0.06-0.02
					c4.47-1.73,10.63-3.25,13.94-4.07c0.71-0.18,1.27-0.31,1.63-0.41c0.29-0.08,0.49-0.39,0.52-0.47c0.34-0.93,0.5-1.65,0.56-2.5
					c0.01-0.18-0.06-0.27-0.23-0.32c-0.08-0.02-0.13-0.11-0.1-0.19c0.02-0.08,0.11-0.13,0.19-0.1c0.32,0.09,0.48,0.32,0.46,0.64
					c-0.06,0.89-0.23,1.63-0.58,2.59c-0.06,0.16-0.32,0.55-0.73,0.66c-0.36,0.1-0.93,0.23-1.64,0.41c-3.3,0.82-9.44,2.34-13.9,4.06
					l-0.06,0.02c-0.54,0.21-0.81,0.31-0.8,1.26C162.48,140.57,162.41,140.65,162.32,140.65L162.32,140.65z"/>
			</g>
			<g>
				<path class="st34" d="M148.33,148.89c-2.28,0-3.89-0.95-5.75-2.04c-0.13-0.08-0.27-0.15-0.4-0.23c-0.7-0.39-1.26-0.71-1.21-1.09
					c0.03-0.23,0.28-0.4,0.8-0.54c0.08-0.02,0.17,0.03,0.19,0.11c0.02,0.08-0.03,0.17-0.11,0.19c-0.55,0.14-0.57,0.27-0.57,0.27
					c-0.02,0.17,0.62,0.53,1.05,0.77c0.14,0.08,0.27,0.15,0.41,0.23c1.82,1.07,3.4,2,5.59,2c0.04,0,0.08,0,0.12,0
					c5.12-0.08,9.72-0.46,13.69-1.12c2.38-0.4,4.39-0.92,6.47-2.15c0.91-0.55,2.2-1.6,2.93-2.3c0.26-0.25,0.66-0.72,0.76-1.01
					c-0.1-0.08-0.61-0.35-3.17-0.9l-0.08-0.02c-1.05-0.23-2.3-0.47-3.58-0.58c-0.09-0.01-0.15-0.08-0.14-0.17
					c0.01-0.09,0.08-0.15,0.17-0.14c1.3,0.1,2.56,0.35,3.62,0.59l0.08,0.02c3.15,0.67,3.32,0.95,3.39,1.05
					c0.05,0.07,0.04,0.14,0.03,0.18c-0.11,0.47-0.78,1.13-0.86,1.21c-0.74,0.72-2.06,1.79-2.99,2.35c-2.12,1.26-4.16,1.79-6.57,2.19
					c-3.97,0.67-8.59,1.05-13.73,1.13C148.42,148.89,148.38,148.89,148.33,148.89z"/>
			</g>
			<g>
				<path class="st34" d="M225.84,162.6h-38.05c-0.09,0-0.16-0.07-0.16-0.16c0-0.09,0.07-0.16,0.16-0.16h38.05
					c2.9,0,3.27-0.98,3.69-2.12l0.04-0.1c0.3-0.78,0.62-2.08,0.93-3.33c0.25-0.98,0.5-2,0.74-2.75c0.68-2.18,1.78-4.41,2.93-5.97
					c0.25-0.34,0.52-0.68,0.8-1.05c0.93-1.19,1.9-2.42,2.31-3.69c0.75-2.29,1.01-4.86,0.84-8.34c-0.03-0.75-0.24-1.5-0.44-2.22
					c-0.18-0.64-0.36-1.3-0.43-1.96l-0.01-0.06c-0.23-2.39-0.38-4.11-1.79-5.39c-0.06-0.06-0.07-0.16-0.01-0.23
					c0.06-0.06,0.16-0.07,0.23-0.01c1.49,1.36,1.66,3.14,1.88,5.59l0.01,0.06c0.06,0.63,0.23,1.25,0.41,1.91
					c0.21,0.74,0.42,1.5,0.46,2.29c0.16,3.52-0.1,6.13-0.86,8.46c-0.43,1.31-1.41,2.57-2.36,3.78c-0.28,0.36-0.55,0.7-0.8,1.04
					c-1.13,1.54-2.2,3.73-2.88,5.88c-0.23,0.74-0.49,1.75-0.73,2.74c-0.31,1.26-0.64,2.57-0.94,3.37l-0.04,0.1
					C229.38,161.47,228.95,162.6,225.84,162.6z"/>
			</g>
			<g>
				<path class="st34" d="M215.7,162.6c-0.01,0-0.01,0-0.02,0c-0.09-0.01-0.14-0.09-0.14-0.18c0.03-0.3,0.08-0.64,0.13-1.02
					c0.17-1.32,0.38-2.95,0.35-3.97c-0.01-0.22-0.08-0.56-0.15-0.93c-0.1-0.49-0.22-1.05-0.23-1.51c-0.02-1.2,1.01-7.58,1.22-8.84
					c0.32-1.94,0.23-6.01,0.02-7.96c-0.06-0.6-0.06-1.17-0.06-1.72c0-0.65,0-1.33-0.1-2.04c-0.17-1.19-0.97-2.33-1.63-3.18
					c-0.06-0.06-0.04-0.17,0.02-0.22c0.06-0.06,0.17-0.04,0.22,0.02c0.7,0.89,1.52,2.06,1.7,3.32c0.1,0.73,0.1,1.42,0.1,2.08
					c0,0.55,0,1.11,0.06,1.69c0.21,1.96,0.31,6.07-0.02,8.04c-0.57,3.48-1.24,7.89-1.21,8.79c0.01,0.44,0.12,0.98,0.22,1.46
					c0.08,0.39,0.15,0.74,0.16,0.98c0.03,1.03-0.18,2.69-0.35,4.01c-0.05,0.38-0.09,0.72-0.13,1.01
					C215.85,162.54,215.78,162.6,215.7,162.6z"/>
			</g>
			<g>
				<path class="st34" d="M190.24,162.6c-0.01,0-0.01,0-0.02,0c-0.09-0.01-0.14-0.09-0.14-0.17c0.69-6.53,0.51-10.85,0.13-17.92
					c-0.01-0.17-0.04-0.48-0.08-0.84c-0.09-0.86-0.21-2.04-0.17-2.74c0.01-0.11,0.02-0.27,0.04-0.44c0.06-0.58,0.15-1.46,0-2.16
					c-0.25-1.19-0.65-2.38-1.04-3.52c-0.3-0.88-0.6-1.79-0.84-2.7c-0.02-0.08,0.03-0.17,0.11-0.19c0.08-0.02,0.17,0.03,0.19,0.11
					c0.23,0.89,0.54,1.8,0.84,2.67c0.39,1.16,0.8,2.35,1.05,3.56c0.15,0.76,0.06,1.66,0,2.25c-0.02,0.17-0.03,0.31-0.04,0.43
					c-0.03,0.68,0.09,1.84,0.17,2.69c0.04,0.38,0.07,0.68,0.08,0.85c0.39,7.09,0.56,11.42-0.13,17.97
					C190.39,162.54,190.32,162.6,190.24,162.6z"/>
			</g>
			<g>
				<path class="st34" d="M157.61,154.39c-0.04,0-0.08-0.02-0.11-0.05c-0.5-0.51-0.96-0.74-1.74-0.9c-0.43-0.08-2.24-0.13-3.99-0.17
					c-0.46-0.01-0.93-0.02-1.36-0.03c-0.45-0.02-0.91-0.02-1.37-0.02c-2.06-0.03-4.19-0.07-5.33-0.52c-1.16-0.46-1.61-1.16-2.08-1.9
					c-0.16-0.25-0.33-0.51-0.53-0.77c-0.06-0.07-0.04-0.17,0.03-0.22c0.07-0.06,0.17-0.04,0.22,0.03c0.21,0.27,0.38,0.54,0.54,0.8
					c0.47,0.72,0.87,1.35,1.94,1.78c1.09,0.43,3.19,0.47,5.22,0.5c0.46,0.01,0.93,0.02,1.38,0.02c0.43,0.01,0.9,0.02,1.36,0.03
					c1.85,0.05,3.6,0.09,4.05,0.18c0.84,0.17,1.36,0.43,1.91,0.98c0.06,0.06,0.06,0.16,0,0.23
					C157.69,154.37,157.65,154.39,157.61,154.39z"/>
			</g>
			<g>
				<path class="st34" d="M104.87,148.89c-0.08,0-0.16-0.02-0.24-0.05c-0.94-0.37-1.26-2.99-1.29-3.61c0-0.09,0.06-0.16,0.15-0.16
					s0.16,0.06,0.16,0.15c0.04,0.84,0.41,3.07,1.09,3.33c0.06,0.02,0.25,0.1,0.58-0.23c0.33-0.33,0.6-0.63,0.89-0.94
					c0.19-0.21,0.39-0.43,0.62-0.68c0.12-0.13,0.26-0.26,0.39-0.39c0.34-0.32,0.76-0.72,0.76-0.94c0-0.19-0.21-0.47-0.38-0.68
					c-0.06-0.07-0.11-0.14-0.16-0.21c-0.32-0.47-0.57-1.18-0.65-1.92c-0.02-0.19-0.02-0.43-0.02-0.7c0-0.47-0.01-1.28-0.19-1.4
					c-0.01-0.01-0.02-0.02-0.08,0c-0.08,0.03-0.17-0.01-0.2-0.09c-0.03-0.08,0.01-0.17,0.09-0.2c0.17-0.06,0.29-0.02,0.36,0.03
					c0.29,0.2,0.31,0.78,0.32,1.66c0,0.26,0,0.5,0.02,0.67c0.08,0.69,0.3,1.36,0.6,1.78c0.05,0.06,0.1,0.13,0.15,0.2
					c0.21,0.27,0.44,0.57,0.44,0.88c0,0.35-0.41,0.75-0.85,1.17c-0.14,0.13-0.27,0.26-0.38,0.38c-0.23,0.24-0.43,0.46-0.61,0.67
					c-0.29,0.31-0.56,0.62-0.89,0.95C105.32,148.78,105.09,148.89,104.87,148.89z"/>
			</g>
		</g>
		<path class="st35" d="M250.42,135.37c0-0.98-0.51-1.69-1.21-2.37c-0.2-0.19-0.61-0.65-0.92-0.77c-0.48-0.2-0.91,0.07-1.33,0.29
			c-0.58,0.3-2.24,1.19-2.45,1.72c-0.25,0.64,0.9,1.44,1.42,1.85c0.69,0.55,1.17,1.17,1.87,1.68c0.57,0.43,1.17,0.39,2.32,0.39
			C250.55,138.15,250.42,136.24,250.42,135.37z"/>
		
			<linearGradient id="SVGID_28_" gradientUnits="userSpaceOnUse" x1="145.5563" y1="-39.1435" x2="194.2372" y2="-39.1435" gradientTransform="matrix(1 0 0 1 0 160)">
			<stop  offset="0" style="stop-color:#CDE9F9"/>
			<stop  offset="1" style="stop-color:#367C98"/>
		</linearGradient>
		<path class="st36" d="M187.94,115.74c-6.03-1.01-24.15-0.48-27.98-0.06c-2.2,0.24-3.78,0.56-5.68,1.46
			c-2.86,1.34-5.49,2.75-8.16,4.39c-1.09,0.67-4.55,2.94-3.95,4.49c0.64,1.66,9.94-0.89,11.68-1.46c1.63-0.53,12.62-3.81,16.25-4.37
			c4.07-0.64,6.41-0.71,10.5-0.89c1.89-0.08,4.43,0.07,5.93-1.16C187.7,117.18,189.11,115.94,187.94,115.74z"/>
	</g>
</g>
</svg>
