<?xml version="1.0" encoding="utf-8"?>
<!-- Generator: Adobe Illustrator 24.1.2, SVG Export Plug-In . SVG Version: 6.00 Build 0)  -->
<svg version="1.0" id="Layer_1" xmlns="http://www.w3.org/2000/svg" xmlns:xlink="http://www.w3.org/1999/xlink" x="0px" y="0px"
	 viewBox="0 0 550 459" style="enable-background:new 0 0 550 459;" xml:space="preserve">
<style type="text/css">
	.st0{fill:#2A9FD9;}
	.st1{fill:none;stroke:#989898;stroke-miterlimit:10;}
	.st2{enable-background:new    ;}
	.st3{fill:#4E4E4E;}
	.st4{fill:#2367B1;}
	.st5{fill:#FFFFFF;}
	.st6{fill:none;stroke:#2367B1;stroke-width:3;stroke-linecap:round;stroke-miterlimit:10;}
	.st7{fill:#6B6C6C;}
</style>
<rect x="239.01" y="153.67" class="st0" width="29.04" height="242.19"/>
<rect x="278.47" y="52.31" class="st0" width="29.04" height="343.55"/>
<rect x="317.93" y="105" class="st0" width="29.04" height="290.86"/>
<rect x="436.32" y="155.56" class="st0" width="29.04" height="240.3"/>
<rect x="475.78" y="210.38" class="st0" width="29.04" height="185.48"/>
<line class="st1" x1="30.32" y1="395.9" x2="518.01" y2="395.9"/>
<line class="st1" x1="30.79" y1="433.31" x2="30.79" y2="395.5"/>
<line class="st1" x1="193.04" y1="433.31" x2="193.04" y2="395.5"/>
<line class="st1" x1="355.29" y1="433.31" x2="355.29" y2="395.5"/>
<line class="st1" x1="517.55" y1="433.31" x2="517.55" y2="395.5"/>
<g class="st2">
	<path class="st3" d="M55.48,409.92c0,0.88-0.14,1.64-0.43,2.29c-0.28,0.65-0.68,1.17-1.18,1.56l1.56,1.23l-1.24,1.1l-2-1.61
		c-0.23,0.04-0.46,0.06-0.71,0.06c-0.78,0-1.47-0.19-2.09-0.56c-0.61-0.37-1.09-0.91-1.42-1.61c-0.34-0.7-0.51-1.49-0.51-2.4v-0.46
		c0-0.93,0.17-1.74,0.5-2.45c0.33-0.71,0.8-1.25,1.42-1.63s1.3-0.57,2.09-0.57c0.78,0,1.48,0.19,2.09,0.57
		c0.61,0.38,1.08,0.92,1.42,1.63c0.33,0.7,0.5,1.51,0.5,2.44V409.92z M53.51,409.48c0-0.98-0.18-1.74-0.53-2.25
		s-0.86-0.77-1.51-0.77c-0.65,0-1.15,0.26-1.5,0.76c-0.35,0.51-0.53,1.25-0.54,2.23v0.46c0,0.96,0.18,1.7,0.53,2.24
		s0.86,0.79,1.52,0.79c0.65,0,1.15-0.26,1.5-0.77c0.35-0.51,0.53-1.26,0.53-2.23V409.48z"/>
	<path class="st3" d="M61.24,414.4h-1.87v-7.2l-2.23,0.69v-1.52l3.89-1.4h0.2L61.24,414.4L61.24,414.4z"/>
</g>
<g class="st2">
	<path class="st3" d="M95.19,409.92c0,0.88-0.14,1.64-0.43,2.29c-0.28,0.65-0.68,1.17-1.18,1.56l1.56,1.23l-1.24,1.1l-2-1.61
		c-0.23,0.04-0.46,0.06-0.71,0.06c-0.78,0-1.47-0.19-2.09-0.56c-0.61-0.37-1.09-0.91-1.42-1.61c-0.34-0.7-0.51-1.49-0.51-2.4v-0.46
		c0-0.93,0.17-1.74,0.5-2.45c0.33-0.71,0.8-1.25,1.42-1.63s1.3-0.57,2.09-0.57s1.48,0.19,2.09,0.57c0.61,0.38,1.08,0.92,1.42,1.63
		c0.33,0.7,0.5,1.51,0.5,2.44V409.92z M93.23,409.48c0-0.98-0.18-1.74-0.53-2.25s-0.86-0.77-1.51-0.77c-0.65,0-1.15,0.26-1.5,0.76
		c-0.35,0.51-0.53,1.25-0.54,2.23v0.46c0,0.96,0.18,1.7,0.53,2.24s0.86,0.79,1.52,0.79c0.65,0,1.15-0.26,1.5-0.77
		c0.35-0.51,0.53-1.26,0.53-2.23V409.48z"/>
	<path class="st3" d="M102.87,414.4h-6.45v-1.28l3.04-3.24c0.42-0.45,0.73-0.85,0.93-1.19c0.2-0.34,0.3-0.66,0.3-0.97
		c0-0.42-0.1-0.75-0.31-0.98c-0.21-0.24-0.51-0.36-0.91-0.36c-0.43,0-0.76,0.14-1,0.43c-0.25,0.29-0.37,0.67-0.37,1.14h-1.87
		c0-0.58,0.13-1.1,0.41-1.57c0.27-0.47,0.66-0.84,1.16-1.12c0.5-0.27,1.07-0.41,1.7-0.41c0.97,0,1.72,0.24,2.26,0.7
		s0.8,1.12,0.8,1.97c0,0.46-0.12,0.94-0.36,1.42c-0.24,0.48-0.65,1.05-1.24,1.68l-2.14,2.26h4.05L102.87,414.4L102.87,414.4z"/>
</g>
<g class="st2">
	<path class="st3" d="M105.9,448.15h-6.45v-1.28l3.04-3.24c0.42-0.45,0.73-0.85,0.93-1.19c0.2-0.34,0.3-0.66,0.3-0.97
		c0-0.42-0.1-0.75-0.31-0.98c-0.21-0.24-0.51-0.36-0.91-0.36c-0.43,0-0.76,0.14-1,0.43c-0.25,0.29-0.37,0.67-0.37,1.14h-1.87
		c0-0.58,0.13-1.1,0.41-1.57s0.66-0.84,1.16-1.12c0.5-0.27,1.07-0.41,1.7-0.41c0.97,0,1.72,0.24,2.26,0.7
		c0.54,0.46,0.8,1.12,0.8,1.97c0,0.46-0.12,0.94-0.36,1.42s-0.65,1.05-1.24,1.68l-2.14,2.26h4.05L105.9,448.15L105.9,448.15z"/>
	<path class="st3" d="M113.38,444.27c0,1.3-0.26,2.3-0.8,2.99c-0.54,0.69-1.32,1.03-2.36,1.03c-1.02,0-1.81-0.34-2.35-1.01
		c-0.55-0.67-0.82-1.64-0.83-2.91v-1.73c0-1.31,0.27-2.32,0.81-3c0.54-0.68,1.33-1.02,2.35-1.02c1.02,0,1.81,0.34,2.35,1.01
		c0.54,0.67,0.82,1.64,0.83,2.9L113.38,444.27L113.38,444.27z M111.51,442.36c0-0.78-0.1-1.35-0.32-1.7c-0.22-0.35-0.55-0.53-1-0.53
		c-0.43,0-0.77,0.17-0.97,0.51c-0.21,0.34-0.32,0.87-0.33,1.59v2.29c0,0.77,0.1,1.34,0.31,1.71s0.55,0.56,1,0.56
		c0.45,0,0.78-0.18,0.99-0.54c0.2-0.36,0.31-0.91,0.31-1.64L111.51,442.36L111.51,442.36z"/>
	<path class="st3" d="M119.17,448.15h-1.87v-7.2l-2.23,0.69v-1.52l3.89-1.4h0.2L119.17,448.15L119.17,448.15z"/>
	<path class="st3" d="M128.62,439.79l-3.64,8.36h-1.97l3.65-7.9h-4.68v-1.5h6.64L128.62,439.79L128.62,439.79z"/>
</g>
<g class="st2">
	<path class="st3" d="M266.6,448.15h-6.45v-1.28l3.04-3.24c0.42-0.45,0.73-0.85,0.93-1.19c0.2-0.34,0.3-0.66,0.3-0.97
		c0-0.42-0.1-0.75-0.31-0.98c-0.21-0.24-0.51-0.36-0.91-0.36c-0.43,0-0.76,0.14-1,0.43c-0.25,0.29-0.37,0.67-0.37,1.14h-1.87
		c0-0.58,0.13-1.1,0.41-1.57c0.27-0.47,0.66-0.84,1.16-1.12s1.07-0.41,1.7-0.41c0.97,0,1.72,0.24,2.26,0.7s0.8,1.12,0.8,1.97
		c0,0.46-0.12,0.94-0.36,1.42c-0.24,0.48-0.65,1.05-1.24,1.68l-2.14,2.26h4.05L266.6,448.15L266.6,448.15z"/>
	<path class="st3" d="M274.08,444.27c0,1.3-0.26,2.3-0.8,2.99c-0.54,0.69-1.32,1.03-2.36,1.03c-1.02,0-1.81-0.34-2.35-1.01
		s-0.82-1.64-0.83-2.91v-1.73c0-1.31,0.27-2.32,0.81-3c0.54-0.68,1.33-1.02,2.35-1.02s1.81,0.34,2.35,1.01
		c0.54,0.67,0.82,1.64,0.83,2.9L274.08,444.27L274.08,444.27z M272.21,442.36c0-0.78-0.1-1.35-0.32-1.7c-0.22-0.35-0.55-0.53-1-0.53
		c-0.43,0-0.77,0.17-0.97,0.51c-0.21,0.34-0.32,0.87-0.33,1.59v2.29c0,0.77,0.1,1.34,0.31,1.71c0.21,0.37,0.55,0.56,1,0.56
		s0.78-0.18,0.99-0.54c0.2-0.36,0.31-0.91,0.31-1.64L272.21,442.36L272.21,442.36z"/>
	<path class="st3" d="M279.87,448.15H278v-7.2l-2.23,0.69v-1.52l3.89-1.4h0.2L279.87,448.15L279.87,448.15z"/>
	<path class="st3" d="M289.06,441.26c0,0.45-0.11,0.86-0.34,1.22c-0.23,0.35-0.54,0.63-0.95,0.85c0.45,0.22,0.82,0.52,1.09,0.91
		c0.26,0.39,0.4,0.84,0.4,1.36c0,0.83-0.28,1.49-0.85,1.98c-0.57,0.48-1.34,0.73-2.32,0.73s-1.75-0.25-2.32-0.73
		c-0.58-0.48-0.86-1.14-0.86-1.98c0-0.52,0.13-0.97,0.4-1.36c0.26-0.39,0.62-0.69,1.08-0.91c-0.4-0.21-0.71-0.49-0.94-0.85
		s-0.34-0.76-0.34-1.22c0-0.8,0.26-1.44,0.8-1.92c0.54-0.47,1.26-0.72,2.17-0.72s1.64,0.24,2.17,0.71
		C288.78,439.8,289.06,440.44,289.06,441.26z M287.39,445.44c0-0.41-0.11-0.74-0.36-0.98c-0.24-0.25-0.56-0.37-0.95-0.37
		c-0.4,0-0.71,0.12-0.95,0.37c-0.24,0.25-0.36,0.58-0.36,0.98c0,0.4,0.11,0.73,0.35,0.97c0.24,0.25,0.56,0.37,0.97,0.37
		c0.41,0,0.72-0.11,0.95-0.36C287.27,446.19,287.39,445.87,287.39,445.44z M287.19,441.34c0-0.37-0.09-0.66-0.29-0.88
		c-0.2-0.23-0.46-0.33-0.82-0.33c-0.35,0-0.62,0.1-0.81,0.32c-0.19,0.22-0.29,0.51-0.29,0.89s0.09,0.68,0.29,0.91
		c0.2,0.23,0.47,0.34,0.82,0.34c0.35,0,0.62-0.11,0.82-0.34C287.09,442.02,287.19,441.72,287.19,441.34z"/>
</g>
<g class="st2">
	<path class="st3" d="M420.64,448.15h-6.45v-1.28l3.04-3.24c0.42-0.45,0.73-0.85,0.93-1.19c0.2-0.34,0.3-0.66,0.3-0.97
		c0-0.42-0.1-0.75-0.31-0.98c-0.21-0.24-0.51-0.36-0.91-0.36c-0.43,0-0.76,0.14-1,0.43c-0.25,0.29-0.37,0.67-0.37,1.14H414
		c0-0.58,0.13-1.1,0.41-1.57s0.66-0.84,1.16-1.12s1.07-0.41,1.7-0.41c0.97,0,1.72,0.24,2.26,0.7s0.8,1.12,0.8,1.97
		c0,0.46-0.12,0.94-0.36,1.42c-0.24,0.48-0.65,1.05-1.24,1.68l-2.14,2.26h4.05L420.64,448.15L420.64,448.15z"/>
	<path class="st3" d="M428.12,444.27c0,1.3-0.26,2.3-0.8,2.99s-1.32,1.03-2.36,1.03c-1.02,0-1.81-0.34-2.35-1.01
		c-0.55-0.67-0.82-1.64-0.83-2.91v-1.73c0-1.31,0.27-2.32,0.82-3c0.55-0.68,1.33-1.02,2.35-1.02s1.81,0.34,2.35,1.01
		c0.54,0.67,0.82,1.64,0.83,2.9L428.12,444.27L428.12,444.27z M426.24,442.36c0-0.78-0.1-1.35-0.32-1.7c-0.22-0.35-0.55-0.53-1-0.53
		c-0.43,0-0.77,0.17-0.97,0.51c-0.21,0.34-0.32,0.87-0.33,1.59v2.29c0,0.77,0.1,1.34,0.31,1.71c0.21,0.37,0.55,0.56,1,0.56
		s0.78-0.18,0.99-0.54c0.2-0.36,0.31-0.91,0.31-1.64L426.24,442.36L426.24,442.36z"/>
	<path class="st3" d="M433.91,448.15h-1.87v-7.2l-2.23,0.69v-1.52l3.89-1.4h0.2L433.91,448.15L433.91,448.15z"/>
	<path class="st3" d="M441.34,444.4c-0.48,0.48-1.06,0.72-1.7,0.72c-0.83,0-1.49-0.28-1.99-0.86c-0.5-0.57-0.75-1.34-0.75-2.31
		c0-0.61,0.13-1.18,0.41-1.69c0.26-0.51,0.64-0.92,1.12-1.2c0.48-0.28,1.02-0.43,1.63-0.43c0.62,0,1.17,0.15,1.65,0.46
		c0.48,0.31,0.86,0.76,1.12,1.34c0.26,0.59,0.41,1.25,0.41,1.99v0.69c0,1.57-0.39,2.8-1.17,3.7c-0.78,0.9-1.88,1.37-3.32,1.44
		l-0.46,0.01v-1.56l0.42-0.01C440.33,446.61,441.21,445.85,441.34,444.4z M440.09,443.68c0.3,0,0.56-0.08,0.77-0.24
		c0.22-0.15,0.38-0.34,0.49-0.56v-0.77c0-0.63-0.12-1.12-0.36-1.47c-0.24-0.35-0.57-0.52-0.97-0.52c-0.38,0-0.68,0.17-0.93,0.51
		c-0.24,0.34-0.36,0.78-0.36,1.29c0,0.51,0.11,0.94,0.35,1.27C439.33,443.52,439.66,443.68,440.09,443.68z"/>
</g>
<g class="st2">
	<path class="st3" d="M134.92,409.92c0,0.88-0.14,1.64-0.43,2.29c-0.28,0.65-0.68,1.17-1.18,1.56l1.56,1.23l-1.24,1.1l-2-1.61
		c-0.23,0.04-0.46,0.06-0.71,0.06c-0.78,0-1.47-0.19-2.09-0.56c-0.61-0.37-1.09-0.91-1.42-1.61c-0.34-0.7-0.51-1.49-0.51-2.4v-0.46
		c0-0.93,0.17-1.74,0.5-2.45c0.33-0.71,0.8-1.25,1.42-1.63c0.61-0.38,1.3-0.57,2.09-0.57s1.48,0.19,2.09,0.57
		c0.61,0.38,1.08,0.92,1.42,1.63c0.33,0.7,0.5,1.51,0.5,2.44V409.92L134.92,409.92z M132.95,409.48c0-0.98-0.18-1.74-0.53-2.25
		c-0.35-0.51-0.86-0.77-1.51-0.77c-0.65,0-1.15,0.26-1.5,0.76c-0.35,0.51-0.53,1.25-0.54,2.23v0.46c0,0.96,0.18,1.7,0.53,2.24
		c0.35,0.54,0.86,0.79,1.52,0.79c0.65,0,1.15-0.26,1.5-0.77c0.35-0.51,0.53-1.26,0.53-2.23L132.95,409.48L132.95,409.48z"/>
	<path class="st3" d="M138.04,408.88h0.99c0.47,0,0.82-0.11,1.05-0.36c0.23-0.25,0.34-0.55,0.34-0.95c0-0.38-0.11-0.67-0.34-0.89
		c-0.23-0.22-0.54-0.31-0.94-0.31c-0.36,0-0.65,0.09-0.9,0.29c-0.25,0.2-0.36,0.45-0.36,0.77h-1.87c0-0.49,0.13-0.94,0.4-1.32
		c0.26-0.39,0.63-0.7,1.12-0.92c0.48-0.22,1-0.33,1.57-0.33c0.99,0,1.78,0.24,2.33,0.72c0.57,0.47,0.85,1.13,0.85,1.97
		c0,0.43-0.13,0.83-0.4,1.19c-0.26,0.36-0.6,0.64-1.03,0.83c0.53,0.19,0.93,0.47,1.18,0.85s0.39,0.83,0.39,1.34
		c0,0.83-0.3,1.5-0.92,2.01c-0.61,0.51-1.42,0.76-2.42,0.76c-0.94,0-1.71-0.25-2.31-0.75s-0.9-1.15-0.9-1.97h1.87
		c0,0.35,0.13,0.64,0.4,0.87c0.26,0.23,0.6,0.34,0.98,0.34c0.44,0,0.79-0.11,1.04-0.35c0.26-0.24,0.38-0.55,0.38-0.94
		c0-0.94-0.52-1.41-1.55-1.41h-0.99v-1.46H138.04z"/>
</g>
<g class="st2">
	<path class="st3" d="M174.63,409.92c0,0.88-0.14,1.64-0.43,2.29c-0.28,0.65-0.68,1.17-1.18,1.56l1.56,1.23l-1.24,1.1l-2-1.61
		c-0.23,0.04-0.46,0.06-0.71,0.06c-0.78,0-1.47-0.19-2.09-0.56c-0.61-0.37-1.09-0.91-1.42-1.61c-0.34-0.7-0.51-1.49-0.51-2.4v-0.46
		c0-0.93,0.17-1.74,0.5-2.45c0.33-0.71,0.8-1.25,1.42-1.63c0.61-0.38,1.3-0.57,2.09-0.57c0.78,0,1.48,0.19,2.09,0.57
		c0.61,0.38,1.08,0.92,1.42,1.63c0.33,0.7,0.5,1.51,0.5,2.44L174.63,409.92L174.63,409.92z M172.67,409.48
		c0-0.98-0.18-1.74-0.53-2.25c-0.35-0.51-0.86-0.77-1.51-0.77c-0.65,0-1.15,0.26-1.5,0.76c-0.35,0.51-0.53,1.25-0.54,2.23v0.46
		c0,0.96,0.18,1.7,0.53,2.24c0.35,0.54,0.86,0.79,1.52,0.79c0.65,0,1.15-0.26,1.5-0.77c0.35-0.51,0.53-1.26,0.53-2.23L172.67,409.48
		L172.67,409.48z"/>
	<path class="st3" d="M181.38,410.86h1.07v1.5h-1.07v2.03h-1.87v-2.03h-3.86l-0.09-1.17l3.92-6.2h1.89V410.86z M177.43,410.86h2.08
		v-3.32l-0.12,0.22L177.43,410.86z"/>
</g>
<g class="st2">
	<path class="st3" d="M214.36,409.92c0,0.88-0.14,1.64-0.43,2.29c-0.28,0.65-0.68,1.17-1.18,1.56l1.56,1.23l-1.24,1.1l-2-1.61
		c-0.23,0.04-0.46,0.06-0.71,0.06c-0.78,0-1.47-0.19-2.09-0.56c-0.61-0.37-1.09-0.91-1.42-1.61c-0.34-0.7-0.51-1.49-0.51-2.4v-0.46
		c0-0.93,0.17-1.74,0.5-2.45c0.33-0.71,0.8-1.25,1.42-1.63c0.61-0.38,1.3-0.57,2.09-0.57c0.78,0,1.48,0.19,2.09,0.57
		c0.61,0.38,1.08,0.92,1.42,1.63c0.33,0.7,0.5,1.51,0.5,2.44L214.36,409.92L214.36,409.92z M212.39,409.48
		c0-0.98-0.18-1.74-0.53-2.25c-0.35-0.51-0.86-0.77-1.51-0.77c-0.65,0-1.15,0.26-1.5,0.76c-0.35,0.51-0.53,1.25-0.54,2.23v0.46
		c0,0.96,0.18,1.7,0.53,2.24c0.35,0.54,0.86,0.79,1.52,0.79c0.65,0,1.15-0.26,1.5-0.77c0.35-0.51,0.53-1.26,0.53-2.23L212.39,409.48
		L212.39,409.48z"/>
	<path class="st3" d="M220.11,414.4h-1.87v-7.2l-2.23,0.69v-1.52l3.89-1.4h0.2L220.11,414.4L220.11,414.4z"/>
</g>
<g class="st2">
	<path class="st3" d="M254.07,409.92c0,0.88-0.14,1.64-0.43,2.29c-0.28,0.65-0.68,1.17-1.18,1.56l1.56,1.23l-1.24,1.1l-2-1.61
		c-0.23,0.04-0.46,0.06-0.71,0.06c-0.78,0-1.47-0.19-2.09-0.56c-0.61-0.37-1.09-0.91-1.42-1.61c-0.34-0.7-0.51-1.49-0.51-2.4v-0.46
		c0-0.93,0.17-1.74,0.5-2.45c0.33-0.71,0.8-1.25,1.42-1.63c0.61-0.38,1.3-0.57,2.09-0.57s1.48,0.19,2.09,0.57
		c0.61,0.38,1.08,0.92,1.42,1.63c0.33,0.7,0.5,1.51,0.5,2.44L254.07,409.92L254.07,409.92z M252.1,409.48
		c0-0.98-0.18-1.74-0.53-2.25c-0.35-0.51-0.86-0.77-1.51-0.77c-0.65,0-1.15,0.26-1.5,0.76c-0.35,0.51-0.53,1.25-0.54,2.23v0.46
		c0,0.96,0.18,1.7,0.53,2.24c0.35,0.54,0.86,0.79,1.52,0.79c0.65,0,1.15-0.26,1.5-0.77c0.35-0.51,0.53-1.26,0.53-2.23L252.1,409.48
		L252.1,409.48z"/>
	<path class="st3" d="M261.74,414.4h-6.45v-1.28l3.04-3.24c0.42-0.45,0.73-0.85,0.93-1.19c0.2-0.34,0.3-0.66,0.3-0.97
		c0-0.42-0.1-0.75-0.31-0.98c-0.21-0.24-0.51-0.36-0.91-0.36c-0.43,0-0.76,0.14-1,0.43c-0.25,0.29-0.37,0.67-0.37,1.14h-1.87
		c0-0.58,0.13-1.1,0.41-1.57s0.66-0.84,1.16-1.12c0.5-0.27,1.07-0.41,1.7-0.41c0.97,0,1.72,0.24,2.26,0.7s0.8,1.12,0.8,1.97
		c0,0.46-0.12,0.94-0.36,1.42c-0.24,0.48-0.65,1.05-1.24,1.68l-2.14,2.26h4.05L261.74,414.4L261.74,414.4z"/>
</g>
<g class="st2">
	<path class="st3" d="M293.79,409.92c0,0.88-0.14,1.64-0.43,2.29c-0.28,0.65-0.68,1.17-1.18,1.56l1.56,1.23l-1.24,1.1l-2-1.61
		c-0.23,0.04-0.46,0.06-0.71,0.06c-0.78,0-1.47-0.19-2.09-0.56c-0.61-0.38-1.09-0.91-1.42-1.61c-0.34-0.7-0.51-1.49-0.51-2.4v-0.46
		c0-0.93,0.17-1.74,0.5-2.45c0.33-0.71,0.8-1.25,1.42-1.63c0.6-0.38,1.3-0.57,2.09-0.57s1.48,0.19,2.09,0.57
		c0.6,0.38,1.08,0.92,1.42,1.63c0.33,0.7,0.5,1.51,0.5,2.44L293.79,409.92L293.79,409.92z M291.83,409.48
		c0-0.98-0.18-1.74-0.53-2.25s-0.86-0.77-1.51-0.77s-1.15,0.26-1.5,0.76c-0.35,0.51-0.53,1.25-0.54,2.23v0.46
		c0,0.96,0.18,1.7,0.53,2.24c0.35,0.53,0.86,0.79,1.52,0.79c0.65,0,1.15-0.26,1.5-0.77s0.53-1.26,0.53-2.23L291.83,409.48
		L291.83,409.48z"/>
	<path class="st3" d="M296.91,408.88h0.99c0.47,0,0.82-0.11,1.05-0.36c0.23-0.24,0.34-0.55,0.34-0.95c0-0.38-0.11-0.67-0.34-0.89
		c-0.23-0.22-0.54-0.31-0.94-0.31c-0.36,0-0.65,0.09-0.9,0.29c-0.24,0.2-0.36,0.45-0.36,0.77h-1.87c0-0.49,0.13-0.94,0.4-1.32
		c0.26-0.39,0.63-0.7,1.12-0.92c0.47-0.22,1-0.33,1.57-0.33c0.99,0,1.78,0.24,2.33,0.72c0.57,0.47,0.85,1.13,0.85,1.97
		c0,0.43-0.13,0.83-0.4,1.19c-0.26,0.36-0.6,0.64-1.03,0.83c0.53,0.19,0.93,0.47,1.18,0.85c0.26,0.38,0.39,0.83,0.39,1.34
		c0,0.83-0.3,1.5-0.92,2.01c-0.61,0.5-1.42,0.76-2.42,0.76c-0.94,0-1.71-0.25-2.31-0.75c-0.6-0.49-0.9-1.15-0.9-1.97h1.87
		c0,0.35,0.13,0.64,0.4,0.87c0.26,0.23,0.59,0.34,0.98,0.34c0.44,0,0.79-0.11,1.04-0.35c0.26-0.24,0.38-0.55,0.38-0.94
		c0-0.94-0.52-1.41-1.55-1.41h-0.99v-1.46H296.91z"/>
</g>
<g class="st2">
	<path class="st3" d="M333.51,409.92c0,0.88-0.14,1.64-0.43,2.29c-0.28,0.65-0.68,1.17-1.18,1.56l1.56,1.23l-1.24,1.1l-2-1.61
		c-0.23,0.04-0.46,0.06-0.71,0.06c-0.78,0-1.47-0.19-2.09-0.56c-0.61-0.38-1.09-0.91-1.42-1.61c-0.34-0.7-0.51-1.49-0.51-2.4v-0.46
		c0-0.93,0.17-1.74,0.5-2.45c0.33-0.71,0.8-1.25,1.42-1.63c0.6-0.38,1.3-0.57,2.09-0.57c0.78,0,1.48,0.19,2.09,0.57
		c0.6,0.38,1.08,0.92,1.42,1.63c0.33,0.7,0.5,1.51,0.5,2.44L333.51,409.92L333.51,409.92z M331.54,409.48
		c0-0.98-0.18-1.74-0.53-2.25c-0.35-0.51-0.86-0.77-1.51-0.77c-0.65,0-1.15,0.26-1.5,0.76c-0.35,0.51-0.53,1.25-0.54,2.23v0.46
		c0,0.96,0.18,1.7,0.53,2.24c0.35,0.53,0.86,0.79,1.52,0.79c0.65,0,1.15-0.26,1.5-0.77c0.35-0.51,0.53-1.26,0.53-2.23L331.54,409.48
		L331.54,409.48z"/>
	<path class="st3" d="M340.26,410.86h1.07v1.5h-1.07v2.03h-1.87v-2.03h-3.86l-0.09-1.17l3.92-6.2h1.89V410.86z M336.31,410.86h2.08
		v-3.32l-0.12,0.22L336.31,410.86z"/>
</g>
<g class="st2">
	<path class="st3" d="M373.23,409.92c0,0.88-0.14,1.64-0.43,2.29c-0.28,0.65-0.68,1.17-1.18,1.56l1.56,1.23l-1.24,1.1l-2-1.61
		c-0.23,0.04-0.46,0.06-0.71,0.06c-0.77,0-1.47-0.19-2.09-0.56c-0.61-0.38-1.09-0.91-1.42-1.61c-0.34-0.7-0.51-1.49-0.51-2.4v-0.46
		c0-0.93,0.17-1.74,0.5-2.45c0.33-0.71,0.8-1.25,1.42-1.63c0.6-0.38,1.3-0.57,2.09-0.57c0.78,0,1.48,0.19,2.09,0.57
		c0.6,0.38,1.08,0.92,1.42,1.63c0.33,0.7,0.5,1.51,0.5,2.44L373.23,409.92L373.23,409.92z M371.27,409.48
		c0-0.98-0.18-1.74-0.53-2.25s-0.86-0.77-1.51-0.77s-1.15,0.26-1.5,0.76c-0.35,0.51-0.53,1.25-0.54,2.23v0.46
		c0,0.96,0.18,1.7,0.53,2.24c0.35,0.53,0.86,0.79,1.52,0.79c0.65,0,1.15-0.26,1.5-0.77c0.35-0.51,0.53-1.26,0.53-2.23L371.27,409.48
		L371.27,409.48z"/>
	<path class="st3" d="M378.99,414.4h-1.87v-7.2l-2.23,0.69v-1.52l3.89-1.4h0.2L378.99,414.4L378.99,414.4z"/>
</g>
<g class="st2">
	<path class="st3" d="M412.95,409.92c0,0.88-0.14,1.64-0.43,2.29c-0.28,0.65-0.68,1.17-1.18,1.56l1.56,1.23l-1.24,1.1l-2-1.61
		c-0.23,0.04-0.46,0.06-0.71,0.06c-0.78,0-1.47-0.19-2.09-0.56c-0.61-0.38-1.09-0.91-1.42-1.61c-0.34-0.7-0.51-1.49-0.51-2.4v-0.46
		c0-0.93,0.17-1.74,0.5-2.45c0.33-0.71,0.8-1.25,1.42-1.63c0.6-0.38,1.3-0.57,2.09-0.57c0.78,0,1.48,0.19,2.09,0.57
		c0.6,0.38,1.08,0.92,1.42,1.63c0.33,0.7,0.5,1.51,0.5,2.44L412.95,409.92L412.95,409.92z M410.98,409.48
		c0-0.98-0.18-1.74-0.53-2.25s-0.86-0.77-1.51-0.77c-0.65,0-1.15,0.26-1.5,0.76c-0.35,0.51-0.53,1.25-0.54,2.23v0.46
		c0,0.96,0.18,1.7,0.53,2.24c0.35,0.53,0.86,0.79,1.52,0.79c0.65,0,1.15-0.26,1.5-0.77s0.53-1.26,0.53-2.23L410.98,409.48
		L410.98,409.48z"/>
	<path class="st3" d="M420.62,414.4h-6.45v-1.28l3.04-3.24c0.42-0.45,0.73-0.85,0.93-1.19c0.2-0.34,0.3-0.66,0.3-0.97
		c0-0.42-0.1-0.75-0.31-0.98c-0.21-0.24-0.51-0.36-0.91-0.36c-0.43,0-0.76,0.14-1,0.43c-0.25,0.29-0.37,0.67-0.37,1.14h-1.87
		c0-0.58,0.13-1.1,0.41-1.57s0.66-0.84,1.16-1.12c0.5-0.27,1.07-0.41,1.7-0.41c0.97,0,1.72,0.24,2.26,0.7s0.8,1.12,0.8,1.97
		c0,0.46-0.12,0.94-0.36,1.42c-0.24,0.48-0.65,1.05-1.24,1.68l-2.14,2.26h4.05L420.62,414.4L420.62,414.4z"/>
</g>
<g class="st2">
	<path class="st3" d="M452.67,409.92c0,0.88-0.14,1.64-0.43,2.29c-0.28,0.65-0.68,1.17-1.18,1.56l1.56,1.23l-1.24,1.1l-2-1.61
		c-0.23,0.04-0.46,0.06-0.71,0.06c-0.78,0-1.47-0.19-2.09-0.56c-0.61-0.38-1.09-0.91-1.42-1.61c-0.34-0.7-0.51-1.49-0.51-2.4v-0.46
		c0-0.93,0.17-1.74,0.5-2.45c0.33-0.71,0.8-1.25,1.42-1.63s1.3-0.57,2.09-0.57c0.78,0,1.48,0.19,2.09,0.57
		c0.61,0.38,1.08,0.92,1.42,1.63c0.33,0.7,0.5,1.51,0.5,2.44L452.67,409.92L452.67,409.92z M450.7,409.48
		c0-0.98-0.18-1.74-0.53-2.25c-0.35-0.51-0.86-0.77-1.51-0.77c-0.65,0-1.15,0.26-1.5,0.76c-0.35,0.51-0.53,1.25-0.54,2.23v0.46
		c0,0.96,0.18,1.7,0.53,2.24c0.35,0.53,0.86,0.79,1.52,0.79c0.65,0,1.15-0.26,1.5-0.77c0.35-0.51,0.53-1.26,0.53-2.23V409.48
		L450.7,409.48z"/>
	<path class="st3" d="M455.79,408.88h0.99c0.47,0,0.82-0.11,1.05-0.36c0.23-0.24,0.34-0.55,0.34-0.95c0-0.38-0.11-0.67-0.34-0.89
		c-0.23-0.22-0.54-0.31-0.94-0.31c-0.36,0-0.66,0.09-0.9,0.29c-0.25,0.2-0.36,0.45-0.36,0.77h-1.87c0-0.49,0.13-0.94,0.4-1.32
		c0.26-0.39,0.63-0.7,1.12-0.92c0.47-0.22,1-0.33,1.58-0.33c0.99,0,1.78,0.24,2.33,0.72c0.57,0.47,0.85,1.13,0.85,1.97
		c0,0.43-0.13,0.83-0.4,1.19c-0.26,0.36-0.6,0.64-1.03,0.83c0.53,0.19,0.93,0.47,1.18,0.85c0.26,0.38,0.39,0.83,0.39,1.34
		c0,0.83-0.3,1.5-0.92,2.01c-0.6,0.5-1.42,0.76-2.42,0.76c-0.94,0-1.71-0.25-2.31-0.75c-0.6-0.49-0.9-1.15-0.9-1.97h1.87
		c0,0.35,0.13,0.64,0.4,0.87c0.26,0.23,0.6,0.34,0.98,0.34c0.44,0,0.79-0.11,1.04-0.35c0.26-0.24,0.38-0.55,0.38-0.94
		c0-0.94-0.52-1.41-1.55-1.41h-0.99v-1.46H455.79z"/>
</g>
<g class="st2">
	<path class="st3" d="M492.38,409.92c0,0.88-0.14,1.64-0.43,2.29c-0.28,0.65-0.68,1.17-1.18,1.56l1.56,1.23l-1.24,1.1l-2-1.61
		c-0.23,0.04-0.46,0.06-0.71,0.06c-0.78,0-1.47-0.19-2.09-0.56c-0.61-0.38-1.09-0.91-1.42-1.61c-0.34-0.7-0.51-1.49-0.51-2.4v-0.46
		c0-0.93,0.17-1.74,0.5-2.45c0.33-0.71,0.8-1.25,1.42-1.63c0.6-0.38,1.3-0.57,2.09-0.57c0.78,0,1.48,0.19,2.09,0.57
		s1.08,0.92,1.42,1.63c0.33,0.7,0.5,1.51,0.5,2.44L492.38,409.92L492.38,409.92z M490.42,409.48c0-0.98-0.18-1.74-0.53-2.25
		s-0.86-0.77-1.51-0.77s-1.15,0.26-1.5,0.76c-0.35,0.51-0.53,1.25-0.54,2.23v0.46c0,0.96,0.18,1.7,0.53,2.24
		c0.35,0.53,0.86,0.79,1.52,0.79c0.65,0,1.15-0.26,1.5-0.77c0.35-0.51,0.53-1.26,0.53-2.23V409.48z"/>
	<path class="st3" d="M499.13,410.86h1.07v1.5h-1.07v2.03h-1.87v-2.03h-3.86l-0.09-1.17l3.92-6.2h1.89V410.86z M495.18,410.86h2.08
		v-3.32l-0.12,0.22L495.18,410.86z"/>
</g>
<g class="st2">
	<path class="st4" d="M53.4,304.45v1.54h-0.18c-0.84,0.01-1.52,0.24-2.04,0.66c-0.52,0.43-0.82,1.02-0.93,1.78
		c0.5-0.51,1.13-0.77,1.89-0.77c0.82,0,1.46,0.29,1.95,0.88c0.48,0.59,0.73,1.36,0.73,2.32c0,0.61-0.13,1.16-0.4,1.66
		c-0.26,0.5-0.64,0.88-1.12,1.15c-0.48,0.27-1.03,0.42-1.64,0.42c-0.99,0-1.79-0.34-2.4-1.03c-0.61-0.69-0.92-1.61-0.92-2.76v-0.67
		c0-1.02,0.19-1.92,0.58-2.7s0.94-1.39,1.66-1.81c0.72-0.43,1.56-0.64,2.51-0.65L53.4,304.45L53.4,304.45z M51.58,309.16
		c-0.3,0-0.58,0.08-0.82,0.24c-0.25,0.16-0.43,0.37-0.54,0.62v0.57c0,0.62,0.12,1.11,0.37,1.46c0.25,0.35,0.59,0.53,1.03,0.53
		c0.4,0,0.73-0.16,0.97-0.47c0.25-0.31,0.37-0.73,0.37-1.23c0-0.51-0.12-0.93-0.38-1.24C52.32,309.33,52,309.16,51.58,309.16z"/>
	<path class="st4" d="M62.37,313.95h-6.45v-1.28l3.04-3.24c0.42-0.45,0.73-0.85,0.93-1.19s0.3-0.66,0.3-0.97
		c0-0.42-0.1-0.75-0.31-0.98c-0.21-0.24-0.51-0.36-0.91-0.36c-0.43,0-0.76,0.14-1,0.43c-0.25,0.29-0.37,0.67-0.37,1.14h-1.87
		c0-0.58,0.13-1.1,0.41-1.57c0.27-0.47,0.66-0.84,1.16-1.12c0.5-0.27,1.07-0.41,1.7-0.41c0.97,0,1.72,0.24,2.26,0.7
		c0.54,0.46,0.8,1.12,0.8,1.97c0,0.46-0.12,0.94-0.36,1.42c-0.24,0.48-0.65,1.05-1.24,1.68l-2.14,2.26h4.05L62.37,313.95
		L62.37,313.95z"/>
</g>
<g class="st2">
	<path class="st4" d="M88.33,316.1l0.54-4.78h5.27v1.56H90.4l-0.24,2.02c0.44-0.24,0.92-0.36,1.42-0.36c0.9,0,1.6,0.27,2.11,0.83
		c0.51,0.56,0.77,1.33,0.77,2.33c0,0.6-0.13,1.15-0.39,1.64s-0.62,0.85-1.11,1.12c-0.48,0.26-1.04,0.4-1.69,0.4
		c-0.57,0-1.1-0.11-1.58-0.35c-0.49-0.23-0.87-0.56-1.15-0.97c-0.28-0.42-0.43-0.9-0.45-1.43h1.85c0.04,0.4,0.18,0.7,0.41,0.92
		c0.24,0.22,0.54,0.32,0.92,0.32c0.43,0,0.75-0.15,0.97-0.45c0.23-0.3,0.34-0.74,0.34-1.29c0-0.54-0.13-0.95-0.4-1.23
		c-0.26-0.28-0.63-0.43-1.12-0.43c-0.44,0-0.8,0.11-1.08,0.35l-0.18,0.17L88.33,316.1z"/>
	<path class="st4" d="M97.55,315.19h0.99c0.47,0,0.82-0.11,1.05-0.36c0.23-0.25,0.34-0.55,0.34-0.95c0-0.38-0.11-0.67-0.34-0.89
		c-0.23-0.22-0.54-0.31-0.94-0.31c-0.36,0-0.65,0.09-0.9,0.29c-0.25,0.2-0.36,0.45-0.36,0.77h-1.87c0-0.49,0.13-0.94,0.4-1.32
		c0.26-0.39,0.63-0.7,1.12-0.92c0.48-0.22,1-0.33,1.57-0.33c0.99,0,1.78,0.24,2.33,0.72c0.57,0.47,0.85,1.13,0.85,1.97
		c0,0.43-0.13,0.83-0.4,1.19c-0.26,0.36-0.6,0.64-1.03,0.83c0.53,0.19,0.93,0.47,1.18,0.85s0.39,0.83,0.39,1.34
		c0,0.83-0.3,1.5-0.92,2.01s-1.42,0.76-2.42,0.76c-0.94,0-1.71-0.25-2.31-0.75c-0.6-0.5-0.9-1.15-0.9-1.97h1.87
		c0,0.35,0.13,0.64,0.4,0.87c0.26,0.23,0.6,0.34,0.98,0.34c0.44,0,0.79-0.11,1.04-0.35c0.26-0.24,0.38-0.55,0.38-0.94
		c0-0.94-0.52-1.41-1.55-1.41h-0.99v-1.46H97.55z"/>
</g>
<g class="st2">
	<path class="st4" d="M134.17,287.22l-3.64,8.36h-1.97l3.65-7.9h-4.68v-1.5h6.64L134.17,287.22L134.17,287.22z"/>
	<path class="st4" d="M135.65,290.95l0.54-4.78h5.27v1.56h-3.74l-0.24,2.02c0.44-0.24,0.92-0.36,1.42-0.36c0.9,0,1.6,0.27,2.11,0.83
		s0.77,1.33,0.77,2.33c0,0.6-0.13,1.15-0.39,1.64s-0.62,0.85-1.11,1.12c-0.48,0.26-1.04,0.4-1.69,0.4c-0.57,0-1.1-0.11-1.58-0.35
		c-0.49-0.23-0.87-0.56-1.15-0.97c-0.28-0.42-0.43-0.9-0.45-1.43h1.85c0.04,0.4,0.18,0.7,0.41,0.92c0.24,0.22,0.54,0.32,0.92,0.32
		c0.43,0,0.75-0.15,0.97-0.45c0.23-0.3,0.34-0.74,0.34-1.29c0-0.54-0.13-0.95-0.4-1.23c-0.26-0.28-0.63-0.43-1.12-0.43
		c-0.44,0-0.8,0.11-1.08,0.35l-0.18,0.17L135.65,290.95z"/>
</g>
<g class="st2">
	<path class="st4" d="M158.78,257.16h-1.87v-7.2l-2.23,0.69v-1.52l3.89-1.4h0.2L158.78,257.16L158.78,257.16z"/>
	<path class="st4" d="M168.17,253.28c0,1.3-0.26,2.3-0.8,2.99c-0.54,0.69-1.32,1.03-2.36,1.03c-1.02,0-1.81-0.34-2.35-1.01
		c-0.55-0.67-0.82-1.64-0.83-2.91v-1.73c0-1.31,0.27-2.32,0.81-3s1.33-1.02,2.35-1.02c1.02,0,1.81,0.34,2.35,1.01
		c0.54,0.67,0.82,1.64,0.83,2.9V253.28z M166.3,251.37c0-0.78-0.1-1.35-0.32-1.7c-0.22-0.35-0.55-0.53-1-0.53
		c-0.43,0-0.77,0.17-0.97,0.51c-0.21,0.34-0.32,0.87-0.33,1.59v2.29c0,0.77,0.1,1.34,0.31,1.71c0.21,0.37,0.55,0.56,1,0.56
		c0.45,0,0.78-0.18,0.99-0.54c0.2-0.36,0.31-0.91,0.31-1.64L166.3,251.37L166.3,251.37z"/>
	<path class="st4" d="M175.82,248.8l-3.64,8.36h-1.97l3.65-7.9h-4.68v-1.5h6.64L175.82,248.8L175.82,248.8z"/>
</g>
<g class="st2">
	<path class="st4" d="M189.05,192.9h-1.87v-7.2l-2.23,0.69v-1.52l3.89-1.4h0.2L189.05,192.9L189.05,192.9z"/>
	<path class="st4" d="M198.5,184.53l-3.64,8.36h-1.97l3.65-7.9h-4.68v-1.5h6.64L198.5,184.53L198.5,184.53z"/>
	<path class="st4" d="M205.83,185.99c0,0.45-0.11,0.86-0.34,1.22c-0.23,0.36-0.54,0.63-0.95,0.85c0.45,0.22,0.82,0.52,1.09,0.91
		c0.26,0.39,0.4,0.84,0.4,1.36c0,0.83-0.28,1.49-0.85,1.98c-0.57,0.48-1.34,0.73-2.32,0.73s-1.75-0.25-2.33-0.73
		c-0.58-0.48-0.86-1.14-0.86-1.98c0-0.52,0.13-0.97,0.4-1.36c0.26-0.39,0.62-0.69,1.08-0.91c-0.4-0.21-0.72-0.49-0.94-0.85
		c-0.22-0.36-0.34-0.76-0.34-1.22c0-0.8,0.26-1.44,0.8-1.92c0.53-0.47,1.26-0.72,2.17-0.72s1.64,0.24,2.17,0.71
		C205.56,184.53,205.83,185.17,205.83,185.99z M204.15,190.18c0-0.41-0.12-0.74-0.36-0.98s-0.56-0.37-0.95-0.37
		c-0.4,0-0.71,0.12-0.95,0.37s-0.36,0.58-0.36,0.98c0,0.4,0.11,0.73,0.35,0.97s0.56,0.37,0.97,0.37c0.41,0,0.72-0.11,0.95-0.36
		S204.15,190.6,204.15,190.18z M203.96,186.07c0-0.37-0.09-0.66-0.29-0.88c-0.2-0.23-0.46-0.33-0.82-0.33
		c-0.35,0-0.62,0.1-0.81,0.32s-0.29,0.51-0.29,0.89c0,0.38,0.09,0.68,0.29,0.91s0.46,0.34,0.82,0.34c0.36,0,0.62-0.11,0.81-0.34
		C203.86,186.75,203.96,186.45,203.96,186.07z"/>
</g>
<g class="st2">
	<path class="st4" d="M249.58,101.22h-6.45v-1.28l3.04-3.24c0.42-0.45,0.73-0.85,0.93-1.19c0.2-0.34,0.3-0.66,0.3-0.97
		c0-0.42-0.1-0.75-0.31-0.98c-0.21-0.24-0.51-0.36-0.91-0.36c-0.43,0-0.76,0.14-1,0.43c-0.25,0.29-0.37,0.67-0.37,1.14h-1.87
		c0-0.58,0.13-1.1,0.41-1.57c0.27-0.47,0.66-0.84,1.16-1.12s1.07-0.41,1.7-0.41c0.97,0,1.72,0.24,2.26,0.7
		c0.54,0.46,0.8,1.12,0.8,1.97c0,0.46-0.12,0.94-0.36,1.42s-0.65,1.05-1.24,1.68l-2.14,2.26h4.05L249.58,101.22L249.58,101.22z"/>
	<path class="st4" d="M256.24,97.67h1.07v1.5h-1.07v2.03h-1.87v-2.03h-3.86L250.43,98l3.92-6.2h1.89V97.67z M252.3,97.67h2.08v-3.32
		l-0.12,0.22L252.3,97.67z"/>
	<path class="st4" d="M264.65,97.32c0,1.3-0.26,2.3-0.8,2.99c-0.54,0.69-1.32,1.03-2.36,1.03c-1.02,0-1.81-0.34-2.35-1.01
		c-0.55-0.67-0.82-1.64-0.83-2.91v-1.73c0-1.31,0.27-2.32,0.81-3c0.54-0.68,1.33-1.02,2.35-1.02c1.02,0,1.81,0.34,2.35,1.01
		c0.54,0.67,0.82,1.64,0.83,2.9L264.65,97.32L264.65,97.32z M262.78,95.42c0-0.78-0.1-1.35-0.32-1.7c-0.22-0.35-0.55-0.53-1-0.53
		c-0.43,0-0.77,0.17-0.97,0.51c-0.21,0.34-0.32,0.87-0.33,1.59v2.29c0,0.77,0.1,1.34,0.31,1.71c0.21,0.37,0.55,0.56,1,0.56
		c0.45,0,0.78-0.18,0.99-0.54c0.2-0.36,0.31-0.91,0.31-1.64L262.78,95.42L262.78,95.42z"/>
</g>
<g class="st2">
	<path class="st5" d="M289.3,173.99h-6.45v-1.28l3.04-3.24c0.42-0.45,0.73-0.85,0.93-1.19c0.2-0.34,0.3-0.66,0.3-0.97
		c0-0.42-0.1-0.75-0.31-0.98c-0.21-0.24-0.51-0.36-0.91-0.36c-0.43,0-0.76,0.14-1,0.43c-0.25,0.29-0.37,0.67-0.37,1.14h-1.87
		c0-0.58,0.13-1.1,0.41-1.57c0.27-0.47,0.66-0.84,1.16-1.12s1.07-0.41,1.7-0.41c0.97,0,1.72,0.24,2.26,0.7s0.8,1.12,0.8,1.97
		c0,0.46-0.12,0.94-0.36,1.42c-0.24,0.48-0.65,1.05-1.24,1.68l-2.14,2.26h4.05L289.3,173.99L289.3,173.99z"/>
	<path class="st5" d="M296.77,170.1c0,1.3-0.26,2.3-0.8,2.99c-0.54,0.69-1.32,1.03-2.36,1.03c-1.02,0-1.81-0.34-2.35-1.01
		c-0.55-0.67-0.82-1.64-0.83-2.91v-1.73c0-1.31,0.27-2.32,0.82-3c0.55-0.68,1.33-1.02,2.35-1.02s1.81,0.34,2.35,1.01
		c0.54,0.67,0.82,1.64,0.83,2.9L296.77,170.1L296.77,170.1z M294.91,168.2c0-0.78-0.1-1.35-0.32-1.7c-0.22-0.35-0.55-0.53-1-0.53
		c-0.43,0-0.77,0.17-0.97,0.51c-0.21,0.34-0.32,0.87-0.33,1.59v2.29c0,0.77,0.1,1.34,0.31,1.71c0.21,0.37,0.55,0.56,1,0.56
		s0.78-0.18,0.99-0.54c0.2-0.36,0.31-0.91,0.31-1.64L294.91,168.2L294.91,168.2z"/>
	<path class="st5" d="M304.48,173.99h-6.45v-1.28l3.04-3.24c0.42-0.45,0.73-0.85,0.93-1.19c0.2-0.34,0.3-0.66,0.3-0.97
		c0-0.42-0.1-0.75-0.31-0.98c-0.21-0.24-0.51-0.36-0.91-0.36c-0.43,0-0.76,0.14-1,0.43c-0.25,0.29-0.37,0.67-0.37,1.14h-1.87
		c0-0.58,0.13-1.1,0.41-1.57c0.27-0.47,0.66-0.84,1.16-1.12c0.5-0.27,1.07-0.41,1.7-0.41c0.97,0,1.72,0.24,2.26,0.7
		c0.54,0.46,0.8,1.12,0.8,1.97c0,0.46-0.12,0.94-0.36,1.42c-0.24,0.48-0.65,1.05-1.24,1.68l-2.14,2.26h4.05L304.48,173.99
		L304.48,173.99z"/>
</g>
<g class="st2">
	<path class="st5" d="M329.02,150.36h-6.45v-1.28l3.04-3.24c0.42-0.45,0.73-0.85,0.93-1.19c0.2-0.34,0.3-0.66,0.3-0.97
		c0-0.42-0.1-0.75-0.31-0.98c-0.21-0.24-0.51-0.36-0.91-0.36c-0.43,0-0.76,0.14-1,0.43c-0.25,0.29-0.37,0.67-0.37,1.14h-1.87
		c0-0.58,0.13-1.1,0.41-1.57c0.27-0.47,0.66-0.84,1.16-1.12s1.07-0.41,1.7-0.41c0.97,0,1.72,0.24,2.26,0.7s0.8,1.12,0.8,1.97
		c0,0.46-0.12,0.94-0.36,1.42c-0.24,0.48-0.65,1.05-1.24,1.68l-2.14,2.26h4.05L329.02,150.36L329.02,150.36z"/>
	<path class="st5" d="M336.49,146.47c0,1.3-0.26,2.3-0.8,2.99s-1.32,1.03-2.36,1.03c-1.02,0-1.81-0.34-2.35-1.01
		c-0.55-0.67-0.82-1.64-0.83-2.91v-1.73c0-1.31,0.27-2.32,0.82-3c0.55-0.68,1.33-1.02,2.35-1.02s1.81,0.34,2.35,1.01
		c0.54,0.67,0.82,1.64,0.83,2.9L336.49,146.47L336.49,146.47z M334.62,144.57c0-0.78-0.1-1.35-0.32-1.7c-0.22-0.35-0.55-0.53-1-0.53
		c-0.43,0-0.77,0.17-0.97,0.51c-0.21,0.34-0.32,0.87-0.33,1.59v2.29c0,0.77,0.1,1.34,0.31,1.71c0.21,0.37,0.55,0.56,1,0.56
		s0.78-0.18,0.99-0.54c0.2-0.36,0.31-0.91,0.31-1.64L334.62,144.57L334.62,144.57z"/>
	<path class="st5" d="M344.21,150.36h-6.45v-1.28l3.04-3.24c0.42-0.45,0.73-0.85,0.93-1.19c0.2-0.34,0.3-0.66,0.3-0.97
		c0-0.42-0.1-0.75-0.31-0.98c-0.21-0.24-0.51-0.36-0.91-0.36c-0.43,0-0.76,0.14-1,0.43c-0.25,0.29-0.37,0.67-0.37,1.14h-1.87
		c0-0.58,0.13-1.1,0.41-1.57c0.27-0.47,0.66-0.84,1.16-1.12s1.07-0.41,1.7-0.41c0.97,0,1.72,0.24,2.26,0.7s0.8,1.12,0.8,1.97
		c0,0.46-0.12,0.94-0.36,1.42s-0.65,1.05-1.24,1.68l-2.14,2.26h4.05L344.21,150.36L344.21,150.36z"/>
</g>
<g class="st2">
	<path class="st4" d="M366.82,153.2h-1.87V146l-2.23,0.69v-1.52l3.89-1.4h0.2L366.82,153.2L366.82,153.2z"/>
	<path class="st4" d="M374.25,149.44c-0.48,0.48-1.06,0.72-1.7,0.72c-0.83,0-1.49-0.28-1.99-0.86c-0.5-0.57-0.75-1.34-0.75-2.31
		c0-0.61,0.13-1.18,0.41-1.69c0.26-0.51,0.64-0.92,1.12-1.2s1.02-0.43,1.63-0.43c0.62,0,1.17,0.15,1.65,0.46s0.86,0.76,1.12,1.34
		c0.26,0.59,0.41,1.25,0.41,1.99v0.69c0,1.57-0.39,2.8-1.17,3.7c-0.78,0.9-1.88,1.37-3.32,1.44l-0.46,0.01v-1.56l0.42-0.01
		C373.24,151.65,374.12,150.88,374.25,149.44z M373,148.73c0.3,0,0.56-0.08,0.77-0.24c0.22-0.15,0.38-0.34,0.49-0.56v-0.77
		c0-0.63-0.12-1.12-0.36-1.47c-0.24-0.35-0.57-0.52-0.97-0.52c-0.38,0-0.68,0.17-0.93,0.51c-0.24,0.34-0.36,0.78-0.36,1.29
		s0.11,0.94,0.35,1.27C372.25,148.56,372.58,148.73,373,148.73z"/>
	<path class="st4" d="M382.54,143.69v1.54h-0.18c-0.84,0.01-1.52,0.24-2.04,0.66c-0.51,0.43-0.82,1.02-0.93,1.78
		c0.5-0.51,1.13-0.77,1.89-0.77c0.82,0,1.46,0.29,1.95,0.88c0.48,0.59,0.73,1.36,0.73,2.32c0,0.61-0.13,1.16-0.4,1.66
		c-0.26,0.5-0.64,0.88-1.12,1.15s-1.03,0.42-1.64,0.42c-0.99,0-1.79-0.34-2.4-1.03s-0.92-1.61-0.92-2.76v-0.67
		c0-1.02,0.19-1.92,0.58-2.7c0.39-0.78,0.94-1.39,1.66-1.81c0.72-0.43,1.56-0.64,2.51-0.65L382.54,143.69L382.54,143.69z
		 M380.72,148.41c-0.3,0-0.58,0.08-0.82,0.24c-0.25,0.16-0.43,0.37-0.54,0.62v0.57c0,0.62,0.12,1.11,0.37,1.46
		c0.25,0.35,0.59,0.53,1.03,0.53c0.4,0,0.73-0.16,0.97-0.47c0.25-0.31,0.37-0.73,0.37-1.23c0-0.51-0.12-0.93-0.38-1.24
		C381.47,148.57,381.14,148.41,380.72,148.41z"/>
</g>
<g class="st2">
	<path class="st4" d="M404.66,191.95h-1.87v-7.2l-2.23,0.69v-1.52l3.89-1.4h0.2L404.66,191.95L404.66,191.95z"/>
	<path class="st4" d="M413.84,185.04c0,0.45-0.11,0.86-0.34,1.22c-0.23,0.35-0.54,0.63-0.95,0.85c0.45,0.22,0.82,0.52,1.09,0.91
		c0.26,0.39,0.4,0.84,0.4,1.36c0,0.83-0.28,1.49-0.85,1.98s-1.34,0.73-2.32,0.73s-1.75-0.25-2.33-0.73
		c-0.58-0.48-0.86-1.14-0.86-1.98c0-0.52,0.13-0.97,0.4-1.36c0.26-0.39,0.62-0.69,1.08-0.91c-0.4-0.21-0.71-0.49-0.94-0.85
		c-0.23-0.36-0.34-0.76-0.34-1.22c0-0.8,0.26-1.44,0.8-1.92c0.54-0.47,1.26-0.72,2.17-0.72c0.92,0,1.64,0.24,2.17,0.71
		C413.57,183.59,413.84,184.23,413.84,185.04z M412.17,189.24c0-0.41-0.11-0.74-0.36-0.98c-0.24-0.25-0.56-0.37-0.95-0.37
		c-0.4,0-0.71,0.12-0.95,0.37c-0.24,0.25-0.36,0.58-0.36,0.98c0,0.4,0.11,0.73,0.35,0.97c0.24,0.25,0.56,0.37,0.97,0.37
		c0.41,0,0.72-0.11,0.95-0.36C412.06,189.97,412.17,189.65,412.17,189.24z M411.97,185.13c0-0.37-0.09-0.66-0.29-0.88
		c-0.2-0.23-0.46-0.33-0.82-0.33c-0.35,0-0.62,0.1-0.81,0.32c-0.19,0.22-0.29,0.51-0.29,0.89s0.09,0.68,0.29,0.91
		c0.2,0.23,0.47,0.34,0.82,0.34c0.35,0,0.62-0.11,0.82-0.34C411.88,185.81,411.97,185.5,411.97,185.13z"/>
	<path class="st4" d="M420.37,182.44v1.54h-0.18c-0.84,0.01-1.52,0.24-2.04,0.66c-0.51,0.43-0.82,1.02-0.93,1.78
		c0.5-0.51,1.13-0.77,1.89-0.77c0.82,0,1.46,0.29,1.95,0.88c0.48,0.59,0.73,1.36,0.73,2.32c0,0.61-0.13,1.16-0.4,1.66
		s-0.64,0.88-1.12,1.15s-1.03,0.42-1.64,0.42c-0.99,0-1.79-0.34-2.4-1.03c-0.61-0.69-0.92-1.61-0.92-2.76v-0.67
		c0-1.02,0.19-1.92,0.58-2.7c0.39-0.78,0.94-1.39,1.66-1.81c0.72-0.43,1.56-0.64,2.51-0.65L420.37,182.44L420.37,182.44z
		 M418.54,187.16c-0.3,0-0.58,0.08-0.82,0.24c-0.25,0.16-0.43,0.37-0.54,0.62v0.57c0,0.62,0.12,1.11,0.37,1.46
		c0.25,0.35,0.59,0.53,1.03,0.53c0.4,0,0.73-0.16,0.97-0.47c0.25-0.31,0.37-0.73,0.37-1.23c0-0.51-0.12-0.93-0.38-1.24
		C419.31,187.32,418.97,187.16,418.54,187.16z"/>
</g>
<g class="st2">
	<path class="st4" d="M448.18,77.59h-6.45v-1.28l3.04-3.24c0.42-0.45,0.73-0.85,0.93-1.19c0.2-0.34,0.3-0.66,0.3-0.97
		c0-0.42-0.1-0.75-0.31-0.98c-0.21-0.24-0.51-0.36-0.91-0.36c-0.43,0-0.76,0.14-1,0.43c-0.25,0.29-0.37,0.67-0.37,1.14h-1.87
		c0-0.58,0.13-1.1,0.41-1.57c0.27-0.47,0.66-0.84,1.16-1.12c0.5-0.27,1.07-0.41,1.7-0.41c0.97,0,1.72,0.24,2.26,0.7
		s0.8,1.12,0.8,1.97c0,0.46-0.12,0.94-0.36,1.42c-0.25,0.48-0.65,1.05-1.24,1.68l-2.14,2.26h4.05L448.18,77.59L448.18,77.59z"/>
	<path class="st4" d="M454.39,68.08v1.54h-0.19c-0.84,0.01-1.52,0.24-2.04,0.66c-0.51,0.43-0.82,1.02-0.93,1.78
		c0.5-0.51,1.13-0.77,1.89-0.77c0.82,0,1.46,0.29,1.95,0.88c0.48,0.59,0.73,1.36,0.73,2.32c0,0.61-0.13,1.16-0.4,1.66
		c-0.26,0.5-0.64,0.88-1.12,1.15s-1.03,0.42-1.64,0.42c-0.99,0-1.79-0.34-2.4-1.03c-0.6-0.69-0.92-1.61-0.92-2.76v-0.68
		c0-1.02,0.19-1.92,0.58-2.7c0.39-0.78,0.94-1.39,1.66-1.81c0.72-0.43,1.56-0.64,2.51-0.65H454.39z M452.57,72.8
		c-0.3,0-0.58,0.08-0.82,0.24c-0.25,0.16-0.43,0.37-0.54,0.62v0.57c0,0.62,0.12,1.11,0.37,1.46c0.25,0.35,0.59,0.53,1.03,0.53
		c0.4,0,0.73-0.16,0.97-0.47c0.25-0.31,0.37-0.73,0.37-1.23c0-0.51-0.12-0.93-0.38-1.24C453.32,72.96,452.98,72.8,452.57,72.8z"/>
	<path class="st4" d="M463.25,73.7c0,1.3-0.27,2.3-0.8,2.99c-0.54,0.69-1.32,1.03-2.36,1.03c-1.02,0-1.81-0.34-2.35-1.01
		c-0.55-0.67-0.82-1.64-0.83-2.91v-1.73c0-1.31,0.27-2.32,0.81-3c0.55-0.68,1.33-1.02,2.35-1.02c1.02,0,1.81,0.34,2.35,1.01
		c0.54,0.67,0.82,1.64,0.83,2.9L463.25,73.7L463.25,73.7z M461.37,71.8c0-0.78-0.1-1.35-0.32-1.7c-0.22-0.35-0.55-0.53-1-0.53
		c-0.43,0-0.77,0.17-0.97,0.51c-0.21,0.34-0.32,0.87-0.33,1.59v2.29c0,0.77,0.1,1.34,0.31,1.71c0.21,0.37,0.55,0.56,1,0.56
		c0.45,0,0.78-0.18,0.99-0.54c0.2-0.36,0.31-0.91,0.31-1.64L461.37,71.8L461.37,71.8z"/>
</g>
<g class="st2">
	<path class="st4" d="M497.33,202.35h-1.87v-7.2l-2.23,0.69v-1.52l3.89-1.4h0.2L497.33,202.35L497.33,202.35z"/>
	<path class="st4" d="M505.45,192.84v1.54h-0.18c-0.84,0.01-1.52,0.24-2.04,0.66c-0.51,0.43-0.82,1.02-0.93,1.78
		c0.5-0.51,1.13-0.77,1.89-0.77c0.82,0,1.46,0.29,1.95,0.88s0.73,1.36,0.73,2.32c0,0.61-0.13,1.16-0.4,1.66
		c-0.26,0.5-0.64,0.88-1.12,1.15s-1.03,0.42-1.64,0.42c-0.99,0-1.79-0.34-2.4-1.03c-0.61-0.69-0.92-1.61-0.92-2.76v-0.67
		c0-1.02,0.19-1.92,0.58-2.7c0.39-0.78,0.94-1.39,1.66-1.81c0.72-0.43,1.56-0.64,2.51-0.65L505.45,192.84L505.45,192.84z
		 M503.62,197.55c-0.3,0-0.58,0.08-0.82,0.24c-0.25,0.16-0.43,0.37-0.54,0.62v0.57c0,0.62,0.12,1.11,0.37,1.46
		c0.25,0.35,0.59,0.53,1.03,0.53c0.4,0,0.73-0.16,0.97-0.47c0.25-0.31,0.37-0.73,0.37-1.23c0-0.51-0.12-0.93-0.38-1.24
		C504.38,197.72,504.05,197.55,503.62,197.55z"/>
	<path class="st4" d="M513.5,198.8h1.07v1.5h-1.07v2.03h-1.87v-2.03h-3.86l-0.09-1.17l3.92-6.2h1.89V198.8z M509.55,198.8h2.08
		v-3.32l-0.12,0.22L509.55,198.8z"/>
</g>
<rect x="41.71" y="356.64" class="st0" width="29.04" height="39.22"/>
<rect x="81.17" y="333.01" class="st0" width="29.04" height="62.85"/>
<rect x="120.63" y="329.94" class="st0" width="29.04" height="65.92"/>
<rect x="160.1" y="267.56" class="st0" width="29.04" height="128.3"/>
<rect x="199.56" y="264.72" class="st0" width="29.04" height="131.14"/>
<rect x="357.39" y="245.59" class="st0" width="29.04" height="150.28"/>
<rect x="396.86" y="244.64" class="st0" width="29.04" height="151.22"/>
<g class="st2">
	<path class="st0" d="M10.74,396.33c0,1.3-0.26,2.3-0.8,2.99c-0.54,0.69-1.32,1.03-2.36,1.03c-1.02,0-1.81-0.34-2.35-1.01
		c-0.55-0.67-0.82-1.64-0.83-2.91v-1.73c0-1.31,0.27-2.32,0.81-3c0.54-0.68,1.33-1.02,2.35-1.02s1.81,0.34,2.35,1.01
		c0.54,0.67,0.82,1.64,0.83,2.9V396.33z M8.87,394.43c0-0.78-0.1-1.35-0.32-1.7c-0.22-0.35-0.55-0.53-1-0.53
		c-0.43,0-0.77,0.17-0.97,0.51c-0.21,0.34-0.32,0.87-0.33,1.59v2.29c0,0.77,0.1,1.34,0.31,1.71c0.21,0.37,0.55,0.56,1,0.56
		c0.45,0,0.78-0.18,0.99-0.54c0.2-0.36,0.31-0.91,0.31-1.64L8.87,394.43L8.87,394.43z"/>
</g>
<g class="st2">
	<path class="st4" d="M540.39,396.33c0,1.3-0.26,2.3-0.8,2.99c-0.54,0.69-1.32,1.03-2.36,1.03c-1.02,0-1.81-0.34-2.35-1.01
		c-0.55-0.67-0.82-1.64-0.83-2.91v-1.73c0-1.31,0.27-2.32,0.82-3c0.55-0.68,1.33-1.02,2.35-1.02s1.81,0.34,2.35,1.01
		c0.54,0.67,0.82,1.64,0.83,2.9L540.39,396.33L540.39,396.33z M538.52,394.43c0-0.78-0.1-1.35-0.32-1.7c-0.22-0.35-0.55-0.53-1-0.53
		c-0.43,0-0.77,0.17-0.97,0.51s-0.32,0.87-0.33,1.59v2.29c0,0.77,0.1,1.34,0.31,1.71s0.55,0.56,1,0.56c0.45,0,0.78-0.18,0.99-0.54
		c0.2-0.36,0.31-0.91,0.31-1.64L538.52,394.43L538.52,394.43z"/>
</g>
<g class="st2">
	<path class="st4" d="M526.74,336.54l0.54-4.78h5.27v1.56h-3.74l-0.24,2.02c0.44-0.24,0.92-0.36,1.42-0.36c0.9,0,1.6,0.27,2.11,0.83
		c0.51,0.56,0.77,1.33,0.77,2.33c0,0.6-0.13,1.15-0.39,1.64c-0.26,0.48-0.62,0.85-1.11,1.12c-0.48,0.26-1.04,0.4-1.69,0.4
		c-0.57,0-1.1-0.11-1.58-0.35c-0.48-0.23-0.87-0.56-1.15-0.97s-0.43-0.9-0.45-1.43h1.85c0.04,0.4,0.18,0.7,0.41,0.92
		c0.24,0.22,0.54,0.32,0.92,0.32c0.43,0,0.75-0.15,0.97-0.45c0.23-0.3,0.34-0.74,0.34-1.29c0-0.54-0.13-0.95-0.4-1.23
		c-0.26-0.28-0.63-0.43-1.12-0.43c-0.44,0-0.8,0.11-1.08,0.35l-0.18,0.17L526.74,336.54z"/>
	<path class="st4" d="M540.39,337.27c0,1.3-0.26,2.3-0.8,2.99c-0.54,0.69-1.32,1.03-2.36,1.03c-1.02,0-1.81-0.34-2.35-1.01
		c-0.55-0.67-0.82-1.64-0.83-2.91v-1.73c0-1.31,0.27-2.32,0.82-3c0.55-0.68,1.33-1.02,2.35-1.02s1.81,0.34,2.35,1.01
		c0.54,0.67,0.82,1.64,0.83,2.9L540.39,337.27L540.39,337.27z M538.52,335.37c0-0.78-0.1-1.35-0.32-1.7c-0.22-0.35-0.55-0.53-1-0.53
		c-0.43,0-0.77,0.17-0.97,0.51s-0.32,0.87-0.33,1.59v2.29c0,0.77,0.1,1.34,0.31,1.71s0.55,0.56,1,0.56c0.45,0,0.78-0.18,0.99-0.54
		c0.2-0.36,0.31-0.91,0.31-1.64L538.52,335.37L538.52,335.37z"/>
</g>
<g class="st2">
	<path class="st4" d="M523.4,282.1h-1.87v-7.2l-2.23,0.69v-1.52l3.89-1.4h0.2L523.4,282.1L523.4,282.1z"/>
	<path class="st4" d="M532.8,278.21c0,1.3-0.26,2.3-0.8,2.99s-1.32,1.03-2.36,1.03c-1.02,0-1.81-0.34-2.35-1.01
		c-0.55-0.67-0.82-1.64-0.83-2.91v-1.73c0-1.31,0.27-2.32,0.82-3c0.55-0.68,1.33-1.02,2.35-1.02s1.81,0.34,2.35,1.01
		c0.54,0.67,0.82,1.64,0.83,2.9L532.8,278.21L532.8,278.21z M530.93,276.3c0-0.78-0.1-1.35-0.32-1.7c-0.22-0.35-0.55-0.53-1-0.53
		c-0.43,0-0.77,0.17-0.97,0.51c-0.21,0.34-0.32,0.87-0.33,1.59v2.29c0,0.77,0.1,1.34,0.31,1.71c0.21,0.37,0.55,0.56,1,0.56
		c0.45,0,0.78-0.18,0.99-0.54c0.2-0.36,0.31-0.91,0.31-1.64L530.93,276.3L530.93,276.3z"/>
	<path class="st4" d="M540.39,278.21c0,1.3-0.26,2.3-0.8,2.99c-0.54,0.69-1.32,1.03-2.36,1.03c-1.02,0-1.81-0.34-2.35-1.01
		c-0.55-0.67-0.82-1.64-0.83-2.91v-1.73c0-1.31,0.27-2.32,0.82-3c0.55-0.68,1.33-1.02,2.35-1.02s1.81,0.34,2.35,1.01
		c0.54,0.67,0.82,1.64,0.83,2.9L540.39,278.21L540.39,278.21z M538.52,276.3c0-0.78-0.1-1.35-0.32-1.7c-0.22-0.35-0.55-0.53-1-0.53
		c-0.43,0-0.77,0.17-0.97,0.51c-0.21,0.34-0.32,0.87-0.33,1.59v2.29c0,0.77,0.1,1.34,0.31,1.71c0.21,0.37,0.55,0.56,1,0.56
		c0.45,0,0.78-0.18,0.99-0.54c0.2-0.36,0.31-0.91,0.31-1.64L538.52,276.3L538.52,276.3z"/>
</g>
<g class="st2">
	<path class="st4" d="M523.4,223.04h-1.87v-7.2l-2.23,0.69V215l3.89-1.4h0.2L523.4,223.04L523.4,223.04z"/>
	<path class="st4" d="M526.74,218.41l0.54-4.78h5.27v1.56h-3.74l-0.24,2.02c0.44-0.24,0.92-0.36,1.42-0.36c0.9,0,1.6,0.27,2.11,0.83
		c0.51,0.56,0.77,1.33,0.77,2.33c0,0.6-0.13,1.15-0.39,1.64c-0.26,0.48-0.62,0.85-1.11,1.12c-0.48,0.26-1.04,0.4-1.69,0.4
		c-0.57,0-1.1-0.11-1.58-0.35c-0.48-0.23-0.87-0.56-1.15-0.97s-0.43-0.9-0.45-1.43h1.85c0.04,0.4,0.18,0.7,0.41,0.92
		c0.24,0.22,0.54,0.32,0.92,0.32c0.43,0,0.75-0.15,0.97-0.45c0.23-0.3,0.34-0.74,0.34-1.29c0-0.54-0.13-0.95-0.4-1.23
		c-0.26-0.28-0.63-0.43-1.12-0.43c-0.44,0-0.8,0.11-1.08,0.35l-0.18,0.17L526.74,218.41z"/>
	<path class="st4" d="M540.39,219.15c0,1.3-0.26,2.3-0.8,2.99c-0.54,0.69-1.32,1.03-2.36,1.03c-1.02,0-1.81-0.34-2.35-1.01
		c-0.55-0.67-0.82-1.64-0.83-2.91v-1.73c0-1.31,0.27-2.32,0.82-3c0.55-0.68,1.33-1.02,2.35-1.02s1.81,0.34,2.35,1.01
		c0.54,0.67,0.82,1.64,0.83,2.9L540.39,219.15L540.39,219.15z M538.52,217.24c0-0.78-0.1-1.35-0.32-1.7c-0.22-0.35-0.55-0.53-1-0.53
		c-0.43,0-0.77,0.17-0.97,0.51c-0.21,0.34-0.32,0.87-0.33,1.59v2.29c0,0.77,0.1,1.34,0.31,1.71c0.21,0.37,0.55,0.56,1,0.56
		c0.45,0,0.78-0.18,0.99-0.54c0.2-0.36,0.31-0.91,0.31-1.64L538.52,217.24L538.52,217.24z"/>
</g>
<g class="st2">
	<path class="st4" d="M525.32,163.97h-6.45v-1.28l3.04-3.24c0.42-0.45,0.73-0.85,0.93-1.19s0.3-0.66,0.3-0.97
		c0-0.42-0.1-0.75-0.31-0.98c-0.21-0.24-0.51-0.36-0.91-0.36c-0.43,0-0.76,0.14-1,0.43s-0.37,0.67-0.37,1.14h-1.87
		c0-0.58,0.13-1.1,0.41-1.57s0.66-0.84,1.16-1.12c0.5-0.27,1.07-0.41,1.7-0.41c0.97,0,1.72,0.24,2.26,0.7
		c0.54,0.46,0.8,1.12,0.8,1.97c0,0.46-0.12,0.94-0.36,1.42s-0.65,1.05-1.24,1.68l-2.14,2.26h4.05L525.32,163.97L525.32,163.97z"/>
	<path class="st4" d="M532.8,160.09c0,1.3-0.26,2.3-0.8,2.99c-0.54,0.69-1.32,1.03-2.36,1.03c-1.02,0-1.81-0.34-2.35-1.01
		c-0.55-0.67-0.82-1.64-0.83-2.91v-1.73c0-1.31,0.27-2.32,0.82-3c0.55-0.68,1.33-1.02,2.35-1.02s1.81,0.34,2.35,1.01
		c0.54,0.67,0.82,1.64,0.83,2.9L532.8,160.09L532.8,160.09z M530.93,158.18c0-0.78-0.1-1.35-0.32-1.7c-0.22-0.35-0.55-0.53-1-0.53
		c-0.43,0-0.77,0.17-0.97,0.51c-0.21,0.34-0.32,0.87-0.33,1.59v2.29c0,0.77,0.1,1.34,0.31,1.71c0.21,0.37,0.55,0.56,1,0.56
		c0.45,0,0.78-0.18,0.99-0.54c0.2-0.36,0.31-0.91,0.31-1.64L530.93,158.18L530.93,158.18z"/>
	<path class="st4" d="M540.39,160.09c0,1.3-0.26,2.3-0.8,2.99c-0.54,0.69-1.32,1.03-2.36,1.03c-1.02,0-1.81-0.34-2.35-1.01
		c-0.55-0.67-0.82-1.64-0.83-2.91v-1.73c0-1.31,0.27-2.32,0.82-3c0.55-0.68,1.33-1.02,2.35-1.02s1.81,0.34,2.35,1.01
		c0.54,0.67,0.82,1.64,0.83,2.9L540.39,160.09L540.39,160.09z M538.52,158.18c0-0.78-0.1-1.35-0.32-1.7c-0.22-0.35-0.55-0.53-1-0.53
		c-0.43,0-0.77,0.17-0.97,0.51c-0.21,0.34-0.32,0.87-0.33,1.59v2.29c0,0.77,0.1,1.34,0.31,1.71c0.21,0.37,0.55,0.56,1,0.56
		c0.45,0,0.78-0.18,0.99-0.54c0.2-0.36,0.31-0.91,0.31-1.64L538.52,158.18L538.52,158.18z"/>
</g>
<g class="st2">
	<path class="st4" d="M525.32,104.91h-6.45v-1.28l3.04-3.24c0.42-0.45,0.73-0.85,0.93-1.19s0.3-0.66,0.3-0.97
		c0-0.42-0.1-0.75-0.31-0.98c-0.21-0.24-0.51-0.36-0.91-0.36c-0.43,0-0.76,0.14-1,0.43c-0.25,0.29-0.37,0.67-0.37,1.14h-1.87
		c0-0.58,0.13-1.1,0.41-1.57s0.66-0.84,1.16-1.12c0.5-0.27,1.07-0.41,1.7-0.41c0.97,0,1.72,0.24,2.26,0.7
		c0.54,0.46,0.8,1.12,0.8,1.97c0,0.46-0.12,0.94-0.36,1.42s-0.65,1.05-1.24,1.68l-2.14,2.26h4.05L525.32,104.91L525.32,104.91z"/>
	<path class="st4" d="M526.74,100.29l0.54-4.78h5.27v1.56h-3.74l-0.24,2.02c0.44-0.24,0.92-0.36,1.42-0.36c0.9,0,1.6,0.27,2.11,0.83
		c0.51,0.56,0.77,1.33,0.77,2.33c0,0.6-0.13,1.15-0.39,1.64c-0.26,0.48-0.62,0.85-1.11,1.12c-0.48,0.26-1.04,0.4-1.69,0.4
		c-0.57,0-1.1-0.11-1.58-0.35c-0.48-0.23-0.87-0.56-1.15-0.97c-0.28-0.42-0.43-0.9-0.45-1.43h1.85c0.04,0.4,0.18,0.7,0.41,0.92
		c0.24,0.22,0.54,0.32,0.92,0.32c0.43,0,0.75-0.15,0.97-0.45c0.23-0.3,0.34-0.74,0.34-1.29c0-0.54-0.13-0.95-0.4-1.23
		c-0.26-0.28-0.63-0.43-1.12-0.43c-0.44,0-0.8,0.11-1.08,0.35l-0.18,0.17L526.74,100.29z"/>
	<path class="st4" d="M540.39,101.02c0,1.3-0.26,2.3-0.8,2.99c-0.54,0.69-1.32,1.03-2.36,1.03c-1.02,0-1.81-0.34-2.35-1.01
		c-0.55-0.67-0.82-1.64-0.83-2.91v-1.73c0-1.31,0.27-2.32,0.82-3c0.55-0.68,1.33-1.02,2.35-1.02s1.81,0.34,2.35,1.01
		c0.54,0.67,0.82,1.64,0.83,2.9L540.39,101.02L540.39,101.02z M538.52,99.12c0-0.78-0.1-1.35-0.32-1.7c-0.22-0.35-0.55-0.53-1-0.53
		c-0.43,0-0.77,0.17-0.97,0.51c-0.21,0.34-0.32,0.87-0.33,1.59v2.29c0,0.77,0.1,1.34,0.31,1.71s0.55,0.56,1,0.56
		c0.45,0,0.78-0.18,0.99-0.54c0.2-0.36,0.31-0.91,0.31-1.64L538.52,99.12L538.52,99.12z"/>
</g>
<g class="st2">
	<path class="st4" d="M501.6,83.9v-9.4h2.89c0.83,0,1.57,0.19,2.22,0.56s1.16,0.9,1.53,1.59c0.37,0.69,0.55,1.46,0.55,2.34v0.43
		c0,0.87-0.18,1.65-0.54,2.33c-0.36,0.68-0.87,1.21-1.52,1.58c-0.65,0.38-1.39,0.57-2.21,0.57H501.6z M503.54,76.07v6.28h0.94
		c0.76,0,1.34-0.25,1.74-0.75s0.6-1.2,0.61-2.13v-0.5c0-0.95-0.2-1.68-0.6-2.17c-0.4-0.49-0.97-0.74-1.74-0.74L503.54,76.07
		L503.54,76.07z"/>
	<path class="st4" d="M515.86,79.83h-3.72v2.52h4.37v1.56h-6.3v-9.4h6.29v1.57h-4.36v2.24h3.72V79.83z"/>
	<path class="st4" d="M522.96,81.97h-3.4l-0.64,1.94h-2.06l3.51-9.4h1.8l3.53,9.4h-2.06L522.96,81.97z M520.08,80.4h2.35l-1.18-3.53
		L520.08,80.4z"/>
	<path class="st4" d="M528.49,82.35h4.11v1.56h-6.06v-9.4h1.94L528.49,82.35L528.49,82.35z"/>
	<path class="st4" d="M538.59,81.44c0-0.37-0.13-0.64-0.39-0.84s-0.73-0.41-1.4-0.62c-0.67-0.22-1.2-0.43-1.6-0.64
		c-1.07-0.58-1.61-1.35-1.61-2.33c0-0.51,0.14-0.96,0.43-1.36c0.28-0.4,0.7-0.71,1.24-0.94c0.54-0.23,1.13-0.34,1.81-0.34
		c0.67,0,1.27,0.12,1.8,0.37c0.53,0.25,0.94,0.59,1.23,1.03c0.29,0.44,0.43,0.95,0.43,1.51h-1.94c0-0.43-0.13-0.77-0.41-1
		c-0.27-0.24-0.65-0.36-1.14-0.36c-0.47,0-0.84,0.1-1.11,0.3c-0.26,0.2-0.4,0.46-0.4,0.79c0,0.3,0.15,0.56,0.46,0.77
		c0.31,0.21,0.77,0.4,1.36,0.59c1.11,0.33,1.91,0.75,2.41,1.24c0.5,0.49,0.76,1.11,0.76,1.83c0,0.81-0.31,1.46-0.93,1.92
		c-0.61,0.46-1.45,0.69-2.49,0.69c-0.73,0-1.38-0.13-1.98-0.4c-0.6-0.26-1.05-0.63-1.36-1.09c-0.31-0.46-0.47-0.99-0.47-1.61h1.95
		c0,1.04,0.62,1.56,1.86,1.56c0.46,0,0.82-0.09,1.08-0.28C538.46,82.04,538.59,81.78,538.59,81.44z"/>
</g>
<g class="st2">
	<path class="st0" d="M10.85,353.35H4.41v-1.28l3.04-3.24c0.42-0.45,0.73-0.85,0.93-1.19c0.2-0.34,0.3-0.66,0.3-0.97
		c0-0.42-0.1-0.75-0.31-0.98c-0.21-0.24-0.51-0.36-0.91-0.36c-0.43,0-0.76,0.14-1,0.43c-0.25,0.29-0.37,0.67-0.37,1.14H4.22
		c0-0.58,0.13-1.1,0.41-1.57c0.27-0.47,0.66-0.84,1.16-1.12c0.5-0.27,1.07-0.41,1.7-0.41c0.97,0,1.72,0.24,2.26,0.7
		c0.54,0.46,0.8,1.12,0.8,1.97c0,0.46-0.12,0.94-0.36,1.42s-0.65,1.05-1.24,1.68l-2.14,2.26h4.05L10.85,353.35L10.85,353.35z"/>
	<path class="st0" d="M18.33,349.46c0,1.3-0.26,2.3-0.8,2.99c-0.54,0.69-1.32,1.03-2.36,1.03c-1.02,0-1.81-0.34-2.35-1.01
		c-0.55-0.67-0.82-1.64-0.83-2.91v-1.73c0-1.31,0.27-2.32,0.81-3s1.33-1.02,2.35-1.02s1.81,0.34,2.35,1.01
		c0.54,0.67,0.82,1.64,0.83,2.9V349.46z M16.46,347.56c0-0.78-0.1-1.35-0.32-1.7s-0.55-0.53-1-0.53c-0.43,0-0.77,0.17-0.97,0.51
		c-0.21,0.34-0.32,0.87-0.33,1.59v2.29c0,0.77,0.1,1.34,0.31,1.71c0.21,0.37,0.55,0.56,1,0.56c0.45,0,0.78-0.18,0.99-0.54
		c0.2-0.36,0.31-0.91,0.31-1.64L16.46,347.56L16.46,347.56z"/>
	<path class="st0" d="M25.92,349.46c0,1.3-0.26,2.3-0.8,2.99c-0.54,0.69-1.32,1.03-2.36,1.03c-1.02,0-1.81-0.34-2.35-1.01
		c-0.55-0.67-0.82-1.64-0.83-2.91v-1.73c0-1.31,0.27-2.32,0.81-3c0.54-0.68,1.33-1.02,2.35-1.02s1.81,0.34,2.35,1.01
		c0.54,0.67,0.82,1.64,0.83,2.9C25.92,347.73,25.92,349.46,25.92,349.46z M24.05,347.56c0-0.78-0.1-1.35-0.32-1.7s-0.55-0.53-1-0.53
		c-0.43,0-0.77,0.17-0.97,0.51c-0.21,0.34-0.32,0.87-0.33,1.59v2.29c0,0.77,0.1,1.34,0.31,1.71c0.21,0.37,0.55,0.56,1,0.56
		c0.45,0,0.78-0.18,0.99-0.54c0.2-0.36,0.31-0.91,0.31-1.64L24.05,347.56L24.05,347.56z"/>
</g>
<g class="st2">
	<path class="st0" d="M9.92,302.94h1.07v1.5H9.92v2.03H8.05v-2.03H4.2l-0.09-1.17l3.92-6.2h1.89V302.94z M5.98,302.94h2.08v-3.32
		l-0.12,0.22L5.98,302.94z"/>
	<path class="st0" d="M18.33,302.59c0,1.3-0.26,2.3-0.8,2.99c-0.54,0.69-1.32,1.03-2.36,1.03c-1.02,0-1.81-0.34-2.35-1.01
		c-0.55-0.67-0.82-1.64-0.83-2.91v-1.73c0-1.31,0.27-2.32,0.81-3s1.33-1.02,2.35-1.02s1.81,0.34,2.35,1.01
		c0.54,0.67,0.82,1.64,0.83,2.9V302.59z M16.46,300.69c0-0.78-0.1-1.35-0.32-1.7s-0.55-0.53-1-0.53c-0.43,0-0.77,0.17-0.97,0.51
		c-0.21,0.34-0.32,0.87-0.33,1.59v2.29c0,0.77,0.1,1.34,0.31,1.71c0.21,0.37,0.55,0.56,1,0.56c0.45,0,0.78-0.18,0.99-0.54
		c0.2-0.36,0.31-0.91,0.31-1.64L16.46,300.69L16.46,300.69z"/>
	<path class="st0" d="M25.92,302.59c0,1.3-0.26,2.3-0.8,2.99c-0.54,0.69-1.32,1.03-2.36,1.03c-1.02,0-1.81-0.34-2.35-1.01
		c-0.55-0.67-0.82-1.64-0.83-2.91v-1.73c0-1.31,0.27-2.32,0.81-3c0.54-0.68,1.33-1.02,2.35-1.02s1.81,0.34,2.35,1.01
		c0.54,0.67,0.82,1.64,0.83,2.9C25.92,300.85,25.92,302.59,25.92,302.59z M24.05,300.69c0-0.78-0.1-1.35-0.32-1.7s-0.55-0.53-1-0.53
		c-0.43,0-0.77,0.17-0.97,0.51c-0.21,0.34-0.32,0.87-0.33,1.59v2.29c0,0.77,0.1,1.34,0.31,1.71c0.21,0.37,0.55,0.56,1,0.56
		c0.45,0,0.78-0.18,0.99-0.54c0.2-0.36,0.31-0.91,0.31-1.64L24.05,300.69L24.05,300.69z"/>
</g>
<g class="st2">
	<path class="st0" d="M9.47,250.1v1.54H9.29c-0.84,0.01-1.52,0.24-2.04,0.66c-0.52,0.43-0.82,1.02-0.93,1.78
		c0.5-0.51,1.13-0.77,1.89-0.77c0.82,0,1.46,0.29,1.95,0.88c0.48,0.59,0.73,1.36,0.73,2.32c0,0.61-0.13,1.16-0.4,1.66
		s-0.64,0.88-1.12,1.15c-0.48,0.27-1.03,0.42-1.64,0.42c-0.99,0-1.79-0.34-2.4-1.03c-0.61-0.69-0.92-1.61-0.92-2.76v-0.67
		c0-1.02,0.19-1.92,0.58-2.7c0.39-0.78,0.94-1.39,1.66-1.81c0.72-0.43,1.56-0.64,2.51-0.65L9.47,250.1L9.47,250.1z M7.65,254.82
		c-0.3,0-0.58,0.08-0.82,0.24c-0.25,0.16-0.43,0.37-0.54,0.62v0.57c0,0.62,0.12,1.11,0.37,1.46c0.25,0.35,0.59,0.53,1.03,0.53
		c0.4,0,0.73-0.16,0.97-0.47c0.25-0.31,0.37-0.73,0.37-1.23c0-0.51-0.12-0.93-0.38-1.24C8.39,254.99,8.07,254.82,7.65,254.82z"/>
	<path class="st0" d="M18.33,255.72c0,1.3-0.26,2.3-0.8,2.99c-0.54,0.69-1.32,1.03-2.36,1.03c-1.02,0-1.81-0.34-2.35-1.01
		c-0.55-0.67-0.82-1.64-0.83-2.91v-1.73c0-1.31,0.27-2.32,0.81-3c0.54-0.68,1.33-1.02,2.35-1.02s1.81,0.34,2.35,1.01
		c0.54,0.67,0.82,1.64,0.83,2.9V255.72z M16.46,253.81c0-0.78-0.1-1.35-0.32-1.7c-0.22-0.35-0.55-0.53-1-0.53
		c-0.43,0-0.77,0.17-0.97,0.51c-0.21,0.34-0.32,0.87-0.33,1.59v2.29c0,0.77,0.1,1.34,0.31,1.71c0.21,0.37,0.55,0.56,1,0.56
		c0.45,0,0.78-0.18,0.99-0.54c0.2-0.36,0.31-0.91,0.31-1.64L16.46,253.81L16.46,253.81z"/>
	<path class="st0" d="M25.92,255.72c0,1.3-0.26,2.3-0.8,2.99c-0.54,0.69-1.32,1.03-2.36,1.03c-1.02,0-1.81-0.34-2.35-1.01
		c-0.55-0.67-0.82-1.64-0.83-2.91v-1.73c0-1.31,0.27-2.32,0.81-3c0.54-0.68,1.33-1.02,2.35-1.02s1.81,0.34,2.35,1.01
		c0.54,0.67,0.82,1.64,0.83,2.9C25.92,253.98,25.92,255.72,25.92,255.72z M24.05,253.81c0-0.78-0.1-1.35-0.32-1.7
		c-0.22-0.35-0.55-0.53-1-0.53c-0.43,0-0.77,0.17-0.97,0.51c-0.21,0.34-0.32,0.87-0.33,1.59v2.29c0,0.77,0.1,1.34,0.31,1.71
		s0.55,0.56,1,0.56c0.45,0,0.78-0.18,0.99-0.54c0.2-0.36,0.31-0.91,0.31-1.64L24.05,253.81L24.05,253.81z"/>
</g>
<g class="st2">
	<path class="st0" d="M10.54,205.82c0,0.45-0.11,0.86-0.34,1.22c-0.23,0.36-0.54,0.63-0.95,0.85c0.45,0.22,0.82,0.52,1.09,0.91
		c0.26,0.39,0.4,0.84,0.4,1.36c0,0.83-0.28,1.49-0.85,1.98c-0.57,0.48-1.34,0.73-2.32,0.73s-1.75-0.25-2.33-0.73
		s-0.86-1.14-0.86-1.98c0-0.52,0.13-0.97,0.4-1.36c0.26-0.39,0.62-0.69,1.08-0.91c-0.4-0.21-0.72-0.49-0.94-0.85
		c-0.22-0.36-0.34-0.76-0.34-1.22c0-0.8,0.26-1.44,0.8-1.92c0.53-0.47,1.26-0.72,2.17-0.72s1.64,0.24,2.17,0.71
		C10.27,204.38,10.54,205.01,10.54,205.82z M8.87,210.02c0-0.41-0.12-0.74-0.36-0.98s-0.56-0.37-0.95-0.37
		c-0.4,0-0.71,0.12-0.95,0.37s-0.36,0.58-0.36,0.98c0,0.4,0.11,0.73,0.35,0.97c0.24,0.25,0.56,0.37,0.97,0.37
		c0.41,0,0.72-0.11,0.95-0.36S8.87,210.44,8.87,210.02z M8.67,205.92c0-0.37-0.09-0.66-0.29-0.88c-0.2-0.23-0.46-0.33-0.82-0.33
		c-0.35,0-0.62,0.1-0.81,0.32c-0.19,0.22-0.29,0.51-0.29,0.89s0.09,0.68,0.29,0.91c0.2,0.23,0.46,0.34,0.82,0.34
		c0.36,0,0.62-0.11,0.81-0.34C8.56,206.6,8.67,206.29,8.67,205.92z"/>
	<path class="st0" d="M18.33,208.84c0,1.3-0.26,2.3-0.8,2.99c-0.54,0.69-1.32,1.03-2.36,1.03c-1.02,0-1.81-0.34-2.35-1.01
		c-0.55-0.67-0.82-1.64-0.83-2.91v-1.73c0-1.31,0.27-2.32,0.81-3c0.54-0.68,1.33-1.02,2.35-1.02s1.81,0.34,2.35,1.01
		c0.54,0.67,0.82,1.64,0.83,2.9V208.84z M16.46,206.94c0-0.78-0.1-1.35-0.32-1.7c-0.22-0.35-0.55-0.53-1-0.53
		c-0.43,0-0.77,0.17-0.97,0.51c-0.21,0.34-0.32,0.87-0.33,1.59v2.29c0,0.77,0.1,1.34,0.31,1.71c0.21,0.37,0.55,0.56,1,0.56
		c0.45,0,0.78-0.18,0.99-0.54c0.2-0.36,0.31-0.91,0.31-1.64L16.46,206.94L16.46,206.94z"/>
	<path class="st0" d="M25.92,208.84c0,1.3-0.26,2.3-0.8,2.99c-0.54,0.69-1.32,1.03-2.36,1.03c-1.02,0-1.81-0.34-2.35-1.01
		c-0.55-0.67-0.82-1.64-0.83-2.91v-1.73c0-1.31,0.27-2.32,0.81-3c0.54-0.68,1.33-1.02,2.35-1.02s1.81,0.34,2.35,1.01
		c0.54,0.67,0.82,1.64,0.83,2.9C25.92,207.1,25.92,208.84,25.92,208.84z M24.05,206.94c0-0.78-0.1-1.35-0.32-1.7
		c-0.22-0.35-0.55-0.53-1-0.53c-0.43,0-0.77,0.17-0.97,0.51c-0.21,0.34-0.32,0.87-0.33,1.59v2.29c0,0.77,0.1,1.34,0.31,1.71
		c0.21,0.37,0.55,0.56,1,0.56c0.45,0,0.78-0.18,0.99-0.54c0.2-0.36,0.31-0.91,0.31-1.64L24.05,206.94L24.05,206.94z"/>
</g>
<g class="st2">
	<path class="st0" d="M8.94,165.86H7.07v-7.2l-2.23,0.69v-1.52l3.89-1.4h0.2L8.94,165.86L8.94,165.86z"/>
	<path class="st0" d="M12.56,168.22l-0.97-0.51l0.24-0.42c0.29-0.53,0.43-1.05,0.44-1.57v-1.45h1.58l-0.01,1.29
		c0,0.48-0.12,0.96-0.36,1.45C13.24,167.5,12.93,167.9,12.56,168.22z"/>
	<path class="st0" d="M21.56,161.97c0,1.3-0.26,2.3-0.8,2.99c-0.54,0.69-1.32,1.03-2.36,1.03c-1.02,0-1.81-0.34-2.35-1.01
		c-0.55-0.67-0.82-1.64-0.83-2.91v-1.73c0-1.31,0.27-2.32,0.81-3c0.54-0.68,1.33-1.02,2.35-1.02c1.02,0,1.81,0.34,2.35,1.01
		c0.54,0.67,0.82,1.64,0.83,2.9C21.56,160.23,21.56,161.97,21.56,161.97z M19.69,160.06c0-0.78-0.1-1.35-0.32-1.7
		c-0.22-0.35-0.55-0.53-1-0.53c-0.43,0-0.77,0.17-0.97,0.51c-0.21,0.34-0.32,0.87-0.33,1.59v2.29c0,0.77,0.1,1.34,0.31,1.71
		c0.21,0.37,0.55,0.56,1,0.56s0.78-0.18,0.99-0.54c0.2-0.36,0.31-0.91,0.31-1.64L19.69,160.06L19.69,160.06z"/>
	<path class="st0" d="M29.15,161.97c0,1.3-0.26,2.3-0.8,2.99c-0.54,0.69-1.32,1.03-2.36,1.03c-1.02,0-1.81-0.34-2.35-1.01
		c-0.55-0.67-0.82-1.64-0.83-2.91v-1.73c0-1.31,0.27-2.32,0.81-3c0.54-0.68,1.33-1.02,2.35-1.02s1.81,0.34,2.35,1.01
		c0.54,0.67,0.82,1.64,0.83,2.9C29.15,160.23,29.15,161.97,29.15,161.97z M27.28,160.06c0-0.78-0.1-1.35-0.32-1.7
		c-0.22-0.35-0.55-0.53-1-0.53c-0.43,0-0.77,0.17-0.97,0.51c-0.21,0.34-0.32,0.87-0.33,1.59v2.29c0,0.77,0.1,1.34,0.31,1.71
		c0.21,0.37,0.55,0.56,1,0.56s0.78-0.18,0.99-0.54c0.2-0.36,0.31-0.91,0.31-1.64L27.28,160.06L27.28,160.06z"/>
	<path class="st0" d="M36.74,161.97c0,1.3-0.26,2.3-0.8,2.99c-0.54,0.69-1.32,1.03-2.36,1.03c-1.02,0-1.81-0.34-2.35-1.01
		c-0.55-0.67-0.82-1.64-0.83-2.91v-1.73c0-1.31,0.27-2.32,0.81-3c0.54-0.68,1.33-1.02,2.35-1.02c1.02,0,1.81,0.34,2.35,1.01
		c0.54,0.67,0.82,1.64,0.83,2.9C36.74,160.23,36.74,161.97,36.74,161.97z M34.88,160.06c0-0.78-0.1-1.35-0.32-1.7
		c-0.22-0.35-0.55-0.53-1-0.53c-0.43,0-0.77,0.17-0.97,0.51c-0.21,0.34-0.32,0.87-0.33,1.59v2.29c0,0.77,0.1,1.34,0.31,1.71
		c0.21,0.37,0.55,0.56,1,0.56c0.45,0,0.78-0.18,0.99-0.54c0.2-0.36,0.31-0.91,0.31-1.64L34.88,160.06L34.88,160.06z"/>
</g>
<g class="st2">
	<path class="st0" d="M8.94,118.99H7.07v-7.2l-2.23,0.69v-1.51l3.89-1.4h0.2L8.94,118.99L8.94,118.99z"/>
	<path class="st0" d="M12.56,121.34l-0.97-0.51l0.24-0.42c0.29-0.53,0.43-1.05,0.44-1.57v-1.45h1.58l-0.01,1.29
		c0,0.48-0.12,0.96-0.36,1.45C13.24,120.62,12.93,121.03,12.56,121.34z"/>
	<path class="st0" d="M21.67,118.99h-6.45v-1.28l3.04-3.24c0.42-0.45,0.73-0.85,0.93-1.19c0.2-0.34,0.3-0.66,0.3-0.97
		c0-0.42-0.1-0.75-0.31-0.98s-0.51-0.36-0.91-0.36c-0.43,0-0.76,0.14-1,0.43c-0.25,0.29-0.37,0.67-0.37,1.14h-1.87
		c0-0.58,0.13-1.1,0.41-1.57c0.27-0.47,0.66-0.84,1.16-1.12c0.5-0.27,1.07-0.41,1.7-0.41c0.97,0,1.72,0.24,2.26,0.7
		c0.54,0.46,0.8,1.12,0.8,1.97c0,0.46-0.12,0.94-0.36,1.42c-0.24,0.48-0.65,1.05-1.24,1.68l-2.14,2.26h4.05L21.67,118.99
		L21.67,118.99z"/>
	<path class="st0" d="M29.15,115.09c0,1.3-0.26,2.3-0.8,2.99c-0.54,0.69-1.32,1.03-2.36,1.03c-1.02,0-1.81-0.34-2.35-1.01
		c-0.55-0.67-0.82-1.64-0.83-2.91v-1.73c0-1.31,0.27-2.32,0.81-3c0.54-0.68,1.33-1.02,2.35-1.02s1.81,0.34,2.35,1.01
		c0.54,0.67,0.82,1.64,0.83,2.9C29.15,113.35,29.15,115.09,29.15,115.09z M27.28,113.19c0-0.78-0.1-1.35-0.32-1.7
		c-0.22-0.35-0.55-0.53-1-0.53c-0.43,0-0.77,0.17-0.97,0.51c-0.21,0.34-0.32,0.87-0.33,1.59v2.29c0,0.77,0.1,1.34,0.31,1.71
		c0.21,0.37,0.55,0.56,1,0.56s0.78-0.18,0.99-0.54c0.2-0.36,0.31-0.91,0.31-1.64L27.28,113.19L27.28,113.19z"/>
	<path class="st0" d="M36.74,115.09c0,1.3-0.26,2.3-0.8,2.99c-0.54,0.69-1.32,1.03-2.36,1.03c-1.02,0-1.81-0.34-2.35-1.01
		c-0.55-0.67-0.82-1.64-0.83-2.91v-1.73c0-1.31,0.27-2.32,0.81-3c0.54-0.68,1.33-1.02,2.35-1.02c1.02,0,1.81,0.34,2.35,1.01
		c0.54,0.67,0.82,1.64,0.83,2.9C36.74,113.35,36.74,115.09,36.74,115.09z M34.88,113.19c0-0.78-0.1-1.35-0.32-1.7
		c-0.22-0.35-0.55-0.53-1-0.53c-0.43,0-0.77,0.17-0.97,0.51c-0.21,0.34-0.32,0.87-0.33,1.59v2.29c0,0.77,0.1,1.34,0.31,1.71
		c0.21,0.37,0.55,0.56,1,0.56c0.45,0,0.78-0.18,0.99-0.54c0.2-0.36,0.31-0.91,0.31-1.64L34.88,113.19L34.88,113.19z"/>
</g>
<g class="st2">
	<path class="st0" d="M8.94,72.11H7.07v-7.2L4.84,65.6v-1.51l3.89-1.4h0.2L8.94,72.11L8.94,72.11z"/>
	<path class="st0" d="M12.56,74.47l-0.97-0.51l0.24-0.42c0.29-0.53,0.43-1.05,0.44-1.57v-1.45h1.58l-0.01,1.29
		c0,0.48-0.12,0.96-0.36,1.45C13.24,73.75,12.93,74.15,12.56,74.47z"/>
	<path class="st0" d="M20.75,68.57h1.07v1.5h-1.07v2.03h-1.87v-2.03h-3.86l-0.09-1.17l3.92-6.2h1.89V68.57z M16.81,68.57h2.08v-3.32
		l-0.12,0.22L16.81,68.57z"/>
	<path class="st0" d="M29.15,68.22c0,1.3-0.26,2.3-0.8,2.99c-0.54,0.69-1.32,1.03-2.36,1.03c-1.02,0-1.81-0.34-2.35-1.01
		c-0.55-0.67-0.82-1.64-0.83-2.91v-1.73c0-1.31,0.27-2.32,0.81-3c0.54-0.68,1.33-1.02,2.35-1.02s1.81,0.34,2.35,1.01
		c0.54,0.67,0.82,1.64,0.83,2.9C29.15,66.48,29.15,68.22,29.15,68.22z M27.28,66.31c0-0.78-0.1-1.35-0.32-1.7s-0.55-0.53-1-0.53
		c-0.43,0-0.77,0.17-0.97,0.51s-0.32,0.87-0.33,1.59v2.29c0,0.77,0.1,1.34,0.31,1.71c0.21,0.37,0.55,0.56,1,0.56
		s0.78-0.18,0.99-0.54c0.2-0.36,0.31-0.91,0.31-1.64L27.28,66.31L27.28,66.31z"/>
	<path class="st0" d="M36.74,68.22c0,1.3-0.26,2.3-0.8,2.99c-0.54,0.69-1.32,1.03-2.36,1.03c-1.02,0-1.81-0.34-2.35-1.01
		c-0.55-0.67-0.82-1.64-0.83-2.91v-1.73c0-1.31,0.27-2.32,0.81-3c0.54-0.68,1.33-1.02,2.35-1.02c1.02,0,1.81,0.34,2.35,1.01
		c0.54,0.67,0.82,1.64,0.83,2.9C36.74,66.48,36.74,68.22,36.74,68.22z M34.88,66.31c0-0.78-0.1-1.35-0.32-1.7s-0.55-0.53-1-0.53
		c-0.43,0-0.77,0.17-0.97,0.51s-0.32,0.87-0.33,1.59v2.29c0,0.77,0.1,1.34,0.31,1.71c0.21,0.37,0.55,0.56,1,0.56
		c0.45,0,0.78-0.18,0.99-0.54c0.2-0.36,0.31-0.91,0.31-1.64L34.88,66.31L34.88,66.31z"/>
</g>
<g class="st2">
	<path class="st0" d="M10.27,28.89H6.54v3.85H4.6v-9.4h6.12v1.57H6.54v2.43h3.72C10.27,27.33,10.27,28.89,10.27,28.89z"/>
	<path class="st0" d="M18.97,23.32v6.2c0,1.03-0.32,1.84-0.96,2.44c-0.64,0.6-1.52,0.9-2.64,0.9c-1.1,0-1.97-0.29-2.62-0.87
		c-0.65-0.58-0.97-1.38-0.99-2.4v-6.27h1.94v6.21c0,0.61,0.15,1.07,0.44,1.34c0.29,0.28,0.7,0.43,1.23,0.43
		c1.09,0,1.64-0.58,1.66-1.72v-6.26C17.03,23.32,18.97,23.32,18.97,23.32z"/>
	<path class="st0" d="M28.21,32.72h-1.94l-3.77-6.19v6.19h-1.94v-9.4h1.94l3.78,6.2v-6.2h1.93V32.72z"/>
	<path class="st0" d="M29.9,32.72v-9.4h2.89c0.83,0,1.57,0.19,2.22,0.56c0.65,0.37,1.16,0.9,1.53,1.59s0.55,1.46,0.55,2.34v0.43
		c0,0.87-0.18,1.65-0.54,2.33c-0.36,0.68-0.87,1.21-1.52,1.58c-0.65,0.37-1.39,0.57-2.21,0.57C32.83,32.72,29.9,32.72,29.9,32.72z
		 M31.84,24.89v6.28h0.94c0.76,0,1.34-0.25,1.74-0.75c0.4-0.5,0.6-1.2,0.61-2.13v-0.5c0-0.95-0.2-1.68-0.6-2.17
		s-0.97-0.74-1.74-0.74L31.84,24.89L31.84,24.89z"/>
	<path class="st0" d="M40.57,32.72h-1.94v-9.4h1.94V32.72z"/>
	<path class="st0" d="M50.01,32.72h-1.94l-3.77-6.19v6.19h-1.94v-9.4h1.94l3.78,6.2v-6.2h1.93C50.01,23.32,50.01,32.72,50.01,32.72z
		"/>
	<path class="st0" d="M59.15,31.53c-0.35,0.42-0.84,0.75-1.48,0.97c-0.63,0.23-1.34,0.35-2.12,0.35c-0.81,0-1.53-0.18-2.15-0.53
		c-0.61-0.36-1.09-0.87-1.42-1.55c-0.33-0.68-0.5-1.47-0.51-2.38v-0.64c0-0.94,0.16-1.75,0.47-2.44c0.31-0.69,0.78-1.21,1.37-1.58
		c0.6-0.37,1.29-0.55,2.1-0.55c1.12,0,1.98,0.26,2.62,0.79s1,1.3,1.12,2.33h-1.89c-0.09-0.54-0.27-0.94-0.57-1.18
		s-0.7-0.38-1.22-0.38c-0.66,0-1.16,0.25-1.5,0.75s-0.52,1.23-0.52,2.21v0.6c0,0.98,0.19,1.73,0.56,2.24
		c0.37,0.51,0.93,0.76,1.64,0.76c0.73,0,1.25-0.15,1.56-0.46v-1.64h-1.77v-1.43h3.7C59.15,27.78,59.15,31.53,59.15,31.53z"/>
</g>
<g class="st2">
	<path class="st0" d="M9.92,47.8h-3.4l-0.64,1.94H3.81l3.51-9.4h1.8l3.53,9.4h-2.06L9.92,47.8z M7.04,46.23H9.4l-1.18-3.53
		L7.04,46.23z"/>
	<path class="st0" d="M16.04,40.33l2.42,6.82l2.4-6.82h2.54v9.4h-1.95v-2.57l0.2-4.44l-2.54,7.01h-1.33l-2.53-7l0.2,4.43v2.57h-1.94
		v-9.4H16.04z"/>
	<path class="st0" d="M32.83,45.25c0,0.93-0.16,1.74-0.49,2.44c-0.33,0.7-0.79,1.24-1.41,1.62s-1.3,0.57-2.1,0.57
		c-0.78,0-1.47-0.19-2.09-0.56s-1.09-0.91-1.42-1.61c-0.34-0.7-0.51-1.49-0.51-2.4v-0.46c0-0.93,0.17-1.74,0.5-2.45
		c0.33-0.71,0.8-1.25,1.42-1.63c0.61-0.38,1.3-0.57,2.09-0.57c0.78,0,1.48,0.19,2.09,0.57c0.61,0.38,1.08,0.92,1.42,1.63
		c0.33,0.7,0.5,1.51,0.5,2.44C32.83,44.83,32.83,45.25,32.83,45.25z M30.86,44.82c0-0.98-0.18-1.74-0.53-2.25
		c-0.35-0.51-0.86-0.77-1.51-0.77s-1.15,0.26-1.5,0.76c-0.35,0.51-0.53,1.25-0.54,2.23v0.46c0,0.96,0.18,1.7,0.53,2.24
		c0.35,0.54,0.86,0.79,1.52,0.79c0.65,0,1.15-0.26,1.5-0.77c0.35-0.51,0.53-1.26,0.53-2.23C30.86,45.29,30.86,44.82,30.86,44.82z"/>
	<path class="st0" d="M41.35,40.33v6.2c0,1.03-0.32,1.84-0.96,2.44c-0.64,0.6-1.52,0.9-2.64,0.9c-1.1,0-1.97-0.29-2.62-0.87
		c-0.65-0.58-0.97-1.38-0.99-2.4v-6.27h1.94v6.21c0,0.61,0.15,1.07,0.44,1.34c0.29,0.28,0.7,0.43,1.23,0.43
		c1.09,0,1.64-0.58,1.66-1.72v-6.26C39.41,40.33,41.35,40.33,41.35,40.33z"/>
	<path class="st0" d="M50.59,49.74h-1.94l-3.77-6.19v6.19h-1.94v-9.4h1.94l3.78,6.2v-6.2h1.93V49.74z"/>
	<path class="st0" d="M59.18,41.9h-2.88v7.84h-1.94V41.9h-2.84v-1.57h7.66C59.18,40.33,59.18,41.9,59.18,41.9z"/>
</g>
<polyline class="st6" points="54.8,321.89 94.38,332.52 133.96,306.48 173.55,268.72 213.14,184.84 252.72,111.6 292.3,156.49 
	332.46,156.49 371.46,163.58 411.05,175.39 450.63,87.97 490.3,201.38 "/>
<g class="st2">
	<path class="st5" d="M49.88,389.45h-1.83v-7.18l-1.79,0.69v-1.52l3.43-1.4h0.2L49.88,389.45L49.88,389.45z"/>
	<path class="st5" d="M56.92,379.95v1.55h-0.1c-0.68,0-1.23,0.21-1.64,0.61c-0.41,0.41-0.64,0.97-0.74,1.71
		c0.39-0.44,0.88-0.67,1.47-0.67c0.68,0,1.23,0.29,1.64,0.87c0.41,0.58,0.61,1.36,0.61,2.32c0,0.61-0.11,1.17-0.35,1.66
		c-0.24,0.49-0.56,0.88-0.98,1.15c-0.42,0.27-0.9,0.41-1.43,0.41c-0.85,0-1.54-0.34-2.05-1.03c-0.51-0.69-0.78-1.61-0.78-2.77v-0.68
		c0-1.04,0.16-1.95,0.49-2.72c0.33-0.77,0.79-1.38,1.41-1.8c0.61-0.42,1.33-0.63,2.15-0.63L56.92,379.95L56.92,379.95z
		 M55.35,384.65c-0.24,0-0.43,0.08-0.59,0.22c-0.16,0.15-0.27,0.33-0.35,0.55v0.66c0,0.66,0.09,1.16,0.26,1.49s0.41,0.49,0.7,0.49
		s0.53-0.16,0.71-0.47c0.18-0.32,0.26-0.73,0.26-1.22c0-0.5-0.09-0.92-0.27-1.24C55.88,384.81,55.64,384.65,55.35,384.65z"/>
	<path class="st5" d="M63.61,379.95v1.55h-0.1c-0.68,0-1.23,0.21-1.64,0.61c-0.41,0.41-0.64,0.97-0.74,1.71
		c0.39-0.44,0.88-0.67,1.47-0.67c0.68,0,1.23,0.29,1.64,0.87c0.41,0.58,0.61,1.36,0.61,2.32c0,0.61-0.11,1.17-0.35,1.66
		c-0.24,0.49-0.56,0.88-0.98,1.15c-0.42,0.27-0.9,0.41-1.43,0.41c-0.85,0-1.54-0.34-2.05-1.03c-0.51-0.69-0.78-1.61-0.78-2.77v-0.68
		c0-1.04,0.16-1.95,0.49-2.72c0.33-0.77,0.79-1.38,1.41-1.8c0.61-0.42,1.33-0.63,2.15-0.63L63.61,379.95L63.61,379.95z
		 M62.04,384.65c-0.24,0-0.43,0.08-0.59,0.22c-0.16,0.15-0.27,0.33-0.35,0.55v0.66c0,0.66,0.09,1.16,0.26,1.49s0.41,0.49,0.7,0.49
		c0.29,0,0.53-0.16,0.71-0.47c0.18-0.32,0.26-0.73,0.26-1.22c0-0.5-0.09-0.92-0.27-1.24C62.58,384.81,62.33,384.65,62.04,384.65z"/>
</g>
<g class="st2">
	<path class="st5" d="M91.12,389.45h-5.55v-1.29l2.54-3.23c0.32-0.44,0.56-0.84,0.72-1.18c0.15-0.34,0.23-0.66,0.23-0.97
		c0-0.42-0.08-0.75-0.22-0.98c-0.14-0.24-0.35-0.36-0.62-0.36c-0.29,0-0.53,0.14-0.71,0.42c-0.18,0.27-0.26,0.66-0.26,1.16h-1.83
		c0-0.58,0.12-1.11,0.36-1.58s0.58-0.85,1.01-1.12c0.43-0.26,0.93-0.4,1.47-0.4c0.84,0,1.49,0.24,1.96,0.69
		c0.46,0.46,0.69,1.12,0.69,1.98c0,0.53-0.13,1.07-0.39,1.62c-0.26,0.55-0.72,1.22-1.39,2.01l-1.21,1.73h3.19L91.12,389.45
		L91.12,389.45z"/>
	<path class="st5" d="M96.63,379.95v1.55h-0.1c-0.68,0-1.23,0.21-1.64,0.61c-0.41,0.41-0.64,0.97-0.74,1.71
		c0.39-0.44,0.88-0.67,1.47-0.67c0.68,0,1.23,0.29,1.64,0.87c0.41,0.58,0.61,1.36,0.61,2.32c0,0.61-0.11,1.17-0.35,1.66
		s-0.56,0.88-0.98,1.15c-0.42,0.27-0.9,0.41-1.43,0.41c-0.85,0-1.54-0.34-2.05-1.03c-0.51-0.69-0.78-1.61-0.78-2.77v-0.68
		c0-1.04,0.16-1.95,0.49-2.72c0.33-0.77,0.79-1.38,1.41-1.8c0.61-0.42,1.33-0.63,2.15-0.63L96.63,379.95L96.63,379.95z
		 M95.06,384.65c-0.24,0-0.43,0.08-0.59,0.22c-0.16,0.15-0.27,0.33-0.35,0.55v0.66c0,0.66,0.09,1.16,0.26,1.49
		c0.18,0.33,0.41,0.49,0.7,0.49c0.29,0,0.53-0.16,0.71-0.47c0.18-0.32,0.26-0.73,0.26-1.22c0-0.5-0.09-0.92-0.27-1.24
		C95.6,384.81,95.36,384.65,95.06,384.65z"/>
	<path class="st5" d="M103.32,379.95v1.55h-0.1c-0.68,0-1.23,0.21-1.64,0.61c-0.41,0.41-0.64,0.97-0.74,1.71
		c0.39-0.44,0.88-0.67,1.47-0.67c0.68,0,1.23,0.29,1.64,0.87c0.41,0.58,0.61,1.36,0.61,2.32c0,0.61-0.11,1.17-0.35,1.66
		s-0.56,0.88-0.98,1.15c-0.42,0.27-0.9,0.41-1.43,0.41c-0.85,0-1.54-0.34-2.05-1.03c-0.51-0.69-0.78-1.61-0.78-2.77v-0.68
		c0-1.04,0.16-1.95,0.49-2.72c0.33-0.77,0.79-1.38,1.41-1.8c0.61-0.42,1.33-0.63,2.15-0.63L103.32,379.95L103.32,379.95z
		 M101.75,384.65c-0.24,0-0.43,0.08-0.59,0.22c-0.16,0.15-0.27,0.33-0.35,0.55v0.66c0,0.66,0.09,1.16,0.26,1.49
		c0.18,0.33,0.41,0.49,0.7,0.49c0.29,0,0.53-0.16,0.71-0.47c0.18-0.32,0.26-0.73,0.26-1.22c0-0.5-0.09-0.92-0.27-1.24
		C102.29,384.81,102.06,384.65,101.75,384.65z"/>
</g>
<g class="st2">
	<path class="st5" d="M130.84,389.45h-5.55v-1.29l2.54-3.23c0.32-0.44,0.56-0.84,0.72-1.18c0.15-0.34,0.23-0.66,0.23-0.97
		c0-0.42-0.08-0.75-0.22-0.98c-0.14-0.24-0.35-0.36-0.62-0.36c-0.29,0-0.53,0.14-0.71,0.42c-0.18,0.27-0.26,0.66-0.26,1.16h-1.83
		c0-0.58,0.12-1.11,0.36-1.58c0.24-0.47,0.58-0.85,1.01-1.12c0.43-0.26,0.93-0.4,1.46-0.4c0.84,0,1.49,0.24,1.96,0.69
		c0.46,0.46,0.69,1.12,0.69,1.98c0,0.53-0.13,1.07-0.39,1.62s-0.72,1.22-1.39,2.01l-1.21,1.73h3.19v1.51H130.84z"/>
	<path class="st5" d="M137.51,381.1l-2.97,8.35h-1.93l2.99-7.89h-3.77v-1.52h5.69L137.51,381.1L137.51,381.1z"/>
	<path class="st5" d="M142.23,385.81c-0.39,0.4-0.81,0.6-1.28,0.6c-0.72,0-1.28-0.28-1.69-0.86c-0.42-0.58-0.61-1.34-0.61-2.31
		c0-0.62,0.11-1.19,0.35-1.7c0.24-0.51,0.56-0.92,0.97-1.2s0.88-0.43,1.39-0.43c0.53,0,1,0.16,1.42,0.47
		c0.42,0.31,0.74,0.77,0.96,1.35s0.34,1.26,0.34,2v0.66c0,1.61-0.35,2.85-1.06,3.75c-0.71,0.91-1.7,1.36-3,1.38h-0.19v-1.58h0.12
		c0.72,0,1.26-0.19,1.62-0.56C141.94,387.05,142.16,386.51,142.23,385.81z M141.42,384.97c0.35,0,0.63-0.24,0.83-0.73v-0.84
		c0-0.61-0.09-1.1-0.26-1.45c-0.17-0.35-0.39-0.53-0.65-0.53s-0.47,0.17-0.63,0.52c-0.16,0.35-0.25,0.78-0.25,1.27
		c0,0.54,0.09,0.97,0.26,1.29C140.89,384.81,141.13,384.97,141.42,384.97z"/>
</g>
<g class="st2">
	<path class="st5" d="M165.2,384.82l0.46-4.78h4.56v1.56h-3.05l-0.17,2.01c0.35-0.24,0.72-0.36,1.1-0.36c0.78,0,1.37,0.27,1.8,0.83
		c0.43,0.56,0.63,1.33,0.63,2.33c0,0.95-0.25,1.7-0.75,2.28s-1.16,0.87-2,0.87c-0.49,0-0.95-0.11-1.38-0.35
		c-0.43-0.24-0.76-0.56-1-0.98s-0.37-0.89-0.37-1.42h1.81c0.03,0.4,0.12,0.7,0.29,0.91s0.38,0.32,0.63,0.32
		c0.3,0,0.53-0.14,0.7-0.43c0.16-0.29,0.25-0.73,0.25-1.3c0-0.54-0.09-0.95-0.29-1.23c-0.2-0.27-0.47-0.42-0.82-0.42
		c-0.34,0-0.61,0.11-0.8,0.36l-0.11,0.16L165.2,384.82z"/>
	<path class="st5" d="M176.53,385.9h0.8v1.52h-0.8v2.03h-1.82v-2.03h-3.11l-0.09-1.18l3.19-6.19h1.83L176.53,385.9L176.53,385.9z
		 M173.28,385.9h1.42v-3.15l-0.04,0.08L173.28,385.9z"/>
	<path class="st5" d="M180.03,383.91h0.89c0.34,0,0.59-0.11,0.74-0.35c0.16-0.24,0.24-0.55,0.24-0.95c0-0.38-0.09-0.67-0.25-0.88
		s-0.38-0.31-0.65-0.31c-0.26,0-0.46,0.09-0.62,0.29c-0.16,0.2-0.25,0.44-0.25,0.75h-1.82c0-0.49,0.11-0.94,0.34-1.32
		c0.23-0.39,0.54-0.7,0.95-0.92c0.41-0.22,0.86-0.33,1.35-0.33c0.87,0,1.54,0.24,2.03,0.72c0.49,0.48,0.74,1.13,0.74,1.97
		c0,0.43-0.11,0.82-0.33,1.18c-0.22,0.36-0.51,0.64-0.88,0.83c0.44,0.19,0.78,0.47,0.99,0.85c0.22,0.38,0.33,0.83,0.33,1.34
		c0,0.83-0.26,1.5-0.79,2.01c-0.53,0.51-1.23,0.76-2.1,0.76c-0.8,0-1.46-0.25-1.96-0.75c-0.5-0.5-0.76-1.15-0.76-1.97h1.82
		c0,0.34,0.09,0.61,0.26,0.85c0.18,0.24,0.4,0.34,0.67,0.34c0.31,0,0.57-0.11,0.75-0.35c0.18-0.24,0.27-0.54,0.27-0.93
		c0-0.93-0.36-1.39-1.08-1.4h-0.9L180.03,383.91L180.03,383.91z"/>
</g>
<g class="st2">
	<path class="st5" d="M203.98,384.82l0.46-4.78H209v1.56h-3.05l-0.17,2.01c0.35-0.24,0.72-0.36,1.1-0.36c0.78,0,1.37,0.27,1.8,0.83
		c0.43,0.56,0.63,1.33,0.63,2.33c0,0.95-0.25,1.7-0.75,2.28s-1.16,0.87-2,0.87c-0.49,0-0.95-0.11-1.38-0.35
		c-0.43-0.24-0.76-0.56-1-0.98s-0.37-0.89-0.37-1.42h1.81c0.03,0.4,0.12,0.7,0.29,0.91c0.17,0.21,0.38,0.32,0.63,0.32
		c0.3,0,0.53-0.14,0.7-0.43c0.16-0.29,0.25-0.73,0.25-1.3c0-0.54-0.09-0.95-0.29-1.23c-0.2-0.27-0.47-0.42-0.82-0.42
		c-0.34,0-0.61,0.11-0.8,0.36l-0.11,0.16L203.98,384.82z"/>
	<path class="st5" d="M210.67,384.82l0.46-4.78h4.56v1.56h-3.05l-0.17,2.01c0.35-0.24,0.72-0.36,1.1-0.36c0.78,0,1.37,0.27,1.8,0.83
		s0.63,1.33,0.63,2.33c0,0.95-0.25,1.7-0.75,2.28s-1.16,0.87-2,0.87c-0.49,0-0.95-0.11-1.38-0.35c-0.43-0.24-0.76-0.56-1-0.98
		s-0.37-0.89-0.37-1.42h1.81c0.03,0.4,0.12,0.7,0.29,0.91c0.17,0.21,0.38,0.32,0.63,0.32c0.3,0,0.53-0.14,0.7-0.43
		c0.16-0.29,0.25-0.73,0.25-1.3c0-0.54-0.09-0.95-0.29-1.23c-0.2-0.27-0.47-0.42-0.82-0.42c-0.34,0-0.61,0.11-0.8,0.36l-0.11,0.16
		L210.67,384.82z"/>
	<path class="st5" d="M217.36,384.82l0.46-4.78h4.56v1.56h-3.05l-0.17,2.01c0.35-0.24,0.72-0.36,1.1-0.36c0.78,0,1.37,0.27,1.8,0.83
		s0.63,1.33,0.63,2.33c0,0.95-0.25,1.7-0.75,2.28c-0.5,0.58-1.16,0.87-2,0.87c-0.49,0-0.95-0.11-1.38-0.35
		c-0.43-0.24-0.76-0.56-1-0.98s-0.37-0.89-0.37-1.42h1.81c0.03,0.4,0.12,0.7,0.29,0.91c0.17,0.21,0.38,0.32,0.63,0.32
		c0.3,0,0.53-0.14,0.7-0.43c0.16-0.29,0.25-0.73,0.25-1.3c0-0.54-0.09-0.95-0.29-1.23c-0.2-0.27-0.47-0.42-0.82-0.42
		c-0.34,0-0.61,0.11-0.8,0.36l-0.11,0.16L217.36,384.82z"/>
</g>
<g class="st2">
	<path class="st5" d="M244.18,389.45h-1.83v-7.18l-1.79,0.69v-1.52l3.43-1.4h0.2L244.18,389.45L244.18,389.45z"/>
	<path class="st5" d="M252.32,385.56c0,1.3-0.24,2.3-0.71,2.99c-0.47,0.69-1.14,1.03-2.02,1.03c-0.87,0-1.53-0.33-2-1
		c-0.47-0.67-0.72-1.63-0.74-2.88v-1.78c0-1.29,0.24-2.29,0.71-2.98s1.14-1.03,2.02-1.03c0.88,0,1.55,0.34,2.02,1.02
		c0.47,0.68,0.71,1.65,0.72,2.91L252.32,385.56L252.32,385.56z M250.49,383.65c0-0.74-0.08-1.29-0.22-1.66
		c-0.14-0.37-0.38-0.56-0.68-0.56c-0.59,0-0.88,0.68-0.91,2.03v2.34c0,0.76,0.08,1.32,0.23,1.69c0.15,0.37,0.38,0.56,0.69,0.56
		c0.29,0,0.52-0.17,0.66-0.52c0.14-0.35,0.22-0.88,0.23-1.6V383.65z"/>
	<path class="st5" d="M259.09,389.45h-5.55v-1.29l2.54-3.23c0.32-0.44,0.56-0.84,0.72-1.18c0.15-0.34,0.23-0.66,0.23-0.97
		c0-0.42-0.08-0.75-0.22-0.98c-0.14-0.24-0.35-0.36-0.62-0.36c-0.29,0-0.53,0.14-0.71,0.42c-0.18,0.27-0.26,0.66-0.26,1.16h-1.83
		c0-0.58,0.12-1.11,0.36-1.58s0.58-0.85,1.01-1.12c0.43-0.26,0.93-0.4,1.47-0.4c0.84,0,1.49,0.24,1.96,0.69
		c0.46,0.46,0.69,1.12,0.69,1.98c0,0.53-0.13,1.07-0.39,1.62c-0.26,0.55-0.72,1.22-1.39,2.01l-1.21,1.73h3.19L259.09,389.45
		L259.09,389.45z"/>
	<path class="st5" d="M260.43,384.82l0.46-4.78h4.56v1.56h-3.05l-0.17,2.01c0.35-0.24,0.72-0.36,1.1-0.36c0.78,0,1.37,0.27,1.8,0.83
		s0.63,1.33,0.63,2.33c0,0.95-0.25,1.7-0.75,2.28s-1.16,0.87-2,0.87c-0.49,0-0.95-0.11-1.38-0.35c-0.43-0.24-0.76-0.56-1-0.98
		c-0.25-0.43-0.37-0.89-0.37-1.42h1.81c0.03,0.4,0.12,0.7,0.29,0.91c0.17,0.21,0.38,0.32,0.63,0.32c0.3,0,0.53-0.14,0.7-0.43
		c0.16-0.29,0.25-0.73,0.25-1.3c0-0.54-0.09-0.95-0.29-1.23c-0.2-0.27-0.47-0.42-0.82-0.42c-0.34,0-0.61,0.11-0.8,0.36l-0.11,0.16
		L260.43,384.82z"/>
</g>
<g class="st2">
	<path class="st5" d="M283.91,389.45h-1.83v-7.18l-1.79,0.69v-1.52l3.43-1.4h0.2L283.91,389.45L283.91,389.45z"/>
	<path class="st5" d="M291.39,385.9h0.8v1.52h-0.8v2.03h-1.82v-2.03h-3.11l-0.09-1.18l3.19-6.19h1.83L291.39,385.9L291.39,385.9z
		 M288.14,385.9h1.42v-3.15l-0.04,0.08L288.14,385.9z"/>
	<path class="st5" d="M293.45,384.82l0.46-4.78h4.56v1.56h-3.05l-0.17,2.01c0.35-0.24,0.72-0.36,1.1-0.36c0.78,0,1.37,0.27,1.8,0.83
		s0.63,1.33,0.63,2.33c0,0.95-0.25,1.7-0.75,2.28c-0.5,0.58-1.17,0.87-2,0.87c-0.49,0-0.95-0.11-1.38-0.35
		c-0.43-0.24-0.76-0.56-1-0.98c-0.25-0.42-0.37-0.89-0.37-1.42h1.81c0.03,0.4,0.12,0.7,0.29,0.91c0.16,0.22,0.38,0.32,0.63,0.32
		c0.3,0,0.53-0.14,0.7-0.43c0.16-0.29,0.25-0.73,0.25-1.3c0-0.54-0.09-0.95-0.29-1.23c-0.2-0.27-0.47-0.42-0.82-0.42
		s-0.61,0.11-0.8,0.36l-0.11,0.16L293.45,384.82z"/>
	<path class="st5" d="M304.79,385.9h0.8v1.52h-0.8v2.03h-1.82v-2.03h-3.11l-0.09-1.18l3.19-6.19h1.83L304.79,385.9L304.79,385.9z
		 M301.53,385.9h1.42v-3.15l-0.04,0.08L301.53,385.9z"/>
</g>
<g class="st2">
	<path class="st5" d="M323.62,389.45h-1.83v-7.18l-1.79,0.69v-1.52l3.43-1.4h0.2L323.62,389.45L323.62,389.45z"/>
	<path class="st5" d="M331.84,389.45h-5.55v-1.29l2.54-3.23c0.32-0.44,0.56-0.84,0.71-1.18c0.15-0.34,0.23-0.66,0.23-0.97
		c0-0.42-0.08-0.75-0.22-0.98c-0.14-0.24-0.35-0.36-0.62-0.36c-0.29,0-0.53,0.14-0.71,0.42c-0.18,0.27-0.26,0.66-0.26,1.16h-1.83
		c0-0.58,0.12-1.11,0.36-1.58c0.24-0.47,0.58-0.85,1.01-1.12c0.43-0.26,0.93-0.4,1.47-0.4c0.84,0,1.49,0.24,1.96,0.69
		c0.46,0.46,0.7,1.12,0.7,1.98c0,0.53-0.13,1.07-0.39,1.62c-0.26,0.55-0.72,1.22-1.39,2.01l-1.21,1.73h3.19L331.84,389.45
		L331.84,389.45z"/>
	<path class="st5" d="M334.61,383.91h0.89c0.34,0,0.59-0.11,0.74-0.35c0.16-0.24,0.24-0.55,0.24-0.95c0-0.38-0.09-0.67-0.25-0.88
		c-0.16-0.21-0.38-0.31-0.65-0.31c-0.26,0-0.46,0.09-0.62,0.29c-0.16,0.2-0.25,0.44-0.25,0.75h-1.82c0-0.49,0.11-0.94,0.34-1.32
		c0.23-0.39,0.54-0.7,0.95-0.92c0.41-0.22,0.86-0.33,1.35-0.33c0.87,0,1.54,0.24,2.03,0.72s0.74,1.13,0.74,1.97
		c0,0.43-0.11,0.82-0.33,1.18c-0.22,0.36-0.51,0.64-0.88,0.83c0.44,0.19,0.78,0.47,0.99,0.85c0.22,0.38,0.33,0.83,0.33,1.34
		c0,0.83-0.26,1.5-0.79,2.01c-0.53,0.5-1.23,0.76-2.1,0.76c-0.8,0-1.46-0.25-1.97-0.75c-0.5-0.5-0.76-1.15-0.76-1.97h1.82
		c0,0.34,0.09,0.61,0.26,0.85c0.18,0.23,0.4,0.34,0.67,0.34c0.31,0,0.57-0.11,0.75-0.35c0.18-0.24,0.27-0.54,0.27-0.93
		c0-0.93-0.36-1.39-1.08-1.4h-0.9v-1.45H334.61z"/>
	<path class="st5" d="M343.71,389.45h-1.83v-7.18l-1.79,0.69v-1.52l3.43-1.4h0.2L343.71,389.45L343.71,389.45z"/>
</g>
<g class="st2">
	<path class="st5" d="M367.03,379.95v1.55h-0.1c-0.68,0-1.23,0.21-1.64,0.61c-0.41,0.41-0.64,0.97-0.74,1.71
		c0.39-0.44,0.88-0.67,1.47-0.67c0.68,0,1.22,0.29,1.64,0.87c0.42,0.58,0.61,1.36,0.61,2.32c0,0.61-0.11,1.17-0.35,1.66
		c-0.24,0.49-0.56,0.88-0.98,1.15c-0.42,0.27-0.9,0.41-1.43,0.41c-0.85,0-1.54-0.34-2.05-1.03c-0.51-0.68-0.78-1.61-0.78-2.77v-0.68
		c0-1.04,0.16-1.95,0.49-2.72c0.32-0.78,0.79-1.38,1.41-1.8c0.61-0.42,1.33-0.63,2.15-0.63L367.03,379.95L367.03,379.95z
		 M365.45,384.65c-0.24,0-0.43,0.08-0.59,0.22c-0.16,0.15-0.27,0.33-0.35,0.55v0.66c0,0.66,0.09,1.16,0.26,1.49s0.41,0.49,0.7,0.49
		c0.29,0,0.53-0.16,0.71-0.47c0.18-0.32,0.26-0.73,0.26-1.22c0-0.5-0.09-0.92-0.27-1.24C365.99,384.81,365.76,384.65,365.45,384.65z
		"/>
	<path class="st5" d="M370.99,383.91h0.89c0.34,0,0.59-0.11,0.74-0.35c0.16-0.24,0.24-0.55,0.24-0.95c0-0.38-0.09-0.67-0.25-0.88
		s-0.38-0.31-0.65-0.31c-0.26,0-0.46,0.09-0.62,0.29c-0.16,0.2-0.25,0.44-0.25,0.75h-1.82c0-0.49,0.11-0.94,0.34-1.32
		c0.23-0.39,0.54-0.7,0.95-0.92c0.41-0.22,0.86-0.33,1.35-0.33c0.87,0,1.54,0.24,2.03,0.72s0.74,1.13,0.74,1.97
		c0,0.43-0.11,0.82-0.33,1.18c-0.22,0.36-0.51,0.64-0.88,0.83c0.44,0.19,0.77,0.47,0.99,0.85c0.22,0.38,0.33,0.83,0.33,1.34
		c0,0.83-0.26,1.5-0.79,2.01c-0.53,0.5-1.23,0.76-2.1,0.76c-0.8,0-1.46-0.25-1.97-0.75c-0.5-0.5-0.76-1.15-0.76-1.97h1.82
		c0,0.34,0.09,0.61,0.26,0.85c0.18,0.23,0.4,0.34,0.67,0.34c0.31,0,0.57-0.11,0.75-0.35c0.18-0.24,0.27-0.54,0.27-0.93
		c0-0.93-0.36-1.39-1.08-1.4h-0.9v-1.45H370.99z"/>
	<path class="st5" d="M380.41,379.95v1.55h-0.1c-0.68,0-1.23,0.21-1.64,0.61c-0.41,0.41-0.64,0.97-0.74,1.71
		c0.39-0.44,0.88-0.67,1.47-0.67c0.68,0,1.22,0.29,1.64,0.87c0.42,0.58,0.61,1.36,0.61,2.32c0,0.61-0.11,1.17-0.35,1.66
		c-0.24,0.49-0.56,0.88-0.98,1.15c-0.42,0.27-0.9,0.41-1.43,0.41c-0.85,0-1.54-0.34-2.05-1.03c-0.51-0.68-0.78-1.61-0.78-2.77v-0.68
		c0-1.04,0.16-1.95,0.49-2.72c0.32-0.78,0.79-1.38,1.41-1.8c0.61-0.42,1.33-0.63,2.15-0.63L380.41,379.95L380.41,379.95z
		 M378.85,384.65c-0.24,0-0.43,0.08-0.59,0.22c-0.16,0.15-0.27,0.33-0.35,0.55v0.66c0,0.66,0.09,1.16,0.26,1.49
		c0.18,0.33,0.41,0.49,0.7,0.49c0.29,0,0.53-0.16,0.71-0.47c0.18-0.32,0.26-0.73,0.26-1.22c0-0.5-0.09-0.92-0.27-1.24
		C379.38,384.81,379.14,384.65,378.85,384.65z"/>
</g>
<g class="st2">
	<path class="st5" d="M405.8,379.95v1.55h-0.1c-0.68,0-1.23,0.21-1.64,0.61c-0.41,0.41-0.64,0.97-0.74,1.71
		c0.39-0.44,0.88-0.67,1.47-0.67c0.68,0,1.22,0.29,1.64,0.87c0.42,0.58,0.61,1.36,0.61,2.32c0,0.61-0.11,1.17-0.35,1.66
		c-0.24,0.49-0.56,0.88-0.98,1.15c-0.42,0.27-0.9,0.41-1.43,0.41c-0.85,0-1.54-0.34-2.05-1.03c-0.51-0.68-0.77-1.61-0.77-2.77v-0.68
		c0-1.04,0.16-1.95,0.49-2.72c0.32-0.78,0.79-1.38,1.41-1.8c0.61-0.42,1.33-0.63,2.15-0.63L405.8,379.95L405.8,379.95z
		 M404.23,384.65c-0.24,0-0.43,0.08-0.59,0.22c-0.16,0.15-0.27,0.33-0.35,0.55v0.66c0,0.66,0.09,1.16,0.26,1.49
		c0.18,0.33,0.41,0.49,0.7,0.49c0.29,0,0.53-0.16,0.71-0.47c0.18-0.32,0.26-0.73,0.26-1.22c0-0.5-0.09-0.92-0.27-1.24
		C404.77,384.81,404.52,384.65,404.23,384.65z"/>
	<path class="st5" d="M412.96,385.9h0.8v1.52h-0.8v2.03h-1.82v-2.03h-3.11l-0.09-1.18l3.19-6.19h1.83L412.96,385.9L412.96,385.9z
		 M409.7,385.9h1.42v-3.15l-0.04,0.08L409.7,385.9z"/>
	<path class="st5" d="M420.29,385.56c0,1.3-0.24,2.3-0.71,2.99c-0.47,0.69-1.14,1.03-2.02,1.03c-0.87,0-1.53-0.33-2-1
		c-0.47-0.67-0.72-1.63-0.74-2.88v-1.78c0-1.29,0.24-2.29,0.71-2.98s1.14-1.03,2.02-1.03s1.55,0.34,2.02,1.02
		c0.47,0.68,0.71,1.65,0.72,2.91L420.29,385.56L420.29,385.56z M418.46,383.65c0-0.74-0.08-1.29-0.22-1.66
		c-0.15-0.37-0.38-0.56-0.68-0.56c-0.59,0-0.88,0.68-0.91,2.03v2.34c0,0.76,0.08,1.32,0.23,1.69c0.15,0.37,0.38,0.56,0.7,0.56
		c0.29,0,0.52-0.17,0.66-0.52c0.14-0.35,0.22-0.88,0.23-1.6L418.46,383.65L418.46,383.65z"/>
</g>
<g class="st2">
	<path class="st5" d="M441.84,389.45H440v-7.18l-1.79,0.69v-1.52l3.43-1.4h0.2L441.84,389.45L441.84,389.45z"/>
	<path class="st5" d="M449.98,385.56c0,1.3-0.24,2.3-0.71,2.99c-0.47,0.69-1.14,1.03-2.02,1.03c-0.87,0-1.53-0.33-2-1
		c-0.47-0.67-0.72-1.63-0.74-2.88v-1.78c0-1.29,0.24-2.29,0.71-2.98s1.14-1.03,2.02-1.03c0.88,0,1.55,0.34,2.02,1.02
		c0.47,0.68,0.71,1.65,0.72,2.91L449.98,385.56L449.98,385.56z M448.13,383.65c0-0.74-0.08-1.29-0.22-1.66
		c-0.14-0.37-0.38-0.56-0.68-0.56c-0.59,0-0.88,0.68-0.91,2.03v2.34c0,0.76,0.08,1.32,0.23,1.69c0.15,0.37,0.38,0.56,0.69,0.56
		c0.29,0,0.52-0.17,0.66-0.52c0.14-0.35,0.22-0.88,0.23-1.6V383.65z"/>
	<path class="st5" d="M455.22,389.45h-1.83v-7.18l-1.79,0.69v-1.52l3.43-1.4h0.2L455.22,389.45L455.22,389.45z"/>
	<path class="st5" d="M463.41,381.1l-2.97,8.35h-1.93l2.99-7.89h-3.77v-1.52h5.69L463.41,381.1L463.41,381.1z"/>
</g>
<g class="st2">
	<path class="st5" d="M486.39,381.1l-2.97,8.35h-1.93l2.99-7.89h-3.77v-1.52h5.69L486.39,381.1L486.39,381.1z"/>
	<path class="st5" d="M492.85,382.54c0,0.45-0.09,0.86-0.29,1.22c-0.2,0.36-0.46,0.63-0.8,0.85c0.39,0.22,0.69,0.52,0.92,0.91
		c0.23,0.39,0.34,0.84,0.34,1.36c0,0.83-0.25,1.49-0.73,1.98s-1.14,0.73-1.97,0.73c-0.83,0-1.49-0.25-1.98-0.73
		c-0.49-0.48-0.74-1.14-0.74-1.98c0-0.52,0.11-0.97,0.34-1.36c0.23-0.39,0.53-0.69,0.93-0.91c-0.35-0.21-0.61-0.49-0.8-0.85
		c-0.19-0.36-0.29-0.76-0.29-1.22c0-0.82,0.23-1.46,0.69-1.93c0.46-0.46,1.08-0.7,1.85-0.7c0.78,0,1.41,0.24,1.86,0.71
		C492.61,381.09,492.85,381.73,492.85,382.54z M490.31,388.06c0.27,0,0.49-0.11,0.63-0.35c0.15-0.24,0.23-0.56,0.23-0.98
		s-0.08-0.75-0.24-0.98c-0.16-0.24-0.37-0.36-0.64-0.36c-0.27,0-0.48,0.11-0.64,0.36c-0.16,0.24-0.24,0.57-0.24,0.98
		s0.08,0.75,0.24,0.98C489.81,387.94,490.03,388.06,490.31,388.06z M491.02,382.64c0-0.37-0.06-0.66-0.18-0.88
		c-0.11-0.22-0.3-0.33-0.55-0.33c-0.24,0-0.41,0.1-0.53,0.32c-0.12,0.21-0.18,0.51-0.18,0.89c0,0.37,0.06,0.67,0.18,0.9
		c0.12,0.23,0.3,0.34,0.54,0.34c0.24,0,0.42-0.11,0.54-0.34C490.97,383.31,491.02,383.01,491.02,382.64z"/>
	<path class="st5" d="M494.45,384.82l0.46-4.78h4.56v1.56h-3.05l-0.17,2.01c0.35-0.24,0.72-0.36,1.1-0.36c0.78,0,1.37,0.27,1.8,0.83
		c0.43,0.56,0.63,1.33,0.63,2.33c0,0.95-0.25,1.7-0.75,2.28c-0.5,0.58-1.17,0.87-2,0.87c-0.49,0-0.95-0.11-1.38-0.35
		c-0.43-0.24-0.76-0.56-1-0.98c-0.25-0.42-0.37-0.89-0.37-1.42h1.81c0.03,0.4,0.12,0.7,0.29,0.91c0.16,0.22,0.38,0.32,0.63,0.32
		c0.3,0,0.53-0.14,0.7-0.43c0.16-0.29,0.25-0.73,0.25-1.3c0-0.54-0.09-0.95-0.29-1.23c-0.2-0.27-0.47-0.42-0.82-0.42
		s-0.61,0.11-0.8,0.36l-0.11,0.16L494.45,384.82z"/>
</g>
<g class="st2">
	<path class="st7" d="M435.67,9.58c0.07-0.49-0.19-0.85-0.77-1.08l-0.79-0.29l-0.26-0.11c-0.9-0.41-1.31-0.98-1.26-1.73
		c0.03-0.37,0.16-0.7,0.39-0.98c0.23-0.28,0.52-0.51,0.9-0.66c0.37-0.16,0.77-0.23,1.18-0.22c0.41,0.01,0.77,0.1,1.09,0.27
		c0.32,0.17,0.56,0.42,0.73,0.72c0.17,0.31,0.24,0.66,0.22,1.05h-0.87c0.03-0.42-0.06-0.74-0.27-0.96
		c-0.22-0.23-0.52-0.34-0.93-0.35c-0.43-0.01-0.78,0.09-1.06,0.29c-0.28,0.2-0.44,0.48-0.49,0.83c-0.06,0.46,0.22,0.8,0.84,1.05
		L435,7.65l0.35,0.15c0.87,0.4,1.27,0.99,1.2,1.78c-0.04,0.38-0.16,0.71-0.39,0.98c-0.22,0.27-0.52,0.49-0.9,0.64
		c-0.38,0.15-0.78,0.22-1.23,0.21c-0.43,0-0.8-0.09-1.15-0.27c-0.35-0.18-0.61-0.42-0.79-0.73c-0.18-0.31-0.26-0.66-0.24-1.05h0.87
		c-0.03,0.4,0.09,0.72,0.32,0.95c0.25,0.24,0.59,0.36,1.04,0.36c0.44,0.01,0.81-0.09,1.11-0.29
		C435.45,10.18,435.62,9.92,435.67,9.58z"/>
	<path class="st7" d="M440.02,6.22c0.42,0.01,0.77,0.12,1.08,0.34c0.3,0.22,0.52,0.53,0.66,0.92c0.14,0.39,0.19,0.81,0.14,1.28
		l-0.01,0.1c-0.06,0.48-0.2,0.93-0.43,1.31c-0.23,0.4-0.53,0.7-0.9,0.92s-0.77,0.32-1.2,0.31c-0.42-0.01-0.77-0.12-1.07-0.34
		c-0.29-0.22-0.52-0.52-0.66-0.91s-0.19-0.8-0.15-1.26c0.05-0.52,0.19-0.98,0.42-1.39c0.24-0.42,0.54-0.73,0.91-0.95
		C439.17,6.32,439.58,6.21,440.02,6.22z M438.32,8.9c-0.02,0.2-0.02,0.4,0,0.6c0.03,0.36,0.14,0.65,0.32,0.87
		c0.19,0.22,0.43,0.33,0.75,0.34c0.27,0.01,0.53-0.06,0.77-0.21c0.24-0.15,0.43-0.37,0.59-0.66c0.16-0.29,0.26-0.62,0.31-0.98
		c0.03-0.28,0.03-0.52,0.01-0.72c-0.04-0.37-0.15-0.67-0.34-0.88c-0.19-0.22-0.43-0.33-0.75-0.34c-0.43-0.01-0.79,0.16-1.1,0.51
		c-0.3,0.35-0.49,0.8-0.56,1.37V8.9z"/>
	<path class="st7" d="M445.69,10.82c-0.39,0.41-0.89,0.6-1.49,0.59c-0.47-0.01-0.83-0.18-1.06-0.51c-0.23-0.33-0.31-0.78-0.26-1.35
		l0.54-3.22h0.83l-0.54,3.24c-0.02,0.13-0.02,0.26-0.01,0.4c0.02,0.22,0.09,0.4,0.2,0.52c0.11,0.12,0.28,0.2,0.49,0.2
		c0.6,0.02,1.06-0.23,1.38-0.73l0.62-3.64h0.83l-0.87,4.99h-0.78L445.69,10.82z"/>
	<path class="st7" d="M450.72,7.07l-0.4-0.04c-0.54,0-0.95,0.25-1.27,0.73l-0.61,3.54h-0.83l0.87-4.99h0.8l-0.12,0.59
		c0.36-0.46,0.78-0.69,1.25-0.68c0.1,0,0.24,0.02,0.4,0.07L450.72,7.07z"/>
	<path class="st7" d="M452.79,10.7c0.3,0.01,0.57-0.09,0.8-0.26c0.24-0.18,0.4-0.42,0.47-0.71h0.78c-0.05,0.31-0.17,0.6-0.38,0.86
		c-0.21,0.26-0.46,0.46-0.77,0.6c-0.31,0.14-0.63,0.21-0.95,0.2c-0.42-0.01-0.77-0.11-1.06-0.32c-0.28-0.21-0.5-0.5-0.63-0.88
		c-0.13-0.38-0.18-0.8-0.14-1.27l0.02-0.23c0.06-0.48,0.2-0.91,0.42-1.29c0.22-0.38,0.51-0.67,0.87-0.89
		c0.36-0.21,0.75-0.31,1.18-0.29c0.52,0.01,0.95,0.19,1.26,0.53c0.31,0.34,0.47,0.77,0.47,1.29h-0.78
		c-0.01-0.32-0.09-0.59-0.27-0.79c-0.18-0.2-0.42-0.31-0.71-0.32c-0.43-0.01-0.79,0.15-1.08,0.48s-0.46,0.79-0.54,1.39l-0.01,0.12
		c-0.02,0.2-0.02,0.4-0.01,0.6c0.02,0.36,0.12,0.64,0.3,0.85C452.23,10.59,452.47,10.69,452.79,10.7z"/>
	<path class="st7" d="M457.69,11.4c-0.62-0.01-1.11-0.25-1.46-0.69c-0.35-0.44-0.5-1.02-0.44-1.71l0.02-0.2
		c0.06-0.49,0.2-0.95,0.44-1.36c0.24-0.41,0.54-0.72,0.88-0.93c0.35-0.21,0.73-0.3,1.12-0.29c0.51,0.01,0.92,0.18,1.21,0.51
		c0.29,0.33,0.45,0.78,0.48,1.34c0.01,0.2,0,0.4-0.02,0.6l-0.05,0.39h-3.26c-0.06,0.45,0.02,0.84,0.23,1.15
		c0.21,0.31,0.51,0.48,0.92,0.49c0.49,0.01,0.95-0.21,1.37-0.66l0.48,0.41c-0.21,0.3-0.48,0.54-0.81,0.71
		C458.46,11.33,458.09,11.4,457.69,11.4z M458.22,6.92c-0.34-0.01-0.64,0.1-0.9,0.35c-0.26,0.25-0.46,0.6-0.61,1.09h2.43l0.02-0.08
		c0.05-0.39-0.01-0.71-0.19-0.96C458.78,7.06,458.54,6.92,458.22,6.92z"/>
	<path class="st7" d="M461,10.33c0.15,0,0.27,0.05,0.38,0.14c0.09,0.09,0.15,0.22,0.14,0.37c0,0.15-0.06,0.27-0.15,0.37
		c-0.09,0.09-0.22,0.14-0.37,0.15c-0.15,0.01-0.26-0.04-0.37-0.12c-0.09-0.09-0.14-0.21-0.14-0.36s0.05-0.27,0.14-0.38
		C460.72,10.4,460.85,10.34,461,10.33z M461.71,6.26c0.15,0,0.27,0.05,0.38,0.14c0.09,0.09,0.15,0.22,0.14,0.37
		c0,0.15-0.06,0.27-0.15,0.37c-0.09,0.09-0.22,0.14-0.37,0.15s-0.26-0.04-0.37-0.12c-0.09-0.09-0.14-0.21-0.14-0.36
		c0-0.15,0.05-0.27,0.14-0.38C461.43,6.32,461.55,6.27,461.71,6.26z"/>
	<path class="st7" d="M467.12,10.7c0.3,0.01,0.57-0.09,0.8-0.26c0.24-0.18,0.4-0.42,0.47-0.71h0.78c-0.05,0.31-0.17,0.6-0.38,0.86
		c-0.21,0.26-0.46,0.46-0.77,0.6c-0.31,0.14-0.63,0.21-0.95,0.2c-0.42-0.01-0.77-0.11-1.06-0.32c-0.28-0.21-0.5-0.5-0.63-0.88
		c-0.13-0.38-0.18-0.8-0.14-1.27l0.02-0.23c0.06-0.48,0.2-0.91,0.42-1.29c0.22-0.38,0.51-0.67,0.87-0.89
		c0.36-0.21,0.75-0.31,1.18-0.29c0.52,0.01,0.95,0.19,1.26,0.53c0.31,0.34,0.47,0.77,0.47,1.29h-0.78
		c-0.01-0.32-0.09-0.59-0.27-0.79c-0.18-0.2-0.42-0.31-0.71-0.32c-0.43-0.01-0.79,0.15-1.08,0.48s-0.46,0.79-0.54,1.39l-0.01,0.12
		c-0.02,0.2-0.02,0.4-0.01,0.6c0.02,0.36,0.12,0.64,0.3,0.85C466.55,10.59,466.8,10.69,467.12,10.7z"/>
	<path class="st7" d="M474.39,8.83c-0.06,0.51-0.2,0.97-0.42,1.38c-0.22,0.41-0.48,0.71-0.79,0.91c-0.31,0.2-0.65,0.29-1.03,0.28
		c-0.6-0.01-1.05-0.24-1.34-0.68l-0.17,0.59h-0.78l1.23-7.09h0.83l-0.5,2.65c0.4-0.44,0.89-0.66,1.46-0.64
		c0.48,0.01,0.85,0.19,1.12,0.53s0.41,0.81,0.43,1.41c0,0.2-0.01,0.39-0.03,0.58L474.39,8.83z M473.59,8.35
		c0.01-0.44-0.07-0.79-0.23-1.03c-0.16-0.24-0.41-0.36-0.74-0.38c-0.52-0.01-0.96,0.25-1.32,0.78l-0.38,2.17
		c0.19,0.51,0.53,0.77,1.04,0.78c0.33,0.01,0.61-0.09,0.86-0.29c0.25-0.21,0.43-0.49,0.56-0.86C473.52,9.15,473.59,8.77,473.59,8.35
		z"/>
	<path class="st7" d="M475.95,11.31h-0.83l0.87-4.99h0.83L475.95,11.31z M476.64,4.49c0.14-0.01,0.26,0.04,0.35,0.12
		c0.09,0.09,0.14,0.21,0.14,0.36c0,0.14-0.05,0.26-0.14,0.36c-0.09,0.09-0.21,0.14-0.35,0.15c-0.14,0.01-0.26-0.04-0.36-0.12
		c-0.09-0.09-0.13-0.21-0.13-0.35c0-0.14,0.05-0.26,0.14-0.36C476.37,4.55,476.5,4.49,476.64,4.49z"/>
	<path class="st7" d="M478.97,6.31l-0.12,0.63c0.45-0.49,0.96-0.73,1.53-0.72c0.47,0.01,0.82,0.18,1.04,0.49
		c0.23,0.31,0.31,0.76,0.25,1.32l-0.55,3.27h-0.83l0.55-3.28c0.02-0.15,0.02-0.29,0-0.42c-0.05-0.43-0.3-0.65-0.77-0.66
		c-0.5-0.01-0.95,0.26-1.32,0.8l-0.61,3.56h-0.83l0.87-4.99L478.97,6.31z"/>
	<path class="st7" d="M485.51,9.96c0.05-0.34-0.14-0.59-0.57-0.73l-0.87-0.26c-0.73-0.26-1.09-0.67-1.06-1.26
		c0.02-0.44,0.23-0.8,0.6-1.08c0.38-0.28,0.83-0.42,1.34-0.42c0.5,0.01,0.92,0.15,1.23,0.44c0.31,0.28,0.46,0.66,0.45,1.12h-0.83
		c0.01-0.25-0.08-0.45-0.24-0.6c-0.16-0.16-0.38-0.24-0.65-0.25c-0.29-0.01-0.54,0.07-0.75,0.21c-0.2,0.14-0.3,0.32-0.34,0.55
		c-0.04,0.29,0.14,0.5,0.53,0.63l0.42,0.11c0.58,0.15,0.98,0.34,1.22,0.58c0.24,0.24,0.35,0.53,0.33,0.88
		c-0.02,0.31-0.12,0.59-0.3,0.81s-0.43,0.41-0.74,0.53c-0.31,0.12-0.63,0.18-0.98,0.17c-0.53-0.01-0.96-0.16-1.31-0.46
		c-0.34-0.3-0.51-0.69-0.5-1.17h0.83c0,0.28,0.09,0.5,0.26,0.67c0.18,0.17,0.43,0.26,0.74,0.26c0.3,0.01,0.57-0.06,0.78-0.19
		C485.35,10.37,485.48,10.19,485.51,9.96z"/>
	<path class="st7" d="M488.1,11.31h-0.83l0.87-4.99h0.83L488.1,11.31z M488.78,4.49c0.14-0.01,0.26,0.04,0.35,0.12
		c0.09,0.09,0.14,0.21,0.14,0.36c0,0.14-0.05,0.26-0.14,0.36c-0.09,0.09-0.21,0.14-0.35,0.15c-0.14,0.01-0.26-0.04-0.36-0.12
		s-0.13-0.21-0.13-0.35c0-0.14,0.05-0.26,0.14-0.36C488.53,4.55,488.64,4.49,488.78,4.49z"/>
	<path class="st7" d="M489.71,8.8c0.08-0.55,0.22-1.02,0.44-1.42c0.22-0.41,0.49-0.7,0.8-0.89c0.31-0.19,0.66-0.28,1.04-0.27
		c0.58,0.01,1.01,0.23,1.31,0.65l0.17-0.56h0.77l-0.83,4.89c-0.09,0.63-0.35,1.14-0.77,1.53c-0.43,0.39-0.95,0.57-1.58,0.55
		c-0.34-0.01-0.66-0.09-0.97-0.24c-0.31-0.15-0.55-0.37-0.73-0.63l0.47-0.51c0.3,0.44,0.7,0.67,1.19,0.69
		c0.4,0.01,0.74-0.09,1.01-0.33c0.27-0.24,0.45-0.57,0.55-0.99l0.09-0.44c-0.41,0.41-0.88,0.6-1.43,0.59
		c-0.31-0.01-0.58-0.09-0.81-0.26c-0.23-0.16-0.41-0.39-0.53-0.69c-0.12-0.3-0.2-0.63-0.21-1C489.67,9.28,489.68,9.06,489.71,8.8z
		 M490.51,9.28c-0.01,0.43,0.07,0.78,0.23,1.02c0.16,0.24,0.41,0.37,0.73,0.38c0.5,0.01,0.93-0.24,1.29-0.74l0.4-2.29
		c-0.19-0.45-0.52-0.69-1-0.71c-0.45-0.01-0.82,0.17-1.12,0.55c-0.29,0.38-0.46,0.9-0.51,1.54L490.51,9.28z"/>
	<path class="st7" d="M496.21,6.92c0.43-0.47,0.95-0.71,1.51-0.7c0.47,0.01,0.81,0.17,1.04,0.48c0.23,0.31,0.31,0.76,0.26,1.32
		l-0.55,3.27h-0.83l0.55-3.29c0.02-0.15,0.02-0.29,0-0.42c-0.05-0.43-0.3-0.65-0.77-0.66c-0.51-0.01-0.95,0.26-1.32,0.8l-0.61,3.56
		h-0.83l1.23-7.09h0.83L496.21,6.92z"/>
	<path class="st7" d="M501.96,5.11l-0.21,1.21h0.91l-0.11,0.66h-0.91l-0.52,3.11c-0.01,0.08-0.01,0.15,0,0.22
		c0.02,0.24,0.15,0.36,0.4,0.36c0.1,0,0.24-0.02,0.41-0.05l-0.07,0.7c-0.2,0.06-0.41,0.09-0.6,0.09c-0.33-0.01-0.59-0.13-0.75-0.37
		c-0.17-0.24-0.23-0.56-0.2-0.96l0.51-3.09h-0.88l0.11-0.66h0.88l0.21-1.21C501.14,5.11,501.96,5.11,501.96,5.11z"/>
	<path class="st7" d="M505.88,9.96c0.05-0.34-0.14-0.59-0.57-0.73l-0.87-0.26c-0.73-0.26-1.09-0.67-1.06-1.26
		c0.02-0.44,0.23-0.8,0.6-1.08c0.38-0.28,0.83-0.42,1.34-0.42c0.5,0.01,0.92,0.15,1.23,0.44c0.31,0.28,0.46,0.66,0.45,1.12h-0.83
		c0.01-0.25-0.08-0.45-0.24-0.6c-0.16-0.16-0.38-0.24-0.65-0.25c-0.29-0.01-0.54,0.07-0.75,0.21c-0.2,0.14-0.3,0.32-0.34,0.55
		c-0.04,0.29,0.14,0.5,0.53,0.63l0.42,0.11c0.58,0.15,0.98,0.34,1.22,0.58c0.24,0.24,0.35,0.53,0.33,0.88
		c-0.02,0.31-0.12,0.59-0.3,0.81c-0.18,0.23-0.43,0.41-0.74,0.53c-0.31,0.12-0.63,0.18-0.98,0.17c-0.53-0.01-0.96-0.16-1.31-0.46
		c-0.34-0.3-0.51-0.69-0.5-1.17h0.83c0,0.28,0.09,0.5,0.26,0.67c0.18,0.17,0.43,0.26,0.74,0.26c0.3,0.01,0.57-0.06,0.78-0.19
		C505.73,10.37,505.85,10.19,505.88,9.96z"/>
	<path class="st7" d="M508.18,10.33c0.15,0,0.27,0.05,0.38,0.14c0.09,0.09,0.15,0.22,0.14,0.37c0,0.15-0.06,0.27-0.15,0.37
		c-0.09,0.09-0.22,0.14-0.37,0.15c-0.15,0.01-0.26-0.04-0.37-0.12c-0.09-0.09-0.14-0.21-0.14-0.36s0.05-0.27,0.14-0.38
		C507.9,10.4,508.03,10.34,508.18,10.33z"/>
	<path class="st7" d="M512.13,10.7c0.3,0.01,0.57-0.09,0.8-0.26c0.24-0.18,0.4-0.42,0.47-0.71h0.78c-0.05,0.31-0.17,0.6-0.38,0.86
		c-0.21,0.26-0.46,0.46-0.78,0.6c-0.31,0.14-0.63,0.21-0.95,0.2c-0.42-0.01-0.77-0.11-1.06-0.32c-0.28-0.21-0.5-0.5-0.63-0.88
		c-0.13-0.38-0.18-0.8-0.14-1.27l0.02-0.23c0.06-0.48,0.2-0.91,0.42-1.29c0.22-0.38,0.51-0.67,0.87-0.89
		c0.36-0.21,0.75-0.31,1.18-0.29c0.52,0.01,0.95,0.19,1.26,0.53c0.31,0.34,0.47,0.77,0.47,1.29h-0.78
		c-0.01-0.32-0.09-0.59-0.27-0.79c-0.18-0.2-0.42-0.31-0.71-0.32c-0.43-0.01-0.79,0.15-1.08,0.48c-0.28,0.33-0.46,0.79-0.54,1.39
		l-0.01,0.12c-0.02,0.2-0.02,0.4-0.01,0.6c0.02,0.36,0.12,0.64,0.3,0.85C511.57,10.59,511.82,10.69,512.13,10.7z"/>
	<path class="st7" d="M517.64,6.22c0.42,0.01,0.77,0.12,1.08,0.34c0.3,0.22,0.52,0.53,0.66,0.92c0.14,0.39,0.19,0.81,0.14,1.28
		l-0.01,0.1c-0.06,0.48-0.2,0.93-0.43,1.31c-0.23,0.4-0.53,0.7-0.9,0.92c-0.37,0.22-0.77,0.32-1.2,0.31
		c-0.42-0.01-0.78-0.12-1.07-0.34s-0.52-0.52-0.66-0.91s-0.19-0.8-0.15-1.26c0.05-0.52,0.19-0.98,0.42-1.39
		c0.24-0.42,0.54-0.73,0.91-0.95C516.8,6.32,517.2,6.21,517.64,6.22z M515.95,8.9c-0.02,0.2-0.02,0.4,0,0.6
		c0.03,0.36,0.14,0.65,0.32,0.87c0.19,0.22,0.43,0.33,0.75,0.34c0.27,0.01,0.53-0.06,0.77-0.21c0.24-0.15,0.43-0.37,0.59-0.66
		c0.16-0.29,0.26-0.62,0.31-0.98c0.03-0.28,0.03-0.52,0.01-0.72c-0.04-0.37-0.15-0.67-0.34-0.88c-0.19-0.22-0.43-0.33-0.75-0.34
		c-0.43-0.01-0.79,0.16-1.1,0.51c-0.3,0.35-0.49,0.8-0.56,1.37L515.95,8.9z"/>
	<path class="st7" d="M521.79,6.31l-0.1,0.56c0.42-0.44,0.93-0.66,1.52-0.64c0.32,0.01,0.59,0.08,0.8,0.22
		c0.22,0.14,0.37,0.33,0.45,0.59c0.47-0.55,1.02-0.81,1.65-0.8c0.5,0.01,0.87,0.18,1.11,0.5c0.24,0.32,0.32,0.76,0.26,1.3
		l-0.55,3.28h-0.83l0.55-3.29c0.02-0.16,0.02-0.3,0-0.43c-0.06-0.42-0.33-0.63-0.82-0.64c-0.3-0.01-0.58,0.09-0.83,0.28
		c-0.25,0.2-0.41,0.45-0.48,0.77l-0.57,3.32h-0.84l0.56-3.29c0.04-0.34-0.01-0.6-0.15-0.78c-0.14-0.18-0.37-0.28-0.67-0.28
		c-0.52-0.01-0.94,0.23-1.24,0.71l-0.63,3.65h-0.83l0.87-4.99L521.79,6.31z"/>
</g>
</svg>
