<svg width="402" height="412" viewBox="0 0 402 412" fill="none" xmlns="http://www.w3.org/2000/svg">
<path d="M91.4604 355.825V360H90.0542V349.336H93.9873C95.1543 349.336 96.0674 349.634 96.7266 350.229C97.3906 350.825 97.7227 351.614 97.7227 352.595C97.7227 353.63 97.3979 354.429 96.7485 354.99C96.104 355.547 95.1787 355.825 93.9727 355.825H91.4604ZM91.4604 354.675H93.9873C94.7393 354.675 95.3154 354.5 95.7158 354.148C96.1162 353.792 96.3164 353.279 96.3164 352.61C96.3164 351.975 96.1162 351.467 95.7158 351.086C95.3154 350.706 94.7661 350.508 94.0679 350.493H91.4604V354.675ZM98.8433 355.964C98.8433 355.188 98.9946 354.49 99.2974 353.87C99.605 353.25 100.03 352.771 100.572 352.434C101.119 352.097 101.741 351.929 102.439 351.929C103.519 351.929 104.39 352.302 105.054 353.049C105.723 353.796 106.058 354.79 106.058 356.03V356.125C106.058 356.897 105.909 357.59 105.611 358.206C105.318 358.816 104.896 359.292 104.344 359.634C103.797 359.976 103.167 360.146 102.454 360.146C101.38 360.146 100.508 359.773 99.8394 359.026C99.1753 358.279 98.8433 357.29 98.8433 356.06V355.964ZM100.206 356.125C100.206 357.004 100.408 357.71 100.813 358.242C101.224 358.774 101.771 359.041 102.454 359.041C103.143 359.041 103.689 358.772 104.095 358.235C104.5 357.693 104.703 356.936 104.703 355.964C104.703 355.095 104.495 354.392 104.08 353.855C103.67 353.313 103.123 353.042 102.439 353.042C101.771 353.042 101.231 353.308 100.821 353.84C100.411 354.373 100.206 355.134 100.206 356.125ZM114.451 356.125C114.451 357.332 114.175 358.303 113.624 359.041C113.072 359.778 112.325 360.146 111.382 360.146C110.42 360.146 109.664 359.841 109.112 359.231V363.047H107.757V352.075H108.995L109.061 352.954C109.612 352.271 110.379 351.929 111.36 351.929C112.312 351.929 113.064 352.288 113.616 353.005C114.173 353.723 114.451 354.722 114.451 356.001V356.125ZM113.096 355.972C113.096 355.078 112.906 354.373 112.525 353.855C112.144 353.337 111.622 353.079 110.958 353.079C110.137 353.079 109.522 353.442 109.112 354.17V357.957C109.517 358.679 110.137 359.041 110.972 359.041C111.622 359.041 112.137 358.784 112.518 358.271C112.903 357.754 113.096 356.987 113.096 355.972ZM121.072 359.216C120.545 359.836 119.771 360.146 118.75 360.146C117.906 360.146 117.261 359.902 116.817 359.414C116.377 358.921 116.155 358.193 116.15 357.231V352.075H117.505V357.195C117.505 358.396 117.994 358.997 118.97 358.997C120.005 358.997 120.694 358.611 121.036 357.839V352.075H122.391V360H121.102L121.072 359.216ZM125.928 360H124.573V348.75H125.928V360ZM132.996 360C132.918 359.844 132.854 359.565 132.806 359.165C132.176 359.819 131.424 360.146 130.55 360.146C129.769 360.146 129.126 359.927 128.624 359.487C128.125 359.043 127.876 358.481 127.876 357.803C127.876 356.978 128.189 356.338 128.814 355.884C129.444 355.425 130.328 355.195 131.465 355.195H132.784V354.573C132.784 354.099 132.642 353.723 132.359 353.445C132.076 353.162 131.658 353.02 131.106 353.02C130.623 353.02 130.218 353.142 129.891 353.386C129.563 353.63 129.4 353.926 129.4 354.272H128.038C128.038 353.877 128.177 353.496 128.455 353.13C128.738 352.759 129.119 352.466 129.598 352.251C130.081 352.036 130.611 351.929 131.187 351.929C132.1 351.929 132.815 352.158 133.333 352.617C133.851 353.071 134.119 353.699 134.139 354.5V358.147C134.139 358.875 134.231 359.453 134.417 359.883V360H132.996ZM130.748 358.967C131.172 358.967 131.575 358.857 131.956 358.638C132.337 358.418 132.613 358.132 132.784 357.781V356.155H131.722C130.062 356.155 129.231 356.641 129.231 357.612C129.231 358.037 129.373 358.369 129.656 358.608C129.939 358.848 130.303 358.967 130.748 358.967ZM138.101 350.156V352.075H139.581V353.123H138.101V358.037C138.101 358.354 138.167 358.594 138.299 358.755C138.431 358.911 138.655 358.989 138.973 358.989C139.129 358.989 139.344 358.96 139.617 358.901V360C139.261 360.098 138.914 360.146 138.577 360.146C137.972 360.146 137.515 359.963 137.208 359.597C136.9 359.231 136.746 358.711 136.746 358.037V353.123H135.303V352.075H136.746V350.156H138.101ZM142.642 360H141.287V352.075H142.642V360ZM141.177 349.973C141.177 349.753 141.243 349.568 141.375 349.417C141.512 349.265 141.712 349.189 141.976 349.189C142.239 349.189 142.439 349.265 142.576 349.417C142.713 349.568 142.781 349.753 142.781 349.973C142.781 350.193 142.713 350.376 142.576 350.522C142.439 350.669 142.239 350.742 141.976 350.742C141.712 350.742 141.512 350.669 141.375 350.522C141.243 350.376 141.177 350.193 141.177 349.973ZM144.458 355.964C144.458 355.188 144.61 354.49 144.913 353.87C145.22 353.25 145.645 352.771 146.187 352.434C146.734 352.097 147.356 351.929 148.055 351.929C149.134 351.929 150.005 352.302 150.669 353.049C151.338 353.796 151.673 354.79 151.673 356.03V356.125C151.673 356.897 151.524 357.59 151.226 358.206C150.933 358.816 150.511 359.292 149.959 359.634C149.412 359.976 148.782 360.146 148.069 360.146C146.995 360.146 146.124 359.773 145.455 359.026C144.791 358.279 144.458 357.29 144.458 356.06V355.964ZM145.821 356.125C145.821 357.004 146.023 357.71 146.429 358.242C146.839 358.774 147.386 359.041 148.069 359.041C148.758 359.041 149.305 358.772 149.71 358.235C150.115 357.693 150.318 356.936 150.318 355.964C150.318 355.095 150.11 354.392 149.695 353.855C149.285 353.313 148.738 353.042 148.055 353.042C147.386 353.042 146.846 353.308 146.436 353.84C146.026 354.373 145.821 355.134 145.821 356.125ZM154.654 352.075L154.698 353.071C155.303 352.31 156.094 351.929 157.071 351.929C158.746 351.929 159.59 352.874 159.605 354.763V360H158.25V354.756C158.245 354.185 158.113 353.762 157.854 353.489C157.601 353.215 157.203 353.079 156.661 353.079C156.221 353.079 155.835 353.196 155.503 353.43C155.171 353.665 154.913 353.972 154.727 354.353V360H153.372V352.075H154.654ZM165.047 355.972C165.047 354.736 165.333 353.755 165.904 353.027C166.475 352.295 167.232 351.929 168.174 351.929C169.141 351.929 169.896 352.271 170.438 352.954L170.503 352.075H171.741V359.81C171.741 360.835 171.436 361.643 170.826 362.234C170.22 362.825 169.405 363.12 168.379 363.12C167.808 363.12 167.249 362.998 166.702 362.754C166.155 362.51 165.738 362.175 165.45 361.75L166.153 360.938C166.734 361.655 167.444 362.014 168.284 362.014C168.943 362.014 169.456 361.829 169.822 361.458C170.193 361.086 170.379 360.564 170.379 359.89V359.209C169.837 359.834 169.097 360.146 168.16 360.146C167.232 360.146 166.48 359.773 165.904 359.026C165.333 358.279 165.047 357.261 165.047 355.972ZM166.409 356.125C166.409 357.019 166.592 357.722 166.958 358.235C167.325 358.743 167.837 358.997 168.497 358.997C169.351 358.997 169.979 358.608 170.379 357.832V354.214C169.964 353.457 169.341 353.079 168.511 353.079C167.852 353.079 167.337 353.335 166.966 353.848C166.595 354.36 166.409 355.12 166.409 356.125ZM177.623 353.291C177.417 353.257 177.195 353.24 176.956 353.24C176.067 353.24 175.464 353.618 175.147 354.375V360H173.792V352.075H175.11L175.132 352.991C175.577 352.283 176.207 351.929 177.022 351.929C177.286 351.929 177.486 351.963 177.623 352.031V353.291ZM178.37 355.964C178.37 355.188 178.521 354.49 178.824 353.87C179.131 353.25 179.556 352.771 180.098 352.434C180.645 352.097 181.268 351.929 181.966 351.929C183.045 351.929 183.917 352.302 184.581 353.049C185.25 353.796 185.584 354.79 185.584 356.03V356.125C185.584 356.897 185.435 357.59 185.137 358.206C184.844 358.816 184.422 359.292 183.87 359.634C183.323 359.976 182.693 360.146 181.98 360.146C180.906 360.146 180.035 359.773 179.366 359.026C178.702 358.279 178.37 357.29 178.37 356.06V355.964ZM179.732 356.125C179.732 357.004 179.935 357.71 180.34 358.242C180.75 358.774 181.297 359.041 181.98 359.041C182.669 359.041 183.216 358.772 183.621 358.235C184.026 357.693 184.229 356.936 184.229 355.964C184.229 355.095 184.021 354.392 183.606 353.855C183.196 353.313 182.649 353.042 181.966 353.042C181.297 353.042 180.757 353.308 180.347 353.84C179.937 354.373 179.732 355.134 179.732 356.125ZM194.3 358.132L195.823 352.075H197.178L194.871 360H193.772L191.846 353.994L189.971 360H188.873L186.573 352.075H187.92L189.48 358.008L191.326 352.075H192.417L194.3 358.132ZM200.401 350.156V352.075H201.88V353.123H200.401V358.037C200.401 358.354 200.467 358.594 200.599 358.755C200.73 358.911 200.955 358.989 201.272 358.989C201.429 358.989 201.644 358.96 201.917 358.901V360C201.561 360.098 201.214 360.146 200.877 360.146C200.271 360.146 199.815 359.963 199.507 359.597C199.2 359.231 199.046 358.711 199.046 358.037V353.123H197.603V352.075H199.046V350.156H200.401ZM204.825 353.035C205.425 352.297 206.207 351.929 207.168 351.929C208.843 351.929 209.688 352.874 209.703 354.763V360H208.348V354.756C208.343 354.185 208.211 353.762 207.952 353.489C207.698 353.215 207.3 353.079 206.758 353.079C206.319 353.079 205.933 353.196 205.601 353.43C205.269 353.665 205.01 353.972 204.825 354.353V360H203.47V348.75H204.825V353.035ZM216.924 360H215.569V352.075H216.924V360ZM215.459 349.973C215.459 349.753 215.525 349.568 215.657 349.417C215.794 349.265 215.994 349.189 216.258 349.189C216.521 349.189 216.722 349.265 216.858 349.417C216.995 349.568 217.063 349.753 217.063 349.973C217.063 350.193 216.995 350.376 216.858 350.522C216.722 350.669 216.521 350.742 216.258 350.742C215.994 350.742 215.794 350.669 215.657 350.522C215.525 350.376 215.459 350.193 215.459 349.973ZM220.381 352.075L220.425 353.071C221.031 352.31 221.822 351.929 222.798 351.929C224.473 351.929 225.318 352.874 225.333 354.763V360H223.978V354.756C223.973 354.185 223.841 353.762 223.582 353.489C223.328 353.215 222.93 353.079 222.388 353.079C221.949 353.079 221.563 353.196 221.231 353.43C220.899 353.665 220.64 353.972 220.455 354.353V360H219.1V352.075H220.381ZM230.555 359.041C231.038 359.041 231.46 358.894 231.822 358.601C232.183 358.308 232.383 357.942 232.422 357.502H233.704C233.68 357.957 233.523 358.389 233.235 358.799C232.947 359.209 232.562 359.536 232.078 359.78C231.6 360.024 231.092 360.146 230.555 360.146C229.476 360.146 228.616 359.788 227.977 359.07C227.342 358.347 227.024 357.361 227.024 356.111V355.884C227.024 355.112 227.166 354.426 227.449 353.826C227.732 353.225 228.138 352.759 228.665 352.427C229.197 352.095 229.825 351.929 230.547 351.929C231.436 351.929 232.173 352.195 232.759 352.727C233.35 353.259 233.665 353.95 233.704 354.8H232.422C232.383 354.287 232.188 353.867 231.836 353.54C231.49 353.208 231.06 353.042 230.547 353.042C229.859 353.042 229.324 353.291 228.943 353.789C228.567 354.282 228.379 354.998 228.379 355.935V356.191C228.379 357.104 228.567 357.808 228.943 358.301C229.319 358.794 229.856 359.041 230.555 359.041ZM239.058 353.291C238.853 353.257 238.631 353.24 238.392 353.24C237.503 353.24 236.9 353.618 236.583 354.375V360H235.228V352.075H236.546L236.568 352.991C237.012 352.283 237.642 351.929 238.458 351.929C238.721 351.929 238.921 351.963 239.058 352.031V353.291ZM243.453 360.146C242.378 360.146 241.504 359.795 240.831 359.092C240.157 358.384 239.82 357.439 239.82 356.257V356.008C239.82 355.222 239.969 354.521 240.267 353.906C240.569 353.286 240.989 352.803 241.526 352.456C242.068 352.104 242.654 351.929 243.284 351.929C244.314 351.929 245.115 352.268 245.687 352.947C246.258 353.625 246.543 354.597 246.543 355.862V356.426H241.175C241.194 357.207 241.421 357.839 241.856 358.323C242.295 358.801 242.852 359.041 243.526 359.041C244.004 359.041 244.41 358.943 244.742 358.748C245.074 358.552 245.364 358.293 245.613 357.971L246.441 358.616C245.777 359.636 244.781 360.146 243.453 360.146ZM243.284 353.042C242.737 353.042 242.278 353.242 241.907 353.643C241.536 354.038 241.307 354.595 241.219 355.312H245.188V355.21C245.149 354.521 244.964 353.989 244.632 353.613C244.3 353.232 243.851 353.042 243.284 353.042ZM253.011 360C252.933 359.844 252.869 359.565 252.82 359.165C252.19 359.819 251.438 360.146 250.564 360.146C249.783 360.146 249.141 359.927 248.638 359.487C248.14 359.043 247.891 358.481 247.891 357.803C247.891 356.978 248.204 356.338 248.829 355.884C249.458 355.425 250.342 355.195 251.48 355.195H252.798V354.573C252.798 354.099 252.657 353.723 252.374 353.445C252.09 353.162 251.673 353.02 251.121 353.02C250.638 353.02 250.232 353.142 249.905 353.386C249.578 353.63 249.415 353.926 249.415 354.272H248.052C248.052 353.877 248.191 353.496 248.47 353.13C248.753 352.759 249.134 352.466 249.612 352.251C250.096 352.036 250.625 351.929 251.202 351.929C252.115 351.929 252.83 352.158 253.348 352.617C253.865 353.071 254.134 353.699 254.153 354.5V358.147C254.153 358.875 254.246 359.453 254.432 359.883V360H253.011ZM250.762 358.967C251.187 358.967 251.59 358.857 251.971 358.638C252.352 358.418 252.627 358.132 252.798 357.781V356.155H251.736C250.076 356.155 249.246 356.641 249.246 357.612C249.246 358.037 249.388 358.369 249.671 358.608C249.954 358.848 250.318 358.967 250.762 358.967ZM260.892 357.898C260.892 357.532 260.752 357.249 260.474 357.048C260.201 356.843 259.72 356.667 259.031 356.521C258.348 356.375 257.803 356.199 257.398 355.994C256.998 355.789 256.7 355.544 256.504 355.261C256.314 354.978 256.219 354.641 256.219 354.25C256.219 353.601 256.492 353.052 257.039 352.603C257.591 352.153 258.294 351.929 259.148 351.929C260.047 351.929 260.774 352.161 261.331 352.625C261.893 353.088 262.173 353.682 262.173 354.404H260.811C260.811 354.033 260.652 353.713 260.335 353.445C260.022 353.176 259.627 353.042 259.148 353.042C258.655 353.042 258.27 353.149 257.991 353.364C257.713 353.579 257.574 353.86 257.574 354.207C257.574 354.534 257.703 354.78 257.962 354.946C258.221 355.112 258.687 355.271 259.361 355.422C260.04 355.574 260.589 355.754 261.009 355.964C261.429 356.174 261.739 356.428 261.939 356.726C262.144 357.019 262.247 357.378 262.247 357.803C262.247 358.511 261.963 359.08 261.397 359.509C260.831 359.934 260.096 360.146 259.192 360.146C258.558 360.146 257.996 360.034 257.508 359.81C257.02 359.585 256.636 359.272 256.358 358.872C256.084 358.467 255.948 358.03 255.948 357.561H257.303C257.327 358.015 257.508 358.376 257.845 358.645C258.187 358.909 258.636 359.041 259.192 359.041C259.705 359.041 260.115 358.938 260.423 358.733C260.735 358.523 260.892 358.245 260.892 357.898ZM267.3 360.146C266.226 360.146 265.352 359.795 264.678 359.092C264.004 358.384 263.667 357.439 263.667 356.257V356.008C263.667 355.222 263.816 354.521 264.114 353.906C264.417 353.286 264.837 352.803 265.374 352.456C265.916 352.104 266.502 351.929 267.132 351.929C268.162 351.929 268.963 352.268 269.534 352.947C270.105 353.625 270.391 354.597 270.391 355.862V356.426H265.022C265.042 357.207 265.269 357.839 265.704 358.323C266.143 358.801 266.7 359.041 267.374 359.041C267.852 359.041 268.257 358.943 268.589 358.748C268.921 358.552 269.212 358.293 269.461 357.971L270.289 358.616C269.625 359.636 268.628 360.146 267.3 360.146ZM267.132 353.042C266.585 353.042 266.126 353.242 265.755 353.643C265.384 354.038 265.154 354.595 265.066 355.312H269.036V355.21C268.997 354.521 268.812 353.989 268.479 353.613C268.147 353.232 267.698 353.042 267.132 353.042ZM276.58 357.898C276.58 357.532 276.441 357.249 276.163 357.048C275.889 356.843 275.408 356.667 274.72 356.521C274.036 356.375 273.492 356.199 273.086 355.994C272.686 355.789 272.388 355.544 272.193 355.261C272.002 354.978 271.907 354.641 271.907 354.25C271.907 353.601 272.181 353.052 272.728 352.603C273.279 352.153 273.982 351.929 274.837 351.929C275.735 351.929 276.463 352.161 277.02 352.625C277.581 353.088 277.862 353.682 277.862 354.404H276.5C276.5 354.033 276.341 353.713 276.023 353.445C275.711 353.176 275.315 353.042 274.837 353.042C274.344 353.042 273.958 353.149 273.68 353.364C273.401 353.579 273.262 353.86 273.262 354.207C273.262 354.534 273.392 354.78 273.65 354.946C273.909 355.112 274.375 355.271 275.049 355.422C275.728 355.574 276.277 355.754 276.697 355.964C277.117 356.174 277.427 356.428 277.627 356.726C277.833 357.019 277.935 357.378 277.935 357.803C277.935 358.511 277.652 359.08 277.085 359.509C276.519 359.934 275.784 360.146 274.881 360.146C274.246 360.146 273.685 360.034 273.196 359.81C272.708 359.585 272.325 359.272 272.046 358.872C271.773 358.467 271.636 358.03 271.636 357.561H272.991C273.016 358.015 273.196 358.376 273.533 358.645C273.875 358.909 274.324 359.041 274.881 359.041C275.394 359.041 275.804 358.938 276.111 358.733C276.424 358.523 276.58 358.245 276.58 357.898ZM283.091 355.972C283.091 354.756 283.379 353.779 283.956 353.042C284.532 352.3 285.286 351.929 286.219 351.929C287.146 351.929 287.881 352.246 288.423 352.881V348.75H289.778V360H288.533L288.467 359.15C287.925 359.814 287.171 360.146 286.204 360.146C285.286 360.146 284.537 359.771 283.956 359.019C283.379 358.267 283.091 357.285 283.091 356.074V355.972ZM284.446 356.125C284.446 357.024 284.632 357.727 285.003 358.235C285.374 358.743 285.887 358.997 286.541 358.997C287.4 358.997 288.028 358.611 288.423 357.839V354.199C288.018 353.452 287.396 353.079 286.556 353.079C285.892 353.079 285.374 353.335 285.003 353.848C284.632 354.36 284.446 355.12 284.446 356.125ZM295.176 360.146C294.102 360.146 293.228 359.795 292.554 359.092C291.88 358.384 291.543 357.439 291.543 356.257V356.008C291.543 355.222 291.692 354.521 291.99 353.906C292.293 353.286 292.713 352.803 293.25 352.456C293.792 352.104 294.378 351.929 295.008 351.929C296.038 351.929 296.839 352.268 297.41 352.947C297.981 353.625 298.267 354.597 298.267 355.862V356.426H292.898C292.918 357.207 293.145 357.839 293.58 358.323C294.019 358.801 294.576 359.041 295.25 359.041C295.728 359.041 296.133 358.943 296.465 358.748C296.797 358.552 297.088 358.293 297.337 357.971L298.165 358.616C297.5 359.636 296.504 360.146 295.176 360.146ZM295.008 353.042C294.461 353.042 294.002 353.242 293.631 353.643C293.26 354.038 293.03 354.595 292.942 355.312H296.912V355.21C296.873 354.521 296.688 353.989 296.355 353.613C296.023 353.232 295.574 353.042 295.008 353.042ZM301.116 352.075L301.153 352.954C301.734 352.271 302.518 351.929 303.504 351.929C304.612 351.929 305.367 352.354 305.767 353.203C306.031 352.822 306.373 352.515 306.792 352.28C307.217 352.046 307.718 351.929 308.294 351.929C310.032 351.929 310.916 352.849 310.945 354.69V360H309.59V354.771C309.59 354.204 309.461 353.782 309.202 353.503C308.943 353.22 308.509 353.079 307.898 353.079C307.396 353.079 306.978 353.23 306.646 353.533C306.314 353.831 306.121 354.233 306.067 354.741V360H304.705V354.807C304.705 353.655 304.141 353.079 303.013 353.079C302.125 353.079 301.517 353.457 301.189 354.214V360H299.834V352.075H301.116ZM317.889 360C317.811 359.844 317.747 359.565 317.698 359.165C317.068 359.819 316.316 360.146 315.442 360.146C314.661 360.146 314.019 359.927 313.516 359.487C313.018 359.043 312.769 358.481 312.769 357.803C312.769 356.978 313.082 356.338 313.707 355.884C314.336 355.425 315.22 355.195 316.358 355.195H317.676V354.573C317.676 354.099 317.535 353.723 317.251 353.445C316.968 353.162 316.551 353.02 315.999 353.02C315.516 353.02 315.11 353.142 314.783 353.386C314.456 353.63 314.292 353.926 314.292 354.272H312.93C312.93 353.877 313.069 353.496 313.348 353.13C313.631 352.759 314.012 352.466 314.49 352.251C314.974 352.036 315.503 351.929 316.08 351.929C316.993 351.929 317.708 352.158 318.226 352.617C318.743 353.071 319.012 353.699 319.031 354.5V358.147C319.031 358.875 319.124 359.453 319.31 359.883V360H317.889ZM315.64 358.967C316.065 358.967 316.468 358.857 316.849 358.638C317.229 358.418 317.505 358.132 317.676 357.781V356.155H316.614C314.954 356.155 314.124 356.641 314.124 357.612C314.124 358.037 314.266 358.369 314.549 358.608C314.832 358.848 315.196 358.967 315.64 358.967ZM322.437 352.075L322.481 353.071C323.086 352.31 323.877 351.929 324.854 351.929C326.529 351.929 327.374 352.874 327.388 354.763V360H326.033V354.756C326.028 354.185 325.896 353.762 325.638 353.489C325.384 353.215 324.986 353.079 324.444 353.079C324.004 353.079 323.619 353.196 323.287 353.43C322.955 353.665 322.696 353.972 322.51 354.353V360H321.155V352.075H322.437ZM329.102 355.972C329.102 354.756 329.39 353.779 329.966 353.042C330.542 352.3 331.297 351.929 332.229 351.929C333.157 351.929 333.892 352.246 334.434 352.881V348.75H335.789V360H334.544L334.478 359.15C333.936 359.814 333.182 360.146 332.215 360.146C331.297 360.146 330.547 359.771 329.966 359.019C329.39 358.267 329.102 357.285 329.102 356.074V355.972ZM330.457 356.125C330.457 357.024 330.643 357.727 331.014 358.235C331.385 358.743 331.897 358.997 332.552 358.997C333.411 358.997 334.039 358.611 334.434 357.839V354.199C334.029 353.452 333.406 353.079 332.566 353.079C331.902 353.079 331.385 353.335 331.014 353.848C330.643 354.36 330.457 355.12 330.457 356.125ZM341.26 355.964C341.26 355.188 341.412 354.49 341.714 353.87C342.022 353.25 342.447 352.771 342.989 352.434C343.536 352.097 344.158 351.929 344.856 351.929C345.936 351.929 346.807 352.302 347.471 353.049C348.14 353.796 348.475 354.79 348.475 356.03V356.125C348.475 356.897 348.326 357.59 348.028 358.206C347.735 358.816 347.312 359.292 346.761 359.634C346.214 359.976 345.584 360.146 344.871 360.146C343.797 360.146 342.925 359.773 342.256 359.026C341.592 358.279 341.26 357.29 341.26 356.06V355.964ZM342.623 356.125C342.623 357.004 342.825 357.71 343.23 358.242C343.641 358.774 344.188 359.041 344.871 359.041C345.56 359.041 346.106 358.772 346.512 358.235C346.917 357.693 347.12 356.936 347.12 355.964C347.12 355.095 346.912 354.392 346.497 353.855C346.087 353.313 345.54 353.042 344.856 353.042C344.188 353.042 343.648 353.308 343.238 353.84C342.828 354.373 342.623 355.134 342.623 356.125ZM351.456 352.075L351.5 353.071C352.105 352.31 352.896 351.929 353.873 351.929C355.547 351.929 356.392 352.874 356.407 354.763V360H355.052V354.756C355.047 354.185 354.915 353.762 354.656 353.489C354.402 353.215 354.004 353.079 353.462 353.079C353.023 353.079 352.637 353.196 352.305 353.43C351.973 353.665 351.714 353.972 351.529 354.353V360H350.174V352.075H351.456ZM361.849 355.972C361.849 354.736 362.134 353.755 362.706 353.027C363.277 352.295 364.034 351.929 364.976 351.929C365.943 351.929 366.697 352.271 367.239 352.954L367.305 352.075H368.543V359.81C368.543 360.835 368.238 361.643 367.627 362.234C367.022 362.825 366.207 363.12 365.181 363.12C364.61 363.12 364.051 362.998 363.504 362.754C362.957 362.51 362.54 362.175 362.251 361.75L362.955 360.938C363.536 361.655 364.246 362.014 365.086 362.014C365.745 362.014 366.258 361.829 366.624 361.458C366.995 361.086 367.181 360.564 367.181 359.89V359.209C366.639 359.834 365.899 360.146 364.961 360.146C364.034 360.146 363.282 359.773 362.706 359.026C362.134 358.279 361.849 357.261 361.849 355.972ZM363.211 356.125C363.211 357.019 363.394 357.722 363.76 358.235C364.126 358.743 364.639 358.997 365.298 358.997C366.153 358.997 366.78 358.608 367.181 357.832V354.214C366.766 353.457 366.143 353.079 365.313 353.079C364.654 353.079 364.139 353.335 363.768 353.848C363.396 354.36 363.211 355.12 363.211 356.125ZM372.066 360H370.711V348.75H372.066V360ZM373.882 355.964C373.882 355.188 374.034 354.49 374.336 353.87C374.644 353.25 375.069 352.771 375.611 352.434C376.158 352.097 376.78 351.929 377.479 351.929C378.558 351.929 379.429 352.302 380.093 353.049C380.762 353.796 381.097 354.79 381.097 356.03V356.125C381.097 356.897 380.948 357.59 380.65 358.206C380.357 358.816 379.935 359.292 379.383 359.634C378.836 359.976 378.206 360.146 377.493 360.146C376.419 360.146 375.547 359.773 374.878 359.026C374.214 358.279 373.882 357.29 373.882 356.06V355.964ZM375.245 356.125C375.245 357.004 375.447 357.71 375.853 358.242C376.263 358.774 376.81 359.041 377.493 359.041C378.182 359.041 378.729 358.772 379.134 358.235C379.539 357.693 379.742 356.936 379.742 355.964C379.742 355.095 379.534 354.392 379.119 353.855C378.709 353.313 378.162 353.042 377.479 353.042C376.81 353.042 376.27 353.308 375.86 353.84C375.45 354.373 375.245 355.134 375.245 356.125ZM389.505 356.125C389.505 357.336 389.227 358.311 388.67 359.048C388.113 359.78 387.366 360.146 386.429 360.146C385.428 360.146 384.654 359.792 384.107 359.084L384.041 360H382.796V348.75H384.151V352.947C384.698 352.268 385.452 351.929 386.414 351.929C387.376 351.929 388.13 352.292 388.677 353.02C389.229 353.748 389.505 354.744 389.505 356.008V356.125ZM388.15 355.972C388.15 355.049 387.972 354.336 387.615 353.833C387.259 353.33 386.746 353.079 386.077 353.079C385.184 353.079 384.542 353.494 384.151 354.324V357.751C384.566 358.582 385.213 358.997 386.092 358.997C386.741 358.997 387.247 358.745 387.608 358.242C387.969 357.739 388.15 356.982 388.15 355.972ZM396.111 360C396.033 359.844 395.97 359.565 395.921 359.165C395.291 359.819 394.539 360.146 393.665 360.146C392.884 360.146 392.242 359.927 391.739 359.487C391.241 359.043 390.992 358.481 390.992 357.803C390.992 356.978 391.304 356.338 391.929 355.884C392.559 355.425 393.443 355.195 394.581 355.195H395.899V354.573C395.899 354.099 395.757 353.723 395.474 353.445C395.191 353.162 394.773 353.02 394.222 353.02C393.738 353.02 393.333 353.142 393.006 353.386C392.679 353.63 392.515 353.926 392.515 354.272H391.153C391.153 353.877 391.292 353.496 391.57 353.13C391.854 352.759 392.234 352.466 392.713 352.251C393.196 352.036 393.726 351.929 394.302 351.929C395.215 351.929 395.931 352.158 396.448 352.617C396.966 353.071 397.234 353.699 397.254 354.5V358.147C397.254 358.875 397.347 359.453 397.532 359.883V360H396.111ZM393.863 358.967C394.288 358.967 394.69 358.857 395.071 358.638C395.452 358.418 395.728 358.132 395.899 357.781V356.155H394.837C393.177 356.155 392.347 356.641 392.347 357.612C392.347 358.037 392.488 358.369 392.771 358.608C393.055 358.848 393.418 358.967 393.863 358.967ZM400.85 360H399.495V348.75H400.85V360ZM48.3501 371.291C48.145 371.257 47.9229 371.24 47.6836 371.24C46.7949 371.24 46.1919 371.618 45.8745 372.375V378H44.5195V370.075H45.8379L45.8599 370.991C46.3042 370.283 46.9341 369.929 47.7495 369.929C48.0132 369.929 48.2134 369.963 48.3501 370.031V371.291ZM52.7446 378.146C51.6704 378.146 50.7964 377.795 50.1226 377.092C49.4487 376.384 49.1118 375.439 49.1118 374.257V374.008C49.1118 373.222 49.2607 372.521 49.5586 371.906C49.8613 371.286 50.2812 370.803 50.8184 370.456C51.3604 370.104 51.9463 369.929 52.5762 369.929C53.6064 369.929 54.4072 370.268 54.9785 370.947C55.5498 371.625 55.8354 372.597 55.8354 373.862V374.426H50.4668C50.4863 375.207 50.7134 375.839 51.1479 376.323C51.5874 376.801 52.144 377.041 52.8179 377.041C53.2964 377.041 53.7017 376.943 54.0337 376.748C54.3657 376.552 54.6562 376.293 54.9053 375.971L55.7329 376.616C55.0688 377.636 54.0728 378.146 52.7446 378.146ZM52.5762 371.042C52.0293 371.042 51.5703 371.242 51.1992 371.643C50.8281 372.038 50.5986 372.595 50.5107 373.312H54.4805V373.21C54.4414 372.521 54.2559 371.989 53.9238 371.613C53.5918 371.232 53.1426 371.042 52.5762 371.042ZM62.0244 375.898C62.0244 375.532 61.8853 375.249 61.6069 375.048C61.3335 374.843 60.8525 374.667 60.1641 374.521C59.4805 374.375 58.936 374.199 58.5308 373.994C58.1304 373.789 57.8325 373.544 57.6372 373.261C57.4468 372.978 57.3516 372.641 57.3516 372.25C57.3516 371.601 57.625 371.052 58.1719 370.603C58.7236 370.153 59.4268 369.929 60.2812 369.929C61.1797 369.929 61.9072 370.161 62.4639 370.625C63.0254 371.088 63.3062 371.682 63.3062 372.404H61.9438C61.9438 372.033 61.7852 371.713 61.4678 371.445C61.1553 371.176 60.7598 371.042 60.2812 371.042C59.7881 371.042 59.4023 371.149 59.124 371.364C58.8457 371.579 58.7065 371.86 58.7065 372.207C58.7065 372.534 58.8359 372.78 59.0947 372.946C59.3535 373.112 59.8198 373.271 60.4937 373.422C61.1724 373.574 61.7217 373.754 62.1416 373.964C62.5615 374.174 62.8716 374.428 63.0718 374.726C63.2769 375.019 63.3794 375.378 63.3794 375.803C63.3794 376.511 63.0962 377.08 62.5298 377.509C61.9634 377.934 61.2285 378.146 60.3252 378.146C59.6904 378.146 59.1289 378.034 58.6406 377.81C58.1523 377.585 57.769 377.272 57.4907 376.872C57.2173 376.467 57.0806 376.03 57.0806 375.561H58.4355C58.46 376.015 58.6406 376.376 58.9775 376.645C59.3193 376.909 59.7686 377.041 60.3252 377.041C60.8379 377.041 61.248 376.938 61.5557 376.733C61.8682 376.523 62.0244 376.245 62.0244 375.898ZM64.7856 373.964C64.7856 373.188 64.937 372.49 65.2397 371.87C65.5474 371.25 65.9722 370.771 66.5142 370.434C67.061 370.097 67.6836 369.929 68.3818 369.929C69.4609 369.929 70.3325 370.302 70.9966 371.049C71.6655 371.796 72 372.79 72 374.03V374.125C72 374.897 71.8511 375.59 71.5532 376.206C71.2603 376.816 70.8379 377.292 70.2861 377.634C69.7393 377.976 69.1094 378.146 68.3965 378.146C67.3223 378.146 66.4507 377.773 65.7817 377.026C65.1177 376.279 64.7856 375.29 64.7856 374.06V373.964ZM66.1479 374.125C66.1479 375.004 66.3506 375.71 66.7559 376.242C67.166 376.774 67.7129 377.041 68.3965 377.041C69.085 377.041 69.6318 376.772 70.0371 376.235C70.4424 375.693 70.645 374.936 70.645 373.964C70.645 373.095 70.4375 372.392 70.0225 371.855C69.6123 371.313 69.0654 371.042 68.3818 371.042C67.7129 371.042 67.1733 371.308 66.7632 371.84C66.353 372.373 66.1479 373.134 66.1479 374.125ZM78.5918 377.216C78.0645 377.836 77.2905 378.146 76.27 378.146C75.4253 378.146 74.7808 377.902 74.3364 377.414C73.897 376.921 73.6748 376.193 73.6699 375.231V370.075H75.0249V375.195C75.0249 376.396 75.5132 376.997 76.4897 376.997C77.5249 376.997 78.2134 376.611 78.5552 375.839V370.075H79.9102V378H78.6211L78.5918 377.216ZM85.8062 371.291C85.6011 371.257 85.3789 371.24 85.1396 371.24C84.251 371.24 83.6479 371.618 83.3306 372.375V378H81.9756V370.075H83.2939L83.3159 370.991C83.7603 370.283 84.3901 369.929 85.2056 369.929C85.4692 369.929 85.6694 369.963 85.8062 370.031V371.291ZM90.0908 377.041C90.5742 377.041 90.9966 376.894 91.3579 376.601C91.7192 376.308 91.9194 375.942 91.9585 375.502H93.2402C93.2158 375.957 93.0596 376.389 92.7715 376.799C92.4834 377.209 92.0977 377.536 91.6143 377.78C91.1357 378.024 90.6279 378.146 90.0908 378.146C89.0117 378.146 88.1523 377.788 87.5127 377.07C86.8779 376.347 86.5605 375.361 86.5605 374.111V373.884C86.5605 373.112 86.7021 372.426 86.9854 371.826C87.2686 371.225 87.6738 370.759 88.2012 370.427C88.7334 370.095 89.3608 369.929 90.0835 369.929C90.9722 369.929 91.7095 370.195 92.2954 370.727C92.8862 371.259 93.2012 371.95 93.2402 372.8H91.9585C91.9194 372.287 91.7241 371.867 91.3726 371.54C91.0259 371.208 90.5962 371.042 90.0835 371.042C89.395 371.042 88.8604 371.291 88.4795 371.789C88.1035 372.282 87.9155 372.998 87.9155 373.935V374.191C87.9155 375.104 88.1035 375.808 88.4795 376.301C88.8555 376.794 89.3926 377.041 90.0908 377.041ZM98.0522 378.146C96.978 378.146 96.104 377.795 95.4302 377.092C94.7563 376.384 94.4194 375.439 94.4194 374.257V374.008C94.4194 373.222 94.5684 372.521 94.8662 371.906C95.1689 371.286 95.5889 370.803 96.126 370.456C96.668 370.104 97.2539 369.929 97.8838 369.929C98.9141 369.929 99.7148 370.268 100.286 370.947C100.857 371.625 101.143 372.597 101.143 373.862V374.426H95.7744C95.7939 375.207 96.021 375.839 96.4556 376.323C96.895 376.801 97.4517 377.041 98.1255 377.041C98.604 377.041 99.0093 376.943 99.3413 376.748C99.6733 376.552 99.9639 376.293 100.213 375.971L101.041 376.616C100.376 377.636 99.3804 378.146 98.0522 378.146ZM97.8838 371.042C97.3369 371.042 96.8779 371.242 96.5068 371.643C96.1357 372.038 95.9062 372.595 95.8184 373.312H99.7881V373.21C99.749 372.521 99.5635 371.989 99.2314 371.613C98.8994 371.232 98.4502 371.042 97.8838 371.042ZM107.332 375.898C107.332 375.532 107.193 375.249 106.915 375.048C106.641 374.843 106.16 374.667 105.472 374.521C104.788 374.375 104.244 374.199 103.838 373.994C103.438 373.789 103.14 373.544 102.945 373.261C102.754 372.978 102.659 372.641 102.659 372.25C102.659 371.601 102.933 371.052 103.479 370.603C104.031 370.153 104.734 369.929 105.589 369.929C106.487 369.929 107.215 370.161 107.771 370.625C108.333 371.088 108.614 371.682 108.614 372.404H107.251C107.251 372.033 107.093 371.713 106.775 371.445C106.463 371.176 106.067 371.042 105.589 371.042C105.096 371.042 104.71 371.149 104.432 371.364C104.153 371.579 104.014 371.86 104.014 372.207C104.014 372.534 104.144 372.78 104.402 372.946C104.661 373.112 105.127 373.271 105.801 373.422C106.48 373.574 107.029 373.754 107.449 373.964C107.869 374.174 108.179 374.428 108.379 374.726C108.584 375.019 108.687 375.378 108.687 375.803C108.687 376.511 108.404 377.08 107.837 377.509C107.271 377.934 106.536 378.146 105.633 378.146C104.998 378.146 104.437 378.034 103.948 377.81C103.46 377.585 103.077 377.272 102.798 376.872C102.525 376.467 102.388 376.03 102.388 375.561H103.743C103.768 376.015 103.948 376.376 104.285 376.645C104.627 376.909 105.076 377.041 105.633 377.041C106.146 377.041 106.556 376.938 106.863 376.733C107.176 376.523 107.332 376.245 107.332 375.898ZM119.065 378C118.987 377.844 118.924 377.565 118.875 377.165C118.245 377.819 117.493 378.146 116.619 378.146C115.838 378.146 115.196 377.927 114.693 377.487C114.195 377.043 113.946 376.481 113.946 375.803C113.946 374.978 114.258 374.338 114.883 373.884C115.513 373.425 116.397 373.195 117.535 373.195H118.853V372.573C118.853 372.099 118.711 371.723 118.428 371.445C118.145 371.162 117.728 371.02 117.176 371.02C116.692 371.02 116.287 371.142 115.96 371.386C115.633 371.63 115.469 371.926 115.469 372.272H114.107C114.107 371.877 114.246 371.496 114.524 371.13C114.808 370.759 115.188 370.466 115.667 370.251C116.15 370.036 116.68 369.929 117.256 369.929C118.169 369.929 118.885 370.158 119.402 370.617C119.92 371.071 120.188 371.699 120.208 372.5V376.147C120.208 376.875 120.301 377.453 120.486 377.883V378H119.065ZM116.817 376.967C117.242 376.967 117.645 376.857 118.025 376.638C118.406 376.418 118.682 376.132 118.853 375.781V374.155H117.791C116.131 374.155 115.301 374.641 115.301 375.612C115.301 376.037 115.442 376.369 115.726 376.608C116.009 376.848 116.373 376.967 116.817 376.967ZM123.614 370.075L123.658 371.071C124.263 370.31 125.054 369.929 126.031 369.929C127.706 369.929 128.55 370.874 128.565 372.763V378H127.21V372.756C127.205 372.185 127.073 371.762 126.814 371.489C126.561 371.215 126.163 371.079 125.621 371.079C125.181 371.079 124.795 371.196 124.463 371.43C124.131 371.665 123.873 371.972 123.687 372.353V378H122.332V370.075H123.614ZM130.279 373.972C130.279 372.756 130.567 371.779 131.143 371.042C131.719 370.3 132.474 369.929 133.406 369.929C134.334 369.929 135.069 370.246 135.611 370.881V366.75H136.966V378H135.721L135.655 377.15C135.113 377.814 134.358 378.146 133.392 378.146C132.474 378.146 131.724 377.771 131.143 377.019C130.567 376.267 130.279 375.285 130.279 374.074V373.972ZM131.634 374.125C131.634 375.024 131.819 375.727 132.19 376.235C132.562 376.743 133.074 376.997 133.729 376.997C134.588 376.997 135.215 376.611 135.611 375.839V372.199C135.206 371.452 134.583 371.079 133.743 371.079C133.079 371.079 132.562 371.335 132.19 371.848C131.819 372.36 131.634 373.12 131.634 374.125ZM142.466 373.972C142.466 372.756 142.754 371.779 143.331 371.042C143.907 370.3 144.661 369.929 145.594 369.929C146.521 369.929 147.256 370.246 147.798 370.881V366.75H149.153V378H147.908L147.842 377.15C147.3 377.814 146.546 378.146 145.579 378.146C144.661 378.146 143.912 377.771 143.331 377.019C142.754 376.267 142.466 375.285 142.466 374.074V373.972ZM143.821 374.125C143.821 375.024 144.007 375.727 144.378 376.235C144.749 376.743 145.262 376.997 145.916 376.997C146.775 376.997 147.403 376.611 147.798 375.839V372.199C147.393 371.452 146.771 371.079 145.931 371.079C145.267 371.079 144.749 371.335 144.378 371.848C144.007 372.36 143.821 373.12 143.821 374.125ZM155.093 371.291C154.888 371.257 154.666 371.24 154.427 371.24C153.538 371.24 152.935 371.618 152.618 372.375V378H151.263V370.075H152.581L152.603 370.991C153.047 370.283 153.677 369.929 154.493 369.929C154.756 369.929 154.957 369.963 155.093 370.031V371.291ZM157.818 378H156.463V370.075H157.818V378ZM156.353 367.973C156.353 367.753 156.419 367.568 156.551 367.417C156.688 367.265 156.888 367.189 157.151 367.189C157.415 367.189 157.615 367.265 157.752 367.417C157.889 367.568 157.957 367.753 157.957 367.973C157.957 368.193 157.889 368.376 157.752 368.522C157.615 368.669 157.415 368.742 157.151 368.742C156.888 368.742 156.688 368.669 156.551 368.522C156.419 368.376 156.353 368.193 156.353 367.973ZM162.608 376.162L164.571 370.075H165.955L163.113 378H162.081L159.209 370.075H160.594L162.608 376.162ZM170.445 378.146C169.371 378.146 168.497 377.795 167.823 377.092C167.149 376.384 166.812 375.439 166.812 374.257V374.008C166.812 373.222 166.961 372.521 167.259 371.906C167.562 371.286 167.981 370.803 168.519 370.456C169.061 370.104 169.646 369.929 170.276 369.929C171.307 369.929 172.107 370.268 172.679 370.947C173.25 371.625 173.536 372.597 173.536 373.862V374.426H168.167C168.187 375.207 168.414 375.839 168.848 376.323C169.288 376.801 169.844 377.041 170.518 377.041C170.997 377.041 171.402 376.943 171.734 376.748C172.066 376.552 172.356 376.293 172.605 375.971L173.433 376.616C172.769 377.636 171.773 378.146 170.445 378.146ZM170.276 371.042C169.729 371.042 169.271 371.242 168.899 371.643C168.528 372.038 168.299 372.595 168.211 373.312H172.181V373.21C172.142 372.521 171.956 371.989 171.624 371.613C171.292 371.232 170.843 371.042 170.276 371.042ZM179.725 375.898C179.725 375.532 179.585 375.249 179.307 375.048C179.034 374.843 178.553 374.667 177.864 374.521C177.181 374.375 176.636 374.199 176.231 373.994C175.831 373.789 175.533 373.544 175.337 373.261C175.147 372.978 175.052 372.641 175.052 372.25C175.052 371.601 175.325 371.052 175.872 370.603C176.424 370.153 177.127 369.929 177.981 369.929C178.88 369.929 179.607 370.161 180.164 370.625C180.726 371.088 181.006 371.682 181.006 372.404H179.644C179.644 372.033 179.485 371.713 179.168 371.445C178.855 371.176 178.46 371.042 177.981 371.042C177.488 371.042 177.103 371.149 176.824 371.364C176.546 371.579 176.407 371.86 176.407 372.207C176.407 372.534 176.536 372.78 176.795 372.946C177.054 373.112 177.52 373.271 178.194 373.422C178.873 373.574 179.422 373.754 179.842 373.964C180.262 374.174 180.572 374.428 180.772 374.726C180.977 375.019 181.08 375.378 181.08 375.803C181.08 376.511 180.796 377.08 180.23 377.509C179.664 377.934 178.929 378.146 178.025 378.146C177.391 378.146 176.829 378.034 176.341 377.81C175.853 377.585 175.469 377.272 175.191 376.872C174.917 376.467 174.781 376.03 174.781 375.561H176.136C176.16 376.015 176.341 376.376 176.678 376.645C177.02 376.909 177.469 377.041 178.025 377.041C178.538 377.041 178.948 376.938 179.256 376.733C179.568 376.523 179.725 376.245 179.725 375.898ZM188.404 368.156V370.075H189.883V371.123H188.404V376.037C188.404 376.354 188.47 376.594 188.602 376.755C188.733 376.911 188.958 376.989 189.275 376.989C189.432 376.989 189.646 376.96 189.92 376.901V378C189.563 378.098 189.217 378.146 188.88 378.146C188.274 378.146 187.818 377.963 187.51 377.597C187.203 377.231 187.049 376.711 187.049 376.037V371.123H185.606V370.075H187.049V368.156H188.404ZM192.828 371.035C193.428 370.297 194.209 369.929 195.171 369.929C196.846 369.929 197.691 370.874 197.706 372.763V378H196.351V372.756C196.346 372.185 196.214 371.762 195.955 371.489C195.701 371.215 195.303 371.079 194.761 371.079C194.322 371.079 193.936 371.196 193.604 371.43C193.272 371.665 193.013 371.972 192.828 372.353V378H191.473V366.75H192.828V371.035ZM203.023 378.146C201.949 378.146 201.075 377.795 200.401 377.092C199.727 376.384 199.39 375.439 199.39 374.257V374.008C199.39 373.222 199.539 372.521 199.837 371.906C200.14 371.286 200.56 370.803 201.097 370.456C201.639 370.104 202.225 369.929 202.854 369.929C203.885 369.929 204.686 370.268 205.257 370.947C205.828 371.625 206.114 372.597 206.114 373.862V374.426H200.745C200.765 375.207 200.992 375.839 201.426 376.323C201.866 376.801 202.422 377.041 203.096 377.041C203.575 377.041 203.98 376.943 204.312 376.748C204.644 376.552 204.935 376.293 205.184 375.971L206.011 376.616C205.347 377.636 204.351 378.146 203.023 378.146ZM202.854 371.042C202.308 371.042 201.849 371.242 201.478 371.643C201.106 372.038 200.877 372.595 200.789 373.312H204.759V373.21C204.72 372.521 204.534 371.989 204.202 371.613C203.87 371.232 203.421 371.042 202.854 371.042ZM212.691 370.075L212.735 371.071C213.34 370.31 214.131 369.929 215.108 369.929C216.783 369.929 217.627 370.874 217.642 372.763V378H216.287V372.756C216.282 372.185 216.15 371.762 215.892 371.489C215.638 371.215 215.24 371.079 214.698 371.079C214.258 371.079 213.873 371.196 213.541 371.43C213.208 371.665 212.95 371.972 212.764 372.353V378H211.409V370.075H212.691ZM222.974 378.146C221.9 378.146 221.026 377.795 220.352 377.092C219.678 376.384 219.341 375.439 219.341 374.257V374.008C219.341 373.222 219.49 372.521 219.788 371.906C220.091 371.286 220.511 370.803 221.048 370.456C221.59 370.104 222.176 369.929 222.806 369.929C223.836 369.929 224.637 370.268 225.208 370.947C225.779 371.625 226.065 372.597 226.065 373.862V374.426H220.696C220.716 375.207 220.943 375.839 221.377 376.323C221.817 376.801 222.374 377.041 223.047 377.041C223.526 377.041 223.931 376.943 224.263 376.748C224.595 376.552 224.886 376.293 225.135 375.971L225.962 376.616C225.298 377.636 224.302 378.146 222.974 378.146ZM222.806 371.042C222.259 371.042 221.8 371.242 221.429 371.643C221.058 372.038 220.828 372.595 220.74 373.312H224.71V373.21C224.671 372.521 224.485 371.989 224.153 371.613C223.821 371.232 223.372 371.042 222.806 371.042ZM230.928 378.146C229.854 378.146 228.98 377.795 228.306 377.092C227.632 376.384 227.295 375.439 227.295 374.257V374.008C227.295 373.222 227.444 372.521 227.742 371.906C228.045 371.286 228.465 370.803 229.002 370.456C229.544 370.104 230.13 369.929 230.76 369.929C231.79 369.929 232.591 370.268 233.162 370.947C233.733 371.625 234.019 372.597 234.019 373.862V374.426H228.65C228.67 375.207 228.897 375.839 229.332 376.323C229.771 376.801 230.328 377.041 231.001 377.041C231.48 377.041 231.885 376.943 232.217 376.748C232.549 376.552 232.84 376.293 233.089 375.971L233.917 376.616C233.252 377.636 232.256 378.146 230.928 378.146ZM230.76 371.042C230.213 371.042 229.754 371.242 229.383 371.643C229.012 372.038 228.782 372.595 228.694 373.312H232.664V373.21C232.625 372.521 232.439 371.989 232.107 371.613C231.775 371.232 231.326 371.042 230.76 371.042ZM235.264 373.972C235.264 372.756 235.552 371.779 236.128 371.042C236.705 370.3 237.459 369.929 238.392 369.929C239.319 369.929 240.054 370.246 240.596 370.881V366.75H241.951V378H240.706L240.64 377.15C240.098 377.814 239.344 378.146 238.377 378.146C237.459 378.146 236.709 377.771 236.128 377.019C235.552 376.267 235.264 375.285 235.264 374.074V373.972ZM236.619 374.125C236.619 375.024 236.805 375.727 237.176 376.235C237.547 376.743 238.06 376.997 238.714 376.997C239.573 376.997 240.201 376.611 240.596 375.839V372.199C240.191 371.452 239.568 371.079 238.729 371.079C238.064 371.079 237.547 371.335 237.176 371.848C236.805 372.36 236.619 373.12 236.619 374.125ZM248.448 378V371.123H247.195V370.075H248.448V369.262C248.448 368.413 248.675 367.756 249.129 367.292C249.583 366.828 250.225 366.596 251.055 366.596C251.368 366.596 251.678 366.638 251.985 366.721L251.912 367.819C251.683 367.775 251.438 367.753 251.18 367.753C250.74 367.753 250.401 367.883 250.162 368.142C249.922 368.396 249.803 368.762 249.803 369.24V370.075H251.495V371.123H249.803V378H248.448ZM252.637 373.964C252.637 373.188 252.789 372.49 253.091 371.87C253.399 371.25 253.824 370.771 254.366 370.434C254.913 370.097 255.535 369.929 256.233 369.929C257.312 369.929 258.184 370.302 258.848 371.049C259.517 371.796 259.852 372.79 259.852 374.03V374.125C259.852 374.897 259.703 375.59 259.405 376.206C259.112 376.816 258.689 377.292 258.138 377.634C257.591 377.976 256.961 378.146 256.248 378.146C255.174 378.146 254.302 377.773 253.633 377.026C252.969 376.279 252.637 375.29 252.637 374.06V373.964ZM254 374.125C254 375.004 254.202 375.71 254.607 376.242C255.018 376.774 255.564 377.041 256.248 377.041C256.937 377.041 257.483 376.772 257.889 376.235C258.294 375.693 258.497 374.936 258.497 373.964C258.497 373.095 258.289 372.392 257.874 371.855C257.464 371.313 256.917 371.042 256.233 371.042C255.564 371.042 255.025 371.308 254.615 371.84C254.205 372.373 254 373.134 254 374.125ZM265.381 371.291C265.176 371.257 264.954 371.24 264.715 371.24C263.826 371.24 263.223 371.618 262.906 372.375V378H261.551V370.075H262.869L262.891 370.991C263.335 370.283 263.965 369.929 264.781 369.929C265.044 369.929 265.245 369.963 265.381 370.031V371.291ZM271.827 378H270.472V370.075H271.827V378ZM270.362 367.973C270.362 367.753 270.428 367.568 270.56 367.417C270.696 367.265 270.896 367.189 271.16 367.189C271.424 367.189 271.624 367.265 271.761 367.417C271.897 367.568 271.966 367.753 271.966 367.973C271.966 368.193 271.897 368.376 271.761 368.522C271.624 368.669 271.424 368.742 271.16 368.742C270.896 368.742 270.696 368.669 270.56 368.522C270.428 368.376 270.362 368.193 270.362 367.973ZM275.284 370.075L275.328 371.071C275.933 370.31 276.724 369.929 277.701 369.929C279.375 369.929 280.22 370.874 280.235 372.763V378H278.88V372.756C278.875 372.185 278.743 371.762 278.484 371.489C278.23 371.215 277.833 371.079 277.291 371.079C276.851 371.079 276.465 371.196 276.133 371.43C275.801 371.665 275.542 371.972 275.357 372.353V378H274.002V370.075H275.284ZM283.56 370.075L283.604 371.071C284.209 370.31 285 369.929 285.977 369.929C287.652 369.929 288.497 370.874 288.511 372.763V378H287.156V372.756C287.151 372.185 287.02 371.762 286.761 371.489C286.507 371.215 286.109 371.079 285.567 371.079C285.127 371.079 284.742 371.196 284.41 371.43C284.078 371.665 283.819 371.972 283.633 372.353V378H282.278V370.075H283.56ZM290.196 373.964C290.196 373.188 290.347 372.49 290.65 371.87C290.958 371.25 291.382 370.771 291.924 370.434C292.471 370.097 293.094 369.929 293.792 369.929C294.871 369.929 295.743 370.302 296.407 371.049C297.076 371.796 297.41 372.79 297.41 374.03V374.125C297.41 374.897 297.261 375.59 296.963 376.206C296.67 376.816 296.248 377.292 295.696 377.634C295.149 377.976 294.52 378.146 293.807 378.146C292.732 378.146 291.861 377.773 291.192 377.026C290.528 376.279 290.196 375.29 290.196 374.06V373.964ZM291.558 374.125C291.558 375.004 291.761 375.71 292.166 376.242C292.576 376.774 293.123 377.041 293.807 377.041C294.495 377.041 295.042 376.772 295.447 376.235C295.853 375.693 296.055 374.936 296.055 373.964C296.055 373.095 295.848 372.392 295.433 371.855C295.022 371.313 294.476 371.042 293.792 371.042C293.123 371.042 292.583 371.308 292.173 371.84C291.763 372.373 291.558 373.134 291.558 374.125ZM301.607 376.162L303.57 370.075H304.954L302.112 378H301.08L298.208 370.075H299.593L301.607 376.162ZM311.033 378C310.955 377.844 310.892 377.565 310.843 377.165C310.213 377.819 309.461 378.146 308.587 378.146C307.806 378.146 307.164 377.927 306.661 377.487C306.163 377.043 305.914 376.481 305.914 375.803C305.914 374.978 306.226 374.338 306.851 373.884C307.481 373.425 308.365 373.195 309.502 373.195H310.821V372.573C310.821 372.099 310.679 371.723 310.396 371.445C310.113 371.162 309.695 371.02 309.144 371.02C308.66 371.02 308.255 371.142 307.928 371.386C307.601 371.63 307.437 371.926 307.437 372.272H306.075C306.075 371.877 306.214 371.496 306.492 371.13C306.775 370.759 307.156 370.466 307.635 370.251C308.118 370.036 308.648 369.929 309.224 369.929C310.137 369.929 310.853 370.158 311.37 370.617C311.888 371.071 312.156 371.699 312.176 372.5V376.147C312.176 376.875 312.269 377.453 312.454 377.883V378H311.033ZM308.785 376.967C309.209 376.967 309.612 376.857 309.993 376.638C310.374 376.418 310.65 376.132 310.821 375.781V374.155H309.759C308.099 374.155 307.269 374.641 307.269 375.612C307.269 376.037 307.41 376.369 307.693 376.608C307.977 376.848 308.34 376.967 308.785 376.967ZM316.138 368.156V370.075H317.618V371.123H316.138V376.037C316.138 376.354 316.204 376.594 316.336 376.755C316.468 376.911 316.692 376.989 317.01 376.989C317.166 376.989 317.381 376.96 317.654 376.901V378C317.298 378.098 316.951 378.146 316.614 378.146C316.009 378.146 315.552 377.963 315.245 377.597C314.937 377.231 314.783 376.711 314.783 376.037V371.123H313.34V370.075H314.783V368.156H316.138ZM320.679 378H319.324V370.075H320.679V378ZM319.214 367.973C319.214 367.753 319.28 367.568 319.412 367.417C319.549 367.265 319.749 367.189 320.013 367.189C320.276 367.189 320.477 367.265 320.613 367.417C320.75 367.568 320.818 367.753 320.818 367.973C320.818 368.193 320.75 368.376 320.613 368.522C320.477 368.669 320.276 368.742 320.013 368.742C319.749 368.742 319.549 368.669 319.412 368.522C319.28 368.376 319.214 368.193 319.214 367.973ZM325.469 376.162L327.432 370.075H328.816L325.975 378H324.942L322.071 370.075H323.455L325.469 376.162ZM333.306 378.146C332.232 378.146 331.358 377.795 330.684 377.092C330.01 376.384 329.673 375.439 329.673 374.257V374.008C329.673 373.222 329.822 372.521 330.12 371.906C330.423 371.286 330.843 370.803 331.38 370.456C331.922 370.104 332.508 369.929 333.138 369.929C334.168 369.929 334.969 370.268 335.54 370.947C336.111 371.625 336.397 372.597 336.397 373.862V374.426H331.028C331.048 375.207 331.275 375.839 331.709 376.323C332.149 376.801 332.706 377.041 333.379 377.041C333.858 377.041 334.263 376.943 334.595 376.748C334.927 376.552 335.218 376.293 335.467 375.971L336.294 376.616C335.63 377.636 334.634 378.146 333.306 378.146ZM333.138 371.042C332.591 371.042 332.132 371.242 331.761 371.643C331.39 372.038 331.16 372.595 331.072 373.312H335.042V373.21C335.003 372.521 334.817 371.989 334.485 371.613C334.153 371.232 333.704 371.042 333.138 371.042ZM346.307 375.898C346.307 375.532 346.167 375.249 345.889 375.048C345.616 374.843 345.135 374.667 344.446 374.521C343.763 374.375 343.218 374.199 342.813 373.994C342.413 373.789 342.115 373.544 341.919 373.261C341.729 372.978 341.634 372.641 341.634 372.25C341.634 371.601 341.907 371.052 342.454 370.603C343.006 370.153 343.709 369.929 344.563 369.929C345.462 369.929 346.189 370.161 346.746 370.625C347.308 371.088 347.588 371.682 347.588 372.404H346.226C346.226 372.033 346.067 371.713 345.75 371.445C345.438 371.176 345.042 371.042 344.563 371.042C344.07 371.042 343.685 371.149 343.406 371.364C343.128 371.579 342.989 371.86 342.989 372.207C342.989 372.534 343.118 372.78 343.377 372.946C343.636 373.112 344.102 373.271 344.776 373.422C345.455 373.574 346.004 373.754 346.424 373.964C346.844 374.174 347.154 374.428 347.354 374.726C347.559 375.019 347.662 375.378 347.662 375.803C347.662 376.511 347.378 377.08 346.812 377.509C346.246 377.934 345.511 378.146 344.607 378.146C343.973 378.146 343.411 378.034 342.923 377.81C342.435 377.585 342.051 377.272 341.773 376.872C341.5 376.467 341.363 376.03 341.363 375.561H342.718C342.742 376.015 342.923 376.376 343.26 376.645C343.602 376.909 344.051 377.041 344.607 377.041C345.12 377.041 345.53 376.938 345.838 376.733C346.15 376.523 346.307 376.245 346.307 375.898ZM349.068 373.964C349.068 373.188 349.219 372.49 349.522 371.87C349.83 371.25 350.254 370.771 350.796 370.434C351.343 370.097 351.966 369.929 352.664 369.929C353.743 369.929 354.615 370.302 355.279 371.049C355.948 371.796 356.282 372.79 356.282 374.03V374.125C356.282 374.897 356.133 375.59 355.835 376.206C355.542 376.816 355.12 377.292 354.568 377.634C354.021 377.976 353.392 378.146 352.679 378.146C351.604 378.146 350.733 377.773 350.064 377.026C349.4 376.279 349.068 375.29 349.068 374.06V373.964ZM350.43 374.125C350.43 375.004 350.633 375.71 351.038 376.242C351.448 376.774 351.995 377.041 352.679 377.041C353.367 377.041 353.914 376.772 354.319 376.235C354.725 375.693 354.927 374.936 354.927 373.964C354.927 373.095 354.72 372.392 354.305 371.855C353.895 371.313 353.348 371.042 352.664 371.042C351.995 371.042 351.456 371.308 351.045 371.84C350.635 372.373 350.43 373.134 350.43 374.125ZM359.454 378H358.099V366.75H359.454V378ZM366.521 377.216C365.994 377.836 365.22 378.146 364.2 378.146C363.355 378.146 362.71 377.902 362.266 377.414C361.827 376.921 361.604 376.193 361.6 375.231V370.075H362.955V375.195C362.955 376.396 363.443 376.997 364.419 376.997C365.455 376.997 366.143 376.611 366.485 375.839V370.075H367.84V378H366.551L366.521 377.216ZM371.744 368.156V370.075H373.223V371.123H371.744V376.037C371.744 376.354 371.81 376.594 371.941 376.755C372.073 376.911 372.298 376.989 372.615 376.989C372.771 376.989 372.986 376.96 373.26 376.901V378C372.903 378.098 372.557 378.146 372.22 378.146C371.614 378.146 371.158 377.963 370.85 377.597C370.542 377.231 370.389 376.711 370.389 376.037V371.123H368.946V370.075H370.389V368.156H371.744ZM376.285 378H374.93V370.075H376.285V378ZM374.82 367.973C374.82 367.753 374.886 367.568 375.018 367.417C375.154 367.265 375.354 367.189 375.618 367.189C375.882 367.189 376.082 367.265 376.219 367.417C376.355 367.568 376.424 367.753 376.424 367.973C376.424 368.193 376.355 368.376 376.219 368.522C376.082 368.669 375.882 368.742 375.618 368.742C375.354 368.742 375.154 368.669 375.018 368.522C374.886 368.376 374.82 368.193 374.82 367.973ZM378.101 373.964C378.101 373.188 378.252 372.49 378.555 371.87C378.863 371.25 379.288 370.771 379.83 370.434C380.376 370.097 380.999 369.929 381.697 369.929C382.776 369.929 383.648 370.302 384.312 371.049C384.981 371.796 385.315 372.79 385.315 374.03V374.125C385.315 374.897 385.167 375.59 384.869 376.206C384.576 376.816 384.153 377.292 383.602 377.634C383.055 377.976 382.425 378.146 381.712 378.146C380.638 378.146 379.766 377.773 379.097 377.026C378.433 376.279 378.101 375.29 378.101 374.06V373.964ZM379.463 374.125C379.463 375.004 379.666 375.71 380.071 376.242C380.481 376.774 381.028 377.041 381.712 377.041C382.4 377.041 382.947 376.772 383.353 376.235C383.758 375.693 383.96 374.936 383.96 373.964C383.96 373.095 383.753 372.392 383.338 371.855C382.928 371.313 382.381 371.042 381.697 371.042C381.028 371.042 380.489 371.308 380.079 371.84C379.668 372.373 379.463 373.134 379.463 374.125ZM388.296 370.075L388.34 371.071C388.946 370.31 389.737 369.929 390.713 369.929C392.388 369.929 393.233 370.874 393.248 372.763V378H391.893V372.756C391.888 372.185 391.756 371.762 391.497 371.489C391.243 371.215 390.845 371.079 390.303 371.079C389.864 371.079 389.478 371.196 389.146 371.43C388.814 371.665 388.555 371.972 388.37 372.353V378H387.015V370.075H388.296ZM399.905 375.898C399.905 375.532 399.766 375.249 399.488 375.048C399.214 374.843 398.733 374.667 398.045 374.521C397.361 374.375 396.817 374.199 396.412 373.994C396.011 373.789 395.713 373.544 395.518 373.261C395.328 372.978 395.232 372.641 395.232 372.25C395.232 371.601 395.506 371.052 396.053 370.603C396.604 370.153 397.308 369.929 398.162 369.929C399.061 369.929 399.788 370.161 400.345 370.625C400.906 371.088 401.187 371.682 401.187 372.404H399.825C399.825 372.033 399.666 371.713 399.349 371.445C399.036 371.176 398.641 371.042 398.162 371.042C397.669 371.042 397.283 371.149 397.005 371.364C396.727 371.579 396.587 371.86 396.587 372.207C396.587 372.534 396.717 372.78 396.976 372.946C397.234 373.112 397.701 373.271 398.375 373.422C399.053 373.574 399.603 373.754 400.022 373.964C400.442 374.174 400.752 374.428 400.953 374.726C401.158 375.019 401.26 375.378 401.26 375.803C401.26 376.511 400.977 377.08 400.411 377.509C399.844 377.934 399.109 378.146 398.206 378.146C397.571 378.146 397.01 378.034 396.521 377.81C396.033 377.585 395.65 377.272 395.372 376.872C395.098 376.467 394.961 376.03 394.961 375.561H396.316C396.341 376.015 396.521 376.376 396.858 376.645C397.2 376.909 397.649 377.041 398.206 377.041C398.719 377.041 399.129 376.938 399.437 376.733C399.749 376.523 399.905 376.245 399.905 375.898Z" fill="#15589A"/>
<path d="M28.6134 329.297H25.7829V320.281L23 321.091V318.947L28.3561 317.098H28.6134V329.297Z" fill="#454545"/>
<path d="M37.8486 324.579C37.2386 325.123 36.562 325.399 35.8091 325.399C34.7036 325.399 33.8268 325.027 33.1787 324.274C32.5306 323.521 32.2065 322.53 32.2065 321.272C32.2065 320.491 32.3877 319.766 32.7499 319.09C33.112 318.413 33.6265 317.889 34.2746 317.498C34.9227 317.107 35.6566 316.907 36.4476 316.907C37.2482 316.907 37.9821 317.107 38.6301 317.517C39.2782 317.927 39.7834 318.499 40.1456 319.233C40.5078 319.976 40.6982 320.824 40.7077 321.796V322.873C40.7077 324.217 40.4411 325.389 39.9169 326.371C39.3927 327.353 38.6397 328.115 37.658 328.649C36.6764 329.183 35.5424 329.44 34.2367 329.44H34.065V327.181L34.5987 327.172C36.5525 327.105 37.6389 326.228 37.8486 324.579ZM36.5716 323.369C37.1816 323.369 37.6294 323.102 37.8963 322.578V321.406C37.8963 320.624 37.7629 320.043 37.5056 319.671C37.2483 319.299 36.886 319.109 36.4381 319.109C36.0378 319.109 35.7139 319.318 35.4375 319.747C35.1612 320.176 35.0371 320.681 35.0371 321.291C35.0371 321.93 35.1707 322.435 35.4471 322.807C35.7235 323.178 36.0951 323.369 36.5716 323.369Z" fill="#454545"/>
<path d="M42.3946 323.34L43.1381 317.098H50.2669V319.29H45.4351L45.1586 321.71C45.3588 321.596 45.6255 321.491 45.9495 321.396C46.2736 321.31 46.5976 321.263 46.9121 321.263C48.1225 321.263 49.0567 321.625 49.7048 322.339C50.3528 323.054 50.6769 324.064 50.6769 325.361C50.6769 326.142 50.5053 326.847 50.1527 327.486C49.8 328.125 49.3139 328.611 48.6849 328.944C48.0559 329.278 47.3124 329.459 46.4451 329.459C45.6827 329.459 44.9584 329.297 44.2912 328.982C43.6241 328.668 43.1 328.239 42.7188 327.686C42.3375 327.133 42.1564 326.514 42.1564 325.828H44.9869C45.0155 326.276 45.1587 326.628 45.416 326.886C45.6733 327.143 46.0067 327.276 46.4261 327.276C47.3791 327.276 47.8461 326.571 47.8461 325.17C47.8461 323.874 47.2649 323.226 46.1022 323.226C45.4446 323.226 44.9489 323.435 44.6249 323.864L42.3946 323.34Z" fill="#454545"/>
<path d="M60.6267 324.312C60.6267 325.961 60.2548 327.228 59.521 328.124C58.7776 329.02 57.739 329.468 56.3951 329.468C55.0418 329.468 53.9839 329.02 53.25 328.115C52.5161 327.209 52.1348 325.951 52.1348 324.312V322.082C52.1348 320.433 52.5066 319.165 53.25 318.27C53.9934 317.374 55.0323 316.926 56.3856 316.926C57.7389 316.926 58.7871 317.374 59.5305 318.279C60.2739 319.185 60.6457 320.452 60.6457 322.091V324.312H60.6267ZM57.8056 321.729C57.8056 320.852 57.6912 320.195 57.4624 319.766C57.2337 319.337 56.8717 319.118 56.3761 319.118C55.89 319.118 55.5373 319.318 55.3181 319.718C55.0989 320.119 54.9751 320.728 54.9656 321.548V324.665C54.9656 325.58 55.0798 326.237 55.3085 326.666C55.5373 327.085 55.8996 327.295 56.3951 327.295C56.8717 327.295 57.2337 327.095 57.4624 326.676C57.6912 326.266 57.8057 325.618 57.8152 324.741V321.729H57.8056Z" fill="#454545"/>
<path d="M167.768 329.296H159.257V327.456L163.174 323.339C164.137 322.243 164.623 321.366 164.623 320.718C164.623 320.194 164.509 319.794 164.28 319.517C164.051 319.241 163.718 319.108 163.279 319.108C162.85 319.108 162.498 319.289 162.231 319.66C161.964 320.022 161.831 320.48 161.831 321.033H159C159 320.28 159.19 319.594 159.562 318.955C159.934 318.326 160.458 317.83 161.116 317.468C161.773 317.106 162.526 316.935 163.346 316.935C164.661 316.935 165.681 317.24 166.386 317.849C167.091 318.459 167.454 319.336 167.454 320.47C167.454 320.947 167.368 321.423 167.187 321.871C167.006 322.329 166.729 322.805 166.348 323.301C165.967 323.797 165.366 324.473 164.528 325.302L162.955 327.123H167.759V329.296H167.768Z" fill="#454545"/>
<path d="M177.661 324.312C177.661 325.961 177.289 327.228 176.546 328.124C175.802 329.02 174.764 329.468 173.42 329.468C172.066 329.468 171.008 329.02 170.275 328.115C169.541 327.209 169.16 325.951 169.16 324.312V322.082C169.16 320.433 169.531 319.165 170.265 318.27C170.999 317.374 172.047 316.926 173.401 316.926C174.754 316.926 175.802 317.374 176.546 318.279C177.289 319.185 177.661 320.452 177.661 322.091V324.312ZM174.84 321.729C174.84 320.852 174.725 320.195 174.497 319.766C174.268 319.337 173.906 319.118 173.41 319.118C172.924 319.118 172.572 319.318 172.352 319.718C172.133 320.119 172.009 320.728 172 321.548V324.665C172 325.58 172.114 326.237 172.343 326.666C172.572 327.085 172.934 327.295 173.429 327.295C173.906 327.295 174.268 327.095 174.497 326.676C174.725 326.266 174.84 325.618 174.849 324.741V321.729H174.84Z" fill="#454545"/>
<path d="M187.63 329.296H179.119V327.456L183.036 323.339C183.999 322.243 184.485 321.366 184.485 320.718C184.485 320.194 184.37 319.794 184.142 319.517C183.913 319.241 183.579 319.108 183.141 319.108C182.712 319.108 182.36 319.289 182.093 319.66C181.826 320.022 181.692 320.48 181.692 321.033H178.862C178.862 320.28 179.052 319.594 179.424 318.955C179.796 318.326 180.32 317.83 180.978 317.468C181.635 317.106 182.388 316.935 183.208 316.935C184.523 316.935 185.543 317.24 186.248 317.849C186.953 318.459 187.315 319.336 187.315 320.47C187.315 320.947 187.23 321.423 187.049 321.871C186.867 322.329 186.591 322.805 186.21 323.301C185.829 323.797 185.228 324.473 184.389 325.302L182.817 327.123H187.62V329.296H187.63Z" fill="#454545"/>
<path d="M197.523 324.312C197.523 325.961 197.151 327.228 196.417 328.124C195.674 329.02 194.635 329.468 193.291 329.468C191.938 329.468 190.88 329.02 190.146 328.115C189.412 327.209 189.031 325.951 189.031 324.312V322.082C189.031 320.433 189.403 319.165 190.146 318.27C190.889 317.374 191.928 316.926 193.281 316.926C194.635 316.926 195.683 317.374 196.427 318.279C197.17 319.185 197.542 320.452 197.542 322.091V324.312H197.523ZM194.702 321.729C194.702 320.852 194.587 320.195 194.358 319.766C194.13 319.337 193.768 319.118 193.272 319.118C192.786 319.118 192.433 319.318 192.214 319.718C191.995 320.119 191.871 320.728 191.861 321.548V324.665C191.861 325.58 191.976 326.237 192.204 326.666C192.433 327.085 192.795 327.295 193.291 327.295C193.768 327.295 194.13 327.095 194.358 326.676C194.587 326.266 194.702 325.618 194.711 324.741V321.729H194.702Z" fill="#454545"/>
<path d="M328.759 329.296H320.248V327.456L324.165 323.339C325.127 322.243 325.613 321.366 325.613 320.718C325.613 320.194 325.499 319.794 325.27 319.517C325.042 319.241 324.708 319.108 324.279 319.108C323.85 319.108 323.498 319.289 323.231 319.66C322.964 320.022 322.831 320.48 322.831 321.033H320C320 320.28 320.19 319.594 320.562 318.955C320.934 318.326 321.458 317.83 322.116 317.468C322.773 317.106 323.526 316.935 324.346 316.935C325.661 316.935 326.681 317.24 327.386 317.849C328.091 318.459 328.454 319.336 328.454 320.47C328.454 320.947 328.368 321.423 328.187 321.871C328.006 322.329 327.729 322.805 327.358 323.301C326.986 323.797 326.376 324.473 325.537 325.302L323.965 327.123H328.768V329.296H328.759Z" fill="#454545"/>
<path d="M336.44 329.296H333.61V320.28L330.827 321.09V318.946L336.183 317.097H336.44V329.296Z" fill="#454545"/>
<path d="M348.582 324.312C348.582 325.961 348.21 327.228 347.467 328.124C346.724 329.02 345.685 329.468 344.341 329.468C342.988 329.468 341.93 329.02 341.196 328.115C340.462 327.209 340.081 325.951 340.081 324.312V322.082C340.081 320.433 340.453 319.165 341.196 318.27C341.939 317.374 342.978 316.926 344.332 316.926C345.685 316.926 346.733 317.374 347.467 318.279C348.201 319.185 348.582 320.452 348.582 322.091V324.312ZM345.761 321.729C345.761 320.852 345.647 320.195 345.418 319.766C345.189 319.337 344.827 319.118 344.332 319.118C343.846 319.118 343.493 319.318 343.274 319.718C343.054 320.119 342.931 320.728 342.921 321.548V324.665C342.921 325.58 343.035 326.237 343.264 326.666C343.493 327.085 343.855 327.295 344.351 327.295C344.827 327.295 345.189 327.095 345.418 326.676C345.647 326.266 345.761 325.618 345.771 324.741V321.729H345.761Z" fill="#454545"/>
<path d="M358.513 324.312C358.513 325.961 358.141 327.228 357.408 328.124C356.664 329.02 355.625 329.468 354.282 329.468C352.928 329.468 351.87 329.02 351.136 328.115C350.403 327.209 350.021 325.951 350.021 324.312V322.082C350.021 320.433 350.393 319.165 351.136 318.27C351.88 317.374 352.919 316.926 354.272 316.926C355.625 316.926 356.674 317.374 357.408 318.279C358.141 319.185 358.523 320.452 358.523 322.091V324.312H358.513ZM355.692 321.729C355.692 320.852 355.578 320.195 355.349 319.766C355.12 319.337 354.758 319.118 354.262 319.118C353.776 319.118 353.424 319.318 353.204 319.718C352.985 320.119 352.861 320.728 352.842 321.548V324.665C352.842 325.58 352.957 326.237 353.185 326.666C353.414 327.085 353.776 327.295 354.272 327.295C354.748 327.295 355.111 327.095 355.339 326.676C355.568 326.266 355.682 325.618 355.692 324.741V321.729Z" fill="#454545"/>
<path d="M0 304.409H401.62" stroke="#333333" stroke-miterlimit="10"/>
<path d="M41.8521 267.062V300.674" stroke="#333333" stroke-miterlimit="10" stroke-dasharray="5 5"/>
<path d="M178.788 107.72V301.297" stroke="#333333" stroke-miterlimit="10" stroke-dasharray="5 5"/>
<path d="M341.866 17.9766V301.297" stroke="#333333" stroke-miterlimit="10" stroke-dasharray="5 5"/>
<path d="M16.0593 279.616H7.70062V278.187L11.841 273.667C12.4436 272.997 12.8616 272.443 13.1143 271.996C13.367 271.549 13.4933 271.102 13.4933 270.654C13.4933 270.062 13.328 269.585 12.9976 269.216C12.6671 268.847 12.2201 268.672 11.6564 268.672C10.9858 268.672 10.4609 268.876 10.0915 269.284C9.72219 269.692 9.53746 270.256 9.53746 270.965H7.45764C7.45764 270.207 7.63262 269.527 7.97279 268.915C8.31296 268.312 8.80866 267.836 9.45013 267.505C10.0916 267.175 10.8303 267 11.6662 267C12.8713 267 13.8238 267.301 14.5236 267.914C15.2233 268.516 15.5733 269.362 15.5733 270.431C15.5733 271.053 15.3983 271.704 15.0484 272.384C14.6985 273.065 14.1251 273.842 13.3281 274.707L10.2859 277.963H16.0593V279.616Z" fill="#454545"/>
<path d="M19.0624 277.43C19.4511 277.43 19.7526 277.537 19.9567 277.76C20.1705 277.984 20.2773 278.256 20.2773 278.586C20.2773 278.907 20.1705 279.179 19.9567 279.393C19.7429 279.607 19.4511 279.714 19.0624 279.714C18.693 279.714 18.4015 279.607 18.178 279.393C17.9544 279.179 17.8572 278.907 17.8572 278.586C17.8572 278.266 17.9642 277.984 18.178 277.76C18.3821 277.537 18.6833 277.43 19.0624 277.43Z" fill="#454545"/>
<path d="M23.0764 273.454L23.747 267.186H30.424V268.984H25.4673L25.1271 271.958C25.7005 271.627 26.3517 271.462 27.0709 271.462C28.2567 271.462 29.1801 271.841 29.8313 272.599C30.4825 273.357 30.8227 274.378 30.8227 275.661C30.8227 276.924 30.4532 277.935 29.734 278.683C29.005 279.432 28.0041 279.811 26.7406 279.811C25.6035 279.811 24.6606 279.49 23.9122 278.839C23.1638 278.197 22.7556 277.342 22.6973 276.283H24.7092C24.787 276.885 25.0007 277.352 25.3603 277.673C25.7199 277.993 26.1769 278.159 26.7406 278.159C27.3821 278.159 27.8778 277.935 28.2277 277.478C28.5776 277.021 28.7621 276.399 28.7621 275.612C28.7621 274.854 28.5678 274.251 28.1693 273.814C27.7708 273.377 27.2361 273.153 26.546 273.153C26.167 273.153 25.856 273.202 25.5936 273.299C25.3312 273.396 25.0494 273.591 24.7384 273.882L23.0764 273.454Z" fill="#454545"/>
<path d="M211.105 109.498L204.731 123.951H201.943L208.304 110.158H200.063V108.029H211.105V109.498Z" fill="#454545"/>
<path d="M215.064 121.15C215.562 121.15 215.948 121.287 216.209 121.574C216.483 121.86 216.62 122.209 216.62 122.632C216.62 123.043 216.483 123.391 216.209 123.665C215.935 123.939 215.562 124.076 215.064 124.076C214.591 124.076 214.217 123.939 213.931 123.665C213.644 123.391 213.52 123.043 213.52 122.632C213.52 122.221 213.657 121.86 213.931 121.574C214.205 121.287 214.578 121.15 215.064 121.15Z" fill="#454545"/>
<path d="M229.529 112.225C229.529 113.009 229.33 113.706 228.932 114.304C228.533 114.914 227.986 115.399 227.289 115.748C228.123 116.134 228.757 116.669 229.205 117.329C229.654 118.001 229.878 118.761 229.878 119.607C229.878 121.001 229.405 122.122 228.459 122.943C227.513 123.765 226.243 124.176 224.674 124.176C223.093 124.176 221.823 123.765 220.877 122.943C219.919 122.122 219.446 121.014 219.446 119.619C219.446 118.761 219.67 118.001 220.118 117.316C220.566 116.632 221.201 116.121 222.022 115.748C221.338 115.399 220.79 114.914 220.392 114.304C219.994 113.694 219.794 112.997 219.794 112.225C219.794 110.868 220.23 109.797 221.101 109.001C221.973 108.204 223.155 107.806 224.649 107.806C226.143 107.806 227.326 108.204 228.21 109.001C229.094 109.797 229.529 110.868 229.529 112.225ZM227.226 119.483C227.226 118.698 226.99 118.063 226.517 117.578C226.044 117.092 225.421 116.856 224.649 116.856C223.877 116.856 223.255 117.092 222.794 117.578C222.334 118.063 222.097 118.698 222.097 119.495C222.097 120.279 222.321 120.902 222.782 121.362C223.243 121.835 223.865 122.059 224.674 122.059C225.483 122.059 226.106 121.835 226.554 121.387C227.002 120.914 227.226 120.292 227.226 119.483ZM226.89 112.325C226.89 111.627 226.691 111.067 226.293 110.607C225.894 110.158 225.346 109.934 224.674 109.934C224.002 109.934 223.454 110.146 223.068 110.569C222.67 110.993 222.483 111.578 222.483 112.312C222.483 113.047 222.682 113.619 223.081 114.055C223.479 114.491 224.014 114.702 224.699 114.702C225.384 114.702 225.919 114.491 226.318 114.055C226.691 113.632 226.89 113.047 226.89 112.325Z" fill="#454545"/>
<path d="M366.408 10.8579H364.627V2.25863L362 3.15369V1.65635L366.174 0.117188H366.4V10.8579H366.408Z" fill="#454545"/>
<path d="M377.107 6.34905C377.107 7.88821 376.823 9.05095 376.246 9.8289C375.668 10.6152 374.79 11 373.619 11C372.465 11 371.595 10.6152 371.009 9.854C370.423 9.09278 370.122 7.9635 370.106 6.46616V4.6175C370.106 3.07833 370.39 1.92395 370.967 1.15436C371.545 0.384782 372.423 0 373.602 0C374.773 0 375.652 0.376423 376.221 1.12091C376.789 1.8654 377.09 2.99467 377.107 4.49201V6.34905ZM375.317 4.34981C375.317 3.34601 375.183 2.60989 374.907 2.14144C374.631 1.673 374.196 1.43878 373.602 1.43878C373.017 1.43878 372.59 1.66464 372.314 2.10799C372.038 2.55134 371.896 3.24563 371.879 4.18251V6.60836C371.879 7.61217 372.021 8.35665 372.297 8.84182C372.573 9.32699 373.017 9.57795 373.611 9.57795C374.188 9.57795 374.606 9.3521 374.882 8.90038C375.158 8.44867 375.3 7.73764 375.317 6.77566V4.34981Z" fill="#454545"/>
<path d="M379.909 8.97656C380.244 8.97656 380.503 9.06857 380.679 9.26097C380.863 9.45337 380.955 9.68759 380.955 9.972C380.955 10.248 380.863 10.4823 380.679 10.6663C380.495 10.8503 380.244 10.9423 379.909 10.9423C379.592 10.9423 379.341 10.8503 379.148 10.6663C378.956 10.4823 378.872 10.248 378.872 9.972C378.872 9.69596 378.964 9.45337 379.148 9.26097C379.332 9.06857 379.583 8.97656 379.909 8.97656Z" fill="#454545"/>
<path d="M387.956 6.38196C387.363 7.0177 386.66 7.32721 385.865 7.32721C384.928 7.32721 384.176 7.00098 383.615 6.34014C383.055 5.6793 382.779 4.81771 382.779 3.73862C382.779 3.03596 382.921 2.39184 383.205 1.82302C383.49 1.2542 383.891 0.802496 384.418 0.484625C384.945 0.166754 385.548 0.0078125 386.242 0.0078125C387.321 0.0078125 388.174 0.409336 388.81 1.21238C389.445 2.01542 389.755 3.09451 389.755 4.44128V4.94318C389.755 6.8755 389.32 8.34775 388.45 9.35991C387.58 10.3721 386.275 10.8907 384.544 10.9074H384.335V9.42684H384.594C385.648 9.41011 386.459 9.15915 387.02 8.66562C387.572 8.17208 387.89 7.41085 387.956 6.38196ZM386.233 5.93025C386.593 5.93025 386.928 5.82987 387.237 5.62075C387.547 5.41162 387.798 5.12721 387.965 4.76751V4.07321C387.965 3.2869 387.806 2.65116 387.48 2.16599C387.154 1.68082 386.735 1.4466 386.225 1.4466C385.715 1.4466 385.297 1.65572 384.995 2.08233C384.686 2.50895 384.535 3.04432 384.535 3.68843C384.535 4.35763 384.686 4.90135 384.995 5.31123C385.305 5.72112 385.723 5.93025 386.233 5.93025Z" fill="#454545"/>
<path d="M42.4745 273.91C50.2798 267.76 58.0977 261.237 65.9155 254.29C116.93 208.977 152.77 159.045 178.165 113.321" stroke="#2A9FD9" stroke-width="5" stroke-miterlimit="10"/>
<path d="M177.543 113.944C187.913 97.0883 207.631 69.9252 241.031 46.7209C281.502 18.5992 321.276 10.7317 341.866 8.12988" stroke="#2A9FD9" stroke-width="5" stroke-miterlimit="10" stroke-dasharray="12 12"/>
<path d="M178.788 121.413C182.913 121.413 186.257 118.069 186.257 113.944C186.257 109.819 182.913 106.475 178.788 106.475C174.663 106.475 171.319 109.819 171.319 113.944C171.319 118.069 174.663 121.413 178.788 121.413Z" fill="white" stroke="#2A9FD9" stroke-width="2" stroke-miterlimit="10"/>
<path d="M342.488 10.6199C344.207 10.6199 345.6 9.22649 345.6 7.50768C345.6 5.78888 344.207 4.39551 342.488 4.39551C340.769 4.39551 339.376 5.78888 339.376 7.50768C339.376 9.22649 340.769 10.6199 342.488 10.6199Z" fill="#2A9FD9"/>
</svg>
