<svg width="442" height="315" viewBox="0 0 442 315" fill="none" xmlns="http://www.w3.org/2000/svg">
<line x1="71.5" y1="245" x2="71.5" y2="271" stroke="#454545"/>
<line x1="204.5" y1="219" x2="204.5" y2="298" stroke="#454545"/>
<line x1="76.5" y1="219" x2="76.5" y2="298" stroke="#454545"/>
<line x1="346.5" y1="148" x2="346.5" y2="298" stroke="#454545"/>
<path d="M77.3904 275.258C111.295 275.258 138.781 247.763 138.781 213.846C138.781 179.929 111.295 152.434 77.3904 152.434C43.4854 152.434 16 179.929 16 213.846C16 247.763 43.4854 275.258 77.3904 275.258Z" fill="#2A9FD9"/>
<path d="M57.1533 177.042H55.9364L52.812 172.063V177.042H51.5952V170.023H52.812L55.9473 175.024V170.023H57.1533V177.042Z" fill="white"/>
<path d="M61.6369 176.538C61.2971 176.943 60.8038 177.141 60.168 177.141C59.5979 177.141 59.1703 176.976 58.8853 176.647C58.5893 176.318 58.4468 175.836 58.4468 175.211V171.833H59.6198V175.2C59.6198 175.858 59.8939 176.198 60.442 176.198C61.0121 176.198 61.3957 175.989 61.593 175.584V171.833H62.7661V177.042H61.6589L61.6369 176.538Z" fill="white"/>
<path d="M65.0572 171.833L65.0901 172.381C65.4519 171.953 65.9562 171.745 66.592 171.745C67.2936 171.745 67.7649 172.008 68.0171 172.546C68.4007 172.008 68.927 171.745 69.6177 171.745C70.1877 171.745 70.6262 171.91 70.9002 172.217C71.1852 172.535 71.3278 173.006 71.3278 173.62V177.042H70.1548V173.653C70.1548 173.324 70.078 173.083 69.9355 172.93C69.793 172.776 69.5519 172.699 69.223 172.699C68.9599 172.699 68.7406 172.776 68.5652 172.919C68.4007 173.061 68.2802 173.248 68.2144 173.478V177.053H67.0415V173.62C67.0305 173.006 66.7125 172.699 66.0986 172.699C65.6272 172.699 65.2984 172.886 65.1011 173.269V177.053H63.928V171.844H65.0572V171.833Z" fill="white"/>
<path d="M77.1161 174.487C77.1161 175.299 76.9297 175.946 76.5789 176.417C76.2171 176.9 75.7238 177.13 75.088 177.13C74.4741 177.13 74.0027 176.911 73.6628 176.472L73.6081 177.031H72.5446V169.629H73.7177V172.316C74.0575 171.921 74.507 171.724 75.077 171.724C75.7129 171.724 76.2171 171.965 76.5789 172.436C76.9407 172.908 77.127 173.566 77.127 174.421V174.487H77.1161ZM75.954 174.388C75.954 173.829 75.8554 173.401 75.6581 173.116C75.4608 172.831 75.1647 172.689 74.792 172.689C74.2877 172.689 73.926 172.908 73.7177 173.358V175.507C73.926 175.957 74.2877 176.187 74.792 176.187C75.1538 176.187 75.4388 176.055 75.6361 175.781C75.8335 175.507 75.9431 175.101 75.9431 174.542V174.388H75.954Z" fill="white"/>
<path d="M80.3939 177.141C79.6484 177.141 79.0454 176.91 78.585 176.439C78.1246 175.967 77.8943 175.353 77.8943 174.574V174.432C77.8943 173.916 77.993 173.445 78.1904 173.039C78.3877 172.633 78.6727 172.315 79.0345 172.085C79.3963 171.855 79.8019 171.745 80.2513 171.745C80.9639 171.745 81.512 171.975 81.8957 172.425C82.2794 172.875 82.4768 173.522 82.4768 174.344V174.816H79.0674C79.1003 175.243 79.2428 175.583 79.495 175.836C79.7471 176.088 80.065 176.208 80.4487 176.208C80.9859 176.208 81.4243 175.989 81.7642 175.561L82.4 176.165C82.1917 176.472 81.9177 176.713 81.5669 176.888C81.2271 177.053 80.8324 177.141 80.3939 177.141ZM80.2623 172.677C79.9444 172.677 79.6813 172.787 79.484 173.017C79.2867 173.248 79.166 173.555 79.1112 173.96H81.3476V173.873C81.3257 173.478 81.216 173.182 81.0296 172.984C80.8323 172.776 80.5802 172.677 80.2623 172.677Z" fill="white"/>
<path d="M86.1272 172.897C85.9738 172.875 85.8094 172.853 85.645 172.853C85.1078 172.853 84.746 173.062 84.5597 173.467V177.031H83.3866V171.822H84.5048L84.5377 172.404C84.8227 171.954 85.2173 171.724 85.7107 171.724C85.8751 171.724 86.0176 171.746 86.1272 171.789V172.897Z" fill="white"/>
<path d="M92.8912 169.99V170.956H92.7486C92.0909 170.966 91.5646 171.142 91.1809 171.493C90.7972 171.844 90.5561 172.337 90.4793 172.984C90.852 172.589 91.3345 172.392 91.9155 172.392C92.5294 172.392 93.0227 172.611 93.3844 173.05C93.7462 173.489 93.9216 174.048 93.9216 174.739C93.9216 175.452 93.7133 176.033 93.2968 176.472C92.8802 176.91 92.3321 177.13 91.6524 177.13C90.9508 177.13 90.3807 176.866 89.9531 176.351C89.5146 175.836 89.2954 175.156 89.2954 174.311V173.916C89.2954 172.688 89.5915 171.723 90.1944 171.021C90.7974 170.319 91.6524 169.979 92.7816 169.979H92.8912V169.99ZM91.6304 173.346C91.3783 173.346 91.1371 173.423 90.9288 173.566C90.7096 173.708 90.5562 173.905 90.4575 174.147V174.509C90.4575 175.024 90.5671 175.441 90.7863 175.748C91.0056 176.055 91.2906 176.208 91.6304 176.208C91.9703 176.208 92.2553 176.077 92.4526 175.814C92.65 175.55 92.7596 175.21 92.7596 174.783C92.7596 174.355 92.6609 174.015 92.4526 173.752C92.2443 173.489 91.9703 173.346 91.6304 173.346Z" fill="white"/>
<path d="M99.4248 174.092C99.4248 175.101 99.2384 175.857 98.8547 176.373C98.482 176.888 97.901 177.141 97.1337 177.141C96.3772 177.141 95.8071 176.888 95.4234 176.395C95.0397 175.89 94.8425 175.156 94.8315 174.18V172.962C94.8315 171.953 95.0179 171.197 95.4016 170.692C95.7743 170.188 96.3553 169.936 97.1337 169.936C97.901 169.936 98.471 170.177 98.8547 170.67C99.2274 171.164 99.4248 171.899 99.4358 172.875V174.092H99.4248ZM98.2519 172.776C98.2519 172.118 98.1642 171.635 97.9778 171.328C97.7914 171.021 97.5064 170.868 97.1227 170.868C96.739 170.868 96.4649 171.01 96.2785 171.306C96.1031 171.591 96.0045 172.052 95.9935 172.666V174.256C95.9935 174.914 96.0812 175.397 96.2676 175.726C96.4539 176.055 96.739 176.208 97.1337 176.208C97.5064 176.208 97.7914 176.055 97.9668 175.759C98.1422 175.463 98.2409 174.991 98.2519 174.366V172.776Z" fill="white"/>
<path d="M103.24 173.183H105.071V174.246H103.24V176.33H102.1V174.246H100.258V173.183H102.1V171.23H103.24V173.183Z" fill="white"/>
<path d="M62.4594 190.903C61.8455 191.55 61.133 191.868 60.3217 191.868C59.357 191.868 58.6005 191.528 58.0305 190.859C57.4604 190.19 57.1755 189.302 57.1755 188.205C57.1755 187.482 57.3179 186.835 57.6139 186.253C57.8989 185.672 58.3155 185.212 58.8526 184.894C59.3898 184.565 60.0038 184.411 60.7164 184.411C61.8126 184.411 62.6896 184.817 63.3364 185.639C63.9832 186.462 64.3011 187.558 64.3011 188.929V189.434C64.3011 191.408 63.8516 192.91 62.9636 193.941C62.0756 194.972 60.7492 195.498 58.9842 195.52H58.765V194.018H59.0281C60.1024 194.007 60.9246 193.744 61.5056 193.239C62.0647 192.724 62.3826 191.956 62.4594 190.903ZM60.7054 190.443C61.0672 190.443 61.4179 190.333 61.7358 190.125C62.0537 189.916 62.3059 189.62 62.4813 189.258V188.545C62.4813 187.745 62.3168 187.098 61.9879 186.604C61.659 186.111 61.2316 185.87 60.7054 185.87C60.1792 185.87 59.7626 186.089 59.4556 186.517C59.1377 186.944 58.9842 187.493 58.9842 188.151C58.9842 188.831 59.1377 189.39 59.4556 189.807C59.7736 190.223 60.1792 190.443 60.7054 190.443Z" fill="white"/>
<path d="M73.126 190.87C73.126 192.439 72.83 193.623 72.249 194.423C71.6571 195.224 70.769 195.619 69.5741 195.619C68.3901 195.619 67.5021 195.235 66.9101 194.456C66.3182 193.678 66.0112 192.526 65.9893 191.002V189.116C65.9893 187.548 66.2854 186.374 66.8664 185.585C67.4584 184.795 68.3463 184.411 69.5522 184.411C70.7471 184.411 71.6351 184.795 72.2271 185.563C72.8191 186.33 73.115 187.471 73.126 188.995V190.87ZM71.3061 188.831C71.3061 187.811 71.1636 187.054 70.8896 186.582C70.6155 186.1 70.1661 185.87 69.5522 185.87C68.9602 185.87 68.5217 186.1 68.2367 186.55C67.9626 186.999 67.8091 187.712 67.7982 188.666V191.144C67.7982 192.164 67.9407 192.921 68.2257 193.426C68.5108 193.93 68.9602 194.171 69.5631 194.171C70.1441 194.171 70.5827 193.941 70.8568 193.48C71.1418 193.02 71.2842 192.296 71.2952 191.309V188.831H71.3061Z" fill="white"/>
<path d="M79.6705 195.465H77.8618V186.692L75.1869 187.602V186.078L79.4404 184.51H79.6705V195.465Z" fill="white"/>
<path d="M89.1093 187.362L89.1642 188.206C89.7342 187.537 90.5126 187.208 91.4992 187.208C92.5845 187.208 93.33 187.625 93.7246 188.447C94.3166 187.614 95.1388 187.208 96.2132 187.208C97.1121 187.208 97.7698 187.46 98.2083 187.954C98.6468 188.447 98.866 189.182 98.877 190.147V195.477H97.0572V190.202C97.0572 189.686 96.9476 189.314 96.7174 189.072C96.4872 188.831 96.1254 188.71 95.5992 188.71C95.1826 188.71 94.8429 188.82 94.5798 189.039C94.3167 189.259 94.1303 189.555 94.0316 189.917L94.0425 195.477H92.2228V190.136C92.2009 189.182 91.7074 188.699 90.7647 188.699C90.0302 188.699 89.515 188.996 89.2081 189.588V195.466H87.3882V187.351H89.1093V187.362Z" fill="white"/>
<path d="M52.2968 227.049H47.9556V213.22L43.6912 214.47V211.18L51.9021 208.34H52.2968V227.049Z" fill="white"/>
<path d="M70.988 227.048H57.9315V224.219L63.939 217.891C65.4189 216.202 66.1644 214.865 66.1644 213.867C66.1644 213.066 65.989 212.452 65.6382 212.024C65.2874 211.597 64.7722 211.399 64.1144 211.399C63.4567 211.399 62.9196 211.684 62.5139 212.244C62.1083 212.803 61.9 213.505 61.9 214.349H57.5588C57.5588 213.198 57.8438 212.145 58.4248 211.169C59.0058 210.193 59.7952 209.436 60.8147 208.888C61.8342 208.34 62.9743 208.065 64.235 208.065C66.2521 208.065 67.8088 208.537 68.9051 209.469C70.0013 210.401 70.5385 211.739 70.5385 213.494C70.5385 214.229 70.4069 214.952 70.1219 215.643C69.8369 216.334 69.4202 217.069 68.8392 217.836C68.2582 218.604 67.3265 219.624 66.0439 220.918L63.632 223.704H70.988V227.048Z" fill="white"/>
<path d="M75.9211 222.848C76.6008 222.848 77.1708 223.056 77.6312 223.462C78.0917 223.868 78.3109 224.394 78.3109 225.019C78.3109 225.644 78.0807 226.17 77.6312 226.576C77.1818 226.982 76.6118 227.19 75.9211 227.19C75.2305 227.19 74.6604 226.982 74.2109 226.576C73.7615 226.17 73.5312 225.644 73.5312 225.019C73.5312 224.394 73.7615 223.878 74.2109 223.462C74.6604 223.045 75.2305 222.848 75.9211 222.848Z" fill="white"/>
<path d="M85.0858 215.884H87.1249C88.7473 215.884 89.5476 215.095 89.5476 213.505C89.5476 212.89 89.3503 212.386 88.9666 211.991C88.583 211.596 88.0347 211.41 87.3331 211.41C86.763 211.41 86.2588 211.574 85.8312 211.914C85.4037 212.254 85.1954 212.66 85.1954 213.165H80.8653C80.8653 212.178 81.1393 211.3 81.6875 210.533C82.2356 209.765 82.992 209.162 83.9676 208.723C84.9433 208.285 86.0067 208.076 87.1688 208.076C89.2517 208.076 90.8851 208.548 92.08 209.502C93.2749 210.456 93.8669 211.761 93.8669 213.417C93.8669 214.217 93.6257 214.985 93.1323 215.698C92.639 216.411 91.9265 216.992 90.9837 217.442C91.9813 217.803 92.7597 218.352 93.3187 219.076C93.8778 219.799 94.1629 220.71 94.1629 221.795C94.1629 223.462 93.5161 224.8 92.2335 225.809C90.9508 226.818 89.2626 227.311 87.1688 227.311C85.941 227.311 84.8118 227.081 83.7594 226.609C82.707 226.138 81.9177 225.491 81.3805 224.668C80.8433 223.846 80.5693 222.903 80.5693 221.85H84.9214C84.9214 222.42 85.1516 222.925 85.612 223.342C86.0725 223.758 86.6426 223.967 87.3223 223.967C88.0896 223.967 88.6925 223.758 89.1419 223.331C89.5914 222.903 89.8216 222.366 89.8216 221.708C89.8216 220.764 89.5914 220.095 89.12 219.701C88.6486 219.306 88.0019 219.108 87.1688 219.108H85.0639V215.884H85.0858Z" fill="white"/>
<path d="M96.3772 211.936C96.3772 210.785 96.75 209.842 97.5064 209.14C98.2628 208.438 99.2714 208.076 100.543 208.076C101.826 208.076 102.845 208.427 103.591 209.14C104.336 209.853 104.709 210.807 104.709 212.013V212.934C104.709 214.086 104.336 215.018 103.591 215.72C102.845 216.422 101.837 216.773 100.576 216.773C99.3153 216.773 98.3067 216.422 97.5393 215.72C96.7719 215.018 96.3882 214.064 96.3882 212.847V211.936H96.3772ZM99.1617 212.923C99.1617 213.362 99.2823 213.724 99.5344 213.998C99.7866 214.272 100.126 214.415 100.565 214.415C101.464 214.415 101.913 213.845 101.913 212.704V211.936C101.913 211.498 101.793 211.125 101.552 210.84C101.31 210.555 100.971 210.412 100.532 210.412C100.115 210.412 99.7756 210.555 99.5344 210.829C99.2823 211.103 99.1617 211.487 99.1617 211.958V212.923ZM101.387 225.655L99.3701 224.636L108.502 210.006L110.519 211.026L101.387 225.655ZM105.268 222.464C105.268 221.302 105.652 220.37 106.408 219.668C107.164 218.966 108.173 218.615 109.434 218.615C110.705 218.615 111.725 218.966 112.481 219.657C113.238 220.348 113.61 221.324 113.61 222.563V223.462C113.61 224.625 113.238 225.557 112.492 226.259C111.747 226.96 110.738 227.311 109.456 227.311C108.195 227.311 107.186 226.96 106.419 226.259C105.652 225.557 105.268 224.603 105.268 223.385V222.464ZM108.041 223.451C108.041 223.857 108.173 224.208 108.458 224.504C108.743 224.8 109.061 224.954 109.456 224.954C110.289 224.954 110.738 224.559 110.804 223.78L110.815 222.464C110.815 222.015 110.694 221.653 110.442 221.367C110.19 221.093 109.85 220.951 109.423 220.951C109.006 220.951 108.677 221.082 108.436 221.346C108.184 221.609 108.052 221.96 108.041 222.398V223.451Z" fill="white"/>
<path d="M38.8897 240.187C38.8897 239.683 38.9884 239.222 39.1967 238.805C39.394 238.4 39.6789 238.082 40.0517 237.862C40.4134 237.643 40.841 237.533 41.3124 237.533C42.014 237.533 42.5841 237.763 43.0226 238.213C43.4611 238.663 43.7023 239.266 43.7352 240.012V240.286C43.7352 240.801 43.6365 241.262 43.4392 241.668C43.2419 242.073 42.9568 242.38 42.5951 242.611C42.2223 242.83 41.8057 242.94 41.3234 242.94C40.5889 242.94 39.9969 242.698 39.5584 242.205C39.1199 241.711 38.9007 241.064 38.9007 240.242V240.187H38.8897ZM40.0626 240.286C40.0626 240.823 40.1723 241.24 40.3916 241.547C40.6108 241.854 40.9177 242.007 41.3124 242.007C41.707 242.007 42.0141 241.854 42.2333 241.547C42.4526 241.24 42.5621 240.79 42.5621 240.187C42.5621 239.661 42.4526 239.244 42.2224 238.937C41.9922 238.63 41.6851 238.476 41.3014 238.476C40.9177 238.476 40.6218 238.63 40.3916 238.937C40.1723 239.233 40.0626 239.683 40.0626 240.286Z" fill="white"/>
<path d="M45.1383 242.841V238.498H44.3491V237.632H45.1383V237.16C45.1383 236.579 45.3028 236.14 45.6208 235.822C45.9387 235.504 46.3881 235.351 46.9691 235.351C47.1774 235.351 47.3966 235.384 47.6269 235.438L47.5939 236.36C47.4624 236.338 47.32 236.316 47.1446 236.316C46.5855 236.316 46.3114 236.601 46.3114 237.182V237.643H47.3747V238.509H46.3114V242.852H45.1383V242.841Z" fill="white"/>
<path d="M52.1434 236.359V237.631H53.0644V238.498H52.1434V241.404C52.1434 241.601 52.1872 241.744 52.264 241.832C52.3407 241.919 52.4832 241.963 52.6806 241.963C52.8121 241.963 52.9546 241.952 53.0862 241.919V242.83C52.8231 242.906 52.56 242.939 52.3188 242.939C51.4199 242.939 50.9705 242.446 50.9705 241.448V238.498H50.1154V237.631H50.9705V236.359H52.1434Z" fill="white"/>
<path d="M53.6015 240.187C53.6015 239.683 53.7001 239.222 53.9084 238.805C54.1057 238.4 54.3907 238.082 54.7635 237.862C55.1252 237.643 55.5528 237.533 56.0242 237.533C56.7258 237.533 57.2958 237.763 57.7343 238.213C58.1728 238.663 58.414 239.266 58.4469 240.012V240.286C58.4469 240.801 58.3482 241.262 58.1509 241.668C57.9535 242.073 57.6686 242.38 57.3069 242.611C56.9341 242.83 56.5175 242.94 56.0352 242.94C55.3007 242.94 54.7087 242.698 54.2702 242.205C53.8317 241.711 53.6125 241.064 53.6125 240.242V240.187H53.6015ZM54.7744 240.286C54.7744 240.823 54.8841 241.24 55.1034 241.547C55.3226 241.854 55.6295 242.007 56.0242 242.007C56.4188 242.007 56.7258 241.854 56.945 241.547C57.1643 241.24 57.2739 240.79 57.2739 240.187C57.2739 239.661 57.1642 239.244 56.934 238.937C56.7038 238.63 56.3969 238.476 56.0132 238.476C55.6295 238.476 55.3226 238.63 55.1034 238.937C54.8841 239.233 54.7744 239.683 54.7744 240.286Z" fill="white"/>
<path d="M60.9025 236.359V237.631H61.8234V238.498H60.9025V241.404C60.9025 241.601 60.9463 241.744 61.0231 241.832C61.0998 241.919 61.2423 241.963 61.4397 241.963C61.5712 241.963 61.7137 241.952 61.8453 241.919V242.83C61.5822 242.906 61.3191 242.939 61.0779 242.939C60.179 242.939 59.7296 242.446 59.7296 241.448V238.498H58.8745V237.631H59.7296V236.359H60.9025Z" fill="white"/>
<path d="M65.8357 242.841C65.7808 242.742 65.737 242.578 65.7041 242.358C65.3314 242.742 64.871 242.94 64.3338 242.94C63.8076 242.94 63.3801 242.786 63.0513 242.49C62.7224 242.194 62.5579 241.821 62.5579 241.382C62.5579 240.823 62.7662 240.395 63.1718 240.099C63.5884 239.803 64.1804 239.65 64.9478 239.65H65.6713V239.31C65.6713 239.036 65.5945 238.827 65.441 238.663C65.2875 238.498 65.0573 238.421 64.7504 238.421C64.4873 238.421 64.268 238.487 64.0926 238.619C63.9282 238.75 63.8405 238.926 63.8405 239.123H62.6675C62.6675 238.838 62.7661 238.575 62.9525 238.323C63.1389 238.071 63.4021 237.873 63.7309 237.742C64.0598 237.61 64.4216 237.533 64.8272 237.533C65.4411 237.533 65.9234 237.687 66.2852 237.994C66.6469 238.301 66.8333 238.729 66.8443 239.288V241.635C66.8443 242.106 66.9101 242.479 67.0416 242.753V242.83H65.8357V242.841ZM64.5422 241.997C64.7724 241.997 64.9916 241.942 65.1999 241.832C65.4082 241.722 65.5617 241.569 65.6604 241.382V240.395H65.0244C64.5859 240.395 64.268 240.472 64.0488 240.626C63.8295 240.779 63.72 240.988 63.72 241.262C63.72 241.492 63.7967 241.668 63.9501 241.799C64.0926 241.931 64.29 241.997 64.5422 241.997Z" fill="white"/>
<path d="M69.2998 242.841H68.1269V235.438H69.2998V242.841Z" fill="white"/>
<path d="M77.6094 241.229L78.4426 237.632H79.5827L78.1576 242.841H77.1928L76.0748 239.255L74.9785 242.841H74.0138L72.5886 237.632H73.7288L74.5729 241.196L75.6472 237.632H76.5241L77.6094 241.229Z" fill="white"/>
<path d="M80.1418 240.187C80.1418 239.683 80.2405 239.222 80.4488 238.805C80.6462 238.4 80.9311 238.082 81.3038 237.862C81.6656 237.643 82.0931 237.533 82.5645 237.533C83.2661 237.533 83.8362 237.763 84.2748 238.213C84.7133 238.663 84.9545 239.266 84.9873 240.012V240.286C84.9873 240.801 84.8887 241.262 84.6913 241.668C84.494 242.073 84.209 242.38 83.8472 242.611C83.4745 242.83 83.0579 242.94 82.5755 242.94C81.841 242.94 81.249 242.698 80.8105 242.205C80.372 241.711 80.1528 241.064 80.1528 240.242V240.187H80.1418ZM81.3148 240.286C81.3148 240.823 81.4245 241.24 81.6437 241.547C81.863 241.854 82.1699 242.007 82.5645 242.007C82.9592 242.007 83.2662 241.854 83.4855 241.547C83.7047 241.24 83.8143 240.79 83.8143 240.187C83.8143 239.661 83.7047 239.244 83.4745 238.937C83.2443 238.63 82.9372 238.476 82.5536 238.476C82.1699 238.476 81.8739 238.63 81.6437 238.937C81.4245 239.233 81.3148 239.683 81.3148 240.286Z" fill="white"/>
<path d="M88.7035 238.696C88.5501 238.674 88.3857 238.652 88.2212 238.652C87.6841 238.652 87.3223 238.86 87.136 239.266V242.83H85.9629V237.621H87.0811L87.114 238.202C87.399 237.753 87.7936 237.522 88.2869 237.522C88.4514 237.522 88.5939 237.544 88.7035 237.588V238.696Z" fill="white"/>
<path d="M90.6878 242.841H89.5149V235.438H90.6878V242.841Z" fill="white"/>
<path d="M91.7512 240.198C91.7512 239.397 91.9375 238.75 92.3103 238.268C92.683 237.785 93.1763 237.533 93.8121 237.533C94.3603 237.533 94.8097 237.73 95.1495 238.114V235.449H96.3226V242.852H95.2593L95.2044 242.314C94.8536 242.742 94.3822 242.95 93.8012 242.95C93.1873 242.95 92.694 242.709 92.3212 242.215C91.9375 241.711 91.7512 241.042 91.7512 240.198ZM92.9242 240.296C92.9242 240.823 93.0228 241.239 93.2311 241.536C93.4394 241.832 93.7244 241.985 94.0972 241.985C94.5795 241.985 94.9303 241.777 95.1495 241.349V239.123C94.9303 238.706 94.5905 238.498 94.1081 238.498C93.7244 238.498 93.4394 238.651 93.2311 238.948C93.0228 239.244 92.9242 239.693 92.9242 240.296Z" fill="white"/>
<path d="M102.111 241.229L102.944 237.632H104.084L102.659 242.841H101.694L100.576 239.255L99.4799 242.841H98.5152L97.09 237.632H98.2301L99.0743 241.196L100.149 237.632H101.026L102.111 241.229Z" fill="white"/>
<path d="M104.873 236.272C104.873 236.096 104.928 235.943 105.049 235.822C105.158 235.701 105.323 235.646 105.542 235.646C105.761 235.646 105.915 235.701 106.035 235.822C106.156 235.943 106.211 236.096 106.211 236.272C106.211 236.447 106.156 236.601 106.035 236.71C105.915 236.831 105.761 236.886 105.542 236.886C105.323 236.886 105.169 236.831 105.049 236.71C104.928 236.601 104.873 236.447 104.873 236.272ZM106.112 242.84H104.939V237.631H106.112V242.84Z" fill="white"/>
<path d="M107.165 240.198C107.165 239.397 107.351 238.75 107.724 238.268C108.096 237.785 108.59 237.533 109.226 237.533C109.774 237.533 110.223 237.73 110.563 238.114V235.449H111.736V242.852H110.673L110.618 242.314C110.267 242.742 109.796 242.95 109.215 242.95C108.601 242.95 108.107 242.709 107.735 242.215C107.362 241.711 107.165 241.042 107.165 240.198ZM108.337 240.296C108.337 240.823 108.436 241.239 108.644 241.536C108.853 241.832 109.138 241.985 109.511 241.985C109.993 241.985 110.344 241.777 110.563 241.349V239.123C110.344 238.706 110.004 238.498 109.522 238.498C109.138 238.498 108.853 238.651 108.644 238.948C108.447 239.244 108.337 239.693 108.337 240.296Z" fill="white"/>
<path d="M115.255 242.939C114.51 242.939 113.918 242.709 113.446 242.238C112.986 241.766 112.755 241.152 112.755 240.373V240.231C112.755 239.715 112.854 239.244 113.052 238.838C113.249 238.432 113.534 238.114 113.896 237.884C114.257 237.654 114.663 237.544 115.112 237.544C115.825 237.544 116.373 237.774 116.757 238.224C117.141 238.674 117.338 239.321 117.338 240.143V240.615H113.928C113.961 241.042 114.104 241.382 114.356 241.634C114.608 241.887 114.926 242.007 115.31 242.007C115.847 242.007 116.285 241.788 116.625 241.36L117.261 241.963C117.053 242.271 116.779 242.512 116.428 242.687C116.077 242.852 115.683 242.939 115.255 242.939ZM115.112 238.476C114.795 238.476 114.531 238.586 114.334 238.816C114.137 239.046 114.016 239.353 113.961 239.759H116.198V239.671C116.176 239.277 116.066 238.981 115.88 238.783C115.693 238.575 115.441 238.476 115.112 238.476Z" fill="white"/>
<path d="M59.8282 252.129C59.8282 252.94 59.6418 253.576 59.28 254.059C58.9183 254.541 58.425 254.782 57.8111 254.782C57.241 254.782 56.7806 254.596 56.4408 254.223V256.691H55.2677V249.475H56.3421L56.3859 250.001C56.7257 249.584 57.1972 249.376 57.7891 249.376C58.425 249.376 58.9292 249.617 59.291 250.089C59.6528 250.56 59.8282 251.218 59.8282 252.063V252.129ZM58.6662 252.03C58.6662 251.514 58.5675 251.098 58.3592 250.791C58.1509 250.484 57.8549 250.33 57.4712 250.33C56.9888 250.33 56.6491 250.527 56.4408 250.922V253.236C56.6491 253.642 56.9998 253.839 57.4822 253.839C57.8549 253.839 58.1509 253.686 58.3592 253.39C58.5565 253.094 58.6662 252.644 58.6662 252.03Z" fill="white"/>
<path d="M60.6064 252.03C60.6064 251.525 60.7051 251.065 60.9134 250.648C61.1108 250.242 61.3958 249.924 61.7685 249.705C62.1303 249.486 62.5579 249.376 63.0293 249.376C63.7309 249.376 64.3009 249.606 64.7394 250.056C65.1779 250.506 65.4191 251.109 65.4519 251.854V252.129C65.4519 252.644 65.3533 253.105 65.1559 253.51C64.9586 253.916 64.6736 254.223 64.3118 254.453C63.9391 254.673 63.5226 254.782 63.0402 254.782C62.3057 254.782 61.7138 254.541 61.2753 254.048C60.8368 253.554 60.6174 252.907 60.6174 252.085V252.03H60.6064ZM61.7685 252.129C61.7685 252.666 61.8782 253.083 62.0975 253.39C62.3167 253.697 62.6236 253.85 63.0183 253.85C63.4129 253.85 63.7199 253.697 63.9391 253.39C64.1584 253.083 64.268 252.633 64.268 252.03C64.268 251.503 64.1584 251.087 63.9281 250.78C63.6979 250.473 63.391 250.319 63.0073 250.319C62.6236 250.319 62.3167 250.473 62.0975 250.78C61.8892 251.076 61.7685 251.525 61.7685 252.129Z" fill="white"/>
<path d="M70.9991 252.129C70.9991 252.94 70.8127 253.576 70.4509 254.059C70.0892 254.541 69.5958 254.782 68.9819 254.782C68.4118 254.782 67.9514 254.596 67.6115 254.223V256.691H66.4386V249.475H67.5129L67.5568 250.001C67.8966 249.584 68.3681 249.376 68.96 249.376C69.5959 249.376 70.0892 249.617 70.4509 250.089C70.8127 250.56 70.9881 251.218 70.9881 252.063V252.129H70.9991ZM69.837 252.03C69.837 251.514 69.7383 251.098 69.53 250.791C69.3217 250.484 69.0258 250.33 68.6421 250.33C68.1597 250.33 67.8198 250.527 67.6115 250.922V253.236C67.8198 253.642 68.1707 253.839 68.6531 253.839C69.0258 253.839 69.3217 253.686 69.53 253.39C69.7383 253.094 69.837 252.644 69.837 252.03Z" fill="white"/>
<path d="M75.1538 254.179C74.814 254.585 74.3207 254.782 73.6849 254.782C73.1148 254.782 72.6872 254.618 72.4022 254.289C72.1062 253.96 71.9638 253.477 71.9638 252.852V249.475H73.1367V252.841C73.1367 253.499 73.4108 253.839 73.9589 253.839C74.529 253.839 74.9127 253.631 75.1101 253.225V249.475H76.283V254.684H75.1758L75.1538 254.179Z" fill="white"/>
<path d="M78.7166 254.684H77.5437V247.281H78.7166V254.684Z" fill="white"/>
<path d="M83.1126 254.684C83.0578 254.585 83.014 254.421 82.9811 254.201C82.6084 254.585 82.1479 254.782 81.6108 254.782C81.0846 254.782 80.6571 254.629 80.3282 254.333C79.9994 254.037 79.8348 253.664 79.8348 253.225C79.8348 252.666 80.0432 252.238 80.4488 251.942C80.8654 251.646 81.4574 251.492 82.2247 251.492H82.9482V251.153C82.9482 250.878 82.8715 250.67 82.718 250.505C82.5645 250.341 82.3343 250.264 82.0274 250.264C81.7643 250.264 81.545 250.33 81.3696 250.462C81.1942 250.593 81.1175 250.769 81.1175 250.966H79.9444C79.9444 250.681 80.0431 250.418 80.2295 250.166C80.4158 249.913 80.679 249.716 81.0079 249.584C81.3368 249.442 81.6986 249.376 82.1042 249.376C82.7181 249.376 83.2004 249.529 83.5621 249.837C83.9239 250.144 84.1103 250.571 84.1212 251.131V253.477C84.1212 253.949 84.1869 254.322 84.3185 254.596V254.673H83.1126V254.684ZM81.8191 253.839C82.0493 253.839 82.2686 253.784 82.4769 253.675C82.6851 253.565 82.8387 253.412 82.9373 253.225V252.238H82.3014C81.8629 252.238 81.545 252.315 81.3257 252.469C81.1065 252.622 80.9969 252.83 80.9969 253.105C80.9969 253.335 81.0736 253.51 81.2161 253.642C81.3696 253.774 81.578 253.839 81.8191 253.839Z" fill="white"/>
<path d="M86.7961 248.202V249.474H87.717V250.341H86.7961V253.247C86.7961 253.444 86.8399 253.587 86.9166 253.674C86.9934 253.762 87.1359 253.806 87.3332 253.806C87.4648 253.806 87.6073 253.795 87.7388 253.762V254.672C87.4757 254.749 87.2127 254.782 86.9715 254.782C86.0726 254.782 85.6231 254.289 85.6231 253.291V250.341H84.768V249.474H85.6231V248.202H86.7961Z" fill="white"/>
<path d="M88.6158 248.114C88.6158 247.939 88.6707 247.785 88.7913 247.665C88.9009 247.544 89.0653 247.489 89.2845 247.489C89.5038 247.489 89.6574 247.544 89.7779 247.665C89.8985 247.785 89.9532 247.939 89.9532 248.114C89.9532 248.29 89.8985 248.443 89.7779 248.553C89.6574 248.674 89.5038 248.728 89.2845 248.728C89.0653 248.728 88.9119 248.674 88.7913 248.553C88.6707 248.443 88.6158 248.29 88.6158 248.114ZM89.8656 254.683H88.6927V249.474H89.8656V254.683Z" fill="white"/>
<path d="M90.918 252.03C90.918 251.525 91.0167 251.065 91.225 250.648C91.4223 250.242 91.7073 249.924 92.0801 249.705C92.4418 249.486 92.8694 249.376 93.3408 249.376C94.0424 249.376 94.6124 249.606 95.0509 250.056C95.4894 250.506 95.7306 251.109 95.7635 251.854V252.129C95.7635 252.644 95.6648 253.105 95.4675 253.51C95.2701 253.916 94.9851 254.223 94.6233 254.453C94.2506 254.673 93.8341 254.782 93.3518 254.782C92.6173 254.782 92.0252 254.541 91.5867 254.048C91.1482 253.554 90.9289 252.907 90.9289 252.085V252.03H90.918ZM92.091 252.129C92.091 252.666 92.2006 253.083 92.4198 253.39C92.6391 253.697 92.9461 253.85 93.3408 253.85C93.7354 253.85 94.0424 253.697 94.2616 253.39C94.4809 253.083 94.5904 252.633 94.5904 252.03C94.5904 251.503 94.4808 251.087 94.2506 250.78C94.0204 250.473 93.7135 250.319 93.3298 250.319C92.9461 250.319 92.65 250.473 92.4198 250.78C92.2006 251.076 92.091 251.525 92.091 252.129Z" fill="white"/>
<path d="M97.8355 249.475L97.8684 250.078C98.2521 249.617 98.7564 249.376 99.3813 249.376C100.467 249.376 101.015 250.001 101.036 251.24V254.684H99.8635V251.306C99.8635 250.977 99.7978 250.725 99.6443 250.571C99.5018 250.418 99.2716 250.33 98.9427 250.33C98.4713 250.33 98.1204 250.549 97.8902 250.966V254.673H96.7173V249.464H97.8355V249.475Z" fill="white"/>
<path d="M201.267 218.232C240.016 218.232 271.428 186.809 271.428 148.047C271.428 109.284 240.016 77.8613 201.267 77.8613C162.519 77.8613 131.107 109.284 131.107 148.047C131.107 186.809 162.519 218.232 201.267 218.232Z" fill="#2367B1"/>
<path d="M180.932 100.178H179.715L176.59 95.1989V100.178H175.374V93.1592H176.59L179.726 98.1599V93.1592H180.932V100.178Z" fill="white"/>
<path d="M185.415 99.6626C185.076 100.068 184.582 100.266 183.946 100.266C183.376 100.266 182.949 100.101 182.664 99.7723C182.368 99.4433 182.225 98.9608 182.225 98.3357V94.958H183.398V98.3247C183.398 98.9827 183.672 99.3226 184.22 99.3226C184.79 99.3226 185.174 99.1143 185.371 98.7085V94.958H186.544V100.167H185.437L185.415 99.6626Z" fill="white"/>
<path d="M188.836 94.9579L188.869 95.5062C189.23 95.0785 189.735 94.8701 190.371 94.8701C191.072 94.8701 191.543 95.1333 191.807 95.6706C192.19 95.1333 192.716 94.8701 193.407 94.8701C193.977 94.8701 194.405 95.0346 194.69 95.3417C194.975 95.6597 195.117 96.1313 195.117 96.7454V100.167H193.944V96.7783C193.944 96.4493 193.867 96.208 193.725 96.0545C193.582 95.901 193.341 95.8242 193.001 95.8242C192.738 95.8242 192.519 95.901 192.344 96.0435C192.179 96.1861 192.059 96.3725 191.993 96.6028V100.178H190.82V96.7454C190.809 96.1313 190.491 95.8242 189.877 95.8242C189.406 95.8242 189.077 96.0106 188.879 96.3945V100.178H187.707V94.9688H188.836V94.9579Z" fill="white"/>
<path d="M200.895 97.6228C200.895 98.4343 200.708 99.0813 200.357 99.5529C199.996 100.035 199.502 100.266 198.867 100.266C198.253 100.266 197.781 100.046 197.441 99.6077L197.386 100.167H196.323V92.7646H197.496V95.4514C197.836 95.0566 198.285 94.8592 198.856 94.8592C199.491 94.8592 199.996 95.1005 200.357 95.5721C200.719 96.0436 200.906 96.7016 200.906 97.557V97.6228H200.895ZM199.721 97.524C199.721 96.9648 199.623 96.5371 199.425 96.252C199.228 95.9668 198.932 95.8243 198.56 95.8243C198.055 95.8243 197.694 96.0436 197.485 96.4932V98.6426C197.694 99.0923 198.055 99.3226 198.56 99.3226C198.921 99.3226 199.206 99.191 199.404 98.9168C199.601 98.6426 199.711 98.2369 199.711 97.6776V97.524H199.721Z" fill="white"/>
<path d="M204.172 100.266C203.427 100.266 202.824 100.035 202.363 99.5638C201.903 99.0922 201.673 98.4781 201.673 97.6995V97.5569C201.673 97.0415 201.772 96.5699 201.98 96.1641C202.177 95.7584 202.462 95.4404 202.824 95.2101C203.186 94.9798 203.591 94.8701 204.041 94.8701C204.753 94.8701 205.301 95.1004 205.685 95.55C206.069 95.9997 206.266 96.6467 206.266 97.4692V97.9407H202.857C202.89 98.3684 203.032 98.7083 203.284 98.9606C203.536 99.2128 203.854 99.3335 204.238 99.3335C204.775 99.3335 205.214 99.1141 205.554 98.6864L206.189 99.2896C205.981 99.5967 205.696 99.8379 205.356 100.013C204.994 100.189 204.6 100.266 204.172 100.266ZM204.03 95.8022C203.712 95.8022 203.449 95.912 203.252 96.1423C203.054 96.3726 202.934 96.6796 202.879 97.0854H205.104V96.9976C205.082 96.6028 204.973 96.3067 204.786 96.1093C204.611 95.901 204.359 95.8022 204.03 95.8022Z" fill="white"/>
<path d="M209.906 96.0328C209.752 96.0109 209.588 95.989 209.423 95.989C208.886 95.989 208.524 96.1973 208.338 96.6031V100.167H207.165V94.9581H208.283L208.316 95.5393C208.601 95.0897 208.996 94.8594 209.489 94.8594C209.654 94.8594 209.796 94.8813 209.906 94.9252V96.0328Z" fill="white"/>
<path d="M216.659 93.1262V94.0912H216.516C215.858 94.1022 215.332 94.2777 214.949 94.6286C214.565 94.9795 214.324 95.473 214.247 96.12C214.62 95.7252 215.102 95.5278 215.683 95.5278C216.297 95.5278 216.79 95.7472 217.152 96.1858C217.514 96.6245 217.689 97.1838 217.689 97.8746C217.689 98.5875 217.481 99.1687 217.064 99.6074C216.648 100.046 216.1 100.265 215.42 100.265C214.718 100.265 214.148 100.002 213.721 99.4867C213.282 98.9713 213.063 98.2913 213.063 97.4469V97.0522C213.063 95.8239 213.359 94.8588 213.962 94.157C214.565 93.4551 215.42 93.1152 216.549 93.1152H216.659V93.1262ZM215.409 96.471C215.157 96.471 214.916 96.5477 214.707 96.6903C214.488 96.8329 214.335 97.0302 214.236 97.2715V97.6334C214.236 98.1488 214.346 98.5656 214.565 98.8726C214.784 99.1797 215.069 99.3332 215.409 99.3332C215.749 99.3332 216.034 99.2016 216.231 98.9384C216.429 98.6752 216.538 98.3353 216.538 97.9076C216.538 97.4799 216.439 97.1399 216.231 96.8767C216.023 96.6135 215.749 96.471 215.409 96.471Z" fill="white"/>
<path d="M223.203 97.2169C223.203 98.2258 223.017 98.9825 222.633 99.4979C222.261 100.013 221.68 100.266 220.912 100.266C220.156 100.266 219.586 100.013 219.202 99.5198C218.818 99.0153 218.621 98.2806 218.61 97.3046V96.0873C218.61 95.0784 218.796 94.3217 219.18 93.8172C219.553 93.3128 220.134 93.0605 220.912 93.0605C221.68 93.0605 222.25 93.3019 222.633 93.7953C223.006 94.2888 223.203 95.0236 223.214 95.9996V97.2169H223.203ZM222.03 95.9119C222.03 95.2539 221.943 94.7713 221.756 94.4643C221.57 94.1572 221.285 94.0037 220.901 94.0037C220.518 94.0037 220.243 94.1462 220.057 94.4423C219.882 94.7275 219.783 95.188 219.772 95.8022V97.3923C219.772 98.0503 219.86 98.5328 220.046 98.8618C220.233 99.1908 220.518 99.3444 220.912 99.3444C221.285 99.3444 221.57 99.1908 221.745 98.8947C221.921 98.5986 222.019 98.1271 222.03 97.502V95.9119Z" fill="white"/>
<path d="M227.018 96.3173H228.849V97.381H227.018V99.4646H225.878V97.381H224.036V96.3173H225.878V94.3652H227.018V96.3173Z" fill="white"/>
<path d="M176.821 121.233H174.749V111.21L171.69 112.252V110.508L176.558 108.721H176.821V121.233Z" fill="white"/>
<path d="M181.59 124.041L180.471 123.372C180.8 122.857 181.031 122.396 181.151 122.012C181.272 121.628 181.337 121.234 181.348 120.839V119.216H183.223L183.212 120.718C183.212 121.321 183.059 121.935 182.752 122.539C182.445 123.142 182.061 123.646 181.59 124.041Z" fill="white"/>
<path d="M192.048 116.781H193.594V118.447H192.048V121.222H189.965V118.447H184.582L184.528 117.175L189.91 108.742H192.059V116.781H192.048ZM186.709 116.781H189.976V111.571L189.823 111.846L186.709 116.781Z" fill="white"/>
<path d="M203.109 115.98C203.109 117.779 202.769 119.128 202.101 120.038C201.432 120.948 200.412 121.409 199.042 121.409C197.694 121.409 196.674 120.959 195.994 120.082C195.315 119.204 194.964 117.877 194.942 116.134V113.973C194.942 112.175 195.282 110.837 195.951 109.938C196.619 109.038 197.65 108.589 199.02 108.589C200.39 108.589 201.399 109.028 202.079 109.905C202.758 110.782 203.098 112.087 203.109 113.831V115.98ZM201.026 113.644C201.026 112.471 200.862 111.616 200.544 111.067C200.226 110.519 199.722 110.245 199.02 110.245C198.34 110.245 197.836 110.508 197.518 111.023C197.2 111.539 197.025 112.35 197.014 113.447V116.276C197.014 117.439 197.178 118.305 197.507 118.886C197.836 119.468 198.34 119.742 199.042 119.742C199.711 119.742 200.204 119.479 200.522 118.952C200.84 118.426 201.015 117.592 201.026 116.474V113.644Z" fill="white"/>
<path d="M213.337 121.233H204.951V119.807L209.106 115.278C209.709 114.609 210.136 114.05 210.388 113.6C210.64 113.151 210.772 112.701 210.772 112.251C210.772 111.659 210.608 111.177 210.268 110.815C209.928 110.453 209.489 110.266 208.919 110.266C208.251 110.266 207.724 110.475 207.352 110.881C206.979 111.286 206.793 111.857 206.793 112.569H204.71C204.71 111.813 204.885 111.122 205.225 110.519C205.565 109.916 206.069 109.433 206.705 109.104C207.341 108.775 208.086 108.6 208.93 108.6C210.136 108.6 211.101 108.907 211.791 109.51C212.482 110.113 212.844 110.957 212.844 112.032C212.844 112.657 212.668 113.304 212.318 113.995C211.967 114.686 211.397 115.454 210.597 116.32L207.549 119.588H213.337V121.233Z" fill="white"/>
<path d="M221.373 111.956L221.428 112.921C222.074 112.164 222.973 111.78 224.102 111.78C225.341 111.78 226.185 112.252 226.646 113.206C227.314 112.263 228.268 111.78 229.485 111.78C230.505 111.78 231.272 112.065 231.765 112.625C232.259 113.184 232.522 114.028 232.533 115.125V121.211H230.45V115.18C230.45 114.588 230.318 114.16 230.066 113.886C229.814 113.612 229.386 113.469 228.794 113.469C228.323 113.469 227.928 113.601 227.632 113.853C227.336 114.105 227.128 114.445 227.007 114.851L227.018 121.211H224.936V115.114C224.903 114.017 224.355 113.48 223.269 113.48C222.436 113.48 221.844 113.82 221.493 114.5V121.211H219.411V111.945H221.373V111.956Z" fill="white"/>
<path d="M163.151 168.608H156.639V147.87L150.237 149.745V144.811L162.548 140.556H163.14V168.608H163.151Z" fill="white"/>
<path d="M187.29 140.128V145.238H187.005C184.583 145.238 182.587 145.82 181.02 146.982C179.452 148.144 178.498 149.756 178.137 151.829C179.606 150.392 181.447 149.669 183.684 149.669C186.106 149.669 188.047 150.557 189.483 152.334C190.919 154.11 191.642 156.435 191.642 159.308C191.642 161.096 191.226 162.73 190.382 164.221C189.538 165.713 188.365 166.875 186.852 167.719C185.339 168.564 183.673 168.981 181.831 168.981C179.836 168.981 178.06 168.531 176.492 167.621C174.925 166.711 173.708 165.416 172.831 163.739C171.954 162.061 171.504 160.12 171.482 157.915V155.316C171.482 152.421 172.107 149.822 173.346 147.519C174.585 145.216 176.361 143.407 178.652 142.091C180.943 140.775 183.497 140.128 186.304 140.128H187.29ZM181.436 154.647C180.57 154.647 179.858 154.845 179.277 155.24C178.696 155.634 178.268 156.128 177.983 156.709V158.661C177.983 162.203 179.211 163.98 181.667 163.98C182.653 163.98 183.486 163.541 184.144 162.653C184.802 161.765 185.142 160.657 185.142 159.319C185.142 157.948 184.802 156.819 184.133 155.952C183.464 155.086 182.555 154.647 181.436 154.647Z" fill="white"/>
<path d="M198.582 162.302C199.612 162.302 200.467 162.609 201.147 163.212C201.827 163.815 202.167 164.605 202.167 165.559C202.167 166.513 201.827 167.291 201.147 167.906C200.467 168.52 199.612 168.816 198.582 168.816C197.54 168.816 196.685 168.509 196.006 167.895C195.326 167.281 194.997 166.502 194.997 165.559C194.997 164.616 195.337 163.848 196.006 163.223C196.674 162.598 197.54 162.302 198.582 162.302Z" fill="white"/>
<path d="M206.771 154.9L208.481 140.545H224.881V145.6H213.765L213.129 151.171C213.59 150.897 214.203 150.667 214.949 150.459C215.694 150.25 216.44 150.152 217.152 150.152C219.937 150.152 222.086 150.974 223.576 152.63C225.067 154.286 225.824 156.6 225.824 159.583C225.824 161.381 225.418 163.015 224.618 164.474C223.818 165.932 222.688 167.051 221.241 167.84C219.794 168.63 218.073 169.014 216.1 169.014C214.335 169.014 212.691 168.652 211.145 167.928C209.599 167.204 208.393 166.206 207.527 164.945C206.661 163.684 206.223 162.247 206.234 160.657H212.745C212.811 161.688 213.14 162.5 213.732 163.103C214.324 163.706 215.102 164.002 216.067 164.002C218.249 164.002 219.345 162.39 219.345 159.155C219.345 156.172 218.007 154.67 215.333 154.67C213.82 154.67 212.691 155.152 211.945 156.128L206.771 154.9Z" fill="white"/>
<path d="M229.266 145.94C229.266 144.207 229.836 142.803 230.965 141.74C232.094 140.676 233.607 140.139 235.515 140.139C237.444 140.139 238.968 140.665 240.086 141.729C241.204 142.792 241.763 144.229 241.763 146.039V147.431C241.763 149.164 241.204 150.557 240.086 151.61C238.968 152.662 237.455 153.189 235.559 153.189C233.673 153.189 232.149 152.662 230.998 151.621C229.847 150.579 229.277 149.142 229.277 147.311V145.94H229.266ZM233.443 147.42C233.443 148.089 233.629 148.627 234.002 149.043C234.375 149.46 234.89 149.669 235.548 149.669C236.896 149.669 237.576 148.813 237.576 147.102V145.951C237.576 145.282 237.4 144.745 237.039 144.317C236.677 143.889 236.172 143.681 235.515 143.681C234.89 143.681 234.386 143.889 234.013 144.306C233.64 144.723 233.454 145.282 233.454 146.006V147.42H233.443ZM236.775 166.502L233.75 164.978L247.453 143.045L250.479 144.569L236.775 166.502ZM242.596 161.721C242.596 159.977 243.167 158.573 244.307 157.52C245.447 156.468 246.96 155.941 248.845 155.941C250.764 155.941 252.276 156.457 253.417 157.498C254.557 158.54 255.116 159.988 255.116 161.852V163.201C255.116 164.945 254.557 166.348 253.438 167.401C252.32 168.454 250.807 168.98 248.889 168.98C247.003 168.98 245.48 168.454 244.329 167.412C243.178 166.37 242.607 164.934 242.607 163.102V161.721H242.596ZM246.762 163.201C246.762 163.804 246.971 164.331 247.376 164.78C247.782 165.23 248.286 165.46 248.878 165.46C250.128 165.46 250.797 164.868 250.906 163.695L250.928 161.721C250.928 161.041 250.742 160.503 250.369 160.087C249.996 159.67 249.492 159.462 248.845 159.462C248.231 159.462 247.738 159.659 247.365 160.043C246.993 160.427 246.795 160.953 246.773 161.622V163.201H246.762Z" fill="white"/>
<path d="M162.668 181.746C162.668 181.241 162.767 180.781 162.975 180.364C163.172 179.958 163.457 179.64 163.83 179.421C164.192 179.201 164.62 179.092 165.091 179.092C165.793 179.092 166.363 179.322 166.801 179.772C167.24 180.221 167.481 180.825 167.514 181.57V181.844C167.514 182.36 167.415 182.82 167.218 183.226C167.02 183.632 166.735 183.939 166.374 184.169C166.001 184.389 165.584 184.498 165.102 184.498C164.367 184.498 163.775 184.257 163.337 183.764C162.898 183.27 162.679 182.623 162.679 181.801V181.746H162.668ZM163.841 181.844C163.841 182.382 163.951 182.798 164.17 183.106C164.389 183.413 164.696 183.566 165.091 183.566C165.486 183.566 165.792 183.413 166.012 183.106C166.231 182.798 166.341 182.349 166.341 181.746C166.341 181.219 166.231 180.803 166.001 180.496C165.771 180.188 165.464 180.035 165.08 180.035C164.696 180.035 164.389 180.188 164.17 180.496C163.951 180.781 163.841 181.241 163.841 181.844Z" fill="white"/>
<path d="M168.917 184.4V180.057H168.128V179.179H168.917V178.708C168.917 178.127 169.081 177.688 169.399 177.37C169.717 177.052 170.167 176.898 170.748 176.898C170.956 176.898 171.175 176.931 171.405 176.986L171.372 177.907C171.241 177.885 171.098 177.863 170.923 177.863C170.364 177.863 170.09 178.149 170.09 178.73V179.179H171.153V180.046H170.09V184.389H168.917V184.4Z" fill="white"/>
<path d="M175.922 177.918V179.179H176.843V180.046H175.922V182.952C175.922 183.149 175.966 183.292 176.043 183.379C176.119 183.467 176.262 183.511 176.459 183.511C176.591 183.511 176.733 183.5 176.865 183.467V184.377C176.602 184.454 176.339 184.487 176.097 184.487C175.198 184.487 174.749 183.994 174.749 182.996V180.046H173.894V179.179H174.749V177.907H175.922V177.918Z" fill="white"/>
<path d="M177.369 181.746C177.369 181.241 177.468 180.781 177.676 180.364C177.873 179.958 178.158 179.64 178.531 179.421C178.893 179.201 179.32 179.092 179.792 179.092C180.493 179.092 181.063 179.322 181.502 179.772C181.94 180.221 182.182 180.825 182.214 181.57V181.844C182.214 182.36 182.116 182.82 181.918 183.226C181.721 183.632 181.436 183.939 181.074 184.169C180.702 184.389 180.285 184.498 179.803 184.498C179.068 184.498 178.476 184.257 178.038 183.764C177.599 183.27 177.38 182.623 177.38 181.801V181.746H177.369ZM178.542 181.844C178.542 182.382 178.652 182.798 178.871 183.106C179.09 183.413 179.397 183.566 179.792 183.566C180.186 183.566 180.493 183.413 180.713 183.106C180.932 182.798 181.041 182.349 181.041 181.746C181.041 181.219 180.932 180.803 180.702 180.496C180.471 180.188 180.164 180.035 179.781 180.035C179.397 180.035 179.09 180.188 178.871 180.496C178.652 180.781 178.542 181.241 178.542 181.844Z" fill="white"/>
<path d="M184.681 177.918V179.179H185.602V180.046H184.681V182.952C184.681 183.149 184.725 183.292 184.802 183.379C184.878 183.467 185.021 183.511 185.218 183.511C185.35 183.511 185.492 183.5 185.624 183.467V184.377C185.361 184.454 185.098 184.487 184.856 184.487C183.958 184.487 183.508 183.994 183.508 182.996V180.046H182.653V179.179H183.508V177.907H184.681V177.918Z" fill="white"/>
<path d="M189.603 184.4C189.548 184.301 189.505 184.136 189.472 183.917C189.099 184.301 188.639 184.498 188.101 184.498C187.575 184.498 187.148 184.345 186.819 184.049C186.49 183.753 186.325 183.38 186.325 182.941C186.325 182.382 186.534 181.954 186.939 181.658C187.356 181.362 187.937 181.208 188.715 181.208H189.428V180.868C189.428 180.594 189.351 180.386 189.198 180.221C189.044 180.057 188.814 179.98 188.507 179.98C188.244 179.98 188.025 180.046 187.849 180.177C187.674 180.309 187.597 180.485 187.597 180.682H186.424C186.424 180.397 186.523 180.134 186.709 179.881C186.895 179.629 187.159 179.432 187.488 179.3C187.816 179.158 188.178 179.092 188.584 179.092C189.198 179.092 189.68 179.245 190.042 179.552C190.404 179.859 190.59 180.287 190.601 180.846V183.193C190.601 183.665 190.667 184.038 190.798 184.312V184.389H189.603V184.4ZM188.321 183.555C188.551 183.555 188.77 183.5 188.978 183.391C189.187 183.281 189.34 183.127 189.439 182.941V181.954H188.803C188.375 181.954 188.047 182.031 187.827 182.184C187.608 182.338 187.498 182.546 187.498 182.82C187.498 183.051 187.575 183.226 187.718 183.358C187.871 183.489 188.068 183.555 188.321 183.555Z" fill="white"/>
<path d="M193.078 184.399H191.905V176.997H193.078V184.399Z" fill="white"/>
<path d="M201.388 182.777L202.221 179.18H203.361L201.936 184.389H200.971L199.853 180.803L198.757 184.389H197.792L196.367 179.18H197.507L198.351 182.744L199.426 179.18H200.303L201.388 182.777Z" fill="white"/>
<path d="M203.92 181.746C203.92 181.241 204.019 180.781 204.227 180.364C204.425 179.958 204.71 179.64 205.082 179.421C205.444 179.201 205.872 179.092 206.343 179.092C207.045 179.092 207.615 179.322 208.053 179.772C208.492 180.221 208.733 180.825 208.766 181.57V181.844C208.766 182.36 208.667 182.82 208.47 183.226C208.272 183.632 207.988 183.939 207.626 184.169C207.253 184.389 206.836 184.498 206.354 184.498C205.62 184.498 205.028 184.257 204.589 183.764C204.151 183.27 203.931 182.623 203.931 181.801V181.746H203.92ZM205.093 181.844C205.093 182.382 205.203 182.798 205.422 183.106C205.642 183.413 205.948 183.566 206.343 183.566C206.738 183.566 207.045 183.413 207.264 183.106C207.483 182.798 207.593 182.349 207.593 181.746C207.593 181.219 207.483 180.803 207.253 180.496C207.023 180.188 206.716 180.035 206.332 180.035C205.948 180.035 205.652 180.188 205.422 180.496C205.203 180.781 205.093 181.241 205.093 181.844Z" fill="white"/>
<path d="M212.482 180.254C212.329 180.233 212.164 180.211 212 180.211C211.463 180.211 211.101 180.419 210.915 180.825V184.389H209.741V179.18H210.86L210.893 179.761C211.178 179.311 211.572 179.081 212.066 179.081C212.23 179.081 212.372 179.103 212.482 179.147V180.254Z" fill="white"/>
<path d="M214.466 184.399H213.293V176.997H214.466V184.399Z" fill="white"/>
<path d="M215.519 181.756C215.519 180.956 215.705 180.309 216.078 179.826C216.451 179.344 216.944 179.091 217.58 179.091C218.128 179.091 218.577 179.289 218.917 179.673V177.008H220.09V184.41H219.027L218.972 183.873C218.621 184.3 218.15 184.509 217.569 184.509C216.955 184.509 216.461 184.268 216.089 183.774C215.716 183.259 215.519 182.601 215.519 181.756ZM216.692 181.855C216.692 182.381 216.79 182.798 216.999 183.094C217.207 183.39 217.492 183.544 217.865 183.544C218.347 183.544 218.698 183.335 218.917 182.908V180.682C218.698 180.265 218.358 180.056 217.876 180.056C217.492 180.056 217.207 180.21 216.999 180.506C216.801 180.791 216.692 181.252 216.692 181.855Z" fill="white"/>
<path d="M225.889 182.777L226.722 179.18H227.863L226.437 184.389H225.473L224.355 180.803L223.258 184.389H222.294L220.868 179.18H222.009L222.853 182.744L223.927 179.18H224.804L225.889 182.777Z" fill="white"/>
<path d="M228.641 177.83C228.641 177.655 228.696 177.501 228.816 177.381C228.937 177.26 229.09 177.205 229.31 177.205C229.529 177.205 229.682 177.26 229.803 177.381C229.924 177.501 229.978 177.655 229.978 177.83C229.978 178.006 229.924 178.159 229.803 178.269C229.682 178.389 229.518 178.444 229.31 178.444C229.101 178.444 228.937 178.389 228.816 178.269C228.707 178.148 228.641 178.006 228.641 177.83ZM229.891 184.399H228.718V179.179H229.891V184.399Z" fill="white"/>
<path d="M230.943 181.756C230.943 180.956 231.129 180.309 231.502 179.826C231.875 179.344 232.368 179.091 233.004 179.091C233.552 179.091 234.002 179.289 234.341 179.673V177.008H235.514V184.41H234.451L234.396 183.873C234.045 184.3 233.574 184.509 232.993 184.509C232.379 184.509 231.886 184.268 231.513 183.774C231.129 183.259 230.943 182.601 230.943 181.756ZM232.116 181.855C232.116 182.381 232.215 182.798 232.423 183.094C232.631 183.39 232.916 183.544 233.289 183.544C233.771 183.544 234.122 183.335 234.341 182.908V180.682C234.122 180.265 233.782 180.056 233.3 180.056C232.916 180.056 232.631 180.21 232.423 180.506C232.215 180.791 232.116 181.252 232.116 181.855Z" fill="white"/>
<path d="M239.022 184.498C238.277 184.498 237.685 184.268 237.225 183.796C236.764 183.325 236.534 182.711 236.534 181.932V181.789C236.534 181.274 236.632 180.802 236.841 180.397C237.038 179.991 237.323 179.673 237.685 179.442C238.047 179.212 238.452 179.103 238.902 179.103C239.614 179.103 240.162 179.333 240.546 179.782C240.93 180.232 241.127 180.879 241.127 181.702V182.173H237.718C237.751 182.601 237.893 182.941 238.145 183.193C238.398 183.445 238.715 183.566 239.099 183.566C239.636 183.566 240.075 183.347 240.415 182.919L241.051 183.522C240.842 183.829 240.557 184.07 240.217 184.246C239.856 184.41 239.461 184.498 239.022 184.498ZM238.891 180.024C238.573 180.024 238.31 180.133 238.112 180.364C237.915 180.594 237.795 180.901 237.729 181.307H239.965V181.219C239.943 180.824 239.834 180.528 239.647 180.331C239.461 180.122 239.209 180.024 238.891 180.024Z" fill="white"/>
<path d="M183.607 193.688C183.607 194.5 183.42 195.136 183.059 195.618C182.697 196.101 182.204 196.342 181.59 196.342C181.02 196.342 180.559 196.156 180.219 195.783V198.25H179.046V191.034H180.121L180.164 191.561C180.504 191.144 180.976 190.936 181.568 190.936C182.204 190.936 182.697 191.177 183.059 191.648C183.42 192.12 183.596 192.778 183.596 193.622V193.688H183.607ZM182.445 193.589C182.445 193.074 182.346 192.657 182.138 192.35C181.929 192.043 181.633 191.89 181.25 191.89C180.767 191.89 180.428 192.087 180.219 192.482V194.796C180.428 195.202 180.778 195.399 181.261 195.399C181.633 195.399 181.929 195.245 182.138 194.949C182.335 194.653 182.445 194.193 182.445 193.589Z" fill="white"/>
<path d="M184.374 193.589C184.374 193.085 184.473 192.624 184.681 192.208C184.878 191.802 185.163 191.484 185.536 191.265C185.898 191.045 186.325 190.936 186.797 190.936C187.498 190.936 188.068 191.166 188.507 191.616C188.945 192.065 189.187 192.668 189.22 193.414V193.688C189.22 194.204 189.121 194.664 188.924 195.07C188.726 195.476 188.441 195.783 188.079 196.013C187.707 196.232 187.29 196.342 186.808 196.342C186.073 196.342 185.481 196.101 185.043 195.607C184.604 195.114 184.385 194.467 184.385 193.644V193.589H184.374ZM185.547 193.688C185.547 194.225 185.657 194.642 185.876 194.949C186.095 195.256 186.402 195.41 186.797 195.41C187.191 195.41 187.498 195.256 187.718 194.949C187.937 194.642 188.046 194.193 188.046 193.589C188.046 193.063 187.937 192.646 187.707 192.339C187.476 192.032 187.17 191.879 186.786 191.879C186.402 191.879 186.106 192.032 185.876 192.339C185.657 192.624 185.547 193.085 185.547 193.688Z" fill="white"/>
<path d="M194.777 193.688C194.777 194.5 194.591 195.136 194.229 195.618C193.868 196.101 193.374 196.342 192.76 196.342C192.19 196.342 191.73 196.156 191.39 195.783V198.25H190.217V191.034H191.291L191.335 191.561C191.675 191.144 192.146 190.936 192.738 190.936C193.374 190.936 193.879 191.177 194.24 191.648C194.602 192.12 194.777 192.778 194.777 193.622V193.688ZM193.616 193.589C193.616 193.074 193.517 192.657 193.309 192.35C193.1 192.043 192.804 191.89 192.421 191.89C191.938 191.89 191.598 192.087 191.39 192.482V194.796C191.598 195.202 191.949 195.399 192.431 195.399C192.804 195.399 193.1 195.245 193.309 194.949C193.506 194.653 193.616 194.193 193.616 193.589Z" fill="white"/>
<path d="M198.932 195.728C198.592 196.134 198.099 196.331 197.463 196.331C196.893 196.331 196.466 196.167 196.181 195.838C195.885 195.509 195.742 195.026 195.742 194.401V191.023H196.915V194.39C196.915 195.048 197.189 195.388 197.737 195.388C198.308 195.388 198.691 195.18 198.888 194.774V191.023H200.062V196.232H198.954L198.932 195.728Z" fill="white"/>
<path d="M202.495 196.243H201.322V188.841H202.495V196.243Z" fill="white"/>
<path d="M206.88 196.243C206.825 196.145 206.782 195.98 206.749 195.761C206.376 196.145 205.916 196.342 205.378 196.342C204.852 196.342 204.425 196.188 204.096 195.892C203.767 195.596 203.602 195.223 203.602 194.785C203.602 194.225 203.811 193.798 204.216 193.502C204.633 193.206 205.225 193.052 205.992 193.052H206.705V192.712C206.705 192.438 206.628 192.23 206.475 192.065C206.321 191.901 206.091 191.824 205.784 191.824C205.521 191.824 205.302 191.89 205.126 192.021C204.951 192.153 204.874 192.328 204.874 192.526H203.701C203.701 192.241 203.8 191.977 203.986 191.725C204.172 191.473 204.436 191.276 204.764 191.144C205.093 191.001 205.455 190.936 205.861 190.936C206.475 190.936 206.957 191.089 207.319 191.396C207.681 191.703 207.867 192.131 207.878 192.69V195.037C207.878 195.509 207.944 195.881 208.075 196.156V196.232H206.88V196.243ZM205.598 195.399C205.828 195.399 206.047 195.344 206.255 195.234C206.464 195.125 206.617 194.971 206.716 194.785V193.798H206.08C205.641 193.798 205.324 193.875 205.104 194.028C204.885 194.182 204.775 194.39 204.775 194.664C204.775 194.894 204.852 195.07 205.006 195.202C205.148 195.333 205.345 195.399 205.598 195.399Z" fill="white"/>
<path d="M210.575 189.762V191.034H211.495V191.9H210.575V194.806C210.575 195.004 210.619 195.146 210.695 195.234C210.772 195.322 210.915 195.366 211.112 195.366C211.243 195.366 211.386 195.355 211.517 195.322V196.232C211.254 196.309 210.991 196.342 210.75 196.342C209.851 196.342 209.402 195.848 209.402 194.85V191.9H208.547V191.034H209.402V189.762H210.575Z" fill="white"/>
<path d="M212.394 189.674C212.394 189.498 212.449 189.345 212.57 189.224C212.679 189.104 212.844 189.049 213.063 189.049C213.282 189.049 213.436 189.104 213.556 189.224C213.677 189.345 213.732 189.498 213.732 189.674C213.732 189.849 213.677 190.003 213.556 190.113C213.436 190.233 213.282 190.288 213.063 190.288C212.844 190.288 212.69 190.233 212.57 190.113C212.449 189.992 212.394 189.849 212.394 189.674ZM213.633 196.243H212.46V191.034H213.633V196.243Z" fill="white"/>
<path d="M214.686 193.589C214.686 193.085 214.784 192.624 214.993 192.208C215.19 191.802 215.475 191.484 215.848 191.265C216.209 191.045 216.637 190.936 217.108 190.936C217.81 190.936 218.38 191.166 218.818 191.616C219.257 192.065 219.498 192.668 219.531 193.414V193.688C219.531 194.204 219.432 194.664 219.235 195.07C219.038 195.476 218.753 195.783 218.391 196.013C218.018 196.232 217.602 196.342 217.119 196.342C216.385 196.342 215.793 196.101 215.354 195.607C214.916 195.114 214.697 194.467 214.697 193.644V193.589H214.686ZM215.859 193.688C215.859 194.225 215.968 194.642 216.187 194.949C216.407 195.256 216.714 195.41 217.108 195.41C217.503 195.41 217.81 195.256 218.029 194.949C218.248 194.642 218.358 194.193 218.358 193.589C218.358 193.063 218.248 192.646 218.018 192.339C217.788 192.032 217.481 191.879 217.097 191.879C216.714 191.879 216.418 192.032 216.187 192.339C215.968 192.624 215.859 193.085 215.859 193.688Z" fill="white"/>
<path d="M221.614 191.023L221.647 191.627C222.031 191.166 222.535 190.925 223.16 190.925C224.245 190.925 224.793 191.55 224.815 192.789V196.233H223.642V192.855C223.642 192.526 223.576 192.274 223.423 192.12C223.28 191.967 223.05 191.879 222.721 191.879C222.25 191.879 221.899 192.098 221.669 192.515V196.222H220.496V191.012H221.614V191.023Z" fill="white"/>
<path d="M344.877 162.303C389.68 162.303 426 125.97 426 81.1517C426 36.3328 389.68 0 344.877 0C300.074 0 263.754 36.3328 263.754 81.1517C263.754 125.97 300.074 162.303 344.877 162.303Z" fill="#2B338D"/>
<path d="M324.322 24.1689H323.106L319.981 19.1901V24.1689H318.764V17.1504H319.981L323.117 22.1511V17.1504H324.322V24.1689Z" fill="white"/>
<path d="M328.806 23.6538C328.466 24.0596 327.973 24.2569 327.337 24.2569C326.767 24.2569 326.339 24.0925 326.054 23.7635C325.758 23.4345 325.616 22.9519 325.616 22.3268V18.9492H326.789V22.3159C326.789 22.9739 327.063 23.3138 327.611 23.3138C328.181 23.3138 328.565 23.1055 328.762 22.6997V18.9492H329.935V24.1583H328.828L328.806 23.6538Z" fill="white"/>
<path d="M332.226 18.9491L332.259 19.4974C332.621 19.0697 333.125 18.8613 333.761 18.8613C334.463 18.8613 334.934 19.1245 335.197 19.6619C335.581 19.1245 336.107 18.8613 336.798 18.8613C337.368 18.8613 337.795 19.0258 338.08 19.3329C338.365 19.6509 338.508 20.1225 338.508 20.7366V24.1581H337.335V20.7695C337.335 20.4405 337.258 20.1993 337.116 20.0457C336.973 19.8922 336.732 19.8154 336.392 19.8154C336.129 19.8154 335.91 19.8922 335.734 20.0347C335.57 20.1773 335.449 20.3637 335.384 20.594V24.1691H334.211V20.7366C334.189 20.1225 333.882 19.8154 333.268 19.8154C332.796 19.8154 332.468 20.0019 332.27 20.3857V24.1691H331.097V18.9601H332.226V18.9491Z" fill="white"/>
<path d="M344.285 21.614C344.285 22.4255 344.099 23.0725 343.748 23.5441C343.386 24.0266 342.893 24.2569 342.257 24.2569C341.643 24.2569 341.172 24.0376 340.832 23.5989L340.777 24.1582H339.714V16.7559H340.887V19.4426C341.227 19.0479 341.676 18.8504 342.246 18.8504C342.882 18.8504 343.386 19.0917 343.748 19.5633C344.11 20.0348 344.296 20.6928 344.296 21.5482V21.614H344.285ZM343.123 21.5153C343.123 20.956 343.025 20.5283 342.827 20.2432C342.63 19.9581 342.334 19.8155 341.961 19.8155C341.457 19.8155 341.095 20.0348 340.898 20.4844V22.6339C341.106 23.0835 341.468 23.3138 341.972 23.3138C342.334 23.3138 342.619 23.1822 342.816 22.908C343.014 22.6339 343.123 22.2281 343.123 21.6688V21.5153Z" fill="white"/>
<path d="M347.563 24.2675C346.818 24.2675 346.215 24.0372 345.754 23.5657C345.294 23.0941 345.064 22.48 345.064 21.7014V21.5589C345.064 21.0434 345.162 20.5719 345.37 20.1661C345.568 19.7603 345.853 19.4423 346.215 19.212C346.576 18.9817 346.982 18.8721 347.431 18.8721C348.144 18.8721 348.692 19.1024 349.076 19.552C349.46 20.0016 349.657 20.6486 349.657 21.4711V21.9427H346.248C346.28 22.3704 346.423 22.7103 346.675 22.9625C346.927 23.2148 347.245 23.3354 347.629 23.3354C348.166 23.3354 348.604 23.1161 348.944 22.6884L349.58 23.2915C349.372 23.5986 349.087 23.8399 348.747 24.0153C348.385 24.1798 348.001 24.2675 347.563 24.2675ZM347.42 19.7932C347.103 19.7932 346.839 19.9029 346.642 20.1332C346.445 20.3635 346.324 20.6706 346.258 21.0763H348.495V20.9886C348.473 20.5938 348.363 20.2977 348.177 20.1003C348.002 19.8919 347.749 19.7932 347.42 19.7932Z" fill="white"/>
<path d="M353.297 20.024C353.143 20.0021 352.979 19.9802 352.814 19.9802C352.277 19.9802 351.915 20.1885 351.729 20.5943V24.1584H350.556V18.9493H351.674L351.707 19.5305C351.992 19.0809 352.387 18.8506 352.88 18.8506C353.044 18.8506 353.187 18.8725 353.297 18.9164V20.024Z" fill="white"/>
<path d="M360.06 17.1174V18.0824H359.918C359.26 18.0934 358.734 18.2689 358.35 18.6198C357.967 18.9707 357.725 19.4642 357.649 20.1112C358.021 19.7164 358.504 19.519 359.085 19.519C359.699 19.519 360.192 19.7384 360.554 20.177C360.916 20.6157 361.091 21.175 361.091 21.8658C361.091 22.5787 360.883 23.1599 360.466 23.5986C360.049 24.0372 359.501 24.2565 358.822 24.2565C358.12 24.2565 357.55 23.9934 357.122 23.4779C356.684 22.9625 356.465 22.2826 356.465 21.4381V21.0434C356.465 19.8151 356.761 18.8501 357.364 18.1482C357.967 17.4464 358.822 17.1064 359.951 17.1064H360.06V17.1174ZM358.8 20.4622C358.547 20.4622 358.306 20.5389 358.098 20.6814C357.879 20.824 357.725 21.0214 357.627 21.2627V21.6246C357.627 22.14 357.736 22.5568 357.956 22.8638C358.175 23.1709 358.46 23.3244 358.8 23.3244C359.139 23.3244 359.425 23.1928 359.622 22.9296C359.819 22.6664 359.929 22.3265 359.929 21.8988C359.929 21.4711 359.83 21.1311 359.622 20.8679C359.414 20.6047 359.139 20.4622 358.8 20.4622Z" fill="white"/>
<path d="M366.594 21.2081C366.594 22.217 366.408 22.9737 366.024 23.4891C365.651 24.0045 365.07 24.2567 364.303 24.2567C363.546 24.2567 362.976 24.0045 362.593 23.511C362.209 23.0065 362.012 22.2718 362.001 21.2958V20.0785C362.001 19.0696 362.187 18.3129 362.571 17.8084C362.944 17.304 363.525 17.0518 364.303 17.0518C365.07 17.0518 365.64 17.2931 366.024 17.7866C366.397 18.28 366.594 19.0148 366.605 19.9908V21.2081H366.594ZM365.421 19.9031C365.421 19.2451 365.333 18.7626 365.147 18.4555C364.961 18.1484 364.676 17.9949 364.292 17.9949C363.908 17.9949 363.634 18.1374 363.448 18.4335C363.272 18.7187 363.174 19.1792 363.163 19.7934V21.3835C363.163 22.0415 363.251 22.5241 363.437 22.853C363.623 23.182 363.908 23.3356 364.303 23.3356C364.676 23.3356 364.961 23.182 365.136 22.8859C365.311 22.5898 365.41 22.1183 365.421 21.4932V19.9031Z" fill="white"/>
<path d="M370.409 20.3085H372.24V21.3722H370.409V23.4559H369.269V21.3722H367.427V20.3085H369.269V18.3564H370.409V20.3085Z" fill="white"/>
<path d="M320.167 47.8565H310.739V46.2445L315.409 41.145C316.089 40.3883 316.561 39.7632 316.846 39.2588C317.131 38.7543 317.273 38.2499 317.273 37.7455C317.273 37.0765 317.087 36.5391 316.714 36.1224C316.341 35.7057 315.837 35.5083 315.201 35.5083C314.445 35.5083 313.853 35.7386 313.436 36.1992C313.02 36.6597 312.811 37.2958 312.811 38.0963H310.465C310.465 37.2409 310.663 36.4733 311.046 35.7824C311.43 35.1025 311.989 34.5651 312.713 34.1923C313.436 33.8194 314.269 33.6221 315.212 33.6221C316.571 33.6221 317.646 33.962 318.435 34.6529C319.224 35.3328 319.619 36.2869 319.619 37.4932C319.619 38.195 319.422 38.9298 319.027 39.6975C318.633 40.4651 317.986 41.3424 317.087 42.3185L313.655 45.9922H320.167V47.8565Z" fill="white"/>
<path d="M322.426 51.0153L321.165 50.2586C321.538 49.6774 321.79 49.162 321.932 48.7343C322.075 48.2956 322.14 47.857 322.151 47.4074V45.5869H324.256L324.245 47.2757C324.234 47.9556 324.07 48.6356 323.73 49.3265C323.39 50.0064 322.963 50.5767 322.426 51.0153Z" fill="white"/>
<path d="M335.427 41.9456C335.427 43.9634 335.054 45.4878 334.298 46.5076C333.542 47.5385 332.39 48.0429 330.856 48.0429C329.343 48.0429 328.203 47.5384 327.435 46.5405C326.668 45.5426 326.273 44.0621 326.251 42.0991V39.6755C326.251 37.6577 326.624 36.1444 327.381 35.1354C328.137 34.1265 329.288 33.6221 330.834 33.6221C332.368 33.6221 333.509 34.1155 334.265 35.0915C335.021 36.0675 335.405 37.548 335.427 39.511V41.9456ZM333.081 39.3246C333.081 38.0086 332.906 37.0436 332.544 36.4295C332.182 35.8154 331.612 35.5083 330.834 35.5083C330.066 35.5083 329.507 35.8043 329.146 36.3856C328.784 36.9668 328.597 37.877 328.576 39.1053V42.2855C328.576 43.6015 328.762 44.5775 329.124 45.2136C329.485 45.8497 330.066 46.1786 330.845 46.1786C331.601 46.1786 332.149 45.8825 332.511 45.2903C332.873 44.6981 333.059 43.766 333.081 42.5049V39.3246Z" fill="white"/>
<path d="M344.131 41.9785C343.353 42.8119 342.432 43.2177 341.391 43.2177C340.163 43.2177 339.176 42.79 338.442 41.9237C337.707 41.0573 337.346 39.9277 337.346 38.5131C337.346 37.5919 337.532 36.7475 337.905 36.0018C338.277 35.2561 338.804 34.6639 339.494 34.2472C340.185 33.8304 340.974 33.6221 341.884 33.6221C343.298 33.6221 344.416 34.1485 345.25 35.2012C346.083 36.254 346.488 37.6687 346.488 39.4343V40.0922C346.488 42.6255 345.918 44.5556 344.778 45.8825C343.638 47.2095 341.928 47.8894 339.659 47.9113H339.385V45.9703H339.725C341.106 45.9484 342.169 45.6193 342.904 44.9723C343.627 44.3253 344.044 43.3274 344.131 41.9785ZM341.884 41.3972C342.356 41.3972 342.794 41.2656 343.2 40.9915C343.605 40.7173 343.934 40.3444 344.153 39.8729V38.9627C344.153 37.9319 343.945 37.0984 343.518 36.4623C343.09 35.8263 342.542 35.5192 341.873 35.5192C341.204 35.5192 340.656 35.7934 340.262 36.3527C339.856 36.912 339.659 37.6138 339.659 38.4582C339.659 39.3356 339.856 40.0484 340.262 40.5857C340.667 41.1231 341.204 41.3972 341.884 41.3972Z" fill="white"/>
<path d="M358.142 47.8565H348.714V46.2445L353.384 41.145C354.064 40.3883 354.535 39.7632 354.82 39.2588C355.105 38.7543 355.247 38.2499 355.247 37.7455C355.247 37.0765 355.061 36.5391 354.688 36.1224C354.316 35.7057 353.811 35.5083 353.175 35.5083C352.419 35.5083 351.827 35.7386 351.411 36.1992C350.994 36.6597 350.786 37.2958 350.786 38.0963H348.44C348.44 37.2409 348.637 36.4733 349.021 35.7824C349.404 35.1025 349.964 34.5651 350.687 34.1923C351.411 33.8085 352.244 33.6221 353.186 33.6221C354.546 33.6221 355.62 33.962 356.41 34.6529C357.199 35.3328 357.593 36.2869 357.593 37.4932C357.593 38.195 357.396 38.9298 357.002 39.6975C356.607 40.4651 355.96 41.3424 355.061 42.3185L351.63 45.9922H358.142V47.8565Z" fill="white"/>
<path d="M367.186 37.4279L367.251 38.5135C367.986 37.6581 368.984 37.2305 370.255 37.2305C371.647 37.2305 372.601 37.7678 373.116 38.8316C373.873 37.7678 374.936 37.2305 376.318 37.2305C377.469 37.2305 378.324 37.5485 378.883 38.1845C379.442 38.8206 379.727 39.7637 379.749 41.0029V47.857H377.403V41.0687C377.403 40.4107 377.26 39.9172 376.964 39.6102C376.668 39.3031 376.197 39.1496 375.528 39.1496C374.991 39.1496 374.563 39.2922 374.224 39.5773C373.884 39.8624 373.654 40.2352 373.511 40.6958L373.522 47.846H371.176V40.981C371.143 39.7527 370.518 39.1386 369.301 39.1386C368.359 39.1386 367.701 39.5224 367.306 40.2901V47.846H364.96V37.4169H367.186V37.4279Z" fill="white"/>
<path d="M306.124 103.129H283.278V98.1826L293.803 87.1175C296.401 84.1675 297.694 81.8207 297.694 80.077C297.694 78.6624 297.387 77.5986 296.773 76.8639C296.159 76.1291 295.272 75.7672 294.099 75.7672C292.947 75.7672 292.005 76.2607 291.292 77.2367C290.569 78.2237 290.218 79.441 290.218 80.9105H282.621C282.621 78.9036 283.125 77.0503 284.122 75.3395C285.131 73.6397 286.523 72.3128 288.299 71.3477C290.075 70.3827 292.081 69.9111 294.285 69.9111C297.826 69.9111 300.545 70.7336 302.463 72.3676C304.381 74.0016 305.324 76.3485 305.324 79.4081C305.324 80.7021 305.083 81.9523 304.601 83.1696C304.118 84.3978 303.373 85.6699 302.364 87.0188C301.356 88.3677 299.722 90.1552 297.475 92.4033L293.243 97.2834H306.124V103.129Z" fill="white"/>
<path d="M326.745 103.129H319.148V78.9257L311.682 81.108V75.3506L326.043 70.3828H326.745V103.129Z" fill="white"/>
<path d="M341.424 95.7705C342.619 95.7705 343.616 96.1324 344.417 96.8342C345.206 97.547 345.612 98.4573 345.612 99.5649C345.612 100.673 345.217 101.583 344.417 102.296C343.616 103.008 342.63 103.359 341.424 103.359C340.207 103.359 339.209 102.997 338.42 102.285C337.631 101.561 337.236 100.662 337.236 99.5649C337.236 98.4683 337.631 97.558 338.42 96.8452C339.209 96.1324 340.207 95.7705 341.424 95.7705Z" fill="white"/>
<path d="M350.983 87.1286L352.989 70.3828H372.119V76.2718H359.15L358.405 82.7749C358.942 82.4569 359.655 82.1827 360.532 81.9415C361.409 81.7002 362.264 81.5796 363.108 81.5796C366.364 81.5796 368.863 82.5446 370.606 84.4637C372.349 86.3938 373.226 89.0916 373.226 92.568C373.226 94.6626 372.755 96.5707 371.823 98.2705C370.88 99.9703 369.576 101.286 367.876 102.196C366.177 103.107 364.182 103.567 361.869 103.567C359.819 103.567 357.89 103.14 356.092 102.295C354.294 101.451 352.88 100.288 351.86 98.8079C350.841 97.3274 350.336 95.6605 350.358 93.8072H357.955C358.032 95.0025 358.416 95.9566 359.106 96.6584C359.797 97.3603 360.707 97.7112 361.825 97.7112C364.368 97.7112 365.651 95.825 365.651 92.0525C365.651 88.5652 364.094 86.8216 360.97 86.8216C359.205 86.8216 357.879 87.3918 357.013 88.5323L350.983 87.1286Z" fill="white"/>
<path d="M377.217 76.6775C377.217 74.6487 377.874 73.0146 379.19 71.7754C380.505 70.5362 382.281 69.9111 384.496 69.9111C386.743 69.9111 388.519 70.5253 389.824 71.7645C391.128 73.0037 391.775 74.6816 391.775 76.7871V78.4101C391.775 80.4389 391.128 82.062 389.824 83.2902C388.519 84.5184 386.754 85.1326 384.54 85.1326C382.336 85.1326 380.56 84.5185 379.223 83.3012C377.885 82.0839 377.206 80.406 377.206 78.2785V76.6775H377.217ZM382.095 78.3991C382.095 79.1778 382.314 79.8029 382.742 80.2854C383.169 80.7679 383.772 81.0092 384.54 81.0092C386.118 81.0092 386.897 80.0112 386.897 78.0153V76.6775C386.897 75.8989 386.688 75.2627 386.272 74.7693C385.855 74.2758 385.263 74.0235 384.496 74.0235C383.761 74.0235 383.18 74.2648 382.742 74.7474C382.303 75.2299 382.095 75.8879 382.095 76.7213V78.3991ZM385.987 100.672L382.457 98.8954L398.44 73.2998L401.97 75.0764L385.987 100.672ZM392.772 95.1011C392.772 93.0613 393.441 91.4273 394.757 90.199C396.083 88.9708 397.848 88.3567 400.052 88.3567C402.288 88.3567 404.064 88.9599 405.379 90.1772C406.695 91.3944 407.353 93.0832 407.353 95.2546V96.8337C407.353 98.8735 406.706 100.508 405.401 101.736C404.097 102.964 402.332 103.578 400.096 103.578C397.892 103.578 396.116 102.964 394.779 101.747C393.441 100.529 392.762 98.8516 392.762 96.7241V95.1011H392.772ZM397.629 96.8228C397.629 97.5247 397.87 98.1388 398.353 98.6652C398.835 99.1916 399.416 99.4547 400.107 99.4547C401.565 99.4547 402.343 98.7748 402.463 97.393L402.485 95.0901C402.485 94.3005 402.266 93.6645 401.839 93.182C401.411 92.6994 400.808 92.4581 400.063 92.4581C399.339 92.4581 398.769 92.6884 398.331 93.138C397.892 93.5877 397.662 94.2018 397.629 94.9804V96.8228Z" fill="white"/>
<path d="M306.058 116.266C306.058 115.762 306.157 115.301 306.365 114.884C306.563 114.479 306.848 114.161 307.22 113.941C307.582 113.722 308.01 113.612 308.481 113.612C309.183 113.612 309.753 113.843 310.191 114.292C310.63 114.742 310.871 115.345 310.904 116.091V116.365C310.904 116.88 310.805 117.341 310.608 117.747C310.411 118.152 310.125 118.459 309.764 118.69C309.391 118.909 308.975 119.019 308.492 119.019C307.758 119.019 307.166 118.777 306.727 118.284C306.289 117.79 306.069 117.143 306.069 116.321V116.266H306.058ZM307.231 116.365C307.231 116.902 307.341 117.319 307.56 117.626C307.779 117.933 308.087 118.087 308.481 118.087C308.876 118.087 309.183 117.933 309.402 117.626C309.621 117.319 309.731 116.869 309.731 116.266C309.731 115.74 309.621 115.323 309.391 115.016C309.161 114.709 308.854 114.555 308.47 114.555C308.087 114.555 307.779 114.709 307.56 115.016C307.341 115.301 307.231 115.762 307.231 116.365Z" fill="white"/>
<path d="M312.307 118.92V114.577H311.518V113.711H312.307V113.239C312.307 112.658 312.471 112.219 312.789 111.901C313.107 111.583 313.557 111.43 314.138 111.43C314.346 111.43 314.565 111.463 314.796 111.517L314.763 112.439C314.631 112.417 314.489 112.395 314.313 112.395C313.754 112.395 313.48 112.68 313.48 113.261V113.722H314.543V114.588H313.48V118.931H312.307V118.92Z" fill="white"/>
<path d="M319.312 112.438V113.711H320.233V114.577H319.312V117.483C319.312 117.68 319.356 117.823 319.433 117.911C319.51 117.998 319.652 118.042 319.849 118.042C319.981 118.042 320.123 118.031 320.255 117.998V118.909C319.992 118.985 319.729 119.018 319.488 119.018C318.589 119.018 318.139 118.525 318.139 117.527V114.577H317.284V113.711H318.139V112.438H319.312Z" fill="white"/>
<path d="M320.77 116.266C320.77 115.762 320.869 115.301 321.077 114.884C321.274 114.479 321.559 114.161 321.932 113.941C322.294 113.722 322.721 113.612 323.193 113.612C323.894 113.612 324.465 113.843 324.903 114.292C325.342 114.742 325.583 115.345 325.616 116.091V116.365C325.616 116.88 325.517 117.341 325.32 117.747C325.122 118.152 324.837 118.459 324.476 118.69C324.103 118.909 323.686 119.019 323.204 119.019C322.469 119.019 321.877 118.777 321.439 118.284C321 117.79 320.781 117.143 320.781 116.321V116.266H320.77ZM321.932 116.365C321.932 116.902 322.042 117.319 322.261 117.626C322.48 117.933 322.787 118.087 323.182 118.087C323.577 118.087 323.884 117.933 324.103 117.626C324.322 117.319 324.432 116.869 324.432 116.266C324.432 115.74 324.322 115.323 324.092 115.016C323.862 114.709 323.555 114.555 323.171 114.555C322.787 114.555 322.491 114.709 322.261 115.016C322.053 115.301 321.932 115.762 321.932 116.365Z" fill="white"/>
<path d="M328.071 112.438V113.711H328.992V114.577H328.071V117.483C328.071 117.68 328.115 117.823 328.192 117.911C328.269 117.998 328.411 118.042 328.608 118.042C328.74 118.042 328.882 118.031 329.014 117.998V118.909C328.751 118.985 328.488 119.018 328.247 119.018C327.348 119.018 326.898 118.525 326.898 117.527V114.577H326.043V113.711H326.898V112.438H328.071Z" fill="white"/>
<path d="M332.993 118.92C332.939 118.821 332.895 118.657 332.862 118.437C332.489 118.821 332.029 119.019 331.492 119.019C330.965 119.019 330.538 118.865 330.209 118.569C329.88 118.273 329.716 117.9 329.716 117.461C329.716 116.902 329.924 116.475 330.33 116.178C330.746 115.882 331.338 115.729 332.105 115.729H332.829V115.389C332.829 115.115 332.752 114.906 332.599 114.742C332.445 114.577 332.215 114.501 331.908 114.501C331.645 114.501 331.426 114.566 331.25 114.698C331.075 114.83 330.998 115.005 330.998 115.202H329.825C329.825 114.917 329.924 114.654 330.11 114.402C330.297 114.15 330.56 113.952 330.889 113.821C331.218 113.678 331.579 113.612 331.985 113.612C332.599 113.612 333.081 113.766 333.443 114.073C333.805 114.38 333.991 114.808 334.002 115.367V117.714C334.002 118.185 334.068 118.558 334.199 118.832V118.909H332.993V118.92ZM331.711 118.076C331.941 118.076 332.16 118.021 332.369 117.911C332.577 117.801 332.73 117.648 332.829 117.461V116.475H332.193C331.755 116.475 331.437 116.551 331.218 116.705C330.998 116.858 330.889 117.067 330.889 117.341C330.889 117.571 330.965 117.747 331.108 117.878C331.261 118.01 331.459 118.076 331.711 118.076Z" fill="white"/>
<path d="M336.468 118.92H335.296V111.518H336.468V118.92Z" fill="white"/>
<path d="M344.778 117.297L345.611 113.7H346.751L345.326 118.909H344.362L343.243 115.323L342.147 118.909H341.183L339.757 113.7H340.897L341.742 117.264L342.816 113.7H343.693L344.778 117.297Z" fill="white"/>
<path d="M347.311 116.266C347.311 115.762 347.409 115.301 347.618 114.884C347.815 114.479 348.1 114.161 348.473 113.941C348.834 113.722 349.262 113.612 349.733 113.612C350.435 113.612 351.005 113.843 351.443 114.292C351.882 114.742 352.123 115.345 352.156 116.091V116.365C352.156 116.88 352.057 117.341 351.86 117.747C351.663 118.152 351.378 118.459 351.016 118.69C350.643 118.909 350.227 119.019 349.744 119.019C349.01 119.019 348.418 118.777 347.979 118.284C347.541 117.79 347.322 117.143 347.322 116.321V116.266H347.311ZM348.484 116.365C348.484 116.902 348.593 117.319 348.812 117.626C349.032 117.933 349.339 118.087 349.733 118.087C350.128 118.087 350.435 117.933 350.654 117.626C350.873 117.319 350.983 116.869 350.983 116.266C350.983 115.74 350.873 115.323 350.643 115.016C350.413 114.709 350.106 114.555 349.722 114.555C349.339 114.555 349.043 114.709 348.812 115.016C348.593 115.301 348.484 115.762 348.484 116.365Z" fill="white"/>
<path d="M355.872 114.775C355.719 114.753 355.554 114.731 355.39 114.731C354.853 114.731 354.491 114.939 354.305 115.345V118.909H353.132V113.7H354.25L354.283 114.281C354.568 113.832 354.962 113.602 355.456 113.602C355.62 113.602 355.763 113.623 355.872 113.667V114.775Z" fill="white"/>
<path d="M357.857 118.92H356.684V111.518H357.857V118.92Z" fill="white"/>
<path d="M358.92 116.277C358.92 115.476 359.106 114.829 359.479 114.347C359.852 113.864 360.345 113.612 360.981 113.612C361.529 113.612 361.978 113.809 362.318 114.193V111.528H363.491V118.931H362.428L362.373 118.393C362.022 118.821 361.551 119.029 360.97 119.029C360.356 119.029 359.863 118.788 359.49 118.295C359.106 117.779 358.92 117.121 358.92 116.277ZM360.082 116.375C360.082 116.902 360.181 117.319 360.389 117.615C360.597 117.911 360.882 118.064 361.255 118.064C361.737 118.064 362.088 117.856 362.307 117.428V115.202C362.088 114.785 361.748 114.577 361.266 114.577C360.882 114.577 360.597 114.731 360.389 115.027C360.192 115.312 360.082 115.772 360.082 116.375Z" fill="white"/>
<path d="M369.28 117.297L370.113 113.7H371.253L369.828 118.909H368.863L367.745 115.323L366.649 118.909H365.684L364.259 113.7H365.399L366.243 117.264L367.317 113.7H368.194L369.28 117.297Z" fill="white"/>
<path d="M372.042 112.351C372.042 112.175 372.097 112.022 372.217 111.901C372.327 111.78 372.492 111.726 372.711 111.726C372.93 111.726 373.083 111.78 373.204 111.901C373.325 112.022 373.38 112.175 373.38 112.351C373.38 112.526 373.325 112.68 373.204 112.789C373.083 112.91 372.93 112.965 372.711 112.965C372.492 112.965 372.338 112.91 372.217 112.789C372.097 112.669 372.042 112.526 372.042 112.351ZM373.281 118.92H372.108V113.711H373.281V118.92Z" fill="white"/>
<path d="M374.333 116.277C374.333 115.476 374.52 114.829 374.892 114.347C375.265 113.864 375.758 113.612 376.394 113.612C376.942 113.612 377.392 113.809 377.732 114.193V111.528H378.905V118.931H377.841L377.786 118.393C377.436 118.821 376.964 119.029 376.383 119.029C375.769 119.029 375.276 118.788 374.903 118.295C374.52 117.779 374.333 117.121 374.333 116.277ZM375.506 116.375C375.506 116.902 375.605 117.319 375.813 117.615C376.021 117.911 376.307 118.064 376.679 118.064C377.162 118.064 377.512 117.856 377.732 117.428V115.202C377.512 114.785 377.173 114.577 376.69 114.577C376.307 114.577 376.021 114.731 375.813 115.027C375.605 115.312 375.506 115.772 375.506 116.375Z" fill="white"/>
<path d="M382.424 119.019C381.678 119.019 381.086 118.788 380.615 118.317C380.154 117.845 379.924 117.231 379.924 116.452V116.31C379.924 115.794 380.023 115.323 380.22 114.917C380.417 114.511 380.702 114.193 381.064 113.963C381.426 113.733 381.832 113.623 382.281 113.623C382.994 113.623 383.542 113.853 383.925 114.303C384.309 114.753 384.507 115.4 384.507 116.222V116.694H381.097C381.13 117.121 381.273 117.461 381.525 117.714C381.777 117.966 382.095 118.086 382.478 118.086C383.016 118.086 383.454 117.867 383.794 117.439L384.43 118.043C384.221 118.35 383.947 118.591 383.597 118.766C383.246 118.931 382.851 119.019 382.424 119.019ZM382.281 114.544C381.963 114.544 381.7 114.654 381.503 114.884C381.305 115.115 381.185 115.422 381.13 115.827H383.366V115.74C383.344 115.345 383.235 115.049 383.048 114.851C382.862 114.643 382.61 114.544 382.281 114.544Z" fill="white"/>
<path d="M326.997 128.208C326.997 129.019 326.811 129.655 326.449 130.138C326.087 130.62 325.594 130.862 324.98 130.862C324.41 130.862 323.95 130.675 323.61 130.302V132.77H322.437V125.554H323.511L323.555 126.08C323.895 125.663 324.366 125.455 324.958 125.455C325.594 125.455 326.098 125.696 326.46 126.168C326.822 126.639 326.997 127.297 326.997 128.142V128.208ZM325.835 128.109C325.835 127.594 325.737 127.177 325.528 126.87C325.32 126.563 325.024 126.409 324.64 126.409C324.158 126.409 323.818 126.607 323.61 127.001V129.315C323.818 129.721 324.169 129.918 324.651 129.918C325.024 129.918 325.32 129.765 325.528 129.469C325.726 129.173 325.835 128.712 325.835 128.109Z" fill="white"/>
<path d="M327.776 128.109C327.776 127.604 327.874 127.144 328.083 126.727C328.28 126.321 328.565 126.003 328.938 125.784C329.299 125.565 329.727 125.455 330.198 125.455C330.9 125.455 331.47 125.685 331.909 126.135C332.347 126.585 332.588 127.188 332.621 127.934V128.208C332.621 128.723 332.522 129.184 332.325 129.589C332.128 129.995 331.843 130.302 331.481 130.533C331.108 130.752 330.692 130.862 330.209 130.862C329.475 130.862 328.883 130.62 328.444 130.127C328.006 129.633 327.787 128.986 327.787 128.164V128.109H327.776ZM328.938 128.208C328.938 128.745 329.047 129.162 329.267 129.469C329.486 129.776 329.793 129.929 330.187 129.929C330.582 129.929 330.889 129.776 331.108 129.469C331.327 129.162 331.437 128.712 331.437 128.109C331.437 127.583 331.328 127.166 331.097 126.859C330.867 126.552 330.56 126.398 330.176 126.398C329.793 126.398 329.486 126.552 329.267 126.859C329.058 127.144 328.938 127.605 328.938 128.208Z" fill="white"/>
<path d="M338.168 128.208C338.168 129.019 337.982 129.655 337.62 130.138C337.258 130.62 336.765 130.862 336.151 130.862C335.581 130.862 335.121 130.675 334.781 130.302V132.77H333.608V125.554H334.682L334.726 126.08C335.066 125.663 335.537 125.455 336.129 125.455C336.765 125.455 337.269 125.696 337.631 126.168C337.993 126.639 338.168 127.297 338.168 128.142V128.208ZM337.006 128.109C337.006 127.594 336.907 127.177 336.699 126.87C336.491 126.563 336.195 126.409 335.811 126.409C335.329 126.409 334.989 126.607 334.781 127.001V129.315C334.989 129.721 335.34 129.918 335.822 129.918C336.195 129.918 336.491 129.765 336.699 129.469C336.897 129.173 337.006 128.712 337.006 128.109Z" fill="white"/>
<path d="M342.323 130.248C341.983 130.653 341.49 130.851 340.854 130.851C340.284 130.851 339.856 130.686 339.571 130.357C339.275 130.028 339.133 129.546 339.133 128.921V125.543H340.306V128.91C340.306 129.568 340.58 129.908 341.128 129.908C341.698 129.908 342.082 129.699 342.279 129.293V125.543H343.452V130.752H342.345L342.323 130.248Z" fill="white"/>
<path d="M345.886 130.763H344.713V123.36H345.886V130.763Z" fill="white"/>
<path d="M350.282 130.763C350.227 130.664 350.183 130.5 350.15 130.28C349.778 130.664 349.317 130.862 348.78 130.862C348.254 130.862 347.826 130.708 347.497 130.412C347.168 130.116 347.004 129.743 347.004 129.304C347.004 128.745 347.212 128.317 347.618 128.021C348.034 127.725 348.615 127.572 349.394 127.572H350.106V127.232C350.106 126.957 350.03 126.749 349.876 126.585C349.723 126.42 349.493 126.343 349.186 126.343C348.922 126.343 348.703 126.409 348.528 126.541C348.352 126.672 348.276 126.848 348.276 127.045H347.103C347.103 126.76 347.201 126.497 347.388 126.245C347.574 125.992 347.837 125.795 348.166 125.663C348.495 125.521 348.857 125.455 349.262 125.455C349.876 125.455 350.358 125.609 350.72 125.916C351.082 126.223 351.268 126.65 351.279 127.21V129.557C351.279 130.028 351.345 130.401 351.477 130.675V130.752H350.282V130.763ZM348.988 129.918C349.218 129.918 349.438 129.864 349.646 129.754C349.854 129.644 350.008 129.491 350.106 129.304V128.317H349.47C349.043 128.317 348.714 128.394 348.495 128.548C348.276 128.701 348.166 128.909 348.166 129.184C348.166 129.414 348.243 129.589 348.385 129.721C348.539 129.853 348.747 129.918 348.988 129.918Z" fill="white"/>
<path d="M353.965 124.281V125.553H354.886V126.42H353.965V129.326C353.965 129.523 354.009 129.666 354.086 129.753C354.163 129.841 354.305 129.885 354.502 129.885C354.634 129.885 354.776 129.874 354.908 129.841V130.751C354.645 130.828 354.382 130.861 354.14 130.861C353.242 130.861 352.792 130.368 352.792 129.37V126.42H351.937V125.553H352.792V124.281H353.965Z" fill="white"/>
<path d="M355.785 124.193C355.785 124.018 355.84 123.864 355.96 123.744C356.07 123.623 356.234 123.568 356.454 123.568C356.673 123.568 356.826 123.623 356.947 123.744C357.068 123.864 357.122 124.018 357.122 124.193C357.122 124.369 357.068 124.522 356.947 124.632C356.826 124.753 356.673 124.808 356.454 124.808C356.234 124.808 356.081 124.753 355.96 124.632C355.84 124.512 355.785 124.369 355.785 124.193ZM357.024 130.762H355.851V125.553H357.024V130.762Z" fill="white"/>
<path d="M358.087 128.109C358.087 127.604 358.186 127.144 358.394 126.727C358.591 126.321 358.876 126.003 359.249 125.784C359.611 125.565 360.038 125.455 360.51 125.455C361.211 125.455 361.781 125.685 362.22 126.135C362.658 126.585 362.9 127.188 362.933 127.934V128.208C362.933 128.723 362.834 129.184 362.637 129.589C362.439 129.995 362.154 130.302 361.793 130.533C361.42 130.752 361.003 130.862 360.521 130.862C359.786 130.862 359.194 130.62 358.756 130.127C358.317 129.633 358.098 128.986 358.098 128.164V128.109H358.087ZM359.249 128.208C359.249 128.745 359.359 129.162 359.578 129.469C359.797 129.776 360.104 129.929 360.499 129.929C360.894 129.929 361.2 129.776 361.42 129.469C361.639 129.162 361.749 128.712 361.749 128.109C361.749 127.583 361.639 127.166 361.409 126.859C361.178 126.552 360.872 126.398 360.488 126.398C360.104 126.398 359.808 126.552 359.578 126.859C359.37 127.144 359.249 127.605 359.249 128.208Z" fill="white"/>
<path d="M365.004 125.543L365.037 126.146C365.421 125.686 365.925 125.444 366.55 125.444C367.636 125.444 368.184 126.069 368.206 127.309V130.752H367.032V127.374C367.032 127.045 366.967 126.793 366.813 126.64C366.671 126.486 366.441 126.398 366.112 126.398C365.64 126.398 365.29 126.618 365.059 127.034V130.741H363.886V125.532H365.004V125.543Z" fill="white"/>
<path d="M67.3925 314.847H60.0586V313.596L63.6982 309.627C64.2244 309.045 64.5971 308.552 64.8164 308.157C65.0356 307.762 65.1453 307.367 65.1453 306.973C65.1453 306.457 65.0027 306.03 64.7068 305.712C64.4108 305.394 64.027 305.229 63.5227 305.229C62.9307 305.229 62.4703 305.405 62.1524 305.766C61.8235 306.128 61.6701 306.622 61.6701 307.247H59.8503C59.8503 306.578 60.0038 305.986 60.2998 305.448C60.6067 304.911 61.0342 304.505 61.5933 304.209C62.1524 303.913 62.7992 303.771 63.5337 303.771C64.5971 303.771 65.4303 304.034 66.0442 304.571C66.6581 305.097 66.965 305.843 66.965 306.775C66.965 307.324 66.8116 307.894 66.5046 308.486C66.1977 309.078 65.6934 309.758 64.9918 310.526L62.3278 313.377H67.3925V314.847Z" fill="#454545"/>
<path d="M75.8885 310.251C75.8885 311.819 75.5926 313.004 75.0116 313.804C74.4196 314.605 73.5316 315 72.3367 315C71.1527 315 70.2648 314.616 69.6728 313.837C69.0809 313.059 68.7738 311.907 68.7519 310.383V308.497C68.7519 306.928 69.0479 305.755 69.629 304.965C70.2209 304.176 71.1088 303.792 72.3147 303.792C73.5096 303.792 74.3977 304.176 74.9897 304.943C75.5816 305.711 75.8776 306.852 75.8885 308.376V310.251ZM74.0687 308.211C74.0687 307.192 73.9262 306.435 73.6521 305.963C73.3671 305.481 72.9286 305.25 72.3147 305.25C71.7227 305.25 71.2843 305.481 70.9993 305.93C70.7142 306.38 70.5717 307.093 70.5607 308.047V310.525C70.5607 311.545 70.7033 312.302 70.9883 312.806C71.2733 313.311 71.7228 313.552 72.3257 313.552C72.9067 313.552 73.3453 313.322 73.6193 312.861C73.8934 312.401 74.0469 311.677 74.0579 310.69V308.211H74.0687Z" fill="#454545"/>
<path d="M82.4331 314.847H80.6244V306.074L77.9495 306.984V305.46L82.2029 303.892H82.4331V314.847Z" fill="#454545"/>
<path d="M86.7086 309.429L87.3006 303.924H93.1655V305.503H88.8244L88.5284 308.113C89.0327 307.828 89.6026 307.674 90.2385 307.674C91.2799 307.674 92.0803 308.003 92.6613 308.672C93.2423 309.341 93.5272 310.229 93.5272 311.359C93.5272 312.467 93.2093 313.355 92.5625 314.013C91.9267 314.671 91.0498 315 89.9316 315C88.934 315 88.1009 314.715 87.4431 314.145C86.7853 313.574 86.4346 312.829 86.3798 311.896H88.1447C88.2105 312.423 88.4078 312.829 88.7148 313.114C89.0217 313.399 89.4273 313.541 89.9316 313.541C90.4907 313.541 90.9292 313.344 91.2361 312.938C91.554 312.543 91.7076 311.995 91.7076 311.304C91.7076 310.635 91.5321 310.109 91.1922 309.725C90.8524 309.341 90.3701 309.144 89.7672 309.144C89.4383 309.144 89.1532 309.188 88.923 309.275C88.6928 309.363 88.4406 309.539 88.1775 309.791L86.7086 309.429Z" fill="#454545"/>
<path d="M194.558 314.847H187.224V313.596L190.864 309.627C191.39 309.045 191.763 308.552 191.982 308.157C192.201 307.762 192.311 307.367 192.311 306.973C192.311 306.457 192.168 306.03 191.872 305.712C191.576 305.394 191.193 305.229 190.688 305.229C190.096 305.229 189.636 305.405 189.318 305.766C188.989 306.128 188.836 306.622 188.836 307.247H187.016C187.016 306.578 187.169 305.986 187.465 305.448C187.772 304.911 188.2 304.505 188.759 304.209C189.318 303.913 189.965 303.771 190.699 303.771C191.763 303.771 192.596 304.034 193.21 304.571C193.824 305.097 194.131 305.843 194.131 306.775C194.131 307.324 193.977 307.894 193.67 308.486C193.363 309.078 192.859 309.758 192.157 310.526L189.493 313.377H194.558V314.847Z" fill="#454545"/>
<path d="M203.054 310.251C203.054 311.819 202.758 313.004 202.177 313.804C201.585 314.605 200.697 315 199.502 315C198.318 315 197.43 314.616 196.838 313.837C196.246 313.059 195.94 311.907 195.918 310.383V308.497C195.918 306.928 196.214 305.755 196.795 304.965C197.387 304.176 198.275 303.792 199.48 303.792C200.675 303.792 201.563 304.176 202.155 304.943C202.747 305.711 203.043 306.852 203.054 308.376V310.251ZM201.234 308.211C201.234 307.192 201.092 306.435 200.818 305.963C200.533 305.481 200.094 305.25 199.48 305.25C198.888 305.25 198.45 305.481 198.165 305.93C197.88 306.38 197.737 307.093 197.726 308.047V310.525C197.726 311.545 197.869 312.302 198.154 312.806C198.439 313.311 198.888 313.552 199.491 313.552C200.072 313.552 200.511 313.322 200.785 312.861C201.059 312.401 201.212 311.677 201.223 310.69V308.211H201.234Z" fill="#454545"/>
<path d="M206.77 308.551H207.878C208.437 308.551 208.886 308.398 209.204 308.113C209.533 307.828 209.698 307.411 209.698 306.874C209.698 306.358 209.566 305.952 209.292 305.667C209.018 305.382 208.601 305.24 208.042 305.24C207.549 305.24 207.154 305.382 206.836 305.667C206.518 305.952 206.365 306.314 206.365 306.775H204.545C204.545 306.216 204.699 305.7 204.995 305.25C205.291 304.79 205.707 304.428 206.233 304.176C206.77 303.924 207.362 303.792 208.02 303.792C209.105 303.792 209.961 304.066 210.586 304.614C211.21 305.163 211.517 305.919 211.517 306.895C211.517 307.389 211.364 307.85 211.046 308.277C210.739 308.705 210.333 309.034 209.84 309.253C210.443 309.462 210.892 309.78 211.21 310.218C211.528 310.657 211.682 311.183 211.682 311.797C211.682 312.773 211.342 313.552 210.673 314.133C210.004 314.715 209.116 315 208.02 315C206.968 315 206.113 314.725 205.444 314.155C204.775 313.596 204.435 312.85 204.435 311.918H206.255C206.255 312.401 206.42 312.784 206.738 313.091C207.056 313.399 207.494 313.541 208.042 313.541C208.601 313.541 209.051 313.388 209.38 313.091C209.708 312.795 209.862 312.357 209.862 311.786C209.862 311.216 209.687 310.767 209.358 310.46C209.018 310.152 208.514 309.999 207.845 309.999H206.77V308.551Z" fill="#454545"/>
<path d="M220.496 310.251C220.496 311.819 220.2 313.004 219.619 313.804C219.027 314.605 218.139 315 216.944 315C215.76 315 214.872 314.616 214.28 313.837C213.688 313.059 213.381 311.907 213.359 310.383V308.497C213.359 306.928 213.655 305.755 214.236 304.965C214.828 304.176 215.716 303.792 216.922 303.792C218.117 303.792 219.005 304.176 219.597 304.943C220.189 305.711 220.485 306.852 220.496 308.376V310.251ZM218.676 308.211C218.676 307.192 218.533 306.435 218.259 305.963C217.974 305.481 217.536 305.25 216.922 305.25C216.33 305.25 215.891 305.481 215.606 305.93C215.321 306.38 215.179 307.093 215.168 308.047V310.525C215.168 311.545 215.31 312.302 215.595 312.806C215.88 313.311 216.33 313.552 216.933 313.552C217.514 313.552 217.952 313.322 218.226 312.861C218.5 312.401 218.654 311.677 218.665 310.69V308.211H218.676Z" fill="#454545"/>
<path d="M334.879 314.847H327.545V313.596L331.185 309.627C331.711 309.045 332.084 308.552 332.303 308.157C332.522 307.762 332.632 307.368 332.632 306.973C332.632 306.457 332.489 306.03 332.193 305.712C331.897 305.394 331.503 305.229 331.009 305.229C330.417 305.229 329.968 305.405 329.639 305.766C329.31 306.128 329.157 306.622 329.157 307.247H327.337C327.337 306.578 327.49 305.986 327.786 305.448C328.093 304.911 328.521 304.505 329.08 304.209C329.639 303.913 330.286 303.771 331.02 303.771C332.084 303.771 332.917 304.034 333.531 304.571C334.145 305.097 334.452 305.843 334.452 306.775C334.452 307.324 334.298 307.894 333.991 308.486C333.684 309.078 333.18 309.758 332.478 310.526L329.814 313.377H334.879V314.847Z" fill="#454545"/>
<path d="M343.375 310.251C343.375 311.819 343.079 313.004 342.498 313.804C341.906 314.605 341.018 315 339.823 315C338.639 315 337.751 314.616 337.159 313.837C336.567 313.059 336.26 311.907 336.239 310.383V308.497C336.239 306.928 336.534 305.755 337.115 304.965C337.707 304.176 338.595 303.792 339.801 303.792C340.996 303.792 341.884 304.176 342.476 304.943C343.068 305.711 343.364 306.852 343.375 308.376V310.251ZM341.555 308.211C341.555 307.192 341.413 306.435 341.139 305.963C340.865 305.481 340.415 305.251 339.801 305.251C339.209 305.251 338.771 305.481 338.486 305.93C338.212 306.38 338.058 307.093 338.047 308.047V310.525C338.047 311.545 338.19 312.302 338.475 312.806C338.76 313.311 339.209 313.552 339.812 313.552C340.393 313.552 340.832 313.322 341.106 312.861C341.391 312.401 341.533 311.677 341.544 310.69V308.211H341.555Z" fill="#454545"/>
<path d="M345.469 309.429L346.061 303.924H351.926V305.503H347.585L347.289 308.113C347.793 307.828 348.363 307.674 348.999 307.674C350.04 307.674 350.852 308.003 351.422 308.672C351.992 309.341 352.288 310.23 352.288 311.359C352.288 312.467 351.97 313.355 351.323 314.013C350.687 314.671 349.81 315 348.692 315C347.694 315 346.861 314.715 346.203 314.145C345.546 313.574 345.195 312.829 345.14 311.896H346.905C346.971 312.423 347.168 312.829 347.475 313.114C347.782 313.399 348.188 313.541 348.692 313.541C349.251 313.541 349.69 313.344 349.996 312.938C350.303 312.543 350.468 311.995 350.468 311.304C350.468 310.635 350.293 310.109 349.953 309.725C349.613 309.341 349.13 309.144 348.528 309.144C348.199 309.144 347.914 309.188 347.683 309.275C347.453 309.363 347.201 309.539 346.938 309.791L345.469 309.429Z" fill="#454545"/>
<path d="M360.817 310.251C360.817 311.819 360.521 313.004 359.94 313.804C359.348 314.605 358.46 315 357.265 315C356.081 315 355.193 314.616 354.601 313.837C354.009 313.059 353.702 311.907 353.68 310.383V308.497C353.68 306.928 353.976 305.755 354.557 304.965C355.149 304.176 356.037 303.792 357.243 303.792C358.438 303.792 359.326 304.176 359.918 304.943C360.51 305.711 360.806 306.852 360.817 308.376V310.251ZM358.997 308.211C358.997 307.192 358.854 306.435 358.58 305.963C358.306 305.481 357.857 305.251 357.243 305.251C356.651 305.251 356.212 305.481 355.927 305.93C355.653 306.38 355.5 307.093 355.489 308.047V310.525C355.489 311.545 355.631 312.302 355.916 312.806C356.201 313.311 356.651 313.552 357.254 313.552C357.835 313.552 358.273 313.322 358.547 312.861C358.832 312.401 358.975 311.677 358.986 310.69V308.211H358.997Z" fill="#454545"/>
<line x1="442" y1="298.5" y2="298.5" stroke="#454545"/>
</svg>
