<svg width="870" height="299" viewBox="0 0 870 299" fill="none" xmlns="http://www.w3.org/2000/svg">
<path d="M12 282H705" stroke="#333333" stroke-width="0.5" stroke-miterlimit="10"/>
<path d="M12 213H705" stroke="#333333" stroke-width="0.5" stroke-miterlimit="10"/>
<path d="M12 143H705" stroke="#333333" stroke-width="0.5" stroke-miterlimit="10"/>
<path d="M12 75H705" stroke="#333333" stroke-width="0.5" stroke-miterlimit="10"/>
<path d="M12 6H705" stroke="#333333" stroke-width="0.5" stroke-miterlimit="10"/>
<path d="M64.2777 185.404H35V282.338H64.2777V185.404Z" fill="#2B338D"/>
<path d="M93.5554 195.441H64.2777V282.338H93.5554V195.441Z" fill="#5DC9E5"/>
<path d="M162.149 223.883H132.871V282.338H162.149V223.883Z" fill="#2B338D"/>
<path d="M191.426 237.27H162.149V282.34H191.426V237.27Z" fill="#5DC9E5"/>
<path d="M257.51 206.314H228.232V282.336H257.51V206.314Z" fill="#2B338D"/>
<path d="M286.788 220.537H257.51V282.338H286.788V220.537Z" fill="#5DC9E5"/>
<path d="M354.545 241.449H325.267V282.338H354.545V241.449Z" fill="#2B338D"/>
<path d="M383.822 261.525H354.545V282.338H383.822V261.525Z" fill="#5DC9E5"/>
<path d="M451.579 257.344H422.302V282.339H451.579V257.344Z" fill="#2B338D"/>
<path d="M480.857 275.746H451.579V282.338H480.857V275.746Z" fill="#5DC9E5"/>
<path d="M547.777 137.721H518.5V282.336H547.777V137.721Z" fill="#2B338D"/>
<path d="M577.055 154.453H547.777V282.338H577.055V154.453Z" fill="#5DC9E5"/>
<path d="M647.322 71.6387H618.044V282.337H647.322V71.6387Z" fill="#2B338D"/>
<path d="M676.599 115.973H647.322V282.337H676.599V115.973Z" fill="#5DC9E5"/>
<path d="M743.913 160H723V180.913H743.913V160Z" fill="#2B338D"/>
<path d="M743.913 211H723V231.913H743.913V211Z" fill="#5DC9E5"/>
<path d="M735.365 276.73C730.748 276.73 727 272.983 727 268.365C727 263.748 730.748 260 735.365 260C739.983 260 743.73 263.748 743.73 268.365C743.73 272.983 739.983 276.73 735.365 276.73Z" fill="#F99D1C"/>
<path d="M78.9165 181.64C74.299 181.64 70.5515 177.893 70.5515 173.275C70.5515 168.658 74.299 164.91 78.9165 164.91C83.534 164.91 87.2815 168.658 87.2815 173.275C87.2815 177.893 83.534 181.64 78.9165 181.64Z" fill="#F99D1C"/>
<path d="M176.787 235.177C172.17 235.177 168.422 231.43 168.422 226.812C168.422 222.195 172.17 218.447 176.787 218.447C181.405 218.447 185.152 222.195 185.152 226.812C185.152 231.43 181.405 235.177 176.787 235.177Z" fill="#F99D1C"/>
<path d="M274.24 218.865C269.623 218.865 265.875 215.117 265.875 210.5C265.875 205.882 269.623 202.135 274.24 202.135C278.858 202.135 282.605 205.882 282.605 210.5C282.605 215.117 278.858 218.865 274.24 218.865Z" fill="#F99D1C"/>
<path d="M372.111 249.814C367.494 249.814 363.746 246.067 363.746 241.449C363.746 236.832 367.494 233.084 372.111 233.084C376.729 233.084 380.476 236.832 380.476 241.449C380.476 246.067 376.729 249.814 372.111 249.814Z" fill="#F99D1C"/>
<path d="M468.309 269.89C463.692 269.89 459.944 266.143 459.944 261.525C459.944 256.908 463.692 253.16 468.309 253.16C472.927 253.16 476.674 256.908 476.674 261.525C476.674 266.143 472.927 269.89 468.309 269.89Z" fill="#F99D1C"/>
<path d="M564.507 134.377C559.89 134.377 556.142 130.629 556.142 126.012C556.142 121.394 559.89 117.646 564.507 117.646C569.125 117.646 572.872 121.394 572.872 126.012C572.872 130.629 569.125 134.377 564.507 134.377Z" fill="#F99D1C"/>
<path d="M661.542 107.609C656.924 107.609 653.177 103.861 653.177 99.244C653.177 94.6264 656.924 90.8789 661.542 90.8789C666.159 90.8789 669.907 94.6264 669.907 99.244C669.907 103.861 666.159 107.609 661.542 107.609Z" fill="#F99D1C"/>
<path d="M47.5897 297.267C47.2467 297.719 46.7698 298.054 46.1592 298.288C45.5485 298.522 44.8543 298.631 44.0847 298.631C43.29 298.631 42.5789 298.447 41.9683 298.087C41.3576 297.727 40.8809 297.209 40.5463 296.531C40.2117 295.854 40.036 295.076 40.0276 294.172V293.428C40.0276 291.989 40.3706 290.868 41.0565 290.057C41.7425 289.245 42.7044 288.844 43.9424 288.844C45.0048 288.844 45.8413 289.103 46.4687 289.63C47.0961 290.157 47.4642 290.91 47.5897 291.897H45.9668C45.7828 290.751 45.1219 290.182 43.9759 290.182C43.2398 290.182 42.671 290.45 42.2862 290.985C41.9014 291.521 41.7006 292.299 41.6923 293.336V294.072C41.6923 295.101 41.9098 295.895 42.3448 296.464C42.7798 297.033 43.382 297.318 44.1516 297.318C44.9964 297.318 45.5987 297.125 45.9584 296.74V294.875H44.001V293.62H47.6063V297.267H47.5897Z" fill="#010101"/>
<path d="M51.0611 297.184H55.3775V298.506H49.4048V288.986H51.0611V297.184Z" fill="#010101"/>
<path d="M63.8263 293.996C63.8263 294.925 63.6674 295.744 63.3412 296.447C63.0233 297.15 62.5548 297.693 61.9609 298.07C61.3586 298.446 60.6727 298.639 59.8948 298.639C59.1252 298.639 58.4393 298.446 57.837 298.07C57.2347 297.693 56.7662 297.158 56.44 296.455C56.1138 295.761 55.9465 294.958 55.9381 294.046V293.511C55.9381 292.582 56.1054 291.763 56.4316 291.051C56.7579 290.34 57.2263 289.797 57.8202 289.42C58.4225 289.044 59.1084 288.852 59.878 288.852C60.656 288.852 61.3419 289.036 61.9358 289.412C62.5381 289.788 62.9982 290.324 63.3244 291.018C63.6506 291.712 63.8179 292.532 63.8179 293.461V293.996H63.8263ZM62.17 293.494C62.17 292.44 61.9693 291.629 61.5761 291.068C61.183 290.508 60.6141 290.223 59.878 290.223C59.167 290.223 58.6065 290.499 58.205 291.06C57.8035 291.62 57.5944 292.415 57.586 293.436V293.988C57.586 295.033 57.7867 295.845 58.1966 296.413C58.6065 296.982 59.167 297.267 59.8948 297.267C60.6309 297.267 61.1914 296.991 61.5845 296.43C61.9777 295.87 62.1784 295.058 62.1784 293.988V293.494H62.17Z" fill="#010101"/>
<path d="M65.4741 298.506V288.986H68.7365C69.8156 288.986 70.6354 289.204 71.1959 289.63C71.7563 290.057 72.0408 290.701 72.0408 291.554C72.0408 291.989 71.9236 292.383 71.6894 292.734C71.4552 293.085 71.1122 293.353 70.6605 293.545C71.1791 293.688 71.5722 293.947 71.8567 294.332C72.1411 294.716 72.2749 295.177 72.2749 295.72C72.2749 296.615 71.9906 297.301 71.4134 297.778C70.8446 298.255 70.0247 298.497 68.954 298.497H65.4741V298.506ZM67.1221 292.993H68.7449C69.2635 292.993 69.6651 292.876 69.9495 292.642C70.2423 292.408 70.3845 292.081 70.3845 291.655C70.3845 291.186 70.2506 290.843 69.9829 290.634C69.7152 290.425 69.297 290.316 68.7281 290.316H67.1221V292.993ZM67.1221 294.206V297.176H68.9624C69.481 297.176 69.891 297.05 70.1754 296.791C70.4682 296.532 70.6103 296.18 70.6103 295.72C70.6103 294.733 70.1084 294.223 69.0963 294.206H67.1221Z" fill="#010101"/>
<path d="M79.243 296.289H75.554L74.7844 298.506H73.0696L76.6665 288.986H78.1471L81.7441 298.506H80.0209L79.243 296.289ZM76.0225 294.951H78.7829L77.4026 291.002L76.0225 294.951Z" fill="#010101"/>
<path d="M84.4794 297.184H88.7957V298.506H82.8231V288.986H84.4794V297.184Z" fill="#010101"/>
<path d="M119.872 296.287H116.183L115.413 298.504H113.698L117.295 288.984H118.776L122.373 298.504H120.65L119.872 296.287ZM116.651 294.949H119.412L118.032 291L116.651 294.949Z" fill="#010101"/>
<path d="M123.452 298.504V288.984H126.263C127.108 288.984 127.852 289.168 128.505 289.545C129.157 289.921 129.659 290.448 130.019 291.143C130.379 291.829 130.554 292.623 130.554 293.51V293.987C130.554 294.89 130.379 295.685 130.019 296.362C129.659 297.04 129.149 297.575 128.48 297.943C127.819 298.311 127.058 298.495 126.196 298.495H123.452V298.504ZM125.109 290.323V297.182H126.188C127.058 297.182 127.718 296.915 128.187 296.371C128.655 295.827 128.89 295.049 128.898 294.037V293.51C128.898 292.481 128.672 291.686 128.229 291.143C127.777 290.599 127.133 290.323 126.271 290.323H125.109Z" fill="#010101"/>
<path d="M135.406 296.429L137.823 288.984H139.638L136.217 298.504H134.619L131.207 288.984H133.013L135.406 296.429Z" fill="#010101"/>
<path d="M145.553 296.287H141.864L141.094 298.504H139.379L142.976 288.984H144.457L148.054 298.504H146.331L145.553 296.287ZM142.332 294.949H145.093L143.712 291L142.332 294.949Z" fill="#010101"/>
<path d="M156.678 298.504H155.03L150.789 291.753V298.504H149.133V288.984H150.789L155.047 295.76V288.984H156.686V298.504H156.678Z" fill="#010101"/>
<path d="M165.896 295.403C165.804 296.415 165.428 297.21 164.775 297.778C164.123 298.347 163.253 298.632 162.166 298.632C161.404 298.632 160.744 298.456 160.166 298.096C159.589 297.737 159.146 297.226 158.828 296.566C158.51 295.905 158.351 295.135 158.334 294.257V293.37C158.334 292.475 158.493 291.68 158.811 290.994C159.129 290.309 159.589 289.782 160.183 289.413C160.777 289.045 161.463 288.861 162.241 288.861C163.295 288.861 164.14 289.146 164.775 289.715C165.411 290.283 165.788 291.086 165.896 292.132H164.248C164.173 291.446 163.972 290.953 163.655 290.651C163.337 290.35 162.868 290.2 162.249 290.2C161.53 290.2 160.978 290.459 160.593 290.986C160.208 291.513 160.007 292.283 159.999 293.295V294.14C159.999 295.169 160.183 295.955 160.551 296.499C160.919 297.042 161.463 297.31 162.166 297.31C162.818 297.31 163.303 297.168 163.629 296.875C163.956 296.582 164.165 296.097 164.248 295.42H165.896V295.403Z" fill="#010101"/>
<path d="M172.931 294.254H169.025V297.182H173.592V298.504H167.369V288.984H173.542V290.314H169.017V292.941H172.923V294.254H172.931Z" fill="#010101"/>
<path d="M174.939 298.504V288.984H177.75C178.595 288.984 179.339 289.168 179.992 289.545C180.644 289.921 181.146 290.448 181.506 291.143C181.865 291.829 182.041 292.623 182.041 293.51V293.987C182.041 294.89 181.865 295.685 181.506 296.362C181.146 297.04 180.636 297.575 179.966 297.943C179.306 298.311 178.544 298.495 177.683 298.495H174.939V298.504ZM176.595 290.323V297.182H177.674C178.544 297.182 179.205 296.915 179.674 296.371C180.142 295.827 180.376 295.049 180.385 294.037V293.51C180.385 292.481 180.159 291.686 179.715 291.143C179.264 290.599 178.62 290.323 177.758 290.323H176.595Z" fill="#010101"/>
<path d="M194.313 297.267C193.97 297.719 193.493 298.054 192.882 298.288C192.272 298.522 191.577 298.631 190.808 298.631C190.013 298.631 189.302 298.447 188.691 298.087C188.081 297.727 187.604 297.209 187.269 296.531C186.935 295.854 186.759 295.076 186.751 294.172V293.428C186.751 291.989 187.094 290.868 187.779 290.057C188.465 289.245 189.427 288.844 190.665 288.844C191.728 288.844 192.564 289.103 193.192 289.63C193.819 290.157 194.187 290.91 194.313 291.897H192.69C192.506 290.751 191.845 290.182 190.699 290.182C189.963 290.182 189.394 290.45 189.009 290.985C188.624 291.521 188.424 292.299 188.415 293.336V294.072C188.415 295.101 188.633 295.895 189.068 296.464C189.503 297.033 190.105 297.318 190.875 297.318C191.719 297.318 192.322 297.125 192.681 296.74V294.875H190.724V293.62H194.329V297.267H194.313Z" fill="#010101"/>
<path d="M202.268 298.506H195.868V297.418L199.039 293.964C199.499 293.453 199.825 293.027 200.018 292.684C200.21 292.341 200.31 291.998 200.31 291.655C200.31 291.203 200.185 290.835 199.926 290.559C199.666 290.283 199.332 290.141 198.897 290.141C198.386 290.141 197.985 290.3 197.7 290.609C197.416 290.927 197.274 291.354 197.274 291.897H195.684C195.684 291.32 195.818 290.793 196.078 290.333C196.345 289.873 196.722 289.505 197.207 289.254C197.692 289.003 198.261 288.869 198.905 288.869C199.833 288.869 200.561 289.103 201.088 289.564C201.624 290.024 201.891 290.668 201.891 291.487C201.891 291.964 201.758 292.458 201.49 292.985C201.222 293.512 200.787 294.097 200.176 294.758L197.851 297.251H202.268V298.506Z" fill="#010101"/>
<path d="M209.679 294.499C209.679 295.871 209.428 296.9 208.91 297.594C208.399 298.289 207.621 298.64 206.576 298.64C205.547 298.64 204.777 298.297 204.25 297.628C203.732 296.95 203.464 295.947 203.447 294.616V292.969C203.447 291.597 203.706 290.576 204.217 289.89C204.727 289.204 205.513 288.861 206.559 288.861C207.605 288.861 208.374 289.196 208.893 289.865C209.403 290.534 209.671 291.53 209.679 292.86V294.499ZM208.09 292.718C208.09 291.823 207.973 291.17 207.722 290.752C207.479 290.334 207.094 290.124 206.559 290.124C206.04 290.124 205.664 290.325 205.413 290.718C205.17 291.112 205.037 291.731 205.028 292.567V294.725C205.028 295.612 205.154 296.273 205.405 296.716C205.655 297.159 206.04 297.369 206.576 297.369C207.086 297.369 207.462 297.168 207.705 296.766C207.948 296.365 208.081 295.729 208.09 294.876V292.718Z" fill="#010101"/>
<path d="M252.726 288.986V295.344C252.726 296.356 252.399 297.159 251.755 297.745C251.111 298.33 250.249 298.631 249.17 298.631C248.083 298.631 247.213 298.338 246.577 297.761C245.941 297.184 245.615 296.373 245.615 295.344V288.995H247.263V295.36C247.263 295.996 247.422 296.481 247.748 296.816C248.074 297.151 248.543 297.318 249.17 297.318C250.442 297.318 251.078 296.649 251.078 295.302V288.986H252.726Z" fill="#010101"/>
<path d="M259.468 296.056C259.468 295.638 259.317 295.311 259.024 295.085C258.732 294.86 258.196 294.634 257.435 294.399C256.666 294.165 256.055 293.914 255.603 293.63C254.733 293.086 254.307 292.375 254.307 291.497C254.307 290.727 254.616 290.1 255.244 289.598C255.871 289.104 256.682 288.854 257.678 288.854C258.339 288.854 258.932 288.979 259.451 289.222C259.97 289.464 260.38 289.815 260.672 290.267C260.965 290.719 261.116 291.221 261.116 291.765H259.468C259.468 291.271 259.309 290.878 258.999 290.602C258.69 290.317 258.246 290.184 257.661 290.184C257.117 290.184 256.699 290.301 256.406 290.527C256.105 290.761 255.955 291.079 255.955 291.497C255.955 291.848 256.113 292.133 256.44 292.367C256.766 292.601 257.293 292.827 258.037 293.044C258.782 293.262 259.376 293.513 259.819 293.797C260.271 294.082 260.597 294.399 260.806 294.768C261.015 295.136 261.124 295.554 261.124 296.047C261.124 296.842 260.823 297.47 260.212 297.938C259.602 298.406 258.782 298.641 257.736 298.641C257.05 298.641 256.415 298.515 255.837 298.256C255.26 298.005 254.809 297.645 254.491 297.202C254.173 296.758 254.014 296.231 254.014 295.629H255.67C255.67 296.173 255.846 296.591 256.205 296.884C256.565 297.177 257.075 297.327 257.745 297.327C258.322 297.327 258.757 297.21 259.041 296.976C259.317 296.742 259.468 296.432 259.468 296.056Z" fill="#010101"/>
<path d="M267.9 296.289H264.211L263.441 298.506H261.726L265.323 288.986H266.804L270.401 298.506H268.678L267.9 296.289ZM264.671 294.951H267.431L266.051 291.002L264.671 294.951Z" fill="#010101"/>
<path d="M325.426 294.256H321.52V297.184H326.087V298.506H319.863V288.986H326.037V290.316H321.511V292.943H325.418V294.256H325.426Z" fill="#010101"/>
<path d="M334.393 288.986V295.344C334.393 296.356 334.067 297.159 333.423 297.745C332.779 298.33 331.917 298.631 330.838 298.631C329.751 298.631 328.881 298.338 328.245 297.761C327.609 297.184 327.283 296.373 327.283 295.344V288.995H328.931V295.36C328.931 295.996 329.09 296.481 329.416 296.816C329.742 297.151 330.211 297.318 330.838 297.318C332.11 297.318 332.746 296.649 332.746 295.302V288.986H334.393Z" fill="#010101"/>
<path d="M339.655 294.842H337.815V298.506H336.158V288.986H339.504C340.6 288.986 341.453 289.229 342.047 289.722C342.641 290.216 342.942 290.927 342.942 291.864C342.942 292.5 342.792 293.035 342.482 293.462C342.173 293.888 341.746 294.223 341.194 294.449L343.327 298.414V298.497H341.554L339.655 294.842ZM337.806 293.512H339.504C340.065 293.512 340.5 293.37 340.809 293.094C341.119 292.818 341.278 292.424 341.278 291.939C341.278 291.429 341.136 291.036 340.843 290.76C340.55 290.484 340.123 290.341 339.546 290.325H337.798V293.512H337.806Z" fill="#010101"/>
<path d="M352.102 293.998C352.102 294.926 351.943 295.746 351.617 296.449C351.299 297.152 350.831 297.695 350.237 298.072C349.643 298.448 348.948 298.641 348.171 298.641C347.401 298.641 346.715 298.448 346.113 298.072C345.51 297.695 345.042 297.16 344.716 296.457C344.39 295.763 344.222 294.96 344.214 294.048V293.513C344.214 292.584 344.381 291.764 344.707 291.053C345.034 290.342 345.502 289.799 346.096 289.422C346.698 289.046 347.384 288.854 348.154 288.854C348.932 288.854 349.618 289.037 350.212 289.414C350.814 289.79 351.274 290.326 351.6 291.02C351.926 291.714 352.094 292.534 352.094 293.463V293.998H352.102ZM350.446 293.496C350.446 292.442 350.245 291.631 349.852 291.07C349.459 290.51 348.89 290.225 348.154 290.225C347.443 290.225 346.882 290.501 346.481 291.062C346.079 291.622 345.87 292.417 345.862 293.438V293.99C345.862 295.035 346.063 295.847 346.472 296.415C346.882 296.984 347.443 297.269 348.171 297.269C348.907 297.269 349.467 296.993 349.86 296.432C350.253 295.872 350.454 295.06 350.454 293.99V293.496H350.446Z" fill="#010101"/>
<path d="M358.635 297.184H363.721V298.505H356.636V297.434L361.555 290.324H356.669V288.994H363.562V290.04L358.635 297.184Z" fill="#010101"/>
<path d="M372.563 293.998C372.563 294.926 372.404 295.746 372.078 296.449C371.76 297.152 371.291 297.695 370.697 298.072C370.104 298.448 369.409 298.641 368.631 298.641C367.862 298.641 367.176 298.448 366.574 298.072C365.971 297.695 365.503 297.16 365.177 296.457C364.85 295.763 364.683 294.96 364.675 294.048V293.513C364.675 292.584 364.842 291.764 365.168 291.053C365.494 290.342 365.963 289.799 366.557 289.422C367.159 289.046 367.845 288.854 368.615 288.854C369.393 288.854 370.079 289.037 370.672 289.414C371.275 289.79 371.735 290.326 372.061 291.02C372.387 291.714 372.555 292.534 372.555 293.463V293.998H372.563ZM370.907 293.496C370.907 292.442 370.706 291.631 370.313 291.07C369.92 290.51 369.351 290.225 368.615 290.225C367.904 290.225 367.343 290.501 366.942 291.062C366.54 291.622 366.331 292.417 366.323 293.438V293.99C366.323 295.035 366.523 295.847 366.933 296.415C367.343 296.984 367.904 297.269 368.631 297.269C369.367 297.269 369.928 296.993 370.321 296.432C370.714 295.872 370.915 295.06 370.915 293.99V293.496H370.907Z" fill="#010101"/>
<path d="M381.756 298.506H380.1L375.859 291.755V298.506H374.203V288.986H375.859L380.117 295.762V288.986H381.756V298.506Z" fill="#010101"/>
<path d="M389.276 294.256H385.37V297.184H389.937V298.506H383.714V288.986H389.887V290.316H385.362V292.943H389.268V294.256H389.276Z" fill="#010101"/>
<path d="M434.933 288.986H436.581V295.662C436.581 296.573 436.297 297.293 435.728 297.828C435.159 298.364 434.406 298.631 433.477 298.631C432.482 298.631 431.721 298.38 431.177 297.878C430.633 297.376 430.366 296.682 430.366 295.787H432.014C432.014 296.289 432.139 296.674 432.39 296.925C432.641 297.176 433.001 297.31 433.477 297.31C433.921 297.31 434.281 297.159 434.54 296.866C434.808 296.573 434.933 296.164 434.933 295.645V288.986Z" fill="#010101"/>
<path d="M443.658 296.289H439.969L439.199 298.506H437.484L441.081 288.986H442.562L446.159 298.506H444.436L443.658 296.289ZM440.429 294.951H443.189L441.809 291.002L440.429 294.951Z" fill="#010101"/>
<path d="M448.886 294.976V298.506H447.23V288.986H450.868C451.931 288.986 452.776 289.262 453.403 289.814C454.03 290.367 454.34 291.103 454.34 292.014C454.34 292.951 454.03 293.671 453.42 294.189C452.809 294.708 451.947 294.967 450.852 294.967H448.886V294.976ZM448.886 293.637H450.877C451.462 293.637 451.914 293.495 452.224 293.219C452.533 292.943 452.684 292.541 452.684 292.023C452.684 291.513 452.525 291.094 452.215 290.793C451.906 290.492 451.471 290.325 450.919 290.316H448.886V293.637Z" fill="#010101"/>
<path d="M459.953 296.289H456.264L455.494 298.506H453.779L457.376 288.986H458.857L462.454 298.506H460.731L459.953 296.289ZM456.732 294.951H459.493L458.113 291.002L456.732 294.951Z" fill="#010101"/>
<path d="M471.078 298.506H469.422L465.181 291.755V298.506H463.525V288.986H465.181L469.439 295.762V288.986H471.078V298.506Z" fill="#010101"/>
<path d="M507.274 294.254H503.367V297.182H507.935V298.504H501.711V288.984H507.885V290.314H503.359V292.941H507.266V294.254H507.274Z" fill="#010101"/>
<path d="M511.423 288.984L514.167 296.279L516.902 288.984H519.035V298.504H517.387V295.367L517.554 291.168L514.744 298.504H513.564L510.762 291.176L510.929 295.367V298.504H509.281V288.984H511.423Z" fill="#010101"/>
<path d="M526.555 294.254H522.649V297.182H527.216V298.504H520.993V288.984H527.166V290.314H522.641V292.941H526.547V294.254H526.555Z" fill="#010101"/>
<path d="M532.06 294.84H530.219V298.504H528.563V288.984H531.909C533.005 288.984 533.858 289.227 534.452 289.721C535.046 290.214 535.347 290.925 535.347 291.862C535.347 292.498 535.197 293.033 534.887 293.46C534.578 293.886 534.151 294.221 533.599 294.447L535.732 298.412V298.495H533.967L532.06 294.84ZM530.219 293.51H531.918C532.478 293.51 532.913 293.368 533.222 293.092C533.532 292.816 533.691 292.422 533.691 291.937C533.691 291.427 533.549 291.034 533.256 290.758C532.963 290.482 532.537 290.339 531.959 290.323H530.211V293.51H530.219Z" fill="#010101"/>
<path d="M544.206 297.267C543.863 297.719 543.386 298.054 542.775 298.288C542.165 298.522 541.471 298.631 540.701 298.631C539.906 298.631 539.195 298.447 538.585 298.087C537.974 297.727 537.497 297.209 537.163 296.531C536.828 295.854 536.652 295.076 536.644 294.172V293.428C536.644 291.989 536.987 290.868 537.673 290.057C538.359 289.245 539.321 288.844 540.559 288.844C541.621 288.844 542.457 289.103 543.085 289.63C543.712 290.157 544.08 290.91 544.206 291.897H542.583C542.399 290.751 541.738 290.182 540.592 290.182C539.856 290.182 539.287 290.45 538.902 290.985C538.518 291.521 538.317 292.299 538.308 293.336V294.072C538.308 295.101 538.526 295.895 538.961 296.464C539.396 297.033 539.998 297.318 540.768 297.318C541.613 297.318 542.215 297.125 542.575 296.74V294.875H540.617V293.62H544.223V297.267H544.206Z" fill="#010101"/>
<path d="M547.769 298.504H546.121V288.984H547.769V298.504Z" fill="#010101"/>
<path d="M557.347 298.504H555.691L551.45 291.753V298.504H549.793V288.984H551.45L555.708 295.76V288.984H557.347V298.504Z" fill="#010101"/>
<path d="M566.599 297.267C566.256 297.719 565.779 298.054 565.169 298.288C564.558 298.522 563.864 298.631 563.094 298.631C562.299 298.631 561.588 298.447 560.978 298.087C560.367 297.727 559.89 297.209 559.556 296.531C559.221 295.854 559.045 295.076 559.037 294.172V293.428C559.037 291.989 559.38 290.868 560.066 290.057C560.752 289.245 561.714 288.844 562.952 288.844C564.014 288.844 564.851 289.103 565.478 289.63C566.105 290.157 566.473 290.91 566.599 291.897H564.976C564.792 290.751 564.131 290.182 562.985 290.182C562.249 290.182 561.68 290.45 561.295 290.985C560.911 291.521 560.71 292.299 560.702 293.336V294.072C560.702 295.101 560.919 295.895 561.354 296.464C561.789 297.033 562.391 297.318 563.161 297.318C564.006 297.318 564.608 297.125 564.968 296.74V294.875H563.01V293.62H566.616V297.267H566.599Z" fill="#010101"/>
<path d="M579.038 297.267C578.695 297.719 578.218 298.054 577.607 298.288C576.997 298.522 576.302 298.631 575.533 298.631C574.738 298.631 574.027 298.447 573.416 298.087C572.806 297.727 572.329 297.209 571.994 296.531C571.66 295.854 571.484 295.076 571.476 294.172V293.428C571.476 291.989 571.819 290.868 572.505 290.057C573.191 289.245 574.153 288.844 575.391 288.844C576.453 288.844 577.289 289.103 577.917 289.63C578.544 290.157 578.912 290.91 579.038 291.897H577.415C577.231 290.751 576.57 290.182 575.424 290.182C574.688 290.182 574.119 290.45 573.734 290.985C573.35 291.521 573.149 292.299 573.14 293.336V294.072C573.14 295.101 573.358 295.895 573.793 296.464C574.228 297.033 574.83 297.318 575.6 297.318C576.445 297.318 577.047 297.125 577.407 296.74V294.875H575.449V293.62H579.054V297.267H579.038Z" fill="#010101"/>
<path d="M587.001 298.506H580.602V297.418L583.772 293.964C584.233 293.453 584.559 293.027 584.751 292.684C584.944 292.341 585.044 291.998 585.044 291.655C585.044 291.203 584.919 290.835 584.659 290.559C584.4 290.283 584.065 290.141 583.63 290.141C583.12 290.141 582.718 290.3 582.434 290.609C582.15 290.927 582.007 291.354 582.007 291.897H580.418C580.418 291.32 580.552 290.793 580.811 290.333C581.079 289.873 581.455 289.505 581.941 289.254C582.426 289.003 582.994 288.869 583.639 288.869C584.567 288.869 585.295 289.103 585.822 289.564C586.357 290.024 586.625 290.668 586.625 291.487C586.625 291.964 586.491 292.458 586.223 292.985C585.956 293.512 585.521 294.097 584.91 294.758L582.585 297.251H587.001V298.506Z" fill="#010101"/>
<path d="M594.413 294.499C594.413 295.871 594.162 296.9 593.643 297.594C593.133 298.289 592.355 298.64 591.309 298.64C590.28 298.64 589.511 298.297 588.984 297.628C588.465 296.95 588.198 295.947 588.181 294.616V292.969C588.181 291.597 588.44 290.576 588.95 289.89C589.461 289.204 590.247 288.861 591.293 288.861C592.338 288.861 593.108 289.196 593.626 289.865C594.137 290.534 594.404 291.53 594.413 292.86V294.499ZM592.823 292.718C592.823 291.823 592.706 291.17 592.455 290.752C592.213 290.334 591.828 290.124 591.293 290.124C590.774 290.124 590.397 290.325 590.146 290.718C589.904 291.112 589.77 291.731 589.762 292.567V294.725C589.762 295.612 589.887 296.273 590.138 296.716C590.389 297.159 590.774 297.369 591.309 297.369C591.82 297.369 592.196 297.168 592.438 296.766C592.681 296.365 592.815 295.729 592.823 294.876V292.718Z" fill="#010101"/>
<path d="M635.477 295.405C635.385 296.417 635.008 297.212 634.356 297.78C633.703 298.349 632.833 298.634 631.746 298.634C630.984 298.634 630.324 298.458 629.746 298.098C629.169 297.739 628.726 297.228 628.408 296.568C628.09 295.907 627.931 295.137 627.915 294.259V293.372C627.915 292.477 628.073 291.682 628.391 290.996C628.709 290.31 629.169 289.783 629.763 289.415C630.357 289.047 631.043 288.863 631.821 288.863C632.875 288.863 633.72 289.148 634.356 289.717C634.991 290.285 635.368 291.088 635.477 292.134H633.828C633.753 291.448 633.552 290.955 633.235 290.653C632.917 290.352 632.448 290.202 631.829 290.202C631.11 290.202 630.558 290.461 630.173 290.988C629.788 291.515 629.588 292.285 629.579 293.297V294.142C629.579 295.171 629.763 295.957 630.131 296.501C630.499 297.044 631.035 297.312 631.746 297.312C632.398 297.312 632.883 297.17 633.209 296.877C633.536 296.584 633.745 296.099 633.828 295.422H635.477V295.405Z" fill="#010101"/>
<path d="M644.511 298.508H642.863V294.283H638.605V298.508H636.949V288.988H638.605V292.945H642.863V288.988H644.511V298.508Z" fill="#010101"/>
<path d="M648.208 298.508H646.56V288.988H648.208V298.508Z" fill="#010101"/>
<path d="M657.786 298.508H656.13L651.889 291.757V298.508H650.241V288.988H651.897L656.155 295.764V288.988H657.795V298.508H657.786Z" fill="#010101"/>
<path d="M665.189 296.291H661.5L660.731 298.508H659.016L662.613 288.988H664.093L667.69 298.508H665.967L665.189 296.291ZM661.969 294.953H664.729L663.349 291.004L661.969 294.953Z" fill="#010101"/>
<path d="M764.583 176.642H758.184V175.555L761.354 172.1C761.814 171.59 762.141 171.163 762.333 170.82C762.526 170.477 762.626 170.134 762.626 169.791C762.626 169.34 762.5 168.972 762.241 168.696C761.99 168.42 761.647 168.277 761.212 168.277C760.694 168.277 760.3 168.436 760.016 168.746C759.732 169.064 759.589 169.49 759.589 170.034H758C758 169.457 758.134 168.93 758.393 168.47C758.652 168.01 759.037 167.642 759.522 167.391C760.016 167.131 760.576 167.006 761.221 167.006C762.141 167.006 762.868 167.24 763.404 167.7C763.939 168.16 764.207 168.804 764.207 169.624C764.207 170.101 764.073 170.595 763.805 171.121C763.538 171.64 763.094 172.234 762.492 172.895L760.167 175.388H764.583V176.642Z" fill="#010101"/>
<path d="M771.995 172.638C771.995 174.002 771.735 175.039 771.225 175.733C770.715 176.427 769.937 176.779 768.891 176.779C767.862 176.779 767.084 176.436 766.566 175.767C766.047 175.089 765.78 174.085 765.763 172.755V171.107C765.763 169.735 766.014 168.715 766.532 168.029C767.043 167.343 767.821 167 768.875 167C769.912 167 770.69 167.335 771.208 168.004C771.719 168.673 771.986 169.668 771.995 170.999V172.638ZM770.414 170.865C770.414 169.97 770.288 169.317 770.046 168.899C769.803 168.481 769.41 168.272 768.883 168.272C768.364 168.272 767.98 168.464 767.737 168.865C767.494 169.259 767.361 169.878 767.352 170.714V172.872C767.352 173.759 767.478 174.42 767.729 174.863C767.98 175.298 768.364 175.516 768.9 175.516C769.41 175.516 769.786 175.315 770.029 174.913C770.272 174.512 770.405 173.876 770.414 173.023V170.865Z" fill="#010101"/>
<path d="M777.7 176.646H776.119V169L773.785 169.795V168.465L777.499 167.102H777.7V176.646Z" fill="#010101"/>
<path d="M785.513 172.663C784.977 173.224 784.358 173.508 783.647 173.508C782.811 173.508 782.142 173.215 781.648 172.63C781.155 172.044 780.904 171.275 780.904 170.321C780.904 169.694 781.029 169.125 781.28 168.614C781.531 168.104 781.891 167.711 782.359 167.427C782.828 167.142 783.363 167 783.982 167C784.936 167 785.697 167.36 786.266 168.071C786.826 168.782 787.11 169.744 787.11 170.94V171.383C787.11 173.098 786.726 174.411 785.948 175.315C785.17 176.218 784.015 176.67 782.476 176.687H782.284V175.373H782.51C783.447 175.357 784.166 175.131 784.668 174.696C785.17 174.261 785.454 173.583 785.513 172.663ZM783.982 172.27C784.3 172.27 784.601 172.178 784.877 171.994C785.153 171.81 785.371 171.559 785.521 171.233V170.614C785.521 169.911 785.379 169.351 785.086 168.924C784.802 168.497 784.425 168.28 783.965 168.28C783.505 168.28 783.145 168.464 782.869 168.849C782.593 169.225 782.459 169.702 782.459 170.279C782.459 170.873 782.593 171.358 782.869 171.726C783.145 172.094 783.522 172.27 783.982 172.27Z" fill="#010101"/>
<path d="M760.583 225.658H754.184V224.571L757.354 221.116C757.814 220.606 758.141 220.179 758.333 219.836C758.526 219.493 758.626 219.15 758.626 218.807C758.626 218.355 758.5 217.987 758.241 217.711C757.99 217.435 757.647 217.293 757.212 217.293C756.694 217.293 756.3 217.452 756.016 217.761C755.732 218.079 755.589 218.506 755.589 219.05H754C754 218.472 754.134 217.945 754.393 217.485C754.652 217.025 755.037 216.657 755.522 216.406C756.016 216.147 756.576 216.021 757.221 216.021C758.141 216.021 758.869 216.256 759.404 216.716C759.939 217.176 760.207 217.82 760.207 218.64C760.207 219.117 760.073 219.61 759.805 220.137C759.538 220.656 759.094 221.25 758.492 221.911L756.167 224.403H760.583V225.658Z" fill="#010101"/>
<path d="M767.995 221.65C767.995 223.013 767.735 224.051 767.225 224.745C766.715 225.439 765.937 225.791 764.891 225.791C763.862 225.791 763.084 225.447 762.566 224.778C762.047 224.101 761.78 223.097 761.763 221.767V220.119C761.763 218.747 762.014 217.727 762.532 217.041C763.043 216.355 763.821 216.012 764.875 216.012C765.912 216.012 766.69 216.346 767.208 217.016C767.719 217.685 767.986 218.68 767.995 220.01V221.65ZM766.405 219.876C766.405 218.981 766.28 218.329 766.037 217.911C765.795 217.492 765.402 217.283 764.875 217.283C764.356 217.283 763.971 217.476 763.729 217.877C763.486 218.27 763.352 218.889 763.344 219.726V221.884C763.344 222.771 763.469 223.432 763.72 223.875C763.971 224.31 764.356 224.527 764.891 224.527C765.402 224.527 765.778 224.327 766.021 223.925C766.263 223.523 766.397 222.888 766.405 222.035V219.876Z" fill="#010101"/>
<path d="M775.799 225.658H769.4V224.571L772.57 221.116C773.031 220.606 773.357 220.179 773.549 219.836C773.741 219.493 773.842 219.15 773.842 218.807C773.842 218.355 773.716 217.987 773.457 217.711C773.206 217.435 772.863 217.293 772.428 217.293C771.91 217.293 771.516 217.452 771.232 217.761C770.948 218.079 770.805 218.506 770.805 219.05H769.216C769.216 218.472 769.35 217.945 769.609 217.485C769.869 217.025 770.253 216.657 770.738 216.406C771.232 216.147 771.792 216.021 772.437 216.021C773.357 216.021 774.084 216.256 774.62 216.716C775.155 217.176 775.423 217.82 775.423 218.64C775.423 219.117 775.289 219.61 775.021 220.137C774.754 220.656 774.31 221.25 773.708 221.911L771.383 224.403H775.799V225.658Z" fill="#010101"/>
<path d="M783.211 221.65C783.211 223.013 782.951 224.051 782.441 224.745C781.931 225.439 781.153 225.791 780.107 225.791C779.078 225.791 778.301 225.447 777.782 224.778C777.263 224.101 776.995 223.097 776.979 221.767V220.119C776.979 218.747 777.23 217.727 777.748 217.041C778.259 216.355 779.037 216.012 780.091 216.012C781.128 216.012 781.906 216.346 782.424 217.016C782.935 217.685 783.202 218.68 783.211 220.01V221.65ZM781.621 219.876C781.621 218.981 781.496 218.329 781.253 217.911C781.011 217.492 780.618 217.283 780.091 217.283C779.572 217.283 779.187 217.476 778.945 217.877C778.702 218.27 778.568 218.889 778.56 219.726V221.884C778.56 222.771 778.685 223.432 778.936 223.875C779.187 224.31 779.572 224.527 780.107 224.527C780.618 224.527 780.994 224.327 781.237 223.925C781.479 223.523 781.613 222.888 781.621 222.035V219.876Z" fill="#010101"/>
<path d="M788.071 221.792C788.071 220.789 788.205 219.827 788.473 218.923C788.74 218.02 789.142 217.208 789.66 216.497C790.179 215.786 790.739 215.284 791.317 215L791.634 215.929C791.024 216.397 790.522 217.108 790.137 218.062C789.752 219.015 789.543 220.111 789.51 221.349L789.501 221.91C789.501 223.231 789.685 224.402 790.062 225.44C790.438 226.477 790.957 227.263 791.626 227.798L791.308 228.677C790.723 228.392 790.171 227.882 789.644 227.171C789.117 226.452 788.723 225.649 788.456 224.745C788.205 223.85 788.071 222.863 788.071 221.792Z" fill="#010101"/>
<path d="M794.52 222.126V225.656H792.864V216.137H796.503C797.565 216.137 798.41 216.413 799.037 216.965C799.665 217.517 799.974 218.253 799.974 219.165C799.974 220.102 799.665 220.821 799.054 221.34C798.444 221.858 797.582 222.118 796.486 222.118H794.52V222.126ZM794.52 220.796H796.511C797.097 220.796 797.549 220.654 797.858 220.378C798.168 220.102 798.318 219.7 798.318 219.182C798.318 218.663 798.159 218.253 797.85 217.952C797.54 217.651 797.105 217.483 796.553 217.475H794.52V220.796Z" fill="#010101"/>
<path d="M804.918 222.002H803.078V225.666H801.422V216.146H804.768C805.863 216.146 806.708 216.389 807.31 216.883C807.904 217.376 808.206 218.087 808.206 219.024C808.206 219.66 808.055 220.195 807.745 220.622C807.436 221.048 807.009 221.383 806.457 221.617L808.59 225.582V225.666H806.817L804.918 222.002ZM803.078 220.664H804.776C805.336 220.664 805.771 220.521 806.081 220.245C806.39 219.969 806.549 219.576 806.549 219.091C806.549 218.581 806.407 218.188 806.114 217.911C805.822 217.635 805.395 217.485 804.818 217.476H803.069V220.664H803.078Z" fill="#010101"/>
<path d="M817.365 221.146C817.365 222.075 817.206 222.895 816.88 223.597C816.554 224.3 816.094 224.844 815.5 225.22C814.898 225.597 814.212 225.789 813.434 225.789C812.664 225.789 811.978 225.597 811.376 225.22C810.774 224.844 810.305 224.309 809.979 223.606C809.653 222.912 809.486 222.109 809.477 221.197V220.661C809.477 219.733 809.644 218.913 809.971 218.202C810.297 217.491 810.765 216.947 811.359 216.571C811.953 216.194 812.647 216.002 813.417 216.002C814.195 216.002 814.881 216.186 815.475 216.562C816.069 216.939 816.537 217.474 816.863 218.169C817.19 218.863 817.357 219.683 817.357 220.611V221.146H817.365ZM815.717 220.653C815.717 219.599 815.517 218.788 815.124 218.227C814.73 217.667 814.162 217.382 813.425 217.382C812.706 217.382 812.154 217.658 811.752 218.219C811.351 218.779 811.142 219.574 811.133 220.594V221.146C811.133 222.192 811.334 222.995 811.744 223.572C812.154 224.141 812.714 224.426 813.442 224.426C814.178 224.426 814.739 224.15 815.132 223.589C815.525 223.029 815.726 222.217 815.726 221.146V220.653H815.717Z" fill="#010101"/>
<path d="M822.911 216.146H824.559V222.822C824.559 223.734 824.275 224.453 823.706 224.988C823.137 225.524 822.384 225.791 821.456 225.791C820.46 225.791 819.691 225.54 819.155 225.039C818.612 224.537 818.344 223.842 818.344 222.947H819.992C819.992 223.449 820.117 223.834 820.368 224.085C820.619 224.336 820.979 224.47 821.456 224.47C821.899 224.47 822.25 224.319 822.518 224.026C822.777 223.734 822.911 223.324 822.911 222.805V216.146Z" fill="#010101"/>
<path d="M832.004 221.407H828.098V224.335H832.665V225.656H826.441V216.137H832.615V217.467H828.089V220.093H831.996V221.407H832.004Z" fill="#010101"/>
<path d="M841.273 222.563C841.172 223.575 840.804 224.37 840.152 224.939C839.499 225.507 838.629 225.792 837.542 225.792C836.781 225.792 836.111 225.616 835.542 225.257C834.965 224.897 834.522 224.386 834.204 223.726C833.886 223.065 833.727 222.295 833.711 221.417V220.53C833.711 219.635 833.869 218.841 834.187 218.155C834.505 217.469 834.965 216.942 835.559 216.574C836.153 216.206 836.839 216.021 837.617 216.021C838.663 216.021 839.516 216.306 840.152 216.875C840.787 217.444 841.164 218.247 841.273 219.292H839.625C839.549 218.606 839.349 218.113 839.031 217.812C838.713 217.51 838.236 217.36 837.625 217.36C836.906 217.36 836.354 217.619 835.969 218.146C835.584 218.673 835.384 219.443 835.375 220.463V221.308C835.375 222.337 835.559 223.123 835.927 223.659C836.295 224.203 836.831 224.47 837.542 224.47C838.194 224.47 838.679 224.32 839.006 224.035C839.332 223.742 839.541 223.257 839.625 222.58H841.273V222.563Z" fill="#010101"/>
<path d="M849.437 217.476H846.467V225.658H844.828V217.476H841.883V216.146H849.428V217.476H849.437Z" fill="#010101"/>
<path d="M856.246 221.407H852.339V224.335H856.907V225.656H850.683V216.137H856.857V217.467H852.331V220.093H856.238V221.407H856.246Z" fill="#010101"/>
<path d="M858.254 225.656V216.137H861.064C861.901 216.137 862.654 216.321 863.306 216.697C863.959 217.074 864.46 217.601 864.82 218.295C865.18 218.981 865.355 219.776 865.355 220.662V221.139C865.355 222.042 865.18 222.837 864.82 223.515C864.46 224.201 863.95 224.728 863.281 225.096C862.62 225.464 861.851 225.648 860.997 225.648H858.254V225.656ZM859.91 217.475V224.335H860.989C861.859 224.335 862.52 224.067 862.988 223.523C863.457 222.979 863.691 222.201 863.699 221.189V220.662C863.699 219.633 863.473 218.839 863.03 218.295C862.578 217.751 861.926 217.475 861.073 217.475H859.91Z" fill="#010101"/>
<path d="M869.906 221.894C869.906 222.865 869.772 223.793 869.505 224.696C869.237 225.592 868.835 226.411 868.292 227.156C867.748 227.892 867.187 228.402 866.602 228.687L866.284 227.808C866.936 227.298 867.455 226.528 867.84 225.491C868.225 224.454 868.409 223.266 868.409 221.936V221.785C868.409 220.573 868.241 219.468 867.915 218.473C867.581 217.477 867.112 216.683 866.493 216.081L866.292 215.896L866.61 215.01C867.171 215.277 867.706 215.754 868.233 216.449C868.752 217.134 869.153 217.904 869.438 218.757C869.714 219.611 869.873 220.489 869.906 221.392V221.894Z" fill="#010101"/>
<path d="M763.554 263.652H761.897L757.656 256.902V263.652H756V254.133H757.656L761.914 260.908V254.133H763.554V263.652Z" fill="#010101"/>
<path d="M773.107 259.145C773.107 260.073 772.948 260.893 772.621 261.596C772.295 262.298 771.835 262.842 771.241 263.218C770.639 263.595 769.953 263.787 769.175 263.787C768.405 263.787 767.72 263.595 767.117 263.218C766.515 262.842 766.046 262.307 765.72 261.604C765.394 260.91 765.227 260.107 765.218 259.195V258.659C765.218 257.731 765.386 256.911 765.712 256.2C766.038 255.489 766.507 254.945 767.101 254.569C767.703 254.192 768.389 254 769.158 254C769.928 254 770.622 254.184 771.216 254.56C771.81 254.937 772.279 255.472 772.605 256.167C772.931 256.861 773.098 257.681 773.098 258.609V259.145H773.107ZM771.45 258.651C771.45 257.597 771.25 256.786 770.856 256.225C770.463 255.665 769.894 255.38 769.158 255.38C768.447 255.38 767.887 255.656 767.485 256.217C767.084 256.777 766.875 257.572 766.866 258.592V259.145C766.866 260.19 767.067 260.993 767.477 261.57C767.887 262.139 768.447 262.424 769.175 262.424C769.911 262.424 770.472 262.148 770.865 261.587C771.258 261.027 771.459 260.215 771.459 259.145V258.651H771.45Z" fill="#010101"/>
<path d="M777.958 261.586L780.376 254.141H782.191L778.77 263.66H777.172L773.759 254.141H775.566L777.958 261.586Z" fill="#010101"/>
<path d="M792.739 263.654H786.34V262.567L789.51 259.112C789.97 258.602 790.297 258.175 790.489 257.832C790.681 257.489 790.782 257.146 790.782 256.803C790.782 256.351 790.656 255.983 790.397 255.707C790.146 255.431 789.803 255.289 789.368 255.289C788.858 255.289 788.456 255.448 788.172 255.757C787.887 256.067 787.745 256.502 787.745 257.046H786.156C786.156 256.469 786.29 255.942 786.549 255.481C786.808 255.021 787.193 254.653 787.678 254.402C788.172 254.143 788.732 254.018 789.376 254.018C790.297 254.018 791.033 254.252 791.56 254.712C792.087 255.172 792.363 255.816 792.363 256.636C792.363 257.113 792.229 257.606 791.961 258.133C791.694 258.652 791.259 259.246 790.648 259.907L788.322 262.399H792.739V263.654Z" fill="#010101"/>
<path d="M800.151 259.648C800.151 261.011 799.891 262.049 799.381 262.743C798.871 263.437 798.093 263.789 797.047 263.789C796.019 263.789 795.241 263.446 794.722 262.776C794.203 262.099 793.936 261.095 793.919 259.765V258.117C793.919 256.745 794.178 255.725 794.688 255.039C795.199 254.353 795.985 254.01 797.031 254.01C798.076 254.01 798.846 254.344 799.365 255.014C799.883 255.683 800.142 256.678 800.151 258.008V259.648ZM798.561 257.874C798.561 256.979 798.436 256.327 798.193 255.909C797.951 255.49 797.566 255.281 797.031 255.281C796.512 255.281 796.127 255.474 795.885 255.875C795.642 256.268 795.508 256.887 795.5 257.724V259.882C795.5 260.769 795.625 261.43 795.876 261.873C796.127 262.308 796.512 262.525 797.047 262.525C797.558 262.525 797.934 262.325 798.177 261.923C798.419 261.522 798.553 260.886 798.561 260.033V257.874Z" fill="#010101"/>
<path d="M807.955 263.654H801.556V262.567L804.726 259.112C805.186 258.602 805.513 258.175 805.705 257.832C805.897 257.489 805.998 257.146 805.998 256.803C805.998 256.351 805.872 255.983 805.613 255.707C805.362 255.431 805.019 255.289 804.584 255.289C804.074 255.289 803.672 255.448 803.388 255.757C803.103 256.067 802.961 256.502 802.961 257.046H801.372C801.372 256.469 801.506 255.942 801.765 255.481C802.024 255.021 802.409 254.653 802.894 254.402C803.388 254.143 803.948 254.018 804.593 254.018C805.513 254.018 806.249 254.252 806.776 254.712C807.303 255.172 807.579 255.816 807.579 256.636C807.579 257.113 807.445 257.606 807.177 258.133C806.91 258.652 806.475 259.246 805.864 259.907L803.539 262.399H807.955V263.654Z" fill="#010101"/>
<path d="M815.367 259.648C815.367 261.011 815.108 262.049 814.597 262.743C814.087 263.437 813.309 263.789 812.263 263.789C811.235 263.789 810.457 263.446 809.938 262.776C809.419 262.099 809.152 261.095 809.135 259.765V258.117C809.135 256.745 809.394 255.725 809.904 255.039C810.415 254.353 811.201 254.01 812.247 254.01C813.292 254.01 814.062 254.344 814.581 255.014C815.099 255.683 815.358 256.678 815.367 258.008V259.648ZM813.778 257.874C813.778 256.979 813.652 256.327 813.409 255.909C813.167 255.49 812.782 255.281 812.247 255.281C811.728 255.281 811.343 255.474 811.101 255.875C810.858 256.268 810.724 256.887 810.716 257.724V259.882C810.716 260.769 810.841 261.43 811.092 261.873C811.343 262.308 811.728 262.525 812.263 262.525C812.774 262.525 813.15 262.325 813.393 261.923C813.635 261.522 813.769 260.886 813.778 260.033V257.874Z" fill="#010101"/>
<path d="M756 275.847C756 274.843 756.134 273.89 756.402 272.978C756.669 272.075 757.071 271.263 757.589 270.552C758.108 269.841 758.669 269.339 759.246 269.055L759.564 269.983C758.953 270.452 758.451 271.163 758.066 272.116C757.682 273.07 757.472 274.166 757.439 275.404L757.431 275.964C757.431 277.286 757.615 278.465 757.991 279.494C758.367 280.523 758.886 281.318 759.555 281.853L759.237 282.732C758.652 282.447 758.1 281.945 757.573 281.226C757.046 280.506 756.653 279.703 756.385 278.8C756.117 277.897 756 276.918 756 275.847Z" fill="#010101"/>
<path d="M762.449 276.183V279.713H760.793V270.193H764.432C765.494 270.193 766.339 270.469 766.966 271.021C767.594 271.574 767.903 272.31 767.903 273.222C767.903 274.158 767.594 274.878 766.983 275.396C766.373 275.915 765.511 276.174 764.415 276.174H762.449V276.183ZM762.449 274.853H764.44C765.026 274.853 765.478 274.711 765.787 274.434C766.097 274.158 766.247 273.757 766.247 273.238C766.247 272.728 766.088 272.31 765.779 272.009C765.469 271.707 765.034 271.54 764.482 271.532H762.449V274.853Z" fill="#010101"/>
<path d="M772.847 276.055H771.007V279.719H769.351V270.199H772.697C773.792 270.199 774.645 270.442 775.239 270.935C775.833 271.429 776.135 272.14 776.135 273.077C776.135 273.713 775.984 274.248 775.674 274.674C775.365 275.101 774.938 275.436 774.386 275.662L776.519 279.627V279.71H774.746L772.847 276.055ZM771.007 274.716H772.705C773.265 274.716 773.7 274.574 774.01 274.298C774.319 274.022 774.478 273.629 774.478 273.144C774.478 272.633 774.336 272.24 774.043 271.964C773.75 271.688 773.324 271.546 772.747 271.529H770.998V274.716H771.007Z" fill="#010101"/>
<path d="M785.303 275.203C785.303 276.132 785.144 276.951 784.818 277.654C784.491 278.357 784.031 278.9 783.437 279.277C782.843 279.653 782.149 279.846 781.371 279.846C780.601 279.846 779.916 279.653 779.313 279.277C778.711 278.9 778.243 278.365 777.916 277.662C777.59 276.968 777.423 276.165 777.414 275.253V274.718C777.414 273.789 777.582 272.97 777.908 272.259C778.234 271.548 778.703 271.004 779.297 270.627C779.899 270.251 780.585 270.059 781.354 270.059C782.132 270.059 782.818 270.243 783.412 270.619C784.006 270.995 784.475 271.531 784.801 272.225C785.127 272.919 785.294 273.739 785.294 274.668V275.203H785.303ZM783.646 274.71C783.646 273.656 783.446 272.844 783.052 272.284C782.659 271.723 782.09 271.439 781.354 271.439C780.643 271.439 780.083 271.715 779.681 272.275C779.28 272.836 779.071 273.63 779.062 274.651V275.203C779.062 276.249 779.263 277.06 779.673 277.629C780.083 278.198 780.643 278.482 781.371 278.482C782.107 278.482 782.668 278.206 783.061 277.646C783.454 277.085 783.655 276.274 783.655 275.203V274.71H783.646Z" fill="#010101"/>
<path d="M790.84 270.199H792.488V276.875C792.488 277.786 792.204 278.506 791.635 279.041C791.066 279.576 790.313 279.844 789.385 279.844C788.39 279.844 787.628 279.593 787.085 279.091C786.541 278.589 786.273 277.895 786.273 277H787.921C787.921 277.502 788.047 277.887 788.297 278.138C788.548 278.389 788.908 278.523 789.385 278.523C789.828 278.523 790.18 278.372 790.447 278.079C790.715 277.786 790.84 277.376 790.84 276.858V270.199Z" fill="#010101"/>
<path d="M799.942 275.463H796.035V278.391H800.602V279.713H794.379V270.193H800.552V271.523H796.027V274.15H799.933V275.463H799.942Z" fill="#010101"/>
<path d="M809.202 276.618C809.11 277.63 808.733 278.425 808.081 278.993C807.428 279.562 806.558 279.847 805.471 279.847C804.71 279.847 804.049 279.671 803.471 279.311C802.894 278.952 802.451 278.441 802.133 277.78C801.815 277.12 801.656 276.35 801.64 275.472V274.585C801.64 273.69 801.799 272.895 802.116 272.209C802.434 271.523 802.894 270.996 803.488 270.628C804.082 270.26 804.768 270.076 805.546 270.076C806.592 270.076 807.445 270.361 808.081 270.929C808.716 271.498 809.093 272.301 809.202 273.347H807.554C807.478 272.661 807.278 272.167 806.96 271.866C806.642 271.565 806.173 271.415 805.554 271.415C804.835 271.415 804.283 271.674 803.898 272.201C803.513 272.728 803.313 273.498 803.304 274.51V275.355C803.304 276.383 803.488 277.17 803.856 277.713C804.224 278.257 804.76 278.525 805.471 278.525C806.123 278.525 806.608 278.383 806.935 278.09C807.261 277.797 807.47 277.312 807.554 276.634H809.202V276.618Z" fill="#010101"/>
<path d="M817.366 271.529H814.396V279.71H812.757V271.529H809.812V270.199H817.358V271.529H817.366Z" fill="#010101"/>
<path d="M824.175 275.463H820.269V278.391H824.836V279.713H818.612V270.193H824.786V271.523H820.26V274.15H824.167V275.463H824.175Z" fill="#010101"/>
<path d="M826.183 279.713V270.193H828.993C829.83 270.193 830.583 270.377 831.235 270.754C831.888 271.13 832.389 271.657 832.749 272.352C833.109 273.046 833.285 273.832 833.285 274.719V275.196C833.285 276.099 833.109 276.894 832.749 277.571C832.389 278.249 831.879 278.784 831.21 279.152C830.541 279.52 829.788 279.704 828.926 279.704H826.183V279.713ZM827.839 271.532V278.391H828.918C829.788 278.391 830.449 278.123 830.917 277.58C831.386 277.036 831.62 276.258 831.628 275.246V274.719C831.628 273.69 831.402 272.895 830.959 272.352C830.516 271.808 829.855 271.532 829.002 271.532H827.839Z" fill="#010101"/>
<path d="M837.835 275.947C837.835 276.917 837.701 277.846 837.434 278.749C837.166 279.653 836.765 280.464 836.221 281.209C835.677 281.953 835.117 282.455 834.531 282.739L834.213 281.861C834.866 281.359 835.384 280.581 835.769 279.544C836.154 278.507 836.338 277.319 836.338 275.989V275.838C836.338 274.625 836.171 273.521 835.844 272.526C835.518 271.53 835.041 270.736 834.422 270.133L834.222 269.949L834.539 269.062C835.1 269.33 835.635 269.815 836.162 270.501C836.689 271.187 837.082 271.957 837.367 272.81C837.651 273.663 837.802 274.542 837.835 275.445V275.947Z" fill="#010101"/>
<path d="M6.26541 2.64338C6.26541 3.11183 6.14835 3.5217 5.90577 3.88977C5.66318 4.24946 5.33691 4.54226 4.92702 4.75139C5.42056 4.98561 5.80535 5.29512 6.07303 5.69665C6.34071 6.09817 6.47453 6.54988 6.47453 7.05178C6.47453 7.88828 6.19021 8.54913 5.62138 9.04266C5.05256 9.5362 4.29965 9.77869 3.36276 9.77869C2.41751 9.77869 1.65632 9.5362 1.09587 9.04266C0.535408 8.54913 0.242615 7.88828 0.242615 7.05178C0.242615 6.54151 0.376439 6.08142 0.644121 5.6799C0.911802 5.27838 1.29658 4.96051 1.78175 4.74302C1.37187 4.53389 1.0457 4.24946 0.811483 3.88139C0.577262 3.5217 0.451741 3.10345 0.451741 2.63501C0.451741 1.8236 0.711008 1.17945 1.23801 0.711009C1.765 0.242566 2.46769 0 3.35439 0C4.24945 0 4.95214 0.234201 5.47914 0.711009C6.00614 1.18782 6.26541 1.83197 6.26541 2.64338ZM4.89353 6.97642C4.89353 6.50798 4.75132 6.1232 4.47528 5.83879C4.19923 5.55437 3.82284 5.40379 3.36276 5.40379C2.90268 5.40379 2.53467 5.54601 2.25862 5.83879C1.98257 6.1232 1.84037 6.50799 1.84037 6.98479C1.84037 7.45324 1.9742 7.82127 2.25025 8.10568C2.52629 8.38173 2.89433 8.52393 3.37951 8.52393C3.85631 8.52393 4.23271 8.39011 4.50039 8.12243C4.76808 7.85475 4.89353 7.46159 4.89353 6.97642ZM4.6844 2.70189C4.6844 2.28364 4.56735 1.94906 4.32476 1.68138C4.08217 1.4137 3.76427 1.27988 3.35439 1.27988C2.9445 1.27988 2.62661 1.40532 2.39239 1.66464C2.15817 1.92395 2.04112 2.26692 2.04112 2.71027C2.04112 3.14525 2.15817 3.48821 2.40076 3.74752C2.63498 4.00684 2.96124 4.13228 3.36276 4.13228C3.76428 4.13228 4.09054 4.00684 4.32476 3.74752C4.56735 3.47984 4.6844 3.13688 4.6844 2.70189Z" fill="#010101"/>
<path d="M5.22012 69.5128V70.8262H5.02774C4.14104 70.8429 3.43008 71.0855 2.89471 71.5623C2.35935 72.0391 2.04984 72.7083 1.94946 73.5782C2.45973 73.0429 3.11217 72.7752 3.90685 72.7752C4.74336 72.7752 5.41256 73.0681 5.89774 73.662C6.38291 74.2559 6.62549 75.0171 6.62549 75.954C6.62549 76.9243 6.34106 77.7022 5.77224 78.3045C5.20342 78.9068 4.45899 79.1996 3.53047 79.1996C2.57685 79.1996 1.80726 78.8483 1.2217 78.1456C0.627787 77.443 0.334961 76.5228 0.334961 75.3851V74.8414C0.334961 73.1684 0.744815 71.8635 1.55622 70.9182C2.36763 69.973 3.53879 69.4961 5.06123 69.4961H5.22012V69.5128ZM3.51372 74.0551C3.16239 74.0551 2.8445 74.1555 2.56009 74.3479C2.26732 74.5403 2.05818 74.8079 1.92434 75.1341V75.6194C1.92434 76.322 2.07494 76.8825 2.36771 77.3007C2.66049 77.719 3.04528 77.9281 3.52209 77.9281C3.9989 77.9281 4.36693 77.7525 4.64298 77.4011C4.91903 77.0498 5.05286 76.5813 5.05286 76.0125C5.05286 75.4437 4.91065 74.9668 4.63461 74.6071C4.34183 74.2391 3.9738 74.0551 3.51372 74.0551Z" fill="#010101"/>
<path d="M5.73841 144.223H6.91791V145.495H5.73841V147.611H4.14913V145.495H0.0418661L0 144.525L4.10727 138.092H5.74678V144.223H5.73841ZM1.66464 144.223H4.15751V140.25L4.04038 140.459L1.66464 144.223Z" fill="#010101"/>
<path d="M7.06028 215.123H0.660996V214.035L3.83138 210.581C4.29146 210.07 4.61763 209.644 4.81003 209.301C5.00242 208.958 5.10278 208.615 5.10278 208.272C5.10278 207.82 4.97734 207.452 4.71802 207.176C4.45871 206.9 4.12412 206.758 3.68914 206.758C3.17051 206.758 2.7773 206.917 2.49289 207.226C2.20848 207.544 2.06637 207.971 2.06637 208.514H0.47699C0.47699 207.937 0.610806 207.41 0.870122 206.95C1.12944 206.49 1.51421 206.122 1.99938 205.871C2.48456 205.62 3.0534 205.486 3.69751 205.486C4.61767 205.486 5.34541 205.721 5.88078 206.181C6.41614 206.641 6.68379 207.285 6.68379 208.105C6.68379 208.581 6.54996 209.075 6.28228 209.602C6.0146 210.129 5.5713 210.714 4.96902 211.375L2.64351 213.868H7.06028V215.123Z" fill="#010101"/>
<path d="M6.84262 281.503C6.84262 282.867 6.58326 283.904 6.073 284.598C5.56273 285.293 4.78485 285.644 3.73922 285.644C2.71032 285.644 1.93234 285.301 1.41371 284.632C0.895077 283.954 0.627326 282.95 0.610596 281.62V279.972C0.610596 278.601 0.869949 277.58 1.38022 276.894C1.89048 276.208 2.67684 275.865 3.72247 275.865C4.7681 275.865 5.53762 276.2 6.05625 276.869C6.57488 277.538 6.83425 278.534 6.84262 279.864V281.503ZM5.25324 279.722C5.25324 278.826 5.12781 278.174 4.88522 277.756C4.64264 277.337 4.25783 277.128 3.72247 277.128C3.20384 277.128 2.81905 277.321 2.57646 277.722C2.33388 278.115 2.19997 278.734 2.1916 279.571V281.729C2.1916 282.616 2.31714 283.277 2.56809 283.72C2.81904 284.155 3.20385 284.372 3.73922 284.372C4.24948 284.372 4.62589 284.172 4.86848 283.77C5.11106 283.369 5.24487 282.733 5.25324 281.88V279.722Z" fill="#010101"/>
</svg>
