<svg width="816" height="305" viewBox="0 0 816 305" fill="none" xmlns="http://www.w3.org/2000/svg">
<path d="M80.3821 28.71L408 28.0117V70.6386" stroke="#333333" stroke-width="3" stroke-miterlimit="10" stroke-dasharray="12 12"/>
<path d="M816 207.045H513.958V304.478H816V207.045Z" fill="#2B338D"/>
<path d="M816 2.43555H513.958V99.8684H816V2.43555Z" fill="#2B338D"/>
<path d="M664.979 99.8691V210.058" stroke="#333333" stroke-width="3" stroke-miterlimit="10"/>
<path d="M302.042 207.045H0V304.478H302.042V207.045Z" fill="#2B338D"/>
<path d="M559.427 70.6387H257.385V219.224H559.427V70.6387Z" fill="#5DC9E5"/>
<path d="M85.2537 0H0V56.0239H85.2537V0Z" fill="#5DC9E5"/>
<path d="M257.385 144.932H150.615V207.045" stroke="#333333" stroke-width="3" stroke-miterlimit="10"/>
<path d="M302.042 255.762H513.958" stroke="#333333" stroke-width="3" stroke-miterlimit="10"/>
<path d="M625.86 48.189C625.86 47.4339 625.673 46.8493 625.3 46.4189C624.926 45.9886 624.277 45.5826 623.343 45.2091C622.409 44.8357 621.549 44.446 620.761 44.0563C619.973 43.6665 619.291 43.2118 618.723 42.7003C618.155 42.1888 617.716 41.5879 617.408 40.914C617.099 40.24 616.953 39.4201 616.953 38.462C616.953 36.8543 617.497 35.5309 618.577 34.4834C619.657 33.436 621.11 32.8352 622.913 32.6647V29.6523H625.178V32.7215C626.916 32.9813 628.288 33.6959 629.278 34.8732C630.269 36.0505 630.772 37.5363 630.772 39.347H625.949C625.949 38.3564 625.763 37.5931 625.381 37.0654C624.999 36.5376 624.455 36.2697 623.757 36.2697C623.132 36.2697 622.645 36.4645 622.296 36.8624C621.946 37.2602 621.776 37.8042 621.776 38.4944C621.776 39.2008 621.979 39.7611 622.377 40.1752C622.775 40.5892 623.416 40.9871 624.301 41.3606C625.186 41.7341 626.022 42.1238 626.802 42.5298C627.581 42.9358 628.263 43.3904 628.832 43.9101C629.4 44.4297 629.847 45.0224 630.171 45.7044C630.496 46.3864 630.659 47.2147 630.659 48.1728C630.659 49.7966 630.139 51.1282 629.108 52.1513C628.077 53.1743 626.672 53.7751 624.894 53.9456V56.8118H622.628V53.9294C620.558 53.7102 618.967 52.9956 617.854 51.794C616.742 50.5923 616.19 49.0009 616.19 47.036H620.996C620.996 48.124 621.24 48.9441 621.719 49.5125C622.198 50.0808 622.88 50.365 623.765 50.365C624.415 50.365 624.918 50.1701 625.292 49.7885C625.665 49.4069 625.86 48.8629 625.86 48.189Z" fill="white"/>
<path d="M643.869 53.6953H639.046V38.3415L634.304 39.7298V36.0761L643.422 32.9258H643.861V53.6953H643.869Z" fill="white"/>
<path d="M664.565 45.2019C664.565 48.0113 663.932 50.171 662.673 51.6975C661.415 53.2239 659.637 53.9791 657.339 53.9791C655.025 53.9791 653.239 53.2158 651.972 51.6812C650.705 50.1467 650.072 47.9869 650.072 45.2019V41.4021C650.072 38.5928 650.705 36.433 651.964 34.9066C653.222 33.3802 655.009 32.625 657.306 32.625C659.604 32.625 661.39 33.3883 662.657 34.9229C663.924 36.4574 664.557 38.6172 664.557 41.4184V45.2019H664.565ZM659.758 40.7932C659.758 39.2992 659.564 38.1868 659.174 37.448C658.784 36.7091 658.167 36.3438 657.314 36.3438C656.486 36.3438 655.885 36.6847 655.512 37.3748C655.138 38.065 654.936 39.0962 654.903 40.4846V45.7947C654.903 47.3455 655.098 48.4822 655.488 49.1967C655.877 49.9112 656.494 50.2766 657.347 50.2766C658.167 50.2766 658.768 49.9275 659.158 49.2292C659.547 48.531 659.75 47.4348 659.758 45.9408V40.7932Z" fill="white"/>
<path d="M681.478 46.1022C681.478 48.6354 680.958 50.576 679.911 51.9401C678.864 53.3041 677.386 53.978 675.486 53.978C673.919 53.978 672.652 53.3528 671.686 52.1105L671.483 53.6939H667.172V31.7715H671.978V39.4929C672.871 38.478 674.032 37.9666 675.445 37.9666C677.37 37.9666 678.855 38.6567 679.895 40.037C680.934 41.4173 681.462 43.3579 681.462 45.8586V46.1022H681.478ZM676.655 45.7936C676.655 44.3159 676.46 43.2523 676.062 42.6271C675.664 41.9938 675.064 41.6771 674.244 41.6771C673.156 41.6771 672.409 42.0912 671.986 42.9194V49.0495C672.392 49.8696 673.156 50.2755 674.268 50.2755C675.397 50.2755 676.119 49.7235 676.42 48.6192C676.582 48.0752 676.655 47.1333 676.655 45.7936Z" fill="white"/>
<path d="M688.014 38.251L688.168 40.0616C689.232 38.665 690.702 37.9668 692.577 37.9668C694.185 37.9668 695.386 38.4458 696.182 39.412C696.978 40.3782 697.392 41.8154 697.416 43.7478V53.6941H692.593V43.9427C692.593 43.1632 692.439 42.5867 692.122 42.2214C691.806 41.856 691.237 41.6692 690.409 41.6692C689.467 41.6692 688.769 42.0427 688.315 42.7815V53.686H683.508V38.2428H688.014V38.251Z" fill="white"/>
<path d="M708.751 41.9062H713.615V46.0308H708.751V51.6089H704.253V46.0308H699.373V41.9062H704.253V36.4824H708.751V41.9062Z" fill="white"/>
<path d="M636.561 61.5041C636.561 61.2361 636.643 61.0168 636.813 60.8382C636.984 60.6596 637.219 60.5703 637.536 60.5703C637.852 60.5703 638.096 60.6596 638.266 60.8382C638.437 61.0168 638.526 61.2361 638.526 61.5041C638.526 61.7639 638.437 61.983 638.266 62.1536C638.096 62.3241 637.852 62.4134 637.536 62.4134C637.219 62.4134 636.984 62.3241 636.813 62.1536C636.643 61.983 636.561 61.772 636.561 61.5041ZM638.396 71.2311H636.659V63.5095H638.396V71.2311Z" fill="white"/>
<path d="M641.896 63.5111L641.945 64.4042C642.513 63.7141 643.268 63.373 644.194 63.373C645.801 63.373 646.621 64.2906 646.646 66.1337V71.2327H644.908V66.2311C644.908 65.7439 644.803 65.3786 644.591 65.1431C644.38 64.9077 644.031 64.7939 643.552 64.7939C642.854 64.7939 642.334 65.1106 641.993 65.7439V71.2408H640.256V63.5192H641.896V63.5111Z" fill="white"/>
<path d="M653.896 71.2327H652.159V60.2715H653.896V71.2327Z" fill="white"/>
<path d="M655.463 67.3028C655.463 66.5477 655.61 65.8658 655.91 65.2568C656.21 64.6478 656.633 64.185 657.177 63.8602C657.721 63.5354 658.346 63.373 659.044 63.373C660.083 63.373 660.936 63.7059 661.577 64.3798C662.227 65.0538 662.576 65.9388 662.633 67.0512L662.641 67.4571C662.641 68.2204 662.495 68.9024 662.202 69.4951C661.91 70.0959 661.488 70.5587 660.944 70.8835C660.4 71.2083 659.767 71.3788 659.052 71.3788C657.964 71.3788 657.087 71.0134 656.438 70.2908C655.788 69.5682 655.455 68.602 655.455 67.3922V67.3028H655.463ZM657.193 67.449C657.193 68.2447 657.355 68.8618 657.688 69.3165C658.013 69.7631 658.476 69.9904 659.06 69.9904C659.645 69.9904 660.1 69.7631 660.424 69.3084C660.749 68.8537 660.912 68.1797 660.912 67.3028C660.912 66.5233 660.741 65.9063 660.408 65.4435C660.075 64.9888 659.621 64.7615 659.044 64.7615C658.476 64.7615 658.029 64.9888 657.696 65.4354C657.363 65.882 657.193 66.5559 657.193 67.449Z" fill="white"/>
<path d="M668.438 69.1381C668.438 68.8296 668.308 68.5941 668.056 68.4317C667.805 68.2693 667.383 68.1233 666.79 68.0015C666.197 67.8797 665.71 67.7172 665.312 67.5305C664.443 67.1083 664.013 66.5075 664.013 65.7118C664.013 65.046 664.297 64.4858 664.857 64.0392C665.418 63.5926 666.132 63.3652 667.001 63.3652C667.927 63.3652 668.666 63.5926 669.234 64.0473C669.802 64.502 670.086 65.0947 670.086 65.8254H668.349C668.349 65.4925 668.227 65.2165 667.975 64.9972C667.732 64.778 667.399 64.6643 666.993 64.6643C666.611 64.6643 666.303 64.7537 666.059 64.9323C665.815 65.1109 665.702 65.3464 665.702 65.6387C665.702 65.9066 665.815 66.1096 666.035 66.2558C666.254 66.4019 666.709 66.548 667.391 66.7023C668.073 66.8484 668.609 67.0271 668.99 67.2382C669.38 67.4493 669.664 67.6929 669.851 67.9852C670.038 68.2775 670.135 68.6266 670.135 69.0407C670.135 69.739 669.851 70.2993 669.274 70.7296C668.698 71.1599 667.943 71.371 667.009 71.371C666.376 71.371 665.816 71.2573 665.32 71.03C664.825 70.8027 664.443 70.486 664.167 70.0881C663.891 69.6903 663.753 69.26 663.753 68.7972H665.434C665.458 69.2031 665.613 69.5197 665.897 69.7471C666.181 69.9663 666.562 70.08 667.033 70.08C667.488 70.08 667.837 69.9907 668.073 69.8202C668.308 69.6497 668.438 69.4142 668.438 69.1381Z" fill="white"/>
<path d="M675.981 69.1381C675.981 68.8296 675.851 68.5941 675.599 68.4317C675.348 68.2693 674.926 68.1233 674.333 68.0015C673.74 67.8797 673.253 67.7172 672.855 67.5305C671.986 67.1083 671.556 66.5075 671.556 65.7118C671.556 65.046 671.84 64.4858 672.4 64.0392C672.961 63.5926 673.675 63.3652 674.544 63.3652C675.47 63.3652 676.208 63.5926 676.777 64.0473C677.345 64.502 677.629 65.0947 677.629 65.8254H675.892C675.892 65.4925 675.77 65.2165 675.518 64.9972C675.275 64.778 674.942 64.6643 674.536 64.6643C674.154 64.6643 673.846 64.7537 673.602 64.9323C673.359 65.1109 673.245 65.3464 673.245 65.6387C673.245 65.9066 673.359 66.1096 673.578 66.2558C673.797 66.4019 674.252 66.548 674.934 66.7023C675.616 66.8484 676.152 67.0271 676.533 67.2382C676.923 67.4493 677.207 67.6929 677.394 67.9852C677.581 68.2775 677.678 68.6266 677.678 69.0407C677.678 69.739 677.394 70.2993 676.817 70.7296C676.241 71.1599 675.486 71.371 674.552 71.371C673.919 71.371 673.359 71.2573 672.863 71.03C672.368 70.8027 671.986 70.486 671.71 70.0881C671.434 69.6903 671.296 69.26 671.296 68.7972H672.977C673.001 69.2031 673.156 69.5197 673.44 69.7471C673.724 69.9663 674.105 70.08 674.576 70.08C675.031 70.08 675.38 69.9907 675.616 69.8202C675.851 69.6497 675.981 69.4142 675.981 69.1381Z" fill="white"/>
<path d="M682.598 71.3788C681.502 71.3788 680.609 71.0297 679.927 70.3396C679.245 69.6494 678.904 68.7238 678.904 67.5708V67.3597C678.904 66.5884 679.05 65.8982 679.351 65.2973C679.651 64.6884 680.065 64.2175 680.601 63.8764C681.137 63.5354 681.738 63.373 682.395 63.373C683.443 63.373 684.255 63.7059 684.831 64.3798C685.408 65.0538 685.692 66.0037 685.692 67.2298V67.928H680.65C680.698 68.5695 680.918 69.0728 681.291 69.4382C681.665 69.8117 682.136 69.9985 682.704 69.9985C683.5 69.9985 684.149 69.6737 684.645 69.0322L685.578 69.9255C685.27 70.3883 684.856 70.7455 684.336 70.9972C683.816 71.2489 683.24 71.3788 682.598 71.3788ZM682.387 64.7615C681.908 64.7615 681.527 64.932 681.234 65.2649C680.942 65.5978 680.755 66.0606 680.674 66.6533H683.979V66.5234C683.938 65.9469 683.784 65.5085 683.516 65.208C683.248 64.9076 682.866 64.7615 682.387 64.7615Z" fill="white"/>
<path d="M691.367 69.1381C691.367 68.8296 691.237 68.5941 690.986 68.4317C690.734 68.2693 690.312 68.1233 689.719 68.0015C689.127 67.8797 688.639 67.7172 688.241 67.5305C687.373 67.1083 686.942 66.5075 686.942 65.7118C686.942 65.046 687.227 64.4858 687.787 64.0392C688.347 63.5926 689.062 63.3652 689.93 63.3652C690.856 63.3652 691.595 63.5926 692.163 64.0473C692.732 64.502 693.016 65.0947 693.016 65.8254H691.278C691.278 65.4925 691.156 65.2165 690.905 64.9972C690.661 64.778 690.328 64.6643 689.922 64.6643C689.541 64.6643 689.232 64.7537 688.988 64.9323C688.745 65.1109 688.631 65.3464 688.631 65.6387C688.631 65.9066 688.745 66.1096 688.964 66.2558C689.183 66.4019 689.638 66.548 690.32 66.7023C691.002 66.8484 691.538 67.0271 691.92 67.2382C692.309 67.4493 692.594 67.6929 692.78 67.9852C692.967 68.2775 693.064 68.6266 693.064 69.0407C693.064 69.739 692.78 70.2993 692.204 70.7296C691.627 71.1599 690.872 71.371 689.939 71.371C689.305 71.371 688.745 71.2573 688.25 71.03C687.754 70.8027 687.373 70.486 687.097 70.0881C686.821 69.6903 686.683 69.26 686.683 68.7972H688.363C688.388 69.2031 688.542 69.5197 688.826 69.7471C689.11 69.9663 689.492 70.08 689.963 70.08C690.417 70.08 690.767 69.9907 691.002 69.8202C691.237 69.6497 691.367 69.4142 691.367 69.1381Z" fill="white"/>
<path d="M656.397 260.738H641.896V257.596L648.578 250.573C650.226 248.697 651.046 247.211 651.046 246.107C651.046 245.214 650.851 244.532 650.462 244.069C650.072 243.606 649.503 243.371 648.765 243.371C648.034 243.371 647.441 243.679 646.978 244.304C646.516 244.93 646.296 245.709 646.296 246.635H641.473C641.473 245.36 641.79 244.183 642.432 243.103C643.073 242.023 643.958 241.179 645.086 240.57C646.215 239.961 647.482 239.66 648.887 239.66C651.136 239.66 652.865 240.18 654.075 241.219C655.285 242.258 655.893 243.744 655.893 245.685C655.893 246.505 655.739 247.301 655.439 248.072C655.138 248.843 654.659 249.663 654.018 250.516C653.376 251.368 652.337 252.505 650.916 253.934L648.237 257.028H656.413V260.738H656.397Z" fill="white"/>
<path d="M659.109 250.589L660.375 239.961H672.522V243.704H664.289L663.818 247.829C664.159 247.626 664.614 247.455 665.166 247.301C665.718 247.146 666.27 247.074 666.798 247.074C668.86 247.074 670.452 247.683 671.556 248.909C672.66 250.135 673.22 251.848 673.22 254.056C673.22 255.388 672.92 256.597 672.327 257.677C671.734 258.757 670.898 259.585 669.826 260.17C668.755 260.755 667.48 261.039 666.018 261.039C664.711 261.039 663.493 260.771 662.348 260.235C661.203 259.699 660.311 258.96 659.669 258.027C659.028 257.093 658.703 256.029 658.711 254.852H663.534C663.583 255.615 663.826 256.216 664.265 256.662C664.703 257.109 665.279 257.328 665.994 257.328C667.61 257.328 668.422 256.135 668.422 253.74C668.422 251.531 667.431 250.419 665.45 250.419C664.33 250.419 663.493 250.776 662.941 251.499L659.109 250.589Z" fill="white"/>
<path d="M682.631 239.961L687.267 254.421L691.895 239.961H698.488V260.738H693.462V255.883L693.949 245.953L688.923 260.738H685.61L680.568 245.937L681.055 255.883V260.738H676.046V239.961H682.631Z" fill="white"/>
<path d="M610.254 274.431V278.287H608.452V267.895H612.422C613.583 267.895 614.509 268.195 615.191 268.804C615.873 269.413 616.214 270.209 616.214 271.207C616.214 272.222 615.881 273.018 615.207 273.586C614.541 274.155 613.6 274.439 612.398 274.439H610.254V274.431ZM610.254 272.969H612.422C613.064 272.969 613.551 272.815 613.892 272.514C614.233 272.214 614.395 271.776 614.395 271.207C614.395 270.647 614.225 270.2 613.884 269.859C613.543 269.526 613.072 269.356 612.471 269.34H610.254V272.969Z" fill="white"/>
<path d="M622.157 278.277C622.084 278.131 622.011 277.888 621.954 277.555C621.402 278.131 620.728 278.415 619.925 278.415C619.145 278.415 618.52 278.196 618.025 277.75C617.529 277.303 617.294 276.759 617.294 276.11C617.294 275.29 617.602 274.656 618.211 274.218C618.82 273.779 619.697 273.56 620.834 273.56H621.898V273.057C621.898 272.659 621.784 272.334 621.565 272.099C621.337 271.855 620.996 271.733 620.542 271.733C620.144 271.733 619.827 271.831 619.567 272.034C619.316 272.229 619.194 272.48 619.194 272.789H617.456C617.456 272.367 617.594 271.969 617.879 271.603C618.163 271.23 618.544 270.946 619.023 270.735C619.502 270.523 620.046 270.418 620.639 270.418C621.54 270.418 622.263 270.645 622.799 271.1C623.335 271.555 623.611 272.196 623.627 273.016V276.499C623.627 277.198 623.725 277.75 623.919 278.164V278.286H622.157V278.277ZM620.249 277.027C620.59 277.027 620.915 276.946 621.216 276.775C621.516 276.605 621.743 276.386 621.898 276.102V274.648H620.964C620.322 274.648 619.835 274.762 619.51 274.981C619.186 275.2 619.023 275.525 619.023 275.931C619.023 276.264 619.137 276.532 619.356 276.727C619.584 276.93 619.884 277.027 620.249 277.027Z" fill="white"/>
<path d="M629.782 276.183C629.782 275.874 629.652 275.639 629.4 275.477C629.148 275.314 628.726 275.168 628.133 275.046C627.541 274.925 627.053 274.762 626.655 274.575C625.787 274.153 625.356 273.552 625.356 272.757C625.356 272.091 625.641 271.53 626.201 271.084C626.761 270.637 627.476 270.41 628.344 270.41C629.27 270.41 630.017 270.637 630.585 271.092C631.154 271.547 631.438 272.14 631.438 272.87H629.7C629.7 272.537 629.578 272.261 629.327 272.042C629.083 271.823 628.75 271.709 628.344 271.709C627.963 271.709 627.654 271.799 627.411 271.969C627.167 272.14 627.053 272.383 627.053 272.675C627.053 272.943 627.167 273.146 627.386 273.292C627.606 273.439 628.06 273.593 628.742 273.739C629.424 273.885 629.96 274.064 630.342 274.275C630.731 274.486 631.016 274.73 631.202 275.022C631.389 275.314 631.486 275.663 631.486 276.077C631.486 276.776 631.194 277.336 630.626 277.766C630.049 278.197 629.294 278.408 628.361 278.408C627.727 278.408 627.167 278.294 626.672 278.067C626.176 277.839 625.795 277.523 625.519 277.125C625.243 276.727 625.105 276.297 625.105 275.834H626.786C626.81 276.24 626.964 276.556 627.248 276.784C627.532 277.003 627.914 277.117 628.385 277.117C628.84 277.117 629.189 277.027 629.424 276.857C629.66 276.686 629.782 276.459 629.782 276.183Z" fill="white"/>
<path d="M637.324 276.183C637.324 275.874 637.195 275.639 636.943 275.477C636.691 275.314 636.269 275.168 635.676 275.046C635.084 274.925 634.596 274.762 634.198 274.575C633.33 274.153 632.899 273.552 632.899 272.757C632.899 272.091 633.183 271.53 633.744 271.084C634.304 270.637 635.019 270.41 635.887 270.41C636.813 270.41 637.552 270.637 638.12 271.092C638.689 271.547 638.973 272.14 638.973 272.87H637.243C637.243 272.537 637.121 272.261 636.87 272.042C636.626 271.823 636.293 271.709 635.887 271.709C635.506 271.709 635.197 271.799 634.953 271.969C634.718 272.148 634.596 272.383 634.596 272.675C634.596 272.943 634.71 273.146 634.929 273.292C635.149 273.439 635.603 273.593 636.285 273.739C636.967 273.885 637.495 274.064 637.885 274.275C638.274 274.486 638.559 274.73 638.745 275.022C638.932 275.314 639.029 275.663 639.029 276.077C639.029 276.776 638.745 277.336 638.169 277.766C637.592 278.197 636.837 278.408 635.904 278.408C635.27 278.408 634.71 278.294 634.215 278.067C633.719 277.839 633.338 277.523 633.062 277.125C632.786 276.727 632.648 276.297 632.648 275.834H634.328C634.353 276.24 634.507 276.556 634.791 276.784C635.075 277.003 635.457 277.117 635.928 277.117C636.383 277.117 636.732 277.027 636.967 276.857C637.203 276.686 637.324 276.459 637.324 276.183Z" fill="white"/>
<path d="M643.934 278.424C642.837 278.424 641.944 278.074 641.262 277.384C640.58 276.694 640.239 275.769 640.239 274.616V274.405C640.239 273.633 640.385 272.943 640.686 272.342C640.986 271.733 641.4 271.262 641.936 270.921C642.472 270.58 643.073 270.418 643.731 270.418C644.778 270.418 645.59 270.751 646.166 271.425C646.743 272.099 647.027 273.049 647.027 274.275V274.973H641.985C642.034 275.614 642.253 276.118 642.626 276.483C643 276.857 643.471 277.043 644.031 277.043C644.827 277.043 645.476 276.719 645.971 276.077L646.905 276.97C646.597 277.433 646.183 277.79 645.663 278.042C645.16 278.294 644.583 278.424 643.934 278.424ZM643.731 271.806C643.251 271.806 642.87 271.977 642.578 272.31C642.285 272.643 642.099 273.105 642.017 273.698H645.322V273.568C645.281 272.992 645.127 272.545 644.859 272.253C644.591 271.953 644.21 271.806 643.731 271.806Z" fill="white"/>
<path d="M649.991 270.556L650.039 271.449C650.608 270.759 651.355 270.418 652.289 270.418C653.896 270.418 654.716 271.335 654.741 273.178V278.286H653.011V273.284C653.011 272.797 652.906 272.432 652.694 272.196C652.483 271.961 652.134 271.839 651.655 271.839C650.957 271.839 650.437 272.155 650.088 272.789V278.286H648.359V270.564H649.991V270.556Z" fill="white"/>
<path d="M656.202 274.364C656.202 273.162 656.486 272.212 657.046 271.49C657.615 270.775 658.362 270.418 659.287 270.418C660.164 270.418 660.862 270.726 661.366 271.335L661.447 270.556H663.014V278.042C663.014 279.057 662.698 279.853 662.072 280.437C661.439 281.022 660.594 281.314 659.523 281.314C658.954 281.314 658.402 281.201 657.867 280.957C657.323 280.721 656.917 280.413 656.632 280.031L657.452 278.992C657.988 279.625 658.638 279.942 659.425 279.942C660.002 279.942 660.457 279.788 660.789 279.471C661.122 279.162 661.293 278.7 661.293 278.099V277.579C660.79 278.139 660.124 278.415 659.295 278.415C658.394 278.415 657.655 278.058 657.079 277.336C656.494 276.629 656.202 275.631 656.202 274.364ZM657.931 274.51C657.931 275.289 658.086 275.898 658.402 276.337C658.719 276.783 659.157 277.003 659.718 277.003C660.416 277.003 660.936 276.702 661.277 276.102V272.707C660.952 272.123 660.432 271.831 659.734 271.831C659.165 271.831 658.719 272.058 658.402 272.513C658.086 272.967 657.931 273.633 657.931 274.51Z" fill="white"/>
<path d="M668.194 278.424C667.098 278.424 666.205 278.074 665.523 277.384C664.841 276.694 664.5 275.769 664.5 274.616V274.405C664.5 273.633 664.646 272.943 664.947 272.342C665.247 271.733 665.661 271.262 666.197 270.921C666.733 270.58 667.334 270.418 667.991 270.418C669.039 270.418 669.851 270.751 670.427 271.425C671.004 272.099 671.288 273.049 671.288 274.275V274.973H666.246C666.294 275.614 666.514 276.118 666.887 276.483C667.261 276.857 667.731 277.043 668.3 277.043C669.096 277.043 669.745 276.719 670.24 276.077L671.174 276.97C670.866 277.433 670.451 277.79 669.932 278.042C669.412 278.294 668.836 278.424 668.194 278.424ZM667.983 271.806C667.504 271.806 667.122 271.977 666.83 272.31C666.538 272.643 666.351 273.105 666.27 273.698H669.575V273.568C669.534 272.992 669.38 272.545 669.112 272.253C668.844 271.953 668.47 271.806 667.983 271.806Z" fill="white"/>
<path d="M676.679 272.14C676.452 272.099 676.216 272.083 675.973 272.083C675.177 272.083 674.641 272.392 674.365 272.992V278.27H672.636V270.548H674.292L674.333 271.409C674.755 270.735 675.331 270.402 676.07 270.402C676.314 270.402 676.525 270.435 676.687 270.5L676.679 272.14Z" fill="white"/>
<path d="M682.103 276.183C682.103 275.874 681.973 275.639 681.721 275.477C681.47 275.314 681.047 275.168 680.455 275.046C679.862 274.925 679.375 274.762 678.977 274.575C678.108 274.153 677.678 273.552 677.678 272.757C677.678 272.091 677.962 271.53 678.522 271.084C679.083 270.637 679.797 270.41 680.666 270.41C681.591 270.41 682.33 270.637 682.907 271.092C683.475 271.547 683.759 272.14 683.759 272.87H682.022C682.022 272.537 681.9 272.261 681.648 272.042C681.405 271.823 681.072 271.709 680.666 271.709C680.284 271.709 679.976 271.799 679.732 271.969C679.489 272.148 679.375 272.383 679.375 272.675C679.375 272.943 679.489 273.146 679.708 273.292C679.927 273.439 680.382 273.593 681.064 273.739C681.746 273.885 682.282 274.064 682.663 274.275C683.053 274.486 683.337 274.73 683.524 275.022C683.711 275.314 683.808 275.663 683.808 276.077C683.808 276.776 683.516 277.336 682.947 277.766C682.371 278.197 681.616 278.408 680.682 278.408C680.049 278.408 679.488 278.294 678.993 278.067C678.498 277.839 678.116 277.523 677.84 277.125C677.564 276.727 677.426 276.297 677.426 275.834H679.107C679.131 276.24 679.286 276.556 679.57 276.784C679.854 277.003 680.235 277.117 680.706 277.117C681.161 277.117 681.51 277.027 681.746 276.857C681.981 276.686 682.103 276.459 682.103 276.183Z" fill="white"/>
<path d="M688.964 268.549C688.964 268.281 689.045 268.062 689.215 267.883C689.386 267.705 689.63 267.615 689.938 267.615C690.247 267.615 690.498 267.705 690.669 267.883C690.839 268.062 690.929 268.281 690.929 268.549C690.929 268.809 690.839 269.028 690.669 269.199C690.498 269.369 690.255 269.458 689.938 269.458C689.622 269.458 689.386 269.369 689.215 269.199C689.045 269.028 688.964 268.817 688.964 268.549ZM690.799 278.276H689.061V270.555H690.799V278.276Z" fill="white"/>
<path d="M694.298 270.556L694.347 271.449C694.915 270.759 695.67 270.418 696.596 270.418C698.204 270.418 699.024 271.335 699.048 273.178V278.286H697.31V273.284C697.31 272.797 697.205 272.432 696.994 272.196C696.783 271.961 696.434 271.839 695.955 271.839C695.256 271.839 694.737 272.155 694.396 272.789V278.286H692.658V270.564H694.298V270.556Z" fill="white"/>
<path d="M706.631 268.68V270.556H707.996V271.839H706.631V276.15C706.631 276.442 706.688 276.653 706.802 276.791C706.916 276.921 707.127 276.986 707.427 276.986C707.63 276.986 707.825 276.962 708.036 276.913V278.253C707.638 278.358 707.257 278.415 706.891 278.415C705.56 278.415 704.894 277.676 704.894 276.207V271.83H703.627V270.548H704.894V268.672H706.631V268.68Z" fill="white"/>
<path d="M708.775 274.348C708.775 273.593 708.929 272.91 709.222 272.302C709.522 271.693 709.944 271.23 710.48 270.905C711.024 270.58 711.649 270.418 712.348 270.418C713.387 270.418 714.24 270.751 714.881 271.425C715.531 272.099 715.88 272.984 715.936 274.096L715.944 274.502C715.944 275.265 715.798 275.947 715.506 276.54C715.214 277.141 714.792 277.604 714.248 277.928C713.704 278.253 713.07 278.424 712.356 278.424C711.268 278.424 710.391 278.058 709.741 277.336C709.084 276.613 708.759 275.639 708.759 274.437V274.348H708.775ZM710.513 274.502C710.513 275.298 710.675 275.915 711.008 276.369C711.333 276.816 711.796 277.043 712.38 277.043C712.965 277.043 713.419 276.816 713.744 276.361C714.069 275.907 714.231 275.233 714.231 274.356C714.231 273.576 714.061 272.959 713.728 272.496C713.395 272.042 712.94 271.814 712.364 271.814C711.796 271.814 711.349 272.042 711.016 272.488C710.675 272.935 710.513 273.601 710.513 274.502Z" fill="white"/>
<path d="M719.598 268.68V270.556H720.962V271.839H719.598V276.15C719.598 276.442 719.655 276.653 719.777 276.791C719.891 276.921 720.102 276.986 720.402 276.986C720.605 276.986 720.808 276.962 721.011 276.913V278.253C720.613 278.358 720.232 278.415 719.866 278.415C718.535 278.415 717.869 277.676 717.869 276.207V271.83H716.602V270.548H717.869V268.672H719.598V268.68Z" fill="white"/>
<path d="M726.898 278.277C726.824 278.131 726.751 277.888 726.695 277.555C726.142 278.131 725.469 278.415 724.665 278.415C723.885 278.415 723.26 278.196 722.765 277.75C722.27 277.303 722.026 276.759 722.026 276.11C722.026 275.29 722.335 274.656 722.943 274.218C723.552 273.779 724.429 273.56 725.566 273.56H726.63V273.057C726.63 272.659 726.516 272.334 726.297 272.099C726.069 271.855 725.736 271.733 725.274 271.733C724.876 271.733 724.559 271.831 724.299 272.034C724.048 272.229 723.918 272.48 723.918 272.789H722.188C722.188 272.367 722.326 271.969 722.611 271.603C722.895 271.23 723.276 270.946 723.755 270.735C724.243 270.523 724.778 270.418 725.371 270.418C726.272 270.418 726.995 270.645 727.531 271.1C728.067 271.555 728.343 272.196 728.359 273.016V276.499C728.359 277.198 728.457 277.75 728.651 278.164V278.286H726.898V278.277ZM724.99 277.027C725.331 277.027 725.655 276.946 725.956 276.775C726.256 276.605 726.484 276.386 726.638 276.102V274.648H725.704C725.063 274.648 724.583 274.762 724.259 274.981C723.934 275.2 723.772 275.525 723.772 275.931C723.772 276.264 723.877 276.532 724.104 276.727C724.324 276.93 724.616 277.027 724.99 277.027Z" fill="white"/>
<path d="M732.037 278.278H730.3V267.316H732.037V278.278Z" fill="white"/>
<path d="M66.1488 255.863H61.3259V240.509L56.5841 241.898V238.244L65.7023 235.094H66.1407V255.863H66.1488Z" fill="white"/>
<path d="M86.9183 255.865H72.417V252.723L79.0994 245.7C80.7476 243.824 81.5676 242.338 81.5676 241.234C81.5676 240.341 81.3727 239.659 80.983 239.196C80.5933 238.733 80.0249 238.498 79.2861 238.498C78.5553 238.498 77.9626 238.806 77.4998 239.431C77.0369 240.057 76.8178 240.836 76.8178 241.762H71.9949C71.9949 240.487 72.3115 239.31 72.9529 238.23C73.5943 237.15 74.4794 236.306 75.608 235.697C76.7366 235.088 78.0032 234.787 79.4079 234.787C81.657 234.787 83.3863 235.307 84.5961 236.346C85.8059 237.385 86.4149 238.871 86.4149 240.812C86.4149 241.632 86.2606 242.428 85.9602 243.199C85.6598 243.97 85.1807 244.79 84.5393 245.643C83.8979 246.495 82.8586 247.632 81.4377 249.061L78.7583 252.155H86.9345V255.865H86.9183Z" fill="white"/>
<path d="M103.774 247.372C103.774 250.181 103.141 252.341 101.882 253.867C100.624 255.394 98.8457 256.149 96.5479 256.149C94.2339 256.149 92.4476 255.386 91.181 253.851C89.9144 252.317 89.281 250.157 89.281 247.372V243.572C89.281 240.763 89.9144 238.603 91.1729 237.077C92.4314 235.55 94.2176 234.795 96.5154 234.795C98.8132 234.795 100.599 235.558 101.866 237.093C103.133 238.627 103.766 240.787 103.766 243.588V247.372H103.774ZM98.9594 242.963C98.9594 241.469 98.7645 240.357 98.3748 239.618C97.9851 238.879 97.368 238.514 96.5154 238.514C95.6872 238.514 95.0864 238.855 94.7129 239.545C94.3394 240.235 94.1365 241.266 94.104 242.654V247.965C94.104 249.515 94.2988 250.652 94.6886 251.367C95.0783 252.081 95.6954 252.446 96.5479 252.446C97.368 252.446 97.9688 252.097 98.3585 251.399C98.7483 250.701 98.9513 249.605 98.9594 248.111V242.963Z" fill="white"/>
<path d="M113.988 247.42C113.988 245.098 114.297 242.938 114.914 240.941C115.531 238.944 116.384 237.247 117.48 235.858C118.576 234.47 119.778 233.495 121.109 232.943L122.018 235.314C120.687 236.297 119.656 237.823 118.925 239.902C118.194 241.98 117.829 244.416 117.821 247.217V247.843C117.821 250.709 118.186 253.193 118.909 255.296C119.631 257.399 120.671 258.942 122.01 259.924L121.101 262.295C119.786 261.759 118.576 260.793 117.472 259.38C116.367 257.967 115.507 256.279 114.906 254.322C114.305 252.365 113.996 250.278 113.98 248.07V247.42H113.988Z" fill="white"/>
<path d="M141.765 245.902C141.765 247.932 141.391 249.726 140.636 251.285C139.881 252.844 138.817 254.046 137.429 254.89C136.041 255.735 134.465 256.157 132.695 256.157C130.925 256.157 129.358 255.751 127.986 254.939C126.614 254.127 125.55 252.966 124.779 251.448C124.008 249.929 123.61 248.2 123.569 246.235V245.066C123.569 243.028 123.943 241.233 124.69 239.674C125.437 238.115 126.508 236.914 127.905 236.069C129.301 235.225 130.885 234.803 132.663 234.803C134.425 234.803 135.992 235.225 137.372 236.061C138.752 236.898 139.824 238.091 140.587 239.634C141.351 241.176 141.74 242.955 141.748 244.952V245.902H141.765ZM136.666 245.033C136.666 242.971 136.325 241.404 135.635 240.332C134.944 239.26 133.954 238.724 132.671 238.724C130.162 238.724 128.831 240.608 128.692 244.376L128.676 245.902C128.676 247.94 129.017 249.507 129.691 250.595C130.365 251.683 131.372 252.235 132.703 252.235C133.97 252.235 134.944 251.699 135.626 250.619C136.309 249.539 136.658 247.997 136.666 245.983V245.033Z" fill="white"/>
<path d="M161.706 255.865H156.729L149.365 242.931V255.865H144.355V235.088H149.365L156.713 248.022V235.088H161.706V255.865Z" fill="white"/>
<path d="M183.953 251.984H177.084L175.883 255.865H170.532L178.156 235.088H182.865L190.546 255.865H185.163L183.953 251.984ZM178.286 248.119H182.752L180.511 240.909L178.286 248.119Z" fill="white"/>
<path d="M199.023 250.214L203.164 235.088H208.758L201.767 255.865H196.287L189.353 235.088H194.906L199.023 250.214Z" fill="white"/>
<path d="M227.1 253.299C226.328 254.152 225.2 254.842 223.714 255.37C222.228 255.897 220.604 256.157 218.834 256.157C216.114 256.157 213.938 255.321 212.314 253.656C210.69 251.992 209.814 249.678 209.7 246.706L209.684 244.912C209.684 242.866 210.049 241.079 210.772 239.553C211.494 238.027 212.534 236.849 213.873 236.029C215.213 235.209 216.78 234.795 218.55 234.795C221.14 234.795 223.146 235.388 224.583 236.573C226.02 237.758 226.848 239.529 227.084 241.875H222.261C222.09 240.714 221.717 239.886 221.148 239.39C220.58 238.895 219.768 238.652 218.72 238.652C217.462 238.652 216.496 239.187 215.806 240.251C215.116 241.315 214.774 242.841 214.766 244.814V246.073C214.766 248.143 215.124 249.702 215.83 250.749C216.536 251.797 217.657 252.309 219.175 252.309C220.482 252.309 221.449 252.016 222.09 251.44V248.216H218.607V244.774H227.1V253.299Z" fill="white"/>
<path d="M232.767 251.195C233.53 251.195 234.164 251.423 234.667 251.869C235.17 252.316 235.422 252.9 235.422 253.607C235.422 254.313 235.17 254.89 234.667 255.344C234.164 255.799 233.53 256.018 232.767 256.018C231.996 256.018 231.362 255.791 230.859 255.336C230.356 254.882 230.112 254.305 230.112 253.607C230.112 252.908 230.364 252.34 230.859 251.877C231.354 251.415 231.996 251.195 232.767 251.195Z" fill="white"/>
<path d="M246.213 247.818C246.213 250.051 245.888 252.179 245.23 254.184C244.573 256.19 243.671 257.919 242.51 259.356C241.349 260.793 240.107 261.776 238.767 262.287L237.858 259.916C239.181 258.926 240.204 257.408 240.927 255.353C241.65 253.299 242.023 250.936 242.056 248.257V247.388C242.056 244.522 241.69 242.037 240.968 239.935C240.245 237.832 239.206 236.289 237.866 235.307L238.775 232.936C240.107 233.455 241.349 234.43 242.494 235.842C243.639 237.255 244.548 238.952 245.206 240.941C245.864 242.931 246.205 245.009 246.229 247.185V247.818H246.213Z" fill="white"/>
<path d="M84.6449 269.556V273.412H82.8424V263.02H86.8209C87.982 263.02 88.8994 263.32 89.5896 263.929C90.2797 264.538 90.6126 265.334 90.6126 266.332C90.6126 267.347 90.2798 268.143 89.614 268.711C88.9482 269.28 88.0064 269.564 86.8047 269.564H84.6449V269.556ZM84.6449 268.094H86.8128C87.4542 268.094 87.9414 267.94 88.2824 267.639C88.6234 267.339 88.7858 266.901 88.7858 266.332C88.7858 265.772 88.6153 265.325 88.2742 264.984C87.9332 264.651 87.4623 264.481 86.8615 264.465H84.6449V268.094Z" fill="white"/>
<path d="M96.5479 273.402C96.4748 273.256 96.4018 273.013 96.3449 272.68C95.7928 273.256 95.1189 273.54 94.3151 273.54C93.5356 273.54 92.9103 273.321 92.4151 272.875C91.9198 272.428 91.6763 271.884 91.6763 271.235C91.6763 270.415 91.9848 269.781 92.5938 269.343C93.2027 268.904 94.0796 268.685 95.2163 268.685H96.2799V268.182C96.2799 267.784 96.1663 267.459 95.9471 267.224C95.7197 266.98 95.3868 266.858 94.924 266.858C94.5262 266.858 94.2095 266.956 93.9496 267.159C93.6979 267.354 93.5681 267.605 93.5681 267.914H91.8386C91.8386 267.492 91.9767 267.094 92.2608 266.728C92.545 266.355 92.9267 266.071 93.4057 265.86C93.8848 265.648 94.4287 265.543 95.0215 265.543C95.9227 265.543 96.6453 265.77 97.1812 266.225C97.717 266.68 97.9931 267.321 98.0093 268.141V271.624C98.0093 272.323 98.1068 272.875 98.3016 273.289V273.411H96.5479V273.402ZM94.6398 272.152C94.9808 272.152 95.3056 272.071 95.606 271.9C95.9065 271.73 96.1338 271.511 96.288 271.227V269.773H95.3543C94.7129 269.773 94.2339 269.887 93.9091 270.106C93.5843 270.325 93.4219 270.65 93.4219 271.056C93.4219 271.389 93.5356 271.657 93.7548 271.852C93.974 272.055 94.2663 272.152 94.6398 272.152Z" fill="white"/>
<path d="M104.172 271.31C104.172 271.001 104.042 270.766 103.79 270.604C103.539 270.441 103.116 270.295 102.524 270.173C101.931 270.051 101.444 269.889 101.046 269.702C100.177 269.28 99.7469 268.679 99.7469 267.884C99.7469 267.218 100.031 266.657 100.591 266.211C101.152 265.764 101.866 265.537 102.735 265.537C103.66 265.537 104.399 265.764 104.968 266.219C105.536 266.674 105.82 267.267 105.82 267.997H104.091C104.091 267.664 103.969 267.388 103.717 267.169C103.474 266.95 103.141 266.836 102.735 266.836C102.353 266.836 102.045 266.925 101.801 267.096C101.558 267.266 101.444 267.51 101.444 267.802C101.444 268.07 101.558 268.273 101.777 268.419C101.996 268.565 102.451 268.72 103.133 268.866C103.815 269.012 104.351 269.191 104.732 269.402C105.122 269.613 105.406 269.857 105.593 270.149C105.78 270.441 105.877 270.79 105.877 271.204C105.877 271.903 105.593 272.463 105.016 272.893C104.44 273.323 103.685 273.535 102.751 273.535C102.118 273.535 101.558 273.421 101.062 273.194C100.567 272.966 100.185 272.65 99.9093 272.252C99.6333 271.854 99.4952 271.424 99.4952 270.961H101.176C101.2 271.367 101.355 271.683 101.639 271.911C101.923 272.13 102.304 272.244 102.775 272.244C103.23 272.244 103.579 272.154 103.815 271.984C104.05 271.813 104.172 271.586 104.172 271.31Z" fill="white"/>
<path d="M111.707 271.31C111.707 271.001 111.577 270.766 111.325 270.604C111.073 270.441 110.651 270.295 110.059 270.173C109.466 270.051 108.979 269.889 108.581 269.702C107.712 269.28 107.282 268.679 107.282 267.884C107.282 267.218 107.566 266.657 108.126 266.211C108.686 265.764 109.401 265.537 110.27 265.537C111.195 265.537 111.934 265.764 112.511 266.219C113.079 266.674 113.363 267.267 113.363 267.997H111.626C111.626 267.664 111.504 267.388 111.252 267.169C111.008 266.95 110.676 266.836 110.27 266.836C109.888 266.836 109.579 266.925 109.336 267.096C109.092 267.275 108.979 267.51 108.979 267.802C108.979 268.07 109.092 268.273 109.312 268.419C109.531 268.565 109.985 268.72 110.667 268.866C111.35 269.012 111.885 269.191 112.267 269.402C112.657 269.613 112.941 269.857 113.128 270.149C113.314 270.441 113.412 270.79 113.412 271.204C113.412 271.903 113.12 272.463 112.551 272.893C111.975 273.323 111.22 273.535 110.286 273.535C109.652 273.535 109.092 273.421 108.597 273.194C108.102 272.966 107.72 272.65 107.444 272.252C107.168 271.854 107.03 271.424 107.03 270.961H108.711C108.735 271.367 108.889 271.683 109.173 271.911C109.458 272.13 109.839 272.244 110.31 272.244C110.765 272.244 111.114 272.154 111.349 271.984C111.593 271.813 111.707 271.586 111.707 271.31Z" fill="white"/>
<path d="M118.324 273.549C117.228 273.549 116.335 273.199 115.653 272.509C114.971 271.819 114.63 270.894 114.63 269.741V269.53C114.63 268.758 114.776 268.068 115.076 267.467C115.377 266.858 115.791 266.387 116.327 266.046C116.863 265.705 117.463 265.543 118.121 265.543C119.169 265.543 119.981 265.876 120.557 266.55C121.133 267.224 121.418 268.174 121.418 269.4V270.098H116.375C116.424 270.739 116.643 271.243 117.017 271.608C117.39 271.982 117.861 272.168 118.43 272.168C119.225 272.168 119.875 271.844 120.37 271.202L121.304 272.095C120.995 272.558 120.581 272.915 120.062 273.167C119.55 273.419 118.966 273.549 118.324 273.549ZM118.121 266.931C117.642 266.931 117.26 267.102 116.968 267.435C116.676 267.768 116.489 268.23 116.408 268.823H119.713V268.693C119.672 268.117 119.518 267.67 119.25 267.378C118.974 267.078 118.6 266.931 118.121 266.931Z" fill="white"/>
<path d="M124.381 265.681L124.43 266.574C124.998 265.884 125.753 265.543 126.679 265.543C128.287 265.543 129.107 266.46 129.131 268.303V273.411H127.393V268.409C127.393 267.922 127.288 267.557 127.077 267.321C126.866 267.086 126.517 266.964 126.038 266.964C125.339 266.964 124.82 267.28 124.479 267.914V273.411H122.741V265.689H124.381V265.681Z" fill="white"/>
<path d="M130.593 269.489C130.593 268.287 130.877 267.337 131.437 266.615C132.005 265.9 132.752 265.543 133.686 265.543C134.563 265.543 135.261 265.851 135.765 266.46L135.846 265.681H137.405V273.167C137.405 274.182 137.088 274.978 136.463 275.562C135.83 276.147 134.985 276.439 133.913 276.439C133.345 276.439 132.793 276.326 132.257 276.082C131.713 275.846 131.307 275.538 131.023 275.156L131.843 274.117C132.379 274.75 133.028 275.067 133.816 275.067C134.392 275.067 134.847 274.913 135.18 274.596C135.513 274.287 135.683 273.825 135.683 273.224V272.704C135.18 273.264 134.514 273.54 133.686 273.54C132.785 273.54 132.046 273.183 131.469 272.461C130.877 271.754 130.593 270.756 130.593 269.489ZM132.322 269.635C132.322 270.414 132.484 271.023 132.793 271.462C133.11 271.908 133.548 272.128 134.108 272.128C134.807 272.128 135.326 271.827 135.667 271.227V267.832C135.342 267.248 134.823 266.956 134.124 266.956C133.556 266.956 133.11 267.183 132.793 267.638C132.476 268.092 132.322 268.758 132.322 269.635Z" fill="white"/>
<path d="M142.585 273.549C141.489 273.549 140.596 273.199 139.914 272.509C139.232 271.819 138.891 270.894 138.891 269.741V269.53C138.891 268.758 139.037 268.068 139.337 267.467C139.638 266.858 140.052 266.387 140.588 266.046C141.124 265.705 141.724 265.543 142.382 265.543C143.429 265.543 144.241 265.876 144.818 266.55C145.394 267.224 145.679 268.174 145.679 269.4V270.098H140.636C140.685 270.739 140.904 271.243 141.278 271.608C141.651 271.982 142.122 272.168 142.682 272.168C143.478 272.168 144.128 271.844 144.623 271.202L145.557 272.095C145.248 272.558 144.834 272.915 144.314 273.167C143.803 273.419 143.226 273.549 142.585 273.549ZM142.374 266.931C141.895 266.931 141.513 267.102 141.221 267.435C140.929 267.768 140.742 268.23 140.661 268.823H143.965V268.693C143.925 268.117 143.77 267.67 143.502 267.378C143.235 267.078 142.853 266.931 142.374 266.931Z" fill="white"/>
<path d="M151.07 267.267C150.842 267.226 150.607 267.21 150.363 267.21C149.568 267.21 149.032 267.519 148.756 268.119V273.397H147.018V265.675H148.674L148.715 266.536C149.137 265.862 149.714 265.529 150.453 265.529C150.696 265.529 150.907 265.562 151.07 265.627V267.267Z" fill="white"/>
<path d="M156.494 271.31C156.494 271.001 156.364 270.766 156.112 270.604C155.86 270.441 155.438 270.295 154.845 270.173C154.253 270.051 153.765 269.889 153.368 269.702C152.499 269.28 152.069 268.679 152.069 267.884C152.069 267.218 152.353 266.657 152.913 266.211C153.473 265.764 154.188 265.537 155.056 265.537C155.982 265.537 156.721 265.764 157.289 266.219C157.858 266.674 158.142 267.267 158.142 267.997H156.412C156.412 267.664 156.291 267.388 156.039 267.169C155.795 266.95 155.462 266.836 155.056 266.836C154.675 266.836 154.366 266.925 154.123 267.096C153.887 267.275 153.765 267.51 153.765 267.802C153.765 268.07 153.879 268.273 154.098 268.419C154.318 268.565 154.772 268.72 155.454 268.866C156.136 269.012 156.664 269.191 157.054 269.402C157.444 269.613 157.728 269.857 157.914 270.149C158.101 270.441 158.199 270.79 158.199 271.204C158.199 271.903 157.914 272.463 157.338 272.893C156.762 273.323 156.006 273.535 155.073 273.535C154.439 273.535 153.879 273.421 153.384 273.194C152.889 272.966 152.507 272.65 152.231 272.252C151.955 271.854 151.817 271.424 151.817 270.961H153.498C153.522 271.367 153.676 271.683 153.96 271.911C154.244 272.13 154.626 272.244 155.097 272.244C155.552 272.244 155.901 272.154 156.136 271.984C156.372 271.813 156.494 271.586 156.494 271.31Z" fill="white"/>
<path d="M170.11 269.627C170.11 270.82 169.842 271.77 169.298 272.485C168.754 273.199 168.031 273.549 167.114 273.549C166.269 273.549 165.587 273.273 165.076 272.712V276.374H163.346V265.681H164.946L165.019 266.468C165.53 265.851 166.221 265.543 167.097 265.543C168.039 265.543 168.778 265.892 169.314 266.598C169.85 267.297 170.118 268.271 170.118 269.521V269.627H170.11ZM168.38 269.473C168.38 268.701 168.226 268.092 167.917 267.638C167.609 267.183 167.17 266.956 166.602 266.956C165.896 266.956 165.384 267.248 165.076 267.832V271.259C165.392 271.86 165.904 272.16 166.618 272.16C167.17 272.16 167.601 271.941 167.917 271.494C168.226 271.048 168.38 270.374 168.38 269.473Z" fill="white"/>
<path d="M174.973 273.549C173.877 273.549 172.984 273.199 172.302 272.509C171.62 271.819 171.279 270.894 171.279 269.741V269.53C171.279 268.758 171.425 268.068 171.726 267.467C172.026 266.858 172.44 266.387 172.976 266.046C173.512 265.705 174.113 265.543 174.77 265.543C175.818 265.543 176.63 265.876 177.206 266.55C177.783 267.224 178.067 268.174 178.067 269.4V270.098H173.025C173.073 270.739 173.293 271.243 173.666 271.608C174.04 271.982 174.51 272.168 175.079 272.168C175.875 272.168 176.524 271.844 177.019 271.202L177.953 272.095C177.645 272.558 177.231 272.915 176.711 273.167C176.191 273.419 175.615 273.549 174.973 273.549ZM174.762 266.931C174.283 266.931 173.901 267.102 173.609 267.435C173.317 267.768 173.13 268.23 173.049 268.823H176.354V268.693C176.313 268.117 176.159 267.67 175.891 267.378C175.623 267.078 175.249 266.931 174.762 266.931Z" fill="white"/>
<path d="M183.458 267.267C183.231 267.226 182.995 267.21 182.752 267.21C181.956 267.21 181.42 267.519 181.144 268.119V273.397H179.415V265.675H181.071L181.111 266.536C181.534 265.862 182.11 265.529 182.849 265.529C183.093 265.529 183.304 265.562 183.466 265.627L183.458 267.267Z" fill="white"/>
<path d="M188.801 273.404V266.966H187.623V265.683H188.801V264.976C188.801 264.124 189.036 263.458 189.515 262.995C189.994 262.532 190.66 262.297 191.513 262.297C191.821 262.297 192.138 262.337 192.487 262.427L192.446 263.783C192.26 263.742 192.032 263.726 191.78 263.726C190.952 263.726 190.538 264.156 190.538 265.001V265.683H192.105V266.966H190.538V273.404H188.801Z" fill="white"/>
<path d="M195.215 273.405H193.485V262.443H195.215V273.405Z" fill="white"/>
<path d="M197.107 263.676C197.107 263.408 197.188 263.189 197.358 263.01C197.529 262.832 197.772 262.742 198.081 262.742C198.39 262.742 198.641 262.832 198.812 263.01C198.982 263.189 199.072 263.408 199.072 263.676C199.072 263.936 198.982 264.155 198.812 264.326C198.641 264.496 198.398 264.585 198.081 264.585C197.764 264.585 197.529 264.496 197.358 264.326C197.196 264.155 197.107 263.944 197.107 263.676ZM198.95 273.403H197.212V265.682H198.95V273.403Z" fill="white"/>
<path d="M200.533 269.489C200.533 268.287 200.817 267.337 201.378 266.615C201.946 265.9 202.693 265.543 203.619 265.543C204.496 265.543 205.194 265.851 205.697 266.46L205.778 265.681H207.345V273.167C207.345 274.182 207.029 274.978 206.404 275.562C205.77 276.147 204.926 276.439 203.854 276.439C203.286 276.439 202.734 276.326 202.198 276.082C201.654 275.846 201.248 275.538 200.964 275.156L201.784 274.117C202.32 274.75 202.969 275.067 203.757 275.067C204.333 275.067 204.788 274.913 205.121 274.596C205.454 274.287 205.624 273.825 205.624 273.224V272.704C205.121 273.264 204.455 273.54 203.627 273.54C202.725 273.54 201.987 273.183 201.41 272.461C200.817 271.754 200.533 270.756 200.533 269.489ZM202.263 269.635C202.263 270.414 202.417 271.023 202.734 271.462C203.05 271.908 203.489 272.128 204.049 272.128C204.747 272.128 205.267 271.827 205.608 271.227V267.832C205.283 267.248 204.763 266.956 204.065 266.956C203.497 266.956 203.05 267.183 202.734 267.638C202.417 268.092 202.263 268.758 202.263 269.635Z" fill="white"/>
<path d="M210.829 266.527C211.397 265.87 212.111 265.545 212.98 265.545C214.628 265.545 215.457 266.487 215.481 268.362V273.405H213.752V268.427C213.752 267.891 213.638 267.518 213.402 267.299C213.175 267.08 212.834 266.966 212.387 266.966C211.689 266.966 211.178 267.274 210.829 267.891V273.405H209.099V262.443H210.829V266.527Z" fill="white"/>
<path d="M219.411 263.807V265.683H220.775V266.966H219.411V271.277C219.411 271.569 219.467 271.78 219.589 271.918C219.703 272.048 219.914 272.113 220.214 272.113C220.417 272.113 220.62 272.089 220.823 272.04V273.38C220.426 273.485 220.044 273.542 219.679 273.542C218.347 273.542 217.681 272.803 217.681 271.334V266.957H216.415V265.674H217.681V263.799H219.411V263.807Z" fill="white"/>
<path d="M330.346 159.164H306.174V153.927L317.306 142.227C320.051 139.101 321.423 136.625 321.423 134.782C321.423 133.288 321.098 132.159 320.448 131.38C319.799 130.6 318.857 130.21 317.615 130.21C316.397 130.21 315.406 130.73 314.643 131.769C313.88 132.809 313.498 134.108 313.498 135.659H305.46C305.46 133.531 305.988 131.574 307.051 129.772C308.115 127.969 309.585 126.565 311.476 125.55C313.368 124.535 315.471 124.023 317.802 124.023C321.545 124.023 324.427 124.884 326.449 126.613C328.47 128.343 329.485 130.827 329.485 134.059C329.485 135.423 329.234 136.755 328.722 138.046C328.211 139.337 327.423 140.693 326.351 142.113C325.279 143.534 323.558 145.434 321.179 147.813L316.705 152.977H330.338V159.164H330.346Z" fill="white"/>
<path d="M358.439 145.011C358.439 149.688 357.392 153.301 355.289 155.834C353.186 158.367 350.222 159.642 346.406 159.642C342.55 159.642 339.57 158.367 337.459 155.81C335.348 153.252 334.292 149.655 334.292 145.011V138.686C334.292 134.009 335.34 130.396 337.442 127.863C339.545 125.329 342.517 124.055 346.349 124.055C350.182 124.055 353.162 125.33 355.273 127.887C357.384 130.445 358.439 134.05 358.439 138.71V145.011ZM350.425 137.663C350.425 135.17 350.101 133.311 349.451 132.085C348.802 130.859 347.77 130.242 346.358 130.242C344.977 130.242 343.979 130.81 343.345 131.955C342.712 133.1 342.379 134.829 342.33 137.143V145.993C342.33 148.575 342.655 150.467 343.305 151.669C343.954 152.871 344.985 153.463 346.398 153.463C347.762 153.463 348.769 152.879 349.419 151.717C350.068 150.556 350.401 148.721 350.417 146.237V137.663H350.425Z" fill="white"/>
<path d="M386.646 145.011C386.646 149.688 385.598 153.301 383.496 155.834C381.393 158.367 378.429 159.642 374.613 159.642C370.756 159.642 367.776 158.367 365.665 155.81C363.554 153.252 362.499 149.655 362.499 145.011V138.686C362.499 134.009 363.546 130.396 365.649 127.863C367.752 125.329 370.724 124.055 374.556 124.055C378.388 124.055 381.368 125.33 383.479 127.887C385.59 130.445 386.646 134.05 386.646 138.71V145.011ZM378.632 137.663C378.632 135.17 378.307 133.311 377.658 132.085C377.008 130.859 375.977 130.242 374.564 130.242C373.184 130.242 372.185 130.81 371.552 131.955C370.919 133.1 370.586 134.829 370.537 137.143V145.993C370.537 148.575 370.862 150.467 371.511 151.669C372.161 152.871 373.192 153.463 374.605 153.463C375.969 153.463 376.976 152.879 377.625 151.717C378.275 150.556 378.608 148.721 378.624 146.237V137.663H378.632Z" fill="white"/>
<path d="M393.759 168.485L389.715 166.585L390.527 164.969C391.64 162.907 392.216 160.942 392.265 159.067V153.123H398.687L398.663 158.287C398.647 160.114 398.176 161.965 397.258 163.857C396.341 165.749 395.171 167.283 393.759 168.485Z" fill="white"/>
<path d="M427.99 145.011C427.99 149.688 426.943 153.301 424.84 155.834C422.737 158.367 419.773 159.642 415.957 159.642C412.1 159.642 409.121 158.367 407.01 155.81C404.899 153.252 403.843 149.655 403.843 145.011V138.686C403.843 134.009 404.89 130.396 406.993 127.863C409.096 125.329 412.068 124.055 415.9 124.055C419.733 124.055 422.712 125.33 424.824 127.887C426.935 130.445 427.99 134.05 427.99 138.71V145.011ZM419.976 137.663C419.976 135.17 419.652 133.311 419.002 132.085C418.352 130.859 417.321 130.242 415.908 130.242C414.528 130.242 413.529 130.81 412.896 131.955C412.263 133.1 411.93 134.829 411.881 137.143V145.993C411.881 148.575 412.206 150.467 412.856 151.669C413.505 152.871 414.536 153.463 415.949 153.463C417.313 153.463 418.32 152.879 418.969 151.717C419.619 150.556 419.952 148.721 419.968 146.237V137.663H419.976Z" fill="white"/>
<path d="M456.205 145.011C456.205 149.688 455.157 153.301 453.055 155.834C450.952 158.367 447.988 159.642 444.172 159.642C440.315 159.642 437.335 158.367 435.224 155.81C433.113 153.252 432.058 149.655 432.058 145.011V138.686C432.058 134.009 433.105 130.396 435.208 127.863C437.311 125.329 440.283 124.055 444.115 124.055C447.947 124.055 450.927 125.33 453.038 127.887C455.149 130.445 456.205 134.05 456.205 138.71V145.011ZM448.191 137.663C448.191 135.17 447.866 133.311 447.217 132.085C446.567 130.859 445.536 130.242 444.123 130.242C442.743 130.242 441.744 130.81 441.111 131.955C440.478 133.1 440.145 134.829 440.096 137.143V145.993C440.096 148.575 440.421 150.467 441.07 151.669C441.72 152.871 442.751 153.463 444.164 153.463C445.528 153.463 446.535 152.879 447.184 151.717C447.834 150.556 448.167 148.721 448.183 146.237V137.663H448.191Z" fill="white"/>
<path d="M484.42 145.011C484.42 149.688 483.372 153.301 481.269 155.834C479.167 158.367 476.203 159.642 472.387 159.642C468.53 159.642 465.55 158.367 463.439 155.81C461.328 153.252 460.273 149.655 460.273 145.011V138.686C460.273 134.009 461.32 130.396 463.423 127.863C465.526 125.329 468.498 124.055 472.33 124.055C476.162 124.055 479.142 125.33 481.253 127.887C483.364 130.445 484.42 134.05 484.42 138.71V145.011ZM476.398 137.663C476.398 135.17 476.073 133.311 475.424 132.085C474.774 130.859 473.743 130.242 472.33 130.242C470.95 130.242 469.951 130.81 469.318 131.955C468.684 133.1 468.352 134.829 468.303 137.143V145.993C468.303 148.575 468.628 150.467 469.277 151.669C469.927 152.871 470.958 153.463 472.371 153.463C473.735 153.463 474.741 152.879 475.391 151.717C476.041 150.556 476.373 148.721 476.39 146.237V137.663H476.398Z" fill="white"/>
<path d="M503.159 139.513H511.271V146.391H503.159V155.695H495.665V146.391H487.53V139.513H495.665V130.477H503.159V139.513Z" fill="white"/>
<path d="M349.597 178.04C349.459 179.518 348.915 180.671 347.957 181.499C346.999 182.327 345.741 182.741 344.157 182.741C343.053 182.741 342.079 182.481 341.242 181.954C340.406 181.426 339.757 180.687 339.294 179.721C338.831 178.755 338.595 177.634 338.579 176.36V175.068C338.579 173.761 338.815 172.608 339.277 171.618C339.74 170.627 340.406 169.856 341.275 169.312C342.144 168.768 343.142 168.5 344.279 168.5C345.806 168.5 347.04 168.914 347.973 169.742C348.907 170.57 349.451 171.74 349.597 173.258H347.202C347.088 172.259 346.796 171.545 346.333 171.106C345.87 170.668 345.18 170.449 344.279 170.449C343.232 170.449 342.428 170.83 341.868 171.593C341.307 172.357 341.023 173.485 341.007 174.963V176.189C341.007 177.683 341.275 178.828 341.811 179.615C342.347 180.403 343.134 180.793 344.165 180.793C345.107 180.793 345.822 180.582 346.293 180.151C346.764 179.721 347.072 179.023 347.194 178.032H349.597V178.04Z" fill="white"/>
<path d="M357.676 182.546C357.579 182.351 357.489 182.027 357.408 181.588C356.669 182.36 355.768 182.741 354.704 182.741C353.673 182.741 352.829 182.449 352.171 181.856C351.513 181.263 351.189 180.541 351.189 179.664C351.189 178.568 351.595 177.723 352.415 177.139C353.235 176.554 354.396 176.262 355.914 176.262H357.335V175.588C357.335 175.052 357.189 174.63 356.888 174.305C356.588 173.98 356.133 173.826 355.524 173.826C354.997 173.826 354.566 173.956 354.233 174.224C353.9 174.492 353.73 174.825 353.73 175.231H351.416C351.416 174.662 351.603 174.135 351.976 173.647C352.35 173.16 352.861 172.771 353.503 172.494C354.144 172.218 354.867 172.072 355.654 172.072C356.856 172.072 357.822 172.373 358.537 172.982C359.251 173.591 359.625 174.435 359.641 175.539V180.184C359.641 181.109 359.771 181.848 360.031 182.4V182.562H357.676V182.546ZM355.135 180.882C355.589 180.882 356.02 180.768 356.426 180.549C356.832 180.33 357.132 180.029 357.335 179.656V177.715H356.085C355.232 177.715 354.583 177.861 354.152 178.162C353.722 178.462 353.503 178.884 353.503 179.428C353.503 179.875 353.649 180.224 353.941 180.492C354.233 180.76 354.639 180.882 355.135 180.882Z" fill="white"/>
<path d="M364.212 172.251L364.277 173.437C365.04 172.519 366.039 172.057 367.273 172.057C369.417 172.057 370.505 173.283 370.545 175.743V182.547H368.231V175.881C368.231 175.231 368.093 174.744 367.809 174.427C367.525 174.111 367.062 173.957 366.421 173.957C365.487 173.957 364.797 174.379 364.334 175.223V182.547H362.02V172.251H364.212Z" fill="white"/>
<path d="M377.13 180.888C377.707 180.888 378.186 180.718 378.567 180.385C378.949 180.052 379.152 179.63 379.176 179.134H381.352C381.328 179.776 381.125 180.377 380.751 180.929C380.378 181.481 379.866 181.919 379.225 182.244C378.583 182.569 377.893 182.732 377.154 182.732C375.717 182.732 374.573 182.269 373.728 181.335C372.884 180.401 372.461 179.118 372.461 177.47V177.235C372.461 175.668 372.884 174.417 373.72 173.475C374.556 172.533 375.701 172.062 377.146 172.062C378.372 172.062 379.371 172.42 380.142 173.134C380.914 173.849 381.32 174.783 381.352 175.944H379.176C379.152 175.351 378.949 174.872 378.575 174.49C378.202 174.109 377.715 173.922 377.13 173.922C376.383 173.922 375.807 174.19 375.401 174.734C374.995 175.278 374.792 176.098 374.784 177.202V177.576C374.784 178.696 374.987 179.524 375.384 180.076C375.782 180.629 376.375 180.888 377.13 180.888Z" fill="white"/>
<path d="M387.637 182.734C386.175 182.734 384.982 182.271 384.072 181.345C383.163 180.42 382.708 179.194 382.708 177.659V177.375C382.708 176.344 382.903 175.426 383.301 174.622C383.699 173.819 384.251 173.185 384.973 172.731C385.696 172.276 386.492 172.057 387.369 172.057C388.773 172.057 389.853 172.503 390.616 173.396C391.38 174.29 391.761 175.556 391.761 177.196V178.13H385.03C385.103 178.982 385.388 179.656 385.883 180.144C386.378 180.631 387.003 180.883 387.758 180.883C388.814 180.883 389.683 180.452 390.349 179.6L391.599 180.785C391.185 181.402 390.633 181.881 389.951 182.214C389.269 182.547 388.497 182.734 387.637 182.734ZM387.361 173.916C386.727 173.916 386.216 174.135 385.826 174.582C385.436 175.028 385.185 175.646 385.079 176.441H389.488V176.271C389.439 175.499 389.228 174.915 388.871 174.517C388.513 174.119 388.002 173.916 387.361 173.916Z" fill="white"/>
<path d="M396.024 182.547H393.71V167.932H396.024V182.547Z" fill="white"/>
<path d="M403.072 182.734C401.61 182.734 400.417 182.271 399.507 181.345C398.598 180.42 398.143 179.194 398.143 177.659V177.375C398.143 176.344 398.338 175.426 398.736 174.622C399.134 173.819 399.686 173.185 400.408 172.731C401.131 172.276 401.927 172.057 402.804 172.057C404.208 172.057 405.288 172.503 406.051 173.396C406.815 174.29 407.196 175.556 407.196 177.196V178.13H400.465C400.538 178.982 400.822 179.656 401.318 180.144C401.813 180.631 402.438 180.883 403.193 180.883C404.249 180.883 405.118 180.452 405.783 179.6L407.034 180.785C406.62 181.402 406.068 181.881 405.386 182.214C404.704 182.547 403.924 182.734 403.072 182.734ZM402.795 173.916C402.162 173.916 401.651 174.135 401.261 174.582C400.871 175.028 400.62 175.646 400.514 176.441H404.923V176.271C404.874 175.499 404.663 174.915 404.306 174.517C403.948 174.119 403.437 173.916 402.795 173.916Z" fill="white"/>
<path d="M408.56 177.326C408.56 175.743 408.926 174.468 409.665 173.502C410.403 172.535 411.386 172.056 412.62 172.056C413.708 172.056 414.593 172.438 415.267 173.201V167.932H417.581V182.547H415.486L415.372 181.483C414.682 182.319 413.757 182.742 412.604 182.742C411.402 182.742 410.42 182.254 409.681 181.288C408.942 180.322 408.56 178.99 408.56 177.326ZM410.874 177.521C410.874 178.568 411.077 179.38 411.475 179.973C411.873 180.565 412.449 180.85 413.196 180.85C414.138 180.85 414.836 180.427 415.267 179.583V175.191C414.845 174.362 414.155 173.956 413.213 173.956C412.466 173.956 411.889 174.257 411.483 174.849C411.077 175.442 410.874 176.327 410.874 177.521Z" fill="white"/>
<path d="M425.66 182.546V173.964H424.093V172.251H425.66V171.309C425.66 170.164 425.976 169.288 426.61 168.662C427.243 168.037 428.136 167.729 429.273 167.729C429.679 167.729 430.109 167.786 430.564 167.899L430.507 169.71C430.255 169.661 429.955 169.637 429.622 169.637C428.518 169.637 427.966 170.205 427.966 171.342V172.251H430.06V173.964H427.966V182.546H425.66Z" fill="white"/>
<path d="M434.218 182.547H431.904V167.932H434.218V182.547Z" fill="white"/>
<path d="M436.735 169.578C436.735 169.221 436.848 168.928 437.076 168.693C437.303 168.458 437.62 168.344 438.042 168.344C438.464 168.344 438.781 168.458 439.016 168.693C439.252 168.928 439.357 169.221 439.357 169.578C439.357 169.927 439.243 170.219 439.016 170.447C438.789 170.674 438.464 170.796 438.042 170.796C437.62 170.796 437.303 170.682 437.076 170.447C436.848 170.211 436.735 169.927 436.735 169.578ZM439.187 182.545H436.873V172.249H439.187V182.545Z" fill="white"/>
<path d="M441.306 177.324C441.306 175.724 441.679 174.45 442.435 173.492C443.19 172.533 444.18 172.062 445.431 172.062C446.608 172.062 447.525 172.468 448.199 173.289L448.305 172.249H450.391V182.228C450.391 183.576 449.969 184.648 449.133 185.427C448.297 186.206 447.16 186.596 445.731 186.596C444.976 186.596 444.237 186.442 443.522 186.125C442.808 185.809 442.256 185.403 441.882 184.891L442.978 183.503C443.693 184.347 444.562 184.769 445.601 184.769C446.372 184.769 446.973 184.558 447.42 184.144C447.866 183.73 448.086 183.121 448.086 182.309V181.611C447.42 182.35 446.535 182.723 445.422 182.723C444.221 182.723 443.23 182.244 442.467 181.286C441.704 180.328 441.306 179.013 441.306 177.324ZM443.604 177.519C443.604 178.55 443.815 179.37 444.237 179.963C444.659 180.555 445.244 180.856 445.991 180.856C446.925 180.856 447.615 180.458 448.061 179.654V175.124C447.623 174.344 446.941 173.954 446.007 173.954C445.244 173.954 444.651 174.255 444.229 174.856C443.807 175.456 443.604 176.35 443.604 177.519Z" fill="white"/>
<path d="M455.036 173.372C455.791 172.495 456.749 172.056 457.902 172.056C460.094 172.056 461.206 173.307 461.239 175.816V182.547H458.925V175.905C458.925 175.19 458.771 174.695 458.462 174.395C458.154 174.094 457.699 173.956 457.106 173.956C456.181 173.956 455.49 174.37 455.036 175.191V182.547H452.722V167.932H455.036V173.372Z" fill="white"/>
<path d="M466.468 169.75V172.251H468.287V173.964H466.468V179.712C466.468 180.102 466.549 180.386 466.703 180.565C466.858 180.744 467.134 180.825 467.54 180.825C467.808 180.825 468.075 180.792 468.352 180.727V182.514C467.824 182.66 467.32 182.733 466.825 182.733C465.047 182.733 464.162 181.75 464.162 179.794V173.964H462.465V172.251H464.162V169.75H466.468Z" fill="white"/>
<path d="M475.821 179.743C475.821 179.329 475.651 179.021 475.31 178.802C474.969 178.582 474.409 178.396 473.621 178.233C472.833 178.071 472.176 177.86 471.648 177.608C470.495 177.048 469.919 176.244 469.919 175.18C469.919 174.295 470.292 173.548 471.039 172.956C471.786 172.363 472.736 172.062 473.897 172.062C475.131 172.062 476.122 172.371 476.877 172.972C477.632 173.573 478.014 174.368 478.014 175.343H475.7C475.7 174.896 475.537 174.531 475.204 174.23C474.871 173.93 474.433 173.792 473.889 173.792C473.386 173.792 472.972 173.906 472.647 174.141C472.322 174.377 472.168 174.693 472.168 175.083C472.168 175.44 472.314 175.716 472.614 175.911C472.915 176.106 473.515 176.309 474.425 176.504C475.334 176.699 476.041 176.942 476.56 177.218C477.08 177.494 477.462 177.827 477.713 178.209C477.965 178.591 478.087 179.061 478.087 179.614C478.087 180.539 477.705 181.286 476.934 181.863C476.162 182.439 475.164 182.723 473.921 182.723C473.077 182.723 472.33 182.569 471.664 182.269C470.999 181.968 470.487 181.546 470.122 181.01C469.756 180.474 469.569 179.906 469.569 179.289H471.819C471.851 179.833 472.054 180.255 472.436 180.547C472.817 180.84 473.321 180.986 473.946 180.986C474.555 180.986 475.018 180.872 475.334 180.637C475.651 180.401 475.821 180.125 475.821 179.743Z" fill="white"/>
<path d="M38.5916 45.2957L42.9436 30.7946H30.8619L26.5099 34.6594H23.6113L25.5437 27.8959L23.6113 21.1324H26.5099L30.8619 24.9972H42.9436L38.5916 10.4961H44.3889L52.1185 24.5102H60.8144C62.7144 24.5102 64.2002 26.0853 64.2002 27.8959C64.2002 29.7065 62.7225 31.2816 60.8144 31.2816H52.1185L44.3889 45.2957H38.5916Z" fill="white"/>
</svg>
