<svg width="160" height="9" viewBox="0 0 160 9" fill="none" xmlns="http://www.w3.org/2000/svg">
<path d="M3.5396 5.3902C3.5396 5.12052 3.44329 4.90863 3.25547 4.76415C3.06766 4.61968 2.72092 4.4704 2.22489 4.32111C1.72887 4.17182 1.33398 4.00325 1.04021 3.82025C0.476765 3.46869 0.197449 3.00638 0.197449 2.43812C0.197449 1.94209 0.39971 1.53275 0.804237 1.2101C1.20876 0.887437 1.73369 0.728516 2.379 0.728516C2.80761 0.728516 3.18805 0.805564 3.52516 0.964485C3.86226 1.12341 4.12713 1.34494 4.31495 1.63871C4.50758 1.93247 4.6039 2.25514 4.6039 2.61151H3.5396C3.5396 2.28885 3.43848 2.03842 3.23621 1.85542C3.03395 1.67242 2.745 1.58092 2.36937 1.58092C2.01782 1.58092 1.74813 1.65796 1.5555 1.80725C1.36287 1.95654 1.26655 2.16361 1.26655 2.4333C1.26655 2.65964 1.3725 2.84748 1.57958 2.99677C1.78666 3.14606 2.1334 3.29533 2.61016 3.43499C3.09174 3.57946 3.477 3.73839 3.76595 3.92139C4.0549 4.10439 4.27161 4.31146 4.40645 4.54744C4.54129 4.78341 4.60871 5.05793 4.60871 5.37577C4.60871 5.89106 4.41127 6.30039 4.01637 6.59897C3.62148 6.90237 3.08692 7.05648 2.41271 7.05648C1.96484 7.05648 1.5555 6.9746 1.18468 6.81087C0.809049 6.64713 0.520103 6.41598 0.313024 6.12703C0.105945 5.83808 0 5.49614 0 5.11088H1.06911C1.06911 5.46243 1.18469 5.73212 1.41584 5.92475C1.647 6.11738 1.97929 6.21371 2.41271 6.21371C2.78353 6.21371 3.06285 6.13664 3.25066 5.98736C3.44811 5.83807 3.5396 5.63581 3.5396 5.3902Z" fill="#676767"/>
<path d="M5.25891 4.64531C5.25891 4.19744 5.3456 3.79291 5.52378 3.43172C5.70197 3.07054 5.95239 2.79605 6.27504 2.60342C6.5977 2.41079 6.96852 2.31445 7.38268 2.31445C7.9991 2.31445 8.49994 2.51193 8.8852 2.91164C9.27047 3.31135 9.47755 3.83626 9.51126 4.49602L9.51607 4.73681C9.51607 5.1895 9.42939 5.59403 9.25602 5.94558C9.08265 6.29713 8.83223 6.57643 8.50957 6.76906C8.18691 6.9617 7.81128 7.06285 7.3923 7.06285C6.74699 7.06285 6.22688 6.84613 5.84162 6.41752C5.45635 5.98891 5.25891 5.41583 5.25891 4.69828V4.64531ZM6.28949 4.73681C6.28949 5.20876 6.38581 5.57475 6.58325 5.84444C6.77589 6.10931 7.05039 6.24416 7.39712 6.24416C7.74386 6.24416 8.01354 6.1093 8.20617 5.83962C8.39881 5.56993 8.49513 5.17024 8.49513 4.65013C8.49513 4.18781 8.394 3.8218 8.19655 3.5473C7.9991 3.2728 7.72941 3.14279 7.38749 3.14279C7.05039 3.14279 6.78552 3.27764 6.58807 3.5425C6.3858 3.80737 6.28949 4.20226 6.28949 4.73681Z" fill="#676767"/>
<path d="M13.1615 6.52738C12.8581 6.88374 12.4295 7.06195 11.8757 7.06195C11.3797 7.06195 11.004 6.91746 10.7488 6.6237C10.4935 6.32993 10.3635 5.91096 10.3635 5.36196V2.39545H11.3941V5.34753C11.3941 5.93024 11.6349 6.21919 12.1165 6.21919C12.6173 6.21919 12.9544 6.04101 13.1278 5.67982V2.39062H14.1584V6.97045H13.1904L13.1615 6.52738Z" fill="#676767"/>
<path d="M17.6017 3.33527C17.4669 3.3112 17.3272 3.30156 17.1827 3.30156C16.7108 3.30156 16.3929 3.48456 16.2292 3.84093V6.97119H15.1986V2.39137H16.181L16.2051 2.90184C16.4555 2.50213 16.7975 2.30469 17.2357 2.30469C17.3802 2.30469 17.5054 2.32395 17.6017 2.36247V3.33527Z" fill="#676767"/>
<path d="M20.053 6.23934C20.3082 6.23934 20.5249 6.1623 20.6935 6.01301C20.862 5.86372 20.9535 5.68071 20.9631 5.45918H21.9311C21.9215 5.74331 21.83 6.00817 21.6662 6.25859C21.4977 6.5042 21.2762 6.70166 20.9872 6.84613C20.6983 6.99061 20.3949 7.06285 20.0626 7.06285C19.4221 7.06285 18.9164 6.85575 18.5408 6.44159C18.1652 6.02743 17.9774 5.45435 17.9774 4.72235V4.61642C17.9774 3.91813 18.1652 3.3595 18.536 2.94053C18.9068 2.52156 19.4173 2.31445 20.0578 2.31445C20.602 2.31445 21.045 2.4734 21.3869 2.79124C21.7289 3.10908 21.907 3.52805 21.9263 4.04334H20.9583C20.9487 3.78328 20.8572 3.56656 20.6886 3.39801C20.5201 3.22945 20.3082 3.14279 20.0481 3.14279C19.7159 3.14279 19.4606 3.26318 19.2776 3.50397C19.0946 3.74476 19.0031 4.11074 19.0031 4.60196V4.76571C19.0031 5.26173 19.0946 5.63255 19.2728 5.87815C19.4558 6.11894 19.7159 6.23934 20.053 6.23934Z" fill="#676767"/>
<path d="M24.7243 7.06285C24.0742 7.06285 23.5445 6.85576 23.1399 6.44641C22.7354 6.03707 22.5331 5.48808 22.5331 4.80424V4.67902C22.5331 4.22152 22.6198 3.81219 22.798 3.45582C22.9762 3.09464 23.2218 2.81532 23.5396 2.61306C23.8575 2.4108 24.2139 2.31445 24.6039 2.31445C25.2252 2.31445 25.7068 2.51193 26.0487 2.91164C26.3906 3.31135 26.5591 3.87477 26.5591 4.60196V5.01614H23.5685C23.5974 5.39658 23.7275 5.69516 23.949 5.91187C24.1705 6.13339 24.4498 6.24416 24.7869 6.24416C25.2589 6.24416 25.6441 6.05153 25.9379 5.67108L26.4917 6.2008C26.3087 6.4753 26.0631 6.6872 25.7549 6.83649C25.4515 6.98578 25.1048 7.06285 24.7243 7.06285ZM24.6039 3.13796C24.3198 3.13796 24.0935 3.23909 23.9201 3.43654C23.7467 3.63399 23.636 3.9085 23.5878 4.26005H25.5478V4.18298C25.5238 3.84106 25.4323 3.58101 25.2733 3.40283C25.1144 3.22464 24.8881 3.13796 24.6039 3.13796Z" fill="#676767"/>
<path d="M27.9798 2.29883C28.1725 2.29883 28.3218 2.35179 28.4229 2.46255C28.524 2.57331 28.5818 2.70817 28.5818 2.87191C28.5818 3.03083 28.5289 3.16568 28.4229 3.27163C28.317 3.37758 28.1725 3.43053 27.9798 3.43053C27.7968 3.43053 27.6524 3.37758 27.5416 3.27163C27.4308 3.16568 27.3827 3.03083 27.3827 2.87191C27.3827 2.71299 27.4357 2.57331 27.5416 2.46255C27.6476 2.35179 27.792 2.29883 27.9798 2.29883ZM27.9798 5.89142C28.1725 5.89142 28.3218 5.94438 28.4229 6.05514C28.5289 6.16591 28.5818 6.30077 28.5818 6.4645C28.5818 6.62342 28.5289 6.75824 28.4229 6.86419C28.317 6.97014 28.1725 7.02312 27.9798 7.02312C27.7968 7.02312 27.6524 6.97014 27.5416 6.86419C27.4308 6.75824 27.3827 6.62342 27.3827 6.4645C27.3827 6.30558 27.4357 6.16591 27.5416 6.05514C27.6427 5.94919 27.792 5.89142 27.9798 5.89142Z" fill="#676767"/>
<path d="M36.6193 4.97227C36.5567 5.63203 36.3159 6.14251 35.8922 6.51333C35.4684 6.87933 34.9049 7.06716 34.2018 7.06716C33.7106 7.06716 33.2772 6.95156 32.9064 6.7204C32.5307 6.48925 32.2418 6.15696 32.0395 5.72835C31.8373 5.29975 31.7313 4.80373 31.7217 4.23547V3.65757C31.7217 3.07485 31.8228 2.56438 32.0299 2.12133C32.237 1.67827 32.5307 1.33635 32.916 1.09556C33.3013 0.85477 33.7443 0.734375 34.25 0.734375C34.929 0.734375 35.478 0.917387 35.8922 1.2882C36.3063 1.65902 36.5471 2.17913 36.6145 2.85334H35.5502C35.4973 2.41028 35.3721 2.09242 35.165 1.89497C34.9579 1.69752 34.6545 1.60121 34.2548 1.60121C33.7877 1.60121 33.4313 1.76976 33.1809 2.11169C32.9304 2.45361 32.8052 2.94963 32.8004 3.60939V4.15358C32.8004 4.81816 32.9208 5.32865 33.1568 5.6802C33.3928 6.03176 33.7443 6.20511 34.2066 6.20511C34.6256 6.20511 34.9434 6.10881 35.1553 5.92099C35.3672 5.73318 35.5021 5.41533 35.5551 4.97709H36.6193V4.97227Z" fill="#676767"/>
<path d="M38.4878 2.89694C38.825 2.50686 39.2487 2.31422 39.764 2.31422C40.7416 2.31422 41.2377 2.87286 41.2473 3.98531V6.97593H40.2167V4.02385C40.2167 3.70601 40.1493 3.48447 40.0096 3.35444C39.8748 3.22442 39.6725 3.15698 39.4077 3.15698C38.9935 3.15698 38.6901 3.33999 38.483 3.70599V6.97593H37.4525V0.474609H38.483V2.89694H38.4878Z" fill="#676767"/>
<path d="M42.2924 1.20614C42.2924 1.04722 42.3405 0.917191 42.4416 0.811244C42.5428 0.705296 42.6873 0.652344 42.8703 0.652344C43.0533 0.652344 43.2025 0.705296 43.3037 0.811244C43.4048 0.917191 43.4578 1.04722 43.4578 1.20614C43.4578 1.36025 43.4048 1.49027 43.3037 1.5914C43.2025 1.69253 43.0581 1.74551 42.8703 1.74551C42.6824 1.74551 42.5428 1.69253 42.4416 1.5914C42.3405 1.49027 42.2924 1.36506 42.2924 1.20614ZM43.3807 6.97548H42.3502V2.39566H43.3807V6.97548Z" fill="#676767"/>
<path d="M45.4563 2.39634L45.4851 2.92607C45.8223 2.51673 46.2701 2.31445 46.8191 2.31445C47.7726 2.31445 48.259 2.85865 48.2735 3.95183V6.97617H47.2429V4.00962C47.2429 3.72067 47.1803 3.50398 47.0551 3.36432C46.9299 3.22466 46.7228 3.15722 46.4387 3.15722C46.0245 3.15722 45.7163 3.34505 45.514 3.72069V6.98096H44.4835V2.40116H45.4563V2.39634Z" fill="#676767"/>
<path d="M52.0587 6.97617C52.0154 6.88948 51.972 6.745 51.9383 6.54755C51.6109 6.88948 51.2111 7.05803 50.7344 7.05803C50.2721 7.05803 49.9013 6.928 49.6075 6.66313C49.3137 6.39826 49.1693 6.07559 49.1693 5.69033C49.1693 5.20393 49.3523 4.82832 49.7134 4.56827C50.0746 4.30822 50.5947 4.17819 51.2689 4.17819H51.8998V3.87959C51.8998 3.64361 51.8324 3.45098 51.7024 3.31133C51.5723 3.17167 51.3701 3.09943 51.0956 3.09943C50.8596 3.09943 50.6718 3.15724 50.5177 3.27282C50.3684 3.3884 50.2913 3.53769 50.2913 3.72069H49.2608C49.2608 3.47026 49.3426 3.23428 49.5112 3.01757C49.6797 2.80086 49.9061 2.62749 50.1902 2.50228C50.4743 2.37707 50.797 2.31445 51.1485 2.31445C51.6831 2.31445 52.1117 2.44931 52.4296 2.71899C52.7474 2.98868 52.9111 3.36912 52.9208 3.85551V5.92151C52.9208 6.33567 52.9785 6.66313 53.0941 6.90874V6.98096H52.0587V6.97617ZM50.9318 6.23934C51.1341 6.23934 51.3267 6.19118 51.5049 6.09005C51.6831 5.98892 51.8179 5.85888 51.9094 5.69033V4.82831H51.3556C50.9752 4.82831 50.6862 4.89572 50.4984 5.02575C50.3106 5.15577 50.2095 5.34843 50.2095 5.58922C50.2095 5.78666 50.2769 5.94558 50.4069 6.06116C50.5321 6.17673 50.7103 6.23934 50.9318 6.23934Z" fill="#676767"/>
<path d="M57.3418 4.69507V6.98257H56.2726V0.818359H58.6324C59.321 0.818359 59.8652 0.996541 60.2746 1.35773C60.6791 1.71891 60.8814 2.19087 60.8814 2.78321C60.8814 3.38519 60.6839 3.85713 60.289 4.19424C59.8941 4.53134 59.3355 4.69989 58.6228 4.69989H57.3418V4.69507ZM57.3418 3.82823H58.6276C59.008 3.82823 59.297 3.73673 59.4992 3.55855C59.7015 3.38036 59.7978 3.12032 59.7978 2.78321C59.7978 2.45092 59.6967 2.18604 59.4944 1.98377C59.2921 1.78633 59.0128 1.68522 58.6565 1.67558H57.3418V3.82823Z" fill="#676767"/>
<path d="M64.4016 6.97617C64.3583 6.88948 64.3149 6.745 64.2812 6.54755C63.9538 6.88948 63.554 7.05803 63.0773 7.05803C62.615 7.05803 62.2441 6.928 61.9504 6.66313C61.6566 6.39826 61.5121 6.07559 61.5121 5.69033C61.5121 5.20393 61.6951 4.82832 62.0563 4.56827C62.4175 4.30822 62.9376 4.17819 63.6118 4.17819H64.2427V3.87959C64.2427 3.64361 64.1753 3.45098 64.0453 3.31133C63.9152 3.17167 63.713 3.09943 63.4385 3.09943C63.2025 3.09943 63.0147 3.15724 62.8606 3.27282C62.7113 3.3884 62.6342 3.53769 62.6342 3.72069H61.6036C61.6036 3.47026 61.6855 3.23428 61.8541 3.01757C62.0226 2.80086 62.249 2.62749 62.5331 2.50228C62.8172 2.37707 63.1399 2.31445 63.4914 2.31445C64.026 2.31445 64.4546 2.44931 64.7724 2.71899C65.0903 2.98868 65.254 3.36912 65.2637 3.85551V5.92151C65.2637 6.33567 65.3214 6.66313 65.437 6.90874V6.98096H64.4016V6.97617ZM63.2699 6.23934C63.4722 6.23934 63.6648 6.19118 63.843 6.09005C64.0212 5.98892 64.156 5.85888 64.2475 5.69033V4.82831H63.6937C63.3133 4.82831 63.0243 4.89572 62.8365 5.02575C62.6487 5.15577 62.5475 5.34843 62.5475 5.58922C62.5475 5.78666 62.615 5.94558 62.745 6.06116C62.875 6.17673 63.0532 6.23934 63.2699 6.23934Z" fill="#676767"/>
<path d="M68.9236 5.73457C68.9236 5.55157 68.8466 5.41191 68.6973 5.3156C68.548 5.21928 68.2976 5.13258 67.946 5.06035C67.5945 4.98811 67.3055 4.89182 67.0695 4.78105C66.5542 4.53063 66.299 4.17424 66.299 3.70229C66.299 3.30739 66.4676 2.97511 66.7999 2.71024C67.1321 2.44537 67.5559 2.31055 68.0712 2.31055C68.6202 2.31055 69.0585 2.44537 69.3956 2.71506C69.7327 2.98474 69.9012 3.3363 69.9012 3.76972H68.8706C68.8706 3.57227 68.7984 3.40852 68.6491 3.2785C68.5046 3.14847 68.3072 3.08106 68.0664 3.08106C67.8401 3.08106 67.6571 3.13404 67.5126 3.23999C67.3681 3.34594 67.3007 3.48559 67.3007 3.65896C67.3007 3.81788 67.3681 3.93828 67.4981 4.02497C67.6282 4.11165 67.8979 4.19833 68.3024 4.28983C68.7069 4.37652 69.0247 4.48245 69.2511 4.60766C69.4822 4.73287 69.6508 4.87737 69.7616 5.05074C69.8723 5.2241 69.9301 5.43118 69.9301 5.67678C69.9301 6.09094 69.7616 6.42321 69.4196 6.67845C69.0777 6.93368 68.6299 7.05891 68.076 7.05891C67.7004 7.05891 67.3681 6.9915 67.0743 6.85666C66.7806 6.72182 66.5542 6.53398 66.3905 6.29801C66.2268 6.06204 66.1449 5.80681 66.1449 5.53231H67.1418C67.1562 5.7731 67.2477 5.96091 67.4163 6.09575C67.5848 6.22578 67.8112 6.29319 68.0905 6.29319C68.3602 6.29319 68.5672 6.24021 68.7069 6.13908C68.8466 6.03795 68.9236 5.89831 68.9236 5.73457Z" fill="#676767"/>
<path d="M73.3975 5.73457C73.3975 5.55157 73.3205 5.41191 73.1712 5.3156C73.0219 5.21928 72.7715 5.13258 72.4199 5.06035C72.0684 4.98811 71.7794 4.89182 71.5435 4.78105C71.0282 4.53063 70.7729 4.17424 70.7729 3.70229C70.7729 3.30739 70.9415 2.97511 71.2738 2.71024C71.6061 2.44537 72.0299 2.31055 72.5452 2.31055C73.0942 2.31055 73.5324 2.44537 73.8695 2.71506C74.2066 2.98474 74.3751 3.3363 74.3751 3.76972H73.3446C73.3446 3.57227 73.2723 3.40852 73.1231 3.2785C72.9786 3.14847 72.7811 3.08106 72.5403 3.08106C72.314 3.08106 72.131 3.13404 71.9865 3.23999C71.842 3.34594 71.7746 3.48559 71.7746 3.65896C71.7746 3.81788 71.842 3.93828 71.9721 4.02497C72.1021 4.11165 72.3718 4.19833 72.7763 4.28983C73.1808 4.37652 73.4987 4.48245 73.725 4.60766C73.9562 4.73287 74.1247 4.87737 74.2355 5.05074C74.3463 5.2241 74.404 5.43118 74.404 5.67678C74.404 6.09094 74.2355 6.42321 73.8936 6.67845C73.5516 6.93368 73.1038 7.05891 72.55 7.05891C72.1743 7.05891 71.842 6.9915 71.5483 6.85666C71.2545 6.72182 71.0282 6.53398 70.8644 6.29801C70.7007 6.06204 70.6188 5.80681 70.6188 5.53231H71.6157C71.6302 5.7731 71.7216 5.96091 71.8902 6.09575C72.0588 6.22578 72.2851 6.29319 72.5644 6.29319C72.8341 6.29319 73.0412 6.24021 73.1808 6.13908C73.3205 6.03795 73.3975 5.89831 73.3975 5.73457Z" fill="#676767"/>
<path d="M77.3177 7.06285C76.6675 7.06285 76.1378 6.85576 75.7333 6.44641C75.3287 6.03707 75.1265 5.48808 75.1265 4.80424V4.67902C75.1265 4.22152 75.2132 3.81219 75.3913 3.45582C75.5695 3.09464 75.8151 2.81532 76.133 2.61306C76.4508 2.4108 76.8072 2.31445 77.1973 2.31445C77.8185 2.31445 78.3001 2.51193 78.642 2.91164C78.9839 3.31135 79.1525 3.87477 79.1525 4.60196V5.01614H76.1619C76.1908 5.39658 76.3208 5.69516 76.5423 5.91187C76.7638 6.13339 77.0432 6.24416 77.3803 6.24416C77.8522 6.24416 78.2375 6.05153 78.5312 5.67108L79.085 6.2008C78.902 6.4753 78.6564 6.6872 78.3482 6.83649C78.0448 6.98578 77.7029 7.06285 77.3177 7.06285ZM77.1973 3.13796C76.9131 3.13796 76.6868 3.23909 76.5134 3.43654C76.34 3.63399 76.2293 3.9085 76.1811 4.26005H78.1412V4.18298C78.1171 3.84106 78.0256 3.58101 77.8667 3.40283C77.7077 3.22464 77.4814 3.13796 77.1973 3.13796Z" fill="#676767"/>
<path d="M80.9102 2.39634L80.9391 2.92607C81.2762 2.51673 81.724 2.31445 82.273 2.31445C83.2266 2.31445 83.713 2.85865 83.7274 3.95183V6.97617H82.6968V4.00962C82.6968 3.72067 82.6342 3.50398 82.509 3.36432C82.3838 3.22466 82.1767 3.15722 81.8926 3.15722C81.4784 3.15722 81.1702 3.34505 80.968 3.72069V6.98096H79.9374V2.40116H80.9102V2.39634Z" fill="#676767"/>
<path d="M84.5942 4.65495C84.5942 3.94221 84.7628 3.37393 85.0951 2.95014C85.4322 2.52635 85.8752 2.31445 86.4242 2.31445C86.9444 2.31445 87.3585 2.49746 87.6571 2.85864L87.7053 2.39634H88.6299V6.83649C88.6299 7.43847 88.4421 7.91042 88.0712 8.25716C87.6956 8.60389 87.1948 8.77727 86.5591 8.77727C86.222 8.77727 85.8945 8.70985 85.5767 8.56537C85.254 8.42572 85.0132 8.24271 84.8447 8.01637L85.3311 7.39993C85.6489 7.77556 86.0342 7.9634 86.5013 7.9634C86.8432 7.9634 87.1129 7.87189 87.3104 7.68407C87.5078 7.49626 87.6089 7.22657 87.6089 6.8702V6.56199C87.3104 6.89428 86.9155 7.05803 86.4242 7.05803C85.8897 7.05803 85.4515 6.84612 85.1095 6.41752C84.7676 5.98891 84.5942 5.40622 84.5942 4.65495ZM85.62 4.74163C85.62 5.20395 85.7115 5.56513 85.8993 5.82519C86.0871 6.09005 86.3472 6.22008 86.6795 6.22008C87.0936 6.22008 87.4018 6.04188 87.6041 5.68551V3.67251C87.4115 3.32577 87.1033 3.15243 86.6891 3.15243C86.352 3.15243 86.0871 3.28725 85.8993 3.55212C85.7115 3.81698 85.62 4.22153 85.62 4.74163Z" fill="#676767"/>
<path d="M91.7071 7.06285C91.057 7.06285 90.5273 6.85576 90.1227 6.44641C89.7182 6.03707 89.5159 5.48808 89.5159 4.80424V4.67902C89.5159 4.22152 89.6026 3.81219 89.7808 3.45582C89.959 3.09464 90.2046 2.81532 90.5224 2.61306C90.8403 2.4108 91.1967 2.31445 91.5867 2.31445C92.208 2.31445 92.6895 2.51193 93.0315 2.91164C93.3734 3.31135 93.5419 3.87477 93.5419 4.60196V5.01614H90.5513C90.5802 5.39658 90.7102 5.69516 90.9318 5.91187C91.1533 6.13339 91.4326 6.24416 91.7697 6.24416C92.2417 6.24416 92.6269 6.05153 92.9207 5.67108L93.4745 6.2008C93.2915 6.4753 93.0459 6.6872 92.7377 6.83649C92.4295 6.98578 92.0876 7.06285 91.7071 7.06285ZM91.5819 3.13796C91.2978 3.13796 91.0714 3.23909 90.8981 3.43654C90.7247 3.63399 90.6139 3.9085 90.5658 4.26005H92.5258V4.18298C92.5017 3.84106 92.4102 3.58101 92.2513 3.40283C92.0924 3.22464 91.8709 3.13796 91.5819 3.13796Z" fill="#676767"/>
<path d="M96.7397 3.33527C96.6048 3.3112 96.4652 3.30156 96.3207 3.30156C95.8488 3.30156 95.5309 3.48456 95.3672 3.84093V6.97119H94.3366V2.39137H95.319L95.3431 2.90184C95.5935 2.50213 95.9355 2.30469 96.3737 2.30469C96.5182 2.30469 96.6434 2.32395 96.7397 2.36247V3.33527Z" fill="#676767"/>
<path d="M104.349 4.97227C104.286 5.63203 104.045 6.14251 103.621 6.51333C103.198 6.87933 102.634 7.06716 101.931 7.06716C101.44 7.06716 101.006 6.95156 100.636 6.7204C100.26 6.48925 99.971 6.15696 99.7688 5.72835C99.5665 5.29975 99.4606 4.80373 99.4509 4.23547V3.65757C99.4509 3.07485 99.5521 2.56438 99.7591 2.12133C99.9662 1.67827 100.26 1.33635 100.645 1.09556C101.031 0.85477 101.474 0.734375 101.979 0.734375C102.658 0.734375 103.207 0.917387 103.621 1.2882C104.036 1.65902 104.276 2.17913 104.344 2.85334H103.279C103.227 2.41028 103.101 2.09242 102.894 1.89497C102.687 1.69752 102.384 1.60121 101.984 1.60121C101.517 1.60121 101.161 1.76976 100.91 2.11169C100.66 2.45361 100.534 2.94963 100.53 3.60939V4.15358C100.53 4.81816 100.65 5.32865 100.886 5.6802C101.122 6.03176 101.474 6.20511 101.936 6.20511C102.355 6.20511 102.673 6.10881 102.885 5.92099C103.096 5.73318 103.231 5.41533 103.284 4.97709H104.349V4.97227Z" fill="#676767"/>
<path d="M107.941 6.97617C107.898 6.88948 107.855 6.745 107.821 6.54755C107.493 6.88948 107.094 7.05803 106.617 7.05803C106.155 7.05803 105.784 6.928 105.49 6.66313C105.196 6.39826 105.052 6.07559 105.052 5.69033C105.052 5.20393 105.235 4.82832 105.596 4.56827C105.957 4.30822 106.477 4.17819 107.151 4.17819H107.782V3.87959C107.782 3.64361 107.715 3.45098 107.585 3.31133C107.455 3.17167 107.253 3.09943 106.978 3.09943C106.742 3.09943 106.554 3.15724 106.4 3.27282C106.251 3.3884 106.174 3.53769 106.174 3.72069H105.143C105.143 3.47026 105.225 3.23428 105.394 3.01757C105.562 2.80086 105.789 2.62749 106.073 2.50228C106.357 2.37707 106.679 2.31445 107.031 2.31445C107.566 2.31445 107.994 2.44931 108.312 2.71899C108.63 2.98868 108.794 3.36912 108.803 3.85551V5.92151C108.803 6.33567 108.861 6.66313 108.977 6.90874V6.98096H107.941V6.97617ZM106.814 6.23934C107.017 6.23934 107.209 6.19118 107.387 6.09005C107.566 5.98892 107.7 5.85888 107.792 5.69033V4.82831H107.238C106.858 4.82831 106.569 4.89572 106.381 5.02575C106.193 5.15577 106.092 5.34843 106.092 5.58922C106.092 5.78666 106.159 5.94558 106.289 6.06116C106.415 6.17673 106.593 6.23934 106.814 6.23934Z" fill="#676767"/>
<path d="M112.295 3.33527C112.16 3.3112 112.02 3.30156 111.876 3.30156C111.404 3.30156 111.086 3.48456 110.922 3.84093V6.97119H109.896V2.39137H110.879L110.903 2.90184C111.153 2.50213 111.495 2.30469 111.933 2.30469C112.078 2.30469 112.203 2.32395 112.299 2.36247L112.295 3.33527Z" fill="#676767"/>
<path d="M118.651 5.53966H116.263L115.762 6.97479H114.65L116.976 0.810547H117.939L120.27 6.97479H119.152L118.651 5.53966ZM116.566 4.67764H118.353L117.462 2.12046L116.566 4.67764Z" fill="#676767"/>
<path d="M123.438 5.73457C123.438 5.55157 123.361 5.41191 123.212 5.3156C123.063 5.21928 122.812 5.13258 122.461 5.06035C122.109 4.98811 121.82 4.89182 121.584 4.78105C121.069 4.53063 120.814 4.17424 120.814 3.70229C120.814 3.30739 120.982 2.97511 121.315 2.71024C121.647 2.44537 122.071 2.31055 122.586 2.31055C123.135 2.31055 123.573 2.44537 123.91 2.71506C124.248 2.98474 124.416 3.3363 124.416 3.76972H123.386C123.386 3.57227 123.313 3.40852 123.164 3.2785C123.02 3.14847 122.822 3.08106 122.581 3.08106C122.355 3.08106 122.172 3.13404 122.027 3.23999C121.883 3.34594 121.816 3.48559 121.816 3.65896C121.816 3.81788 121.883 3.93828 122.013 4.02497C122.143 4.11165 122.413 4.19833 122.817 4.28983C123.222 4.37652 123.54 4.48245 123.766 4.60766C123.997 4.73287 124.166 4.87737 124.276 5.05074C124.387 5.2241 124.445 5.43118 124.445 5.67678C124.445 6.09094 124.276 6.42321 123.935 6.67845C123.593 6.93368 123.145 7.05891 122.591 7.05891C122.215 7.05891 121.883 6.9915 121.589 6.85666C121.295 6.72182 121.069 6.53398 120.905 6.29801C120.742 6.06204 120.66 5.80681 120.66 5.53231H121.657C121.671 5.7731 121.763 5.96091 121.931 6.09575C122.1 6.22578 122.326 6.29319 122.605 6.29319C122.875 6.29319 123.082 6.24021 123.222 6.13908C123.361 6.03795 123.438 5.89831 123.438 5.73457Z" fill="#676767"/>
<path d="M127.912 5.73457C127.912 5.55157 127.835 5.41191 127.686 5.3156C127.537 5.21928 127.286 5.13258 126.935 5.06035C126.583 4.98811 126.294 4.89182 126.058 4.78105C125.543 4.53063 125.288 4.17424 125.288 3.70229C125.288 3.30739 125.456 2.97511 125.789 2.71024C126.121 2.44537 126.545 2.31055 127.06 2.31055C127.609 2.31055 128.047 2.44537 128.384 2.71506C128.721 2.98474 128.89 3.3363 128.89 3.76972H127.859C127.859 3.57227 127.787 3.40852 127.638 3.2785C127.493 3.14847 127.296 3.08106 127.055 3.08106C126.829 3.08106 126.646 3.13404 126.501 3.23999C126.357 3.34594 126.289 3.48559 126.289 3.65896C126.289 3.81788 126.357 3.93828 126.487 4.02497C126.617 4.11165 126.887 4.19833 127.291 4.28983C127.696 4.37652 128.014 4.48245 128.24 4.60766C128.471 4.73287 128.64 4.87737 128.75 5.05074C128.861 5.2241 128.919 5.43118 128.919 5.67678C128.919 6.09094 128.75 6.42321 128.408 6.67845C128.066 6.93368 127.619 7.05891 127.065 7.05891C126.689 7.05891 126.357 6.9915 126.063 6.85666C125.769 6.72182 125.543 6.53398 125.379 6.29801C125.216 6.06204 125.134 5.80681 125.134 5.53231H126.131C126.145 5.7731 126.236 5.96091 126.405 6.09575C126.574 6.22578 126.8 6.29319 127.079 6.29319C127.349 6.29319 127.556 6.24021 127.696 6.13908C127.835 6.03795 127.912 5.89831 127.912 5.73457Z" fill="#676767"/>
<path d="M129.627 4.64531C129.627 4.19744 129.713 3.79291 129.892 3.43172C130.07 3.07054 130.32 2.79605 130.643 2.60342C130.965 2.41079 131.336 2.31445 131.75 2.31445C132.367 2.31445 132.872 2.51193 133.253 2.91164C133.638 3.31135 133.845 3.83626 133.879 4.49602L133.884 4.73681C133.884 5.1895 133.797 5.59403 133.624 5.94558C133.45 6.30195 133.2 6.57643 132.877 6.76906C132.555 6.9617 132.179 7.06285 131.755 7.06285C131.11 7.06285 130.59 6.84613 130.205 6.41752C129.819 5.98891 129.622 5.41583 129.622 4.69828V4.64531H129.627ZM130.657 4.73681C130.657 5.20876 130.754 5.57475 130.951 5.84444C131.144 6.10931 131.418 6.24416 131.765 6.24416C132.112 6.24416 132.381 6.1093 132.574 5.83962C132.767 5.56993 132.863 5.17024 132.863 4.65013C132.863 4.18781 132.762 3.8218 132.564 3.5473C132.367 3.27761 132.097 3.14279 131.755 3.14279C131.418 3.14279 131.153 3.27764 130.956 3.5425C130.754 3.80737 130.657 4.20226 130.657 4.73681Z" fill="#676767"/>
<path d="M136.634 6.23934C136.889 6.23934 137.106 6.1623 137.274 6.01301C137.443 5.86372 137.534 5.68071 137.544 5.45918H138.512C138.502 5.74331 138.411 6.00817 138.247 6.25859C138.078 6.5042 137.857 6.70166 137.568 6.84613C137.279 6.99061 136.976 7.06285 136.643 7.06285C136.003 7.06285 135.497 6.85575 135.122 6.44159C134.746 6.02743 134.558 5.45435 134.558 4.72235V4.61642C134.558 3.91813 134.746 3.3595 135.117 2.94053C135.488 2.52156 135.998 2.31445 136.639 2.31445C137.183 2.31445 137.626 2.4734 137.968 2.79124C138.31 3.10908 138.488 3.52805 138.507 4.04334H137.539C137.529 3.78328 137.438 3.56656 137.269 3.39801C137.101 3.22945 136.889 3.14279 136.629 3.14279C136.297 3.14279 136.041 3.26318 135.858 3.50397C135.675 3.74476 135.584 4.11074 135.584 4.60196V4.76571C135.584 5.26173 135.675 5.63255 135.854 5.87815C136.037 6.11894 136.297 6.23934 136.634 6.23934Z" fill="#676767"/>
<path d="M139.292 1.20614C139.292 1.04722 139.34 0.917191 139.441 0.811244C139.542 0.705296 139.687 0.652344 139.87 0.652344C140.053 0.652344 140.202 0.705296 140.303 0.811244C140.404 0.917191 140.457 1.04722 140.457 1.20614C140.457 1.36025 140.404 1.49027 140.303 1.5914C140.202 1.69253 140.058 1.74551 139.87 1.74551C139.682 1.74551 139.542 1.69253 139.441 1.5914C139.345 1.49027 139.292 1.36506 139.292 1.20614ZM140.385 6.97548H139.355V2.39566H140.385V6.97548Z" fill="#676767"/>
<path d="M144.243 6.97617C144.199 6.88948 144.156 6.745 144.122 6.54755C143.795 6.88948 143.395 7.05803 142.918 7.05803C142.456 7.05803 142.085 6.928 141.791 6.66313C141.498 6.39826 141.353 6.07559 141.353 5.69033C141.353 5.20393 141.536 4.82832 141.897 4.56827C142.259 4.30822 142.779 4.17819 143.453 4.17819H144.089V3.87959C144.089 3.64361 144.021 3.45098 143.891 3.31133C143.761 3.17167 143.559 3.09943 143.284 3.09943C143.048 3.09943 142.86 3.15724 142.706 3.27282C142.557 3.3884 142.48 3.53769 142.48 3.72069H141.449C141.449 3.47026 141.531 3.23428 141.7 3.01757C141.868 2.80086 142.095 2.62749 142.379 2.50228C142.663 2.37707 142.986 2.31445 143.337 2.31445C143.872 2.31445 144.3 2.44931 144.618 2.71899C144.936 2.98868 145.1 3.36912 145.109 3.85551V5.92151C145.109 6.33567 145.167 6.66313 145.283 6.90874V6.98096H144.243V6.97617ZM143.111 6.23934C143.313 6.23934 143.506 6.19118 143.684 6.09005C143.862 5.98892 143.997 5.85888 144.089 5.69033V4.82831H143.535C143.154 4.82831 142.865 4.89572 142.677 5.02575C142.49 5.15577 142.389 5.34843 142.389 5.58922C142.389 5.78666 142.456 5.94558 142.586 6.06116C142.716 6.17673 142.894 6.23934 143.111 6.23934Z" fill="#676767"/>
<path d="M147.484 1.28412V2.39656H148.293V3.15744H147.484V5.71462C147.484 5.88799 147.518 6.01804 147.59 6.09509C147.657 6.17214 147.782 6.21067 147.961 6.21067C148.081 6.21067 148.201 6.19621 148.322 6.16731V6.96193C148.086 7.02453 147.859 7.05825 147.643 7.05825C146.853 7.05825 146.458 6.62 146.458 5.74834V3.15265H145.707V2.39174H146.458V1.2793H147.484V1.28412Z" fill="#676767"/>
<path d="M149.078 1.20614C149.078 1.04722 149.126 0.917191 149.227 0.811244C149.328 0.705296 149.473 0.652344 149.656 0.652344C149.839 0.652344 149.988 0.705296 150.089 0.811244C150.19 0.917191 150.243 1.04722 150.243 1.20614C150.243 1.36025 150.19 1.49027 150.089 1.5914C149.988 1.69253 149.844 1.74551 149.656 1.74551C149.468 1.74551 149.328 1.69253 149.227 1.5914C149.131 1.49027 149.078 1.36506 149.078 1.20614ZM150.171 6.97548H149.14V2.39566H150.171V6.97548Z" fill="#676767"/>
<path d="M151.1 4.64531C151.1 4.19744 151.187 3.79291 151.365 3.43172C151.543 3.07054 151.794 2.79605 152.117 2.60342C152.439 2.41079 152.81 2.31445 153.224 2.31445C153.841 2.31445 154.346 2.51193 154.727 2.91164C155.112 3.31135 155.319 3.83626 155.353 4.49602L155.358 4.73681C155.358 5.1895 155.271 5.59403 155.098 5.94558C154.924 6.30195 154.674 6.57643 154.351 6.76906C154.028 6.9617 153.653 7.06285 153.229 7.06285C152.584 7.06285 152.064 6.84613 151.678 6.41752C151.293 5.98891 151.096 5.41583 151.096 4.69828V4.64531H151.1ZM152.126 4.73681C152.126 5.20876 152.222 5.57475 152.42 5.84444C152.613 6.10931 152.887 6.24416 153.234 6.24416C153.581 6.24416 153.85 6.1093 154.043 5.83962C154.235 5.56993 154.332 5.17024 154.332 4.65013C154.332 4.18781 154.231 3.8218 154.033 3.5473C153.836 3.27761 153.566 3.14279 153.224 3.14279C152.887 3.14279 152.622 3.27764 152.425 3.5425C152.227 3.80737 152.126 4.20226 152.126 4.73681Z" fill="#676767"/>
<path d="M157.183 2.39634L157.212 2.92607C157.549 2.51673 157.997 2.31445 158.546 2.31445C159.499 2.31445 159.986 2.85865 160 3.95183V6.97617H158.969V4.00962C158.969 3.72067 158.907 3.50398 158.782 3.36432C158.656 3.22466 158.449 3.15722 158.165 3.15722C157.751 3.15722 157.443 3.34505 157.241 3.72069V6.98096H156.21V2.40116H157.183V2.39634Z" fill="#676767"/>
</svg>
