<svg width="389" height="25" viewBox="0 0 389 25" fill="none" xmlns="http://www.w3.org/2000/svg">
<path d="M4.39465 6.46122C4.46934 6.02552 4.2577 5.68942 3.75975 5.46534L2.70179 5.04209C1.48182 4.49434 0.896549 3.74743 0.958792 2.78888C0.98369 2.34072 1.1332 1.9548 1.39462 1.60623C1.65604 1.25767 2.02938 0.996255 2.51488 0.797076C3.00038 0.597897 3.51078 0.510742 4.07097 0.510742C4.84279 0.523191 5.46522 0.759739 5.93827 1.19544C6.41132 1.6436 6.64792 2.22868 6.63547 2.9756H5.042C5.05445 2.61459 4.97983 2.32828 4.80555 2.1291C4.63127 1.92992 4.35751 1.83033 3.98405 1.81788C3.62303 1.80543 3.29936 1.89255 3.03793 2.06683C2.76406 2.24111 2.60206 2.47765 2.55226 2.77642C2.47757 3.17477 2.75161 3.486 3.34915 3.72253L4.07097 3.9964L4.48187 4.18312C5.55246 4.71842 6.06281 5.46533 5.98812 6.42388C5.95077 6.89693 5.80156 7.2953 5.54013 7.64386C5.26626 7.97998 4.90509 8.24141 4.44449 8.42814C3.98389 8.61487 3.47353 8.702 2.92578 8.68955C2.36559 8.6771 1.85524 8.56505 1.41954 8.32853C0.983836 8.092 0.647648 7.7808 0.411122 7.36999C0.199494 6.98408 0.0999169 6.54835 0.112366 6.06285H1.7183C1.6685 6.92181 2.09178 7.37 2.98809 7.38245C3.374 7.38245 3.69769 7.29528 3.94666 7.121C4.19564 6.94672 4.34485 6.74754 4.39465 6.46122Z" fill="#4E4E4E"/>
<path d="M10.0337 2.56406C10.5565 2.5765 11.0048 2.701 11.3783 2.96242C11.7517 3.22385 12.0379 3.58485 12.2122 4.04545C12.3865 4.50606 12.4489 5.01645 12.3991 5.5642C12.312 6.5103 11.9883 7.26969 11.4156 7.84233C10.843 8.42742 10.1335 8.71373 9.29942 8.68883C8.78902 8.67638 8.34079 8.55189 7.96732 8.29047C7.59386 8.02904 7.32009 7.6805 7.13336 7.2199C6.94663 6.75929 6.89665 6.26132 6.94645 5.71358C7.04604 4.73013 7.36976 3.95832 7.9424 3.38567C8.51504 2.81303 9.21209 2.53916 10.0337 2.56406ZM8.46515 6.27378C8.4776 6.62235 8.55223 6.89623 8.71406 7.10786C8.8759 7.31949 9.08756 7.41908 9.37388 7.41908C9.84693 7.43153 10.2206 7.21988 10.4944 6.77172C10.7683 6.32357 10.8929 5.72605 10.868 5.00403C10.8555 4.65547 10.7681 4.36913 10.6188 4.16995C10.4694 3.95832 10.2453 3.85872 9.95893 3.84627C9.49833 3.83382 9.12501 4.04547 8.85113 4.49363C8.57726 4.92933 8.4527 5.52686 8.46515 6.27378Z" fill="#4E4E4E"/>
<path d="M16.507 7.97964C16.0713 8.47759 15.5238 8.71414 14.8765 8.70169C14.3038 8.68924 13.8805 8.49004 13.5817 8.09168C13.283 7.69332 13.1709 7.15804 13.2456 6.51071L13.8805 2.67652H15.4241L14.7768 6.52317C14.7643 6.64765 14.7643 6.75968 14.7768 6.85927C14.8141 7.22028 15.0133 7.40703 15.3868 7.41948C15.8598 7.43192 16.2581 7.24519 16.5693 6.87173L17.3039 2.66406H18.86L17.8266 8.5772H16.3827L16.507 7.97964Z" fill="#4E4E4E"/>
<path d="M23.0302 4.14449C22.8186 4.10714 22.6444 4.09468 22.5075 4.09468C21.9597 4.08223 21.524 4.28141 21.2003 4.71712L20.5159 8.58868H18.9722L20.0053 2.67555H21.4495L21.3124 3.39756C21.6859 2.83736 22.1466 2.56348 22.6944 2.56348C22.8438 2.56348 23.0304 2.58837 23.2296 2.63817L23.0302 4.14449Z" fill="#4E4E4E"/>
<path d="M25.4953 7.4315C25.7816 7.44395 26.0179 7.35681 26.2046 7.19498C26.3913 7.03314 26.5159 6.82153 26.5781 6.54766H28.0221C27.9972 6.95846 27.8729 7.33192 27.6364 7.66803C27.3999 8.00415 27.0886 8.25312 26.6903 8.43985C26.3044 8.62658 25.8811 8.71375 25.4454 8.7013C24.7234 8.68885 24.1631 8.43987 23.7398 7.95437C23.3165 7.46887 23.1174 6.82151 23.1298 6.02479L23.1423 5.72604V5.66381C23.2419 4.70526 23.5656 3.93344 24.1133 3.37325C24.6611 2.81306 25.3456 2.53916 26.1548 2.56406C26.827 2.57651 27.3499 2.80058 27.7482 3.22384C28.1466 3.64709 28.3333 4.19487 28.3208 4.892H26.8769C26.8769 4.58078 26.8023 4.31935 26.6654 4.14507C26.5284 3.95834 26.3168 3.87117 26.0429 3.84627C25.3085 3.82137 24.8602 4.35669 24.6984 5.46463C24.6486 5.86298 24.6236 6.1991 24.6361 6.47297C24.7108 7.0954 24.9849 7.41906 25.4953 7.4315Z" fill="#4E4E4E"/>
<path d="M31.4331 8.70106C30.9103 8.70106 30.4498 8.57657 30.0515 8.31515C29.6531 8.06618 29.3544 7.71759 29.1552 7.28189C28.956 6.84618 28.8814 6.36068 28.9312 5.83783L28.9434 5.61377C28.9932 5.04113 29.1676 4.50583 29.4415 4.02033C29.7154 3.53483 30.0887 3.1738 30.5244 2.91238C30.9601 2.65096 31.4582 2.52649 31.9935 2.53893C32.7529 2.55138 33.3379 2.83769 33.7238 3.38544C34.1097 3.93318 34.2592 4.61788 34.1721 5.46439L34.0848 6.13663H30.4624C30.4499 6.52254 30.537 6.82129 30.7362 7.05782C30.9354 7.29434 31.2091 7.40639 31.5577 7.41884C32.1179 7.43129 32.6158 7.21967 33.039 6.75906L33.7487 7.63045C33.5246 7.96656 33.2009 8.22799 32.7901 8.41472C32.3669 8.6139 31.9186 8.70106 31.4331 8.70106ZM31.9188 3.83361C31.6325 3.82116 31.3833 3.92074 31.1593 4.09502C30.9352 4.28175 30.736 4.60542 30.5618 5.06602H32.6904L32.7278 4.9291C32.7527 4.77972 32.7527 4.64276 32.7278 4.51827C32.6905 4.30665 32.6034 4.14482 32.454 4.02033C32.317 3.89585 32.1429 3.83361 31.9188 3.83361Z" fill="#4E4E4E"/>
<path d="M35.6284 6.9594C35.8774 6.94695 36.0766 7.02167 36.2509 7.1835C36.4251 7.34534 36.5122 7.54449 36.5122 7.78102C36.5247 8.01754 36.4376 8.22917 36.2758 8.40345C36.1139 8.57773 35.9023 8.65244 35.6533 8.65244C35.4044 8.66489 35.2052 8.59021 35.0309 8.42837C34.8566 8.26654 34.7695 8.0798 34.7695 7.83082C34.7695 7.58185 34.8442 7.38267 35.006 7.20839C35.1678 7.03411 35.3794 6.9594 35.6284 6.9594ZM36.3879 2.4779C36.6369 2.46545 36.8361 2.54013 37.0104 2.70196C37.1846 2.8638 37.2717 3.06299 37.2717 3.29952C37.2842 3.53604 37.1968 3.74766 37.035 3.90949C36.8731 4.08377 36.6615 4.15844 36.4125 4.15844C36.1636 4.17089 35.9644 4.09621 35.7901 3.93437C35.6158 3.77254 35.5287 3.58583 35.5287 3.33686C35.5287 3.08789 35.6037 2.88871 35.7655 2.71442C35.9273 2.54014 36.1514 2.49035 36.3879 2.4779Z" fill="#4E4E4E"/>
<path d="M47.8033 0.62207L46.9071 5.87542C46.7826 6.75928 46.4214 7.44398 45.8114 7.95437C45.2014 8.46477 44.4548 8.71375 43.5584 8.7013C42.9983 8.68886 42.5125 8.56435 42.1017 8.32782C41.6909 8.0913 41.3797 7.7552 41.1805 7.33194C40.9814 6.90868 40.9192 6.42317 40.9815 5.87542L41.8778 0.62207H43.4837L42.5874 5.88789C42.5625 6.08706 42.5625 6.28623 42.5874 6.46052C42.6621 7.0456 43.0105 7.35685 43.6454 7.38174C44.0935 7.39419 44.4672 7.26968 44.7535 7.00826C45.0398 6.74684 45.2265 6.37337 45.3136 5.87542L46.2099 0.62207H47.8033Z" fill="#4E4E4E"/>
<path d="M54.0401 8.58927H52.484L50.2681 3.27365L49.3469 8.58927H47.741L49.1229 0.62207H50.6665L52.8949 5.95011L53.8161 0.62207H55.4093L54.0401 8.58927Z" fill="#4E4E4E"/>
<path d="M58.2352 8.58927L59.6171 0.62207H61.9078C62.4431 0.634519 62.9285 0.759017 63.3517 0.983093C63.775 1.21962 64.1236 1.54327 64.3975 1.97897C64.6589 2.41468 64.8206 2.90021 64.8829 3.44795C64.9078 3.75917 64.9078 4.09528 64.8704 4.41895L64.833 4.70524C64.6712 5.87542 64.2108 6.80909 63.4514 7.51866C62.692 8.22824 61.7706 8.57681 60.7 8.57681H58.2352V8.58927ZM60.9987 1.95409L60.0776 7.26967H60.7498C61.4843 7.26967 62.0821 6.99581 62.5302 6.46051C62.9784 5.92522 63.2396 5.10362 63.3019 4.02058L63.3143 3.84628C63.3268 3.24874 63.2147 2.78816 62.9657 2.46449C62.7168 2.14083 62.3684 1.979 61.8829 1.96655L60.9987 1.95409Z" fill="#4E4E4E"/>
<path d="M68.0699 8.70106C67.547 8.70106 67.0988 8.57657 66.7004 8.31515C66.302 8.06618 66.0033 7.71759 65.8041 7.28189C65.6049 6.84618 65.5303 6.36068 65.5801 5.83783L65.5926 5.61377C65.6424 5.04113 65.8165 4.50583 66.0904 4.02033C66.3643 3.53483 66.7254 3.1738 67.1736 2.91238C67.6093 2.65096 68.1072 2.52649 68.6425 2.53893C69.4018 2.55138 69.9868 2.83769 70.3727 3.38544C70.7586 3.93318 70.9081 4.61788 70.821 5.46439L70.7338 6.13663H67.1113C67.0989 6.52254 67.186 6.82129 67.3851 7.05782C67.5843 7.2819 67.8581 7.40639 68.2066 7.41884C68.7668 7.43129 69.265 7.21967 69.6883 6.75906L70.3976 7.63045C70.1735 7.96656 69.8499 8.22799 69.439 8.41472C69.0033 8.6139 68.5429 8.70106 68.0699 8.70106ZM68.5552 3.83361C68.2689 3.82116 68.0201 3.92074 67.796 4.09502C67.572 4.28175 67.3728 4.60542 67.1985 5.06602H69.3272L69.3646 4.9291C69.3895 4.77972 69.3895 4.64276 69.3646 4.51827C69.3272 4.30665 69.2398 4.14482 69.0904 4.02033C68.9535 3.89585 68.7793 3.83361 68.5552 3.83361Z" fill="#4E4E4E"/>
<path d="M76.8708 5.63903C76.7961 6.26147 76.6344 6.80923 76.3855 7.29473C76.1365 7.78023 75.8253 8.12878 75.4643 8.3653C75.1033 8.60183 74.6925 8.71389 74.2443 8.70144C73.6717 8.68899 73.2234 8.47735 72.8873 8.06655L72.3396 10.8675H70.796L72.215 2.67627H73.6344L73.5347 3.27379C73.9579 2.78829 74.4683 2.56421 75.0409 2.57666C75.6136 2.58911 76.0743 2.80075 76.3855 3.21156C76.7091 3.62237 76.8833 4.17009 76.8958 4.86722C76.9082 5.0664 76.8957 5.34026 76.8708 5.63903ZM75.3397 5.527L75.3771 5.00417C75.3895 4.65561 75.3149 4.36926 75.178 4.15763C75.0411 3.94601 74.8419 3.84644 74.5805 3.83399C74.1323 3.82155 73.7587 4.00827 73.4724 4.40662L73.0244 6.84656C73.1613 7.22002 73.4476 7.40678 73.8957 7.41923C74.2692 7.43167 74.5804 7.28228 74.8294 6.98351C75.0784 6.68474 75.2401 6.21168 75.3397 5.527Z" fill="#4E4E4E"/>
<path d="M80.7424 2.56406C81.2653 2.5765 81.7135 2.701 82.087 2.96242C82.4604 3.22385 82.7467 3.58485 82.9209 4.04545C83.0952 4.50606 83.1573 5.01645 83.1076 5.5642C83.0204 6.5103 82.697 7.26969 82.1244 7.84233C81.5517 8.42742 80.8419 8.71373 80.0078 8.68883C79.4974 8.67638 79.0495 8.55189 78.676 8.29047C78.3026 8.02904 78.0285 7.6805 77.8418 7.2199C77.655 6.75929 77.6054 6.26132 77.6552 5.71358C77.7548 4.73013 78.0785 3.95832 78.6511 3.38567C79.2238 2.81303 79.9208 2.53916 80.7424 2.56406ZM79.1863 6.27378C79.1988 6.62235 79.2734 6.89623 79.4352 7.10786C79.5971 7.31949 79.8087 7.41908 80.0951 7.41908C80.5681 7.43153 80.9418 7.21988 81.2156 6.77172C81.4895 6.32357 81.6137 5.72605 81.5888 5.00403C81.5764 4.65547 81.4893 4.36913 81.3399 4.16995C81.1906 3.95832 80.9664 3.85872 80.6801 3.84627C80.2195 3.83382 79.8586 4.04547 79.5723 4.49363C79.286 4.92933 79.1614 5.52686 79.1863 6.27378Z" fill="#4E4E4E"/>
<path d="M86.6806 1.20703L86.4192 2.66355H87.4027L87.2033 3.82127H86.2198L85.722 6.78406C85.6971 6.97079 85.7096 7.10773 85.7718 7.20731C85.8216 7.3069 85.9462 7.35671 86.1453 7.36915C86.2076 7.36915 86.3568 7.36917 86.6183 7.34427L86.5064 8.55176C86.2325 8.6389 85.9335 8.6887 85.6223 8.67625C85.1119 8.6638 84.7385 8.51441 84.4896 8.2032C84.2406 7.89198 84.141 7.46875 84.1784 6.9459L84.6886 3.82127H83.8547L84.0537 2.66355H84.888L85.1369 1.20703H86.6806Z" fill="#4E4E4E"/>
<path d="M95.3947 5.1292H92.3448L91.9713 7.25795H95.5564L95.3324 8.57751H90.1414L91.523 0.610352H96.7018L96.4654 1.94233H92.8925L92.5563 3.83456H95.6187L95.3947 5.1292Z" fill="#4E4E4E"/>
<path d="M98.6934 7.4315C98.9797 7.44395 99.2163 7.35681 99.403 7.19498C99.5898 7.03314 99.7143 6.82153 99.7766 6.54766H101.221C101.196 6.95846 101.071 7.33192 100.835 7.66803C100.598 8.00415 100.287 8.25312 99.8887 8.43985C99.5028 8.62658 99.0795 8.71375 98.6438 8.7013C97.9218 8.68885 97.3615 8.43987 96.9382 7.95437C96.515 7.46887 96.3158 6.82151 96.3282 6.02479L96.3407 5.72604V5.66381C96.4403 4.70526 96.764 3.93344 97.3117 3.37325C97.8595 2.81306 98.544 2.53916 99.3532 2.56406C100.025 2.57651 100.548 2.80058 100.947 3.22384C101.345 3.64709 101.532 4.19487 101.519 4.892H100.075C100.075 4.58078 100.001 4.31935 99.8638 4.14507C99.7269 3.95834 99.5152 3.87117 99.2414 3.84627C98.5069 3.82137 98.0586 4.35669 97.8968 5.46463C97.847 5.86298 97.822 6.1991 97.8345 6.47297C97.9092 7.0954 98.183 7.41906 98.6934 7.4315Z" fill="#4E4E4E"/>
<path d="M105.216 2.56406C105.739 2.5765 106.188 2.701 106.561 2.96242C106.934 3.22385 107.221 3.58485 107.395 4.04545C107.569 4.50606 107.632 5.01645 107.582 5.5642C107.495 6.5103 107.171 7.26969 106.598 7.84233C106.026 8.42742 105.316 8.71373 104.482 8.68883C103.972 8.67638 103.524 8.55189 103.15 8.29047C102.777 8.02904 102.503 7.6805 102.316 7.2199C102.129 6.75929 102.079 6.26132 102.129 5.71358C102.229 4.73013 102.553 3.95832 103.125 3.38567C103.698 2.81303 104.395 2.53916 105.216 2.56406ZM103.648 6.27378C103.66 6.62235 103.735 6.89623 103.897 7.10786C104.059 7.31949 104.271 7.41908 104.557 7.41908C105.03 7.43153 105.403 7.21988 105.677 6.77172C105.951 6.32357 106.076 5.72605 106.051 5.00403C106.038 4.65547 105.951 4.36913 105.802 4.16995C105.652 3.95832 105.428 3.85872 105.142 3.84627C104.681 3.83382 104.32 4.04547 104.034 4.49363C103.76 4.92933 103.635 5.52686 103.648 6.27378Z" fill="#4E4E4E"/>
<path d="M110.47 2.6642L110.333 3.36132C110.806 2.81358 111.379 2.53972 112.051 2.55216C112.611 2.56461 113.022 2.76378 113.283 3.16214C113.545 3.5605 113.645 4.10822 113.57 4.8178L112.947 8.57733H111.404L112.038 4.79291C112.051 4.65598 112.063 4.51905 112.051 4.40701C112.001 4.03355 111.765 3.84683 111.354 3.83438C110.956 3.82193 110.582 4.00864 110.271 4.39455L109.536 8.57733H107.993L109.026 2.6642H110.47Z" fill="#4E4E4E"/>
<path d="M117.553 2.56406C118.076 2.5765 118.524 2.701 118.898 2.96242C119.271 3.22385 119.558 3.58485 119.732 4.04545C119.906 4.50606 119.968 5.01645 119.918 5.5642C119.831 6.5103 119.508 7.26969 118.935 7.84233C118.362 8.42742 117.653 8.71373 116.819 8.68883C116.308 8.67638 115.86 8.55189 115.487 8.29047C115.113 8.02904 114.839 7.6805 114.653 7.2199C114.466 6.75929 114.416 6.26132 114.466 5.71358C114.566 4.73013 114.889 3.95832 115.462 3.38567C116.034 2.81303 116.732 2.53916 117.553 2.56406ZM115.997 6.27378C116.01 6.62235 116.084 6.89623 116.246 7.10786C116.408 7.31949 116.62 7.41908 116.906 7.41908C117.379 7.43153 117.752 7.21988 118.026 6.77172C118.3 6.32357 118.425 5.72605 118.4 5.00403C118.387 4.65547 118.3 4.36913 118.151 4.16995C118.001 3.95832 117.777 3.85872 117.491 3.84627C117.03 3.83382 116.669 4.04547 116.383 4.49363C116.097 4.92933 115.972 5.52686 115.997 6.27378Z" fill="#4E4E4E"/>
<path d="M122.832 2.66416L122.707 3.33641C123.18 2.80111 123.765 2.53966 124.438 2.56455C124.799 2.577 125.11 2.65171 125.346 2.81354C125.583 2.97538 125.745 3.18699 125.832 3.46086C126.355 2.83843 126.964 2.53968 127.674 2.55213C128.222 2.56458 128.633 2.75129 128.906 3.1123C129.18 3.47331 129.292 3.99617 129.255 4.68085L129.243 4.81777L128.608 8.58976H127.064L127.687 4.80534C127.699 4.66841 127.711 4.5439 127.699 4.43186C127.674 4.04595 127.45 3.84677 127.039 3.84677C126.616 3.84677 126.255 4.07086 125.944 4.51901L125.931 4.6435L125.247 8.58976H123.703L124.325 4.81777C124.338 4.68083 124.35 4.55636 124.338 4.44432C124.313 4.05841 124.089 3.85922 123.691 3.84677C123.305 3.83432 122.943 4.02105 122.632 4.39451L121.898 8.58976H120.354L121.375 2.67663L122.832 2.66416Z" fill="#4E4E4E"/>
<path d="M131.459 8.58956H129.902L130.936 2.67643H132.492L131.459 8.58956ZM131.122 1.17011C131.11 0.921132 131.197 0.721965 131.359 0.560132C131.521 0.398299 131.732 0.323604 131.969 0.323604C132.205 0.311155 132.405 0.385864 132.579 0.535248C132.753 0.684633 132.84 0.883801 132.84 1.10788C132.853 1.33195 132.778 1.53114 132.616 1.69297C132.454 1.86725 132.255 1.95438 131.994 1.95438C131.77 1.96683 131.558 1.89216 131.384 1.74277C131.21 1.60584 131.122 1.40663 131.122 1.17011Z" fill="#4E4E4E"/>
<path d="M135.368 7.4315C135.654 7.44395 135.89 7.35681 136.077 7.19498C136.264 7.03314 136.388 6.82153 136.45 6.54766H137.894C137.869 6.95846 137.745 7.33192 137.509 7.66803C137.272 8.00415 136.961 8.25312 136.563 8.43985C136.177 8.62658 135.753 8.71375 135.318 8.7013C134.596 8.68885 134.035 8.43987 133.612 7.95437C133.189 7.46887 132.99 6.82151 133.002 6.02479L133.015 5.72604V5.66381C133.114 4.70526 133.438 3.93344 133.986 3.37325C134.533 2.81306 135.218 2.53916 136.027 2.56406C136.699 2.57651 137.222 2.80058 137.621 3.22384C138.019 3.64709 138.206 4.19487 138.193 4.892H136.749C136.749 4.58078 136.675 4.31935 136.538 4.14507C136.401 3.95834 136.189 3.87117 135.915 3.84627C135.181 3.82137 134.733 4.35669 134.571 5.46463C134.521 5.86298 134.496 6.1991 134.508 6.47297C134.583 7.0954 134.857 7.41906 135.368 7.4315Z" fill="#4E4E4E"/>
<path d="M141.455 6.48634C141.492 5.81411 141.89 5.22899 142.637 4.70614L143.173 4.35758L142.949 3.85964C142.762 3.39904 142.675 2.98822 142.7 2.63965C142.725 2.2164 142.849 1.84294 143.061 1.51928C143.272 1.19561 143.546 0.934207 143.895 0.759925C144.243 0.585643 144.617 0.498487 145.027 0.510936C145.563 0.523384 145.998 0.697657 146.347 1.04622C146.696 1.38234 146.845 1.81804 146.833 2.32844C146.795 3.01311 146.385 3.62313 145.588 4.14597L144.965 4.55676L145.998 6.10043C146.31 5.66472 146.484 5.19167 146.546 4.69372H147.853C147.779 5.72696 147.43 6.57345 146.795 7.23323L147.716 8.59017H146.061L145.762 8.12954C145.102 8.51544 144.43 8.70219 143.733 8.68974C143.036 8.67729 142.476 8.47811 142.04 8.06731C141.617 7.6565 141.417 7.12122 141.455 6.48634ZM143.857 7.41999C144.168 7.43244 144.555 7.32039 145.003 7.09631L143.832 5.29123L143.696 5.37838C143.31 5.6647 143.086 6.00083 143.036 6.39919C142.998 6.69795 143.048 6.94691 143.21 7.12119C143.372 7.29548 143.583 7.40754 143.857 7.41999ZM144.069 2.62723C144.057 2.71437 144.057 2.8015 144.069 2.88864C144.094 3.08782 144.181 3.32434 144.343 3.62311L144.791 3.34924C145.239 3.07537 145.488 2.76416 145.513 2.42805C145.538 2.24132 145.5 2.09191 145.388 1.97987C145.289 1.85539 145.14 1.79315 144.965 1.79315C144.741 1.79315 144.542 1.86785 144.38 2.02968C144.206 2.19151 144.106 2.3907 144.069 2.62723Z" fill="#4E4E4E"/>
<path d="M155.684 6.46122C155.758 6.02552 155.547 5.68942 155.049 5.46534L153.991 5.04209C152.771 4.49434 152.186 3.74743 152.248 2.78888C152.273 2.34072 152.422 1.9548 152.684 1.60623C152.945 1.25767 153.318 0.996255 153.804 0.797076C154.289 0.597897 154.8 0.510742 155.36 0.510742C156.132 0.523191 156.754 0.759739 157.227 1.19544C157.7 1.6436 157.937 2.22868 157.925 2.9756H156.331C156.344 2.61459 156.269 2.32828 156.095 2.1291C155.92 1.92992 155.647 1.83033 155.273 1.81788C154.912 1.80543 154.588 1.89255 154.327 2.06683C154.053 2.24111 153.891 2.47765 153.841 2.77642C153.767 3.17477 154.041 3.486 154.638 3.72253L155.36 3.9964L155.771 4.18312C156.842 4.71842 157.352 5.46533 157.277 6.42388C157.24 6.89693 157.091 7.2953 156.829 7.64386C156.555 7.97998 156.194 8.24141 155.734 8.42814C155.273 8.61487 154.763 8.702 154.215 8.68955C153.655 8.6771 153.144 8.56505 152.709 8.32853C152.273 8.092 151.937 7.7808 151.7 7.36999C151.489 6.98408 151.389 6.54835 151.401 6.06285H153.007C152.958 6.92181 153.381 7.37 154.277 7.38245C154.663 7.38245 154.987 7.29528 155.236 7.121C155.485 6.94672 155.634 6.74754 155.684 6.46122Z" fill="#4E4E4E"/>
<path d="M161.323 2.56406C161.846 2.5765 162.294 2.701 162.667 2.96242C163.041 3.22385 163.327 3.58485 163.501 4.04545C163.676 4.50606 163.738 5.01645 163.688 5.5642C163.601 6.5103 163.277 7.26969 162.705 7.84233C162.132 8.42742 161.422 8.71373 160.588 8.68883C160.078 8.67638 159.63 8.55189 159.256 8.29047C158.883 8.02904 158.609 7.6805 158.422 7.2199C158.235 6.75929 158.186 6.26132 158.236 5.71358C158.335 4.73013 158.659 3.95832 159.232 3.38567C159.804 2.81303 160.501 2.53916 161.323 2.56406ZM159.767 6.27378C159.779 6.62235 159.854 6.89623 160.016 7.10786C160.177 7.31949 160.389 7.41908 160.675 7.41908C161.148 7.43153 161.522 7.21988 161.796 6.77172C162.07 6.32357 162.194 5.72605 162.169 5.00403C162.157 4.65547 162.07 4.36913 161.92 4.16995C161.771 3.95832 161.547 3.85872 161.261 3.84627C160.8 3.83382 160.439 4.04547 160.153 4.49363C159.866 4.92933 159.742 5.52686 159.767 6.27378Z" fill="#4E4E4E"/>
<path d="M166.726 7.4315C167.012 7.44395 167.248 7.35681 167.435 7.19498C167.622 7.03314 167.746 6.82153 167.809 6.54766H169.253C169.228 6.95846 169.103 7.33192 168.867 7.66803C168.63 8.00415 168.319 8.25312 167.921 8.43985C167.535 8.62658 167.112 8.71375 166.676 8.7013C165.954 8.68885 165.394 8.43987 164.97 7.95437C164.547 7.46887 164.348 6.82151 164.36 6.02479L164.373 5.72604V5.66381C164.472 4.70526 164.796 3.93344 165.344 3.37325C165.892 2.81306 166.576 2.53916 167.386 2.56406C168.058 2.57651 168.581 2.80058 168.979 3.22384C169.377 3.64709 169.564 4.19487 169.552 4.892H168.107C168.107 4.58078 168.033 4.31935 167.896 4.14507C167.759 3.95834 167.547 3.87117 167.273 3.84627C166.539 3.82137 166.091 4.35669 165.929 5.46463C165.879 5.86298 165.854 6.1991 165.867 6.47297C165.942 7.0954 166.215 7.41906 166.726 7.4315Z" fill="#4E4E4E"/>
<path d="M171.493 8.58956H169.937L170.971 2.67643H172.527L171.493 8.58956ZM171.145 1.17011C171.133 0.921132 171.22 0.721965 171.382 0.560132C171.543 0.398299 171.755 0.323604 171.992 0.323604C172.228 0.311155 172.427 0.385864 172.602 0.535248C172.776 0.684633 172.863 0.883801 172.863 1.10788C172.875 1.33195 172.801 1.53114 172.639 1.69297C172.477 1.86725 172.278 1.95438 172.017 1.95438C171.792 1.96683 171.581 1.89216 171.407 1.74277C171.245 1.60584 171.158 1.40663 171.145 1.17011Z" fill="#4E4E4E"/>
<path d="M176.224 8.59013C176.174 8.44074 176.162 8.26643 176.162 8.0548C175.714 8.50296 175.216 8.71461 174.655 8.70216C174.133 8.68971 173.709 8.52788 173.361 8.19176C173.025 7.85565 172.863 7.45727 172.888 6.97177C172.913 6.32444 173.187 5.82649 173.697 5.49038C174.207 5.14181 174.905 4.96755 175.776 4.96755L176.498 4.97997L176.573 4.61899C176.598 4.4945 176.598 4.38247 176.585 4.27043C176.573 4.09615 176.498 3.9592 176.386 3.87206C176.274 3.77247 176.124 3.72268 175.95 3.72268C175.714 3.71023 175.502 3.77246 175.34 3.89694C175.178 4.02143 175.066 4.20816 175.017 4.44469H173.473C173.498 3.8845 173.759 3.42391 174.257 3.0629C174.755 2.71434 175.365 2.54004 176.087 2.54004C176.76 2.55249 177.282 2.75168 177.668 3.13759C178.042 3.5235 178.203 4.02145 178.141 4.61899L177.693 7.45729L177.668 7.80585C177.656 8.06728 177.693 8.2789 177.768 8.46563V8.56521H176.224V8.59013ZM175.041 7.49464C175.49 7.50708 175.875 7.32033 176.212 6.92197L176.398 5.9012H175.863C175.29 5.91365 174.88 6.08791 174.631 6.42403C174.543 6.54851 174.481 6.69792 174.456 6.8722C174.432 7.07138 174.469 7.22077 174.581 7.34526C174.693 7.4324 174.842 7.49464 175.041 7.49464Z" fill="#4E4E4E"/>
<path d="M180.307 8.59037H178.751L180.207 0.1875H181.751L180.307 8.59037Z" fill="#4E4E4E"/>
<path d="M189.158 6.94603H186.382L185.561 8.58927H183.793L188.05 0.62207H189.532L191.051 8.58927H189.42L189.158 6.94603ZM187.042 5.61401H188.959L188.511 2.65121L187.042 5.61401Z" fill="#4E4E4E"/>
<path d="M192.171 8.58979L192.992 3.82191H192.134L192.333 2.66419H193.192L193.266 2.0791C193.366 1.44422 193.615 0.958716 194.038 0.597703C194.461 0.236691 194.997 0.0623924 195.644 0.0748411C195.868 0.0872898 196.142 0.124669 196.478 0.186913L196.341 1.40686C196.167 1.35707 196.018 1.34463 195.881 1.34463C195.607 1.34463 195.37 1.40686 195.183 1.55624C194.984 1.69318 194.872 1.91728 194.822 2.2036L194.735 2.68908H195.881L195.682 3.8468H194.549L193.727 8.61467H192.171V8.58979Z" fill="#4E4E4E"/>
<path d="M196.117 8.58979L196.939 3.82191H196.08L196.279 2.66419H197.138L197.213 2.0791C197.312 1.44422 197.561 0.958716 197.984 0.597703C198.408 0.236691 198.943 0.0623924 199.59 0.0748411C199.814 0.0872898 200.088 0.124669 200.424 0.186913L200.287 1.40686C200.113 1.35707 199.964 1.34463 199.827 1.34463C199.553 1.34463 199.316 1.40686 199.13 1.55624C198.931 1.69318 198.818 1.91728 198.769 2.2036L198.681 2.68908H199.827L199.628 3.8468H198.495L197.673 8.61467H196.117V8.58979Z" fill="#4E4E4E"/>
<path d="M203.076 8.59013C203.026 8.44074 203.014 8.26643 203.014 8.0548C202.566 8.50296 202.068 8.71461 201.507 8.70216C200.985 8.68971 200.561 8.52788 200.213 8.19176C199.877 7.85565 199.715 7.45727 199.74 6.97177C199.765 6.32444 200.038 5.82649 200.549 5.49038C201.059 5.14181 201.756 4.96755 202.628 4.96755L203.35 4.97997L203.425 4.61899C203.449 4.4945 203.449 4.38247 203.437 4.27043C203.425 4.09615 203.35 3.9592 203.238 3.87206C203.126 3.77247 202.976 3.72268 202.802 3.72268C202.566 3.71023 202.354 3.77246 202.192 3.89694C202.03 4.02143 201.918 4.20816 201.868 4.44469H200.325C200.35 3.8845 200.611 3.42391 201.109 3.0629C201.607 2.71434 202.217 2.54004 202.939 2.54004C203.611 2.55249 204.134 2.75168 204.52 3.13759C204.893 3.5235 205.055 4.02145 204.993 4.61899L204.545 7.45729L204.52 7.80585C204.507 8.06728 204.545 8.2789 204.62 8.46563V8.56521H203.076V8.59013ZM201.881 7.49464C202.329 7.50708 202.715 7.32033 203.051 6.92197L203.238 5.9012H202.702C202.13 5.91365 201.719 6.08791 201.47 6.42403C201.383 6.54851 201.321 6.69792 201.296 6.8722C201.271 7.07138 201.308 7.22077 201.42 7.34526C201.545 7.4324 201.694 7.49464 201.881 7.49464Z" fill="#4E4E4E"/>
<path d="M207.159 8.58956H205.603L206.636 2.67643H208.192L207.159 8.58956ZM206.811 1.17011C206.798 0.921132 206.885 0.721965 207.047 0.560132C207.209 0.398299 207.42 0.323604 207.657 0.323604C207.893 0.311155 208.093 0.385864 208.267 0.535248C208.441 0.684633 208.528 0.883801 208.528 1.10788C208.541 1.33195 208.466 1.53114 208.304 1.69297C208.142 1.86725 207.943 1.95438 207.682 1.95438C207.458 1.96683 207.246 1.89216 207.072 1.74277C206.91 1.60584 206.823 1.40663 206.811 1.17011Z" fill="#4E4E4E"/>
<path d="M212.525 4.14449C212.313 4.10714 212.138 4.09468 212.002 4.09468C211.454 4.08223 211.018 4.28141 210.694 4.71712L210.01 8.58868H208.466L209.499 2.67555H210.944L210.807 3.39756C211.18 2.83736 211.641 2.56348 212.188 2.56348C212.338 2.56348 212.524 2.58837 212.724 2.63817L212.525 4.14449Z" fill="#4E4E4E"/>
<path d="M215.923 6.92123C215.985 6.63491 215.774 6.4233 215.313 6.28637L214.815 6.16187C213.632 5.83821 213.06 5.26556 213.097 4.44395C213.11 3.88376 213.358 3.43559 213.844 3.07458C214.317 2.72602 214.89 2.55176 215.562 2.55176C216.234 2.56421 216.77 2.73848 217.18 3.08704C217.591 3.43561 217.803 3.89619 217.815 4.46883H216.284C216.284 3.95843 216.035 3.70947 215.525 3.69702C215.288 3.69702 215.077 3.75925 214.902 3.88374C214.728 4.00823 214.616 4.17008 214.579 4.36926C214.529 4.65558 214.74 4.86721 215.238 4.99169L215.462 5.0415C215.96 5.16599 216.346 5.3029 216.62 5.45229C216.881 5.60167 217.093 5.80084 217.23 6.02492C217.379 6.24899 217.442 6.53532 217.429 6.84654C217.417 7.22 217.292 7.55612 217.068 7.83C216.832 8.11632 216.521 8.32793 216.122 8.47731C215.724 8.6267 215.288 8.70141 214.852 8.68896C214.193 8.67651 213.645 8.48979 213.209 8.11633C212.773 7.74287 212.55 7.26979 212.537 6.6847L213.994 6.69716C214.006 7.25735 214.305 7.54367 214.902 7.55612C215.189 7.55612 215.425 7.4939 215.612 7.38186C215.774 7.26982 215.886 7.12041 215.923 6.92123Z" fill="#4E4E4E"/>
<path d="M218.276 10.5814L217.454 10.1332L217.852 9.49833C218.089 9.11242 218.238 8.73895 218.301 8.40284L218.5 7.24512H219.807L219.645 8.25346C219.508 9.18711 219.048 9.97137 218.276 10.5814Z" fill="#4E4E4E"/>
<path d="M225.795 5.77656L225.297 8.57751H223.691L225.073 0.610352H227.861C228.72 0.610352 229.393 0.84686 229.89 1.33236C230.376 1.80541 230.6 2.42785 230.538 3.19966C230.476 3.98393 230.152 4.60637 229.567 5.06697C228.969 5.54002 228.222 5.76409 227.301 5.76409L225.795 5.77656ZM226.019 4.457L227.351 4.46942C227.787 4.46942 228.135 4.35739 228.422 4.13332C228.708 3.90924 228.882 3.61047 228.932 3.23701C228.982 2.86355 228.932 2.55232 228.745 2.32824C228.571 2.10416 228.309 1.9797 227.961 1.96726H226.455L226.019 4.457Z" fill="#4E4E4E"/>
<path d="M233.974 2.56406C234.496 2.5765 234.944 2.701 235.318 2.96242C235.691 3.22385 235.978 3.58485 236.152 4.04545C236.326 4.50606 236.388 5.01645 236.339 5.5642C236.252 6.5103 235.928 7.26969 235.355 7.84233C234.783 8.42742 234.073 8.71373 233.239 8.68883C232.729 8.67638 232.28 8.55189 231.907 8.29047C231.533 8.02904 231.26 7.6805 231.073 7.2199C230.886 6.75929 230.837 6.26132 230.886 5.71358C230.986 4.73013 231.309 3.95832 231.882 3.38567C232.455 2.81303 233.152 2.53916 233.974 2.56406ZM232.417 6.27378C232.43 6.62235 232.505 6.89623 232.666 7.10786C232.828 7.31949 233.04 7.41908 233.326 7.41908C233.799 7.43153 234.173 7.21988 234.446 6.77172C234.72 6.32357 234.845 5.72605 234.82 5.00403C234.808 4.65547 234.72 4.36913 234.571 4.16995C234.422 3.95832 234.198 3.85872 233.911 3.84627C233.451 3.83382 233.089 4.04547 232.803 4.49363C232.517 4.92933 232.393 5.52686 232.417 6.27378Z" fill="#4E4E4E"/>
<path d="M242.476 5.63903C242.401 6.26147 242.24 6.80923 241.991 7.29473C241.742 7.78023 241.43 8.12878 241.069 8.3653C240.708 8.60183 240.298 8.71389 239.849 8.70144C239.277 8.68899 238.829 8.47735 238.492 8.06655L237.945 10.8675H236.401L237.82 2.67627H239.239L239.14 3.27379C239.563 2.78829 240.073 2.56421 240.646 2.57666C241.219 2.58911 241.679 2.80075 241.991 3.21156C242.314 3.62237 242.488 4.17009 242.501 4.86722C242.513 5.0664 242.501 5.34026 242.476 5.63903ZM240.945 5.527L240.982 5.00417C240.995 4.65561 240.92 4.36926 240.783 4.15763C240.646 3.94601 240.447 3.84644 240.186 3.83399C239.737 3.82155 239.364 4.00827 239.077 4.40662L238.629 6.84656C238.766 7.22002 239.053 7.40678 239.501 7.41923C239.874 7.43167 240.186 7.28228 240.434 6.98351C240.683 6.68474 240.845 6.21168 240.945 5.527Z" fill="#4E4E4E"/>
<path d="M246.621 7.97964C246.186 8.47759 245.638 8.71414 244.991 8.70169C244.418 8.68924 243.995 8.49004 243.696 8.09168C243.397 7.69332 243.285 7.15804 243.36 6.51071L243.995 2.67652H245.539L244.891 6.52317C244.879 6.64765 244.879 6.75968 244.891 6.85927C244.929 7.22028 245.128 7.40703 245.501 7.41948C245.974 7.43192 246.373 7.24519 246.684 6.87173L247.418 2.66406H248.974L247.941 8.5772H246.497L246.621 7.97964Z" fill="#4E4E4E"/>
<path d="M250.73 8.59037H249.174L250.63 0.1875H252.174L250.73 8.59037Z" fill="#4E4E4E"/>
<path d="M255.46 8.59013C255.411 8.44074 255.398 8.26643 255.398 8.0548C254.95 8.50296 254.452 8.71461 253.892 8.70216C253.369 8.68971 252.946 8.52788 252.597 8.19176C252.261 7.85565 252.099 7.45727 252.124 6.97177C252.149 6.32444 252.423 5.82649 252.933 5.49038C253.444 5.14181 254.141 4.96755 255.012 4.96755L255.734 4.97997L255.809 4.61899C255.834 4.4945 255.834 4.38247 255.821 4.27043C255.809 4.09615 255.734 3.9592 255.622 3.87206C255.51 3.77247 255.361 3.72268 255.186 3.72268C254.95 3.71023 254.738 3.77246 254.576 3.89694C254.414 4.02143 254.303 4.20816 254.253 4.44469H252.709C252.734 3.8845 252.995 3.42391 253.493 3.0629C253.991 2.71434 254.601 2.54004 255.323 2.54004C255.995 2.55249 256.518 2.75168 256.904 3.13759C257.278 3.5235 257.439 4.02145 257.377 4.61899L256.929 7.45729L256.904 7.80585C256.892 8.06728 256.929 8.2789 257.004 8.46563V8.56521H255.46V8.59013ZM254.277 7.49464C254.726 7.50708 255.112 7.32033 255.448 6.92197L255.634 5.9012H255.099C254.527 5.91365 254.116 6.08791 253.867 6.42403C253.78 6.54851 253.717 6.69792 253.692 6.8722C253.667 7.07138 253.705 7.22077 253.817 7.34526C253.929 7.4324 254.078 7.49464 254.277 7.49464Z" fill="#4E4E4E"/>
<path d="M261.05 1.20703L260.788 2.66355H261.771L261.572 3.82127H260.589L260.091 6.78406C260.066 6.97079 260.079 7.10773 260.141 7.20731C260.191 7.3069 260.315 7.35671 260.514 7.36915C260.576 7.36915 260.726 7.36917 260.987 7.34427L260.875 8.55176C260.601 8.6389 260.303 8.6887 259.991 8.67625C259.481 8.6638 259.108 8.51441 258.859 8.2032C258.61 7.89198 258.51 7.46875 258.547 6.9459L259.058 3.82127H258.224L258.423 2.66355H259.257L259.506 1.20703H261.05Z" fill="#4E4E4E"/>
<path d="M263.266 8.58956H261.709L262.743 2.67643H264.299L263.266 8.58956ZM262.929 1.17011C262.917 0.921132 263.004 0.721965 263.166 0.560132C263.328 0.398299 263.539 0.323604 263.776 0.323604C264.012 0.311155 264.212 0.385864 264.386 0.535248C264.56 0.684633 264.647 0.883801 264.647 1.10788C264.66 1.33195 264.585 1.53114 264.423 1.69297C264.261 1.86725 264.062 1.95438 263.801 1.95438C263.577 1.96683 263.365 1.89216 263.191 1.74277C263.029 1.60584 262.929 1.40663 262.929 1.17011Z" fill="#4E4E4E"/>
<path d="M267.958 2.56406C268.481 2.5765 268.929 2.701 269.303 2.96242C269.676 3.22385 269.963 3.58485 270.137 4.04545C270.311 4.50606 270.373 5.01645 270.324 5.5642C270.237 6.5103 269.913 7.26969 269.34 7.84233C268.768 8.42742 268.058 8.71373 267.224 8.68883C266.714 8.67638 266.265 8.55189 265.892 8.29047C265.518 8.02904 265.245 7.6805 265.058 7.2199C264.871 6.75929 264.821 6.26132 264.871 5.71358C264.971 4.73013 265.294 3.95832 265.867 3.38567C266.44 2.81303 267.137 2.53916 267.958 2.56406ZM266.402 6.27378C266.415 6.62235 266.49 6.89623 266.651 7.10786C266.813 7.31949 267.025 7.41908 267.311 7.41908C267.784 7.43153 268.158 7.21988 268.431 6.77172C268.705 6.32357 268.83 5.72605 268.805 5.00403C268.793 4.65547 268.705 4.36913 268.556 4.16995C268.407 3.95832 268.183 3.85872 267.896 3.84627C267.436 3.83382 267.074 4.04547 266.788 4.49363C266.514 4.92933 266.377 5.52686 266.402 6.27378Z" fill="#4E4E4E"/>
<path d="M273.212 2.6642L273.075 3.36132C273.548 2.81358 274.121 2.53972 274.793 2.55216C275.353 2.56461 275.764 2.76378 276.025 3.16214C276.287 3.5605 276.386 4.10822 276.312 4.8178L275.689 8.57733H274.146L274.781 4.79291C274.793 4.65598 274.805 4.51905 274.793 4.40701C274.743 4.03355 274.507 3.84683 274.096 3.83438C273.697 3.82193 273.324 4.00864 273.013 4.39455L272.278 8.57733H270.735L271.768 2.6642H273.212Z" fill="#4E4E4E"/>
<path d="M279.785 8.58927L281.167 0.62207H283.457C283.993 0.634519 284.478 0.759017 284.901 0.983093C285.324 1.21962 285.673 1.54327 285.947 1.97897C286.208 2.41468 286.37 2.90021 286.432 3.44795C286.457 3.75917 286.457 4.09528 286.42 4.41895L286.383 4.70524C286.221 5.87542 285.76 6.80909 285.001 7.51866C284.242 8.22824 283.32 8.57681 282.25 8.57681H279.785V8.58927ZM282.536 1.95409L281.615 7.26967H282.287C283.021 7.26967 283.619 6.99581 284.067 6.46051C284.515 5.92522 284.777 5.10362 284.839 4.02058L284.851 3.84628C284.864 3.24874 284.752 2.78816 284.503 2.46449C284.254 2.14083 283.905 1.979 283.42 1.96655L282.536 1.95409Z" fill="#4E4E4E"/>
<path d="M288.424 8.58956H286.868L287.901 2.67643H289.457L288.424 8.58956ZM288.088 1.17011C288.076 0.921132 288.163 0.721965 288.325 0.560132C288.486 0.398299 288.698 0.323604 288.935 0.323604C289.171 0.311155 289.37 0.385864 289.545 0.535248C289.719 0.684633 289.806 0.883801 289.806 1.10788C289.818 1.33195 289.744 1.53114 289.582 1.69297C289.42 1.86725 289.221 1.95438 288.959 1.95438C288.735 1.96683 288.524 1.89216 288.349 1.74277C288.188 1.60584 288.088 1.40663 288.088 1.17011Z" fill="#4E4E4E"/>
<path d="M292.233 6.6352L293.914 2.66406H295.582L292.719 8.5772H291.238L290.229 2.66406H291.798L292.233 6.6352Z" fill="#4E4E4E"/>
<path d="M294.524 10.5814L293.703 10.1332L294.101 9.49833C294.337 9.11242 294.487 8.73895 294.549 8.40284L294.748 7.24512H296.055L295.893 8.25346C295.757 9.18711 295.296 9.97137 294.524 10.5814Z" fill="#4E4E4E"/>
<path d="M302.205 0L302.939 0.448173C302.778 0.697147 302.628 0.946129 302.491 1.1951C302.355 1.44408 302.267 1.73038 302.205 2.02914L302.068 2.85076H300.848L300.96 2.12876C301.084 1.28224 301.508 0.57264 302.205 0ZM304.023 0L304.757 0.448173C304.595 0.697147 304.446 0.946129 304.309 1.1951C304.172 1.44408 304.085 1.73038 304.023 2.02914L303.886 2.85076H302.666L302.778 2.12876C302.902 1.28224 303.325 0.57264 304.023 0Z" fill="#4E4E4E"/>
<path d="M310.832 6.27379L312.749 0.62207H314.38L311.417 8.58927H309.799L309.375 3.28611L307.296 8.58927H305.678L305.205 0.62207H306.774L306.935 6.24891L309.076 0.62207H310.433L310.832 6.27379Z" fill="#4E4E4E"/>
<path d="M317.081 2.56406C317.604 2.5765 318.052 2.701 318.425 2.96242C318.799 3.22385 319.085 3.58485 319.26 4.04545C319.434 4.50606 319.496 5.01645 319.446 5.5642C319.359 6.5103 319.036 7.26969 318.463 7.84233C317.89 8.42742 317.181 8.71373 316.347 8.68883C315.836 8.67638 315.388 8.55189 315.015 8.29047C314.641 8.02904 314.367 7.6805 314.181 7.2199C313.994 6.75929 313.944 6.26132 313.994 5.71358C314.094 4.73013 314.417 3.95832 314.99 3.38567C315.562 2.81303 316.26 2.53916 317.081 2.56406ZM315.525 6.27378C315.538 6.62235 315.612 6.89623 315.774 7.10786C315.936 7.31949 316.148 7.41908 316.434 7.41908C316.907 7.43153 317.28 7.21988 317.554 6.77172C317.828 6.32357 317.953 5.72605 317.928 5.00403C317.915 4.65547 317.828 4.36913 317.679 4.16995C317.529 3.95832 317.305 3.85872 317.019 3.84627C316.558 3.83382 316.197 4.04547 315.911 4.49363C315.624 4.92933 315.5 5.52686 315.525 6.27378Z" fill="#4E4E4E"/>
<path d="M323.94 4.14449C323.729 4.10714 323.554 4.09468 323.417 4.09468C322.87 4.08223 322.434 4.28141 322.11 4.71712L321.426 8.58868H319.882L320.915 2.67555H322.359L322.222 3.39756C322.596 2.83736 323.057 2.56348 323.604 2.56348C323.754 2.56348 323.94 2.58837 324.14 2.63817L323.94 4.14449Z" fill="#4E4E4E"/>
<path d="M325.546 8.59037H323.99L325.447 0.1875H326.99L325.546 8.59037Z" fill="#4E4E4E"/>
<path d="M329.791 2.55275C330.339 2.56519 330.787 2.78927 331.123 3.21253L331.708 0.1875H333.252L331.795 8.59037H330.414L330.501 7.95548C330.053 8.46587 329.542 8.71486 328.957 8.70241C328.584 8.70241 328.273 8.6028 327.986 8.41607C327.7 8.22934 327.501 7.95547 327.339 7.59445C327.19 7.23344 327.102 6.84754 327.09 6.39939C327.077 6.17531 327.09 5.95123 327.102 5.72715L327.14 5.4782C327.227 4.86821 327.401 4.34533 327.65 3.88473C327.899 3.42413 328.21 3.08804 328.571 2.86396C328.945 2.65234 329.343 2.5403 329.791 2.55275ZM328.671 5.73961C328.646 6.01348 328.633 6.25 328.646 6.43673C328.683 7.08407 328.945 7.40774 329.418 7.42019C329.854 7.43264 330.227 7.23344 330.551 6.81018L330.974 4.4574C330.837 4.07149 330.551 3.85983 330.115 3.84738C329.742 3.83493 329.43 3.98433 329.181 4.2831C328.932 4.56942 328.758 5.06738 328.671 5.73961Z" fill="#4E4E4E"/>
<path d="M337.982 5.77656L337.485 8.57751H335.879L337.261 0.610352H340.049C340.908 0.610352 341.58 0.84686 342.078 1.33236C342.564 1.80541 342.788 2.42785 342.725 3.19966C342.663 3.98393 342.34 4.60637 341.754 5.06697C341.157 5.54002 340.41 5.76409 339.489 5.76409L337.982 5.77656ZM338.207 4.457L339.539 4.46942C339.974 4.46942 340.323 4.35739 340.609 4.13332C340.896 3.90924 341.07 3.61047 341.12 3.23701C341.169 2.86355 341.12 2.55232 340.933 2.32824C340.759 2.10416 340.497 1.9797 340.149 1.96726H338.642L338.207 4.457Z" fill="#4E4E4E"/>
<path d="M346.174 2.56406C346.696 2.5765 347.145 2.701 347.518 2.96242C347.892 3.22385 348.178 3.58485 348.352 4.04545C348.526 4.50606 348.589 5.01645 348.539 5.5642C348.452 6.5103 348.128 7.26969 347.556 7.84233C346.983 8.42742 346.273 8.71373 345.439 8.68883C344.929 8.67638 344.481 8.55189 344.107 8.29047C343.734 8.02904 343.46 7.6805 343.273 7.2199C343.086 6.75929 343.037 6.26132 343.086 5.71358C343.186 4.73013 343.51 3.95832 344.082 3.38567C344.655 2.81303 345.34 2.53916 346.174 2.56406ZM344.605 6.27378C344.618 6.62235 344.692 6.89623 344.854 7.10786C345.016 7.31949 345.227 7.41908 345.514 7.41908C345.987 7.43153 346.361 7.21988 346.634 6.77172C346.908 6.32357 347.032 5.72605 347.008 5.00403C346.995 4.65547 346.908 4.36913 346.759 4.16995C346.609 3.95832 346.385 3.85872 346.099 3.84627C345.638 3.83382 345.277 4.04547 344.991 4.49363C344.717 4.92933 344.58 5.52686 344.605 6.27378Z" fill="#4E4E4E"/>
<path d="M354.664 5.63903C354.589 6.26147 354.427 6.80923 354.178 7.29473C353.929 7.78023 353.618 8.12878 353.257 8.3653C352.896 8.60183 352.485 8.71389 352.037 8.70144C351.464 8.68899 351.016 8.47735 350.68 8.06655L350.132 10.8675H348.589L350.008 2.67627H351.427L351.328 3.27379C351.751 2.78829 352.261 2.56421 352.834 2.57666C353.406 2.58911 353.867 2.80075 354.178 3.21156C354.502 3.62237 354.676 4.17009 354.689 4.86722C354.701 5.0664 354.689 5.34026 354.664 5.63903ZM353.133 5.527L353.17 5.00417C353.182 4.65561 353.108 4.36926 352.971 4.15763C352.834 3.94601 352.634 3.84644 352.373 3.83399C351.925 3.82155 351.552 4.00827 351.265 4.40662L350.817 6.84656C350.954 7.22002 351.24 7.40678 351.688 7.41923C352.062 7.43167 352.373 7.28228 352.622 6.98351C352.871 6.68474 353.033 6.21168 353.133 5.527Z" fill="#4E4E4E"/>
<path d="M358.809 7.97964C358.374 8.47759 357.826 8.71414 357.178 8.70169C356.606 8.68924 356.182 8.49004 355.884 8.09168C355.585 7.69332 355.473 7.15804 355.548 6.51071L356.182 2.67652H357.726L357.079 6.52317C357.066 6.64765 357.066 6.75968 357.079 6.85927C357.116 7.22028 357.315 7.40703 357.689 7.41948C358.162 7.43192 358.56 7.24519 358.871 6.87173L359.606 2.66406H361.162L360.129 8.5772H358.685L358.809 7.97964Z" fill="#4E4E4E"/>
<path d="M362.917 8.59037H361.361L362.818 0.1875H364.361L362.917 8.59037Z" fill="#4E4E4E"/>
<path d="M367.648 8.59013C367.598 8.44074 367.585 8.26643 367.585 8.0548C367.137 8.50296 366.639 8.71461 366.079 8.70216C365.556 8.68971 365.133 8.52788 364.784 8.19176C364.448 7.85565 364.287 7.45727 364.312 6.97177C364.336 6.32444 364.61 5.82649 365.121 5.49038C365.631 5.14181 366.328 4.96755 367.2 4.96755L367.922 4.97997L367.996 4.61899C368.021 4.4945 368.021 4.38247 368.009 4.27043C367.996 4.09615 367.922 3.9592 367.81 3.87206C367.698 3.77247 367.548 3.72268 367.374 3.72268C367.137 3.71023 366.926 3.77246 366.764 3.89694C366.602 4.02143 366.49 4.20816 366.44 4.44469H364.897C364.922 3.8845 365.183 3.42391 365.681 3.0629C366.179 2.71434 366.789 2.54004 367.511 2.54004C368.183 2.55249 368.706 2.75168 369.092 3.13759C369.465 3.5235 369.627 4.02145 369.565 4.61899L369.117 7.45729L369.092 7.80585C369.08 8.06728 369.117 8.2789 369.191 8.46563V8.56521H367.648V8.59013ZM366.465 7.49464C366.913 7.50708 367.299 7.32033 367.635 6.92197L367.822 5.9012H367.287C366.714 5.91365 366.303 6.08791 366.054 6.42403C365.967 6.54851 365.905 6.69792 365.88 6.8722C365.855 7.07138 365.892 7.22077 366.004 7.34526C366.116 7.4324 366.266 7.49464 366.465 7.49464Z" fill="#4E4E4E"/>
<path d="M373.237 1.20703L372.976 2.66355H373.959L373.76 3.82127H372.777L372.279 6.78406C372.254 6.97079 372.266 7.10773 372.328 7.20731C372.378 7.3069 372.503 7.35671 372.702 7.36915C372.764 7.36915 372.913 7.36917 373.175 7.34427L373.063 8.55176C372.789 8.6389 372.49 8.6887 372.179 8.67625C371.669 8.6638 371.295 8.51441 371.046 8.2032C370.797 7.89198 370.698 7.46875 370.735 6.9459L371.246 3.82127H370.411L370.611 2.66355H371.445L371.694 1.20703H373.237Z" fill="#4E4E4E"/>
<path d="M375.466 8.58956H373.909L374.943 2.67643H376.499L375.466 8.58956ZM375.117 1.17011C375.104 0.921132 375.192 0.721965 375.353 0.560132C375.515 0.398299 375.727 0.323604 375.963 0.323604C376.2 0.311155 376.399 0.385864 376.573 0.535248C376.748 0.684633 376.835 0.883801 376.835 1.10788C376.847 1.33195 376.773 1.53114 376.611 1.69297C376.449 1.86725 376.25 1.95438 375.988 1.95438C375.764 1.96683 375.553 1.89216 375.378 1.74277C375.216 1.60584 375.129 1.40663 375.117 1.17011Z" fill="#4E4E4E"/>
<path d="M380.159 2.56406C380.681 2.5765 381.13 2.701 381.503 2.96242C381.877 3.22385 382.163 3.58485 382.337 4.04545C382.511 4.50606 382.574 5.01645 382.524 5.5642C382.437 6.5103 382.113 7.26969 381.541 7.84233C380.968 8.42742 380.258 8.71373 379.424 8.68883C378.914 8.67638 378.466 8.55189 378.092 8.29047C377.719 8.02904 377.445 7.6805 377.258 7.2199C377.071 6.75929 377.022 6.26132 377.071 5.71358C377.171 4.73013 377.495 3.95832 378.067 3.38567C378.64 2.81303 379.337 2.53916 380.159 2.56406ZM378.59 6.27378C378.603 6.62235 378.677 6.89623 378.839 7.10786C379.001 7.31949 379.212 7.41908 379.499 7.41908C379.972 7.43153 380.345 7.21988 380.619 6.77172C380.893 6.32357 381.017 5.72605 380.993 5.00403C380.98 4.65547 380.893 4.36913 380.744 4.16995C380.594 3.95832 380.37 3.85872 380.084 3.84627C379.623 3.83382 379.262 4.04547 378.976 4.49363C378.702 4.92933 378.578 5.52686 378.59 6.27378Z" fill="#4E4E4E"/>
<path d="M385.412 2.6642L385.275 3.36132C385.748 2.81358 386.321 2.53972 386.993 2.55216C387.553 2.56461 387.964 2.76378 388.226 3.16214C388.487 3.5605 388.587 4.10822 388.512 4.8178L387.889 8.57733H386.346L386.981 4.79291C386.993 4.65598 387.006 4.51905 386.993 4.40701C386.943 4.03355 386.707 3.84683 386.296 3.83438C385.898 3.82193 385.524 4.00864 385.213 4.39455L384.478 8.57733H382.935L383.968 2.6642H385.412Z" fill="#4E4E4E"/>
<path d="M2.10406 19.2209L1.60593 22.0218H0L1.38194 14.0547H4.17044C5.0294 14.0547 5.71423 14.2912 6.19973 14.7767C6.68523 15.2622 6.90903 15.8722 6.84679 16.644C6.78454 17.4283 6.46113 18.0507 5.86359 18.5113C5.26606 18.9844 4.51905 19.2085 3.59785 19.2085L2.10406 19.2209ZM2.32805 17.9013L3.66015 17.9138C4.09585 17.9138 4.44425 17.8017 4.73057 17.5777C5.01689 17.3536 5.17892 17.0548 5.24116 16.6814C5.3034 16.3079 5.24098 15.9967 5.05425 15.7726C4.87996 15.5485 4.61869 15.424 4.27012 15.4116H2.76388L2.32805 17.9013Z" fill="#4E4E4E"/>
<path d="M11.0297 17.5907C10.818 17.5534 10.6439 17.5409 10.5069 17.5409C9.95917 17.5285 9.52341 17.7277 9.19974 18.1634L8.515 22.0349H6.97137L8.00471 16.1218H9.46111L9.32435 16.8438C9.69781 16.2836 10.1582 16.0098 10.706 16.0098C10.8554 16.0098 11.042 16.0347 11.2412 16.0845L11.0297 17.5907Z" fill="#4E4E4E"/>
<path d="M14.1792 16.0103C14.7021 16.0228 15.1503 16.1473 15.5238 16.4087C15.8972 16.6701 16.1835 17.0311 16.3577 17.4917C16.532 17.9523 16.5941 18.4627 16.5444 19.0105C16.4572 19.9566 16.1335 20.7159 15.5609 21.2886C14.9882 21.8737 14.2911 22.16 13.4446 22.1351C12.9342 22.1226 12.4863 21.9982 12.1128 21.7368C11.7394 21.4753 11.4653 21.1267 11.2786 20.6661C11.0918 20.2055 11.0297 19.7076 11.092 19.1599C11.1916 18.1764 11.5153 17.4046 12.0879 16.832C12.6606 16.2593 13.3576 15.9854 14.1792 16.0103ZM12.6231 19.72C12.6356 20.0686 12.7102 20.3425 12.872 20.5541C13.0339 20.7657 13.2455 20.8653 13.5319 20.8653C14.0049 20.8778 14.3783 20.6662 14.6521 20.218C14.926 19.7699 15.0505 19.1723 15.0256 18.4503C15.0132 18.1017 14.9261 17.8154 14.7767 17.6162C14.6273 17.4046 14.4032 17.305 14.1169 17.2926C13.6563 17.2801 13.2954 17.4917 13.0091 17.9399C12.7228 18.3756 12.5982 18.9731 12.6231 19.72Z" fill="#4E4E4E"/>
<path d="M20.4285 20.3676C20.4907 20.0812 20.2791 19.8696 19.8185 19.7327L19.3204 19.6082C18.1378 19.2845 17.5653 18.7119 17.6026 17.8902C17.6151 17.33 17.8642 16.8819 18.3497 16.5209C18.8227 16.1723 19.3952 15.998 20.0674 15.998C20.7397 16.0105 21.275 16.1848 21.6858 16.5333C22.0966 16.8819 22.3083 17.3425 22.3083 17.9152H20.7771C20.7895 17.4048 20.528 17.1558 20.0176 17.1433C19.7811 17.1433 19.5694 17.2056 19.3952 17.3301C19.2209 17.4546 19.1088 17.6164 19.0715 17.8155C19.0217 18.1019 19.2333 18.3135 19.7313 18.438L19.9553 18.4878C20.4532 18.6123 20.8394 18.7492 21.1132 18.8986C21.3747 19.048 21.5863 19.2472 21.7357 19.4712C21.885 19.6953 21.9472 19.9816 21.9347 20.2929C21.9223 20.6663 21.7978 21.0024 21.5737 21.2763C21.3371 21.5626 21.0259 21.7743 20.6276 21.9236C20.2292 22.073 19.7935 22.1477 19.3578 22.1352C18.698 22.1228 18.1505 21.9361 17.7148 21.5626C17.2791 21.1892 17.0549 20.7161 17.0425 20.131L18.4989 20.1435C18.5113 20.7037 18.8101 20.99 19.4076 21.0024C19.6939 21.0024 19.9305 20.9402 20.1173 20.8281C20.2791 20.7161 20.3911 20.5667 20.4285 20.3676Z" fill="#4E4E4E"/>
<path d="M28.3208 19.0844C28.2461 19.7068 28.0844 20.2545 27.8354 20.74C27.5864 21.2255 27.2752 21.5741 26.9142 21.8107C26.5532 22.0472 26.1424 22.1592 25.6943 22.1468C25.1216 22.1343 24.6734 21.9227 24.3373 21.5119L23.802 24.3128H22.2584L23.6774 16.1216H25.0968L24.9971 16.7191C25.4203 16.2336 25.9307 16.0095 26.5033 16.022C27.076 16.0344 27.5367 16.2461 27.8479 16.6569C28.1715 17.0677 28.3457 17.6154 28.3582 18.3126C28.3582 18.5117 28.3457 18.7856 28.3208 19.0844ZM26.7896 18.9723L26.827 18.4495C26.8394 18.1009 26.7649 17.8146 26.6279 17.603C26.491 17.3914 26.2918 17.2918 26.0304 17.2793C25.5823 17.2669 25.2086 17.4536 24.9223 17.8519L24.4743 20.2919C24.6113 20.6654 24.8975 20.8521 25.3457 20.8645C25.7191 20.877 26.0304 20.7276 26.2793 20.4288C26.5283 20.1301 26.69 19.657 26.7896 18.9723Z" fill="#4E4E4E"/>
<path d="M31.6199 22.1473C31.0971 22.1473 30.6364 22.0229 30.238 21.7614C29.8396 21.5125 29.5409 21.1639 29.3417 20.7282C29.1425 20.2925 29.0679 19.807 29.1177 19.2842L29.1302 19.0601C29.18 18.4874 29.3541 17.9521 29.628 17.4666C29.9019 16.9811 30.2755 16.6201 30.7112 16.3587C31.1469 16.0973 31.6448 15.9728 32.1801 15.9852C32.9394 15.9977 33.5247 16.284 33.9106 16.8318C34.2965 17.3795 34.4457 18.0642 34.3586 18.9107L34.2714 19.5829H30.6489C30.6364 19.9688 30.7236 20.2676 30.9227 20.5041C31.1219 20.7406 31.3957 20.8527 31.7442 20.8651C32.3044 20.8776 32.8026 20.666 33.2259 20.2054L33.9352 21.0768C33.7111 21.4129 33.3878 21.6743 32.9769 21.861C32.5537 22.0602 32.1054 22.1473 31.6199 22.1473ZM32.1053 17.2799C31.819 17.2675 31.5702 17.367 31.3461 17.5413C31.122 17.728 30.9229 18.0517 30.7486 18.5123H32.8773L32.9146 18.3754C32.9395 18.226 32.9395 18.0891 32.9146 17.9646C32.8773 17.753 32.7902 17.5911 32.6408 17.4666C32.5039 17.3421 32.3294 17.2799 32.1053 17.2799Z" fill="#4E4E4E"/>
<path d="M37.3339 20.8778C37.6202 20.8902 37.8565 20.8031 38.0432 20.6413C38.23 20.4794 38.3545 20.2678 38.4167 19.9939H39.8732C39.8483 20.4047 39.724 20.7782 39.4875 21.1143C39.2509 21.4504 38.9397 21.6994 38.5414 21.8861C38.143 22.0729 37.7322 22.16 37.2965 22.1475C36.5745 22.1351 36.0141 21.8861 35.5909 21.4006C35.1676 20.9151 34.9684 20.2678 34.9809 19.4711L34.9934 19.1723V19.1101C35.0929 18.1515 35.4166 17.3797 35.9644 16.8195C36.5121 16.2593 37.1967 15.9854 38.0058 16.0103C38.6781 16.0228 39.201 16.2469 39.5993 16.6701C39.9977 17.0934 40.1844 17.6411 40.1719 18.3382H38.728C38.728 18.027 38.6534 17.7656 38.5164 17.5913C38.3795 17.4046 38.1679 17.3175 37.894 17.2926C37.1595 17.2677 36.7113 17.8029 36.5494 18.9109C36.4996 19.3092 36.4747 19.6453 36.4871 19.9192C36.5494 20.5417 36.8235 20.8653 37.3339 20.8778Z" fill="#4E4E4E"/>
<path d="M43.5829 14.6533L43.3215 16.1098H44.305L44.106 17.2675H43.1225L42.6246 20.2303C42.5997 20.417 42.6119 20.554 42.6742 20.6536C42.724 20.7532 42.8485 20.803 43.0477 20.8154C43.1099 20.8154 43.2595 20.8154 43.5209 20.7905L43.4088 21.998C43.1349 22.0852 42.8362 22.135 42.5249 22.1225C42.0145 22.1101 41.6409 21.9607 41.3919 21.6495C41.1429 21.3383 41.0434 20.915 41.0807 20.3922L41.5913 17.2675H40.7573L40.9564 16.1098H41.7904L42.0393 14.6533H43.5829Z" fill="#4E4E4E"/>
<path d="M47.6163 20.3676C47.6785 20.0812 47.4669 19.8696 47.0063 19.7327L46.5085 19.6082C45.3259 19.2845 44.7534 18.7119 44.7907 17.8902C44.8032 17.33 45.052 16.8819 45.5375 16.5209C46.0105 16.1723 46.5833 15.998 47.2555 15.998C47.9278 16.0105 48.4628 16.1848 48.8736 16.5333C49.2844 16.8819 49.4961 17.3425 49.5085 17.9152H47.9774C47.9774 17.4048 47.7286 17.1558 47.2182 17.1433C46.9816 17.1433 46.77 17.2056 46.5957 17.3301C46.4214 17.4546 46.3094 17.6164 46.272 17.8155C46.2222 18.1019 46.4339 18.3135 46.9319 18.438L47.1559 18.4878C47.6538 18.6123 48.0396 18.7492 48.3135 18.8986C48.5749 19.048 48.7865 19.2472 48.9235 19.4712C49.0729 19.6953 49.1353 19.9816 49.1228 20.2929C49.1104 20.6663 48.9859 21.0024 48.7618 21.2763C48.5253 21.5626 48.214 21.7743 47.8157 21.9236C47.4173 22.073 46.9816 22.1477 46.5459 22.1352C45.8861 22.1228 45.3383 21.9361 44.9026 21.5626C44.4669 21.1892 44.2427 20.7161 44.2303 20.131L45.687 20.1435C45.6994 20.7037 45.9982 20.99 46.5957 21.0024C46.882 21.0024 47.1183 20.9402 47.3051 20.8281C47.4669 20.7161 47.579 20.5667 47.6163 20.3676Z" fill="#4E4E4E"/>
<path d="M57.8865 22.035H52.5836L52.7702 20.8897L55.5961 18.2382C56.1687 17.6904 56.5546 17.2547 56.7538 16.9186C56.9405 16.5825 57.0151 16.2464 56.9653 15.9227C56.8906 15.4745 56.6293 15.238 56.1812 15.2256C55.8326 15.2131 55.5339 15.3376 55.2974 15.5866C55.0608 15.8356 54.9238 16.1717 54.874 16.5825H53.3304C53.3553 16.0845 53.5048 15.6364 53.7786 15.2256C54.0525 14.8148 54.4009 14.5035 54.8366 14.2795C55.2848 14.0554 55.758 13.9434 56.2684 13.9434C57.0029 13.9558 57.5878 14.1674 57.9986 14.5658C58.4094 14.9642 58.5961 15.4995 58.5463 16.1717C58.484 16.9186 58.0486 17.7029 57.2145 18.5245L56.4301 19.2714L54.7992 20.7403L58.0983 20.7528L57.8865 22.035Z" fill="#4E4E4E"/>
<path d="M61.5092 22.1462C60.8245 22.1337 60.2892 21.8972 59.9157 21.4491C59.5423 21.0009 59.3431 20.366 59.3431 19.5569C59.3431 19.283 59.3556 19.0215 59.393 18.7477L59.617 17.2539C59.7913 16.1708 60.1524 15.3492 60.6752 14.7765C61.1981 14.2163 61.8702 13.9425 62.6918 13.9674C63.3764 13.9798 63.9118 14.2163 64.2977 14.6645C64.6712 15.1127 64.8703 15.7476 64.8828 16.5443C64.8828 16.8181 64.8703 17.092 64.8329 17.3534L64.6089 18.8348C64.4222 19.9303 64.0735 20.7519 63.5507 21.3246C63.0154 21.8848 62.3433 22.1586 61.5092 22.1462ZM63.364 16.3575C63.364 15.6355 63.1025 15.2621 62.5921 15.2372C61.8576 15.1998 61.3847 15.76 61.1855 16.9177L60.9117 18.7601C60.8494 19.146 60.8245 19.4697 60.8245 19.7187C60.812 20.4531 61.0611 20.8391 61.584 20.864C62.3184 20.9138 62.7913 20.3287 62.9905 19.1336L63.2768 17.1916C63.3391 16.8804 63.364 16.5941 63.364 16.3575Z" fill="#4E4E4E"/>
<path d="M68.8414 22.0343H67.2978L68.3436 15.9718L66.4015 16.5569L66.6379 15.2L69.962 14.0547H70.161L68.8414 22.0343Z" fill="#4E4E4E"/>
<path d="M75.6138 18.8471C75.1657 19.2579 74.68 19.4695 74.1696 19.457C73.7339 19.457 73.3605 19.3326 73.0493 19.1085C72.7381 18.8844 72.514 18.5607 72.3646 18.1499C72.2152 17.7391 72.1653 17.291 72.2151 16.8179C72.2649 16.2328 72.4518 15.6975 72.7755 15.2245C73.0992 14.7514 73.51 14.4029 74.0328 14.1788C74.3689 14.0294 74.7423 13.9547 75.1531 13.9672C75.8129 13.9796 76.3357 14.2162 76.7216 14.6519C77.1075 15.0876 77.3317 15.6976 77.3815 16.4445C77.3939 16.7059 77.3939 16.9673 77.369 17.2163L77.3067 17.6893C77.1324 19.0836 76.6345 20.1666 75.8254 20.9509C75.0162 21.7352 73.9705 22.1335 72.7007 22.1335H72.5886L72.7132 20.8139H72.8004C73.5224 20.8264 74.1074 20.6646 74.568 20.3409C75.0286 20.0048 75.3773 19.5068 75.6138 18.8471ZM74.6054 18.2495C75.0411 18.262 75.4269 18.0379 75.7631 17.5773L75.8627 16.9175C75.8752 16.7681 75.8877 16.5938 75.8877 16.3947C75.8752 16.0461 75.8128 15.7598 75.6634 15.5482C75.514 15.3365 75.3273 15.2245 75.0659 15.2245C74.8044 15.2245 74.5681 15.3116 74.3565 15.5108C74.1449 15.6976 73.9829 15.9589 73.8833 16.2951C73.7713 16.6312 73.7338 16.9549 73.7711 17.2785C73.796 17.5648 73.8834 17.8014 74.0328 17.9756C74.1698 18.1624 74.3689 18.2495 74.6054 18.2495Z" fill="#4E4E4E"/>
<path d="M79.3729 16.5199L78.5888 16.0593C78.9623 15.5241 79.1989 15.051 79.2985 14.6402L79.4851 13.6318H80.7175L80.5932 14.441C80.4562 15.2502 80.0452 15.9349 79.3729 16.5199ZM81.2032 16.5199L80.4187 16.0593C80.7922 15.5241 81.0288 15.051 81.1284 14.6402L81.315 13.6318H82.5474L82.4231 14.441C82.2986 15.2502 81.8878 15.9349 81.2032 16.5199Z" fill="#4E4E4E"/>
<path d="M82.3982 24.0267L81.5764 23.5785L81.9748 22.9437C82.2113 22.5578 82.3608 22.1843 82.4231 21.8482L82.6222 20.6904H83.9293L83.7673 21.6988C83.6304 22.6325 83.17 23.4167 82.3982 24.0267Z" fill="#4E4E4E"/>
<path d="M89.9172 19.2209L89.4191 22.0218H87.8132L89.1951 14.0547H91.9836C92.8426 14.0547 93.5147 14.2912 94.0126 14.7767C94.4981 15.2497 94.7222 15.8722 94.66 16.644C94.5977 17.4283 94.274 18.0507 93.6889 18.5113C93.0914 18.9844 92.3447 19.2085 91.4235 19.2085L89.9172 19.2209ZM90.1412 17.9013L91.4733 17.9138C91.909 17.9138 92.2574 17.8017 92.5437 17.5777C92.8301 17.3536 93.0042 17.0548 93.054 16.6814C93.1038 16.3079 93.0541 15.9967 92.8674 15.7726C92.6931 15.5485 92.4319 15.424 92.0833 15.4116H90.5767L90.1412 17.9013Z" fill="#4E4E4E"/>
<path d="M100.138 18.5863H97.0877L96.7142 20.715H100.299L100.075 22.0345H94.8843L96.2659 14.0674H101.445L101.208 15.3994H97.6354L97.2993 17.2916H100.362L100.138 18.5863Z" fill="#4E4E4E"/>
<path d="M107.47 19.7191L109.387 14.0674H111.018L108.055 22.0345H106.436L106.013 16.7314L103.934 22.0345H102.316L101.843 14.0674H103.411L103.573 19.6942L105.715 14.0674H107.071L107.47 19.7191Z" fill="#4E4E4E"/>
<path d="M116.781 19.1216H115.487L114.976 22.0345H113.37L114.752 14.0674H117.391C118.275 14.0674 118.948 14.279 119.433 14.6898C119.906 15.1006 120.118 15.6857 120.068 16.4202C119.993 17.5157 119.408 18.275 118.312 18.6983L119.433 21.9349V22.0221H117.727L116.781 19.1216ZM115.711 17.7895L116.906 17.802C117.329 17.7895 117.678 17.6775 117.951 17.4659C118.225 17.2418 118.387 16.943 118.45 16.5695C118.499 16.221 118.449 15.9347 118.275 15.7355C118.101 15.5363 117.852 15.4243 117.491 15.4118H116.121L115.711 17.7895Z" fill="#4E4E4E"/>
<path d="M123.068 22.1473C122.545 22.1473 122.097 22.0229 121.699 21.7614C121.3 21.5125 121.001 21.1639 120.802 20.7282C120.603 20.2925 120.529 19.807 120.578 19.2842L120.591 19.0601C120.641 18.4874 120.815 17.9521 121.089 17.4666C121.362 16.9811 121.724 16.6201 122.172 16.3587C122.607 16.0973 123.105 15.9728 123.641 15.9852C124.4 15.9977 124.985 16.284 125.371 16.8318C125.757 17.3795 125.906 18.0642 125.819 18.9107L125.732 19.5829H122.109C122.097 19.9688 122.184 20.2676 122.383 20.5041C122.582 20.7282 122.857 20.8527 123.205 20.8651C123.765 20.8776 124.263 20.666 124.686 20.2054L125.396 21.0768C125.172 21.4129 124.848 21.6743 124.438 21.861C124.002 22.0602 123.554 22.1473 123.068 22.1473ZM123.566 17.2799C123.28 17.2675 123.031 17.367 122.807 17.5413C122.583 17.728 122.383 18.0517 122.209 18.5123H124.338L124.375 18.3754C124.4 18.226 124.4 18.0891 124.375 17.9646C124.338 17.753 124.251 17.5911 124.101 17.4666C123.964 17.3421 123.777 17.2799 123.566 17.2799Z" fill="#4E4E4E"/>
<path d="M129.616 20.3676C129.678 20.0812 129.467 19.8696 129.006 19.7327L128.508 19.6082C127.326 19.2845 126.753 18.7119 126.79 17.8902C126.803 17.33 127.052 16.8819 127.537 16.5209C128.01 16.1723 128.583 15.998 129.255 15.998C129.927 16.0105 130.463 16.1848 130.873 16.5333C131.284 16.8819 131.496 17.3425 131.508 17.9152H129.977C129.977 17.4048 129.728 17.1558 129.218 17.1433C128.981 17.1433 128.769 17.2056 128.595 17.3301C128.421 17.4546 128.309 17.6164 128.271 17.8155C128.222 18.1019 128.433 18.3135 128.931 18.438L129.155 18.4878C129.653 18.6123 130.039 18.7492 130.313 18.8986C130.575 19.048 130.786 19.2472 130.923 19.4712C131.073 19.6953 131.135 19.9816 131.122 20.2929C131.11 20.6663 130.985 21.0024 130.761 21.2763C130.525 21.5626 130.213 21.7743 129.815 21.9236C129.417 22.073 128.981 22.1477 128.545 22.1352C127.885 22.1228 127.338 21.9361 126.902 21.5626C126.467 21.1892 126.242 20.7161 126.23 20.131L127.686 20.1435C127.699 20.7037 127.998 20.99 128.595 21.0024C128.881 21.0024 129.118 20.9402 129.305 20.8281C129.467 20.7161 129.579 20.5667 129.616 20.3676Z" fill="#4E4E4E"/>
<path d="M134.645 22.1473C134.123 22.1473 133.674 22.0229 133.276 21.7614C132.878 21.5125 132.579 21.1639 132.38 20.7282C132.181 20.2925 132.106 19.807 132.156 19.2842L132.168 19.0601C132.218 18.4874 132.392 17.9521 132.666 17.4666C132.94 16.9811 133.301 16.6201 133.749 16.3587C134.185 16.0973 134.683 15.9728 135.218 15.9852C135.977 15.9977 136.562 16.284 136.948 16.8318C137.334 17.3795 137.484 18.0642 137.397 18.9107L137.309 19.5829H133.687C133.674 19.9688 133.762 20.2676 133.961 20.5041C134.16 20.7282 134.434 20.8527 134.782 20.8651C135.342 20.8776 135.841 20.666 136.264 20.2054L136.973 21.0768C136.749 21.4129 136.425 21.6743 136.015 21.861C135.566 22.0602 135.118 22.1473 134.645 22.1473ZM135.131 17.2799C134.844 17.2675 134.596 17.367 134.372 17.5413C134.148 17.728 133.948 18.0517 133.774 18.5123H135.903L135.94 18.3754C135.965 18.226 135.965 18.0891 135.94 17.9646C135.903 17.753 135.816 17.5911 135.666 17.4666C135.529 17.3421 135.355 17.2799 135.131 17.2799Z" fill="#4E4E4E"/>
<path d="M141.181 22.0345C141.131 21.8851 141.119 21.7108 141.119 21.4992C140.67 21.9473 140.173 22.1589 139.612 22.1465C139.09 22.134 138.666 21.9722 138.318 21.6361C137.982 21.3 137.82 20.9016 137.845 20.4161C137.87 19.7688 138.143 19.2709 138.654 18.9347C139.164 18.5862 139.861 18.4119 140.733 18.4119L141.455 18.4243L141.53 18.0633C141.554 17.9388 141.554 17.8268 141.542 17.7148C141.53 17.5405 141.455 17.4035 141.343 17.3164C141.231 17.2168 141.081 17.167 140.907 17.167C140.671 17.1546 140.459 17.2168 140.297 17.3413C140.135 17.4658 140.023 17.6525 139.973 17.889H138.43C138.455 17.3288 138.716 16.8682 139.214 16.5072C139.712 16.1587 140.322 15.9844 141.044 15.9844C141.716 15.9968 142.239 16.196 142.625 16.5819C142.998 16.9678 143.16 17.4658 143.098 18.0633L142.65 20.9016L142.625 21.2502C142.612 21.5116 142.65 21.7232 142.725 21.91V22.0096H141.181V22.0345ZM139.998 20.939C140.447 20.9514 140.832 20.7647 141.168 20.3663L141.355 19.3455H140.82C140.247 19.358 139.836 19.5323 139.587 19.8684C139.5 19.9929 139.438 20.1423 139.413 20.3165C139.388 20.5157 139.426 20.6651 139.538 20.7896C139.65 20.8767 139.799 20.939 139.998 20.939Z" fill="#4E4E4E"/>
<path d="M147.692 17.5907C147.48 17.5534 147.306 17.5409 147.169 17.5409C146.621 17.5285 146.185 17.7277 145.862 18.1634L145.177 22.0349H143.633L144.667 16.1218H146.111L145.974 16.8438C146.347 16.2836 146.808 16.0098 147.355 16.0098C147.505 16.0098 147.691 16.0347 147.891 16.0845L147.692 17.5907Z" fill="#4E4E4E"/>
<path d="M150.144 20.8778C150.43 20.8902 150.667 20.8031 150.854 20.6413C151.04 20.4794 151.165 20.2678 151.227 19.9939H152.671C152.646 20.4047 152.522 20.7782 152.285 21.1143C152.048 21.4504 151.737 21.6994 151.339 21.8861C150.953 22.0729 150.53 22.16 150.094 22.1475C149.372 22.1351 148.812 21.8861 148.389 21.4006C147.965 20.9151 147.766 20.2678 147.779 19.4711L147.791 19.1723V19.1101C147.891 18.1515 148.214 17.3797 148.762 16.8195C149.31 16.2593 149.995 15.9854 150.804 16.0103C151.476 16.0228 151.999 16.2469 152.397 16.6701C152.796 17.0934 152.982 17.6411 152.97 18.3382H151.526C151.526 18.027 151.451 17.7656 151.314 17.5913C151.177 17.4046 150.965 17.3175 150.692 17.2926C149.957 17.2677 149.509 17.8029 149.347 18.9109C149.298 19.3092 149.273 19.6453 149.285 19.9192C149.36 20.5417 149.633 20.8653 150.144 20.8778Z" fill="#4E4E4E"/>
<path d="M155.634 16.7689C156.094 16.246 156.63 15.9971 157.24 15.9971C157.825 16.0095 158.26 16.2212 158.534 16.632C158.808 17.0428 158.908 17.5905 158.846 18.3001L158.223 22.0347H156.68L157.302 18.2876C157.314 18.1507 157.327 18.0138 157.314 17.8893C157.277 17.4909 157.053 17.2917 156.63 17.2793C156.219 17.2668 155.846 17.4411 155.534 17.8146L154.787 22.0347H153.244L154.7 13.6318H156.244L155.634 16.7689Z" fill="#4E4E4E"/>
</svg>
