<?xml version="1.0" encoding="utf-8"?>
<!-- Generator: Adobe Illustrator 24.1.2, SVG Export Plug-In . SVG Version: 6.00 Build 0)  -->
<svg version="1.0" id="Layer_1" xmlns="http://www.w3.org/2000/svg" xmlns:xlink="http://www.w3.org/1999/xlink" x="0px" y="0px"
	 viewBox="0 0 1200 773.04" style="enable-background:new 0 0 1200 773.04;" xml:space="preserve">
<style type="text/css">
	.st0{fill:#B2B2B2;}
	.st1{fill:#5B5B5F;}
	.st2{fill:#98CA42;}
	.st3{fill:#16687C;}
	.st4{fill:#E73F30;}
	.st5{fill:#FBB61D;}
	.st6{fill:#1A95CA;}
	.st7{fill:#1B95CE;}
	.st8{fill:#5A5B5E;}
	.st9{fill:#BBBBBB;}
	.st10{fill:#1795CC;}
</style>
<g>
	<g>
		<rect x="136.41" y="97.71" class="st0" width="563.7" height="3.94"/>
	</g>
	<g>
		<rect x="136.41" y="174.58" class="st0" width="563.7" height="3.94"/>
	</g>
	<g>
		<rect x="136.41" y="249.48" class="st0" width="378.43" height="3.94"/>
	</g>
	<g>
		<rect x="87.14" y="675.21" class="st1" width="17.74" height="17.74"/>
	</g>
	<g>
		<path class="st1" d="M111.99,691.69v-14.62h2.06l4.68,7.4c1.08,1.71,1.93,3.25,2.62,4.75l0.04-0.02
			c-0.17-1.95-0.22-3.73-0.22-6.01v-6.12h1.78v14.62h-1.91l-4.64-7.42c-1.02-1.62-2-3.3-2.73-4.88l-0.07,0.02
			c0.11,1.84,0.15,3.6,0.15,6.03v6.24H111.99z"/>
		<path class="st1" d="M135.69,686.35c0,3.88-2.69,5.57-5.23,5.57c-2.84,0-5.03-2.08-5.03-5.4c0-3.51,2.3-5.57,5.2-5.57
			C133.65,680.96,135.69,683.14,135.69,686.35z M127.36,686.46c0,2.3,1.32,4.03,3.19,4.03c1.82,0,3.19-1.71,3.19-4.08
			c0-1.78-0.89-4.03-3.14-4.03C128.33,682.38,127.36,684.47,127.36,686.46z"/>
		<path class="st1" d="M138.09,684.47c0-1.24-0.02-2.3-0.09-3.28h1.67l0.07,2.06h0.09c0.48-1.41,1.63-2.3,2.91-2.3
			c0.22,0,0.37,0.02,0.54,0.06v1.8c-0.2-0.04-0.39-0.07-0.65-0.07c-1.34,0-2.3,1.02-2.56,2.45c-0.04,0.26-0.09,0.56-0.09,0.89v5.6
			h-1.89V684.47z"/>
		<path class="st1" d="M148,678.18v3.01h2.73v1.46H148v5.66c0,1.3,0.37,2.04,1.43,2.04c0.5,0,0.87-0.07,1.11-0.13l0.09,1.43
			c-0.37,0.15-0.95,0.26-1.69,0.26c-0.89,0-1.61-0.28-2.06-0.8c-0.54-0.57-0.74-1.5-0.74-2.73v-5.72h-1.63v-1.46h1.63v-2.51
			L148,678.18z"/>
		<path class="st1" d="M152.88,676.29h1.91v6.55h0.04c0.3-0.54,0.78-1.02,1.37-1.35c0.56-0.32,1.24-0.54,1.95-0.54
			c1.41,0,3.66,0.87,3.66,4.49v6.24h-1.91v-6.03c0-1.69-0.63-3.12-2.43-3.12c-1.24,0-2.21,0.87-2.56,1.91
			c-0.11,0.26-0.13,0.54-0.13,0.91v6.33h-1.91V676.29z"/>
		<path class="st1" d="M171.93,687.09l-1.52,4.6h-1.95l4.97-14.62h2.28l4.99,14.62h-2.02l-1.56-4.6H171.93z M176.73,685.62
			l-1.43-4.21c-0.33-0.95-0.54-1.82-0.76-2.67h-0.04c-0.22,0.87-0.46,1.76-0.74,2.64l-1.43,4.23H176.73z"/>
		<path class="st1" d="M182.71,684.03c0-1.08-0.02-1.97-0.09-2.84h1.67l0.09,1.69h0.06c0.59-1,1.56-1.93,3.3-1.93
			c1.43,0,2.52,0.87,2.97,2.1h0.04c0.33-0.59,0.74-1.04,1.17-1.37c0.63-0.48,1.32-0.74,2.32-0.74c1.39,0,3.45,0.91,3.45,4.55v6.18
			h-1.87v-5.94c0-2.01-0.74-3.23-2.28-3.23c-1.08,0-1.93,0.8-2.26,1.74c-0.09,0.26-0.15,0.6-0.15,0.95v6.48h-1.86v-6.29
			c0-1.67-0.74-2.88-2.19-2.88c-1.19,0-2.06,0.95-2.36,1.91c-0.11,0.28-0.15,0.6-0.15,0.93v6.33h-1.87V684.03z"/>
		<path class="st1" d="M201.85,686.79c0.04,2.58,1.69,3.64,3.6,3.64c1.37,0,2.19-0.24,2.91-0.54l0.33,1.37
			c-0.67,0.3-1.82,0.65-3.49,0.65c-3.23,0-5.16-2.12-5.16-5.29c0-3.17,1.86-5.66,4.92-5.66c3.43,0,4.34,3.01,4.34,4.94
			c0,0.39-0.04,0.69-0.06,0.89H201.85z M207.45,685.42c0.02-1.22-0.5-3.1-2.65-3.1c-1.93,0-2.78,1.78-2.93,3.1H207.45z"/>
		<path class="st1" d="M211.65,684.47c0-1.24-0.02-2.3-0.09-3.28h1.67l0.07,2.06h0.09c0.48-1.41,1.63-2.3,2.91-2.3
			c0.22,0,0.37,0.02,0.54,0.06v1.8c-0.2-0.04-0.39-0.07-0.65-0.07c-1.34,0-2.3,1.02-2.56,2.45c-0.04,0.26-0.09,0.56-0.09,0.89v5.6
			h-1.89V684.47z"/>
		<path class="st1" d="M220.95,678.24c0.02,0.65-0.46,1.17-1.21,1.17c-0.67,0-1.15-0.52-1.15-1.17c0-0.67,0.5-1.19,1.19-1.19
			C220.5,677.05,220.95,677.57,220.95,678.24z M218.83,691.69v-10.5h1.91v10.5H218.83z"/>
		<path class="st1" d="M231.38,691.3c-0.5,0.26-1.61,0.61-3.01,0.61c-3.17,0-5.23-2.15-5.23-5.35c0-3.23,2.21-5.57,5.64-5.57
			c1.13,0,2.12,0.28,2.64,0.54l-0.43,1.47c-0.46-0.26-1.17-0.5-2.21-0.5c-2.41,0-3.71,1.78-3.71,3.97c0,2.43,1.56,3.93,3.64,3.93
			c1.08,0,1.8-0.28,2.34-0.52L231.38,691.3z"/>
		<path class="st1" d="M239.43,691.69l-0.15-1.32h-0.07c-0.59,0.82-1.71,1.56-3.21,1.56c-2.12,0-3.21-1.5-3.21-3.01
			c0-2.54,2.26-3.93,6.31-3.9v-0.22c0-0.87-0.24-2.43-2.38-2.43c-0.98,0-2,0.3-2.73,0.78l-0.43-1.25c0.87-0.57,2.12-0.93,3.45-0.93
			c3.21,0,3.99,2.19,3.99,4.29v3.92c0,0.91,0.04,1.8,0.17,2.52H239.43z M239.14,686.33c-2.08-0.04-4.45,0.33-4.45,2.36
			c0,1.24,0.82,1.82,1.8,1.82c1.37,0,2.23-0.87,2.54-1.76c0.06-0.19,0.11-0.41,0.11-0.6V686.33z"/>
	</g>
	<g>
		<rect x="266.5" y="675.21" class="st2" width="17.74" height="17.74"/>
	</g>
	<g>
		<path class="st2" d="M293.73,691.69l-3.71-14.62h2l1.73,7.4c0.43,1.82,0.82,3.64,1.08,5.05h0.04c0.24-1.45,0.69-3.19,1.19-5.07
			l1.95-7.37H300l1.78,7.42c0.41,1.73,0.8,3.47,1.02,5.01h0.04c0.3-1.61,0.72-3.23,1.17-5.05l1.93-7.37h1.93l-4.14,14.62h-1.97
			l-1.84-7.61c-0.46-1.87-0.76-3.3-0.95-4.77h-0.04c-0.26,1.46-0.59,2.89-1.13,4.77l-2.08,7.61H293.73z"/>
		<path class="st2" d="M309.97,686.79c0.04,2.58,1.69,3.64,3.6,3.64c1.37,0,2.19-0.24,2.91-0.54l0.33,1.37
			c-0.67,0.3-1.82,0.65-3.49,0.65c-3.23,0-5.16-2.12-5.16-5.29c0-3.17,1.86-5.66,4.92-5.66c3.43,0,4.34,3.01,4.34,4.94
			c0,0.39-0.04,0.69-0.06,0.89H309.97z M315.56,685.42c0.02-1.22-0.5-3.1-2.65-3.1c-1.93,0-2.78,1.78-2.93,3.1H315.56z"/>
		<path class="st2" d="M319.51,689.74c0.56,0.37,1.56,0.76,2.52,0.76c1.39,0,2.04-0.69,2.04-1.56c0-0.91-0.54-1.41-1.95-1.93
			c-1.89-0.67-2.78-1.71-2.78-2.97c0-1.69,1.37-3.08,3.62-3.08c1.06,0,2,0.3,2.58,0.65l-0.48,1.39c-0.41-0.26-1.17-0.61-2.15-0.61
			c-1.13,0-1.76,0.65-1.76,1.43c0,0.87,0.63,1.26,2,1.78c1.82,0.69,2.75,1.61,2.75,3.16c0,1.84-1.43,3.15-3.92,3.15
			c-1.15,0-2.21-0.28-2.95-0.72L319.51,689.74z"/>
		<path class="st2" d="M330.65,678.18v3.01h2.73v1.46h-2.73v5.66c0,1.3,0.37,2.04,1.43,2.04c0.5,0,0.87-0.07,1.11-0.13l0.09,1.43
			c-0.37,0.15-0.95,0.26-1.69,0.26c-0.89,0-1.6-0.28-2.06-0.8c-0.54-0.57-0.74-1.5-0.74-2.73v-5.72h-1.63v-1.46h1.63v-2.51
			L330.65,678.18z"/>
		<path class="st2" d="M336.46,686.79c0.04,2.58,1.69,3.64,3.6,3.64c1.37,0,2.19-0.24,2.91-0.54l0.33,1.37
			c-0.67,0.3-1.82,0.65-3.49,0.65c-3.23,0-5.16-2.12-5.16-5.29c0-3.17,1.87-5.66,4.92-5.66c3.43,0,4.34,3.01,4.34,4.94
			c0,0.39-0.04,0.69-0.06,0.89H336.46z M342.06,685.42c0.02-1.22-0.5-3.1-2.65-3.1c-1.93,0-2.78,1.78-2.93,3.1H342.06z"/>
		<path class="st2" d="M346.26,684.47c0-1.24-0.02-2.3-0.09-3.28h1.67l0.07,2.06H348c0.48-1.41,1.63-2.3,2.91-2.3
			c0.22,0,0.37,0.02,0.54,0.06v1.8c-0.19-0.04-0.39-0.07-0.65-0.07c-1.34,0-2.3,1.02-2.56,2.45c-0.04,0.26-0.09,0.56-0.09,0.89v5.6
			h-1.89V684.47z"/>
		<path class="st2" d="M353.44,684.03c0-1.08-0.02-1.97-0.09-2.84h1.69l0.11,1.74h0.04c0.52-1,1.74-1.97,3.47-1.97
			c1.45,0,3.71,0.87,3.71,4.47v6.27h-1.91v-6.05c0-1.69-0.63-3.1-2.43-3.1c-1.26,0-2.23,0.89-2.56,1.95
			c-0.09,0.24-0.13,0.56-0.13,0.89v6.31h-1.91V684.03z"/>
		<path class="st2" d="M377.7,684.84h-5.68v5.27h6.33v1.58h-8.22v-14.62h7.89v1.58h-6.01v4.62h5.68V684.84z"/>
		<path class="st2" d="M389.37,688.83c0,1.09,0.02,2.04,0.09,2.86h-1.69l-0.11-1.71h-0.04c-0.5,0.84-1.6,1.95-3.47,1.95
			c-1.65,0-3.62-0.91-3.62-4.6v-6.14h1.91V687c0,1.99,0.61,3.34,2.34,3.34c1.28,0,2.17-0.89,2.52-1.74
			c0.11-0.28,0.17-0.63,0.17-0.98v-6.44h1.91V688.83z"/>
		<path class="st2" d="M392.53,684.47c0-1.24-0.02-2.3-0.09-3.28h1.67l0.07,2.06h0.09c0.48-1.41,1.63-2.3,2.91-2.3
			c0.22,0,0.37,0.02,0.54,0.06v1.8c-0.19-0.04-0.39-0.07-0.65-0.07c-1.34,0-2.3,1.02-2.56,2.45c-0.04,0.26-0.09,0.56-0.09,0.89v5.6
			h-1.89V684.47z"/>
		<path class="st2" d="M408.9,686.35c0,3.88-2.69,5.57-5.23,5.57c-2.84,0-5.03-2.08-5.03-5.4c0-3.51,2.3-5.57,5.2-5.57
			C406.86,680.96,408.9,683.14,408.9,686.35z M400.57,686.46c0,2.3,1.32,4.03,3.19,4.03c1.82,0,3.19-1.71,3.19-4.08
			c0-1.78-0.89-4.03-3.15-4.03C401.55,682.38,400.57,684.47,400.57,686.46z"/>
		<path class="st2" d="M411.3,684.62c0-1.34-0.04-2.43-0.09-3.43h1.71l0.09,1.8h0.04c0.78-1.28,2.02-2.04,3.73-2.04
			c2.54,0,4.45,2.14,4.45,5.33c0,3.77-2.3,5.64-4.77,5.64c-1.39,0-2.6-0.61-3.23-1.65h-0.04v5.7h-1.89V684.62z M413.19,687.42
			c0,0.28,0.04,0.54,0.09,0.78c0.35,1.32,1.5,2.23,2.86,2.23c2.02,0,3.19-1.65,3.19-4.05c0-2.11-1.11-3.9-3.12-3.9
			c-1.3,0-2.52,0.93-2.88,2.36c-0.07,0.24-0.13,0.52-0.13,0.78V687.42z"/>
		<path class="st2" d="M424.7,686.79c0.04,2.58,1.69,3.64,3.6,3.64c1.37,0,2.19-0.24,2.91-0.54l0.33,1.37
			c-0.67,0.3-1.82,0.65-3.49,0.65c-3.23,0-5.16-2.12-5.16-5.29c0-3.17,1.87-5.66,4.92-5.66c3.43,0,4.34,3.01,4.34,4.94
			c0,0.39-0.04,0.69-0.06,0.89H424.7z M430.3,685.42c0.02-1.22-0.5-3.1-2.65-3.1c-1.93,0-2.78,1.78-2.93,3.1H430.3z"/>
	</g>
	<g>
		<rect x="445.86" y="675.21" class="st3" width="17.74" height="17.74"/>
	</g>
	<g>
		<path class="st3" d="M478.27,684.84h-5.68v5.27h6.33v1.58h-8.22v-14.62h7.89v1.58h-6.01v4.62h5.68V684.84z"/>
		<path class="st3" d="M487.12,691.69l-0.15-1.32h-0.07c-0.59,0.82-1.71,1.56-3.21,1.56c-2.12,0-3.21-1.5-3.21-3.01
			c0-2.54,2.25-3.93,6.31-3.9v-0.22c0-0.87-0.24-2.43-2.39-2.43c-0.98,0-1.99,0.3-2.73,0.78l-0.43-1.25
			c0.87-0.57,2.12-0.93,3.45-0.93c3.21,0,3.99,2.19,3.99,4.29v3.92c0,0.91,0.04,1.8,0.17,2.52H487.12z M486.84,686.33
			c-2.08-0.04-4.45,0.33-4.45,2.36c0,1.24,0.82,1.82,1.8,1.82c1.37,0,2.23-0.87,2.54-1.76c0.07-0.19,0.11-0.41,0.11-0.6V686.33z"/>
		<path class="st3" d="M491.5,689.74c0.56,0.37,1.56,0.76,2.52,0.76c1.39,0,2.04-0.69,2.04-1.56c0-0.91-0.54-1.41-1.95-1.93
			c-1.89-0.67-2.78-1.71-2.78-2.97c0-1.69,1.37-3.08,3.62-3.08c1.06,0,2,0.3,2.58,0.65l-0.48,1.39c-0.41-0.26-1.17-0.61-2.15-0.61
			c-1.13,0-1.76,0.65-1.76,1.43c0,0.87,0.63,1.26,2,1.78c1.82,0.69,2.75,1.61,2.75,3.16c0,1.84-1.43,3.15-3.92,3.15
			c-1.15,0-2.21-0.28-2.95-0.72L491.5,689.74z"/>
		<path class="st3" d="M502.64,678.18v3.01h2.73v1.46h-2.73v5.66c0,1.3,0.37,2.04,1.43,2.04c0.5,0,0.87-0.07,1.11-0.13l0.09,1.43
			c-0.37,0.15-0.95,0.26-1.69,0.26c-0.89,0-1.6-0.28-2.06-0.8c-0.54-0.57-0.74-1.5-0.74-2.73v-5.72h-1.63v-1.46h1.63v-2.51
			L502.64,678.18z"/>
		<path class="st3" d="M508.45,686.79c0.04,2.58,1.69,3.64,3.6,3.64c1.37,0,2.19-0.24,2.91-0.54l0.33,1.37
			c-0.67,0.3-1.82,0.65-3.49,0.65c-3.23,0-5.16-2.12-5.16-5.29c0-3.17,1.86-5.66,4.92-5.66c3.43,0,4.34,3.01,4.34,4.94
			c0,0.39-0.04,0.69-0.07,0.89H508.45z M514.04,685.42c0.02-1.22-0.5-3.1-2.64-3.1c-1.93,0-2.78,1.78-2.93,3.1H514.04z"/>
		<path class="st3" d="M518.25,684.47c0-1.24-0.02-2.3-0.09-3.28h1.67l0.07,2.06h0.09c0.48-1.41,1.63-2.3,2.91-2.3
			c0.22,0,0.37,0.02,0.54,0.06v1.8c-0.19-0.04-0.39-0.07-0.65-0.07c-1.34,0-2.3,1.02-2.56,2.45c-0.04,0.26-0.09,0.56-0.09,0.89v5.6
			h-1.89V684.47z"/>
		<path class="st3" d="M525.43,684.03c0-1.08-0.02-1.97-0.09-2.84h1.69l0.11,1.74h0.04c0.52-1,1.74-1.97,3.47-1.97
			c1.45,0,3.71,0.87,3.71,4.47v6.27h-1.91v-6.05c0-1.69-0.63-3.1-2.43-3.1c-1.26,0-2.23,0.89-2.56,1.95
			c-0.09,0.24-0.13,0.56-0.13,0.89v6.31h-1.91V684.03z"/>
		<path class="st3" d="M549.69,684.84h-5.68v5.27h6.33v1.58h-8.22v-14.62h7.89v1.58h-6.01v4.62h5.68V684.84z"/>
		<path class="st3" d="M561.35,688.83c0,1.09,0.02,2.04,0.09,2.86h-1.69l-0.11-1.71h-0.04c-0.5,0.84-1.6,1.95-3.47,1.95
			c-1.65,0-3.62-0.91-3.62-4.6v-6.14h1.91V687c0,1.99,0.61,3.34,2.34,3.34c1.28,0,2.17-0.89,2.52-1.74
			c0.11-0.28,0.17-0.63,0.17-0.98v-6.44h1.91V688.83z"/>
		<path class="st3" d="M564.52,684.47c0-1.24-0.02-2.3-0.09-3.28h1.67l0.07,2.06h0.09c0.48-1.41,1.63-2.3,2.91-2.3
			c0.22,0,0.37,0.02,0.54,0.06v1.8c-0.2-0.04-0.39-0.07-0.65-0.07c-1.34,0-2.3,1.02-2.56,2.45c-0.04,0.26-0.09,0.56-0.09,0.89v5.6
			h-1.89V684.47z"/>
		<path class="st3" d="M580.89,686.35c0,3.88-2.69,5.57-5.23,5.57c-2.84,0-5.03-2.08-5.03-5.4c0-3.51,2.3-5.57,5.2-5.57
			C578.85,680.96,580.89,683.14,580.89,686.35z M572.56,686.46c0,2.3,1.32,4.03,3.19,4.03c1.82,0,3.19-1.71,3.19-4.08
			c0-1.78-0.89-4.03-3.14-4.03C573.54,682.38,572.56,684.47,572.56,686.46z"/>
		<path class="st3" d="M583.29,684.62c0-1.34-0.04-2.43-0.09-3.43h1.71l0.09,1.8h0.04c0.78-1.28,2.02-2.04,3.73-2.04
			c2.54,0,4.45,2.14,4.45,5.33c0,3.77-2.3,5.64-4.77,5.64c-1.39,0-2.6-0.61-3.23-1.65h-0.04v5.7h-1.89V684.62z M585.18,687.42
			c0,0.28,0.04,0.54,0.09,0.78c0.35,1.32,1.5,2.23,2.86,2.23c2.02,0,3.19-1.65,3.19-4.05c0-2.11-1.11-3.9-3.12-3.9
			c-1.3,0-2.52,0.93-2.88,2.36c-0.07,0.24-0.13,0.52-0.13,0.78V687.42z"/>
		<path class="st3" d="M596.69,686.79c0.04,2.58,1.69,3.64,3.6,3.64c1.37,0,2.19-0.24,2.91-0.54l0.33,1.37
			c-0.67,0.3-1.82,0.65-3.49,0.65c-3.23,0-5.16-2.12-5.16-5.29c0-3.17,1.87-5.66,4.92-5.66c3.43,0,4.34,3.01,4.34,4.94
			c0,0.39-0.04,0.69-0.06,0.89H596.69z M602.28,685.42c0.02-1.22-0.5-3.1-2.65-3.1c-1.93,0-2.78,1.78-2.93,3.1H602.28z"/>
	</g>
	<g>
		<rect x="625.22" y="675.21" class="st4" width="17.74" height="17.74"/>
	</g>
	<g>
		<path class="st4" d="M652.43,687.09l-1.52,4.6h-1.95l4.97-14.62h2.28l4.99,14.62h-2.02l-1.56-4.6H652.43z M657.22,685.62
			l-1.43-4.21c-0.33-0.95-0.54-1.82-0.76-2.67h-0.04c-0.22,0.87-0.46,1.76-0.74,2.64l-1.43,4.23H657.22z"/>
		<path class="st4" d="M662.88,689.74c0.56,0.37,1.56,0.76,2.52,0.76c1.39,0,2.04-0.69,2.04-1.56c0-0.91-0.54-1.41-1.95-1.93
			c-1.89-0.67-2.78-1.71-2.78-2.97c0-1.69,1.37-3.08,3.62-3.08c1.06,0,2,0.3,2.58,0.65l-0.48,1.39c-0.41-0.26-1.17-0.61-2.15-0.61
			c-1.13,0-1.76,0.65-1.76,1.43c0,0.87,0.63,1.26,2,1.78c1.82,0.69,2.75,1.61,2.75,3.16c0,1.84-1.43,3.15-3.92,3.15
			c-1.15,0-2.21-0.28-2.95-0.72L662.88,689.74z"/>
		<path class="st4" d="M673.85,678.24c0.02,0.65-0.46,1.17-1.21,1.17c-0.67,0-1.15-0.52-1.15-1.17c0-0.67,0.5-1.19,1.19-1.19
			C673.39,677.05,673.85,677.57,673.85,678.24z M671.72,691.69v-10.5h1.91v10.5H671.72z"/>
		<path class="st4" d="M682.61,691.69l-0.15-1.32h-0.07c-0.59,0.82-1.71,1.56-3.21,1.56c-2.12,0-3.21-1.5-3.21-3.01
			c0-2.54,2.26-3.93,6.31-3.9v-0.22c0-0.87-0.24-2.43-2.38-2.43c-0.98,0-2,0.3-2.73,0.78l-0.43-1.25c0.87-0.57,2.12-0.93,3.45-0.93
			c3.21,0,3.99,2.19,3.99,4.29v3.92c0,0.91,0.04,1.8,0.17,2.52H682.61z M682.32,686.33c-2.08-0.04-4.44,0.33-4.44,2.36
			c0,1.24,0.82,1.82,1.8,1.82c1.37,0,2.23-0.87,2.54-1.76c0.07-0.19,0.11-0.41,0.11-0.6V686.33z"/>
		<path class="st4" d="M691.91,677.25c0.91-0.15,2.1-0.28,3.62-0.28c1.87,0,3.23,0.43,4.1,1.22c0.8,0.69,1.28,1.76,1.28,3.06
			c0,1.32-0.39,2.36-1.13,3.12c-1,1.06-2.62,1.61-4.47,1.61c-0.56,0-1.08-0.02-1.52-0.13v5.86h-1.89V677.25z M693.79,684.29
			c0.41,0.11,0.93,0.15,1.56,0.15c2.28,0,3.66-1.1,3.66-3.12c0-1.93-1.36-2.86-3.45-2.86c-0.82,0-1.45,0.07-1.78,0.15V684.29z"/>
		<path class="st4" d="M708.62,691.69l-0.15-1.32h-0.07c-0.59,0.82-1.71,1.56-3.21,1.56c-2.12,0-3.21-1.5-3.21-3.01
			c0-2.54,2.26-3.93,6.31-3.9v-0.22c0-0.87-0.24-2.43-2.39-2.43c-0.98,0-1.99,0.3-2.73,0.78l-0.43-1.25
			c0.87-0.57,2.12-0.93,3.45-0.93c3.21,0,3.99,2.19,3.99,4.29v3.92c0,0.91,0.04,1.8,0.17,2.52H708.62z M708.34,686.33
			c-2.08-0.04-4.44,0.33-4.44,2.36c0,1.24,0.82,1.82,1.8,1.82c1.37,0,2.23-0.87,2.54-1.76c0.07-0.19,0.11-0.41,0.11-0.6V686.33z"/>
		<path class="st4" d="M720.74,691.3c-0.5,0.26-1.6,0.61-3.01,0.61c-3.17,0-5.23-2.15-5.23-5.35c0-3.23,2.21-5.57,5.64-5.57
			c1.13,0,2.12,0.28,2.65,0.54l-0.43,1.47c-0.45-0.26-1.17-0.5-2.21-0.5c-2.41,0-3.71,1.78-3.71,3.97c0,2.43,1.56,3.93,3.64,3.93
			c1.08,0,1.8-0.28,2.34-0.52L720.74,691.3z"/>
		<path class="st4" d="M725.1,678.24c0.02,0.65-0.46,1.17-1.21,1.17c-0.67,0-1.15-0.52-1.15-1.17c0-0.67,0.5-1.19,1.19-1.19
			C724.64,677.05,725.1,677.57,725.1,678.24z M722.98,691.69v-10.5h1.91v10.5H722.98z"/>
		<path class="st4" d="M728.24,691.69v-9.04h-1.47v-1.46h1.47v-0.56c0-2.78,1.63-4.58,4.58-4.58c0.98,0,2.12,0.3,2.67,0.7
			l-0.54,1.45c-0.46-0.32-1.28-0.61-2.21-0.61c-2.02,0-2.6,1.41-2.6,3.08v0.52h6.09v10.5h-1.89v-9.04h-4.21v9.04H728.24z"/>
		<path class="st4" d="M746.87,691.3c-0.5,0.26-1.61,0.61-3.01,0.61c-3.16,0-5.23-2.15-5.23-5.35c0-3.23,2.21-5.57,5.64-5.57
			c1.13,0,2.12,0.28,2.65,0.54l-0.43,1.47c-0.45-0.26-1.17-0.5-2.21-0.5c-2.41,0-3.71,1.78-3.71,3.97c0,2.43,1.56,3.93,3.64,3.93
			c1.09,0,1.8-0.28,2.34-0.52L746.87,691.3z"/>
	</g>
	<g>
		<rect x="804.57" y="675.21" class="st5" width="17.74" height="17.74"/>
	</g>
	<g>
		<path class="st5" d="M829.42,677.07h1.89v13.03h6.25v1.58h-8.13V677.07z"/>
		<path class="st5" d="M845.4,691.69l-0.15-1.32h-0.07c-0.59,0.82-1.71,1.56-3.21,1.56c-2.12,0-3.21-1.5-3.21-3.01
			c0-2.54,2.25-3.93,6.31-3.9v-0.22c0-0.87-0.24-2.43-2.38-2.43c-0.98,0-1.99,0.3-2.73,0.78l-0.43-1.25
			c0.87-0.57,2.12-0.93,3.45-0.93c3.21,0,3.99,2.19,3.99,4.29v3.92c0,0.91,0.04,1.8,0.17,2.52H845.4z M845.12,686.33
			c-2.08-0.04-4.45,0.33-4.45,2.36c0,1.24,0.82,1.82,1.8,1.82c1.37,0,2.23-0.87,2.54-1.76c0.07-0.19,0.11-0.41,0.11-0.6V686.33z"/>
		<path class="st5" d="M852.25,678.18v3.01h2.73v1.46h-2.73v5.66c0,1.3,0.37,2.04,1.43,2.04c0.5,0,0.87-0.07,1.1-0.13l0.09,1.43
			c-0.37,0.15-0.95,0.26-1.69,0.26c-0.89,0-1.61-0.28-2.06-0.8c-0.54-0.57-0.74-1.5-0.74-2.73v-5.72h-1.63v-1.46h1.63v-2.51
			L852.25,678.18z"/>
		<path class="st5" d="M859.25,678.24c0.02,0.65-0.45,1.17-1.21,1.17c-0.67,0-1.15-0.52-1.15-1.17c0-0.67,0.5-1.19,1.19-1.19
			C858.8,677.05,859.25,677.57,859.25,678.24z M857.13,691.69v-10.5h1.91v10.5H857.13z"/>
		<path class="st5" d="M862.2,684.03c0-1.08-0.02-1.97-0.09-2.84h1.69l0.11,1.74h0.04c0.52-1,1.73-1.97,3.47-1.97
			c1.45,0,3.71,0.87,3.71,4.47v6.27h-1.91v-6.05c0-1.69-0.63-3.1-2.43-3.1c-1.26,0-2.23,0.89-2.56,1.95
			c-0.09,0.24-0.13,0.56-0.13,0.89v6.31h-1.91V684.03z"/>
		<path class="st5" d="M881.26,687.09l-1.52,4.6h-1.95l4.96-14.62h2.28l4.99,14.62H888l-1.56-4.6H881.26z M886.05,685.62l-1.43-4.21
			c-0.33-0.95-0.54-1.82-0.76-2.67h-0.04c-0.22,0.87-0.45,1.76-0.74,2.64l-1.43,4.23H886.05z"/>
		<path class="st5" d="M892.03,684.03c0-1.08-0.02-1.97-0.09-2.84h1.67l0.09,1.69h0.06c0.59-1,1.56-1.93,3.3-1.93
			c1.43,0,2.52,0.87,2.97,2.1h0.04c0.33-0.59,0.74-1.04,1.17-1.37c0.63-0.48,1.32-0.74,2.32-0.74c1.39,0,3.45,0.91,3.45,4.55v6.18
			h-1.87v-5.94c0-2.01-0.74-3.23-2.28-3.23c-1.08,0-1.93,0.8-2.26,1.74c-0.09,0.26-0.15,0.6-0.15,0.95v6.48h-1.86v-6.29
			c0-1.67-0.74-2.88-2.19-2.88c-1.19,0-2.06,0.95-2.36,1.91c-0.11,0.28-0.15,0.6-0.15,0.93v6.33h-1.87V684.03z"/>
		<path class="st5" d="M911.18,686.79c0.04,2.58,1.69,3.64,3.6,3.64c1.37,0,2.19-0.24,2.91-0.54l0.33,1.37
			c-0.67,0.3-1.82,0.65-3.49,0.65c-3.23,0-5.16-2.12-5.16-5.29c0-3.17,1.87-5.66,4.92-5.66c3.43,0,4.34,3.01,4.34,4.94
			c0,0.39-0.04,0.69-0.06,0.89H911.18z M916.77,685.42c0.02-1.22-0.5-3.1-2.65-3.1c-1.93,0-2.78,1.78-2.93,3.1H916.77z"/>
		<path class="st5" d="M920.98,684.47c0-1.24-0.02-2.3-0.09-3.28h1.67l0.07,2.06h0.09c0.48-1.41,1.63-2.3,2.9-2.3
			c0.22,0,0.37,0.02,0.54,0.06v1.8c-0.19-0.04-0.39-0.07-0.65-0.07c-1.34,0-2.3,1.02-2.56,2.45c-0.04,0.26-0.09,0.56-0.09,0.89v5.6
			h-1.89V684.47z"/>
		<path class="st5" d="M930.28,678.24c0.02,0.65-0.46,1.17-1.21,1.17c-0.67,0-1.15-0.52-1.15-1.17c0-0.67,0.5-1.19,1.19-1.19
			C929.82,677.05,930.28,677.57,930.28,678.24z M928.15,691.69v-10.5h1.91v10.5H928.15z"/>
		<path class="st5" d="M940.71,691.3c-0.5,0.26-1.61,0.61-3.01,0.61c-3.16,0-5.23-2.15-5.23-5.35c0-3.23,2.21-5.57,5.64-5.57
			c1.13,0,2.12,0.28,2.65,0.54l-0.43,1.47c-0.45-0.26-1.17-0.5-2.21-0.5c-2.41,0-3.71,1.78-3.71,3.97c0,2.43,1.56,3.93,3.64,3.93
			c1.09,0,1.8-0.28,2.34-0.52L940.71,691.3z"/>
		<path class="st5" d="M948.75,691.69l-0.15-1.32h-0.07c-0.59,0.82-1.71,1.56-3.21,1.56c-2.12,0-3.21-1.5-3.21-3.01
			c0-2.54,2.25-3.93,6.31-3.9v-0.22c0-0.87-0.24-2.43-2.38-2.43c-0.98,0-2,0.3-2.73,0.78l-0.43-1.25c0.87-0.57,2.12-0.93,3.45-0.93
			c3.21,0,3.99,2.19,3.99,4.29v3.92c0,0.91,0.04,1.8,0.17,2.52H948.75z M948.47,686.33c-2.08-0.04-4.44,0.33-4.44,2.36
			c0,1.24,0.82,1.82,1.8,1.82c1.37,0,2.23-0.87,2.54-1.76c0.07-0.19,0.11-0.41,0.11-0.6V686.33z"/>
	</g>
	<g>
		<rect x="983.93" y="675.21" class="st6" width="17.74" height="17.74"/>
	</g>
	<g>
		<path class="st7" d="M1021.1,685.27c-0.11-2.04-0.24-4.49-0.22-6.31h-0.06c-0.5,1.71-1.11,3.53-1.84,5.55l-2.58,7.09h-1.43
			l-2.36-6.96c-0.69-2.06-1.28-3.95-1.69-5.68h-0.04c-0.04,1.82-0.15,4.27-0.28,6.46l-0.39,6.27h-1.8l1.02-14.62h2.41l2.49,7.07
			c0.61,1.8,1.11,3.4,1.47,4.92h0.07c0.37-1.47,0.89-3.08,1.54-4.92l2.6-7.07h2.41l0.91,14.62h-1.84L1021.1,685.27z"/>
		<path class="st7" d="M1028.53,678.24c0.02,0.65-0.46,1.17-1.21,1.17c-0.67,0-1.15-0.52-1.15-1.17c0-0.67,0.5-1.19,1.19-1.19
			C1028.08,677.05,1028.53,677.57,1028.53,678.24z M1026.41,691.69v-10.5h1.91v10.5H1026.41z"/>
		<path class="st7" d="M1040.54,676.29v12.69c0,0.93,0.02,1.99,0.09,2.71h-1.71l-0.09-1.82h-0.04c-0.59,1.17-1.87,2.06-3.58,2.06
			c-2.54,0-4.49-2.15-4.49-5.34c-0.02-3.49,2.15-5.64,4.71-5.64c1.6,0,2.69,0.76,3.16,1.6h0.04v-6.27H1040.54z M1038.63,685.46
			c0-0.24-0.02-0.56-0.09-0.8c-0.28-1.22-1.32-2.21-2.75-2.21c-1.97,0-3.14,1.74-3.14,4.06c0,2.12,1.04,3.88,3.1,3.88
			c1.28,0,2.45-0.85,2.8-2.28c0.07-0.26,0.09-0.52,0.09-0.82V685.46z"/>
		<path class="st7" d="M1052.77,676.29v12.69c0,0.93,0.02,1.99,0.09,2.71h-1.71l-0.09-1.82h-0.04c-0.59,1.17-1.87,2.06-3.58,2.06
			c-2.54,0-4.49-2.15-4.49-5.34c-0.02-3.49,2.15-5.64,4.7-5.64c1.61,0,2.69,0.76,3.17,1.6h0.04v-6.27H1052.77z M1050.86,685.46
			c0-0.24-0.02-0.56-0.09-0.8c-0.28-1.22-1.32-2.21-2.75-2.21c-1.97,0-3.15,1.74-3.15,4.06c0,2.12,1.04,3.88,3.1,3.88
			c1.28,0,2.45-0.85,2.8-2.28c0.06-0.26,0.09-0.52,0.09-0.82V685.46z"/>
		<path class="st7" d="M1055.93,676.29h1.91v15.4h-1.91V676.29z"/>
		<path class="st7" d="M1062.11,686.79c0.04,2.58,1.69,3.64,3.6,3.64c1.37,0,2.19-0.24,2.91-0.54l0.33,1.37
			c-0.67,0.3-1.82,0.65-3.49,0.65c-3.23,0-5.16-2.12-5.16-5.29c0-3.17,1.87-5.66,4.92-5.66c3.43,0,4.34,3.01,4.34,4.94
			c0,0.39-0.04,0.69-0.06,0.89H1062.11z M1067.71,685.42c0.02-1.22-0.5-3.1-2.65-3.1c-1.93,0-2.78,1.78-2.93,3.1H1067.71z"/>
		<path class="st7" d="M1084.14,684.84h-5.68v5.27h6.33v1.58h-8.22v-14.62h7.89v1.58h-6.01v4.62h5.68V684.84z"/>
		<path class="st7" d="M1092.99,691.69l-0.15-1.32h-0.07c-0.59,0.82-1.71,1.56-3.21,1.56c-2.12,0-3.21-1.5-3.21-3.01
			c0-2.54,2.26-3.93,6.31-3.9v-0.22c0-0.87-0.24-2.43-2.38-2.43c-0.98,0-2,0.3-2.73,0.78l-0.43-1.25c0.87-0.57,2.12-0.93,3.45-0.93
			c3.21,0,3.99,2.19,3.99,4.29v3.92c0,0.91,0.04,1.8,0.17,2.52H1092.99z M1092.71,686.33c-2.08-0.04-4.45,0.33-4.45,2.36
			c0,1.24,0.82,1.82,1.8,1.82c1.37,0,2.23-0.87,2.54-1.76c0.07-0.19,0.11-0.41,0.11-0.6V686.33z"/>
		<path class="st7" d="M1097.37,689.74c0.56,0.37,1.56,0.76,2.52,0.76c1.39,0,2.04-0.69,2.04-1.56c0-0.91-0.54-1.41-1.95-1.93
			c-1.89-0.67-2.78-1.71-2.78-2.97c0-1.69,1.37-3.08,3.62-3.08c1.06,0,2,0.3,2.58,0.65l-0.48,1.39c-0.41-0.26-1.17-0.61-2.15-0.61
			c-1.13,0-1.76,0.65-1.76,1.43c0,0.87,0.63,1.26,2,1.78c1.82,0.69,2.75,1.61,2.75,3.16c0,1.84-1.43,3.15-3.92,3.15
			c-1.15,0-2.21-0.28-2.95-0.72L1097.37,689.74z"/>
		<path class="st7" d="M1108.51,678.18v3.01h2.73v1.46h-2.73v5.66c0,1.3,0.37,2.04,1.43,2.04c0.5,0,0.87-0.07,1.11-0.13l0.09,1.43
			c-0.37,0.15-0.95,0.26-1.69,0.26c-0.89,0-1.61-0.28-2.06-0.8c-0.54-0.57-0.74-1.5-0.74-2.73v-5.72h-1.63v-1.46h1.63v-2.51
			L1108.51,678.18z"/>
		<path class="st7" d="M1127.2,691.69c-0.41-0.41-0.8-0.82-1.37-1.43c-1.26,1.17-2.67,1.67-4.27,1.67c-2.84,0-4.49-1.91-4.49-4.1
			c0-1.99,1.19-3.36,2.86-4.27v-0.06c-0.76-0.95-1.21-2.02-1.21-3.06c0-1.78,1.28-3.6,3.71-3.6c1.82,0,3.23,1.22,3.23,3.1
			c0,1.54-0.89,2.75-3.21,3.9v0.07c1.24,1.43,2.62,3.03,3.56,4.08c0.67-1.02,1.13-2.43,1.41-4.27h1.74c-0.39,2.3-1.02,4.12-2.1,5.4
			c0.78,0.82,1.54,1.65,2.41,2.58H1127.2z M1124.9,689.17c-0.87-0.95-2.49-2.73-4.12-4.6c-0.78,0.5-1.89,1.43-1.89,2.97
			c0,1.67,1.24,2.95,2.99,2.95C1123.14,690.5,1124.21,689.93,1124.9,689.17z M1120.46,680.26c0,1.04,0.48,1.84,1.11,2.63
			c1.47-0.85,2.43-1.63,2.43-2.86c0-0.89-0.5-1.89-1.69-1.89C1121.08,678.13,1120.46,679.13,1120.46,680.26z"/>
		<path class="st7" d="M1138.12,687.09l-1.52,4.6h-1.95l4.97-14.62h2.28l4.99,14.62h-2.02l-1.56-4.6H1138.12z M1142.92,685.62
			l-1.43-4.21c-0.33-0.95-0.54-1.82-0.76-2.67h-0.04c-0.22,0.87-0.46,1.76-0.74,2.64l-1.43,4.23H1142.92z"/>
		<path class="st7" d="M1149.01,691.69v-9.04h-1.47v-1.46h1.47v-0.5c0-1.47,0.33-2.82,1.21-3.66c0.71-0.69,1.67-0.98,2.56-0.98
			c0.67,0,1.26,0.15,1.63,0.3l-0.26,1.47c-0.28-0.13-0.67-0.24-1.21-0.24c-1.63,0-2.04,1.43-2.04,3.04v0.56h2.54v1.46h-2.54v9.04
			H1149.01z"/>
		<path class="st7" d="M1155.14,684.47c0-1.24-0.02-2.3-0.09-3.28h1.67l0.06,2.06h0.09c0.48-1.41,1.62-2.3,2.9-2.3
			c0.22,0,0.37,0.02,0.54,0.06v1.8c-0.2-0.04-0.39-0.07-0.65-0.07c-1.35,0-2.3,1.02-2.56,2.45c-0.04,0.26-0.09,0.56-0.09,0.89v5.6
			h-1.89V684.47z"/>
		<path class="st7" d="M1164.44,678.24c0.02,0.65-0.45,1.17-1.21,1.17c-0.67,0-1.15-0.52-1.15-1.17c0-0.67,0.5-1.19,1.19-1.19
			C1163.99,677.05,1164.44,677.57,1164.44,678.24z M1162.32,691.69v-10.5h1.91v10.5H1162.32z"/>
		<path class="st7" d="M1174.87,691.3c-0.5,0.26-1.61,0.61-3.01,0.61c-3.17,0-5.23-2.15-5.23-5.35c0-3.23,2.21-5.57,5.64-5.57
			c1.13,0,2.12,0.28,2.65,0.54l-0.43,1.47c-0.45-0.26-1.17-0.5-2.21-0.5c-2.41,0-3.71,1.78-3.71,3.97c0,2.43,1.56,3.93,3.64,3.93
			c1.08,0,1.8-0.28,2.34-0.52L1174.87,691.3z"/>
		<path class="st7" d="M1182.92,691.69l-0.15-1.32h-0.07c-0.59,0.82-1.71,1.56-3.21,1.56c-2.12,0-3.21-1.5-3.21-3.01
			c0-2.54,2.26-3.93,6.31-3.9v-0.22c0-0.87-0.24-2.43-2.38-2.43c-0.98,0-2,0.3-2.73,0.78l-0.43-1.25c0.87-0.57,2.12-0.93,3.45-0.93
			c3.21,0,3.99,2.19,3.99,4.29v3.92c0,0.91,0.04,1.8,0.17,2.52H1182.92z M1182.64,686.33c-2.08-0.04-4.44,0.33-4.44,2.36
			c0,1.24,0.82,1.82,1.8,1.82c1.37,0,2.23-0.87,2.54-1.76c0.07-0.19,0.11-0.41,0.11-0.6V686.33z"/>
	</g>
	<g>
		<path class="st8" d="M947.39,744.66c0.84,0.52,2.08,0.95,3.38,0.95c1.93,0,3.06-1.02,3.06-2.49c0-1.37-0.78-2.15-2.75-2.91
			c-2.38-0.85-3.86-2.08-3.86-4.14c0-2.28,1.89-3.97,4.73-3.97c1.5,0,2.58,0.35,3.23,0.72l-0.52,1.54
			c-0.48-0.26-1.45-0.69-2.78-0.69c-2,0-2.75,1.19-2.75,2.19c0,1.37,0.89,2.04,2.91,2.82c2.47,0.95,3.73,2.15,3.73,4.29
			c0,2.26-1.67,4.21-5.12,4.21c-1.41,0-2.95-0.41-3.73-0.93L947.39,744.66z"/>
		<path class="st8" d="M967.9,741.63c0,3.88-2.69,5.57-5.23,5.57c-2.84,0-5.03-2.08-5.03-5.4c0-3.51,2.3-5.57,5.2-5.57
			C965.86,736.23,967.9,738.42,967.9,741.63z M959.58,741.73c0,2.3,1.32,4.03,3.19,4.03c1.82,0,3.19-1.71,3.19-4.08
			c0-1.78-0.89-4.03-3.15-4.03C960.55,737.66,959.58,739.74,959.58,741.73z"/>
		<path class="st8" d="M979.09,744.1c0,1.09,0.02,2.04,0.08,2.86h-1.69l-0.11-1.71h-0.04c-0.5,0.84-1.61,1.95-3.47,1.95
			c-1.65,0-3.62-0.91-3.62-4.6v-6.14h1.91v5.81c0,1.99,0.61,3.34,2.34,3.34c1.28,0,2.17-0.89,2.52-1.74
			c0.11-0.28,0.17-0.63,0.17-0.98v-6.44h1.91V744.1z"/>
		<path class="st8" d="M982.25,739.74c0-1.24-0.02-2.3-0.09-3.28h1.67l0.07,2.06h0.09c0.48-1.41,1.63-2.3,2.9-2.3
			c0.22,0,0.37,0.02,0.54,0.06v1.8c-0.2-0.04-0.39-0.07-0.65-0.07c-1.34,0-2.3,1.02-2.56,2.45c-0.04,0.26-0.08,0.56-0.08,0.89v5.6
			h-1.89V739.74z"/>
		<path class="st8" d="M996.61,746.57c-0.5,0.26-1.61,0.61-3.01,0.61c-3.17,0-5.23-2.15-5.23-5.35c0-3.23,2.21-5.57,5.64-5.57
			c1.13,0,2.12,0.28,2.64,0.54l-0.43,1.47c-0.46-0.26-1.17-0.5-2.21-0.5c-2.41,0-3.71,1.78-3.71,3.97c0,2.43,1.56,3.93,3.64,3.93
			c1.08,0,1.8-0.28,2.34-0.52L996.61,746.57z"/>
		<path class="st8" d="M999.77,742.06c0.04,2.58,1.69,3.64,3.6,3.64c1.37,0,2.19-0.24,2.9-0.54l0.33,1.37
			c-0.67,0.3-1.82,0.65-3.49,0.65c-3.23,0-5.16-2.12-5.16-5.29c0-3.17,1.87-5.66,4.92-5.66c3.43,0,4.34,3.01,4.34,4.94
			c0,0.39-0.04,0.69-0.07,0.89H999.77z M1005.37,740.69c0.02-1.22-0.5-3.1-2.64-3.1c-1.93,0-2.78,1.78-2.93,3.1H1005.37z"/>
		<path class="st8" d="M1009.12,738.2c0-0.8,0.54-1.37,1.3-1.37c0.76,0,1.26,0.57,1.28,1.37c0,0.76-0.5,1.34-1.3,1.34
			C1009.64,739.54,1009.12,738.96,1009.12,738.2z M1009.12,745.85c0-0.8,0.54-1.36,1.3-1.36c0.76,0,1.26,0.56,1.28,1.36
			c0,0.76-0.5,1.35-1.3,1.35C1009.64,747.2,1009.12,746.61,1009.12,745.85z"/>
		<path class="st8" d="M1018.72,746.96v-14.62h2.06l4.68,7.39c1.08,1.71,1.93,3.25,2.62,4.75l0.04-0.02
			c-0.17-1.95-0.22-3.73-0.22-6.01v-6.12h1.78v14.62h-1.91l-4.64-7.42c-1.02-1.62-1.99-3.3-2.73-4.88l-0.07,0.02
			c0.11,1.84,0.15,3.6,0.15,6.03v6.24H1018.72z"/>
		<path class="st8" d="M1038.73,746.96l-0.15-1.32h-0.07c-0.59,0.82-1.71,1.56-3.21,1.56c-2.12,0-3.21-1.5-3.21-3.01
			c0-2.54,2.25-3.93,6.31-3.9v-0.22c0-0.87-0.24-2.43-2.38-2.43c-0.98,0-1.99,0.3-2.73,0.78l-0.43-1.25
			c0.87-0.57,2.12-0.93,3.45-0.93c3.21,0,3.99,2.19,3.99,4.29v3.92c0,0.91,0.04,1.8,0.17,2.52H1038.73z M1038.45,741.6
			c-2.08-0.04-4.45,0.33-4.45,2.36c0,1.24,0.82,1.82,1.8,1.82c1.37,0,2.23-0.87,2.54-1.76c0.07-0.19,0.11-0.41,0.11-0.6V741.6z"/>
		<path class="st8" d="M1043.94,736.46l2.06,5.9c0.35,0.95,0.63,1.82,0.85,2.69h0.06c0.24-0.87,0.54-1.74,0.89-2.69l2.04-5.9h2
			l-4.12,10.5h-1.82l-3.99-10.5H1043.94z"/>
		<path class="st8" d="M1055.75,733.51c0.02,0.65-0.46,1.17-1.21,1.17c-0.67,0-1.15-0.52-1.15-1.17c0-0.67,0.5-1.19,1.19-1.19
			C1055.3,732.33,1055.75,732.84,1055.75,733.51z M1053.63,746.96v-10.5h1.91v10.5H1053.63z"/>
		<path class="st8" d="M1067.74,736.46c-0.04,0.76-0.09,1.61-0.09,2.89v6.09c0,2.41-0.48,3.88-1.5,4.79
			c-1.02,0.95-2.49,1.26-3.82,1.26c-1.26,0-2.64-0.3-3.49-0.87l0.48-1.46c0.69,0.44,1.78,0.82,3.08,0.82c1.95,0,3.38-1.02,3.38-3.66
			v-1.17h-0.04c-0.59,0.98-1.71,1.76-3.34,1.76c-2.6,0-4.47-2.21-4.47-5.12c0-3.56,2.32-5.57,4.73-5.57c1.82,0,2.82,0.95,3.27,1.82
			h0.04l0.09-1.59H1067.74z M1065.77,740.61c0-0.32-0.02-0.6-0.11-0.87c-0.35-1.1-1.28-2.02-2.67-2.02c-1.82,0-3.12,1.54-3.12,3.97
			c0,2.06,1.04,3.77,3.1,3.77c1.17,0,2.23-0.74,2.64-1.95c0.11-0.32,0.15-0.69,0.15-1.02V740.61z"/>
		<path class="st8" d="M1076.63,746.96l-0.15-1.32h-0.07c-0.59,0.82-1.71,1.56-3.21,1.56c-2.12,0-3.21-1.5-3.21-3.01
			c0-2.54,2.26-3.93,6.31-3.9v-0.22c0-0.87-0.24-2.43-2.38-2.43c-0.98,0-2,0.3-2.73,0.78l-0.44-1.25c0.87-0.57,2.12-0.93,3.45-0.93
			c3.21,0,3.99,2.19,3.99,4.29v3.92c0,0.91,0.04,1.8,0.17,2.52H1076.63z M1076.35,741.6c-2.08-0.04-4.45,0.33-4.45,2.36
			c0,1.24,0.82,1.82,1.8,1.82c1.37,0,2.23-0.87,2.54-1.76c0.07-0.19,0.11-0.41,0.11-0.6V741.6z"/>
		<path class="st8" d="M1081.27,739.3c0-1.08-0.02-1.97-0.09-2.84h1.69l0.11,1.74h0.04c0.52-1,1.73-1.97,3.47-1.97
			c1.45,0,3.71,0.87,3.71,4.47v6.27h-1.91v-6.05c0-1.69-0.63-3.1-2.43-3.1c-1.26,0-2.23,0.89-2.56,1.95
			c-0.09,0.24-0.13,0.56-0.13,0.89v6.31h-1.91V739.3z"/>
		<path class="st8" d="M1095.51,733.45v3.01h2.73v1.46h-2.73v5.66c0,1.3,0.37,2.04,1.43,2.04c0.5,0,0.87-0.07,1.11-0.13l0.09,1.43
			c-0.37,0.15-0.95,0.26-1.69,0.26c-0.89,0-1.61-0.28-2.06-0.8c-0.54-0.57-0.74-1.5-0.74-2.73v-5.72h-1.63v-1.46h1.63v-2.51
			L1095.51,733.45z"/>
		<path class="st8" d="M1105.05,732.54c0.95-0.2,2.32-0.3,3.62-0.3c2.02,0,3.32,0.37,4.23,1.19c0.74,0.65,1.15,1.65,1.15,2.78
			c0,1.93-1.21,3.21-2.75,3.73V740c1.13,0.39,1.8,1.43,2.15,2.95c0.48,2.04,0.83,3.45,1.13,4.01h-1.95
			c-0.24-0.41-0.56-1.67-0.98-3.49c-0.43-2.02-1.21-2.78-2.93-2.84h-1.78v6.33h-1.89V732.54z M1106.94,739.2h1.93
			c2.02,0,3.3-1.1,3.3-2.78c0-1.89-1.37-2.71-3.36-2.73c-0.91,0-1.56,0.09-1.86,0.18V739.2z"/>
		<path class="st8" d="M1117.8,742.06c0.04,2.58,1.69,3.64,3.6,3.64c1.37,0,2.19-0.24,2.9-0.54l0.33,1.37
			c-0.67,0.3-1.82,0.65-3.49,0.65c-3.23,0-5.16-2.12-5.16-5.29c0-3.17,1.87-5.66,4.92-5.66c3.43,0,4.34,3.01,4.34,4.94
			c0,0.39-0.04,0.69-0.07,0.89H1117.8z M1123.39,740.69c0.02-1.22-0.5-3.1-2.64-3.1c-1.93,0-2.78,1.78-2.93,3.1H1123.39z"/>
		<path class="st8" d="M1127.34,745.01c0.56,0.37,1.56,0.76,2.52,0.76c1.39,0,2.04-0.69,2.04-1.56c0-0.91-0.54-1.41-1.95-1.93
			c-1.89-0.67-2.78-1.71-2.78-2.97c0-1.69,1.36-3.08,3.62-3.08c1.06,0,1.99,0.3,2.58,0.65l-0.48,1.39
			c-0.41-0.26-1.17-0.61-2.15-0.61c-1.13,0-1.76,0.65-1.76,1.43c0,0.87,0.63,1.26,1.99,1.78c1.82,0.69,2.75,1.61,2.75,3.16
			c0,1.84-1.43,3.15-3.92,3.15c-1.15,0-2.21-0.28-2.95-0.72L1127.34,745.01z"/>
		<path class="st8" d="M1137.25,742.06c0.04,2.58,1.69,3.64,3.6,3.64c1.37,0,2.19-0.24,2.91-0.54l0.33,1.37
			c-0.67,0.3-1.82,0.65-3.49,0.65c-3.23,0-5.16-2.12-5.16-5.29c0-3.17,1.87-5.66,4.92-5.66c3.43,0,4.34,3.01,4.34,4.94
			c0,0.39-0.04,0.69-0.06,0.89H1137.25z M1142.84,740.69c0.02-1.22-0.5-3.1-2.65-3.1c-1.93,0-2.78,1.78-2.93,3.1H1142.84z"/>
		<path class="st8" d="M1152.86,746.96l-0.15-1.32h-0.07c-0.59,0.82-1.71,1.56-3.21,1.56c-2.12,0-3.21-1.5-3.21-3.01
			c0-2.54,2.25-3.93,6.31-3.9v-0.22c0-0.87-0.24-2.43-2.38-2.43c-0.98,0-2,0.3-2.73,0.78l-0.43-1.25c0.87-0.57,2.12-0.93,3.45-0.93
			c3.21,0,3.99,2.19,3.99,4.29v3.92c0,0.91,0.04,1.8,0.17,2.52H1152.86z M1152.58,741.6c-2.08-0.04-4.44,0.33-4.44,2.36
			c0,1.24,0.82,1.82,1.8,1.82c1.37,0,2.23-0.87,2.54-1.76c0.07-0.19,0.11-0.41,0.11-0.6V741.6z"/>
		<path class="st8" d="M1157.5,739.74c0-1.24-0.02-2.3-0.09-3.28h1.67l0.07,2.06h0.09c0.48-1.41,1.63-2.3,2.91-2.3
			c0.22,0,0.37,0.02,0.54,0.06v1.8c-0.19-0.04-0.39-0.07-0.65-0.07c-1.34,0-2.3,1.02-2.56,2.45c-0.04,0.26-0.09,0.56-0.09,0.89v5.6
			h-1.89V739.74z"/>
		<path class="st8" d="M1171.85,746.57c-0.5,0.26-1.61,0.61-3.01,0.61c-3.16,0-5.23-2.15-5.23-5.35c0-3.23,2.21-5.57,5.64-5.57
			c1.13,0,2.12,0.28,2.65,0.54l-0.43,1.47c-0.45-0.26-1.17-0.5-2.21-0.5c-2.41,0-3.71,1.78-3.71,3.97c0,2.43,1.56,3.93,3.64,3.93
			c1.09,0,1.8-0.28,2.34-0.52L1171.85,746.57z"/>
		<path class="st8" d="M1174.08,731.56h1.91v6.55h0.04c0.3-0.54,0.78-1.02,1.36-1.35c0.56-0.32,1.24-0.54,1.95-0.54
			c1.41,0,3.66,0.87,3.66,4.49v6.24h-1.91v-6.03c0-1.69-0.63-3.12-2.43-3.12c-1.24,0-2.21,0.87-2.56,1.91
			c-0.11,0.26-0.13,0.54-0.13,0.91v6.33h-1.91V731.56z"/>
	</g>
	<g>
		<path class="st8" d="M159.85,604.34h-9.6v-1.91l4.53-4.83c0.62-0.68,1.08-1.27,1.38-1.78s0.45-0.99,0.45-1.44
			c0-0.62-0.16-1.11-0.47-1.47c-0.31-0.35-0.76-0.53-1.35-0.53c-0.63,0-1.13,0.22-1.49,0.65c-0.36,0.43-0.54,1-0.54,1.71h-2.79
			c0-0.85,0.2-1.63,0.61-2.34c0.41-0.71,0.98-1.26,1.73-1.66c0.74-0.4,1.59-0.6,2.53-0.6c1.44,0,2.56,0.35,3.36,1.04
			s1.2,1.67,1.2,2.94c0,0.69-0.18,1.4-0.54,2.12c-0.36,0.72-0.97,1.56-1.85,2.51l-3.19,3.36h6.02V604.34z"/>
		<path class="st8" d="M170.98,598.55c0,1.94-0.4,3.42-1.2,4.45c-0.8,1.03-1.98,1.54-3.52,1.54c-1.53,0-2.69-0.5-3.5-1.51
			s-1.22-2.45-1.24-4.33v-2.58c0-1.96,0.41-3.44,1.22-4.46c0.81-1.01,1.98-1.52,3.51-1.52c1.53,0,2.69,0.5,3.5,1.51
			c0.81,1,1.22,2.45,1.24,4.33V598.55z M168.2,595.71c0-1.16-0.16-2.01-0.48-2.54c-0.32-0.53-0.81-0.79-1.49-0.79
			c-0.65,0-1.14,0.25-1.45,0.76c-0.31,0.5-0.48,1.29-0.5,2.37v3.41c0,1.14,0.15,1.99,0.47,2.55c0.31,0.56,0.81,0.83,1.5,0.83
			c0.68,0,1.17-0.27,1.47-0.8c0.3-0.53,0.46-1.35,0.47-2.45V595.71z"/>
		<path class="st8" d="M182.47,604.34h-9.6v-1.91l4.53-4.83c0.62-0.68,1.08-1.27,1.38-1.78s0.45-0.99,0.45-1.44
			c0-0.62-0.16-1.11-0.47-1.47c-0.31-0.35-0.76-0.53-1.35-0.53c-0.63,0-1.13,0.22-1.49,0.65c-0.36,0.43-0.54,1-0.54,1.71h-2.79
			c0-0.85,0.2-1.63,0.61-2.34c0.41-0.71,0.98-1.26,1.73-1.66c0.74-0.4,1.59-0.6,2.53-0.6c1.44,0,2.56,0.35,3.36,1.04
			s1.2,1.67,1.2,2.94c0,0.69-0.18,1.4-0.54,2.12c-0.36,0.72-0.97,1.56-1.85,2.51l-3.19,3.36h6.02V604.34z"/>
		<path class="st8" d="M193.6,598.55c0,1.94-0.4,3.42-1.2,4.45c-0.8,1.03-1.98,1.54-3.52,1.54c-1.53,0-2.69-0.5-3.5-1.51
			c-0.81-1.01-1.22-2.45-1.24-4.33v-2.58c0-1.96,0.41-3.44,1.22-4.46c0.81-1.01,1.98-1.52,3.51-1.52s2.69,0.5,3.5,1.51
			c0.81,1,1.22,2.45,1.24,4.33V598.55z M190.82,595.71c0-1.16-0.16-2.01-0.48-2.54c-0.32-0.53-0.81-0.79-1.49-0.79
			c-0.65,0-1.14,0.25-1.45,0.76c-0.31,0.5-0.48,1.29-0.5,2.37v3.41c0,1.14,0.15,1.99,0.47,2.55c0.31,0.56,0.81,0.83,1.5,0.83
			c0.68,0,1.17-0.27,1.47-0.8c0.3-0.53,0.46-1.35,0.47-2.45V595.71z"/>
	</g>
	<g>
		<path class="st8" d="M257.52,604.34h-9.6v-1.91l4.53-4.83c0.62-0.68,1.08-1.27,1.38-1.78s0.45-0.99,0.45-1.44
			c0-0.62-0.16-1.11-0.47-1.47c-0.31-0.35-0.76-0.53-1.35-0.53c-0.63,0-1.13,0.22-1.49,0.65c-0.36,0.43-0.54,1-0.54,1.71h-2.79
			c0-0.85,0.2-1.63,0.61-2.34c0.41-0.71,0.98-1.26,1.73-1.66c0.74-0.4,1.59-0.6,2.53-0.6c1.44,0,2.56,0.35,3.36,1.04
			c0.8,0.69,1.2,1.67,1.2,2.94c0,0.69-0.18,1.4-0.54,2.12c-0.36,0.72-0.97,1.56-1.85,2.51l-3.19,3.36h6.02V604.34z"/>
		<path class="st8" d="M268.66,598.55c0,1.94-0.4,3.42-1.2,4.45c-0.8,1.03-1.98,1.54-3.52,1.54c-1.53,0-2.69-0.5-3.5-1.51
			c-0.81-1.01-1.22-2.45-1.24-4.33v-2.58c0-1.96,0.41-3.44,1.22-4.46c0.81-1.01,1.98-1.52,3.51-1.52s2.69,0.5,3.5,1.51
			c0.81,1,1.22,2.45,1.24,4.33V598.55z M265.87,595.71c0-1.16-0.16-2.01-0.48-2.54c-0.32-0.53-0.81-0.79-1.49-0.79
			c-0.65,0-1.14,0.25-1.45,0.76c-0.31,0.5-0.48,1.29-0.5,2.37v3.41c0,1.14,0.15,1.99,0.47,2.55c0.31,0.56,0.81,0.83,1.5,0.83
			c0.68,0,1.17-0.27,1.47-0.8c0.3-0.53,0.46-1.35,0.47-2.45V595.71z"/>
		<path class="st8" d="M280.14,604.34h-9.6v-1.91l4.53-4.83c0.62-0.68,1.08-1.27,1.38-1.78s0.45-0.99,0.45-1.44
			c0-0.62-0.16-1.11-0.47-1.47c-0.31-0.35-0.76-0.53-1.35-0.53c-0.63,0-1.13,0.22-1.49,0.65c-0.36,0.43-0.54,1-0.54,1.71h-2.79
			c0-0.85,0.2-1.63,0.61-2.34c0.41-0.71,0.98-1.26,1.73-1.66c0.74-0.4,1.59-0.6,2.53-0.6c1.44,0,2.56,0.35,3.36,1.04
			c0.8,0.69,1.2,1.67,1.2,2.94c0,0.69-0.18,1.4-0.54,2.12s-0.97,1.56-1.85,2.51l-3.19,3.36h6.02V604.34z"/>
		<path class="st8" d="M291.27,598.55c0,1.94-0.4,3.42-1.2,4.45c-0.8,1.03-1.98,1.54-3.52,1.54c-1.53,0-2.69-0.5-3.5-1.51
			s-1.22-2.45-1.24-4.33v-2.58c0-1.96,0.41-3.44,1.22-4.46c0.81-1.01,1.98-1.52,3.51-1.52c1.53,0,2.69,0.5,3.5,1.51
			c0.81,1,1.22,2.45,1.24,4.33V598.55z M288.49,595.71c0-1.16-0.16-2.01-0.48-2.54s-0.81-0.79-1.49-0.79
			c-0.65,0-1.14,0.25-1.45,0.76c-0.31,0.5-0.48,1.29-0.5,2.37v3.41c0,1.14,0.15,1.99,0.47,2.55c0.31,0.56,0.81,0.83,1.5,0.83
			c0.68,0,1.17-0.27,1.47-0.8c0.3-0.53,0.46-1.35,0.47-2.45V595.71z"/>
	</g>
	<g>
		<path class="st8" d="M351.86,604.34h-9.6v-1.91l4.53-4.83c0.62-0.68,1.08-1.27,1.38-1.78s0.45-0.99,0.45-1.44
			c0-0.62-0.16-1.11-0.47-1.47c-0.31-0.35-0.76-0.53-1.35-0.53c-0.63,0-1.12,0.22-1.49,0.65c-0.36,0.43-0.54,1-0.54,1.71h-2.79
			c0-0.85,0.2-1.63,0.61-2.34c0.41-0.71,0.98-1.26,1.73-1.66c0.74-0.4,1.59-0.6,2.53-0.6c1.44,0,2.56,0.35,3.36,1.04
			c0.8,0.69,1.2,1.67,1.2,2.94c0,0.69-0.18,1.4-0.54,2.12c-0.36,0.72-0.98,1.56-1.85,2.51l-3.19,3.36h6.02V604.34z"/>
		<path class="st8" d="M363,598.55c0,1.94-0.4,3.42-1.2,4.45c-0.8,1.03-1.98,1.54-3.52,1.54c-1.53,0-2.69-0.5-3.5-1.51
			s-1.22-2.45-1.24-4.33v-2.58c0-1.96,0.41-3.44,1.22-4.46c0.81-1.01,1.98-1.52,3.51-1.52c1.53,0,2.69,0.5,3.5,1.51
			c0.81,1,1.22,2.45,1.24,4.33V598.55z M360.21,595.71c0-1.16-0.16-2.01-0.48-2.54s-0.81-0.79-1.49-0.79
			c-0.65,0-1.14,0.25-1.45,0.76c-0.31,0.5-0.48,1.29-0.5,2.37v3.41c0,1.14,0.16,1.99,0.47,2.55c0.31,0.56,0.81,0.83,1.5,0.83
			c0.68,0,1.17-0.27,1.47-0.8c0.3-0.53,0.46-1.35,0.47-2.45V595.71z"/>
		<path class="st8" d="M374.48,604.34h-9.6v-1.91l4.53-4.83c0.62-0.68,1.08-1.27,1.38-1.78s0.45-0.99,0.45-1.44
			c0-0.62-0.16-1.11-0.47-1.47c-0.31-0.35-0.76-0.53-1.35-0.53c-0.63,0-1.12,0.22-1.49,0.65c-0.36,0.43-0.54,1-0.54,1.71h-2.79
			c0-0.85,0.2-1.63,0.61-2.34c0.41-0.71,0.98-1.26,1.73-1.66c0.74-0.4,1.59-0.6,2.53-0.6c1.44,0,2.56,0.35,3.36,1.04
			c0.8,0.69,1.2,1.67,1.2,2.94c0,0.69-0.18,1.4-0.54,2.12c-0.36,0.72-0.98,1.56-1.85,2.51l-3.19,3.36h6.02V604.34z"/>
		<path class="st8" d="M382.94,604.34h-2.78v-10.72l-3.32,1.03v-2.26l5.8-2.08h0.3V604.34z"/>
	</g>
	<g>
		<path class="st8" d="M447.31,604.34h-9.6v-1.91l4.53-4.83c0.62-0.68,1.08-1.27,1.38-1.78s0.45-0.99,0.45-1.44
			c0-0.62-0.16-1.11-0.47-1.47c-0.31-0.35-0.76-0.53-1.35-0.53c-0.63,0-1.12,0.22-1.49,0.65c-0.36,0.43-0.54,1-0.54,1.71h-2.79
			c0-0.85,0.2-1.63,0.61-2.34c0.41-0.71,0.98-1.26,1.73-1.66c0.74-0.4,1.59-0.6,2.53-0.6c1.44,0,2.56,0.35,3.36,1.04
			c0.8,0.69,1.2,1.67,1.2,2.94c0,0.69-0.18,1.4-0.54,2.12c-0.36,0.72-0.98,1.56-1.85,2.51l-3.19,3.36h6.02V604.34z"/>
		<path class="st8" d="M458.45,598.55c0,1.94-0.4,3.42-1.2,4.45c-0.8,1.03-1.98,1.54-3.52,1.54c-1.53,0-2.69-0.5-3.5-1.51
			s-1.22-2.45-1.24-4.33v-2.58c0-1.96,0.41-3.44,1.22-4.46c0.81-1.01,1.98-1.52,3.51-1.52c1.53,0,2.69,0.5,3.5,1.51
			c0.81,1,1.22,2.45,1.24,4.33V598.55z M455.67,595.71c0-1.16-0.16-2.01-0.48-2.54c-0.32-0.53-0.81-0.79-1.49-0.79
			c-0.65,0-1.14,0.25-1.45,0.76c-0.31,0.5-0.48,1.29-0.5,2.37v3.41c0,1.14,0.16,1.99,0.47,2.55c0.31,0.56,0.81,0.83,1.5,0.83
			c0.68,0,1.17-0.27,1.47-0.8c0.3-0.53,0.46-1.35,0.47-2.45V595.71z"/>
		<path class="st8" d="M469.93,604.34h-9.6v-1.91l4.53-4.83c0.62-0.68,1.08-1.27,1.38-1.78s0.45-0.99,0.45-1.44
			c0-0.62-0.16-1.11-0.47-1.47c-0.31-0.35-0.76-0.53-1.35-0.53c-0.63,0-1.12,0.22-1.49,0.65c-0.36,0.43-0.54,1-0.54,1.71h-2.79
			c0-0.85,0.2-1.63,0.61-2.34c0.41-0.71,0.98-1.26,1.73-1.66c0.74-0.4,1.59-0.6,2.53-0.6c1.44,0,2.56,0.35,3.36,1.04
			c0.8,0.69,1.2,1.67,1.2,2.94c0,0.69-0.18,1.4-0.54,2.12c-0.36,0.72-0.98,1.56-1.85,2.51l-3.19,3.36h6.02V604.34z"/>
		<path class="st8" d="M481.24,604.34h-9.6v-1.91l4.53-4.83c0.62-0.68,1.08-1.27,1.38-1.78s0.45-0.99,0.45-1.44
			c0-0.62-0.16-1.11-0.47-1.47c-0.31-0.35-0.76-0.53-1.35-0.53c-0.63,0-1.12,0.22-1.49,0.65c-0.36,0.43-0.54,1-0.54,1.71h-2.79
			c0-0.85,0.2-1.63,0.61-2.34c0.41-0.71,0.98-1.26,1.73-1.66c0.74-0.4,1.59-0.6,2.53-0.6c1.44,0,2.56,0.35,3.36,1.04
			c0.8,0.69,1.2,1.67,1.2,2.94c0,0.69-0.18,1.4-0.54,2.12c-0.36,0.72-0.98,1.56-1.85,2.51l-3.19,3.36h6.02V604.34z"/>
	</g>
	<g>
		<path class="st8" d="M540.54,604.34h-9.6v-1.91l4.53-4.83c0.62-0.68,1.08-1.27,1.38-1.78s0.45-0.99,0.45-1.44
			c0-0.62-0.16-1.11-0.47-1.47c-0.31-0.35-0.76-0.53-1.35-0.53c-0.63,0-1.12,0.22-1.49,0.65c-0.36,0.43-0.54,1-0.54,1.71h-2.79
			c0-0.85,0.2-1.63,0.61-2.34c0.41-0.71,0.98-1.26,1.73-1.66c0.74-0.4,1.59-0.6,2.53-0.6c1.44,0,2.56,0.35,3.36,1.04
			s1.2,1.67,1.2,2.94c0,0.69-0.18,1.4-0.54,2.12c-0.36,0.72-0.98,1.56-1.85,2.51l-3.19,3.36h6.02V604.34z"/>
		<path class="st8" d="M551.68,598.55c0,1.94-0.4,3.42-1.2,4.45c-0.8,1.03-1.98,1.54-3.52,1.54c-1.53,0-2.69-0.5-3.5-1.51
			s-1.22-2.45-1.24-4.33v-2.58c0-1.96,0.41-3.44,1.22-4.46c0.81-1.01,1.98-1.52,3.51-1.52c1.53,0,2.69,0.5,3.5,1.51
			c0.81,1,1.22,2.45,1.24,4.33V598.55z M548.9,595.71c0-1.16-0.16-2.01-0.48-2.54c-0.32-0.53-0.81-0.79-1.49-0.79
			c-0.65,0-1.14,0.25-1.45,0.76c-0.31,0.5-0.48,1.29-0.5,2.37v3.41c0,1.14,0.16,1.99,0.47,2.55c0.31,0.56,0.81,0.83,1.5,0.83
			c0.68,0,1.17-0.27,1.47-0.8c0.3-0.53,0.46-1.35,0.47-2.45V595.71z"/>
		<path class="st8" d="M563.16,604.34h-9.6v-1.91l4.53-4.83c0.62-0.68,1.08-1.27,1.38-1.78s0.45-0.99,0.45-1.44
			c0-0.62-0.16-1.11-0.47-1.47c-0.31-0.35-0.76-0.53-1.35-0.53c-0.63,0-1.12,0.22-1.49,0.65c-0.36,0.43-0.54,1-0.54,1.71h-2.79
			c0-0.85,0.2-1.63,0.61-2.34c0.41-0.71,0.98-1.26,1.73-1.66c0.74-0.4,1.59-0.6,2.53-0.6c1.44,0,2.56,0.35,3.36,1.04
			s1.2,1.67,1.2,2.94c0,0.69-0.18,1.4-0.54,2.12c-0.36,0.72-0.98,1.56-1.85,2.51l-3.19,3.36h6.02V604.34z"/>
		<path class="st8" d="M567.69,596.1h1.48c0.71,0,1.23-0.18,1.57-0.53c0.34-0.35,0.51-0.82,0.51-1.41c0-0.56-0.17-1-0.51-1.32
			c-0.34-0.31-0.8-0.47-1.39-0.47c-0.53,0-0.98,0.15-1.34,0.44c-0.36,0.29-0.54,0.67-0.54,1.14h-2.78c0-0.73,0.2-1.39,0.59-1.97
			c0.39-0.58,0.95-1.03,1.66-1.36s1.49-0.49,2.34-0.49c1.48,0,2.64,0.35,3.48,1.06c0.84,0.71,1.26,1.69,1.26,2.93
			c0,0.64-0.2,1.23-0.59,1.77c-0.39,0.54-0.9,0.95-1.54,1.24c0.79,0.28,1.38,0.71,1.77,1.27c0.39,0.56,0.58,1.23,0.58,2
			c0,1.25-0.45,2.24-1.36,2.99c-0.91,0.75-2.11,1.13-3.6,1.13c-1.4,0-2.54-0.37-3.43-1.11c-0.89-0.74-1.33-1.71-1.33-2.93h2.78
			c0,0.53,0.2,0.96,0.59,1.29c0.39,0.33,0.88,0.5,1.46,0.5c0.66,0,1.18-0.18,1.55-0.53c0.38-0.35,0.56-0.81,0.56-1.39
			c0-1.4-0.77-2.1-2.31-2.1h-1.47V596.1z"/>
	</g>
	<g>
		<path class="st8" d="M633.78,604.34h-9.6v-1.91l4.53-4.83c0.62-0.68,1.08-1.27,1.38-1.78s0.45-0.99,0.45-1.44
			c0-0.62-0.16-1.11-0.47-1.47c-0.32-0.35-0.76-0.53-1.35-0.53c-0.63,0-1.13,0.22-1.49,0.65c-0.36,0.43-0.54,1-0.54,1.71h-2.79
			c0-0.85,0.2-1.63,0.61-2.34c0.41-0.71,0.98-1.26,1.73-1.66c0.74-0.4,1.59-0.6,2.53-0.6c1.44,0,2.57,0.35,3.36,1.04
			s1.2,1.67,1.2,2.94c0,0.69-0.18,1.4-0.54,2.12c-0.36,0.72-0.97,1.56-1.85,2.51l-3.18,3.36h6.02V604.34z"/>
		<path class="st8" d="M644.91,598.55c0,1.94-0.4,3.42-1.2,4.45c-0.8,1.03-1.98,1.54-3.52,1.54c-1.53,0-2.69-0.5-3.5-1.51
			s-1.22-2.45-1.24-4.33v-2.58c0-1.96,0.41-3.44,1.22-4.46s1.98-1.52,3.51-1.52c1.53,0,2.69,0.5,3.5,1.51
			c0.81,1,1.22,2.45,1.24,4.33V598.55z M642.13,595.71c0-1.16-0.16-2.01-0.48-2.54s-0.81-0.79-1.49-0.79
			c-0.65,0-1.14,0.25-1.45,0.76c-0.31,0.5-0.48,1.29-0.49,2.37v3.41c0,1.14,0.15,1.99,0.47,2.55c0.31,0.56,0.81,0.83,1.5,0.83
			c0.68,0,1.17-0.27,1.47-0.8c0.3-0.53,0.46-1.35,0.47-2.45V595.71z"/>
		<path class="st8" d="M656.39,604.34h-9.6v-1.91l4.53-4.83c0.62-0.68,1.08-1.27,1.38-1.78s0.45-0.99,0.45-1.44
			c0-0.62-0.16-1.11-0.47-1.47c-0.32-0.35-0.76-0.53-1.35-0.53c-0.63,0-1.13,0.22-1.49,0.65c-0.36,0.43-0.54,1-0.54,1.71h-2.79
			c0-0.85,0.2-1.63,0.61-2.34c0.41-0.71,0.98-1.26,1.73-1.66c0.74-0.4,1.59-0.6,2.53-0.6c1.44,0,2.57,0.35,3.36,1.04
			c0.8,0.69,1.2,1.67,1.2,2.94c0,0.69-0.18,1.4-0.54,2.12c-0.36,0.72-0.97,1.56-1.85,2.51l-3.18,3.36h6.02V604.34z"/>
		<path class="st8" d="M666.32,599.07h1.59v2.24h-1.59v3.03h-2.78v-3.03h-5.74l-0.13-1.75l5.84-9.23h2.81V599.07z M660.44,599.07
			h3.1v-4.95l-0.18,0.32L660.44,599.07z"/>
	</g>
	<g>
		<path class="st8" d="M728.11,604.34h-9.6v-1.91l4.53-4.83c0.62-0.68,1.08-1.27,1.38-1.78c0.3-0.51,0.45-0.99,0.45-1.44
			c0-0.62-0.16-1.11-0.47-1.47c-0.31-0.35-0.76-0.53-1.35-0.53c-0.63,0-1.12,0.22-1.49,0.65c-0.36,0.43-0.54,1-0.54,1.71h-2.79
			c0-0.85,0.2-1.63,0.61-2.34c0.41-0.71,0.98-1.26,1.73-1.66c0.74-0.4,1.59-0.6,2.53-0.6c1.44,0,2.56,0.35,3.36,1.04
			c0.8,0.69,1.2,1.67,1.2,2.94c0,0.69-0.18,1.4-0.54,2.12s-0.98,1.56-1.85,2.51l-3.19,3.36h6.02V604.34z"/>
		<path class="st8" d="M739.25,598.55c0,1.94-0.4,3.42-1.2,4.45c-0.8,1.03-1.98,1.54-3.52,1.54c-1.53,0-2.69-0.5-3.5-1.51
			s-1.22-2.45-1.24-4.33v-2.58c0-1.96,0.41-3.44,1.22-4.46c0.81-1.01,1.98-1.52,3.51-1.52s2.69,0.5,3.5,1.51
			c0.81,1,1.22,2.45,1.24,4.33V598.55z M736.47,595.71c0-1.16-0.16-2.01-0.48-2.54c-0.32-0.53-0.81-0.79-1.49-0.79
			c-0.65,0-1.14,0.25-1.45,0.76c-0.31,0.5-0.48,1.29-0.49,2.37v3.41c0,1.14,0.16,1.99,0.47,2.55c0.31,0.56,0.81,0.83,1.5,0.83
			c0.68,0,1.17-0.27,1.47-0.8c0.3-0.53,0.46-1.35,0.47-2.45V595.71z"/>
		<path class="st8" d="M750.73,604.34h-9.6v-1.91l4.53-4.83c0.62-0.68,1.08-1.27,1.38-1.78c0.3-0.51,0.45-0.99,0.45-1.44
			c0-0.62-0.16-1.11-0.47-1.47c-0.31-0.35-0.76-0.53-1.35-0.53c-0.63,0-1.12,0.22-1.49,0.65c-0.36,0.43-0.54,1-0.54,1.71h-2.79
			c0-0.85,0.2-1.63,0.61-2.34c0.41-0.71,0.98-1.26,1.73-1.66c0.74-0.4,1.59-0.6,2.53-0.6c1.44,0,2.56,0.35,3.36,1.04
			c0.8,0.69,1.2,1.67,1.2,2.94c0,0.69-0.18,1.4-0.54,2.12s-0.98,1.56-1.85,2.51l-3.19,3.36h6.02V604.34z"/>
		<path class="st8" d="M752.85,597.45l0.81-7.12h7.85v2.32h-5.57l-0.35,3.01c0.66-0.35,1.36-0.53,2.11-0.53
			c1.33,0,2.38,0.41,3.14,1.24c0.76,0.83,1.14,1.99,1.14,3.47c0,0.9-0.19,1.71-0.57,2.43c-0.38,0.71-0.93,1.27-1.64,1.66
			c-0.71,0.4-1.55,0.59-2.52,0.59c-0.85,0-1.63-0.17-2.36-0.52c-0.73-0.34-1.3-0.83-1.72-1.45c-0.42-0.62-0.64-1.33-0.67-2.13h2.75
			c0.06,0.58,0.26,1.04,0.61,1.36c0.35,0.33,0.81,0.49,1.37,0.49c0.63,0,1.11-0.23,1.45-0.68c0.34-0.45,0.51-1.09,0.51-1.92
			c0-0.79-0.2-1.41-0.59-1.83s-0.95-0.64-1.66-0.64c-0.66,0-1.2,0.17-1.61,0.52l-0.27,0.25L752.85,597.45z"/>
	</g>
	<g>
		<path class="st8" d="M826.9,604.34h-9.6v-1.91l4.53-4.83c0.62-0.68,1.08-1.27,1.38-1.78s0.45-0.99,0.45-1.44
			c0-0.62-0.16-1.11-0.47-1.47c-0.32-0.35-0.76-0.53-1.35-0.53c-0.63,0-1.13,0.22-1.49,0.65c-0.36,0.43-0.54,1-0.54,1.71h-2.79
			c0-0.85,0.2-1.63,0.61-2.34c0.41-0.71,0.98-1.26,1.73-1.66c0.74-0.4,1.59-0.6,2.53-0.6c1.44,0,2.57,0.35,3.36,1.04
			s1.2,1.67,1.2,2.94c0,0.69-0.18,1.4-0.54,2.12c-0.36,0.72-0.97,1.56-1.85,2.51l-3.18,3.36h6.02V604.34z"/>
		<path class="st8" d="M838.03,598.55c0,1.94-0.4,3.42-1.2,4.45c-0.8,1.03-1.98,1.54-3.52,1.54c-1.53,0-2.69-0.5-3.5-1.51
			s-1.22-2.45-1.24-4.33v-2.58c0-1.96,0.41-3.44,1.22-4.46s1.98-1.52,3.51-1.52c1.53,0,2.69,0.5,3.5,1.51
			c0.81,1,1.22,2.45,1.24,4.33V598.55z M835.25,595.71c0-1.16-0.16-2.01-0.48-2.54s-0.81-0.79-1.49-0.79
			c-0.65,0-1.14,0.25-1.45,0.76c-0.31,0.5-0.48,1.29-0.49,2.37v3.41c0,1.14,0.15,1.99,0.47,2.55c0.31,0.56,0.81,0.83,1.5,0.83
			c0.68,0,1.17-0.27,1.47-0.8c0.3-0.53,0.46-1.35,0.47-2.45V595.71z"/>
		<path class="st8" d="M849.51,604.34h-9.6v-1.91l4.53-4.83c0.62-0.68,1.08-1.27,1.38-1.78s0.45-0.99,0.45-1.44
			c0-0.62-0.16-1.11-0.47-1.47c-0.32-0.35-0.76-0.53-1.35-0.53c-0.63,0-1.13,0.22-1.49,0.65c-0.36,0.43-0.54,1-0.54,1.71h-2.79
			c0-0.85,0.2-1.63,0.61-2.34c0.41-0.71,0.98-1.26,1.73-1.66c0.74-0.4,1.59-0.6,2.53-0.6c1.44,0,2.57,0.35,3.36,1.04
			c0.8,0.69,1.2,1.67,1.2,2.94c0,0.69-0.18,1.4-0.54,2.12c-0.36,0.72-0.97,1.56-1.85,2.51l-3.18,3.36h6.02V604.34z"/>
		<path class="st8" d="M858.76,590.18v2.29h-0.27c-1.26,0.02-2.27,0.35-3.04,0.98c-0.77,0.64-1.23,1.52-1.38,2.65
			c0.74-0.76,1.68-1.14,2.82-1.14c1.22,0,2.19,0.44,2.91,1.31c0.72,0.87,1.08,2.02,1.08,3.45c0,0.91-0.2,1.74-0.59,2.47
			c-0.39,0.74-0.95,1.31-1.67,1.72c-0.72,0.41-1.54,0.62-2.45,0.62c-1.47,0-2.67-0.51-3.57-1.54c-0.91-1.03-1.36-2.4-1.36-4.11v-1
			c0-1.52,0.29-2.86,0.86-4.03c0.57-1.16,1.4-2.07,2.47-2.7c1.07-0.64,2.32-0.96,3.74-0.97H858.76z M856.04,597.21
			c-0.45,0-0.85,0.12-1.22,0.35c-0.37,0.23-0.64,0.54-0.81,0.93v0.84c0,0.93,0.18,1.65,0.55,2.17c0.37,0.52,0.88,0.78,1.54,0.78
			c0.6,0,1.08-0.23,1.45-0.71c0.37-0.47,0.55-1.08,0.55-1.83c0-0.76-0.18-1.38-0.56-1.85C857.17,597.44,856.67,597.21,856.04,597.21
			z"/>
	</g>
	<g>
		<path class="st8" d="M917.91,604.34h-9.6v-1.91l4.53-4.83c0.62-0.68,1.08-1.27,1.38-1.78s0.45-0.99,0.45-1.44
			c0-0.62-0.16-1.11-0.47-1.47c-0.32-0.35-0.76-0.53-1.35-0.53c-0.63,0-1.13,0.22-1.49,0.65c-0.36,0.43-0.54,1-0.54,1.71h-2.79
			c0-0.85,0.2-1.63,0.61-2.34c0.41-0.71,0.98-1.26,1.73-1.66c0.74-0.4,1.59-0.6,2.53-0.6c1.44,0,2.57,0.35,3.36,1.04
			c0.8,0.69,1.2,1.67,1.2,2.94c0,0.69-0.18,1.4-0.54,2.12c-0.36,0.72-0.97,1.56-1.85,2.51l-3.18,3.36h6.02V604.34z"/>
		<path class="st8" d="M929.04,598.55c0,1.94-0.4,3.42-1.2,4.45c-0.8,1.03-1.98,1.54-3.52,1.54c-1.53,0-2.69-0.5-3.5-1.51
			s-1.22-2.45-1.24-4.33v-2.58c0-1.96,0.41-3.44,1.22-4.46s1.98-1.52,3.51-1.52c1.53,0,2.69,0.5,3.5,1.51
			c0.81,1,1.22,2.45,1.24,4.33V598.55z M926.26,595.71c0-1.16-0.16-2.01-0.48-2.54c-0.32-0.53-0.81-0.79-1.49-0.79
			c-0.65,0-1.14,0.25-1.45,0.76c-0.31,0.5-0.48,1.29-0.49,2.37v3.41c0,1.14,0.15,1.99,0.47,2.55c0.31,0.56,0.81,0.83,1.5,0.83
			c0.68,0,1.17-0.27,1.47-0.8c0.3-0.53,0.46-1.35,0.47-2.45V595.71z"/>
		<path class="st8" d="M940.52,604.34h-9.6v-1.91l4.53-4.83c0.62-0.68,1.08-1.27,1.38-1.78s0.45-0.99,0.45-1.44
			c0-0.62-0.16-1.11-0.47-1.47c-0.32-0.35-0.76-0.53-1.35-0.53c-0.63,0-1.13,0.22-1.49,0.65c-0.36,0.43-0.54,1-0.54,1.71h-2.79
			c0-0.85,0.2-1.63,0.61-2.34c0.41-0.71,0.98-1.26,1.73-1.66c0.74-0.4,1.59-0.6,2.53-0.6c1.44,0,2.57,0.35,3.36,1.04
			s1.2,1.67,1.2,2.94c0,0.69-0.18,1.4-0.54,2.12c-0.36,0.72-0.97,1.56-1.85,2.51l-3.18,3.36h6.02V604.34z"/>
		<path class="st8" d="M951.75,591.88l-5.42,12.46h-2.94l5.43-11.77h-6.97v-2.24h9.89V591.88z"/>
	</g>
	<g>
		<path class="st8" d="M1014.47,604.34h-9.6v-1.91l4.53-4.83c0.62-0.68,1.08-1.27,1.38-1.78c0.3-0.51,0.45-0.99,0.45-1.44
			c0-0.62-0.16-1.11-0.47-1.47c-0.31-0.35-0.76-0.53-1.35-0.53c-0.63,0-1.12,0.22-1.49,0.65c-0.36,0.43-0.54,1-0.54,1.71h-2.79
			c0-0.85,0.2-1.63,0.61-2.34c0.41-0.71,0.98-1.26,1.73-1.66c0.74-0.4,1.59-0.6,2.53-0.6c1.44,0,2.56,0.35,3.36,1.04
			c0.8,0.69,1.2,1.67,1.2,2.94c0,0.69-0.18,1.4-0.54,2.12s-0.98,1.56-1.85,2.51l-3.19,3.36h6.02V604.34z"/>
		<path class="st8" d="M1025.6,598.55c0,1.94-0.4,3.42-1.2,4.45c-0.8,1.03-1.98,1.54-3.52,1.54c-1.53,0-2.69-0.5-3.5-1.51
			s-1.22-2.45-1.24-4.33v-2.58c0-1.96,0.41-3.44,1.22-4.46c0.81-1.01,1.98-1.52,3.51-1.52c1.53,0,2.69,0.5,3.5,1.51
			c0.81,1,1.22,2.45,1.24,4.33V598.55z M1022.82,595.71c0-1.16-0.16-2.01-0.48-2.54c-0.32-0.53-0.81-0.79-1.49-0.79
			c-0.65,0-1.14,0.25-1.45,0.76c-0.31,0.5-0.48,1.29-0.49,2.37v3.41c0,1.14,0.16,1.99,0.47,2.55c0.31,0.56,0.81,0.83,1.5,0.83
			c0.68,0,1.17-0.27,1.47-0.8c0.3-0.53,0.46-1.35,0.47-2.45V595.71z"/>
		<path class="st8" d="M1037.08,604.34h-9.6v-1.91l4.53-4.83c0.62-0.68,1.08-1.27,1.38-1.78c0.3-0.51,0.45-0.99,0.45-1.44
			c0-0.62-0.16-1.11-0.47-1.47c-0.31-0.35-0.76-0.53-1.35-0.53c-0.63,0-1.12,0.22-1.49,0.65c-0.36,0.43-0.54,1-0.54,1.71h-2.79
			c0-0.85,0.2-1.63,0.61-2.34c0.41-0.71,0.98-1.26,1.73-1.66c0.74-0.4,1.59-0.6,2.53-0.6c1.44,0,2.56,0.35,3.36,1.04
			c0.8,0.69,1.2,1.67,1.2,2.94c0,0.69-0.18,1.4-0.54,2.12c-0.36,0.72-0.98,1.56-1.85,2.51l-3.19,3.36h6.02V604.34z"/>
		<path class="st8" d="M1047.92,594.05c0,0.68-0.17,1.28-0.51,1.81s-0.81,0.95-1.41,1.26c0.68,0.33,1.22,0.78,1.62,1.35
			c0.4,0.58,0.6,1.25,0.6,2.03c0,1.25-0.42,2.23-1.27,2.95c-0.85,0.72-2,1.08-3.45,1.08s-2.61-0.36-3.46-1.09s-1.28-1.71-1.28-2.94
			c0-0.78,0.2-1.45,0.6-2.03c0.4-0.58,0.93-1.03,1.61-1.35c-0.6-0.31-1.06-0.74-1.4-1.26c-0.34-0.53-0.51-1.13-0.51-1.81
			c0-1.19,0.4-2.14,1.19-2.85c0.79-0.71,1.88-1.06,3.24-1.06c1.36,0,2.44,0.35,3.24,1.05
			C1047.52,591.89,1047.92,592.84,1047.92,594.05z M1045.43,600.3c0-0.61-0.18-1.1-0.53-1.46c-0.35-0.37-0.83-0.55-1.42-0.55
			c-0.59,0-1.06,0.18-1.41,0.54c-0.35,0.36-0.53,0.85-0.53,1.47c0,0.6,0.17,1.08,0.52,1.44c0.35,0.37,0.83,0.55,1.44,0.55
			c0.6,0,1.08-0.18,1.42-0.53C1045.26,601.41,1045.43,600.92,1045.43,600.3z M1045.14,594.19c0-0.54-0.14-0.98-0.43-1.31
			c-0.29-0.33-0.7-0.49-1.22-0.49c-0.52,0-0.92,0.16-1.21,0.48c-0.29,0.32-0.43,0.76-0.43,1.33c0,0.56,0.14,1.01,0.43,1.35
			s0.7,0.51,1.22,0.51c0.53,0,0.93-0.17,1.22-0.51C1045,595.19,1045.14,594.74,1045.14,594.19z"/>
	</g>
	<g>
		<path class="st8" d="M71.23,557.12h-9.6v-1.91l4.53-4.83c0.62-0.68,1.08-1.27,1.38-1.78c0.3-0.51,0.45-0.99,0.45-1.44
			c0-0.62-0.16-1.11-0.47-1.47c-0.31-0.35-0.76-0.53-1.35-0.53c-0.63,0-1.12,0.22-1.49,0.65c-0.36,0.43-0.54,1-0.54,1.71h-2.79
			c0-0.85,0.2-1.63,0.61-2.34c0.41-0.71,0.98-1.26,1.73-1.66c0.74-0.4,1.59-0.6,2.53-0.6c1.44,0,2.56,0.35,3.36,1.04
			s1.2,1.67,1.2,2.94c0,0.69-0.18,1.4-0.54,2.12c-0.36,0.72-0.98,1.56-1.85,2.51l-3.19,3.36h6.02V557.12z"/>
		<path class="st8" d="M82.37,551.33c0,1.94-0.4,3.42-1.2,4.45c-0.8,1.03-1.98,1.54-3.52,1.54c-1.53,0-2.69-0.5-3.5-1.51
			c-0.81-1.01-1.22-2.45-1.24-4.33v-2.58c0-1.96,0.41-3.44,1.22-4.46c0.81-1.01,1.98-1.52,3.51-1.52c1.53,0,2.69,0.5,3.5,1.51
			c0.81,1,1.22,2.45,1.24,4.33V551.33z M79.59,548.49c0-1.16-0.16-2.01-0.48-2.54c-0.32-0.53-0.81-0.79-1.49-0.79
			c-0.65,0-1.14,0.25-1.45,0.76c-0.31,0.5-0.48,1.29-0.5,2.37v3.41c0,1.14,0.16,1.99,0.47,2.55c0.31,0.56,0.81,0.83,1.5,0.83
			c0.68,0,1.17-0.27,1.47-0.8c0.3-0.53,0.46-1.35,0.47-2.45V548.49z"/>
		<path class="st8" d="M93.85,557.12h-9.6v-1.91l4.53-4.83c0.62-0.68,1.08-1.27,1.38-1.78c0.3-0.51,0.45-0.99,0.45-1.44
			c0-0.62-0.16-1.11-0.47-1.47c-0.31-0.35-0.76-0.53-1.35-0.53c-0.63,0-1.12,0.22-1.49,0.65c-0.36,0.43-0.54,1-0.54,1.71h-2.79
			c0-0.85,0.2-1.63,0.61-2.34c0.41-0.71,0.98-1.26,1.73-1.66c0.74-0.4,1.59-0.6,2.53-0.6c1.44,0,2.56,0.35,3.36,1.04
			s1.2,1.67,1.2,2.94c0,0.69-0.18,1.4-0.54,2.12c-0.36,0.72-0.98,1.56-1.85,2.51l-3.19,3.36h6.02V557.12z"/>
		<path class="st8" d="M102.31,557.12h-2.78V546.4l-3.32,1.03v-2.26l5.8-2.08h0.3V557.12z"/>
	</g>
	<g>
		<path class="st8" d="M71.23,483.87h-9.6v-1.91l4.53-4.83c0.62-0.68,1.08-1.27,1.38-1.78c0.3-0.5,0.45-0.99,0.45-1.44
			c0-0.62-0.16-1.11-0.47-1.47c-0.31-0.35-0.76-0.54-1.35-0.54c-0.63,0-1.12,0.22-1.49,0.65c-0.36,0.43-0.54,1-0.54,1.71h-2.79
			c0-0.85,0.2-1.63,0.61-2.34c0.41-0.7,0.98-1.26,1.73-1.66c0.74-0.4,1.59-0.6,2.53-0.6c1.44,0,2.56,0.35,3.36,1.04
			s1.2,1.67,1.2,2.93c0,0.69-0.18,1.4-0.54,2.12c-0.36,0.72-0.98,1.56-1.85,2.51l-3.19,3.36h6.02V483.87z"/>
		<path class="st8" d="M82.37,478.07c0,1.94-0.4,3.42-1.2,4.45c-0.8,1.02-1.98,1.54-3.52,1.54c-1.53,0-2.69-0.5-3.5-1.51
			c-0.81-1-1.22-2.45-1.24-4.33v-2.58c0-1.96,0.41-3.44,1.22-4.45c0.81-1.02,1.98-1.52,3.51-1.52c1.53,0,2.69,0.5,3.5,1.51
			c0.81,1,1.22,2.44,1.24,4.33V478.07z M79.59,475.24c0-1.16-0.16-2.01-0.48-2.54c-0.32-0.53-0.81-0.8-1.49-0.8
			c-0.65,0-1.14,0.25-1.45,0.76c-0.31,0.5-0.48,1.29-0.5,2.36v3.41c0,1.14,0.16,1.99,0.47,2.55c0.31,0.55,0.81,0.83,1.5,0.83
			c0.68,0,1.17-0.27,1.47-0.8c0.3-0.54,0.46-1.35,0.47-2.45V475.24z"/>
		<path class="st8" d="M93.85,483.87h-9.6v-1.91l4.53-4.83c0.62-0.68,1.08-1.27,1.38-1.78c0.3-0.5,0.45-0.99,0.45-1.44
			c0-0.62-0.16-1.11-0.47-1.47c-0.31-0.35-0.76-0.54-1.35-0.54c-0.63,0-1.12,0.22-1.49,0.65c-0.36,0.43-0.54,1-0.54,1.71h-2.79
			c0-0.85,0.2-1.63,0.61-2.34c0.41-0.7,0.98-1.26,1.73-1.66c0.74-0.4,1.59-0.6,2.53-0.6c1.44,0,2.56,0.35,3.36,1.04
			s1.2,1.67,1.2,2.93c0,0.69-0.18,1.4-0.54,2.12c-0.36,0.72-0.98,1.56-1.85,2.51l-3.19,3.36h6.02V483.87z"/>
		<path class="st8" d="M102.31,483.87h-2.78v-10.72l-3.32,1.03v-2.26l5.8-2.08h0.3V483.87z"/>
	</g>
	<g>
		<path class="st8" d="M71.23,410.61h-9.6v-1.91l4.53-4.83c0.62-0.68,1.08-1.27,1.38-1.78c0.3-0.5,0.45-0.99,0.45-1.44
			c0-0.62-0.16-1.11-0.47-1.47c-0.31-0.35-0.76-0.54-1.35-0.54c-0.63,0-1.12,0.22-1.49,0.65c-0.36,0.43-0.54,1-0.54,1.71h-2.79
			c0-0.85,0.2-1.63,0.61-2.34c0.41-0.7,0.98-1.26,1.73-1.66c0.74-0.4,1.59-0.6,2.53-0.6c1.44,0,2.56,0.35,3.36,1.04
			c0.8,0.69,1.2,1.67,1.2,2.93c0,0.69-0.18,1.4-0.54,2.12c-0.36,0.72-0.98,1.56-1.85,2.51l-3.19,3.36h6.02V410.61z"/>
		<path class="st8" d="M82.37,404.82c0,1.94-0.4,3.42-1.2,4.45c-0.8,1.02-1.98,1.54-3.52,1.54c-1.53,0-2.69-0.5-3.5-1.51
			c-0.81-1-1.22-2.45-1.24-4.33v-2.58c0-1.96,0.41-3.44,1.22-4.45c0.81-1.02,1.98-1.52,3.51-1.52c1.53,0,2.69,0.5,3.5,1.51
			c0.81,1,1.22,2.44,1.24,4.33V404.82z M79.59,401.98c0-1.16-0.16-2.01-0.48-2.54c-0.32-0.53-0.81-0.8-1.49-0.8
			c-0.65,0-1.14,0.25-1.45,0.76s-0.48,1.29-0.5,2.36v3.41c0,1.14,0.16,1.99,0.47,2.55c0.31,0.55,0.81,0.83,1.5,0.83
			c0.68,0,1.17-0.27,1.47-0.8c0.3-0.54,0.46-1.35,0.47-2.45V401.98z"/>
		<path class="st8" d="M93.85,410.61h-9.6v-1.91l4.53-4.83c0.62-0.68,1.08-1.27,1.38-1.78c0.3-0.5,0.45-0.99,0.45-1.44
			c0-0.62-0.16-1.11-0.47-1.47c-0.31-0.35-0.76-0.54-1.35-0.54c-0.63,0-1.12,0.22-1.49,0.65c-0.36,0.43-0.54,1-0.54,1.71h-2.79
			c0-0.85,0.2-1.63,0.61-2.34c0.41-0.7,0.98-1.26,1.73-1.66c0.74-0.4,1.59-0.6,2.53-0.6c1.44,0,2.56,0.35,3.36,1.04
			c0.8,0.69,1.2,1.67,1.2,2.93c0,0.69-0.18,1.4-0.54,2.12c-0.36,0.72-0.98,1.56-1.85,2.51l-3.19,3.36h6.02V410.61z"/>
		<path class="st8" d="M102.31,410.61h-2.78v-10.72l-3.32,1.03v-2.26l5.8-2.08h0.3V410.61z"/>
	</g>
	<g>
		<path class="st8" d="M71.23,337.36h-9.6v-1.91l4.53-4.83c0.62-0.68,1.08-1.27,1.38-1.78c0.3-0.51,0.45-0.99,0.45-1.44
			c0-0.62-0.16-1.11-0.47-1.47c-0.31-0.35-0.76-0.53-1.35-0.53c-0.63,0-1.12,0.22-1.49,0.65c-0.36,0.43-0.54,1-0.54,1.71h-2.79
			c0-0.85,0.2-1.63,0.61-2.34s0.98-1.26,1.73-1.66c0.74-0.4,1.59-0.6,2.53-0.6c1.44,0,2.56,0.35,3.36,1.04
			c0.8,0.69,1.2,1.67,1.2,2.94c0,0.69-0.18,1.4-0.54,2.12c-0.36,0.72-0.98,1.56-1.85,2.51l-3.19,3.36h6.02V337.36z"/>
		<path class="st8" d="M82.37,331.57c0,1.94-0.4,3.42-1.2,4.45c-0.8,1.03-1.98,1.54-3.52,1.54c-1.53,0-2.69-0.5-3.5-1.51
			c-0.81-1.01-1.22-2.45-1.24-4.33v-2.58c0-1.96,0.41-3.44,1.22-4.46c0.81-1.01,1.98-1.52,3.51-1.52c1.53,0,2.69,0.5,3.5,1.51
			c0.81,1,1.22,2.45,1.24,4.33V331.57z M79.59,328.73c0-1.16-0.16-2.01-0.48-2.54c-0.32-0.53-0.81-0.79-1.49-0.79
			c-0.65,0-1.14,0.25-1.45,0.76c-0.31,0.5-0.48,1.29-0.5,2.37v3.41c0,1.14,0.16,1.99,0.47,2.55c0.31,0.56,0.81,0.83,1.5,0.83
			c0.68,0,1.17-0.27,1.47-0.8c0.3-0.53,0.46-1.35,0.47-2.45V328.73z"/>
		<path class="st8" d="M93.85,337.36h-9.6v-1.91l4.53-4.83c0.62-0.68,1.08-1.27,1.38-1.78c0.3-0.51,0.45-0.99,0.45-1.44
			c0-0.62-0.16-1.11-0.47-1.47c-0.31-0.35-0.76-0.53-1.35-0.53c-0.63,0-1.12,0.22-1.49,0.65c-0.36,0.43-0.54,1-0.54,1.71h-2.79
			c0-0.85,0.2-1.63,0.61-2.34s0.98-1.26,1.73-1.66c0.74-0.4,1.59-0.6,2.53-0.6c1.44,0,2.56,0.35,3.36,1.04
			c0.8,0.69,1.2,1.67,1.2,2.94c0,0.69-0.18,1.4-0.54,2.12c-0.36,0.72-0.98,1.56-1.85,2.51l-3.19,3.36h6.02V337.36z"/>
		<path class="st8" d="M102.31,337.36h-2.78v-10.72l-3.32,1.03v-2.26l5.8-2.08h0.3V337.36z"/>
	</g>
	<g>
		<path class="st8" d="M71.23,264.11h-9.6v-1.91l4.53-4.83c0.62-0.68,1.08-1.27,1.38-1.78c0.3-0.51,0.45-0.99,0.45-1.44
			c0-0.62-0.16-1.11-0.47-1.47c-0.31-0.35-0.76-0.53-1.35-0.53c-0.63,0-1.12,0.22-1.49,0.65c-0.36,0.43-0.54,1-0.54,1.71h-2.79
			c0-0.85,0.2-1.63,0.61-2.34c0.41-0.71,0.98-1.26,1.73-1.66c0.74-0.4,1.59-0.6,2.53-0.6c1.44,0,2.56,0.35,3.36,1.04
			s1.2,1.67,1.2,2.94c0,0.69-0.18,1.4-0.54,2.12c-0.36,0.72-0.98,1.56-1.85,2.51l-3.19,3.36h6.02V264.11z"/>
		<path class="st8" d="M82.37,258.31c0,1.94-0.4,3.42-1.2,4.45c-0.8,1.03-1.98,1.54-3.52,1.54c-1.53,0-2.69-0.5-3.5-1.51
			c-0.81-1.01-1.22-2.45-1.24-4.33v-2.58c0-1.96,0.41-3.44,1.22-4.46c0.81-1.01,1.98-1.52,3.51-1.52c1.53,0,2.69,0.5,3.5,1.51
			c0.81,1,1.22,2.45,1.24,4.33V258.31z M79.59,255.48c0-1.16-0.16-2.01-0.48-2.54c-0.32-0.53-0.81-0.79-1.49-0.79
			c-0.65,0-1.14,0.25-1.45,0.76s-0.48,1.29-0.5,2.37v3.41c0,1.14,0.16,1.99,0.47,2.55c0.31,0.56,0.81,0.83,1.5,0.83
			c0.68,0,1.17-0.27,1.47-0.8c0.3-0.53,0.46-1.35,0.47-2.45V255.48z"/>
		<path class="st8" d="M93.85,264.11h-9.6v-1.91l4.53-4.83c0.62-0.68,1.08-1.27,1.38-1.78c0.3-0.51,0.45-0.99,0.45-1.44
			c0-0.62-0.16-1.11-0.47-1.47c-0.31-0.35-0.76-0.53-1.35-0.53c-0.63,0-1.12,0.22-1.49,0.65c-0.36,0.43-0.54,1-0.54,1.71h-2.79
			c0-0.85,0.2-1.63,0.61-2.34c0.41-0.71,0.98-1.26,1.73-1.66c0.74-0.4,1.59-0.6,2.53-0.6c1.44,0,2.56,0.35,3.36,1.04
			s1.2,1.67,1.2,2.94c0,0.69-0.18,1.4-0.54,2.12c-0.36,0.72-0.98,1.56-1.85,2.51l-3.19,3.36h6.02V264.11z"/>
		<path class="st8" d="M102.31,264.11h-2.78v-10.72l-3.32,1.03v-2.26l5.8-2.08h0.3V264.11z"/>
	</g>
	<g>
		<path class="st8" d="M71.23,190.85h-9.6v-1.91l4.53-4.83c0.62-0.68,1.08-1.27,1.38-1.78c0.3-0.51,0.45-0.99,0.45-1.44
			c0-0.62-0.16-1.11-0.47-1.47c-0.31-0.35-0.76-0.53-1.35-0.53c-0.63,0-1.12,0.22-1.49,0.65c-0.36,0.43-0.54,1-0.54,1.71h-2.79
			c0-0.85,0.2-1.63,0.61-2.34s0.98-1.26,1.73-1.66c0.74-0.4,1.59-0.6,2.53-0.6c1.44,0,2.56,0.35,3.36,1.04
			c0.8,0.69,1.2,1.67,1.2,2.94c0,0.69-0.18,1.4-0.54,2.12c-0.36,0.72-0.98,1.56-1.85,2.51l-3.19,3.36h6.02V190.85z"/>
		<path class="st8" d="M82.37,185.06c0,1.94-0.4,3.42-1.2,4.45c-0.8,1.03-1.98,1.54-3.52,1.54c-1.53,0-2.69-0.5-3.5-1.51
			c-0.81-1.01-1.22-2.45-1.24-4.33v-2.58c0-1.96,0.41-3.44,1.22-4.46c0.81-1.01,1.98-1.52,3.51-1.52c1.53,0,2.69,0.5,3.5,1.51
			c0.81,1,1.22,2.45,1.24,4.33V185.06z M79.59,182.22c0-1.16-0.16-2.01-0.48-2.54c-0.32-0.53-0.81-0.79-1.49-0.79
			c-0.65,0-1.14,0.25-1.45,0.76s-0.48,1.29-0.5,2.37v3.41c0,1.14,0.16,1.99,0.47,2.55c0.31,0.56,0.81,0.83,1.5,0.83
			c0.68,0,1.17-0.27,1.47-0.8c0.3-0.53,0.46-1.35,0.47-2.45V182.22z"/>
		<path class="st8" d="M93.85,190.85h-9.6v-1.91l4.53-4.83c0.62-0.68,1.08-1.27,1.38-1.78c0.3-0.51,0.45-0.99,0.45-1.44
			c0-0.62-0.16-1.11-0.47-1.47c-0.31-0.35-0.76-0.53-1.35-0.53c-0.63,0-1.12,0.22-1.49,0.65c-0.36,0.43-0.54,1-0.54,1.71h-2.79
			c0-0.85,0.2-1.63,0.61-2.34s0.98-1.26,1.73-1.66c0.74-0.4,1.59-0.6,2.53-0.6c1.44,0,2.56,0.35,3.36,1.04
			c0.8,0.69,1.2,1.67,1.2,2.94c0,0.69-0.18,1.4-0.54,2.12c-0.36,0.72-0.98,1.56-1.85,2.51l-3.19,3.36h6.02V190.85z"/>
		<path class="st8" d="M102.31,190.85h-2.78v-10.72l-3.32,1.03v-2.26l5.8-2.08h0.3V190.85z"/>
	</g>
	<g>
		<path class="st8" d="M71.23,107.74h-9.6v-1.91l4.53-4.83c0.62-0.68,1.08-1.27,1.38-1.78c0.3-0.51,0.45-0.99,0.45-1.44
			c0-0.62-0.16-1.11-0.47-1.47c-0.31-0.35-0.76-0.53-1.35-0.53c-0.63,0-1.12,0.22-1.49,0.65c-0.36,0.44-0.54,1-0.54,1.71h-2.79
			c0-0.85,0.2-1.63,0.61-2.34c0.41-0.71,0.98-1.26,1.73-1.66c0.74-0.4,1.59-0.6,2.53-0.6c1.44,0,2.56,0.35,3.36,1.04
			s1.2,1.67,1.2,2.94c0,0.69-0.18,1.4-0.54,2.12c-0.36,0.72-0.98,1.56-1.85,2.51l-3.19,3.36h6.02V107.74z"/>
		<path class="st8" d="M82.37,101.95c0,1.94-0.4,3.42-1.2,4.45c-0.8,1.03-1.98,1.54-3.52,1.54c-1.53,0-2.69-0.5-3.5-1.51
			c-0.81-1.01-1.22-2.45-1.24-4.33v-2.58c0-1.96,0.41-3.44,1.22-4.46c0.81-1.01,1.98-1.52,3.51-1.52c1.53,0,2.69,0.5,3.5,1.51
			c0.81,1,1.22,2.45,1.24,4.33V101.95z M79.59,99.12c0-1.16-0.16-2.01-0.48-2.54c-0.32-0.53-0.81-0.79-1.49-0.79
			c-0.65,0-1.14,0.25-1.45,0.76c-0.31,0.5-0.48,1.29-0.5,2.37v3.41c0,1.14,0.16,1.99,0.47,2.55c0.31,0.56,0.81,0.83,1.5,0.83
			c0.68,0,1.17-0.27,1.47-0.8c0.3-0.53,0.46-1.35,0.47-2.45V99.12z"/>
		<path class="st8" d="M93.85,107.74h-9.6v-1.91l4.53-4.83c0.62-0.68,1.08-1.27,1.38-1.78c0.3-0.51,0.45-0.99,0.45-1.44
			c0-0.62-0.16-1.11-0.47-1.47c-0.31-0.35-0.76-0.53-1.35-0.53c-0.63,0-1.12,0.22-1.49,0.65c-0.36,0.44-0.54,1-0.54,1.71h-2.79
			c0-0.85,0.2-1.63,0.61-2.34c0.41-0.71,0.98-1.26,1.73-1.66c0.74-0.4,1.59-0.6,2.53-0.6c1.44,0,2.56,0.35,3.36,1.04
			s1.2,1.67,1.2,2.94c0,0.69-0.18,1.4-0.54,2.12c-0.36,0.72-0.98,1.56-1.85,2.51l-3.19,3.36h6.02V107.74z"/>
		<path class="st8" d="M102.31,107.74h-2.78V97.02l-3.32,1.03v-2.26l5.8-2.08h0.3V107.74z"/>
	</g>
	<g>
		<path class="st8" d="M71.23,34.49h-9.6v-1.91l4.53-4.83c0.62-0.68,1.08-1.27,1.38-1.78s0.45-0.99,0.45-1.44
			c0-0.62-0.16-1.11-0.47-1.47c-0.31-0.35-0.76-0.53-1.35-0.53c-0.63,0-1.12,0.22-1.49,0.65c-0.36,0.43-0.54,1-0.54,1.71h-2.79
			c0-0.85,0.2-1.63,0.61-2.34c0.41-0.71,0.98-1.26,1.73-1.66c0.74-0.4,1.59-0.6,2.53-0.6c1.44,0,2.56,0.35,3.36,1.04
			c0.8,0.69,1.2,1.67,1.2,2.94c0,0.69-0.18,1.4-0.54,2.12c-0.36,0.72-0.98,1.56-1.85,2.51l-3.19,3.36h6.02V34.49z"/>
		<path class="st8" d="M82.37,28.7c0,1.94-0.4,3.42-1.2,4.45c-0.8,1.03-1.98,1.54-3.52,1.54c-1.53,0-2.69-0.5-3.5-1.51
			c-0.81-1.01-1.22-2.45-1.24-4.33v-2.58c0-1.96,0.41-3.44,1.22-4.46c0.81-1.01,1.98-1.52,3.51-1.52c1.53,0,2.69,0.5,3.5,1.51
			c0.81,1,1.22,2.45,1.24,4.33V28.7z M79.59,25.86c0-1.16-0.16-2.01-0.48-2.54c-0.32-0.53-0.81-0.79-1.49-0.79
			c-0.65,0-1.14,0.25-1.45,0.76s-0.48,1.29-0.5,2.37v3.41c0,1.14,0.16,1.99,0.47,2.55c0.31,0.56,0.81,0.83,1.5,0.83
			c0.68,0,1.17-0.27,1.47-0.8c0.3-0.53,0.46-1.35,0.47-2.45V25.86z"/>
		<path class="st8" d="M93.85,34.49h-9.6v-1.91l4.53-4.83c0.62-0.68,1.08-1.27,1.38-1.78c0.3-0.51,0.45-0.99,0.45-1.44
			c0-0.62-0.16-1.11-0.47-1.47c-0.31-0.35-0.76-0.53-1.35-0.53c-0.63,0-1.12,0.22-1.49,0.65c-0.36,0.43-0.54,1-0.54,1.71h-2.79
			c0-0.85,0.2-1.63,0.61-2.34c0.41-0.71,0.98-1.26,1.73-1.66c0.74-0.4,1.59-0.6,2.53-0.6c1.44,0,2.56,0.35,3.36,1.04
			c0.8,0.69,1.2,1.67,1.2,2.94c0,0.69-0.18,1.4-0.54,2.12c-0.36,0.72-0.98,1.56-1.85,2.51l-3.19,3.36h6.02V34.49z"/>
		<path class="st8" d="M102.31,34.49h-2.78V23.77l-3.32,1.03v-2.26l5.8-2.08h0.3V34.49z"/>
	</g>
	<g>
		<path class="st8" d="M31.94,315.97c-1.76,0-3.44-0.23-5.04-0.7c-1.59-0.47-3-1.16-4.23-2.08c-1.23-0.92-2.08-1.91-2.56-2.98
			l1.8-0.65c0.83,1.12,2.12,2,3.86,2.63s3.77,0.95,6.1,0.95h0.36c2.33,0,4.37-0.31,6.12-0.94c1.75-0.62,3.05-1.51,3.91-2.64
			l1.77,0.65c-0.47,1.05-1.3,2.02-2.49,2.93c-1.19,0.9-2.56,1.6-4.12,2.07c-1.56,0.48-3.18,0.73-4.87,0.76H31.94z"/>
		<path class="st8" d="M21.97,303.07l12.2-4.32l-12.2-4.3v-4.55h16.81v3.48h-4.6l-7.93-0.35l12.53,4.54v2.38l-12.52,4.53l7.92-0.35
			h4.6v3.46H21.97V303.07z"/>
		<path class="st8" d="M23.05,287.12c-0.5,0-0.91-0.17-1.24-0.5c-0.32-0.33-0.49-0.79-0.49-1.37c0-0.57,0.16-1.02,0.49-1.36
			c0.32-0.34,0.74-0.51,1.24-0.51c0.51,0,0.92,0.17,1.25,0.51c0.32,0.34,0.49,0.79,0.49,1.36s-0.16,1.01-0.49,1.36
			S23.56,287.12,23.05,287.12z M38.78,283.57v3.35h-12.5v-3.35H38.78z"/>
		<path class="st8" d="M38.78,277.3v3.35H21.04v-3.35H38.78z"/>
		<path class="st8" d="M38.78,271.03v3.35H21.04v-3.35H38.78z"/>
		<path class="st8" d="M23.05,268.3c-0.5,0-0.91-0.17-1.24-0.5c-0.32-0.33-0.49-0.79-0.49-1.37c0-0.57,0.16-1.02,0.49-1.36
			c0.32-0.34,0.74-0.51,1.24-0.51c0.51,0,0.92,0.17,1.25,0.51s0.49,0.79,0.49,1.36s-0.16,1.01-0.49,1.36
			C23.98,268.13,23.56,268.3,23.05,268.3z M38.78,264.76v3.35h-12.5v-3.35H38.78z"/>
		<path class="st8" d="M32.42,262.53c-1.24,0-2.34-0.24-3.31-0.72c-0.97-0.48-1.72-1.16-2.25-2.06c-0.53-0.9-0.8-1.94-0.8-3.12
			c0-1.69,0.52-3.06,1.55-4.13c1.03-1.07,2.43-1.66,4.2-1.78l0.85-0.02c1.92,0,3.45,0.54,4.61,1.61c1.16,1.07,1.74,2.51,1.74,4.31
			c0,1.8-0.58,3.24-1.73,4.31c-1.15,1.07-2.73,1.61-4.71,1.61H32.42z M32.65,259.19c1.19,0,2.1-0.22,2.72-0.67
			c0.63-0.45,0.94-1.09,0.94-1.92c0-0.81-0.31-1.44-0.93-1.89c-0.62-0.45-1.61-0.68-2.98-0.68c-1.16,0-2.07,0.23-2.71,0.68
			c-0.64,0.45-0.96,1.09-0.96,1.92c0,0.82,0.32,1.45,0.95,1.89C30.33,258.97,31.32,259.19,32.65,259.19z"/>
		<path class="st8" d="M26.29,245.56l1.44-0.1c-1.12-0.89-1.67-2.09-1.67-3.59c0-1.32,0.39-2.31,1.17-2.96
			c0.78-0.65,1.94-0.98,3.49-0.99h8.07v3.34h-7.99c-0.71,0-1.22,0.15-1.54,0.46s-0.48,0.82-0.48,1.54c0,0.94,0.4,1.64,1.2,2.11h8.81
			v3.34h-12.5V245.56z"/>
		<path class="st8" d="M35.33,228.62c-0.41,0-0.73,0.2-0.96,0.61c-0.23,0.4-0.44,1.05-0.63,1.95c-0.62,2.97-1.89,4.46-3.79,4.46
			c-1.11,0-2.03-0.46-2.78-1.38s-1.11-2.12-1.11-3.61c0-1.59,0.37-2.85,1.12-3.81s1.72-1.43,2.91-1.43v3.34
			c-0.48,0-0.87,0.15-1.18,0.46s-0.47,0.79-0.47,1.44c0,0.56,0.13,1,0.38,1.3s0.58,0.46,0.97,0.46c0.37,0,0.67-0.18,0.9-0.53
			c0.23-0.35,0.42-0.94,0.59-1.77c0.17-0.83,0.35-1.53,0.56-2.1c0.65-1.76,1.77-2.64,3.36-2.64c1.14,0,2.06,0.49,2.77,1.47
			s1.06,2.24,1.06,3.79c0,1.05-0.19,1.98-0.56,2.79c-0.37,0.81-0.89,1.45-1.54,1.91s-1.35,0.69-2.11,0.69v-3.16
			c0.59-0.03,1.05-0.25,1.36-0.66s0.47-0.95,0.47-1.64c0-0.64-0.12-1.12-0.36-1.45C36.04,228.79,35.72,228.62,35.33,228.62z"/>
		<path class="st8" d="M32.21,217.48c1.74,0,3.41,0.25,5.02,0.75c1.61,0.5,3.03,1.22,4.26,2.16c1.23,0.94,2.08,1.94,2.54,3.01
			l-1.77,0.65c-0.82-1.09-2.09-1.96-3.81-2.59c-1.72-0.63-3.69-0.96-5.92-0.98h-0.61c-2.3,0-4.33,0.31-6.09,0.94
			c-1.76,0.63-3.07,1.5-3.95,2.63l-1.77-0.65c0.45-1.05,1.28-2.03,2.47-2.96c1.19-0.93,2.58-1.65,4.17-2.16s3.23-0.78,4.93-0.8
			H32.21z"/>
	</g>
	<g>
		<rect x="122.05" y="551.48" class="st8" width="950.07" height="1.97"/>
	</g>
	<g>
		<rect x="122.05" y="476.5" class="st9" width="950.07" height="0.99"/>
	</g>
	<g>
		<rect x="122.05" y="401.03" class="st9" width="950.07" height="0.99"/>
	</g>
	<g>
		<rect x="122.05" y="325.56" class="st9" width="950.07" height="0.99"/>
	</g>
	<g>
		<rect x="122.05" y="250.09" class="st9" width="950.07" height="0.99"/>
	</g>
	<g>
		<rect x="122.05" y="174.61" class="st9" width="950.07" height="0.99"/>
	</g>
	<g>
		<rect x="122.05" y="99.14" class="st9" width="950.07" height="0.99"/>
	</g>
	<g>
		<rect x="122.05" y="23.67" class="st9" width="950.07" height="0.99"/>
	</g>
	<g>
		<rect x="127.11" y="23.05" class="st9" width="0.99" height="529.42"/>
	</g>
	<g>
		<rect x="221.67" y="23.05" class="st9" width="0.99" height="529.42"/>
	</g>
	<g>
		<rect x="316.24" y="23.05" class="st9" width="0.99" height="529.42"/>
	</g>
	<g>
		<rect x="410.8" y="23.05" class="st9" width="0.99" height="529.42"/>
	</g>
	<g>
		<rect x="505.36" y="23.05" class="st9" width="0.99" height="529.42"/>
	</g>
	<g>
		<rect x="599.92" y="23.05" class="st9" width="0.99" height="529.42"/>
	</g>
	<g>
		<rect x="694.49" y="23.05" class="st9" width="0.99" height="529.42"/>
	</g>
	<g>
		<rect x="789.05" y="23.05" class="st9" width="0.99" height="529.42"/>
	</g>
	<g>
		<rect x="883.61" y="23.05" class="st9" width="0.99" height="529.42"/>
	</g>
	<g>
		<rect x="978.18" y="23.05" class="st9" width="0.99" height="529.42"/>
	</g>
	<g>
		<rect x="1072.74" y="23.05" class="st9" width="0.99" height="529.42"/>
	</g>
	<g>
		<rect x="152.02" y="421.98" class="st1" width="38.85" height="130.66"/>
	</g>
	<g>
		<rect x="247.67" y="369.6" class="st1" width="38.85" height="183.04"/>
	</g>
	<g>
		<rect x="343.32" y="327.18" class="st1" width="38.85" height="225.46"/>
	</g>
	<g>
		<rect x="438.96" y="284.04" class="st1" width="38.85" height="268.61"/>
	</g>
	<g>
		<rect x="534.61" y="244.2" class="st1" width="38.85" height="308.44"/>
	</g>
	<g>
		<rect x="630.26" y="212.01" class="st1" width="38.85" height="340.64"/>
	</g>
	<g>
		<rect x="725.91" y="181.42" class="st1" width="38.85" height="371.22"/>
	</g>
	<g>
		<rect x="821.56" y="156.87" class="st1" width="38.85" height="395.77"/>
	</g>
	<g>
		<rect x="917.21" y="135.79" class="st1" width="38.85" height="416.85"/>
	</g>
	<g>
		<rect x="1012.85" y="121.73" class="st1" width="38.85" height="430.91"/>
	</g>
	<g>
		<g>
			<rect x="152.02" y="451.17" class="st2" width="38.85" height="101.47"/>
		</g>
		<g>
			<rect x="247.67" y="419.82" class="st2" width="38.85" height="132.83"/>
		</g>
		<g>
			<rect x="343.32" y="384.75" class="st2" width="38.85" height="167.89"/>
		</g>
		<g>
			<rect x="438.96" y="347.88" class="st2" width="38.85" height="204.76"/>
		</g>
		<g>
			<rect x="534.61" y="313.11" class="st2" width="38.85" height="239.53"/>
		</g>
		<g>
			<rect x="630.26" y="279.44" class="st2" width="38.85" height="273.21"/>
		</g>
		<g>
			<rect x="725.91" y="252.35" class="st2" width="38.85" height="300.29"/>
		</g>
		<g>
			<rect x="821.56" y="229.67" class="st2" width="38.85" height="322.97"/>
		</g>
		<g>
			<rect x="917.21" y="210.91" class="st2" width="38.85" height="341.73"/>
		</g>
		<g>
			<rect x="1012.85" y="195.67" class="st2" width="38.85" height="356.97"/>
		</g>
	</g>
	<g>
		<g>
			<rect x="152.02" y="481.22" class="st3" width="38.85" height="71.42"/>
		</g>
		<g>
			<rect x="247.67" y="459.15" class="st3" width="38.85" height="93.5"/>
		</g>
		<g>
			<rect x="343.32" y="434.47" class="st3" width="38.85" height="118.17"/>
		</g>
		<g>
			<rect x="438.96" y="408.51" class="st3" width="38.85" height="144.13"/>
		</g>
		<g>
			<rect x="534.61" y="380.86" class="st3" width="38.85" height="171.78"/>
		</g>
		<g>
			<rect x="630.26" y="356.71" class="st3" width="38.85" height="195.93"/>
		</g>
		<g>
			<rect x="725.91" y="334.21" class="st3" width="38.85" height="218.44"/>
		</g>
		<g>
			<rect x="821.56" y="315.22" class="st3" width="38.85" height="237.42"/>
		</g>
		<g>
			<rect x="917.21" y="297.12" class="st3" width="38.85" height="255.52"/>
		</g>
		<g>
			<rect x="1012.85" y="282.21" class="st3" width="38.85" height="270.43"/>
		</g>
	</g>
	<g>
		<g>
			<rect x="152.02" y="484.59" class="st4" width="38.85" height="68.05"/>
		</g>
		<g>
			<rect x="247.67" y="463.56" class="st4" width="38.85" height="89.08"/>
		</g>
		<g>
			<rect x="343.32" y="440.05" class="st4" width="38.85" height="112.6"/>
		</g>
		<g>
			<rect x="438.96" y="415.31" class="st4" width="38.85" height="137.33"/>
		</g>
		<g>
			<rect x="534.61" y="388.97" class="st4" width="38.85" height="163.67"/>
		</g>
		<g>
			<rect x="630.26" y="365.96" class="st4" width="38.85" height="186.69"/>
		</g>
		<g>
			<rect x="725.91" y="344.52" class="st4" width="38.85" height="208.13"/>
		</g>
		<g>
			<rect x="821.56" y="326.43" class="st4" width="38.85" height="226.21"/>
		</g>
		<g>
			<rect x="917.21" y="309.18" class="st4" width="38.85" height="243.46"/>
		</g>
		<g>
			<rect x="1012.85" y="294.97" class="st4" width="38.85" height="257.67"/>
		</g>
	</g>
	<g>
		<g>
			<rect x="152.02" y="549.86" class="st5" width="38.85" height="2.78"/>
		</g>
		<g>
			<rect x="247.67" y="542.84" class="st5" width="38.85" height="9.8"/>
		</g>
		<g>
			<rect x="343.32" y="538.27" class="st5" width="38.85" height="14.37"/>
		</g>
		<g>
			<rect x="438.96" y="531.37" class="st5" width="38.85" height="21.27"/>
		</g>
		<g>
			<rect x="534.61" y="528.52" class="st5" width="38.85" height="24.13"/>
		</g>
		<g>
			<rect x="630.26" y="523.47" class="st5" width="38.85" height="29.17"/>
		</g>
		<g>
			<rect x="725.91" y="519.4" class="st5" width="38.85" height="33.24"/>
		</g>
		<g>
			<rect x="821.56" y="515.29" class="st5" width="38.85" height="37.35"/>
		</g>
		<g>
			<rect x="917.21" y="512.39" class="st5" width="38.85" height="40.25"/>
		</g>
		<g>
			<rect x="1012.85" y="511.49" class="st5" width="38.85" height="41.15"/>
		</g>
	</g>
	<g>
		<g>
			<rect x="152.02" y="545.93" class="st10" width="38.85" height="6.71"/>
		</g>
		<g>
			<rect x="247.67" y="548.13" class="st10" width="38.85" height="4.51"/>
		</g>
		<g>
			<rect x="343.32" y="546.02" class="st10" width="38.85" height="6.62"/>
		</g>
		<g>
			<rect x="438.96" y="542.84" class="st10" width="38.85" height="9.8"/>
		</g>
		<g>
			<rect x="534.61" y="541.53" class="st10" width="38.85" height="11.12"/>
		</g>
		<g>
			<rect x="630.26" y="539.2" class="st10" width="38.85" height="13.44"/>
		</g>
		<g>
			<rect x="725.91" y="538.38" class="st10" width="38.85" height="14.26"/>
		</g>
		<g>
			<rect x="821.56" y="536.62" class="st10" width="38.85" height="16.02"/>
		</g>
		<g>
			<rect x="917.21" y="534.92" class="st10" width="38.85" height="17.72"/>
		</g>
		<g>
			<rect x="1012.85" y="534.92" class="st10" width="38.85" height="17.72"/>
		</g>
	</g>
</g>
</svg>
