<?xml version="1.0" encoding="utf-8"?>
<!-- Generator: Adobe Illustrator 24.1.2, SVG Export Plug-In . SVG Version: 6.00 Build 0)  -->
<svg version="1.0" id="Layer_1" xmlns="http://www.w3.org/2000/svg" xmlns:xlink="http://www.w3.org/1999/xlink" x="0px" y="0px"
	 viewBox="0 0 600 247.34" style="enable-background:new 0 0 600 247.34;" xml:space="preserve">
<style type="text/css">
	.st0{fill:none;stroke:#989898;stroke-miterlimit:10;}
	.st1{fill:#2367B1;}
	.st2{fill:#68CEF6;}
	.st3{fill:#2A9FD9;}
	.st4{fill:#4E4E4E;}
	.st5{fill:#FFFFFF;}
</style>
<line class="st0" x1="-1.04" y1="219.4" x2="599.96" y2="219.4"/>
<rect x="324.52" y="178.38" class="st1" width="90" height="40.72"/>
<rect x="324.52" y="50.77" class="st2" width="90" height="13.87"/>
<rect x="324.52" y="64.63" class="st3" width="90" height="113.75"/>
<rect x="465.22" y="175.29" class="st1" width="90" height="43.82"/>
<rect x="465.22" y="27.75" class="st2" width="90" height="23.9"/>
<rect x="465.22" y="51.65" class="st3" width="90" height="123.63"/>
<g>
	<path class="st1" d="M281.16,194.98v-9.44h2.9c0.83,0,1.57,0.19,2.23,0.56s1.17,0.91,1.53,1.59s0.55,1.47,0.55,2.35v0.43
		c0,0.88-0.18,1.66-0.54,2.34c-0.36,0.68-0.87,1.21-1.53,1.59c-0.66,0.38-1.4,0.57-2.22,0.57h-2.92V194.98z M283.1,187.12v6.3h0.94
		c0.76,0,1.34-0.25,1.74-0.75s0.61-1.21,0.62-2.13v-0.5c0-0.96-0.2-1.69-0.6-2.18c-0.4-0.5-0.98-0.74-1.74-0.74H283.1z"/>
	<path class="st1" d="M294.98,193.04h-3.41l-0.65,1.95h-2.07l3.51-9.44h1.8l3.53,9.44h-2.07L294.98,193.04z M292.1,191.46h2.36
		l-1.19-3.53L292.1,191.46z"/>
	<path class="st1" d="M300.65,194.98h-1.95v-9.44h1.95V194.98z"/>
	<path class="st1" d="M304.4,193.42h4.13v1.56h-6.08v-9.44h1.95L304.4,193.42L304.4,193.42z"/>
	<path class="st1" d="M311.09,189.79l1.96-4.25h2.13l-3.1,6.02v3.42h-1.98v-3.42l-3.1-6.02h2.13L311.09,189.79z"/>
	<path class="st1" d="M282.18,198.82v6.22c0,1.03-0.32,1.85-0.97,2.45c-0.65,0.6-1.53,0.9-2.65,0.9c-1.1,0-1.98-0.29-2.63-0.88
		c-0.65-0.58-0.98-1.39-0.99-2.41v-6.29h1.95v6.23c0,0.62,0.15,1.07,0.44,1.35s0.71,0.42,1.23,0.42c1.09,0,1.65-0.58,1.67-1.72
		v-6.28h1.95V198.82z"/>
	<path class="st1" d="M288.67,205.78c0-0.37-0.13-0.65-0.39-0.85c-0.26-0.2-0.73-0.4-1.4-0.62c-0.67-0.22-1.21-0.43-1.6-0.64
		c-1.07-0.58-1.61-1.36-1.61-2.34c0-0.51,0.14-0.96,0.43-1.37c0.29-0.4,0.7-0.71,1.24-0.94s1.14-0.34,1.81-0.34
		c0.67,0,1.27,0.12,1.8,0.37s0.94,0.59,1.23,1.03c0.29,0.45,0.44,0.95,0.44,1.52h-1.95c0-0.43-0.14-0.77-0.41-1.01
		s-0.65-0.36-1.15-0.36c-0.48,0-0.85,0.1-1.11,0.3s-0.4,0.47-0.4,0.79c0,0.31,0.15,0.56,0.46,0.77s0.76,0.4,1.36,0.58
		c1.11,0.33,1.91,0.75,2.42,1.24s0.76,1.11,0.76,1.84c0,0.82-0.31,1.46-0.93,1.92s-1.45,0.7-2.5,0.7c-0.73,0-1.39-0.13-1.98-0.4
		c-0.6-0.27-1.05-0.63-1.36-1.09c-0.31-0.46-0.47-1-0.47-1.61h1.95c0,1.04,0.62,1.56,1.87,1.56c0.46,0,0.82-0.09,1.08-0.28
		C288.54,206.38,288.67,206.12,288.67,205.78z"/>
	<path class="st1" d="M297.62,204.17h-3.73v2.53h4.38v1.56h-6.33v-9.44h6.31v1.58h-4.37v2.25h3.73L297.62,204.17L297.62,204.17z"/>
	<path class="st1" d="M302.9,204.8h-1.55v3.46h-1.95v-9.44h3.51c1.11,0,1.98,0.25,2.58,0.75s0.91,1.2,0.91,2.11
		c0,0.64-0.14,1.18-0.42,1.61c-0.28,0.43-0.7,0.77-1.27,1.03l2.04,3.86v0.09h-2.09L302.9,204.8z M301.35,203.23h1.57
		c0.49,0,0.87-0.12,1.13-0.37c0.27-0.25,0.4-0.59,0.4-1.03c0-0.45-0.13-0.79-0.38-1.05c-0.25-0.26-0.64-0.38-1.16-0.38h-1.56V203.23
		z"/>
	<path class="st1" d="M312.78,205.78c0-0.37-0.13-0.65-0.39-0.85c-0.26-0.2-0.73-0.4-1.4-0.62c-0.67-0.22-1.21-0.43-1.6-0.64
		c-1.07-0.58-1.61-1.36-1.61-2.34c0-0.51,0.14-0.96,0.43-1.37c0.29-0.4,0.7-0.71,1.24-0.94s1.14-0.34,1.81-0.34
		c0.67,0,1.27,0.12,1.8,0.37s0.94,0.59,1.23,1.03c0.29,0.45,0.44,0.95,0.44,1.52h-1.95c0-0.43-0.14-0.77-0.41-1.01
		s-0.65-0.36-1.15-0.36c-0.48,0-0.85,0.1-1.11,0.3s-0.4,0.47-0.4,0.79c0,0.31,0.15,0.56,0.46,0.77s0.76,0.4,1.36,0.58
		c1.11,0.33,1.91,0.75,2.42,1.24s0.76,1.11,0.76,1.84c0,0.82-0.31,1.46-0.93,1.92s-1.45,0.7-2.5,0.7c-0.73,0-1.39-0.13-1.98-0.4
		c-0.6-0.27-1.05-0.63-1.36-1.09c-0.31-0.46-0.47-1-0.47-1.61h1.95c0,1.04,0.62,1.56,1.87,1.56c0.46,0,0.82-0.09,1.08-0.28
		C312.65,206.38,312.78,206.12,312.78,205.78z"/>
</g>
<g>
	<path class="st4" d="M358.8,235.63c0-0.37-0.13-0.65-0.39-0.85c-0.26-0.2-0.73-0.4-1.4-0.62c-0.67-0.22-1.21-0.43-1.6-0.64
		c-1.07-0.58-1.61-1.36-1.61-2.34c0-0.51,0.14-0.96,0.43-1.37c0.29-0.4,0.7-0.71,1.24-0.94s1.14-0.34,1.81-0.34
		c0.67,0,1.27,0.12,1.8,0.37s0.94,0.59,1.23,1.03c0.29,0.45,0.44,0.95,0.44,1.52h-1.95c0-0.43-0.14-0.77-0.41-1.01
		s-0.65-0.36-1.15-0.36c-0.48,0-0.85,0.1-1.11,0.3s-0.4,0.47-0.4,0.79c0,0.31,0.15,0.56,0.46,0.77s0.76,0.4,1.36,0.58
		c1.11,0.33,1.91,0.75,2.42,1.24s0.76,1.11,0.76,1.84c0,0.82-0.31,1.46-0.93,1.92s-1.45,0.7-2.5,0.7c-0.73,0-1.39-0.13-1.98-0.4
		c-0.6-0.27-1.05-0.63-1.36-1.09c-0.31-0.46-0.47-1-0.47-1.61h1.95c0,1.04,0.62,1.56,1.87,1.56c0.46,0,0.82-0.09,1.08-0.28
		C358.68,236.23,358.8,235.96,358.8,235.63z"/>
	<path class="st4" d="M367.75,234.01h-3.73v2.53h4.38v1.56h-6.33v-9.44h6.31v1.58h-4.37v2.25h3.73L367.75,234.01L367.75,234.01z"/>
	<path class="st4" d="M371.49,234.78v3.33h-1.95v-9.44h3.68c0.71,0,1.33,0.13,1.87,0.39s0.95,0.63,1.24,1.11
		c0.29,0.48,0.43,1.02,0.43,1.63c0,0.92-0.32,1.65-0.95,2.19c-0.63,0.53-1.51,0.8-2.63,0.8h-1.69V234.78z M371.49,233.2h1.74
		c0.51,0,0.91-0.12,1.18-0.36s0.41-0.59,0.41-1.04c0-0.46-0.14-0.84-0.41-1.12c-0.27-0.29-0.65-0.43-1.13-0.44h-1.78L371.49,233.2
		L371.49,233.2z"/>
	<path class="st4" d="M387.68,238.1h-6.47v-1.28l3.05-3.25c0.42-0.46,0.73-0.86,0.93-1.2c0.2-0.34,0.3-0.67,0.3-0.97
		c0-0.42-0.11-0.75-0.32-0.99c-0.21-0.24-0.51-0.36-0.91-0.36c-0.42,0-0.76,0.15-1,0.44s-0.37,0.67-0.37,1.15h-1.88
		c0-0.57,0.14-1.1,0.41-1.58s0.66-0.85,1.16-1.12c0.5-0.27,1.07-0.41,1.71-0.41c0.97,0,1.73,0.23,2.27,0.7s0.81,1.13,0.81,1.98
		c0,0.47-0.12,0.94-0.36,1.43c-0.24,0.48-0.66,1.05-1.24,1.69l-2.15,2.26h4.06L387.68,238.1L387.68,238.1z"/>
	<path class="st4" d="M395.18,234.2c0,1.31-0.27,2.3-0.81,3c-0.54,0.69-1.33,1.04-2.37,1.04c-1.03,0-1.82-0.34-2.36-1.02
		c-0.54-0.68-0.82-1.65-0.84-2.92v-1.74c0-1.32,0.27-2.32,0.82-3c0.55-0.68,1.33-1.02,2.36-1.02s1.82,0.34,2.36,1.01
		c0.54,0.68,0.82,1.65,0.84,2.91V234.2z M393.31,232.29c0-0.78-0.11-1.35-0.32-1.71c-0.21-0.36-0.55-0.54-1-0.54
		c-0.44,0-0.77,0.17-0.98,0.51c-0.21,0.34-0.32,0.87-0.33,1.59v2.3c0,0.77,0.1,1.34,0.31,1.72c0.21,0.37,0.55,0.56,1.01,0.56
		c0.46,0,0.79-0.18,0.99-0.54c0.2-0.36,0.31-0.91,0.32-1.65V232.29z"/>
	<path class="st4" d="M401,238.1h-1.87v-7.22l-2.24,0.69v-1.52l3.91-1.4h0.2L401,238.1L401,238.1z"/>
	<path class="st4" d="M410.22,231.17c0,0.46-0.11,0.86-0.34,1.22c-0.23,0.35-0.54,0.64-0.95,0.85c0.46,0.22,0.82,0.52,1.09,0.91
		s0.4,0.84,0.4,1.36c0,0.84-0.29,1.5-0.86,1.99c-0.57,0.49-1.35,0.73-2.33,0.73c-0.98,0-1.76-0.24-2.33-0.73
		c-0.57-0.49-0.86-1.15-0.86-1.98c0-0.52,0.13-0.98,0.4-1.37s0.63-0.69,1.08-0.91c-0.4-0.21-0.72-0.5-0.94-0.85
		s-0.34-0.76-0.34-1.22c0-0.8,0.27-1.44,0.8-1.92c0.54-0.48,1.26-0.72,2.18-0.72c0.92,0,1.64,0.24,2.18,0.71
		C409.95,229.72,410.22,230.36,410.22,231.17z M408.54,235.38c0-0.41-0.12-0.74-0.36-0.99s-0.56-0.37-0.96-0.37
		s-0.72,0.12-0.95,0.37s-0.36,0.57-0.36,0.99c0,0.4,0.12,0.73,0.35,0.97c0.23,0.25,0.56,0.37,0.97,0.37s0.72-0.12,0.96-0.36
		C408.42,236.13,408.54,235.8,408.54,235.38z M408.34,231.26c0-0.37-0.1-0.66-0.29-0.88s-0.47-0.33-0.82-0.33s-0.62,0.11-0.82,0.32
		c-0.19,0.22-0.29,0.51-0.29,0.89s0.1,0.68,0.29,0.91c0.19,0.23,0.47,0.34,0.82,0.34s0.63-0.11,0.82-0.34
		C408.25,231.94,408.34,231.64,408.34,231.26z"/>
</g>
<g>
	<path class="st4" d="M494.89,228.66h1.95v6.54c0,0.6-0.13,1.13-0.4,1.59c-0.27,0.46-0.64,0.82-1.12,1.07s-1.03,0.38-1.64,0.38
		c-1,0-1.78-0.25-2.33-0.76c-0.56-0.51-0.84-1.23-0.84-2.16h1.96c0,0.46,0.1,0.8,0.29,1.02s0.5,0.33,0.92,0.33
		c0.37,0,0.67-0.13,0.89-0.38c0.22-0.25,0.33-0.62,0.33-1.09L494.89,228.66L494.89,228.66z"/>
	<path class="st4" d="M503.69,236.16h-3.41l-0.65,1.95h-2.07l3.51-9.44h1.8l3.53,9.44h-2.07L503.69,236.16z M500.8,234.58h2.36
		l-1.19-3.53L500.8,234.58z"/>
	<path class="st4" d="M514.97,238.1h-1.94l-3.79-6.21v6.21h-1.95v-9.44h1.95l3.79,6.22v-6.22h1.94V238.1z"/>
	<path class="st4" d="M526.24,238.1h-6.47v-1.28l3.05-3.25c0.42-0.46,0.73-0.86,0.93-1.2c0.2-0.34,0.3-0.67,0.3-0.97
		c0-0.42-0.11-0.75-0.32-0.99c-0.21-0.24-0.52-0.36-0.91-0.36c-0.42,0-0.76,0.15-1,0.44s-0.37,0.67-0.37,1.15h-1.88
		c0-0.57,0.14-1.1,0.41-1.58c0.27-0.48,0.66-0.85,1.16-1.12c0.5-0.27,1.07-0.41,1.71-0.41c0.97,0,1.73,0.23,2.27,0.7
		s0.81,1.13,0.81,1.98c0,0.47-0.12,0.94-0.36,1.43c-0.24,0.48-0.66,1.05-1.24,1.69l-2.15,2.26h4.06V238.1z"/>
	<path class="st4" d="M533.75,234.2c0,1.31-0.27,2.3-0.81,3c-0.54,0.69-1.33,1.04-2.37,1.04c-1.03,0-1.82-0.34-2.36-1.02
		c-0.54-0.68-0.82-1.65-0.84-2.92v-1.74c0-1.32,0.27-2.32,0.82-3c0.55-0.68,1.33-1.02,2.36-1.02c1.03,0,1.82,0.34,2.36,1.01
		c0.54,0.68,0.82,1.65,0.84,2.91V234.2z M531.87,232.29c0-0.78-0.11-1.35-0.32-1.71c-0.21-0.36-0.55-0.54-1-0.54
		c-0.44,0-0.77,0.17-0.97,0.51c-0.21,0.34-0.32,0.87-0.33,1.59v2.3c0,0.77,0.1,1.34,0.31,1.72c0.21,0.37,0.54,0.56,1.01,0.56
		c0.46,0,0.79-0.18,0.99-0.54c0.2-0.36,0.31-0.91,0.32-1.65v-2.24H531.87z"/>
	<path class="st4" d="M541.48,238.1h-6.47v-1.28l3.05-3.25c0.42-0.46,0.73-0.86,0.93-1.2c0.2-0.34,0.3-0.67,0.3-0.97
		c0-0.42-0.11-0.75-0.32-0.99c-0.21-0.24-0.52-0.36-0.91-0.36c-0.42,0-0.76,0.15-1,0.44s-0.37,0.67-0.37,1.15h-1.88
		c0-0.57,0.14-1.1,0.41-1.58c0.27-0.48,0.66-0.85,1.16-1.12c0.5-0.27,1.07-0.41,1.71-0.41c0.97,0,1.73,0.23,2.27,0.7
		s0.81,1.13,0.81,1.98c0,0.47-0.12,0.94-0.36,1.43c-0.24,0.48-0.66,1.05-1.24,1.69l-2.15,2.26h4.06V238.1z"/>
	<path class="st4" d="M548.98,234.2c0,1.31-0.27,2.3-0.81,3c-0.54,0.69-1.33,1.04-2.37,1.04c-1.03,0-1.82-0.34-2.36-1.02
		c-0.54-0.68-0.82-1.65-0.84-2.92v-1.74c0-1.32,0.27-2.32,0.82-3c0.55-0.68,1.33-1.02,2.36-1.02c1.03,0,1.82,0.34,2.36,1.01
		c0.54,0.68,0.82,1.65,0.84,2.91V234.2z M547.11,232.29c0-0.78-0.11-1.35-0.32-1.71c-0.21-0.36-0.55-0.54-1-0.54
		c-0.44,0-0.77,0.17-0.98,0.51c-0.21,0.34-0.32,0.87-0.33,1.59v2.3c0,0.77,0.1,1.34,0.31,1.72c0.21,0.38,0.55,0.56,1.01,0.56
		c0.46,0,0.79-0.18,0.99-0.54c0.2-0.36,0.31-0.91,0.32-1.65V232.29z"/>
</g>
<g>
	<path class="st3" d="M281.16,121.51v-9.44h2.9c0.83,0,1.57,0.19,2.23,0.56s1.17,0.91,1.53,1.59s0.55,1.47,0.55,2.35V117
		c0,0.88-0.18,1.66-0.54,2.34c-0.36,0.68-0.87,1.21-1.53,1.59s-1.4,0.57-2.22,0.57h-2.92V121.51z M283.1,113.64v6.3h0.94
		c0.76,0,1.34-0.25,1.74-0.75s0.61-1.21,0.62-2.13v-0.5c0-0.96-0.2-1.69-0.6-2.18c-0.4-0.5-0.98-0.74-1.74-0.74
		C284.06,113.64,283.1,113.64,283.1,113.64z"/>
	<path class="st3" d="M294.98,119.56h-3.41l-0.65,1.95h-2.07l3.51-9.44h1.8l3.53,9.44h-2.07L294.98,119.56z M292.1,117.99h2.36
		l-1.19-3.53L292.1,117.99z"/>
	<path class="st3" d="M300.65,121.51h-1.95v-9.44h1.95V121.51z"/>
	<path class="st3" d="M304.4,119.95h4.13v1.56h-6.08v-9.44h1.95L304.4,119.95L304.4,119.95z"/>
	<path class="st3" d="M311.09,116.32l1.96-4.25h2.13l-3.1,6.02v3.42h-1.98v-3.42l-3.1-6.02h2.13L311.09,116.32z"/>
	<path class="st3" d="M282.18,125.35v6.22c0,1.03-0.32,1.85-0.97,2.45c-0.65,0.6-1.53,0.9-2.65,0.9c-1.1,0-1.98-0.29-2.63-0.88
		c-0.65-0.58-0.98-1.39-0.99-2.41v-6.29h1.95v6.23c0,0.62,0.15,1.07,0.44,1.35s0.71,0.42,1.23,0.42c1.09,0,1.65-0.58,1.67-1.72
		v-6.28h1.95V125.35z"/>
	<path class="st3" d="M288.67,132.31c0-0.37-0.13-0.65-0.39-0.85c-0.26-0.2-0.73-0.4-1.4-0.62c-0.67-0.22-1.21-0.43-1.6-0.64
		c-1.07-0.58-1.61-1.36-1.61-2.34c0-0.51,0.14-0.96,0.43-1.37c0.29-0.4,0.7-0.71,1.24-0.94s1.14-0.34,1.81-0.34
		c0.67,0,1.27,0.12,1.8,0.37s0.94,0.59,1.23,1.03c0.29,0.45,0.44,0.95,0.44,1.52h-1.95c0-0.43-0.14-0.77-0.41-1.01
		s-0.65-0.36-1.15-0.36c-0.48,0-0.85,0.1-1.11,0.3s-0.4,0.47-0.4,0.79c0,0.31,0.15,0.56,0.46,0.77s0.76,0.4,1.36,0.58
		c1.11,0.33,1.91,0.75,2.42,1.24s0.76,1.11,0.76,1.84c0,0.82-0.31,1.46-0.93,1.92s-1.45,0.7-2.5,0.7c-0.73,0-1.39-0.13-1.98-0.4
		c-0.6-0.27-1.05-0.63-1.36-1.09c-0.31-0.46-0.47-1-0.47-1.61h1.95c0,1.04,0.62,1.56,1.87,1.56c0.46,0,0.82-0.09,1.08-0.28
		C288.54,132.91,288.67,132.65,288.67,132.31z"/>
	<path class="st3" d="M297.62,130.7h-3.73v2.53h4.38v1.56h-6.33v-9.44h6.31v1.58h-4.37v2.25h3.73L297.62,130.7L297.62,130.7z"/>
	<path class="st3" d="M302.9,131.33h-1.55v3.46h-1.95v-9.44h3.51c1.11,0,1.98,0.25,2.58,0.75s0.91,1.2,0.91,2.11
		c0,0.64-0.14,1.18-0.42,1.61c-0.28,0.43-0.7,0.77-1.27,1.03l2.04,3.86v0.09h-2.09L302.9,131.33z M301.35,129.76h1.57
		c0.49,0,0.87-0.12,1.13-0.37c0.27-0.25,0.4-0.59,0.4-1.03c0-0.45-0.13-0.79-0.38-1.05s-0.64-0.38-1.16-0.38h-1.56V129.76z"/>
	<path class="st3" d="M312.78,132.31c0-0.37-0.13-0.65-0.39-0.85c-0.26-0.2-0.73-0.4-1.4-0.62c-0.67-0.22-1.21-0.43-1.6-0.64
		c-1.07-0.58-1.61-1.36-1.61-2.34c0-0.51,0.14-0.96,0.43-1.37c0.29-0.4,0.7-0.71,1.24-0.94s1.14-0.34,1.81-0.34
		c0.67,0,1.27,0.12,1.8,0.37s0.94,0.59,1.23,1.03c0.29,0.45,0.44,0.95,0.44,1.52h-1.95c0-0.43-0.14-0.77-0.41-1.01
		s-0.65-0.36-1.15-0.36c-0.48,0-0.85,0.1-1.11,0.3s-0.4,0.47-0.4,0.79c0,0.31,0.15,0.56,0.46,0.77s0.76,0.4,1.36,0.58
		c1.11,0.33,1.91,0.75,2.42,1.24s0.76,1.11,0.76,1.84c0,0.82-0.31,1.46-0.93,1.92s-1.45,0.7-2.5,0.7c-0.73,0-1.39-0.13-1.98-0.4
		c-0.6-0.27-1.05-0.63-1.36-1.09c-0.31-0.46-0.47-1-0.47-1.61h1.95c0,1.04,0.62,1.56,1.87,1.56c0.46,0,0.82-0.09,1.08-0.28
		C312.65,132.91,312.78,132.65,312.78,132.31z"/>
</g>
<g>
	<path class="st2" d="M241.51,53.19c0,0.93-0.16,1.74-0.49,2.44s-0.8,1.24-1.41,1.62c-0.61,0.38-1.31,0.57-2.1,0.57
		c-0.78,0-1.48-0.19-2.09-0.56c-0.61-0.38-1.09-0.91-1.43-1.61s-0.51-1.5-0.51-2.41v-0.47c0-0.93,0.17-1.75,0.5-2.45
		s0.81-1.25,1.42-1.63c0.61-0.38,1.31-0.57,2.1-0.57s1.49,0.19,2.1,0.57c0.61,0.38,1.08,0.92,1.42,1.63s0.5,1.52,0.5,2.45v0.42
		H241.51z M239.54,52.77c0-0.99-0.18-1.74-0.53-2.26c-0.35-0.51-0.86-0.77-1.52-0.77c-0.65,0-1.16,0.25-1.51,0.76
		s-0.53,1.25-0.54,2.23v0.46c0,0.96,0.18,1.71,0.53,2.24c0.35,0.53,0.86,0.8,1.53,0.8c0.65,0,1.15-0.26,1.5-0.77
		c0.35-0.51,0.53-1.26,0.53-2.24v-0.45H239.54z"/>
	<path class="st2" d="M250.33,54.56c-0.07,1.02-0.45,1.82-1.12,2.4c-0.68,0.58-1.57,0.88-2.67,0.88c-1.21,0-2.16-0.41-2.86-1.22
		c-0.69-0.81-1.04-1.93-1.04-3.35v-0.58c0-0.91,0.16-1.71,0.48-2.4s0.78-1.22,1.37-1.59s1.28-0.55,2.07-0.55
		c1.09,0,1.97,0.29,2.63,0.88c0.67,0.58,1.05,1.4,1.15,2.46h-1.95c-0.05-0.61-0.22-1.05-0.51-1.33c-0.29-0.27-0.74-0.41-1.33-0.41
		c-0.65,0-1.13,0.23-1.46,0.7c-0.32,0.46-0.49,1.19-0.5,2.16v0.71c0,1.02,0.15,1.77,0.46,2.24s0.8,0.71,1.46,0.71
		c0.6,0,1.05-0.14,1.35-0.41s0.47-0.7,0.51-1.27h1.96V54.56z"/>
	<path class="st2" d="M259.02,54.56c-0.07,1.02-0.45,1.82-1.12,2.4c-0.68,0.58-1.57,0.88-2.67,0.88c-1.21,0-2.16-0.41-2.86-1.22
		c-0.69-0.81-1.04-1.93-1.04-3.35v-0.58c0-0.91,0.16-1.71,0.48-2.4s0.78-1.22,1.37-1.59s1.29-0.55,2.07-0.55
		c1.09,0,1.97,0.29,2.63,0.88c0.67,0.58,1.05,1.4,1.15,2.46h-1.95c-0.05-0.61-0.22-1.05-0.51-1.33c-0.29-0.27-0.74-0.41-1.33-0.41
		c-0.65,0-1.13,0.23-1.46,0.7s-0.49,1.19-0.5,2.16v0.71c0,1.02,0.15,1.77,0.46,2.24s0.8,0.71,1.46,0.71c0.6,0,1.05-0.14,1.34-0.41
		s0.47-0.7,0.51-1.27h1.97V54.56z"/>
	<path class="st2" d="M265.62,55.75h-3.41l-0.65,1.95h-2.07l3.51-9.44h1.8l3.53,9.44h-2.07L265.62,55.75z M262.74,54.18h2.36
		l-1.19-3.53L262.74,54.18z"/>
	<path class="st2" d="M274.12,55.22c0-0.37-0.13-0.65-0.39-0.85c-0.26-0.2-0.73-0.4-1.4-0.62c-0.67-0.22-1.21-0.43-1.6-0.64
		c-1.07-0.58-1.61-1.36-1.61-2.34c0-0.51,0.14-0.96,0.43-1.37c0.29-0.4,0.7-0.71,1.24-0.94s1.14-0.34,1.81-0.34
		c0.67,0,1.27,0.12,1.8,0.37s0.94,0.59,1.23,1.03c0.29,0.45,0.44,0.95,0.44,1.52h-1.95c0-0.43-0.14-0.77-0.41-1.01
		s-0.65-0.36-1.15-0.36c-0.48,0-0.85,0.1-1.11,0.3s-0.4,0.47-0.4,0.79c0,0.31,0.15,0.56,0.46,0.77s0.76,0.4,1.36,0.58
		c1.11,0.33,1.91,0.75,2.42,1.24s0.76,1.11,0.76,1.84c0,0.82-0.31,1.46-0.93,1.92s-1.45,0.7-2.5,0.7c-0.73,0-1.39-0.13-1.98-0.4
		c-0.6-0.27-1.05-0.63-1.36-1.09s-0.47-1-0.47-1.61h1.95c0,1.04,0.62,1.56,1.87,1.56c0.46,0,0.82-0.09,1.08-0.28
		C273.99,55.82,274.12,55.56,274.12,55.22z"/>
	<path class="st2" d="M279.46,57.7h-1.95v-9.44h1.95V57.7z"/>
	<path class="st2" d="M289.02,53.19c0,0.93-0.16,1.74-0.49,2.44c-0.33,0.7-0.8,1.24-1.41,1.62c-0.61,0.38-1.31,0.57-2.1,0.57
		c-0.78,0-1.48-0.19-2.09-0.56s-1.09-0.91-1.43-1.61s-0.51-1.5-0.51-2.41v-0.47c0-0.93,0.17-1.75,0.5-2.45s0.81-1.25,1.42-1.63
		c0.61-0.38,1.31-0.57,2.1-0.57s1.49,0.19,2.1,0.57c0.61,0.38,1.08,0.92,1.42,1.63s0.5,1.52,0.5,2.45v0.42H289.02z M287.05,52.77
		c0-0.99-0.18-1.74-0.53-2.26c-0.35-0.51-0.86-0.77-1.52-0.77c-0.65,0-1.16,0.25-1.51,0.76s-0.53,1.25-0.54,2.23v0.46
		c0,0.96,0.18,1.71,0.53,2.24s0.86,0.8,1.53,0.8c0.65,0,1.15-0.26,1.5-0.77c0.35-0.51,0.53-1.26,0.53-2.24v-0.45H287.05z"/>
	<path class="st2" d="M298.11,57.7h-1.94l-3.79-6.21v6.21h-1.95v-9.44h1.95l3.79,6.22v-6.22h1.94V57.7z"/>
	<path class="st2" d="M305.25,55.75h-3.41l-0.65,1.95h-2.07l3.51-9.44h1.8l3.53,9.44h-2.07L305.25,55.75z M302.37,54.18h2.36
		l-1.19-3.53L302.37,54.18z"/>
	<path class="st2" d="M310.8,56.14h4.13v1.56h-6.08v-9.44h1.95L310.8,56.14L310.8,56.14z"/>
	<path class="st2" d="M282.18,61.54v6.22c0,1.03-0.32,1.85-0.97,2.45s-1.53,0.9-2.65,0.9c-1.1,0-1.98-0.29-2.63-0.88
		c-0.65-0.58-0.98-1.39-0.99-2.41v-6.29h1.95v6.23c0,0.62,0.15,1.07,0.44,1.35s0.71,0.42,1.23,0.42c1.09,0,1.65-0.58,1.67-1.72
		v-6.28h1.95V61.54z"/>
	<path class="st2" d="M288.67,68.5c0-0.37-0.13-0.65-0.39-0.85s-0.73-0.4-1.4-0.62c-0.67-0.22-1.21-0.43-1.6-0.64
		c-1.07-0.58-1.61-1.36-1.61-2.34c0-0.51,0.14-0.96,0.43-1.37c0.29-0.4,0.7-0.71,1.24-0.94s1.14-0.34,1.81-0.34
		c0.67,0,1.27,0.12,1.8,0.37s0.94,0.59,1.23,1.03c0.29,0.45,0.44,0.95,0.44,1.52h-1.95c0-0.43-0.14-0.77-0.41-1.01
		s-0.65-0.36-1.15-0.36c-0.48,0-0.85,0.1-1.11,0.3s-0.4,0.47-0.4,0.79c0,0.31,0.15,0.56,0.46,0.77s0.76,0.4,1.36,0.58
		c1.11,0.33,1.91,0.75,2.42,1.24s0.76,1.11,0.76,1.84c0,0.82-0.31,1.46-0.93,1.92s-1.45,0.7-2.5,0.7c-0.73,0-1.39-0.13-1.98-0.4
		c-0.6-0.27-1.05-0.63-1.36-1.09s-0.47-1-0.47-1.61h1.95c0,1.04,0.62,1.56,1.87,1.56c0.46,0,0.82-0.09,1.08-0.28
		C288.54,69.1,288.67,68.84,288.67,68.5z"/>
	<path class="st2" d="M297.62,66.89h-3.73v2.53h4.38v1.56h-6.33v-9.44h6.31v1.58h-4.37v2.25h3.73L297.62,66.89L297.62,66.89z"/>
	<path class="st2" d="M302.9,67.52h-1.55v3.46h-1.95v-9.44h3.51c1.11,0,1.98,0.25,2.58,0.75s0.91,1.2,0.91,2.11
		c0,0.64-0.14,1.18-0.42,1.61s-0.7,0.77-1.27,1.03l2.04,3.86v0.09h-2.09L302.9,67.52z M301.35,65.95h1.57
		c0.49,0,0.87-0.12,1.13-0.37c0.27-0.25,0.4-0.59,0.4-1.03c0-0.45-0.13-0.79-0.38-1.05s-0.64-0.38-1.16-0.38h-1.56V65.95z"/>
	<path class="st2" d="M312.78,68.5c0-0.37-0.13-0.65-0.39-0.85s-0.73-0.4-1.4-0.62c-0.67-0.22-1.21-0.43-1.6-0.64
		c-1.07-0.58-1.61-1.36-1.61-2.34c0-0.51,0.14-0.96,0.43-1.37c0.29-0.4,0.7-0.71,1.24-0.94s1.14-0.34,1.81-0.34
		c0.67,0,1.27,0.12,1.8,0.37s0.94,0.59,1.23,1.03c0.29,0.45,0.44,0.95,0.44,1.52h-1.95c0-0.43-0.14-0.77-0.41-1.01
		s-0.65-0.36-1.15-0.36c-0.48,0-0.85,0.1-1.11,0.3s-0.4,0.47-0.4,0.79c0,0.31,0.15,0.56,0.46,0.77s0.76,0.4,1.36,0.58
		c1.11,0.33,1.91,0.75,2.42,1.24s0.76,1.11,0.76,1.84c0,0.82-0.31,1.46-0.93,1.92s-1.45,0.7-2.5,0.7c-0.73,0-1.39-0.13-1.98-0.4
		c-0.6-0.27-1.05-0.63-1.36-1.09s-0.47-1-0.47-1.61h1.95c0,1.04,0.62,1.56,1.87,1.56c0.46,0,0.82-0.09,1.08-0.28
		C312.65,69.1,312.78,68.84,312.78,68.5z"/>
</g>
<g>
	<path class="st5" d="M393.67,59.39c-0.49,0.48-1.06,0.72-1.71,0.72c-0.83,0-1.5-0.29-2-0.86s-0.75-1.34-0.75-2.32
		c0-0.62,0.13-1.19,0.41-1.7c0.27-0.52,0.65-0.92,1.13-1.21s1.03-0.43,1.63-0.43c0.62,0,1.18,0.16,1.66,0.47s0.86,0.76,1.13,1.34
		c0.27,0.58,0.4,1.25,0.41,2v0.69c0,1.57-0.39,2.81-1.17,3.71c-0.78,0.9-1.89,1.38-3.33,1.44l-0.46,0.01v-1.56l0.42-0.01
		C392.65,61.61,393.53,60.84,393.67,59.39z M392.41,58.67c0.3,0,0.56-0.08,0.78-0.23c0.22-0.16,0.38-0.34,0.5-0.56V57.1
		c0-0.63-0.12-1.13-0.36-1.48s-0.57-0.52-0.97-0.52c-0.38,0-0.69,0.17-0.93,0.51s-0.36,0.78-0.36,1.29c0,0.51,0.12,0.94,0.35,1.27
		C391.65,58.51,391.99,58.67,392.41,58.67z"/>
	<path class="st5" d="M397.08,62.24c0-0.3,0.1-0.54,0.3-0.73c0.2-0.19,0.45-0.28,0.76-0.28s0.56,0.09,0.76,0.28s0.3,0.43,0.3,0.73
		c0,0.29-0.1,0.53-0.3,0.72s-0.45,0.28-0.77,0.28c-0.31,0-0.56-0.09-0.76-0.28S397.08,62.53,397.08,62.24z"/>
	<path class="st5" d="M406.3,59.61h1.07v1.51h-1.07v2.04h-1.87v-2.04h-3.87l-0.08-1.18l3.94-6.22h1.89v5.89H406.3z M402.34,59.61
		h2.09v-3.33l-0.12,0.21L402.34,59.61z"/>
</g>
<g>
	<path class="st4" d="M366.97,43.2h-1.87v-7.22l-2.24,0.69v-1.52l3.91-1.4h0.2L366.97,43.2L366.97,43.2z"/>
	<path class="st4" d="M374.59,43.2h-1.87v-7.22l-2.24,0.69v-1.52l3.91-1.4h0.2L374.59,43.2L374.59,43.2z"/>
	<path class="st4" d="M383.19,39.65h1.07v1.51h-1.07v2.04h-1.87v-2.04h-3.87l-0.08-1.18l3.94-6.22h1.89v5.89H383.19z M379.23,39.65
		h2.09v-3.33l-0.12,0.21L379.23,39.65z"/>
	<path class="st4" d="M385.44,42.28c0-0.3,0.1-0.54,0.3-0.73c0.2-0.19,0.45-0.28,0.76-0.28s0.56,0.09,0.76,0.28s0.3,0.43,0.3,0.73
		c0,0.29-0.1,0.53-0.3,0.72s-0.45,0.28-0.77,0.28c-0.31,0-0.56-0.09-0.76-0.28S385.44,42.57,385.44,42.28z"/>
	<path class="st4" d="M393.68,43.2h-1.87v-7.22l-2.24,0.69v-1.52l3.91-1.4h0.2L393.68,43.2L393.68,43.2z"/>
	<path class="st4" d="M402.79,33.76l2.42,6.85l2.41-6.85h2.55v9.44h-1.95v-2.58l0.19-4.45l-2.55,7.03h-1.34l-2.54-7.03l0.19,4.45
		v2.58h-1.95v-9.44H402.79z"/>
</g>
<g>
	<path class="st4" d="M505.53,20.77h-1.87v-7.22l-2.24,0.69v-1.52l3.91-1.4h0.2V20.77z"/>
	<path class="st4" d="M515.07,20.77h-6.47v-1.28l3.05-3.25c0.42-0.46,0.73-0.86,0.93-1.2c0.2-0.34,0.3-0.67,0.3-0.97
		c0-0.42-0.11-0.75-0.32-0.99c-0.21-0.24-0.52-0.36-0.91-0.36c-0.42,0-0.76,0.15-1,0.44s-0.37,0.67-0.37,1.15h-1.88
		c0-0.57,0.14-1.1,0.41-1.58c0.27-0.48,0.66-0.85,1.16-1.12c0.5-0.27,1.07-0.41,1.71-0.41c0.97,0,1.73,0.23,2.27,0.7
		s0.81,1.13,0.81,1.98c0,0.47-0.12,0.94-0.36,1.43c-0.24,0.48-0.66,1.05-1.24,1.69l-2.15,2.26h4.06V20.77z"/>
	<path class="st4" d="M520.6,17c-0.49,0.48-1.06,0.72-1.71,0.72c-0.83,0-1.5-0.29-2-0.86s-0.75-1.34-0.75-2.32
		c0-0.62,0.13-1.19,0.41-1.7c0.27-0.52,0.65-0.92,1.13-1.21s1.03-0.43,1.63-0.43c0.62,0,1.18,0.16,1.66,0.47s0.86,0.76,1.13,1.34
		s0.4,1.25,0.41,2v0.69c0,1.57-0.39,2.81-1.17,3.71c-0.78,0.9-1.89,1.38-3.33,1.44l-0.46,0.01V19.3l0.42-0.01
		C519.58,19.22,520.46,18.46,520.6,17z M519.35,16.29c0.3,0,0.56-0.08,0.78-0.23c0.22-0.16,0.38-0.34,0.5-0.56v-0.77
		c0-0.63-0.12-1.13-0.36-1.48c-0.24-0.35-0.57-0.52-0.97-0.52c-0.38,0-0.69,0.17-0.93,0.51s-0.36,0.78-0.36,1.29
		s0.12,0.94,0.35,1.27C518.59,16.12,518.92,16.29,519.35,16.29z"/>
	<path class="st4" d="M524.01,19.85c0-0.3,0.1-0.54,0.3-0.73c0.2-0.19,0.45-0.28,0.75-0.28c0.31,0,0.56,0.09,0.76,0.28
		c0.2,0.19,0.3,0.43,0.3,0.73c0,0.29-0.1,0.53-0.3,0.72c-0.2,0.18-0.45,0.28-0.76,0.28c-0.31,0-0.56-0.09-0.76-0.28
		C524.11,20.39,524.01,20.15,524.01,19.85z"/>
	<path class="st4" d="M534.11,12.38l-3.65,8.39h-1.98l3.66-7.93h-4.69v-1.51h6.67v1.05H534.11z"/>
	<path class="st4" d="M541.36,11.33l2.42,6.85l2.41-6.85h2.55v9.44h-1.95v-2.58l0.19-4.45l-2.55,7.03h-1.34l-2.54-7.03l0.19,4.45
		v2.58h-1.95v-9.44C538.79,11.33,541.36,11.33,541.36,11.33z"/>
</g>
<g>
	<path class="st5" d="M391.39,166.06l-3.65,8.39h-1.98l3.66-7.93h-4.69v-1.51h6.67v1.05H391.39z"/>
	<path class="st5" d="M399.01,166.06l-3.65,8.39h-1.98l3.66-7.93h-4.69v-1.51h6.67v1.05H399.01z"/>
	<path class="st5" d="M400.38,173.53c0-0.3,0.1-0.54,0.3-0.73c0.2-0.19,0.45-0.28,0.76-0.28s0.56,0.09,0.76,0.28s0.3,0.43,0.3,0.73
		c0,0.29-0.1,0.53-0.3,0.72s-0.45,0.28-0.77,0.28c-0.31,0-0.56-0.09-0.76-0.28S400.38,173.82,400.38,173.53z"/>
	<path class="st5" d="M408.62,174.45h-1.87v-7.22l-2.24,0.69v-1.52l3.91-1.4h0.2L408.62,174.45L408.62,174.45z"/>
</g>
<g>
	<path class="st5" d="M391.44,214.12h-6.47v-1.28l3.05-3.25c0.42-0.46,0.73-0.86,0.93-1.2c0.2-0.34,0.3-0.67,0.3-0.97
		c0-0.42-0.11-0.75-0.32-0.99c-0.21-0.24-0.51-0.36-0.91-0.36c-0.42,0-0.76,0.15-1,0.44s-0.37,0.67-0.37,1.15h-1.88
		c0-0.57,0.14-1.1,0.41-1.58s0.66-0.85,1.16-1.12c0.5-0.27,1.07-0.41,1.71-0.41c0.97,0,1.73,0.23,2.27,0.7s0.81,1.13,0.81,1.98
		c0,0.47-0.12,0.94-0.36,1.43c-0.24,0.48-0.66,1.05-1.24,1.69l-2.15,2.26h4.06L391.44,214.12L391.44,214.12z"/>
	<path class="st5" d="M399.01,205.73l-3.65,8.39h-1.98l3.66-7.93h-4.69v-1.51h6.67v1.05H399.01z"/>
	<path class="st5" d="M400.38,213.2c0-0.3,0.1-0.54,0.3-0.73c0.2-0.19,0.45-0.28,0.76-0.28s0.56,0.09,0.76,0.28s0.3,0.43,0.3,0.73
		c0,0.29-0.1,0.53-0.3,0.72s-0.45,0.28-0.77,0.28c-0.31,0-0.56-0.09-0.76-0.28S400.38,213.49,400.38,213.2z"/>
	<path class="st5" d="M409.15,204.58v1.54h-0.18c-0.85,0.01-1.53,0.23-2.05,0.66c-0.52,0.43-0.83,1.02-0.93,1.78
		c0.5-0.51,1.13-0.76,1.9-0.76c0.82,0,1.47,0.29,1.96,0.88c0.48,0.59,0.73,1.36,0.73,2.32c0,0.61-0.13,1.17-0.4,1.67
		s-0.64,0.88-1.13,1.16s-1.04,0.42-1.65,0.42c-0.99,0-1.8-0.35-2.41-1.04c-0.61-0.69-0.92-1.62-0.92-2.77v-0.67
		c0-1.02,0.19-1.93,0.58-2.71c0.39-0.79,0.94-1.39,1.67-1.82c0.72-0.43,1.56-0.65,2.52-0.65h0.31V204.58z M407.32,209.32
		c-0.3,0-0.58,0.08-0.82,0.24c-0.25,0.16-0.43,0.37-0.54,0.62v0.57c0,0.63,0.12,1.11,0.37,1.47c0.25,0.35,0.59,0.53,1.04,0.53
		c0.4,0,0.73-0.16,0.98-0.48s0.37-0.73,0.37-1.23c0-0.51-0.13-0.93-0.38-1.24C408.08,209.48,407.74,209.32,407.32,209.32z"/>
</g>
<g>
	<path class="st5" d="M528.09,49.27h-1.88v-7.22l-2.24,0.69v-1.52l3.91-1.4h0.2v9.45H528.09z"/>
	<path class="st5" d="M536.24,39.74v1.54h-0.18c-0.85,0.01-1.53,0.23-2.05,0.66s-0.83,1.02-0.93,1.78c0.5-0.51,1.13-0.76,1.9-0.76
		c0.82,0,1.47,0.29,1.96,0.88c0.48,0.59,0.73,1.36,0.73,2.32c0,0.61-0.13,1.17-0.4,1.67s-0.64,0.88-1.13,1.16s-1.04,0.42-1.65,0.42
		c-0.99,0-1.8-0.35-2.41-1.04c-0.61-0.69-0.92-1.62-0.92-2.77v-0.67c0-1.02,0.19-1.93,0.58-2.71c0.39-0.79,0.94-1.39,1.67-1.82
		c0.72-0.43,1.56-0.65,2.52-0.65L536.24,39.74L536.24,39.74z M534.41,44.47c-0.3,0-0.58,0.08-0.82,0.24
		c-0.25,0.16-0.43,0.37-0.54,0.62v0.57c0,0.63,0.12,1.11,0.37,1.47s0.59,0.53,1.04,0.53c0.4,0,0.73-0.16,0.98-0.48
		s0.37-0.73,0.37-1.23c0-0.51-0.13-0.93-0.38-1.24C535.17,44.63,534.83,44.47,534.41,44.47z"/>
	<path class="st5" d="M538.95,48.35c0-0.3,0.1-0.54,0.3-0.73c0.2-0.19,0.45-0.28,0.76-0.28c0.31,0,0.56,0.09,0.76,0.28
		c0.2,0.19,0.3,0.43,0.3,0.73c0,0.29-0.1,0.53-0.3,0.72c-0.2,0.19-0.45,0.28-0.76,0.28c-0.31,0-0.56-0.09-0.76-0.28
		C539.05,48.88,538.95,48.65,538.95,48.35z"/>
	<path class="st5" d="M549.1,49.27h-6.47v-1.28l3.05-3.25c0.42-0.46,0.73-0.86,0.93-1.2c0.2-0.34,0.3-0.67,0.3-0.97
		c0-0.42-0.11-0.75-0.32-0.99c-0.21-0.24-0.51-0.36-0.91-0.36c-0.42,0-0.76,0.15-1,0.44s-0.37,0.67-0.37,1.15h-1.88
		c0-0.57,0.14-1.1,0.41-1.58c0.27-0.48,0.66-0.85,1.16-1.12s1.07-0.41,1.71-0.41c0.97,0,1.73,0.23,2.27,0.7s0.81,1.13,0.81,1.98
		c0,0.47-0.12,0.94-0.36,1.43c-0.24,0.48-0.66,1.05-1.24,1.69l-2.15,2.26h4.06V49.27z"/>
</g>
<g>
	<path class="st5" d="M529.69,163.09c0,0.46-0.11,0.86-0.34,1.22c-0.23,0.35-0.54,0.64-0.95,0.85c0.46,0.22,0.82,0.52,1.09,0.91
		s0.4,0.84,0.4,1.36c0,0.84-0.29,1.5-0.86,1.99c-0.57,0.49-1.35,0.73-2.33,0.73c-0.98,0-1.76-0.24-2.33-0.73
		c-0.58-0.49-0.86-1.15-0.86-1.98c0-0.52,0.13-0.98,0.4-1.37s0.63-0.69,1.08-0.91c-0.4-0.21-0.72-0.5-0.94-0.85
		c-0.23-0.35-0.34-0.76-0.34-1.22c0-0.8,0.27-1.44,0.8-1.92c0.54-0.48,1.26-0.72,2.18-0.72c0.92,0,1.64,0.24,2.18,0.71
		C529.42,161.64,529.69,162.28,529.69,163.09z M528.01,167.3c0-0.41-0.12-0.74-0.36-0.99s-0.56-0.37-0.96-0.37s-0.71,0.12-0.95,0.37
		s-0.36,0.57-0.36,0.99c0,0.4,0.12,0.73,0.35,0.97c0.23,0.25,0.56,0.37,0.97,0.37c0.41,0,0.72-0.12,0.96-0.36
		C527.89,168.05,528.01,167.72,528.01,167.3z M527.81,163.18c0-0.37-0.1-0.66-0.29-0.88c-0.2-0.22-0.47-0.33-0.82-0.33
		c-0.35,0-0.62,0.11-0.82,0.32c-0.19,0.22-0.29,0.51-0.29,0.89s0.1,0.68,0.29,0.91c0.2,0.23,0.47,0.34,0.82,0.34
		s0.63-0.11,0.82-0.34C527.72,163.86,527.81,163.56,527.81,163.18z"/>
	<path class="st5" d="M533.06,164.47h1c0.48,0,0.83-0.12,1.06-0.36s0.34-0.55,0.34-0.95c0-0.38-0.11-0.68-0.34-0.89
		s-0.54-0.32-0.94-0.32c-0.36,0-0.66,0.1-0.9,0.29c-0.24,0.2-0.36,0.45-0.36,0.77h-1.87c0-0.49,0.13-0.93,0.4-1.33
		c0.27-0.39,0.64-0.7,1.12-0.92s1-0.33,1.58-0.33c1,0,1.78,0.24,2.35,0.72s0.85,1.14,0.85,1.97c0,0.43-0.13,0.83-0.4,1.19
		c-0.26,0.36-0.61,0.64-1.04,0.84c0.53,0.19,0.93,0.48,1.19,0.86s0.39,0.83,0.39,1.35c0,0.84-0.31,1.51-0.92,2.02
		s-1.42,0.76-2.43,0.76c-0.94,0-1.71-0.25-2.31-0.75s-0.9-1.15-0.9-1.97h1.87c0,0.35,0.13,0.64,0.4,0.87s0.59,0.34,0.98,0.34
		c0.45,0,0.79-0.12,1.05-0.35c0.25-0.24,0.38-0.55,0.38-0.94c0-0.94-0.52-1.41-1.56-1.41h-0.99V164.47z"/>
	<path class="st5" d="M538.95,169.1c0-0.3,0.1-0.54,0.3-0.73c0.2-0.19,0.45-0.28,0.76-0.28c0.31,0,0.56,0.09,0.76,0.28
		c0.2,0.19,0.3,0.43,0.3,0.73c0,0.29-0.1,0.53-0.3,0.72c-0.2,0.19-0.45,0.28-0.76,0.28c-0.31,0-0.56-0.09-0.76-0.28
		C539.05,169.63,538.95,169.4,538.95,169.1z"/>
	<path class="st5" d="M548.78,163.09c0,0.46-0.11,0.86-0.34,1.22c-0.23,0.35-0.54,0.64-0.95,0.85c0.46,0.22,0.82,0.52,1.09,0.91
		s0.4,0.84,0.4,1.36c0,0.84-0.29,1.5-0.86,1.99c-0.57,0.49-1.35,0.73-2.33,0.73s-1.76-0.24-2.33-0.73
		c-0.58-0.49-0.86-1.15-0.86-1.98c0-0.52,0.13-0.98,0.4-1.37s0.63-0.69,1.08-0.91c-0.4-0.21-0.72-0.5-0.94-0.85
		c-0.23-0.35-0.34-0.76-0.34-1.22c0-0.8,0.27-1.44,0.8-1.92c0.54-0.48,1.26-0.72,2.18-0.72c0.92,0,1.64,0.24,2.18,0.71
		C548.51,161.64,548.78,162.28,548.78,163.09z M547.1,167.3c0-0.41-0.12-0.74-0.36-0.99s-0.56-0.37-0.96-0.37s-0.71,0.12-0.95,0.37
		s-0.36,0.57-0.36,0.99c0,0.4,0.12,0.73,0.35,0.97c0.23,0.25,0.56,0.37,0.97,0.37c0.41,0,0.72-0.12,0.96-0.36
		C546.99,168.05,547.1,167.72,547.1,167.3z M546.91,163.18c0-0.37-0.1-0.66-0.29-0.88c-0.2-0.22-0.47-0.33-0.82-0.33
		s-0.62,0.11-0.82,0.32c-0.19,0.22-0.29,0.51-0.29,0.89s0.1,0.68,0.29,0.91c0.2,0.23,0.47,0.34,0.82,0.34
		c0.35,0,0.63-0.11,0.82-0.34S546.91,163.56,546.91,163.18z"/>
</g>
<g>
	<path class="st5" d="M530,214.12h-6.47v-1.28l3.05-3.25c0.42-0.46,0.73-0.86,0.93-1.2c0.2-0.34,0.3-0.67,0.3-0.97
		c0-0.42-0.11-0.75-0.32-0.99c-0.21-0.24-0.51-0.36-0.91-0.36c-0.42,0-0.76,0.15-1,0.44s-0.37,0.67-0.37,1.15h-1.88
		c0-0.57,0.14-1.1,0.41-1.58s0.66-0.85,1.16-1.12c0.5-0.27,1.07-0.41,1.71-0.41c0.97,0,1.73,0.23,2.27,0.7s0.81,1.13,0.81,1.98
		c0,0.47-0.12,0.94-0.36,1.43c-0.24,0.48-0.66,1.05-1.24,1.69l-2.15,2.26H530V214.12z"/>
	<path class="st5" d="M535.54,210.35c-0.49,0.48-1.06,0.72-1.71,0.72c-0.83,0-1.5-0.29-2-0.86s-0.75-1.34-0.75-2.32
		c0-0.62,0.13-1.19,0.4-1.7c0.27-0.52,0.65-0.92,1.13-1.21c0.48-0.29,1.03-0.43,1.63-0.43c0.62,0,1.18,0.16,1.66,0.47
		s0.86,0.76,1.13,1.34s0.4,1.25,0.41,2v0.69c0,1.57-0.39,2.81-1.17,3.71c-0.78,0.9-1.89,1.38-3.33,1.44l-0.46,0.01v-1.56l0.42-0.01
		C534.52,212.57,535.4,211.81,535.54,210.35z M534.28,209.64c0.3,0,0.56-0.08,0.78-0.23c0.22-0.16,0.38-0.34,0.5-0.56v-0.77
		c0-0.63-0.12-1.13-0.36-1.48c-0.24-0.35-0.57-0.52-0.97-0.52c-0.38,0-0.68,0.17-0.93,0.51c-0.24,0.34-0.36,0.78-0.36,1.29
		s0.12,0.94,0.35,1.27C533.52,209.47,533.86,209.64,534.28,209.64z"/>
	<path class="st5" d="M538.95,213.2c0-0.3,0.1-0.54,0.3-0.73c0.2-0.19,0.45-0.28,0.76-0.28c0.31,0,0.56,0.09,0.76,0.28
		c0.2,0.19,0.3,0.43,0.3,0.73c0,0.29-0.1,0.53-0.3,0.72c-0.2,0.19-0.45,0.28-0.76,0.28c-0.31,0-0.56-0.09-0.76-0.28
		C539.05,213.73,538.95,213.49,538.95,213.2z"/>
	<path class="st5" d="M549.05,205.73l-3.65,8.39h-1.98l3.66-7.93h-4.69v-1.51h6.67L549.05,205.73L549.05,205.73z"/>
</g>
</svg>
