<?xml version="1.0" encoding="utf-8"?>
<!-- Generator: Adobe Illustrator 24.1.2, SVG Export Plug-In . SVG Version: 6.00 Build 0)  -->
<svg version="1.0" id="Layer_1" xmlns="http://www.w3.org/2000/svg" xmlns:xlink="http://www.w3.org/1999/xlink" x="0px" y="0px"
	 viewBox="0 0 600 289.29" style="enable-background:new 0 0 600 289.29;" xml:space="preserve">
<style type="text/css">
	.st0{enable-background:new    ;}
	.st1{fill:#505050;}
	.st2{fill:none;stroke:#989898;stroke-miterlimit:10;}
	.st3{fill:#63A886;}
	.st4{fill:#7EC9A4;}
	.st5{fill:#CC3C3B;}
	.st6{fill:#4E4E4E;}
	.st7{fill:#FFFFFF;}
	.st8{fill:#96D2B1;}
</style>
<g>
	<g class="st0">
		<path class="st1" d="M317.84,15.27c0,1.02-0.16,1.9-0.48,2.65c-0.32,0.75-0.77,1.33-1.35,1.78l1.85,1.44l-1.21,1.09l-2.28-1.8
			c-0.3,0.06-0.62,0.1-0.97,0.1c-0.86,0-1.63-0.21-2.32-0.64c-0.68-0.43-1.21-1.03-1.58-1.82s-0.56-1.7-0.56-2.72v-0.6
			c0-1.05,0.19-1.97,0.56-2.77c0.37-0.8,0.9-1.41,1.57-1.84s1.45-0.64,2.32-0.64c0.89,0,1.66,0.21,2.34,0.63s1.2,1.02,1.56,1.81
			c0.37,0.79,0.55,1.71,0.56,2.75L317.84,15.27L317.84,15.27z M315.97,14.71c0-1.21-0.22-2.12-0.68-2.75
			c-0.45-0.62-1.09-0.93-1.92-0.93c-0.8,0-1.43,0.32-1.88,0.95c-0.45,0.63-0.68,1.52-0.69,2.67v0.63c0,1.16,0.23,2.07,0.68,2.72
			c0.45,0.66,1.09,0.98,1.91,0.98c0.83,0,1.47-0.31,1.91-0.94c0.44-0.63,0.67-1.55,0.67-2.75L315.97,14.71L315.97,14.71z"/>
		<path class="st1" d="M320.65,12.2c0.34,0,0.6,0.1,0.77,0.28c0.19,0.19,0.28,0.43,0.28,0.71c0,0.28-0.09,0.52-0.28,0.69
			c-0.18,0.19-0.44,0.28-0.77,0.28c-0.32,0-0.57-0.09-0.76-0.28c-0.19-0.18-0.28-0.42-0.28-0.7c0-0.28,0.09-0.52,0.28-0.71
			C320.06,12.3,320.32,12.2,320.65,12.2z M320.65,18.47c0.34,0,0.6,0.1,0.77,0.28c0.19,0.19,0.28,0.43,0.28,0.71
			c0,0.28-0.09,0.52-0.28,0.69c-0.18,0.19-0.44,0.28-0.77,0.28c-0.32,0-0.57-0.09-0.76-0.28c-0.19-0.19-0.28-0.42-0.28-0.7
			s0.09-0.52,0.28-0.71C320.06,18.56,320.32,18.47,320.65,18.47z"/>
		<path class="st1" d="M339.79,20.36h-1.86V15.6h-4.8v4.76h-1.87V9.62h1.87v4.47h4.8V9.62h1.86V20.36z"/>
		<path class="st1" d="M341.48,16.29c0-0.78,0.15-1.48,0.46-2.11c0.31-0.63,0.75-1.11,1.31-1.45c0.56-0.34,1.21-0.51,1.93-0.51
			c1.07,0,1.95,0.35,2.62,1.04c0.68,0.69,1.03,1.61,1.08,2.75l0.01,0.42c0,0.79-0.15,1.49-0.45,2.11c-0.3,0.62-0.74,1.1-1.3,1.44
			c-0.56,0.34-1.22,0.51-1.95,0.51c-1.13,0-2.03-0.37-2.7-1.13c-0.68-0.75-1.01-1.75-1.01-3L341.48,16.29L341.48,16.29z
			 M343.27,16.45c0,0.82,0.17,1.47,0.51,1.93s0.81,0.69,1.41,0.69c0.6,0,1.07-0.24,1.41-0.71c0.34-0.47,0.51-1.16,0.51-2.07
			c0-0.81-0.18-1.45-0.52-1.92c-0.35-0.47-0.82-0.71-1.41-0.71c-0.59,0-1.05,0.23-1.39,0.7C343.45,14.83,343.27,15.53,343.27,16.45z
			"/>
		<path class="st1" d="M357.42,17.89l1.27-5.51h1.75l-2.18,7.98h-1.47l-1.71-5.48l-1.68,5.48h-1.47l-2.19-7.98h1.75l1.29,5.45
			l1.63-5.45h1.35L357.42,17.89z"/>
		<path class="st1" d="M369.87,18.19c0-0.32-0.13-0.56-0.39-0.73c-0.27-0.17-0.7-0.31-1.31-0.44c-0.61-0.12-1.12-0.29-1.53-0.49
			c-0.9-0.44-1.34-1.06-1.34-1.88c0-0.68,0.29-1.26,0.87-1.72c0.58-0.46,1.31-0.69,2.21-0.69c0.95,0,1.72,0.24,2.31,0.71
			c0.59,0.47,0.88,1.08,0.88,1.84h-1.79c0-0.35-0.12-0.63-0.38-0.86c-0.26-0.23-0.6-0.35-1.02-0.35c-0.39,0-0.71,0.09-0.96,0.28
			c-0.25,0.19-0.37,0.43-0.37,0.73c0,0.28,0.12,0.49,0.35,0.64s0.7,0.3,1.4,0.46c0.7,0.15,1.25,0.34,1.65,0.55
			c0.4,0.21,0.7,0.47,0.89,0.77c0.2,0.3,0.29,0.67,0.29,1.09c0,0.72-0.29,1.3-0.89,1.74s-1.38,0.67-2.34,0.67
			c-0.66,0-1.23-0.12-1.75-0.36c-0.52-0.24-0.91-0.56-1.19-0.98c-0.28-0.41-0.43-0.86-0.43-1.33h1.74c0.03,0.43,0.19,0.75,0.48,0.98
			c0.29,0.23,0.68,0.35,1.17,0.35c0.47,0,0.83-0.09,1.07-0.27C369.74,18.72,369.87,18.48,369.87,18.19z"/>
		<path class="st1" d="M377.96,20.36c-0.08-0.15-0.15-0.4-0.2-0.75c-0.57,0.6-1.27,0.89-2.1,0.89c-0.8,0-1.46-0.23-1.96-0.68
			c-0.51-0.46-0.76-1.02-0.76-1.7c0-0.85,0.32-1.5,0.95-1.95c0.63-0.45,1.54-0.68,2.71-0.68h1.1v-0.52c0-0.41-0.12-0.75-0.35-0.99
			s-0.59-0.37-1.06-0.37c-0.41,0-0.74,0.1-1,0.3c-0.26,0.2-0.39,0.46-0.39,0.78h-1.79c0-0.44,0.14-0.84,0.44-1.23
			c0.29-0.38,0.68-0.68,1.18-0.9c0.5-0.21,1.06-0.33,1.67-0.33c0.93,0,1.68,0.23,2.24,0.7c0.55,0.47,0.84,1.13,0.85,1.98v3.6
			c0,0.72,0.1,1.29,0.3,1.71v0.12h-1.83V20.36z M375.99,19.06c0.36,0,0.68-0.09,0.99-0.26c0.31-0.17,0.55-0.4,0.7-0.69v-1.5h-0.96
			c-0.67,0-1.16,0.12-1.5,0.35c-0.34,0.23-0.5,0.56-0.5,0.98c0,0.35,0.12,0.62,0.35,0.83C375.3,18.96,375.6,19.06,375.99,19.06z"/>
		<path class="st1" d="M381.99,20.36v-6.65h-1.22v-1.32h1.22v-0.73c0-0.89,0.25-1.57,0.74-2.05c0.49-0.48,1.18-0.72,2.06-0.72
			c0.31,0,0.65,0.04,1,0.13l-0.04,1.4c-0.2-0.04-0.43-0.06-0.68-0.06c-0.85,0-1.28,0.44-1.28,1.32v0.71h1.63v1.32h-1.63v6.65
			L381.99,20.36L381.99,20.36z"/>
		<path class="st1" d="M390.05,20.5c-1.14,0-2.05-0.36-2.76-1.07c-0.7-0.71-1.06-1.67-1.06-2.86v-0.22c0-0.8,0.15-1.51,0.46-2.13
			c0.31-0.63,0.74-1.11,1.3-1.47c0.56-0.35,1.17-0.52,1.86-0.52c1.08,0,1.93,0.35,2.51,1.04c0.6,0.69,0.89,1.67,0.89,2.94v0.72
			h-5.21c0.05,0.66,0.28,1.18,0.66,1.56c0.38,0.38,0.87,0.58,1.46,0.58c0.82,0,1.49-0.33,2.01-0.99l0.97,0.92
			c-0.32,0.48-0.75,0.84-1.28,1.11C391.31,20.37,390.71,20.5,390.05,20.5z M389.83,13.67c-0.49,0-0.89,0.17-1.19,0.52
			s-0.5,0.83-0.58,1.44h3.41v-0.13c-0.04-0.6-0.2-1.06-0.48-1.36C390.71,13.83,390.33,13.67,389.83,13.67z"/>
		<path class="st1" d="M405.41,17.89l1.27-5.51h1.75l-2.18,7.98h-1.47l-1.71-5.48l-1.68,5.48h-1.47l-2.19-7.98h1.75l1.29,5.45
			l1.63-5.45h1.35L405.41,17.89z"/>
		<path class="st1" d="M409.29,16.29c0-0.78,0.15-1.48,0.46-2.11c0.31-0.63,0.75-1.11,1.31-1.45c0.56-0.34,1.21-0.51,1.93-0.51
			c1.07,0,1.95,0.35,2.62,1.04c0.68,0.69,1.03,1.61,1.08,2.75l0.01,0.42c0,0.79-0.15,1.49-0.45,2.11c-0.3,0.62-0.74,1.1-1.3,1.44
			c-0.56,0.34-1.22,0.51-1.95,0.51c-1.13,0-2.03-0.37-2.7-1.13c-0.68-0.75-1.01-1.75-1.01-3L409.29,16.29L409.29,16.29z
			 M411.07,16.45c0,0.82,0.17,1.47,0.51,1.93s0.81,0.69,1.41,0.69c0.6,0,1.07-0.24,1.41-0.71c0.34-0.47,0.51-1.16,0.51-2.07
			c0-0.81-0.18-1.45-0.52-1.92c-0.35-0.47-0.82-0.71-1.41-0.71c-0.59,0-1.05,0.23-1.39,0.7C411.25,14.83,411.07,15.53,411.07,16.45z
			"/>
		<path class="st1" d="M423.06,19.58c-0.52,0.62-1.27,0.93-2.24,0.93c-0.86,0-1.52-0.26-1.96-0.76c-0.44-0.51-0.67-1.23-0.67-2.19
			v-5.17h1.79v5.14c0,1.01,0.42,1.52,1.26,1.52c0.87,0,1.46-0.31,1.76-0.93v-5.73h1.79v7.98h-1.69L423.06,19.58z"/>
		<path class="st1" d="M428.52,20.36h-1.79V9.03h1.79V20.36z"/>
		<path class="st1" d="M430.13,16.31c0-1.23,0.28-2.22,0.85-2.96c0.57-0.75,1.33-1.12,2.29-1.12c0.84,0,1.53,0.29,2.05,0.89V9.03
			h1.79v11.33h-1.63l-0.09-0.83c-0.53,0.65-1.25,0.98-2.15,0.98c-0.93,0-1.69-0.37-2.27-1.13
			C430.42,18.63,430.13,17.61,430.13,16.31z M431.92,16.46c0,0.81,0.16,1.45,0.47,1.9c0.31,0.45,0.76,0.68,1.33,0.68
			c0.73,0,1.27-0.33,1.61-0.98v-3.4c-0.33-0.64-0.86-0.96-1.59-0.96c-0.58,0-1.03,0.23-1.34,0.69
			C432.08,14.84,431.92,15.54,431.92,16.46z"/>
		<path class="st1" d="M445.54,17.79l1.63-5.41h1.91l-3.17,9.18c-0.49,1.34-1.31,2.02-2.48,2.02c-0.26,0-0.55-0.04-0.86-0.13v-1.39
			l0.34,0.02c0.45,0,0.79-0.08,1.02-0.25c0.23-0.17,0.41-0.44,0.54-0.83l0.26-0.68l-2.8-7.93h1.93L445.54,17.79z"/>
		<path class="st1" d="M449.65,16.29c0-0.78,0.15-1.48,0.46-2.11c0.31-0.63,0.75-1.11,1.31-1.45c0.56-0.34,1.21-0.51,1.93-0.51
			c1.07,0,1.95,0.35,2.62,1.04c0.68,0.69,1.03,1.61,1.08,2.75l0.01,0.42c0,0.79-0.15,1.49-0.45,2.11c-0.3,0.62-0.74,1.1-1.3,1.44
			c-0.56,0.34-1.22,0.51-1.95,0.51c-1.13,0-2.03-0.37-2.7-1.13c-0.68-0.76-1.01-1.75-1.01-3L449.65,16.29L449.65,16.29z
			 M451.44,16.45c0,0.82,0.17,1.47,0.51,1.93c0.34,0.46,0.81,0.69,1.41,0.69c0.6,0,1.07-0.24,1.41-0.71
			c0.34-0.47,0.51-1.16,0.51-2.07c0-0.81-0.17-1.45-0.52-1.92c-0.35-0.47-0.82-0.71-1.41-0.71c-0.59,0-1.05,0.23-1.39,0.7
			C451.62,14.83,451.44,15.53,451.44,16.45z"/>
		<path class="st1" d="M463.42,19.58c-0.52,0.62-1.27,0.93-2.24,0.93c-0.86,0-1.52-0.26-1.96-0.76c-0.44-0.51-0.67-1.23-0.67-2.19
			v-5.17h1.79v5.14c0,1.01,0.42,1.52,1.26,1.52c0.87,0,1.46-0.31,1.76-0.93v-5.73h1.79v7.98h-1.69L463.42,19.58z"/>
		<path class="st1" d="M471.37,20.36v-6.65h-1.22v-1.32h1.22v-0.73c0-0.89,0.25-1.57,0.74-2.05c0.49-0.48,1.18-0.72,2.06-0.72
			c0.31,0,0.65,0.04,1,0.13l-0.04,1.4c-0.2-0.04-0.43-0.06-0.68-0.06c-0.85,0-1.28,0.44-1.28,1.32v0.71h1.63v1.32h-1.63v6.65
			L471.37,20.36L471.37,20.36z"/>
		<path class="st1" d="M479.43,20.5c-1.14,0-2.05-0.36-2.76-1.07c-0.7-0.71-1.06-1.67-1.06-2.86v-0.22c0-0.8,0.15-1.51,0.46-2.13
			c0.31-0.63,0.74-1.11,1.3-1.47c0.56-0.35,1.17-0.52,1.86-0.52c1.08,0,1.93,0.35,2.51,1.04c0.6,0.69,0.89,1.67,0.89,2.94v0.72
			h-5.21c0.05,0.66,0.28,1.18,0.66,1.56c0.38,0.38,0.87,0.58,1.46,0.58c0.82,0,1.49-0.33,2.01-0.99l0.97,0.92
			c-0.32,0.48-0.75,0.84-1.28,1.11C480.69,20.37,480.09,20.5,479.43,20.5z M479.21,13.67c-0.49,0-0.89,0.17-1.19,0.52
			s-0.5,0.83-0.58,1.44h3.41v-0.13c-0.04-0.6-0.2-1.06-0.48-1.36C480.09,13.83,479.71,13.67,479.21,13.67z"/>
		<path class="st1" d="M487.53,20.5c-1.14,0-2.05-0.36-2.76-1.07c-0.7-0.71-1.06-1.67-1.06-2.86v-0.22c0-0.8,0.15-1.51,0.46-2.13
			c0.31-0.63,0.74-1.11,1.3-1.47c0.55-0.35,1.17-0.52,1.86-0.52c1.08,0,1.93,0.35,2.51,1.04c0.6,0.69,0.89,1.67,0.89,2.94v0.72
			h-5.21c0.05,0.66,0.28,1.18,0.66,1.56c0.38,0.38,0.87,0.58,1.46,0.58c0.82,0,1.49-0.33,2.01-0.99l0.97,0.92
			c-0.32,0.48-0.75,0.84-1.28,1.11C488.8,20.37,488.19,20.5,487.53,20.5z M487.31,13.67c-0.49,0-0.89,0.17-1.19,0.52
			s-0.5,0.83-0.58,1.44h3.41v-0.13c-0.04-0.6-0.2-1.06-0.48-1.36C488.19,13.83,487.81,13.67,487.31,13.67z"/>
		<path class="st1" d="M494.03,20.36h-1.79V9.03h1.79V20.36z"/>
		<path class="st1" d="M504.5,20.36c-0.08-0.15-0.15-0.4-0.2-0.75c-0.57,0.6-1.27,0.89-2.1,0.89c-0.8,0-1.46-0.23-1.96-0.68
			c-0.51-0.46-0.76-1.02-0.76-1.7c0-0.85,0.32-1.5,0.95-1.95c0.63-0.45,1.54-0.68,2.71-0.68h1.1v-0.52c0-0.41-0.12-0.75-0.35-0.99
			s-0.59-0.37-1.06-0.37c-0.41,0-0.75,0.1-1,0.3c-0.26,0.2-0.39,0.46-0.39,0.78h-1.79c0-0.44,0.14-0.84,0.44-1.23
			c0.29-0.38,0.68-0.68,1.18-0.9c0.5-0.21,1.06-0.33,1.67-0.33c0.93,0,1.68,0.23,2.23,0.7c0.56,0.47,0.84,1.13,0.85,1.98v3.6
			c0,0.72,0.1,1.29,0.3,1.71v0.12h-1.81V20.36z M502.54,19.06c0.36,0,0.68-0.09,0.99-0.26c0.31-0.17,0.55-0.4,0.7-0.69v-1.5h-0.97
			c-0.67,0-1.16,0.12-1.49,0.35c-0.34,0.23-0.5,0.56-0.5,0.98c0,0.35,0.12,0.62,0.35,0.83C501.84,18.96,502.16,19.06,502.54,19.06z"
			/>
		<path class="st1" d="M512.38,18.19c0-0.32-0.13-0.56-0.39-0.73c-0.27-0.17-0.7-0.31-1.31-0.44c-0.61-0.12-1.12-0.29-1.53-0.49
			c-0.9-0.44-1.34-1.06-1.34-1.88c0-0.68,0.29-1.26,0.87-1.72c0.58-0.46,1.31-0.69,2.21-0.69c0.95,0,1.72,0.24,2.31,0.71
			c0.59,0.47,0.88,1.08,0.88,1.84h-1.79c0-0.35-0.12-0.63-0.38-0.86c-0.26-0.23-0.6-0.35-1.02-0.35c-0.39,0-0.71,0.09-0.96,0.28
			c-0.25,0.19-0.37,0.43-0.37,0.73c0,0.28,0.12,0.49,0.35,0.64s0.7,0.3,1.4,0.46c0.7,0.15,1.25,0.34,1.65,0.55
			c0.4,0.21,0.7,0.47,0.89,0.77c0.2,0.3,0.29,0.67,0.29,1.09c0,0.72-0.29,1.3-0.89,1.74c-0.6,0.44-1.38,0.67-2.34,0.67
			c-0.66,0-1.23-0.12-1.75-0.36c-0.52-0.24-0.91-0.56-1.19-0.98c-0.28-0.41-0.43-0.86-0.43-1.33h1.74c0.03,0.43,0.19,0.75,0.48,0.98
			c0.29,0.23,0.68,0.35,1.17,0.35c0.47,0,0.83-0.09,1.07-0.27C512.26,18.72,512.38,18.48,512.38,18.19z"/>
	</g>
	<g class="st0">
		<path class="st1" d="M313.91,41.68c-0.08-0.15-0.15-0.4-0.2-0.75c-0.57,0.6-1.27,0.89-2.1,0.89c-0.8,0-1.46-0.23-1.96-0.68
			c-0.51-0.46-0.76-1.02-0.76-1.7c0-0.85,0.32-1.5,0.95-1.95c0.63-0.45,1.54-0.68,2.71-0.68h1.1v-0.52c0-0.41-0.12-0.75-0.35-0.99
			c-0.23-0.25-0.59-0.37-1.06-0.37c-0.41,0-0.75,0.1-1,0.3c-0.26,0.2-0.39,0.46-0.39,0.78h-1.79c0-0.44,0.14-0.84,0.44-1.23
			c0.29-0.38,0.68-0.68,1.18-0.9c0.5-0.21,1.06-0.33,1.67-0.33c0.93,0,1.68,0.23,2.23,0.7c0.56,0.47,0.84,1.13,0.85,1.98v3.6
			c0,0.72,0.1,1.29,0.3,1.71v0.12h-1.81V41.68z M311.93,40.38c0.36,0,0.68-0.09,0.99-0.26c0.31-0.17,0.55-0.4,0.7-0.69v-1.5h-0.97
			c-0.67,0-1.16,0.12-1.49,0.35c-0.34,0.23-0.5,0.56-0.5,0.98c0,0.35,0.12,0.62,0.35,0.83C311.25,40.28,311.55,40.38,311.93,40.38z"
			/>
		<path class="st1" d="M328.06,37.77c0,1.23-0.28,2.22-0.84,2.95c-0.56,0.73-1.31,1.1-2.26,1.1c-0.87,0-1.57-0.28-2.11-0.86v3.78
			h-1.79V33.7h1.65l0.07,0.81c0.52-0.64,1.24-0.96,2.15-0.96c0.98,0,1.73,0.36,2.29,1.08c0.55,0.73,0.83,1.73,0.83,3.02
			L328.06,37.77L328.06,37.77z M326.27,37.61c0-0.8-0.16-1.43-0.48-1.89c-0.32-0.47-0.77-0.7-1.36-0.7c-0.74,0-1.26,0.3-1.58,0.91
			v3.54c0.33,0.62,0.85,0.93,1.59,0.93c0.57,0,1.01-0.23,1.34-0.69C326.11,39.24,326.27,38.54,326.27,37.61z"/>
		<path class="st1" d="M334.34,41.68c-0.08-0.15-0.15-0.4-0.2-0.75c-0.57,0.6-1.27,0.89-2.1,0.89c-0.8,0-1.46-0.23-1.96-0.68
			c-0.51-0.46-0.76-1.02-0.76-1.7c0-0.85,0.32-1.5,0.95-1.95c0.63-0.45,1.54-0.68,2.71-0.68h1.1v-0.52c0-0.41-0.12-0.75-0.35-0.99
			c-0.23-0.25-0.59-0.37-1.06-0.37c-0.41,0-0.74,0.1-1,0.3c-0.26,0.2-0.39,0.46-0.39,0.78h-1.79c0-0.44,0.14-0.84,0.44-1.23
			s0.68-0.68,1.18-0.9c0.5-0.21,1.06-0.33,1.67-0.33c0.93,0,1.68,0.23,2.24,0.7c0.55,0.47,0.84,1.13,0.85,1.98v3.6
			c0,0.72,0.1,1.29,0.3,1.71v0.12h-1.83V41.68z M332.36,40.38c0.36,0,0.68-0.09,0.99-0.26c0.31-0.17,0.55-0.4,0.7-0.69v-1.5h-0.97
			c-0.67,0-1.16,0.12-1.5,0.35c-0.34,0.23-0.5,0.56-0.5,0.98c0,0.35,0.12,0.62,0.35,0.83C331.68,40.28,331.98,40.38,332.36,40.38z"
			/>
		<path class="st1" d="M342.22,39.51c0-0.32-0.13-0.56-0.39-0.73c-0.27-0.17-0.7-0.31-1.31-0.44c-0.61-0.12-1.12-0.29-1.53-0.49
			c-0.9-0.44-1.34-1.06-1.34-1.88c0-0.68,0.29-1.26,0.87-1.72c0.58-0.46,1.31-0.69,2.21-0.69c0.95,0,1.72,0.24,2.31,0.71
			c0.59,0.47,0.88,1.08,0.88,1.84h-1.79c0-0.35-0.12-0.63-0.38-0.86c-0.26-0.23-0.6-0.35-1.02-0.35c-0.39,0-0.71,0.09-0.96,0.28
			c-0.25,0.19-0.37,0.43-0.37,0.73c0,0.28,0.12,0.49,0.35,0.64c0.23,0.15,0.7,0.3,1.4,0.46c0.7,0.15,1.25,0.34,1.65,0.55
			c0.4,0.21,0.7,0.47,0.89,0.77c0.2,0.3,0.29,0.67,0.29,1.09c0,0.72-0.29,1.3-0.89,1.74c-0.6,0.44-1.38,0.67-2.34,0.67
			c-0.66,0-1.23-0.12-1.75-0.36c-0.52-0.24-0.91-0.56-1.19-0.98c-0.28-0.41-0.43-0.86-0.43-1.33h1.74c0.03,0.43,0.19,0.75,0.48,0.98
			c0.29,0.23,0.68,0.35,1.17,0.35c0.47,0,0.83-0.09,1.07-0.27C342.09,40.03,342.22,39.79,342.22,39.51z"/>
		<path class="st1" d="M350.01,39.51c0-0.32-0.13-0.56-0.39-0.73c-0.27-0.17-0.7-0.31-1.31-0.44c-0.61-0.12-1.12-0.29-1.53-0.49
			c-0.9-0.44-1.34-1.06-1.34-1.88c0-0.68,0.29-1.26,0.87-1.72c0.58-0.46,1.31-0.69,2.21-0.69c0.95,0,1.72,0.24,2.31,0.71
			c0.59,0.47,0.88,1.08,0.88,1.84h-1.79c0-0.35-0.12-0.63-0.38-0.86s-0.6-0.35-1.02-0.35c-0.39,0-0.71,0.09-0.96,0.28
			c-0.25,0.19-0.37,0.43-0.37,0.73c0,0.28,0.12,0.49,0.35,0.64c0.23,0.15,0.7,0.3,1.4,0.46c0.7,0.15,1.25,0.34,1.65,0.55
			c0.4,0.21,0.7,0.47,0.89,0.77c0.2,0.3,0.29,0.67,0.29,1.09c0,0.72-0.29,1.3-0.89,1.74c-0.6,0.44-1.38,0.67-2.34,0.67
			c-0.66,0-1.23-0.12-1.75-0.36s-0.91-0.56-1.19-0.98c-0.28-0.41-0.43-0.86-0.43-1.33h1.74c0.03,0.43,0.19,0.75,0.48,0.98
			c0.29,0.23,0.68,0.35,1.17,0.35c0.47,0,0.83-0.09,1.07-0.27C349.88,40.03,350.01,39.79,350.01,39.51z"/>
		<path class="st1" d="M356.84,41.82c-1.14,0-2.05-0.36-2.76-1.07c-0.7-0.71-1.06-1.67-1.06-2.86v-0.22c0-0.8,0.15-1.51,0.46-2.13
			c0.31-0.63,0.74-1.11,1.3-1.47c0.56-0.35,1.17-0.52,1.86-0.52c1.08,0,1.93,0.35,2.51,1.04c0.6,0.69,0.89,1.67,0.89,2.94v0.72
			h-5.21c0.05,0.66,0.28,1.18,0.66,1.56c0.38,0.38,0.87,0.58,1.46,0.58c0.82,0,1.49-0.33,2.01-0.99l0.97,0.92
			c-0.32,0.48-0.75,0.84-1.28,1.11C358.1,41.69,357.5,41.82,356.84,41.82z M356.62,34.99c-0.49,0-0.89,0.17-1.19,0.52
			s-0.5,0.83-0.58,1.44h3.41v-0.13c-0.04-0.6-0.2-1.06-0.48-1.36S357.12,34.99,356.62,34.99z"/>
		<path class="st1" d="M363.09,33.7l0.05,0.92c0.59-0.71,1.37-1.07,2.32-1.07c1.66,0,2.5,0.95,2.54,2.85v5.28h-1.79v-5.17
			c0-0.51-0.11-0.88-0.33-1.13c-0.22-0.24-0.58-0.36-1.07-0.36c-0.72,0-1.26,0.33-1.62,0.98v5.68h-1.79V33.7H363.09z"/>
		<path class="st1" d="M369.51,37.63c0-1.23,0.29-2.23,0.87-2.97c0.59-0.74,1.36-1.11,2.32-1.11c0.91,0,1.63,0.32,2.15,0.95
			l0.08-0.81h1.62v7.74c0,1.05-0.33,1.87-0.98,2.48s-1.53,0.91-2.64,0.91c-0.59,0-1.15-0.12-1.71-0.36
			c-0.56-0.24-0.99-0.56-1.27-0.95l0.85-1.07c0.55,0.66,1.23,0.98,2.03,0.98c0.6,0,1.07-0.16,1.4-0.48
			c0.35-0.32,0.52-0.79,0.52-1.42v-0.54c-0.52,0.58-1.21,0.86-2.06,0.86c-0.93,0-1.7-0.37-2.29-1.11
			C369.81,39.96,369.51,38.94,369.51,37.63z M371.3,37.78c0,0.8,0.16,1.43,0.49,1.89c0.33,0.46,0.78,0.69,1.36,0.69
			c0.72,0,1.26-0.31,1.61-0.93v-3.51c-0.34-0.6-0.87-0.91-1.59-0.91c-0.59,0-1.05,0.23-1.38,0.7
			C371.46,36.19,371.3,36.87,371.3,37.78z"/>
		<path class="st1" d="M381.9,41.82c-1.14,0-2.05-0.36-2.76-1.07c-0.7-0.71-1.06-1.67-1.06-2.86v-0.22c0-0.8,0.15-1.51,0.46-2.13
			c0.31-0.63,0.74-1.11,1.3-1.47c0.55-0.35,1.17-0.52,1.86-0.52c1.08,0,1.93,0.35,2.51,1.04c0.6,0.69,0.89,1.67,0.89,2.94v0.72
			h-5.21c0.05,0.66,0.28,1.18,0.66,1.56c0.38,0.38,0.87,0.58,1.46,0.58c0.82,0,1.49-0.33,2.01-0.99l0.97,0.92
			c-0.32,0.48-0.75,0.84-1.28,1.11C383.16,41.69,382.57,41.82,381.9,41.82z M381.69,34.99c-0.49,0-0.89,0.17-1.19,0.52
			s-0.5,0.83-0.58,1.44h3.41v-0.13c-0.04-0.6-0.2-1.06-0.48-1.36C382.57,35.15,382.19,34.99,381.69,34.99z"/>
		<path class="st1" d="M390.67,35.34c-0.24-0.04-0.48-0.06-0.73-0.06c-0.82,0-1.38,0.31-1.66,0.94v5.45h-1.79V33.7h1.71l0.04,0.89
			c0.44-0.69,1.03-1.04,1.8-1.04c0.26,0,0.47,0.04,0.63,0.11L390.67,35.34z"/>
		<path class="st1" d="M395.56,31.62c0-0.28,0.09-0.51,0.26-0.68c0.17-0.18,0.43-0.28,0.75-0.28s0.58,0.09,0.76,0.28
			c0.18,0.19,0.27,0.41,0.27,0.68c0,0.27-0.09,0.5-0.27,0.68c-0.18,0.18-0.43,0.27-0.76,0.27c-0.33,0-0.58-0.09-0.75-0.27
			C395.65,32.12,395.56,31.9,395.56,31.62z M397.47,41.68h-1.79V33.7h1.79V41.68z"/>
		<path class="st1" d="M401.08,33.7l0.05,0.92c0.59-0.71,1.37-1.07,2.32-1.07c1.66,0,2.5,0.95,2.54,2.85v5.28h-1.79v-5.17
			c0-0.51-0.11-0.88-0.33-1.13c-0.22-0.24-0.58-0.36-1.07-0.36c-0.72,0-1.26,0.33-1.62,0.98v5.68h-1.79V33.7H401.08z"/>
		<path class="st1" d="M416.34,41.68c-0.08-0.15-0.15-0.4-0.2-0.75c-0.57,0.6-1.27,0.89-2.1,0.89c-0.8,0-1.46-0.23-1.96-0.68
			c-0.51-0.46-0.76-1.02-0.76-1.7c0-0.85,0.32-1.5,0.95-1.95c0.63-0.45,1.54-0.68,2.71-0.68h1.1v-0.52c0-0.41-0.12-0.75-0.35-0.99
			c-0.23-0.25-0.59-0.37-1.06-0.37c-0.41,0-0.74,0.1-1,0.3c-0.26,0.2-0.39,0.46-0.39,0.78h-1.79c0-0.44,0.14-0.84,0.44-1.23
			s0.68-0.68,1.18-0.9c0.5-0.21,1.06-0.33,1.67-0.33c0.93,0,1.68,0.23,2.24,0.7c0.55,0.47,0.84,1.13,0.85,1.98v3.6
			c0,0.72,0.1,1.29,0.3,1.71v0.12h-1.83V41.68z M414.38,40.38c0.36,0,0.68-0.09,0.99-0.26c0.31-0.17,0.55-0.4,0.7-0.69v-1.5h-0.97
			c-0.67,0-1.16,0.12-1.5,0.35s-0.5,0.56-0.5,0.98c0,0.35,0.12,0.62,0.35,0.83C413.68,40.28,413.99,40.38,414.38,40.38z"/>
		<path class="st1" d="M427.98,39.51c0-0.32-0.13-0.56-0.39-0.73c-0.27-0.17-0.7-0.31-1.31-0.44c-0.61-0.12-1.12-0.29-1.53-0.49
			c-0.9-0.44-1.34-1.06-1.34-1.88c0-0.68,0.29-1.26,0.87-1.72c0.58-0.46,1.31-0.69,2.21-0.69c0.95,0,1.72,0.24,2.31,0.71
			c0.59,0.47,0.88,1.08,0.88,1.84h-1.79c0-0.35-0.12-0.63-0.38-0.86s-0.6-0.35-1.02-0.35c-0.39,0-0.71,0.09-0.96,0.28
			c-0.25,0.19-0.37,0.43-0.37,0.73c0,0.28,0.12,0.49,0.35,0.64c0.23,0.15,0.7,0.3,1.4,0.46c0.7,0.15,1.25,0.34,1.65,0.55
			c0.4,0.21,0.7,0.47,0.89,0.77c0.2,0.3,0.29,0.67,0.29,1.09c0,0.72-0.29,1.3-0.89,1.74c-0.6,0.44-1.38,0.67-2.34,0.67
			c-0.66,0-1.23-0.12-1.75-0.36s-0.91-0.56-1.19-0.98c-0.28-0.41-0.43-0.86-0.43-1.33h1.74c0.03,0.43,0.19,0.75,0.48,0.98
			c0.29,0.23,0.68,0.35,1.17,0.35c0.47,0,0.83-0.09,1.07-0.27C427.85,40.03,427.98,39.79,427.98,39.51z"/>
		<path class="st1" d="M434.82,41.82c-1.14,0-2.05-0.36-2.76-1.07c-0.7-0.71-1.06-1.67-1.06-2.86v-0.22c0-0.8,0.15-1.51,0.46-2.13
			c0.31-0.63,0.74-1.11,1.3-1.47c0.55-0.35,1.17-0.52,1.86-0.52c1.08,0,1.93,0.35,2.51,1.04c0.6,0.69,0.89,1.67,0.89,2.94v0.72
			h-5.21c0.05,0.66,0.28,1.18,0.66,1.56c0.38,0.38,0.87,0.58,1.46,0.58c0.82,0,1.49-0.33,2.01-0.99l0.97,0.92
			c-0.32,0.48-0.75,0.84-1.28,1.11C436.08,41.69,435.47,41.82,434.82,41.82z M434.59,34.99c-0.49,0-0.89,0.17-1.19,0.52
			s-0.5,0.83-0.58,1.44h3.41v-0.13c-0.04-0.6-0.2-1.06-0.48-1.36S435.09,34.99,434.59,34.99z"/>
		<path class="st1" d="M441.31,41.68h-1.79V30.35h1.79V41.68z"/>
		<path class="st1" d="M443.89,41.68v-6.65h-1.22V33.7h1.22v-0.73c0-0.89,0.25-1.57,0.74-2.05c0.49-0.48,1.18-0.72,2.06-0.72
			c0.31,0,0.65,0.04,1,0.13l-0.04,1.4c-0.2-0.04-0.43-0.06-0.68-0.06c-0.85,0-1.28,0.44-1.28,1.32v0.71h1.63v1.32h-1.63v6.65
			L443.89,41.68L443.89,41.68z"/>
		<path class="st1" d="M452.08,37.83h-3.87v-1.45h3.87V37.83z"/>
		<path class="st1" d="M453.23,37.63c0-1.23,0.28-2.22,0.85-2.96c0.57-0.75,1.33-1.12,2.29-1.12c0.84,0,1.53,0.29,2.05,0.89v-4.09
			h1.79v11.33h-1.63l-0.09-0.83c-0.53,0.65-1.25,0.98-2.15,0.98c-0.93,0-1.69-0.37-2.27-1.13
			C453.52,39.95,453.23,38.92,453.23,37.63z M455.02,37.78c0,0.81,0.16,1.45,0.47,1.9c0.31,0.45,0.76,0.68,1.33,0.68
			c0.74,0,1.27-0.33,1.61-0.98v-3.4c-0.33-0.64-0.86-0.96-1.59-0.96c-0.58,0-1.03,0.23-1.34,0.69
			C455.18,36.16,455.02,36.85,455.02,37.78z"/>
		<path class="st1" d="M466.27,35.34c-0.24-0.04-0.48-0.06-0.73-0.06c-0.82,0-1.38,0.31-1.66,0.94v5.45h-1.79V33.7h1.71l0.04,0.89
			c0.44-0.69,1.03-1.04,1.8-1.04c0.26,0,0.47,0.04,0.63,0.11L466.27,35.34z"/>
		<path class="st1" d="M467.4,31.62c0-0.28,0.09-0.51,0.26-0.68c0.18-0.19,0.43-0.28,0.75-0.28c0.32,0,0.58,0.09,0.76,0.28
			s0.27,0.41,0.27,0.68c0,0.27-0.09,0.5-0.27,0.68c-0.18,0.18-0.43,0.27-0.76,0.27c-0.33,0-0.58-0.09-0.75-0.27
			C467.49,32.12,467.4,31.9,467.4,31.62z M469.31,41.68h-1.79V33.7h1.79V41.68z"/>
		<path class="st1" d="M474.07,39.4l1.69-5.7h1.85l-2.76,7.98h-1.55l-2.79-7.98h1.86L474.07,39.4z"/>
		<path class="st1" d="M478.72,31.62c0-0.28,0.09-0.51,0.26-0.68c0.18-0.19,0.43-0.28,0.75-0.28s0.58,0.09,0.76,0.28
			s0.27,0.41,0.27,0.68c0,0.27-0.09,0.5-0.27,0.68c-0.18,0.18-0.43,0.27-0.76,0.27s-0.58-0.09-0.75-0.27
			C478.81,32.12,478.72,31.9,478.72,31.62z M480.63,41.68h-1.79V33.7h1.79V41.68z"/>
		<path class="st1" d="M484.24,33.7l0.05,0.92c0.59-0.71,1.37-1.07,2.33-1.07c1.66,0,2.5,0.95,2.54,2.85v5.28h-1.79v-5.17
			c0-0.51-0.11-0.88-0.33-1.13c-0.22-0.24-0.58-0.36-1.07-0.36c-0.72,0-1.26,0.33-1.62,0.98v5.68h-1.79V33.7H484.24z"/>
		<path class="st1" d="M490.66,37.63c0-1.23,0.29-2.23,0.87-2.97c0.59-0.74,1.36-1.11,2.32-1.11c0.91,0,1.63,0.32,2.15,0.95
			l0.08-0.81h1.62v7.74c0,1.05-0.33,1.87-0.98,2.48c-0.65,0.6-1.53,0.91-2.64,0.91c-0.59,0-1.15-0.12-1.71-0.36
			c-0.56-0.24-0.99-0.56-1.27-0.95l0.84-1.07c0.55,0.66,1.23,0.98,2.03,0.98c0.6,0,1.07-0.16,1.41-0.48
			c0.35-0.32,0.52-0.79,0.52-1.42v-0.54c-0.52,0.58-1.21,0.86-2.06,0.86c-0.93,0-1.7-0.37-2.29-1.11
			C490.96,39.96,490.66,38.94,490.66,37.63z M492.45,37.78c0,0.8,0.16,1.43,0.49,1.89s0.78,0.69,1.36,0.69
			c0.72,0,1.26-0.31,1.61-0.93v-3.51c-0.34-0.6-0.87-0.91-1.59-0.91c-0.59,0-1.05,0.23-1.38,0.7
			C492.62,36.19,492.45,36.87,492.45,37.78z"/>
		<path class="st1" d="M506.58,40.39c0.44,0,0.82-0.13,1.11-0.39c0.29-0.26,0.45-0.59,0.47-0.97h1.69c-0.02,0.5-0.18,0.96-0.46,1.39
			c-0.29,0.43-0.68,0.77-1.18,1.02c-0.5,0.25-1.03,0.37-1.61,0.37c-1.12,0-2-0.36-2.66-1.08c-0.66-0.72-0.98-1.72-0.98-2.99v-0.19
			c0-1.22,0.33-2.19,0.98-2.91c0.65-0.73,1.54-1.09,2.66-1.09c0.95,0,1.72,0.28,2.32,0.83c0.6,0.55,0.91,1.28,0.94,2.18h-1.69
			c-0.02-0.45-0.18-0.83-0.47-1.13c-0.29-0.29-0.67-0.44-1.12-0.44c-0.58,0-1.03,0.21-1.34,0.63c-0.31,0.42-0.47,1.06-0.48,1.91
			v0.28c0,0.86,0.16,1.51,0.47,1.94C505.53,40.18,505.98,40.39,506.58,40.39z"/>
		<path class="st1" d="M515.97,41.68c-0.08-0.15-0.15-0.4-0.2-0.75c-0.57,0.6-1.27,0.89-2.1,0.89c-0.8,0-1.46-0.23-1.96-0.68
			c-0.51-0.46-0.76-1.02-0.76-1.7c0-0.85,0.32-1.5,0.95-1.95c0.63-0.45,1.54-0.68,2.71-0.68h1.1v-0.52c0-0.41-0.12-0.75-0.35-0.99
			c-0.23-0.25-0.59-0.37-1.06-0.37c-0.41,0-0.74,0.1-1,0.3c-0.26,0.2-0.39,0.46-0.39,0.78h-1.79c0-0.44,0.14-0.84,0.44-1.23
			c0.29-0.38,0.68-0.68,1.18-0.9s1.06-0.33,1.67-0.33c0.93,0,1.68,0.23,2.24,0.7c0.55,0.47,0.84,1.13,0.85,1.98v3.6
			c0,0.72,0.1,1.29,0.3,1.71v0.12h-1.83V41.68z M514.01,40.38c0.36,0,0.68-0.09,0.99-0.26c0.31-0.17,0.55-0.4,0.7-0.69v-1.5h-0.97
			c-0.67,0-1.16,0.12-1.5,0.35c-0.34,0.23-0.5,0.56-0.5,0.98c0,0.35,0.12,0.62,0.35,0.83C513.31,40.28,513.61,40.38,514.01,40.38z"
			/>
		<path class="st1" d="M523.55,35.34c-0.24-0.04-0.48-0.06-0.73-0.06c-0.82,0-1.38,0.31-1.66,0.94v5.45h-1.79V33.7h1.71l0.04,0.89
			c0.44-0.69,1.03-1.04,1.8-1.04c0.26,0,0.47,0.04,0.63,0.11L523.55,35.34z"/>
		<path class="st1" d="M526.34,38.52c0-0.66,0.08-1.17,0.24-1.56c0.16-0.39,0.48-0.82,0.96-1.28c0.48-0.46,0.78-0.8,0.91-0.99
			c0.2-0.3,0.29-0.62,0.29-0.97c0-0.46-0.12-0.82-0.35-1.06s-0.56-0.36-1-0.36c-0.43,0-0.76,0.12-1.02,0.36
			c-0.26,0.24-0.39,0.56-0.39,0.97h-1.79c0.01-0.87,0.3-1.56,0.89-2.07c0.59-0.51,1.35-0.76,2.31-0.76c0.99,0,1.76,0.25,2.31,0.76
			c0.55,0.5,0.83,1.2,0.83,2.11c0,0.8-0.37,1.59-1.12,2.37l-0.91,0.89c-0.33,0.37-0.49,0.91-0.5,1.62
			C528,38.52,526.34,38.52,526.34,38.52z M526.22,40.82c0-0.29,0.09-0.52,0.28-0.7c0.18-0.18,0.43-0.27,0.74-0.27
			c0.31,0,0.56,0.09,0.75,0.28c0.19,0.19,0.28,0.42,0.28,0.69c0,0.27-0.09,0.5-0.27,0.68s-0.43,0.28-0.76,0.28
			c-0.33,0-0.58-0.09-0.75-0.28C526.32,41.3,526.22,41.08,526.22,40.82z"/>
	</g>
</g>
<g>
	<g class="st0">
		<path class="st1" d="M34.44,17.05c0,1.02-0.16,1.9-0.48,2.65c-0.32,0.75-0.77,1.33-1.35,1.78l1.85,1.44L33.25,24l-2.28-1.8
			c-0.3,0.06-0.62,0.1-0.97,0.1c-0.86,0-1.63-0.21-2.32-0.64c-0.68-0.43-1.21-1.03-1.58-1.82c-0.37-0.79-0.56-1.7-0.56-2.72v-0.6
			c0-1.05,0.19-1.97,0.56-2.77c0.37-0.8,0.9-1.41,1.57-1.84c0.68-0.43,1.45-0.64,2.32-0.64c0.89,0,1.66,0.21,2.35,0.63
			c0.68,0.42,1.2,1.02,1.56,1.81c0.37,0.79,0.56,1.71,0.56,2.75v0.59H34.44z M32.57,16.49c0-1.21-0.22-2.12-0.68-2.75
			c-0.45-0.62-1.09-0.93-1.92-0.93c-0.8,0-1.43,0.32-1.88,0.95c-0.45,0.63-0.68,1.52-0.69,2.67v0.63c0,1.16,0.23,2.07,0.68,2.72
			c0.45,0.66,1.09,0.98,1.91,0.98c0.83,0,1.47-0.31,1.91-0.94c0.44-0.63,0.67-1.55,0.67-2.75C32.57,17.05,32.57,16.49,32.57,16.49z"
			/>
		<path class="st1" d="M37.25,13.98c0.34,0,0.6,0.1,0.77,0.28c0.18,0.19,0.28,0.43,0.28,0.72c0,0.28-0.09,0.52-0.28,0.69
			c-0.18,0.19-0.44,0.28-0.77,0.28c-0.32,0-0.57-0.09-0.76-0.28c-0.19-0.18-0.28-0.42-0.28-0.7c0-0.28,0.09-0.52,0.28-0.71
			C36.67,14.08,36.92,13.98,37.25,13.98z M37.25,20.24c0.34,0,0.6,0.1,0.77,0.28c0.18,0.19,0.28,0.43,0.28,0.71
			c0,0.28-0.09,0.52-0.28,0.69c-0.18,0.19-0.44,0.28-0.77,0.28c-0.32,0-0.57-0.09-0.76-0.28c-0.19-0.19-0.28-0.42-0.28-0.7
			c0-0.28,0.09-0.52,0.28-0.71S36.92,20.24,37.25,20.24z"/>
		<path class="st1" d="M56.39,22.14h-1.86v-4.76h-4.8v4.76h-1.87V11.4h1.87v4.47h4.8V11.4h1.86V22.14z"/>
		<path class="st1" d="M58.08,18.07c0-0.78,0.15-1.48,0.46-2.11c0.31-0.63,0.75-1.11,1.31-1.45C60.4,14.17,61.05,14,61.77,14
			c1.07,0,1.95,0.35,2.62,1.04c0.68,0.69,1.03,1.61,1.08,2.75l0.01,0.42c0,0.79-0.15,1.49-0.45,2.11c-0.3,0.62-0.74,1.1-1.3,1.44
			c-0.56,0.34-1.22,0.51-1.95,0.51c-1.13,0-2.03-0.37-2.7-1.13c-0.68-0.75-1.01-1.75-1.01-3L58.08,18.07L58.08,18.07z M59.87,18.23
			c0,0.82,0.17,1.47,0.51,1.93c0.34,0.46,0.81,0.69,1.41,0.69s1.07-0.24,1.41-0.71s0.51-1.16,0.51-2.07c0-0.81-0.17-1.45-0.52-1.92
			c-0.35-0.47-0.82-0.71-1.41-0.71c-0.59,0-1.05,0.23-1.39,0.7C60.05,16.61,59.87,17.3,59.87,18.23z"/>
		<path class="st1" d="M74.02,19.67l1.27-5.51h1.75l-2.18,7.98h-1.47l-1.71-5.48L70,22.14h-1.47l-2.19-7.98h1.75l1.29,5.45
			l1.63-5.45h1.35L74.02,19.67z"/>
		<path class="st1" d="M83.9,22.14H82.1V10.81h1.79V22.14z"/>
		<path class="st1" d="M85.85,12.08c0-0.28,0.09-0.51,0.26-0.68c0.18-0.19,0.43-0.28,0.75-0.28c0.32,0,0.58,0.09,0.76,0.28
			c0.18,0.19,0.27,0.41,0.27,0.68c0,0.27-0.09,0.5-0.27,0.68s-0.43,0.27-0.76,0.27c-0.33,0-0.58-0.09-0.75-0.27
			C85.94,12.58,85.85,12.36,85.85,12.08z M87.76,22.14h-1.79v-7.98h1.79V22.14z"/>
		<path class="st1" d="M92.3,18.72l-0.8,0.82v2.6h-1.79V10.81h1.79v6.53l0.56-0.7l2.2-2.49h2.15l-2.97,3.32l3.28,4.65h-2.07
			L92.3,18.72z"/>
		<path class="st1" d="M100.95,22.28c-1.14,0-2.05-0.36-2.76-1.07c-0.7-0.71-1.06-1.67-1.06-2.86v-0.22c0-0.8,0.15-1.51,0.46-2.13
			c0.31-0.63,0.74-1.11,1.3-1.47c0.56-0.35,1.17-0.52,1.86-0.52c1.08,0,1.93,0.35,2.51,1.04c0.6,0.69,0.89,1.67,0.89,2.94v0.72
			h-5.21c0.05,0.66,0.28,1.18,0.66,1.56c0.38,0.38,0.87,0.58,1.46,0.58c0.82,0,1.49-0.33,2.01-0.99l0.97,0.92
			c-0.32,0.48-0.75,0.84-1.28,1.11C102.22,22.14,101.62,22.28,100.95,22.28z M100.74,15.45c-0.49,0-0.89,0.17-1.19,0.52
			c-0.3,0.35-0.5,0.83-0.58,1.44h3.41v-0.13c-0.04-0.6-0.2-1.06-0.48-1.36C101.62,15.61,101.24,15.45,100.74,15.45z"/>
		<path class="st1" d="M107.46,22.14h-1.79V10.81h1.79V22.14z"/>
		<path class="st1" d="M112.19,19.57l1.63-5.41h1.91l-3.17,9.18c-0.49,1.34-1.31,2.02-2.48,2.02c-0.26,0-0.55-0.04-0.86-0.13v-1.39
			l0.34,0.02c0.45,0,0.79-0.08,1.02-0.25c0.23-0.17,0.41-0.44,0.54-0.83l0.26-0.68l-2.8-7.93h1.93L112.19,19.57z"/>
		<path class="st1" d="M125.28,22.14c-0.08-0.15-0.15-0.4-0.2-0.75c-0.57,0.6-1.27,0.89-2.1,0.89c-0.8,0-1.46-0.23-1.96-0.68
			c-0.51-0.46-0.76-1.02-0.76-1.7c0-0.85,0.32-1.5,0.95-1.95s1.54-0.68,2.71-0.68h1.1v-0.52c0-0.41-0.12-0.75-0.35-0.99
			s-0.59-0.37-1.06-0.37c-0.41,0-0.75,0.1-1,0.3s-0.39,0.46-0.39,0.78h-1.79c0-0.44,0.14-0.84,0.44-1.23
			c0.29-0.38,0.68-0.68,1.18-0.9c0.5-0.21,1.06-0.33,1.67-0.33c0.93,0,1.68,0.23,2.24,0.7c0.56,0.47,0.84,1.13,0.85,1.98v3.6
			c0,0.72,0.1,1.29,0.3,1.71v0.12h-1.83V22.14z M123.31,20.84c0.36,0,0.68-0.09,0.99-0.26c0.31-0.17,0.55-0.4,0.7-0.69v-1.5h-0.97
			c-0.67,0-1.16,0.12-1.5,0.35c-0.34,0.23-0.5,0.56-0.5,0.98c0,0.35,0.12,0.62,0.35,0.83C122.63,20.74,122.93,20.84,123.31,20.84z"
			/>
		<path class="st1" d="M132.86,15.79c-0.24-0.04-0.48-0.06-0.73-0.06c-0.82,0-1.38,0.31-1.66,0.94v5.45h-1.79v-7.97h1.71l0.04,0.89
			c0.44-0.69,1.03-1.04,1.8-1.04c0.26,0,0.47,0.04,0.63,0.11L132.86,15.79z"/>
		<path class="st1" d="M137.36,22.28c-1.14,0-2.05-0.36-2.76-1.07c-0.7-0.71-1.06-1.67-1.06-2.86v-0.22c0-0.8,0.15-1.51,0.46-2.13
			c0.31-0.63,0.74-1.11,1.3-1.47c0.56-0.35,1.17-0.52,1.86-0.52c1.08,0,1.93,0.35,2.51,1.04c0.6,0.69,0.89,1.67,0.89,2.94v0.72
			h-5.21c0.05,0.66,0.28,1.18,0.66,1.56c0.38,0.38,0.87,0.58,1.46,0.58c0.82,0,1.49-0.33,2.01-0.99l0.97,0.92
			c-0.32,0.48-0.75,0.84-1.28,1.11C138.63,22.14,138.03,22.28,137.36,22.28z M137.15,15.45c-0.49,0-0.89,0.17-1.19,0.52
			c-0.3,0.35-0.5,0.83-0.58,1.44h3.41v-0.13c-0.04-0.6-0.2-1.06-0.48-1.36C138.03,15.61,137.65,15.45,137.15,15.45z"/>
		<path class="st1" d="M148.51,19.57l1.63-5.41h1.91l-3.17,9.18c-0.49,1.34-1.31,2.02-2.48,2.02c-0.26,0-0.55-0.04-0.86-0.13v-1.39
			l0.34,0.02c0.45,0,0.79-0.08,1.02-0.25c0.23-0.17,0.41-0.44,0.54-0.83l0.26-0.68l-2.81-7.93h1.93L148.51,19.57z"/>
		<path class="st1" d="M152.62,18.07c0-0.78,0.15-1.48,0.46-2.11s0.75-1.11,1.31-1.45c0.56-0.34,1.21-0.51,1.93-0.51
			c1.07,0,1.95,0.35,2.62,1.04c0.68,0.69,1.03,1.61,1.08,2.75l0.01,0.42c0,0.79-0.15,1.49-0.45,2.11c-0.3,0.62-0.74,1.1-1.3,1.44
			c-0.56,0.34-1.22,0.51-1.95,0.51c-1.13,0-2.03-0.37-2.7-1.13c-0.68-0.75-1.01-1.75-1.01-3L152.62,18.07L152.62,18.07z
			 M154.41,18.23c0,0.82,0.17,1.47,0.51,1.93c0.34,0.46,0.81,0.69,1.41,0.69c0.6,0,1.07-0.24,1.41-0.71
			c0.34-0.47,0.51-1.16,0.51-2.07c0-0.81-0.17-1.45-0.52-1.92c-0.35-0.47-0.82-0.71-1.41-0.71c-0.59,0-1.05,0.23-1.39,0.7
			C154.59,16.61,154.41,17.3,154.41,18.23z"/>
		<path class="st1" d="M166.38,21.35c-0.52,0.62-1.27,0.93-2.24,0.93c-0.86,0-1.52-0.26-1.96-0.76c-0.44-0.51-0.67-1.23-0.67-2.19
			v-5.17h1.79v5.14c0,1.01,0.42,1.52,1.26,1.52c0.87,0,1.46-0.31,1.76-0.93v-5.73h1.79v7.98h-1.69L166.38,21.35z"/>
		<path class="st1" d="M175.95,12.21v1.94h1.41v1.32h-1.41v4.45c0,0.3,0.06,0.52,0.18,0.66c0.12,0.13,0.34,0.2,0.65,0.2
			c0.2,0,0.42-0.03,0.63-0.07v1.39c-0.41,0.12-0.8,0.17-1.18,0.17c-1.38,0-2.06-0.76-2.06-2.27v-4.52h-1.31v-1.31h1.31v-1.94
			L175.95,12.21L175.95,12.21z"/>
		<path class="st1" d="M178.17,18.07c0-0.78,0.15-1.48,0.46-2.11s0.75-1.11,1.31-1.45c0.56-0.34,1.21-0.51,1.93-0.51
			c1.07,0,1.95,0.35,2.62,1.04c0.68,0.69,1.03,1.61,1.08,2.75l0.01,0.42c0,0.79-0.15,1.49-0.45,2.11c-0.3,0.62-0.74,1.1-1.3,1.44
			c-0.56,0.34-1.22,0.51-1.95,0.51c-1.13,0-2.03-0.37-2.7-1.13c-0.68-0.75-1.01-1.75-1.01-3L178.17,18.07L178.17,18.07z
			 M179.96,18.23c0,0.82,0.17,1.47,0.51,1.93c0.34,0.46,0.81,0.69,1.41,0.69c0.6,0,1.07-0.24,1.41-0.71s0.51-1.16,0.51-2.07
			c0-0.81-0.17-1.45-0.52-1.92c-0.35-0.47-0.82-0.71-1.41-0.71c-0.59,0-1.05,0.23-1.39,0.7C180.13,16.61,179.96,17.3,179.96,18.23z"
			/>
		<path class="st1" d="M197.85,18.23c0,1.23-0.28,2.22-0.84,2.95c-0.56,0.73-1.31,1.1-2.26,1.1c-0.87,0-1.57-0.28-2.11-0.86v3.78
			h-1.79V14.16h1.65l0.07,0.81c0.52-0.64,1.24-0.96,2.15-0.96c0.98,0,1.73,0.36,2.29,1.08c0.55,0.73,0.83,1.73,0.83,3.02
			L197.85,18.23L197.85,18.23z M196.07,18.07c0-0.8-0.16-1.43-0.48-1.89c-0.32-0.47-0.77-0.7-1.36-0.7c-0.73,0-1.26,0.3-1.58,0.91
			v3.54c0.33,0.62,0.85,0.93,1.59,0.93c0.57,0,1.01-0.23,1.34-0.69C195.9,19.7,196.07,19,196.07,18.07z"/>
		<path class="st1" d="M204.2,21.35c-0.52,0.62-1.27,0.93-2.24,0.93c-0.86,0-1.52-0.26-1.96-0.76c-0.44-0.51-0.67-1.23-0.67-2.19
			v-5.17h1.79v5.14c0,1.01,0.42,1.52,1.26,1.52c0.87,0,1.46-0.31,1.76-0.93v-5.73h1.79v7.98h-1.69L204.2,21.35z"/>
		<path class="st1" d="M211.93,15.79c-0.24-0.04-0.48-0.06-0.73-0.06c-0.82,0-1.38,0.31-1.66,0.94v5.45h-1.79v-7.97h1.71l0.04,0.89
			c0.44-0.69,1.03-1.04,1.8-1.04c0.26,0,0.47,0.04,0.63,0.11L211.93,15.79z"/>
		<path class="st1" d="M216.2,20.85c0.44,0,0.82-0.13,1.11-0.39c0.29-0.26,0.45-0.59,0.47-0.97h1.69c-0.02,0.5-0.18,0.96-0.46,1.39
			c-0.28,0.43-0.68,0.77-1.18,1.02c-0.5,0.25-1.03,0.37-1.61,0.37c-1.12,0-2-0.36-2.66-1.08c-0.66-0.72-0.98-1.72-0.98-2.99v-0.19
			c0-1.22,0.33-2.19,0.98-2.91S215.1,14,216.21,14c0.95,0,1.72,0.28,2.32,0.83s0.91,1.28,0.94,2.18h-1.69
			c-0.02-0.45-0.18-0.83-0.47-1.13c-0.29-0.29-0.67-0.44-1.12-0.44c-0.58,0-1.03,0.21-1.34,0.63c-0.31,0.42-0.47,1.06-0.48,1.91
			v0.28c0,0.86,0.16,1.51,0.47,1.94C215.16,20.63,215.61,20.85,216.2,20.85z"/>
		<path class="st1" d="M222.59,15.02c0.59-0.68,1.32-1.02,2.22-1.02c1.7,0,2.57,0.97,2.58,2.91v5.21h-1.79v-5.14
			c0-0.55-0.12-0.94-0.36-1.17c-0.24-0.23-0.59-0.35-1.05-0.35c-0.72,0-1.25,0.32-1.61,0.96v5.7h-1.79V10.81h1.79V15.02z"/>
		<path class="st1" d="M233.98,22.14c-0.08-0.15-0.15-0.4-0.2-0.75c-0.57,0.6-1.27,0.89-2.1,0.89c-0.8,0-1.46-0.23-1.96-0.68
			c-0.51-0.46-0.76-1.02-0.76-1.7c0-0.85,0.32-1.5,0.95-1.95c0.63-0.45,1.54-0.68,2.71-0.68h1.09v-0.52c0-0.41-0.12-0.75-0.35-0.99
			s-0.59-0.37-1.06-0.37c-0.41,0-0.75,0.1-1,0.3c-0.26,0.2-0.39,0.46-0.39,0.78h-1.79c0-0.44,0.14-0.84,0.44-1.23
			c0.29-0.38,0.68-0.68,1.18-0.9c0.5-0.21,1.06-0.33,1.67-0.33c0.93,0,1.68,0.23,2.24,0.7c0.56,0.47,0.84,1.13,0.85,1.98v3.6
			c0,0.72,0.1,1.29,0.3,1.71v0.12h-1.82V22.14z M232.01,20.84c0.36,0,0.68-0.09,0.99-0.26c0.31-0.17,0.55-0.4,0.7-0.69v-1.5h-0.97
			c-0.67,0-1.16,0.12-1.5,0.35c-0.34,0.23-0.5,0.56-0.5,0.98c0,0.35,0.12,0.62,0.35,0.83C231.32,20.74,231.63,20.84,232.01,20.84z"
			/>
		<path class="st1" d="M241.85,19.97c0-0.32-0.13-0.56-0.39-0.73c-0.27-0.17-0.7-0.31-1.31-0.44c-0.61-0.12-1.12-0.29-1.53-0.49
			c-0.9-0.44-1.34-1.06-1.34-1.88c0-0.68,0.29-1.26,0.87-1.72c0.58-0.46,1.31-0.69,2.21-0.69c0.95,0,1.72,0.24,2.31,0.71
			c0.59,0.47,0.88,1.08,0.88,1.84h-1.79c0-0.35-0.12-0.63-0.38-0.86c-0.26-0.23-0.6-0.35-1.02-0.35c-0.39,0-0.71,0.09-0.96,0.28
			c-0.25,0.19-0.37,0.43-0.37,0.73c0,0.28,0.12,0.49,0.35,0.64s0.7,0.3,1.4,0.46c0.7,0.15,1.25,0.34,1.65,0.55
			c0.4,0.21,0.7,0.47,0.89,0.77c0.2,0.3,0.29,0.67,0.29,1.09c0,0.72-0.29,1.3-0.89,1.74c-0.6,0.44-1.38,0.67-2.34,0.67
			c-0.66,0-1.23-0.12-1.75-0.36s-0.91-0.56-1.19-0.98c-0.28-0.42-0.43-0.86-0.43-1.33h1.74c0.03,0.43,0.19,0.75,0.48,0.98
			c0.29,0.23,0.68,0.35,1.17,0.35c0.47,0,0.83-0.09,1.07-0.27C241.73,20.49,241.85,20.25,241.85,19.97z"/>
		<path class="st1" d="M248.69,22.28c-1.14,0-2.05-0.36-2.76-1.07c-0.7-0.71-1.06-1.67-1.06-2.86v-0.22c0-0.8,0.15-1.51,0.46-2.13
			c0.31-0.63,0.74-1.11,1.3-1.47c0.56-0.35,1.17-0.52,1.86-0.52c1.08,0,1.93,0.35,2.51,1.04c0.6,0.69,0.89,1.67,0.89,2.94v0.72
			h-5.21c0.05,0.66,0.28,1.18,0.66,1.56c0.38,0.38,0.87,0.58,1.46,0.58c0.82,0,1.49-0.33,2.01-0.99l0.97,0.92
			c-0.32,0.48-0.75,0.84-1.28,1.11C249.95,22.14,249.35,22.28,248.69,22.28z M248.48,15.45c-0.49,0-0.89,0.17-1.19,0.52
			c-0.3,0.35-0.5,0.83-0.58,1.44h3.41v-0.13c-0.04-0.6-0.2-1.06-0.48-1.36S248.97,15.45,248.48,15.45z"/>
	</g>
	<g class="st0">
		<path class="st1" d="M30.51,43.45c-0.08-0.15-0.15-0.4-0.2-0.75c-0.57,0.6-1.27,0.89-2.1,0.89c-0.8,0-1.46-0.23-1.96-0.68
			c-0.51-0.46-0.76-1.02-0.76-1.7c0-0.85,0.32-1.5,0.95-1.95c0.63-0.45,1.54-0.68,2.71-0.68h1.1v-0.52c0-0.41-0.12-0.75-0.35-0.99
			c-0.23-0.25-0.59-0.37-1.06-0.37c-0.41,0-0.75,0.1-1,0.3s-0.39,0.46-0.39,0.78h-1.79c0-0.44,0.14-0.84,0.44-1.23
			s0.68-0.68,1.18-0.9c0.5-0.21,1.06-0.33,1.67-0.33c0.93,0,1.68,0.23,2.24,0.7c0.56,0.47,0.84,1.13,0.85,1.98v3.6
			c0,0.72,0.1,1.29,0.3,1.71v0.12h-1.83V43.45z M28.53,42.16c0.36,0,0.68-0.09,0.99-0.26c0.31-0.17,0.55-0.4,0.7-0.69v-1.5h-0.97
			c-0.67,0-1.16,0.12-1.5,0.35c-0.34,0.23-0.5,0.56-0.5,0.98c0,0.35,0.12,0.62,0.35,0.83C27.85,42.06,28.15,42.16,28.53,42.16z"/>
		<path class="st1" d="M42.14,41.29c0-0.32-0.13-0.56-0.39-0.73c-0.27-0.17-0.7-0.31-1.31-0.44c-0.61-0.12-1.12-0.29-1.53-0.49
			c-0.9-0.44-1.34-1.06-1.34-1.88c0-0.68,0.29-1.26,0.87-1.72c0.58-0.46,1.31-0.69,2.21-0.69c0.95,0,1.72,0.24,2.31,0.71
			c0.59,0.47,0.88,1.08,0.88,1.84h-1.79c0-0.35-0.12-0.63-0.38-0.86c-0.26-0.23-0.6-0.35-1.02-0.35c-0.39,0-0.71,0.09-0.96,0.28
			c-0.25,0.19-0.37,0.43-0.37,0.73c0,0.28,0.12,0.49,0.35,0.64s0.7,0.3,1.4,0.46c0.7,0.15,1.25,0.34,1.65,0.55
			c0.4,0.21,0.7,0.47,0.89,0.77c0.2,0.3,0.29,0.67,0.29,1.09c0,0.72-0.29,1.3-0.89,1.74c-0.6,0.44-1.38,0.67-2.34,0.67
			c-0.66,0-1.23-0.12-1.75-0.36c-0.52-0.24-0.91-0.56-1.19-0.98c-0.28-0.42-0.43-0.86-0.43-1.33h1.74c0.03,0.43,0.19,0.75,0.48,0.98
			c0.29,0.23,0.68,0.35,1.17,0.35c0.47,0,0.83-0.09,1.07-0.27S42.14,41.57,42.14,41.29z"/>
		<path class="st1" d="M48.97,43.6c-1.14,0-2.05-0.36-2.76-1.07c-0.7-0.71-1.06-1.67-1.06-2.86v-0.22c0-0.8,0.15-1.51,0.46-2.13
			c0.31-0.63,0.74-1.11,1.3-1.47c0.56-0.35,1.17-0.52,1.86-0.52c1.08,0,1.93,0.35,2.51,1.04c0.6,0.69,0.89,1.67,0.89,2.94v0.72
			h-5.21c0.05,0.66,0.28,1.18,0.66,1.56c0.38,0.38,0.87,0.58,1.46,0.58c0.82,0,1.49-0.33,2.01-0.99l0.97,0.92
			c-0.32,0.48-0.75,0.84-1.28,1.11C50.23,43.46,49.64,43.6,48.97,43.6z M48.76,36.77c-0.49,0-0.89,0.17-1.19,0.52
			s-0.5,0.83-0.58,1.44h3.41v-0.13c-0.04-0.6-0.2-1.06-0.48-1.36C49.64,36.93,49.26,36.77,48.76,36.77z"/>
		<path class="st1" d="M55.47,43.45h-1.79V32.13h1.79V43.45z"/>
		<path class="st1" d="M58.05,43.45V36.8h-1.22v-1.32h1.22v-0.73c0-0.89,0.25-1.57,0.74-2.05c0.49-0.48,1.18-0.72,2.06-0.72
			c0.31,0,0.65,0.04,1,0.13l-0.04,1.4c-0.2-0.04-0.43-0.06-0.68-0.06c-0.85,0-1.28,0.44-1.28,1.32v0.71h1.63v1.32h-1.63v6.65
			L58.05,43.45L58.05,43.45z"/>
		<path class="st1" d="M66.25,39.61h-3.87v-1.45h3.87V39.61z"/>
		<path class="st1" d="M67.4,39.4c0-1.23,0.28-2.22,0.85-2.96c0.57-0.75,1.33-1.12,2.29-1.12c0.84,0,1.53,0.29,2.05,0.89v-4.09h1.79
			v11.33h-1.63l-0.09-0.83c-0.53,0.65-1.25,0.98-2.15,0.98c-0.93,0-1.69-0.37-2.27-1.13C67.68,41.72,67.4,40.7,67.4,39.4z
			 M69.19,39.55c0,0.81,0.16,1.45,0.47,1.9c0.31,0.45,0.76,0.68,1.33,0.68c0.73,0,1.27-0.33,1.61-0.98v-3.4
			c-0.33-0.64-0.86-0.96-1.59-0.96c-0.58,0-1.03,0.23-1.34,0.69C69.36,37.96,69.19,38.63,69.19,39.55z"/>
		<path class="st1" d="M80.43,37.11c-0.24-0.04-0.48-0.06-0.73-0.06c-0.82,0-1.38,0.31-1.66,0.94v5.45h-1.79v-7.97h1.71L78,36.37
			c0.44-0.69,1.03-1.04,1.8-1.04c0.26,0,0.47,0.04,0.63,0.11L80.43,37.11z"/>
		<path class="st1" d="M81.56,33.4c0-0.28,0.09-0.51,0.26-0.68c0.18-0.19,0.43-0.28,0.75-0.28c0.32,0,0.58,0.09,0.76,0.28
			c0.18,0.19,0.27,0.41,0.27,0.68c0,0.27-0.09,0.5-0.27,0.68s-0.43,0.27-0.76,0.27c-0.33,0-0.58-0.09-0.75-0.27
			C81.65,33.9,81.56,33.67,81.56,33.4z M83.46,43.45h-1.79v-7.98h1.79V43.45z"/>
		<path class="st1" d="M88.23,41.18l1.69-5.7h1.85l-2.76,7.98h-1.55l-2.79-7.98h1.86L88.23,41.18z"/>
		<path class="st1" d="M92.89,33.4c0-0.28,0.09-0.51,0.26-0.68c0.18-0.19,0.43-0.28,0.75-0.28c0.32,0,0.58,0.09,0.76,0.28
			c0.18,0.19,0.27,0.41,0.27,0.68c0,0.27-0.09,0.5-0.27,0.68s-0.43,0.27-0.76,0.27c-0.33,0-0.58-0.09-0.75-0.27
			C92.98,33.9,92.89,33.67,92.89,33.4z M94.79,43.45H93v-7.98h1.79V43.45z"/>
		<path class="st1" d="M98.4,35.48l0.05,0.92c0.59-0.71,1.37-1.07,2.32-1.07c1.66,0,2.5,0.95,2.54,2.85v5.28h-1.79v-5.17
			c0-0.51-0.11-0.88-0.33-1.13c-0.22-0.24-0.58-0.36-1.07-0.36c-0.72,0-1.26,0.33-1.62,0.98v5.68h-1.79v-7.98H98.4z"/>
		<path class="st1" d="M104.83,39.4c0-1.23,0.29-2.23,0.87-2.97c0.59-0.74,1.36-1.11,2.32-1.11c0.91,0,1.63,0.32,2.15,0.95l0.08-0.8
			h1.62v7.73c0,1.05-0.33,1.87-0.98,2.48c-0.65,0.6-1.53,0.91-2.64,0.91c-0.59,0-1.15-0.12-1.71-0.36
			c-0.56-0.24-0.99-0.56-1.27-0.95l0.84-1.07c0.55,0.66,1.23,0.98,2.03,0.98c0.6,0,1.07-0.16,1.41-0.48
			c0.35-0.32,0.52-0.79,0.52-1.42v-0.54c-0.52,0.58-1.21,0.86-2.06,0.86c-0.93,0-1.7-0.37-2.29-1.11
			C105.12,41.74,104.83,40.72,104.83,39.4z M106.61,39.55c0,0.8,0.16,1.43,0.49,1.89c0.33,0.46,0.78,0.69,1.36,0.69
			c0.72,0,1.26-0.31,1.61-0.93V37.7c-0.34-0.6-0.87-0.91-1.59-0.91c-0.59,0-1.05,0.23-1.38,0.7S106.61,38.65,106.61,39.55z"/>
		<path class="st1" d="M120.74,42.17c0.44,0,0.82-0.13,1.11-0.39c0.29-0.26,0.45-0.59,0.47-0.97H124c-0.02,0.5-0.18,0.96-0.46,1.39
			c-0.28,0.43-0.68,0.77-1.18,1.02c-0.5,0.25-1.03,0.37-1.61,0.37c-1.12,0-2-0.36-2.66-1.08s-0.98-1.72-0.98-2.99v-0.19
			c0-1.22,0.33-2.19,0.98-2.91c0.65-0.73,1.54-1.09,2.66-1.09c0.95,0,1.72,0.28,2.32,0.83c0.6,0.55,0.91,1.28,0.94,2.18h-1.69
			c-0.02-0.45-0.18-0.83-0.47-1.13s-0.67-0.44-1.12-0.44c-0.58,0-1.03,0.21-1.34,0.63c-0.31,0.42-0.47,1.06-0.48,1.91v0.28
			c0,0.86,0.16,1.51,0.47,1.94C119.7,41.95,120.15,42.17,120.74,42.17z"/>
		<path class="st1" d="M130.13,43.45c-0.08-0.15-0.15-0.4-0.2-0.75c-0.57,0.6-1.27,0.89-2.1,0.89c-0.8,0-1.46-0.23-1.96-0.68
			c-0.51-0.46-0.76-1.02-0.76-1.7c0-0.85,0.32-1.5,0.95-1.95c0.63-0.45,1.54-0.68,2.71-0.68h1.1v-0.52c0-0.41-0.12-0.75-0.35-0.99
			c-0.23-0.25-0.59-0.37-1.06-0.37c-0.41,0-0.75,0.1-1,0.3s-0.39,0.46-0.39,0.78h-1.79c0-0.44,0.14-0.84,0.44-1.23
			s0.68-0.68,1.18-0.9c0.5-0.21,1.06-0.33,1.67-0.33c0.93,0,1.68,0.23,2.24,0.7c0.56,0.47,0.84,1.13,0.85,1.98v3.6
			c0,0.72,0.1,1.29,0.3,1.71v0.12h-1.83V43.45z M128.16,42.16c0.36,0,0.68-0.09,0.99-0.26c0.31-0.17,0.55-0.4,0.7-0.69v-1.5h-0.96
			c-0.67,0-1.16,0.12-1.5,0.35c-0.34,0.23-0.5,0.56-0.5,0.98c0,0.35,0.12,0.62,0.35,0.83C127.48,42.06,127.78,42.16,128.16,42.16z"
			/>
		<path class="st1" d="M137.71,37.11c-0.24-0.04-0.48-0.06-0.73-0.06c-0.82,0-1.38,0.31-1.66,0.94v5.45h-1.79v-7.97h1.71l0.04,0.89
			c0.44-0.69,1.03-1.04,1.8-1.04c0.26,0,0.47,0.04,0.63,0.11L137.71,37.11z"/>
		<path class="st1" d="M140.51,40.3c0-0.66,0.08-1.17,0.24-1.56s0.48-0.82,0.96-1.28s0.78-0.8,0.91-0.99
			c0.2-0.3,0.29-0.62,0.29-0.97c0-0.46-0.12-0.82-0.35-1.06c-0.23-0.24-0.56-0.36-1-0.36c-0.43,0-0.76,0.12-1.02,0.36
			c-0.26,0.24-0.39,0.56-0.39,0.97h-1.79c0.01-0.87,0.3-1.56,0.89-2.07c0.59-0.51,1.35-0.76,2.31-0.76c0.99,0,1.76,0.25,2.31,0.76
			c0.55,0.5,0.83,1.2,0.83,2.11c0,0.8-0.37,1.59-1.12,2.37l-0.91,0.89c-0.33,0.37-0.49,0.91-0.5,1.62
			C142.16,40.3,140.51,40.3,140.51,40.3z M140.38,42.59c0-0.29,0.09-0.52,0.28-0.7c0.19-0.18,0.43-0.27,0.74-0.27
			s0.56,0.09,0.75,0.28c0.18,0.19,0.28,0.42,0.28,0.69c0,0.27-0.09,0.5-0.27,0.68c-0.18,0.18-0.43,0.28-0.76,0.28
			c-0.33,0-0.58-0.09-0.75-0.28C140.47,43.09,140.38,42.86,140.38,42.59z"/>
	</g>
</g>
<line class="st2" x1="283.5" y1="264.6" x2="599.64" y2="264.6"/>
<rect x="357.41" y="245.41" class="st3" width="64.08" height="18.91"/>
<rect x="357.41" y="154.01" class="st4" width="64.08" height="91.39"/>
<rect x="457.6" y="59.46" class="st5" width="64.08" height="204.85"/>
<g class="st0">
	<path class="st3" d="M302.34,249.02h-2.66v1.8h3.12v1.11h-4.5v-6.72h4.49v1.12h-3.11v1.6h2.66V249.02z"/>
	<path class="st3" d="M306.02,247.53l1.26-2.32h1.59l-1.95,3.33l2.01,3.38h-1.61l-1.3-2.35l-1.3,2.35h-1.61l2.01-3.38l-1.95-3.33
		h1.59L306.02,247.53z"/>
	<path class="st3" d="M314.68,246.33h-2.06v5.6h-1.39v-5.6h-2.03v-1.12h5.47L314.68,246.33L314.68,246.33z"/>
	<path class="st3" d="M317.96,249.48h-1.1v2.46h-1.39v-6.72h2.5c0.79,0,1.4,0.18,1.84,0.53c0.44,0.36,0.65,0.85,0.65,1.5
		c0,0.46-0.1,0.84-0.29,1.15c-0.2,0.3-0.5,0.55-0.91,0.73l1.46,2.74v0.06h-1.48L317.96,249.48z M316.86,248.36h1.12
		c0.35,0,0.62-0.09,0.81-0.27c0.19-0.18,0.28-0.42,0.28-0.73c0-0.32-0.09-0.57-0.27-0.75c-0.18-0.18-0.45-0.28-0.83-0.28h-1.11
		L316.86,248.36L316.86,248.36z"/>
	<path class="st3" d="M325.54,249.02h-2.66v1.8H326v1.11h-4.5v-6.72H326v1.12h-3.11v1.6h2.66V249.02z"/>
	<path class="st3" d="M328.62,245.21l1.72,4.88l1.71-4.88h1.82v6.72h-1.39v-1.84l0.14-3.17l-1.81,5.01h-0.95l-1.81-5l0.14,3.17v1.84
		h-1.39v-6.72L328.62,245.21L328.62,245.21z"/>
	<path class="st3" d="M339.14,249.02h-2.66v1.8h3.12v1.11h-4.5v-6.72h4.49v1.12h-3.11v1.6h2.66V249.02z"/>
	<path class="st3" d="M341.81,250.83h2.94v1.11h-4.33v-6.72h1.39V250.83z"/>
	<path class="st3" d="M346.57,248.24l1.39-3.03h1.52l-2.2,4.28v2.43h-1.4v-2.43l-2.2-4.28h1.52L346.57,248.24z"/>
</g>
<g class="st0">
	<path class="st3" d="M322.6,260.28h2.94v1.11h-4.33v-6.72h1.39V260.28z"/>
	<path class="st3" d="M327.81,261.39h-1.39v-6.72h1.39V261.39z"/>
	<path class="st3" d="M331.2,258.69l-0.72,0.77v1.92h-1.39v-6.72h1.39v3.05l0.61-0.83l1.71-2.21h1.71l-2.39,2.98l2.45,3.74h-1.65
		L331.2,258.69z"/>
	<path class="st3" d="M339.14,258.48h-2.66v1.8h3.12v1.11h-4.5v-6.72h4.49v1.12h-3.11v1.6h2.66V258.48z"/>
	<path class="st3" d="M341.8,260.28h2.94v1.11h-4.33v-6.72h1.39V260.28z"/>
	<path class="st3" d="M346.57,257.69l1.4-3.03h1.52l-2.2,4.28v2.43h-1.41v-2.43l-2.2-4.28h1.52L346.57,257.69z"/>
</g>
<g class="st0">
	<path class="st6" d="M390.85,276.8h2.94v1.11h-4.33v-6.72h1.39V276.8z"/>
	<path class="st6" d="M396.06,277.92h-1.39v-6.72h1.39V277.92z"/>
	<path class="st6" d="M399.45,275.22l-0.72,0.77v1.92h-1.39v-6.72h1.39v3.05l0.61-0.83l1.71-2.21h1.71l-2.39,2.98l2.45,3.74h-1.65
		L399.45,275.22z"/>
	<path class="st6" d="M407.39,275.01h-2.66v1.8h3.12v1.11h-4.5v-6.72h4.49v1.12h-3.11v1.6h2.66V275.01z"/>
	<path class="st6" d="M410.04,276.8h2.94v1.11h-4.33v-6.72h1.39V276.8z"/>
	<path class="st6" d="M414.81,274.22l1.4-3.03h1.52l-2.2,4.28v2.43h-1.41v-2.43l-2.2-4.28h1.52L414.81,274.22z"/>
</g>
<g class="st0">
	<path class="st6" d="M480.32,271.2v4.42c0,0.74-0.23,1.31-0.69,1.74c-0.46,0.43-1.09,0.64-1.88,0.64c-0.78,0-1.4-0.2-1.87-0.62
		c-0.46-0.42-0.69-0.99-0.7-1.71v-4.48h1.39v4.44c0,0.44,0.11,0.76,0.32,0.96c0.21,0.2,0.51,0.3,0.88,0.3
		c0.78,0,1.17-0.41,1.19-1.23v-4.48L480.32,271.2L480.32,271.2z"/>
	<path class="st6" d="M486.92,277.92h-1.39l-2.7-4.42v4.42h-1.39v-6.72h1.39l2.7,4.43v-4.43h1.38L486.92,277.92L486.92,277.92z"/>
	<path class="st6" d="M489.52,276.8h2.94v1.11h-4.33v-6.72h1.39V276.8z"/>
	<path class="st6" d="M494.72,277.92h-1.39v-6.72h1.39V277.92z"/>
	<path class="st6" d="M498.11,275.22l-0.72,0.77v1.92h-1.39v-6.72h1.39v3.05l0.61-0.83l1.71-2.21h1.71l-2.39,2.98l2.45,3.74h-1.65
		L498.11,275.22z"/>
	<path class="st6" d="M506.06,275.01h-2.66v1.8h3.12v1.11h-4.5v-6.72h4.49v1.12h-3.11v1.6h2.66V275.01z"/>
	<path class="st6" d="M508.71,276.8h2.94v1.11h-4.33v-6.72h1.39V276.8z"/>
	<path class="st6" d="M513.48,274.22l1.39-3.03h1.52l-2.2,4.28v2.43h-1.4v-2.43l-2.2-4.28h1.52L513.48,274.22z"/>
</g>
<g class="st0">
	<path class="st4" d="M301.77,193.13c0-0.26-0.09-0.46-0.28-0.6c-0.19-0.14-0.52-0.28-0.99-0.44s-0.86-0.31-1.14-0.46
		c-0.76-0.41-1.15-0.97-1.15-1.67c0-0.36,0.11-0.68,0.31-0.97c0.2-0.28,0.5-0.51,0.88-0.67c0.38-0.16,0.82-0.24,1.29-0.24
		c0.48,0,0.91,0.09,1.28,0.26c0.37,0.18,0.67,0.42,0.88,0.74c0.2,0.32,0.31,0.68,0.31,1.08h-1.39c0-0.31-0.1-0.55-0.29-0.72
		c-0.2-0.17-0.46-0.26-0.82-0.26c-0.34,0-0.6,0.07-0.79,0.21s-0.28,0.33-0.28,0.57c0,0.22,0.11,0.4,0.33,0.55s0.54,0.28,0.97,0.42
		c0.79,0.24,1.36,0.53,1.72,0.88s0.54,0.79,0.54,1.31c0,0.59-0.22,1.04-0.66,1.37c-0.44,0.33-1.03,0.5-1.78,0.5
		c-0.52,0-0.99-0.1-1.41-0.28c-0.43-0.19-0.75-0.44-0.97-0.78c-0.22-0.33-0.34-0.71-0.34-1.15h1.39c0,0.75,0.44,1.11,1.33,1.11
		c0.33,0,0.59-0.07,0.77-0.2C301.67,193.55,301.77,193.37,301.77,193.13z"/>
	<path class="st4" d="M309.62,191.69c0,0.67-0.12,1.24-0.35,1.74s-0.57,0.88-1,1.15s-0.93,0.41-1.5,0.41c-0.56,0-1.06-0.13-1.49-0.4
		c-0.44-0.27-0.77-0.65-1.01-1.15c-0.24-0.5-0.36-1.07-0.36-1.71v-0.33c0-0.67,0.12-1.24,0.36-1.75c0.24-0.51,0.58-0.89,1.01-1.15
		c0.44-0.27,0.93-0.4,1.49-0.4s1.06,0.13,1.49,0.4c0.44,0.27,0.77,0.66,1.01,1.15c0.24,0.5,0.36,1.08,0.36,1.74L309.62,191.69
		L309.62,191.69z M308.21,191.38c0-0.7-0.12-1.24-0.38-1.61c-0.26-0.36-0.61-0.55-1.08-0.55c-0.46,0-0.83,0.18-1.07,0.54
		c-0.25,0.36-0.38,0.89-0.38,1.59v0.33c0,0.68,0.12,1.22,0.38,1.6c0.25,0.38,0.61,0.57,1.09,0.57c0.46,0,0.83-0.19,1.07-0.55
		c0.25-0.36,0.37-0.9,0.38-1.6L308.21,191.38L308.21,191.38z"/>
	<path class="st4" d="M312.43,188.17l1.72,4.88l1.71-4.88h1.82v6.72h-1.39v-1.84l0.14-3.17l-1.81,5.01h-0.95l-1.81-5l0.14,3.17v1.84
		h-1.39v-6.72L312.43,188.17L312.43,188.17z"/>
	<path class="st4" d="M322.95,191.98h-2.66v1.8h3.12v1.11h-4.5v-6.72h4.49v1.12h-3.11v1.6h2.66V191.98z"/>
	<path class="st4" d="M329.46,192.96l0.91-4.78h1.38l-1.49,6.72h-1.39l-1.09-4.49l-1.09,4.49h-1.39l-1.49-6.72h1.38l0.91,4.77
		l1.11-4.77h1.17L329.46,192.96z"/>
	<path class="st4" d="M337.96,194.89h-1.39v-2.88h-2.7v2.88h-1.39v-6.72h1.39v2.73h2.7v-2.73h1.39V194.89z"/>
	<path class="st4" d="M343.05,193.51h-2.42l-0.46,1.39h-1.47l2.5-6.72h1.29l2.51,6.72h-1.47L343.05,193.51z M341,192.39h1.68
		l-0.84-2.51L341,192.39z"/>
	<path class="st4" d="M350.12,189.29h-2.06v5.6h-1.39v-5.6h-2.03v-1.12h5.47L350.12,189.29L350.12,189.29z"/>
</g>
<g class="st0">
	<path class="st4" d="M322.61,203.23h2.94v1.11h-4.33v-6.72h1.39V203.23z"/>
	<path class="st4" d="M327.82,204.35h-1.39v-6.72h1.39V204.35z"/>
	<path class="st4" d="M331.21,201.65l-0.72,0.77v1.92h-1.39v-6.72h1.39v3.05l0.61-0.83l1.71-2.21h1.71l-2.39,2.98l2.45,3.74h-1.65
		L331.21,201.65z"/>
	<path class="st4" d="M339.15,201.43h-2.66v1.8h3.12v1.11h-4.5v-6.72h4.49v1.12h-3.11v1.6h2.66V201.43z"/>
	<path class="st4" d="M341.81,203.23h2.94v1.11h-4.33v-6.72h1.39V203.23z"/>
	<path class="st4" d="M346.58,200.65l1.39-3.03h1.52l-2.2,4.28v2.43h-1.4v-2.43l-2.2-4.28h1.52L346.58,200.65z"/>
</g>
<g class="st0">
	<path class="st7" d="M411.67,241.52h-4.61v-0.91l2.18-2.32c0.3-0.33,0.52-0.61,0.67-0.85c0.15-0.24,0.21-0.47,0.21-0.69
		c0-0.3-0.07-0.53-0.22-0.7c-0.15-0.17-0.36-0.26-0.65-0.26c-0.3,0-0.54,0.11-0.71,0.31c-0.18,0.2-0.26,0.48-0.26,0.82h-1.35
		c0-0.41,0.1-0.78,0.29-1.12c0.2-0.34,0.47-0.6,0.83-0.8c0.36-0.2,0.76-0.28,1.22-0.28c0.69,0,1.23,0.17,1.62,0.5
		c0.38,0.34,0.58,0.8,0.58,1.41c0,0.33-0.09,0.67-0.26,1.01c-0.17,0.35-0.47,0.75-0.89,1.21l-1.53,1.61h2.89L411.67,241.52
		L411.67,241.52z"/>
	<path class="st7" d="M415.6,238.84c-0.35,0.34-0.76,0.52-1.22,0.52c-0.6,0-1.07-0.2-1.43-0.61c-0.36-0.41-0.53-0.96-0.53-1.65
		c0-0.44,0.1-0.84,0.29-1.21c0.2-0.36,0.46-0.66,0.81-0.86c0.35-0.2,0.74-0.3,1.16-0.3c0.44,0,0.83,0.11,1.18,0.33
		c0.35,0.22,0.61,0.54,0.8,0.96c0.19,0.42,0.28,0.89,0.29,1.43v0.5c0,1.12-0.28,2-0.83,2.64c-0.56,0.64-1.35,0.98-2.37,1.02
		l-0.33,0.01v-1.11h0.29C414.88,240.42,415.51,239.87,415.6,238.84z M414.72,238.33c0.21,0,0.4-0.05,0.56-0.17
		c0.15-0.11,0.28-0.25,0.36-0.4v-0.55c0-0.45-0.09-0.8-0.26-1.05c-0.17-0.25-0.4-0.37-0.69-0.37c-0.27,0-0.49,0.12-0.66,0.36
		c-0.17,0.25-0.26,0.55-0.26,0.92c0,0.36,0.08,0.67,0.25,0.91C414.17,238.21,414.4,238.33,414.72,238.33z"/>
</g>
<g class="st0">
	<path class="st7" d="M416.1,254.05v1.1h-0.13c-0.6,0.01-1.09,0.17-1.46,0.47c-0.36,0.3-0.59,0.73-0.67,1.27
		c0.36-0.36,0.81-0.54,1.35-0.54c0.59,0,1.05,0.21,1.39,0.63s0.52,0.97,0.52,1.65c0,0.44-0.1,0.83-0.28,1.19
		c-0.19,0.36-0.45,0.63-0.8,0.83c-0.35,0.2-0.74,0.29-1.17,0.29c-0.71,0-1.28-0.25-1.71-0.74s-0.66-1.15-0.66-1.97v-0.48
		c0-0.73,0.14-1.38,0.42-1.93c0.28-0.56,0.67-0.99,1.19-1.3c0.52-0.3,1.11-0.46,1.79-0.46h0.22V254.05z M414.8,257.42
		c-0.21,0-0.41,0.05-0.59,0.17c-0.18,0.12-0.3,0.26-0.39,0.44v0.41c0,0.44,0.09,0.79,0.27,1.04c0.18,0.25,0.42,0.37,0.74,0.37
		c0.28,0,0.52-0.12,0.69-0.34c0.18-0.22,0.27-0.52,0.27-0.88s-0.09-0.66-0.27-0.89C415.35,257.53,415.11,257.42,414.8,257.42z"/>
</g>
<g class="st0">
	<path class="st7" d="M510.92,252.47v1.1h-0.13c-0.6,0.01-1.09,0.17-1.46,0.47c-0.36,0.3-0.59,0.73-0.67,1.27
		c0.36-0.36,0.81-0.54,1.35-0.54c0.59,0,1.05,0.21,1.39,0.63s0.52,0.97,0.52,1.65c0,0.44-0.1,0.83-0.28,1.19
		c-0.19,0.36-0.45,0.63-0.8,0.83c-0.35,0.2-0.74,0.29-1.17,0.29c-0.71,0-1.28-0.25-1.71-0.74s-0.66-1.15-0.66-1.97v-0.48
		c0-0.73,0.14-1.38,0.41-1.93c0.28-0.56,0.68-0.99,1.19-1.3c0.52-0.3,1.11-0.46,1.79-0.46h0.23V252.47z M509.62,255.85
		c-0.21,0-0.41,0.05-0.59,0.17c-0.18,0.12-0.3,0.26-0.39,0.44v0.41c0,0.44,0.09,0.79,0.27,1.04c0.18,0.25,0.42,0.37,0.74,0.37
		c0.28,0,0.52-0.12,0.69-0.34c0.18-0.22,0.27-0.52,0.27-0.88s-0.09-0.66-0.27-0.89C510.16,255.95,509.92,255.85,509.62,255.85z"/>
	<path class="st7" d="M512.92,255.96l0.39-3.42h3.77v1.11h-2.67l-0.17,1.45c0.32-0.17,0.66-0.26,1.01-0.26c0.64,0,1.15,0.2,1.5,0.6
		c0.36,0.4,0.54,0.95,0.54,1.67c0,0.44-0.09,0.83-0.28,1.16c-0.19,0.35-0.44,0.61-0.79,0.8c-0.35,0.19-0.75,0.28-1.21,0.28
		c-0.41,0-0.78-0.08-1.13-0.25s-0.62-0.4-0.83-0.69s-0.31-0.64-0.32-1.02h1.32c0.03,0.28,0.12,0.5,0.29,0.66s0.39,0.23,0.66,0.23
		c0.3,0,0.53-0.11,0.69-0.33c0.16-0.22,0.25-0.52,0.25-0.92c0-0.38-0.1-0.68-0.28-0.88c-0.19-0.2-0.45-0.3-0.8-0.3
		c-0.32,0-0.58,0.08-0.77,0.25l-0.13,0.12L512.92,255.96z"/>
</g>
<line class="st2" x1="0.07" y1="263.56" x2="284.31" y2="264.55"/>
<rect x="83.17" y="254.03" class="st3" width="62.82" height="9.26"/>
<rect x="83.17" y="232.41" class="st4" width="62.82" height="21.63"/>
<rect x="83.3" y="155.15" class="st8" width="62.82" height="77.23"/>
<rect x="181.39" y="62.47" class="st5" width="62.82" height="200.82"/>
<g class="st0">
	<path class="st3" d="M32.25,259.6l1.49-4.96h1.51l-2.29,6.59h-1.41l-2.28-6.59h1.51L32.25,259.6z"/>
	<path class="st3" d="M39.83,258.37h-2.6v1.77h3.06v1.09h-4.41v-6.59h4.41v1.1h-3.05v1.57h2.6V258.37z"/>
	<path class="st3" d="M43.52,258.81h-1.08v2.42h-1.36v-6.59h2.45c0.78,0,1.38,0.18,1.8,0.52c0.43,0.35,0.63,0.83,0.63,1.47
		c0,0.45-0.1,0.83-0.29,1.13c-0.2,0.3-0.49,0.54-0.89,0.72l1.42,2.69v0.06h-1.46L43.52,258.81z M42.44,257.71h1.09
		c0.34,0,0.6-0.09,0.79-0.26c0.19-0.17,0.28-0.41,0.28-0.72c0-0.31-0.09-0.55-0.27-0.74c-0.18-0.18-0.44-0.27-0.81-0.27h-1.09
		V257.71z"/>
	<path class="st3" d="M49.05,257.61l1.37-2.97h1.48l-2.17,4.2v2.39h-1.38v-2.39l-2.17-4.2h1.49L49.05,257.61z"/>
	<path class="st3" d="M58.24,259.5c0-0.26-0.09-0.45-0.28-0.6c-0.18-0.13-0.51-0.28-0.98-0.44c-0.47-0.15-0.84-0.3-1.12-0.45
		c-0.75-0.41-1.12-0.95-1.12-1.63c0-0.36,0.1-0.68,0.3-0.95c0.2-0.28,0.49-0.5,0.86-0.66s0.8-0.24,1.26-0.24
		c0.47,0,0.89,0.09,1.26,0.26c0.36,0.17,0.66,0.41,0.86,0.72s0.3,0.67,0.3,1.06h-1.36c0-0.3-0.1-0.53-0.28-0.7
		c-0.19-0.17-0.45-0.25-0.8-0.25c-0.33,0-0.59,0.07-0.77,0.21s-0.28,0.33-0.28,0.55c0,0.21,0.11,0.39,0.32,0.54
		c0.21,0.15,0.53,0.28,0.95,0.41c0.77,0.23,1.33,0.52,1.69,0.86c0.36,0.35,0.53,0.77,0.53,1.29c0,0.57-0.21,1.02-0.65,1.34
		c-0.44,0.33-1.01,0.49-1.74,0.49c-0.51,0-0.97-0.09-1.39-0.28s-0.74-0.44-0.95-0.76c-0.22-0.32-0.33-0.69-0.33-1.12h1.36
		c0,0.73,0.44,1.09,1.31,1.09c0.32,0,0.58-0.06,0.76-0.2C58.15,259.91,58.24,259.73,58.24,259.5z"/>
	<path class="st3" d="M64.23,259.87h-2.38l-0.45,1.36h-1.45l2.45-6.59h1.26l2.47,6.59H64.7L64.23,259.87z M62.23,258.77h1.64
		l-0.83-2.47L62.23,258.77z"/>
	<path class="st3" d="M70.72,258.53h-2.6v2.69h-1.36v-6.59h4.29v1.1h-2.93v1.71h2.6V258.53z"/>
	<path class="st3" d="M75.8,258.37h-2.6v1.77h3.06v1.09h-4.41v-6.59h4.41v1.1H73.2v1.57h2.6V258.37z"/>
</g>
<g class="st0">
	<path class="st4" d="M58.45,244.49c0-0.26-0.09-0.45-0.28-0.6c-0.18-0.13-0.51-0.28-0.98-0.44c-0.47-0.15-0.84-0.3-1.12-0.45
		c-0.75-0.41-1.12-0.95-1.12-1.63c0-0.36,0.1-0.68,0.3-0.95c0.2-0.28,0.49-0.5,0.86-0.66s0.8-0.24,1.26-0.24
		c0.47,0,0.89,0.09,1.26,0.26c0.36,0.17,0.66,0.41,0.86,0.72s0.3,0.67,0.3,1.06h-1.35c0-0.3-0.1-0.53-0.28-0.7s-0.45-0.25-0.8-0.25
		c-0.33,0-0.59,0.07-0.77,0.21s-0.28,0.33-0.28,0.55c0,0.21,0.11,0.39,0.32,0.54c0.21,0.15,0.53,0.28,0.95,0.41
		c0.77,0.23,1.33,0.52,1.69,0.86c0.36,0.35,0.53,0.77,0.53,1.29c0,0.57-0.21,1.02-0.65,1.34c-0.44,0.33-1.01,0.49-1.74,0.49
		c-0.51,0-0.97-0.09-1.39-0.28c-0.42-0.19-0.74-0.44-0.95-0.76c-0.22-0.32-0.33-0.69-0.33-1.12h1.36c0,0.73,0.44,1.09,1.31,1.09
		c0.32,0,0.58-0.06,0.76-0.2C58.36,244.9,58.45,244.72,58.45,244.49z"/>
	<path class="st4" d="M64.46,244.85h-2.38l-0.45,1.36h-1.45l2.45-6.59h1.26l2.47,6.59h-1.44L64.46,244.85z M62.44,243.76h1.64
		l-0.83-2.47L62.44,243.76z"/>
	<path class="st4" d="M70.93,243.52h-2.6v2.69h-1.36v-6.59h4.29v1.1h-2.93v1.71h2.6V243.52z"/>
	<path class="st4" d="M76.01,243.36h-2.6v1.77h3.06v1.09h-4.41v-6.59h4.41v1.1h-3.05v1.57h2.6V243.36z"/>
</g>
<g class="st0">
	<path class="st6" d="M125.35,274.89c0-0.26-0.09-0.45-0.28-0.6c-0.18-0.13-0.51-0.28-0.98-0.44s-0.84-0.3-1.12-0.45
		c-0.75-0.41-1.12-0.95-1.12-1.63c0-0.36,0.1-0.68,0.3-0.95c0.2-0.28,0.49-0.5,0.86-0.66s0.8-0.24,1.26-0.24
		c0.47,0,0.89,0.09,1.26,0.26c0.36,0.17,0.66,0.41,0.86,0.72c0.2,0.31,0.3,0.67,0.3,1.06h-1.36c0-0.3-0.1-0.53-0.28-0.7
		c-0.19-0.17-0.45-0.25-0.8-0.25c-0.33,0-0.59,0.07-0.77,0.21c-0.19,0.14-0.28,0.33-0.28,0.55c0,0.21,0.11,0.39,0.32,0.54
		s0.53,0.28,0.95,0.41c0.77,0.23,1.33,0.52,1.69,0.86c0.36,0.35,0.53,0.77,0.53,1.29c0,0.57-0.21,1.02-0.65,1.34
		c-0.44,0.33-1.01,0.49-1.74,0.49c-0.51,0-0.97-0.09-1.39-0.28c-0.42-0.19-0.74-0.44-0.95-0.76c-0.22-0.32-0.33-0.69-0.33-1.12h1.36
		c0,0.73,0.44,1.09,1.31,1.09c0.32,0,0.58-0.06,0.76-0.2C125.26,275.31,125.35,275.12,125.35,274.89z"/>
	<path class="st6" d="M131.35,275.26h-2.38l-0.45,1.36h-1.45l2.45-6.59h1.26l2.47,6.59h-1.44L131.35,275.26z M129.33,274.15h1.64
		l-0.83-2.47L129.33,274.15z"/>
	<path class="st6" d="M137.83,273.92h-2.6v2.69h-1.36v-6.59h4.29v1.1h-2.93v1.71h2.6V273.92z"/>
	<path class="st6" d="M142.91,273.76h-2.6v1.77h3.06v1.09h-4.41v-6.59h4.41v1.1h-3.05v1.57h2.6V273.76L142.91,273.76z"/>
</g>
<g class="st0">
	<path class="st6" d="M211,270.02v4.34c0,0.72-0.22,1.29-0.68,1.71c-0.45,0.42-1.07,0.63-1.85,0.63c-0.77,0-1.38-0.2-1.83-0.61
		c-0.45-0.41-0.68-0.97-0.69-1.68v-4.39h1.36v4.35c0,0.44,0.11,0.75,0.31,0.94c0.2,0.2,0.49,0.29,0.86,0.29
		c0.76,0,1.15-0.4,1.16-1.21v-4.39L211,270.02L211,270.02z"/>
	<path class="st6" d="M217.47,276.61h-1.36l-2.65-4.33v4.33h-1.36v-6.59h1.36l2.65,4.34v-4.34h1.35L217.47,276.61L217.47,276.61z"/>
	<path class="st6" d="M222.08,274.89c0-0.26-0.09-0.45-0.28-0.6c-0.18-0.13-0.51-0.28-0.98-0.44s-0.84-0.3-1.12-0.45
		c-0.75-0.41-1.12-0.95-1.12-1.63c0-0.36,0.1-0.68,0.3-0.95c0.2-0.28,0.49-0.5,0.86-0.66c0.37-0.16,0.8-0.24,1.26-0.24
		c0.47,0,0.89,0.09,1.26,0.26c0.36,0.17,0.66,0.41,0.86,0.72c0.2,0.31,0.3,0.67,0.3,1.06h-1.36c0-0.3-0.1-0.53-0.28-0.7
		s-0.45-0.25-0.8-0.25c-0.33,0-0.59,0.07-0.77,0.21c-0.19,0.14-0.28,0.33-0.28,0.55c0,0.21,0.11,0.39,0.32,0.54
		c0.21,0.15,0.53,0.28,0.95,0.41c0.77,0.23,1.33,0.52,1.69,0.86c0.36,0.35,0.53,0.77,0.53,1.29c0,0.57-0.21,1.02-0.65,1.34
		c-0.44,0.33-1.01,0.49-1.74,0.49c-0.51,0-0.97-0.09-1.39-0.28c-0.42-0.19-0.74-0.44-0.95-0.76c-0.22-0.32-0.33-0.69-0.33-1.12h1.36
		c0,0.73,0.44,1.09,1.31,1.09c0.32,0,0.58-0.06,0.76-0.2C221.98,275.31,222.08,275.12,222.08,274.89z"/>
	<path class="st6" d="M228.07,275.26h-2.38l-0.45,1.36h-1.45l2.45-6.59h1.26l2.47,6.59h-1.44L228.07,275.26z M226.06,274.15h1.64
		l-0.83-2.47L226.06,274.15z"/>
	<path class="st6" d="M234.56,273.92h-2.6v2.69h-1.36v-6.59h4.29v1.1h-2.93v1.71h2.6V273.92z"/>
	<path class="st6" d="M239.63,273.76h-2.6v1.77h3.06v1.09h-4.41v-6.59h4.41v1.1h-3.05v1.57h2.6V273.76z"/>
</g>
<g class="st0">
	<path class="st8" d="M28.62,193.5c0-0.26-0.09-0.45-0.28-0.6c-0.18-0.13-0.51-0.28-0.98-0.44c-0.47-0.15-0.84-0.3-1.12-0.45
		c-0.75-0.41-1.12-0.95-1.12-1.63c0-0.36,0.1-0.68,0.3-0.95c0.2-0.28,0.49-0.5,0.86-0.66c0.37-0.16,0.8-0.24,1.26-0.24
		c0.47,0,0.89,0.09,1.26,0.26c0.36,0.17,0.66,0.41,0.86,0.72c0.2,0.31,0.3,0.67,0.3,1.06h-1.36c0-0.3-0.1-0.53-0.28-0.7
		c-0.19-0.17-0.45-0.25-0.8-0.25c-0.33,0-0.59,0.07-0.77,0.21c-0.19,0.14-0.28,0.33-0.28,0.55c0,0.21,0.11,0.39,0.32,0.54
		c0.21,0.15,0.53,0.28,0.95,0.41c0.77,0.23,1.33,0.52,1.69,0.86c0.36,0.35,0.53,0.77,0.53,1.29c0,0.57-0.21,1.02-0.65,1.34
		c-0.44,0.33-1.01,0.49-1.74,0.49c-0.51,0-0.97-0.09-1.39-0.28c-0.42-0.19-0.74-0.44-0.95-0.76c-0.22-0.32-0.33-0.69-0.33-1.12h1.36
		c0,0.73,0.44,1.09,1.31,1.09c0.32,0,0.58-0.06,0.76-0.2C28.53,193.92,28.62,193.74,28.62,193.5z"/>
	<path class="st8" d="M36.32,192.09c0,0.65-0.12,1.22-0.35,1.71s-0.56,0.86-0.99,1.13s-0.91,0.4-1.47,0.4
		c-0.54,0-1.03-0.13-1.47-0.39c-0.43-0.26-0.76-0.64-0.99-1.13c-0.24-0.49-0.36-1.05-0.36-1.68v-0.33c0-0.65,0.12-1.22,0.36-1.71
		c0.23-0.49,0.57-0.87,0.99-1.14c0.43-0.27,0.91-0.4,1.47-0.4c0.55,0,1.04,0.13,1.47,0.4c0.43,0.27,0.76,0.64,0.99,1.14
		c0.23,0.5,0.35,1.07,0.35,1.71L36.32,192.09L36.32,192.09z M34.94,191.79c0-0.69-0.12-1.22-0.37-1.57
		c-0.25-0.36-0.6-0.54-1.06-0.54c-0.45,0-0.81,0.18-1.06,0.53c-0.25,0.36-0.37,0.87-0.37,1.56v0.32c0,0.68,0.12,1.19,0.37,1.56
		c0.25,0.37,0.6,0.56,1.07,0.56c0.45,0,0.81-0.18,1.05-0.53c0.24-0.36,0.36-0.88,0.37-1.56C34.94,192.11,34.94,191.79,34.94,191.79z
		"/>
	<path class="st8" d="M39.08,188.64l1.7,4.78l1.69-4.78h1.79v6.59h-1.36v-1.8l0.13-3.11l-1.78,4.91h-0.93l-1.78-4.9l0.13,3.11v1.8
		h-1.36v-6.59L39.08,188.64L39.08,188.64z"/>
	<path class="st8" d="M49.39,192.37h-2.6v1.77h3.06v1.09h-4.41v-6.59h4.41v1.1h-3.05v1.57h2.6
		C49.39,191.31,49.39,192.37,49.39,192.37z"/>
	<path class="st8" d="M55.77,193.33l0.89-4.69h1.35l-1.47,6.59h-1.37l-1.07-4.41l-1.07,4.41h-1.37l-1.47-6.59h1.35l0.89,4.68
		l1.08-4.68h1.15L55.77,193.33z"/>
	<path class="st8" d="M64.11,195.23h-1.36v-2.82H60.1v2.82h-1.36v-6.59h1.36v2.67h2.65v-2.67h1.36V195.23z"/>
	<path class="st8" d="M69.09,193.87h-2.38l-0.45,1.36h-1.45l2.45-6.59h1.26l2.47,6.59h-1.44L69.09,193.87z M67.08,192.77h1.64
		l-0.83-2.47L67.08,192.77z"/>
	<path class="st8" d="M76.03,189.74H74v5.49h-1.36v-5.49h-1.99v-1.1h5.37L76.03,189.74L76.03,189.74z"/>
</g>
<g class="st0">
	<path class="st8" d="M58.45,202.76c0-0.26-0.09-0.45-0.28-0.6c-0.18-0.13-0.51-0.28-0.98-0.44c-0.47-0.15-0.84-0.3-1.12-0.45
		c-0.75-0.41-1.12-0.95-1.12-1.63c0-0.36,0.1-0.68,0.3-0.95c0.2-0.28,0.49-0.5,0.86-0.66c0.37-0.16,0.8-0.24,1.26-0.24
		c0.47,0,0.89,0.09,1.26,0.26c0.36,0.17,0.66,0.41,0.86,0.72c0.2,0.31,0.3,0.67,0.3,1.06h-1.35c0-0.3-0.1-0.53-0.28-0.7
		s-0.45-0.25-0.8-0.25c-0.33,0-0.59,0.07-0.77,0.21s-0.28,0.33-0.28,0.55c0,0.21,0.11,0.39,0.32,0.54c0.21,0.15,0.53,0.28,0.95,0.41
		c0.77,0.23,1.33,0.52,1.69,0.86c0.36,0.35,0.53,0.77,0.53,1.29c0,0.57-0.21,1.02-0.65,1.34c-0.44,0.33-1.01,0.49-1.74,0.49
		c-0.51,0-0.97-0.09-1.39-0.28c-0.42-0.19-0.74-0.44-0.95-0.76c-0.22-0.32-0.33-0.69-0.33-1.12h1.36c0,0.73,0.44,1.09,1.31,1.09
		c0.32,0,0.58-0.06,0.76-0.2C58.36,203.18,58.45,203,58.45,202.76z"/>
	<path class="st8" d="M64.46,203.14h-2.38l-0.45,1.36h-1.45l2.45-6.59h1.26l2.47,6.59h-1.44L64.46,203.14z M62.44,202.04h1.64
		l-0.83-2.47L62.44,202.04z"/>
	<path class="st8" d="M70.93,201.8h-2.6v2.69h-1.36v-6.59h4.29v1.1h-2.93v1.71h2.6V201.8z"/>
	<path class="st8" d="M76.01,201.64h-2.6v1.77h3.06v1.09h-4.41v-6.59h4.41v1.1h-3.05v1.57h2.6V201.64z"/>
</g>
<g class="st0">
	<path class="st7" d="M141.64,245.29l-2.55,5.86h-1.38l2.55-5.53h-3.28v-1.06h4.65V245.29z"/>
</g>
<g class="st0">
	<path class="st7" d="M136.36,230.11h-4.51v-0.9l2.13-2.27c0.29-0.32,0.51-0.6,0.65-0.83c0.14-0.24,0.21-0.46,0.21-0.68
		c0-0.29-0.07-0.52-0.22-0.69c-0.15-0.17-0.36-0.25-0.63-0.25c-0.29,0-0.53,0.11-0.7,0.3c-0.17,0.2-0.26,0.47-0.26,0.8h-1.31
		c0-0.4,0.1-0.76,0.28-1.1c0.2-0.33,0.46-0.6,0.81-0.78c0.35-0.19,0.75-0.28,1.19-0.28c0.68,0,1.21,0.16,1.58,0.49
		c0.37,0.33,0.56,0.78,0.56,1.38c0,0.33-0.09,0.66-0.26,0.99c-0.17,0.34-0.46,0.73-0.87,1.18l-1.5,1.58h2.83v1.07H136.36z"/>
	<path class="st7" d="M137.35,226.88l0.38-3.35h3.7v1.09h-2.62l-0.16,1.42c0.31-0.17,0.64-0.25,0.99-0.25c0.63,0,1.12,0.2,1.47,0.59
		c0.36,0.39,0.53,0.93,0.53,1.63c0,0.43-0.09,0.81-0.27,1.15c-0.18,0.34-0.44,0.6-0.77,0.78c-0.34,0.19-0.73,0.28-1.18,0.28
		c-0.4,0-0.76-0.08-1.11-0.24c-0.35-0.16-0.61-0.39-0.81-0.68c-0.2-0.29-0.3-0.63-0.31-1h1.3c0.03,0.28,0.12,0.49,0.28,0.64
		c0.17,0.15,0.38,0.23,0.65,0.23c0.29,0,0.52-0.11,0.68-0.32c0.16-0.21,0.24-0.52,0.24-0.91c0-0.37-0.09-0.66-0.28-0.86
		c-0.19-0.2-0.44-0.3-0.78-0.3c-0.31,0-0.56,0.08-0.76,0.25l-0.12,0.12L137.35,226.88z"/>
</g>
<g class="st0">
	<path class="st7" d="M138.48,258.57h0.69c0.33,0,0.58-0.08,0.74-0.25s0.24-0.38,0.24-0.66c0-0.27-0.08-0.47-0.24-0.62
		c-0.16-0.15-0.37-0.22-0.66-0.22c-0.25,0-0.46,0.07-0.63,0.2c-0.17,0.14-0.26,0.32-0.26,0.53h-1.31c0-0.35,0.09-0.66,0.28-0.92
		c0.19-0.28,0.44-0.49,0.78-0.64c0.34-0.15,0.7-0.23,1.1-0.23c0.69,0,1.24,0.17,1.63,0.5c0.4,0.34,0.6,0.79,0.6,1.38
		c0,0.3-0.09,0.58-0.28,0.83c-0.19,0.26-0.43,0.44-0.73,0.59c0.37,0.13,0.65,0.33,0.83,0.6c0.19,0.27,0.28,0.58,0.28,0.94
		c0,0.59-0.21,1.06-0.64,1.4c-0.43,0.36-0.99,0.53-1.7,0.53c-0.66,0-1.2-0.18-1.62-0.52c-0.42-0.35-0.63-0.81-0.63-1.38h1.31
		c0,0.25,0.09,0.45,0.28,0.6c0.19,0.16,0.42,0.24,0.68,0.24c0.31,0,0.55-0.08,0.73-0.25c0.18-0.16,0.27-0.38,0.27-0.66
		c0-0.66-0.36-0.99-1.08-0.99h-0.69v-1.01H138.48z"/>
</g>
<g class="st0">
	<path class="st7" d="M233.65,251.67v1.07h-0.12c-0.6,0.01-1.07,0.16-1.43,0.46c-0.36,0.3-0.58,0.71-0.65,1.24
		c0.35-0.36,0.79-0.53,1.32-0.53c0.58,0,1.03,0.2,1.37,0.61c0.34,0.41,0.51,0.95,0.51,1.62c0,0.43-0.09,0.82-0.28,1.16
		c-0.19,0.35-0.44,0.61-0.79,0.81c-0.34,0.2-0.72,0.29-1.15,0.29c-0.69,0-1.25-0.24-1.68-0.72c-0.43-0.48-0.64-1.13-0.64-1.94v-0.47
		c0-0.71,0.13-1.35,0.41-1.89c0.27-0.55,0.66-0.97,1.16-1.27s1.09-0.45,1.76-0.45L233.65,251.67L233.65,251.67z M232.38,254.98
		c-0.21,0-0.4,0.05-0.58,0.17c-0.18,0.12-0.3,0.26-0.38,0.44v0.4c0,0.44,0.09,0.78,0.26,1.02c0.17,0.25,0.42,0.37,0.73,0.37
		c0.28,0,0.51-0.11,0.68-0.33c0.18-0.22,0.26-0.51,0.26-0.86c0-0.36-0.09-0.65-0.27-0.87C232.91,255.09,232.67,254.98,232.38,254.98
		z"/>
	<path class="st7" d="M235.62,255.09l0.38-3.35h3.7v1.09h-2.62l-0.16,1.41c0.31-0.17,0.64-0.25,0.99-0.25c0.63,0,1.12,0.2,1.47,0.59
		s0.53,0.93,0.53,1.63c0,0.43-0.09,0.81-0.27,1.15c-0.18,0.34-0.44,0.6-0.77,0.78c-0.34,0.19-0.73,0.28-1.18,0.28
		c-0.4,0-0.76-0.08-1.11-0.24s-0.61-0.39-0.81-0.68s-0.3-0.63-0.31-1h1.3c0.03,0.28,0.12,0.49,0.28,0.64
		c0.17,0.15,0.38,0.23,0.65,0.23c0.29,0,0.52-0.11,0.68-0.32s0.24-0.52,0.24-0.91c0-0.37-0.09-0.66-0.28-0.86
		c-0.19-0.2-0.44-0.3-0.78-0.3c-0.31,0-0.56,0.08-0.76,0.25l-0.12,0.12L235.62,255.09z"/>
</g>
</svg>
