<?xml version="1.0" encoding="utf-8"?>
<!-- Generator: Adobe Illustrator 24.1.2, SVG Export Plug-In . SVG Version: 6.00 Build 0)  -->
<svg version="1.0" id="Layer_1" xmlns="http://www.w3.org/2000/svg" xmlns:xlink="http://www.w3.org/1999/xlink" x="0px" y="0px"
	 viewBox="0 0 681.87 335.29" style="enable-background:new 0 0 681.87 335.29;" xml:space="preserve">
<style type="text/css">
	.st0{enable-background:new    ;}
	.st1{fill:#505050;}
	.st2{fill:none;stroke:#989898;stroke-miterlimit:10;}
	.st3{fill:#63A886;}
	.st4{fill:#7EC9A4;}
	.st5{fill:#CC3C3B;}
	.st6{fill:#4E4E4E;}
	.st7{fill:#FFFFFF;}
	.st8{fill:#96D2B1;}
</style>
<g>
	<g class="st0">
		<path class="st1" d="M359.71,25.55c0,1.15-0.18,2.14-0.54,2.98c-0.36,0.84-0.87,1.5-1.52,2l2.08,1.62l-1.36,1.23l-2.57-2.03
			c-0.34,0.07-0.7,0.11-1.09,0.11c-0.97,0-1.84-0.24-2.61-0.72c-0.77-0.48-1.36-1.16-1.78-2.05c-0.42-0.89-0.63-1.91-0.63-3.06
			v-0.68c0-1.18,0.21-2.22,0.63-3.12s1.01-1.59,1.77-2.07c0.76-0.48,1.63-0.72,2.61-0.72c1,0,1.87,0.24,2.63,0.71
			c0.76,0.47,1.35,1.15,1.76,2.04c0.42,0.89,0.62,1.92,0.63,3.1V25.55z M357.6,24.92c0-1.36-0.25-2.39-0.76-3.1
			c-0.51-0.7-1.23-1.05-2.16-1.05c-0.9,0-1.61,0.36-2.12,1.07s-0.77,1.71-0.78,3.01v0.71c0,1.31,0.26,2.33,0.77,3.06
			c0.51,0.74,1.23,1.1,2.15,1.1c0.93,0,1.65-0.35,2.15-1.06c0.5-0.71,0.75-1.74,0.75-3.1V24.92z"/>
		<path class="st1" d="M362.87,22.1c0.38,0,0.67,0.11,0.87,0.32c0.21,0.21,0.31,0.48,0.31,0.8c0,0.32-0.1,0.58-0.31,0.78
			c-0.2,0.21-0.5,0.31-0.87,0.31c-0.36,0-0.64-0.1-0.86-0.31c-0.21-0.2-0.32-0.47-0.32-0.79s0.1-0.59,0.31-0.8
			C362.21,22.21,362.5,22.1,362.87,22.1z M362.87,29.15c0.38,0,0.67,0.11,0.87,0.32c0.21,0.21,0.31,0.48,0.31,0.8
			c0,0.31-0.1,0.58-0.31,0.78c-0.2,0.21-0.5,0.31-0.87,0.31c-0.36,0-0.64-0.1-0.86-0.31c-0.21-0.21-0.32-0.47-0.32-0.79
			c0-0.32,0.1-0.59,0.31-0.8C362.21,29.26,362.5,29.15,362.87,29.15z"/>
		<path class="st1" d="M384.42,31.28h-2.09v-5.36h-5.4v5.36h-2.1V19.19h2.1v5.03h5.4v-5.03h2.09V31.28z"/>
		<path class="st1" d="M386.32,26.7c0-0.88,0.17-1.67,0.52-2.38c0.35-0.71,0.84-1.25,1.47-1.63s1.36-0.57,2.17-0.57
			c1.21,0,2.2,0.39,2.95,1.17c0.76,0.78,1.16,1.81,1.22,3.1l0.01,0.47c0,0.89-0.17,1.68-0.51,2.37c-0.34,0.7-0.83,1.24-1.46,1.62
			c-0.63,0.38-1.37,0.57-2.2,0.57c-1.27,0-2.28-0.42-3.04-1.27c-0.76-0.84-1.14-1.97-1.14-3.38V26.7z M388.34,26.88
			c0,0.92,0.19,1.65,0.57,2.17c0.38,0.52,0.91,0.78,1.59,0.78s1.21-0.27,1.59-0.8c0.38-0.53,0.57-1.31,0.57-2.33
			c0-0.91-0.2-1.63-0.59-2.16c-0.39-0.53-0.92-0.8-1.59-0.8c-0.66,0-1.18,0.26-1.57,0.79C388.54,25.06,388.34,25.84,388.34,26.88z"
			/>
		<path class="st1" d="M404.27,28.5l1.43-6.2h1.97l-2.45,8.98h-1.66l-1.93-6.17l-1.89,6.17h-1.66l-2.46-8.98h1.97l1.45,6.13
			l1.84-6.13h1.52L404.27,28.5z"/>
		<path class="st1" d="M418.28,28.84c0-0.36-0.15-0.63-0.44-0.82c-0.3-0.19-0.79-0.35-1.47-0.5c-0.69-0.14-1.26-0.33-1.72-0.55
			c-1.01-0.49-1.51-1.19-1.51-2.12c0-0.77,0.33-1.42,0.98-1.94c0.65-0.52,1.48-0.78,2.49-0.78c1.07,0,1.94,0.27,2.6,0.8
			c0.66,0.53,0.99,1.22,0.99,2.07h-2.02c0-0.39-0.14-0.71-0.43-0.97c-0.29-0.26-0.67-0.39-1.15-0.39c-0.44,0-0.8,0.1-1.08,0.31
			c-0.28,0.21-0.42,0.48-0.42,0.82c0,0.31,0.13,0.55,0.39,0.72c0.26,0.17,0.79,0.34,1.58,0.52c0.79,0.17,1.41,0.38,1.86,0.62
			c0.45,0.24,0.79,0.53,1,0.87c0.22,0.34,0.33,0.75,0.33,1.23c0,0.81-0.33,1.46-1,1.96c-0.67,0.5-1.55,0.75-2.63,0.75
			c-0.74,0-1.39-0.13-1.97-0.4c-0.58-0.27-1.02-0.63-1.34-1.1c-0.32-0.46-0.48-0.97-0.48-1.5h1.96c0.03,0.48,0.21,0.84,0.54,1.1
			c0.33,0.26,0.77,0.39,1.32,0.39c0.53,0,0.93-0.1,1.21-0.3C418.14,29.43,418.28,29.16,418.28,28.84z"/>
		<path class="st1" d="M427.39,31.28c-0.09-0.17-0.17-0.45-0.23-0.84c-0.64,0.67-1.43,1-2.36,1c-0.9,0-1.64-0.26-2.21-0.77
			c-0.57-0.52-0.85-1.15-0.85-1.91c0-0.96,0.36-1.69,1.07-2.2s1.73-0.77,3.05-0.77h1.24V25.2c0-0.46-0.13-0.84-0.39-1.12
			c-0.26-0.28-0.66-0.42-1.19-0.42c-0.46,0-0.83,0.11-1.13,0.34c-0.29,0.23-0.44,0.52-0.44,0.88h-2.02c0-0.49,0.16-0.95,0.49-1.38
			c0.33-0.43,0.77-0.77,1.33-1.01s1.19-0.37,1.88-0.37c1.05,0,1.89,0.26,2.52,0.79c0.62,0.53,0.95,1.27,0.96,2.23v4.05
			c0,0.81,0.11,1.45,0.34,1.93v0.14H427.39z M425.17,29.82c0.4,0,0.77-0.1,1.12-0.29c0.35-0.19,0.62-0.45,0.79-0.78v-1.69H426
			c-0.75,0-1.31,0.13-1.69,0.39c-0.38,0.26-0.56,0.63-0.56,1.1c0,0.39,0.13,0.7,0.39,0.93C424.4,29.71,424.74,29.82,425.17,29.82z"
			/>
		<path class="st1" d="M431.93,31.28v-7.49h-1.37V22.3h1.37v-0.82c0-1,0.28-1.77,0.83-2.31c0.55-0.54,1.33-0.81,2.32-0.81
			c0.35,0,0.73,0.05,1.13,0.15l-0.05,1.58c-0.22-0.04-0.48-0.07-0.77-0.07c-0.96,0-1.44,0.5-1.44,1.49v0.8h1.83v1.49h-1.83v7.49
			H431.93z"/>
		<path class="st1" d="M441,31.44c-1.28,0-2.31-0.4-3.11-1.21c-0.79-0.8-1.19-1.88-1.19-3.22v-0.25c0-0.9,0.17-1.7,0.52-2.4
			c0.35-0.71,0.83-1.25,1.46-1.65c0.63-0.39,1.32-0.59,2.09-0.59c1.22,0,2.17,0.39,2.83,1.17c0.67,0.78,1,1.88,1,3.31v0.81h-5.87
			c0.06,0.74,0.31,1.33,0.74,1.76c0.43,0.43,0.98,0.65,1.64,0.65c0.92,0,1.68-0.37,2.26-1.12l1.09,1.04
			c-0.36,0.54-0.84,0.95-1.44,1.25S441.75,31.44,441,31.44z M440.76,23.75c-0.55,0-1,0.19-1.34,0.58c-0.34,0.39-0.56,0.93-0.65,1.62
			h3.84V25.8c-0.04-0.67-0.22-1.19-0.54-1.53S441.32,23.75,440.76,23.75z"/>
		<path class="st1" d="M458.29,28.5l1.43-6.2h1.97l-2.45,8.98h-1.66l-1.93-6.17l-1.89,6.17h-1.66l-2.46-8.98h1.97l1.45,6.13
			l1.84-6.13h1.52L458.29,28.5z"/>
		<path class="st1" d="M462.66,26.7c0-0.88,0.17-1.67,0.52-2.38c0.35-0.71,0.84-1.25,1.47-1.63s1.36-0.57,2.17-0.57
			c1.21,0,2.2,0.39,2.95,1.17c0.76,0.78,1.16,1.81,1.22,3.1l0.01,0.47c0,0.89-0.17,1.68-0.51,2.37c-0.34,0.7-0.83,1.24-1.46,1.62
			c-0.63,0.38-1.37,0.57-2.2,0.57c-1.27,0-2.28-0.42-3.04-1.27c-0.76-0.84-1.14-1.97-1.14-3.38V26.7z M464.67,26.88
			c0,0.92,0.19,1.65,0.57,2.17c0.38,0.52,0.91,0.78,1.59,0.78s1.21-0.27,1.59-0.8c0.38-0.53,0.57-1.31,0.57-2.33
			c0-0.91-0.2-1.63-0.59-2.16c-0.39-0.53-0.92-0.8-1.59-0.8c-0.66,0-1.18,0.26-1.57,0.79C464.87,25.06,464.67,25.84,464.67,26.88z"
			/>
		<path class="st1" d="M478.16,30.4c-0.59,0.7-1.43,1.05-2.52,1.05c-0.97,0-1.71-0.29-2.21-0.86c-0.5-0.57-0.75-1.39-0.75-2.47V22.3
			h2.02v5.79c0,1.14,0.47,1.71,1.42,1.71c0.98,0,1.64-0.35,1.98-1.05V22.3h2.02v8.98h-1.9L478.16,30.4z"/>
		<path class="st1" d="M484.31,31.28h-2.02V18.53h2.02V31.28z"/>
		<path class="st1" d="M486.12,26.72c0-1.38,0.32-2.5,0.96-3.33c0.64-0.84,1.5-1.26,2.58-1.26c0.95,0,1.72,0.33,2.31,1v-4.6h2.02
			v12.75h-1.83l-0.1-0.93c-0.6,0.73-1.41,1.1-2.42,1.1c-1.05,0-1.9-0.42-2.55-1.27C486.45,29.33,486.12,28.18,486.12,26.72z
			 M488.14,26.89c0,0.91,0.18,1.63,0.53,2.14c0.35,0.51,0.85,0.77,1.5,0.77c0.82,0,1.43-0.37,1.81-1.1v-3.83
			c-0.37-0.72-0.97-1.08-1.79-1.08c-0.65,0-1.16,0.26-1.51,0.78C488.32,25.07,488.14,25.85,488.14,26.89z"/>
		<path class="st1" d="M503.47,28.39l1.83-6.09h2.15l-3.57,10.34c-0.55,1.51-1.48,2.27-2.79,2.27c-0.29,0-0.62-0.05-0.97-0.15v-1.57
			l0.38,0.02c0.51,0,0.89-0.09,1.15-0.28c0.26-0.19,0.46-0.5,0.61-0.93l0.29-0.77l-3.15-8.93h2.17L503.47,28.39z"/>
		<path class="st1" d="M508.1,26.7c0-0.88,0.17-1.67,0.52-2.38c0.35-0.71,0.84-1.25,1.47-1.63s1.36-0.57,2.17-0.57
			c1.21,0,2.2,0.39,2.95,1.17c0.76,0.78,1.16,1.81,1.22,3.1l0.01,0.47c0,0.89-0.17,1.68-0.51,2.37c-0.34,0.7-0.83,1.24-1.46,1.62
			c-0.63,0.38-1.37,0.57-2.2,0.57c-1.27,0-2.28-0.42-3.04-1.27s-1.14-1.97-1.14-3.38V26.7z M510.12,26.88
			c0,0.92,0.19,1.65,0.57,2.17c0.38,0.52,0.91,0.78,1.59,0.78s1.21-0.27,1.59-0.8s0.57-1.31,0.57-2.33c0-0.91-0.19-1.63-0.58-2.16
			c-0.39-0.53-0.92-0.8-1.59-0.8c-0.66,0-1.18,0.26-1.57,0.79C510.32,25.06,510.12,25.84,510.12,26.88z"/>
		<path class="st1" d="M523.6,30.4c-0.59,0.7-1.43,1.05-2.52,1.05c-0.97,0-1.71-0.29-2.21-0.86c-0.5-0.57-0.75-1.39-0.75-2.47V22.3
			h2.02v5.79c0,1.14,0.47,1.71,1.42,1.71c0.98,0,1.64-0.35,1.98-1.05V22.3h2.02v8.98h-1.9L523.6,30.4z"/>
		<path class="st1" d="M532.55,31.28v-7.49h-1.37V22.3h1.37v-0.82c0-1,0.28-1.77,0.83-2.31c0.55-0.54,1.33-0.81,2.32-0.81
			c0.35,0,0.73,0.05,1.13,0.15l-0.05,1.58c-0.22-0.04-0.48-0.07-0.77-0.07c-0.96,0-1.44,0.5-1.44,1.49v0.8h1.83v1.49h-1.83v7.49
			H532.55z"/>
		<path class="st1" d="M541.62,31.44c-1.28,0-2.31-0.4-3.11-1.21c-0.79-0.8-1.19-1.88-1.19-3.22v-0.25c0-0.9,0.17-1.7,0.52-2.4
			c0.35-0.71,0.83-1.25,1.46-1.65c0.63-0.39,1.32-0.59,2.09-0.59c1.22,0,2.17,0.39,2.83,1.17c0.67,0.78,1,1.88,1,3.31v0.81h-5.87
			c0.06,0.74,0.31,1.33,0.74,1.76c0.43,0.43,0.98,0.65,1.64,0.65c0.92,0,1.68-0.37,2.26-1.12l1.09,1.04
			c-0.36,0.54-0.84,0.95-1.44,1.25S542.37,31.44,541.62,31.44z M541.38,23.75c-0.55,0-1,0.19-1.34,0.58
			c-0.34,0.39-0.56,0.93-0.65,1.62h3.84V25.8c-0.04-0.67-0.22-1.19-0.54-1.53S541.94,23.75,541.38,23.75z"/>
		<path class="st1" d="M550.75,31.44c-1.28,0-2.31-0.4-3.11-1.21c-0.79-0.8-1.19-1.88-1.19-3.22v-0.25c0-0.9,0.17-1.7,0.52-2.4
			c0.35-0.71,0.83-1.25,1.46-1.65c0.62-0.39,1.32-0.59,2.09-0.59c1.22,0,2.17,0.39,2.83,1.17c0.67,0.78,1,1.88,1,3.31v0.81h-5.87
			c0.06,0.74,0.31,1.33,0.74,1.76s0.98,0.65,1.64,0.65c0.92,0,1.68-0.37,2.26-1.12l1.09,1.04c-0.36,0.54-0.84,0.95-1.44,1.25
			C552.17,31.29,551.49,31.44,550.75,31.44z M550.5,23.75c-0.55,0-1,0.19-1.34,0.58c-0.34,0.39-0.56,0.93-0.65,1.62h3.84V25.8
			c-0.04-0.67-0.22-1.19-0.54-1.53S551.06,23.75,550.5,23.75z"/>
		<path class="st1" d="M558.06,31.28h-2.02V18.53h2.02V31.28z"/>
		<path class="st1" d="M569.85,31.28c-0.09-0.17-0.17-0.45-0.23-0.84c-0.64,0.67-1.43,1-2.36,1c-0.9,0-1.64-0.26-2.21-0.77
			c-0.57-0.52-0.86-1.15-0.86-1.91c0-0.96,0.36-1.69,1.07-2.2c0.71-0.51,1.73-0.77,3.05-0.77h1.24V25.2c0-0.46-0.13-0.84-0.39-1.12
			c-0.26-0.28-0.66-0.42-1.19-0.42c-0.46,0-0.84,0.11-1.13,0.34c-0.29,0.23-0.44,0.52-0.44,0.88h-2.02c0-0.49,0.16-0.95,0.49-1.38
			c0.33-0.43,0.77-0.77,1.33-1.01c0.56-0.24,1.19-0.37,1.88-0.37c1.05,0,1.89,0.26,2.51,0.79c0.63,0.53,0.95,1.27,0.96,2.23v4.05
			c0,0.81,0.11,1.45,0.34,1.93v0.14H569.85z M567.64,29.82c0.4,0,0.77-0.1,1.12-0.29s0.62-0.45,0.79-0.78v-1.69h-1.09
			c-0.75,0-1.31,0.13-1.68,0.39c-0.38,0.26-0.56,0.63-0.56,1.1c0,0.39,0.13,0.7,0.39,0.93C566.86,29.71,567.21,29.82,567.64,29.82z"
			/>
		<path class="st1" d="M578.72,28.84c0-0.36-0.15-0.63-0.44-0.82c-0.3-0.19-0.79-0.35-1.47-0.5c-0.69-0.14-1.26-0.33-1.72-0.55
			c-1.01-0.49-1.51-1.19-1.51-2.12c0-0.77,0.33-1.42,0.98-1.94c0.65-0.52,1.48-0.78,2.49-0.78c1.07,0,1.94,0.27,2.6,0.8
			c0.66,0.53,0.99,1.22,0.99,2.07h-2.02c0-0.39-0.14-0.71-0.43-0.97c-0.29-0.26-0.67-0.39-1.15-0.39c-0.44,0-0.8,0.1-1.08,0.31
			c-0.28,0.21-0.42,0.48-0.42,0.82c0,0.31,0.13,0.55,0.39,0.72c0.26,0.17,0.79,0.34,1.58,0.52c0.79,0.17,1.41,0.38,1.86,0.62
			c0.45,0.24,0.79,0.53,1,0.87c0.22,0.34,0.33,0.75,0.33,1.23c0,0.81-0.33,1.46-1,1.96c-0.67,0.5-1.55,0.75-2.63,0.75
			c-0.74,0-1.39-0.13-1.97-0.4c-0.58-0.27-1.02-0.63-1.34-1.1c-0.32-0.46-0.48-0.97-0.48-1.5h1.96c0.03,0.48,0.21,0.84,0.54,1.1
			c0.33,0.26,0.77,0.39,1.32,0.39c0.53,0,0.93-0.1,1.21-0.3C578.58,29.43,578.72,29.16,578.72,28.84z"/>
	</g>
	<g class="st0">
		<path class="st1" d="M355.28,55.28c-0.09-0.17-0.17-0.45-0.23-0.84c-0.64,0.67-1.43,1-2.36,1c-0.9,0-1.64-0.26-2.21-0.77
			c-0.57-0.52-0.86-1.15-0.86-1.91c0-0.96,0.36-1.69,1.07-2.2c0.71-0.51,1.73-0.77,3.05-0.77h1.24V49.2c0-0.46-0.13-0.84-0.39-1.12
			c-0.26-0.28-0.66-0.42-1.19-0.42c-0.46,0-0.84,0.11-1.13,0.34c-0.29,0.23-0.44,0.52-0.44,0.88h-2.02c0-0.49,0.16-0.95,0.49-1.38
			c0.33-0.43,0.77-0.77,1.33-1.01c0.56-0.24,1.19-0.37,1.88-0.37c1.05,0,1.89,0.26,2.51,0.79c0.63,0.53,0.95,1.27,0.96,2.23v4.05
			c0,0.81,0.11,1.45,0.34,1.93v0.14H355.28z M353.06,53.82c0.4,0,0.77-0.1,1.12-0.29s0.62-0.45,0.79-0.78v-1.69h-1.09
			c-0.75,0-1.31,0.13-1.68,0.39c-0.38,0.26-0.56,0.63-0.56,1.1c0,0.39,0.13,0.7,0.39,0.93C352.29,53.71,352.63,53.82,353.06,53.82z"
			/>
		<path class="st1" d="M371.21,50.88c0,1.39-0.32,2.5-0.95,3.32s-1.48,1.24-2.54,1.24c-0.98,0-1.77-0.32-2.37-0.97v4.26h-2.02V46.3
			h1.86l0.08,0.91c0.59-0.72,1.4-1.08,2.42-1.08c1.1,0,1.95,0.41,2.58,1.22c0.62,0.82,0.93,1.95,0.93,3.4V50.88z M369.2,50.7
			c0-0.9-0.18-1.61-0.54-2.13c-0.36-0.53-0.87-0.79-1.53-0.79c-0.83,0-1.42,0.34-1.78,1.02v3.98c0.37,0.7,0.96,1.05,1.79,1.05
			c0.64,0,1.14-0.26,1.51-0.78C369.02,52.54,369.2,51.75,369.2,50.7z"/>
		<path class="st1" d="M378.28,55.28c-0.09-0.17-0.17-0.45-0.23-0.84c-0.64,0.67-1.43,1-2.36,1c-0.9,0-1.64-0.26-2.21-0.77
			c-0.57-0.52-0.85-1.15-0.85-1.91c0-0.96,0.36-1.69,1.07-2.2s1.73-0.77,3.05-0.77h1.24V49.2c0-0.46-0.13-0.84-0.39-1.12
			c-0.26-0.28-0.66-0.42-1.19-0.42c-0.46,0-0.83,0.11-1.13,0.34c-0.29,0.23-0.44,0.52-0.44,0.88h-2.02c0-0.49,0.16-0.95,0.49-1.38
			c0.33-0.43,0.77-0.77,1.33-1.01s1.19-0.37,1.88-0.37c1.05,0,1.89,0.26,2.52,0.79c0.62,0.53,0.95,1.27,0.96,2.23v4.05
			c0,0.81,0.11,1.45,0.34,1.93v0.14H378.28z M376.06,53.82c0.4,0,0.77-0.1,1.12-0.29c0.35-0.19,0.62-0.45,0.79-0.78v-1.69h-1.09
			c-0.75,0-1.31,0.13-1.69,0.39c-0.38,0.26-0.56,0.63-0.56,1.1c0,0.39,0.13,0.7,0.39,0.93C375.29,53.71,375.63,53.82,376.06,53.82z"
			/>
		<path class="st1" d="M387.15,52.84c0-0.36-0.15-0.63-0.44-0.82c-0.3-0.19-0.79-0.35-1.47-0.5c-0.69-0.14-1.26-0.33-1.72-0.55
			c-1.01-0.49-1.51-1.19-1.51-2.12c0-0.77,0.33-1.42,0.98-1.94c0.65-0.52,1.48-0.78,2.49-0.78c1.07,0,1.94,0.27,2.6,0.8
			s0.99,1.22,0.99,2.07h-2.02c0-0.39-0.14-0.71-0.43-0.97c-0.29-0.26-0.67-0.39-1.15-0.39c-0.44,0-0.8,0.1-1.08,0.31
			c-0.28,0.21-0.42,0.48-0.42,0.82c0,0.31,0.13,0.55,0.39,0.72c0.26,0.17,0.79,0.34,1.58,0.52c0.79,0.17,1.41,0.38,1.86,0.62
			c0.45,0.24,0.79,0.53,1,0.87c0.22,0.34,0.33,0.75,0.33,1.23c0,0.81-0.33,1.46-1,1.96c-0.67,0.5-1.55,0.75-2.63,0.75
			c-0.74,0-1.39-0.13-1.97-0.4c-0.58-0.27-1.02-0.63-1.34-1.1c-0.32-0.46-0.48-0.97-0.48-1.5h1.96c0.03,0.48,0.21,0.84,0.54,1.1
			c0.33,0.26,0.77,0.39,1.32,0.39c0.53,0,0.94-0.1,1.21-0.3C387.01,53.43,387.15,53.16,387.15,52.84z"/>
		<path class="st1" d="M395.92,52.84c0-0.36-0.15-0.63-0.44-0.82c-0.3-0.19-0.79-0.35-1.47-0.5c-0.69-0.14-1.26-0.33-1.72-0.55
			c-1.01-0.49-1.51-1.19-1.51-2.12c0-0.77,0.33-1.42,0.98-1.94c0.65-0.52,1.48-0.78,2.49-0.78c1.07,0,1.94,0.27,2.6,0.8
			c0.66,0.53,0.99,1.22,0.99,2.07h-2.02c0-0.39-0.14-0.71-0.43-0.97c-0.29-0.26-0.67-0.39-1.15-0.39c-0.44,0-0.8,0.1-1.08,0.31
			c-0.28,0.21-0.42,0.48-0.42,0.82c0,0.31,0.13,0.55,0.39,0.72c0.26,0.17,0.79,0.34,1.58,0.52c0.79,0.17,1.41,0.38,1.86,0.62
			c0.45,0.24,0.79,0.53,1,0.87c0.22,0.34,0.33,0.75,0.33,1.23c0,0.81-0.33,1.46-1,1.96c-0.67,0.5-1.55,0.75-2.63,0.75
			c-0.74,0-1.39-0.13-1.97-0.4c-0.58-0.27-1.02-0.63-1.34-1.1c-0.32-0.46-0.48-0.97-0.48-1.5h1.96c0.03,0.48,0.21,0.84,0.54,1.1
			c0.33,0.26,0.77,0.39,1.32,0.39c0.53,0,0.93-0.1,1.21-0.3C395.78,53.43,395.92,53.16,395.92,52.84z"/>
		<path class="st1" d="M403.61,55.44c-1.28,0-2.31-0.4-3.11-1.21c-0.79-0.8-1.19-1.88-1.19-3.22v-0.25c0-0.9,0.17-1.7,0.52-2.4
			c0.35-0.71,0.83-1.25,1.46-1.65c0.63-0.39,1.32-0.59,2.09-0.59c1.22,0,2.17,0.39,2.83,1.17c0.67,0.78,1,1.88,1,3.31v0.81h-5.87
			c0.06,0.74,0.31,1.33,0.74,1.76c0.43,0.43,0.98,0.65,1.64,0.65c0.92,0,1.68-0.37,2.26-1.12l1.09,1.04
			c-0.36,0.54-0.84,0.95-1.44,1.25S404.36,55.44,403.61,55.44z M403.37,47.75c-0.55,0-1,0.19-1.34,0.58
			c-0.34,0.39-0.56,0.93-0.65,1.62h3.84V49.8c-0.04-0.67-0.22-1.19-0.54-1.53S403.93,47.75,403.37,47.75z"/>
		<path class="st1" d="M410.65,46.3l0.06,1.04c0.66-0.8,1.54-1.2,2.61-1.2c1.87,0,2.82,1.07,2.86,3.21v5.94h-2.02v-5.82
			c0-0.57-0.12-0.99-0.37-1.27c-0.25-0.27-0.65-0.41-1.21-0.41c-0.81,0-1.42,0.37-1.82,1.1v6.39h-2.02V46.3H410.65z"/>
		<path class="st1" d="M417.88,50.72c0-1.39,0.33-2.51,0.98-3.34c0.66-0.83,1.53-1.25,2.61-1.25c1.02,0,1.83,0.36,2.42,1.07
			l0.09-0.91h1.82V55c0,1.18-0.37,2.11-1.1,2.79c-0.73,0.68-1.72,1.02-2.97,1.02c-0.66,0-1.3-0.14-1.93-0.41
			c-0.63-0.27-1.11-0.63-1.43-1.07l0.96-1.21c0.62,0.74,1.38,1.1,2.29,1.1c0.67,0,1.2-0.18,1.58-0.54c0.39-0.36,0.58-0.89,0.58-1.6
			v-0.61c-0.58,0.65-1.36,0.97-2.32,0.97c-1.05,0-1.91-0.42-2.58-1.25C418.22,53.35,417.88,52.2,417.88,50.72z M419.89,50.89
			c0,0.9,0.18,1.61,0.55,2.13s0.88,0.78,1.53,0.78c0.81,0,1.42-0.35,1.81-1.05V48.8c-0.38-0.68-0.98-1.02-1.79-1.02
			c-0.66,0-1.18,0.26-1.55,0.79S419.89,49.87,419.89,50.89z"/>
		<path class="st1" d="M431.83,55.44c-1.28,0-2.31-0.4-3.11-1.21c-0.79-0.8-1.19-1.88-1.19-3.22v-0.25c0-0.9,0.17-1.7,0.52-2.4
			c0.35-0.71,0.83-1.25,1.46-1.65c0.62-0.39,1.32-0.59,2.09-0.59c1.22,0,2.17,0.39,2.83,1.17c0.67,0.78,1,1.88,1,3.31v0.81h-5.87
			c0.06,0.74,0.31,1.33,0.74,1.76s0.98,0.65,1.64,0.65c0.92,0,1.68-0.37,2.26-1.12l1.09,1.04c-0.36,0.54-0.84,0.95-1.44,1.25
			C433.25,55.29,432.58,55.44,431.83,55.44z M431.59,47.75c-0.55,0-1,0.19-1.34,0.58c-0.34,0.39-0.56,0.93-0.65,1.62h3.84V49.8
			c-0.04-0.67-0.22-1.19-0.54-1.53S432.15,47.75,431.59,47.75z"/>
		<path class="st1" d="M441.7,48.14c-0.27-0.04-0.54-0.07-0.82-0.07c-0.92,0-1.55,0.35-1.87,1.06v6.14h-2.02V46.3h1.93l0.05,1
			c0.49-0.78,1.16-1.17,2.03-1.17c0.29,0,0.53,0.04,0.71,0.12L441.7,48.14z"/>
		<path class="st1" d="M447.21,43.96c0-0.31,0.1-0.57,0.29-0.77s0.48-0.31,0.84-0.31s0.65,0.1,0.85,0.31s0.3,0.46,0.3,0.77
			c0,0.3-0.1,0.56-0.3,0.76s-0.48,0.3-0.85,0.3s-0.65-0.1-0.84-0.3S447.21,44.27,447.21,43.96z M449.35,55.28h-2.02V46.3h2.02V55.28
			z"/>
		<path class="st1" d="M453.42,46.3l0.06,1.04c0.66-0.8,1.54-1.2,2.61-1.2c1.87,0,2.82,1.07,2.86,3.21v5.94h-2.02v-5.82
			c0-0.57-0.12-0.99-0.37-1.27c-0.25-0.27-0.65-0.41-1.21-0.41c-0.81,0-1.42,0.37-1.82,1.1v6.39h-2.02V46.3H453.42z"/>
		<path class="st1" d="M470.6,55.28c-0.09-0.17-0.17-0.45-0.23-0.84c-0.64,0.67-1.43,1-2.36,1c-0.9,0-1.64-0.26-2.21-0.77
			c-0.57-0.52-0.85-1.15-0.85-1.91c0-0.96,0.36-1.69,1.07-2.2s1.73-0.77,3.05-0.77h1.24V49.2c0-0.46-0.13-0.84-0.39-1.12
			c-0.26-0.28-0.66-0.42-1.19-0.42c-0.46,0-0.83,0.11-1.13,0.34c-0.29,0.23-0.44,0.52-0.44,0.88h-2.02c0-0.49,0.16-0.95,0.49-1.38
			c0.33-0.43,0.77-0.77,1.33-1.01s1.19-0.37,1.88-0.37c1.05,0,1.89,0.26,2.52,0.79c0.62,0.53,0.95,1.27,0.96,2.23v4.05
			c0,0.81,0.11,1.45,0.34,1.93v0.14H470.6z M468.39,53.82c0.4,0,0.77-0.1,1.12-0.29c0.35-0.19,0.62-0.45,0.79-0.78v-1.69h-1.09
			c-0.75,0-1.31,0.13-1.69,0.39c-0.38,0.26-0.56,0.63-0.56,1.1c0,0.39,0.13,0.7,0.39,0.93C467.61,53.71,467.95,53.82,468.39,53.82z"
			/>
		<path class="st1" d="M483.7,52.84c0-0.36-0.15-0.63-0.44-0.82c-0.3-0.19-0.79-0.35-1.47-0.5c-0.69-0.14-1.26-0.33-1.72-0.55
			c-1.01-0.49-1.51-1.19-1.51-2.12c0-0.77,0.33-1.42,0.98-1.94c0.65-0.52,1.48-0.78,2.49-0.78c1.07,0,1.94,0.27,2.6,0.8
			s0.99,1.22,0.99,2.07h-2.02c0-0.39-0.14-0.71-0.43-0.97c-0.29-0.26-0.67-0.39-1.15-0.39c-0.44,0-0.8,0.1-1.08,0.31
			c-0.28,0.21-0.42,0.48-0.42,0.82c0,0.31,0.13,0.55,0.39,0.72c0.26,0.17,0.79,0.34,1.58,0.52c0.79,0.17,1.41,0.38,1.86,0.62
			c0.45,0.24,0.79,0.53,1,0.87c0.22,0.34,0.33,0.75,0.33,1.23c0,0.81-0.33,1.46-1,1.96c-0.67,0.5-1.55,0.75-2.63,0.75
			c-0.74,0-1.39-0.13-1.97-0.4c-0.58-0.27-1.02-0.63-1.34-1.1c-0.32-0.46-0.48-0.97-0.48-1.5h1.96c0.03,0.48,0.21,0.84,0.54,1.1
			c0.33,0.26,0.77,0.39,1.32,0.39c0.53,0,0.94-0.1,1.21-0.3C483.56,53.43,483.7,53.16,483.7,52.84z"/>
		<path class="st1" d="M491.4,55.44c-1.28,0-2.31-0.4-3.11-1.21c-0.79-0.8-1.19-1.88-1.19-3.22v-0.25c0-0.9,0.17-1.7,0.52-2.4
			c0.35-0.71,0.83-1.25,1.46-1.65c0.62-0.39,1.32-0.59,2.09-0.59c1.22,0,2.17,0.39,2.83,1.17c0.67,0.78,1,1.88,1,3.31v0.81h-5.87
			c0.06,0.74,0.31,1.33,0.74,1.76s0.98,0.65,1.64,0.65c0.92,0,1.68-0.37,2.26-1.12l1.09,1.04c-0.36,0.54-0.84,0.95-1.44,1.25
			C492.82,55.29,492.14,55.44,491.4,55.44z M491.15,47.75c-0.55,0-1,0.19-1.34,0.58c-0.34,0.39-0.56,0.93-0.65,1.62h3.84V49.8
			c-0.04-0.67-0.22-1.19-0.54-1.53S491.71,47.75,491.15,47.75z"/>
		<path class="st1" d="M498.71,55.28h-2.02V42.53h2.02V55.28z"/>
		<path class="st1" d="M501.61,55.28v-7.49h-1.37V46.3h1.37v-0.82c0-1,0.28-1.77,0.83-2.31c0.55-0.54,1.33-0.81,2.32-0.81
			c0.35,0,0.73,0.05,1.13,0.15l-0.05,1.58c-0.22-0.04-0.48-0.07-0.77-0.07c-0.96,0-1.44,0.5-1.44,1.49v0.8h1.83v1.49h-1.83v7.49
			H501.61z"/>
		<path class="st1" d="M510.84,50.95h-4.36v-1.63h4.36V50.95z"/>
		<path class="st1" d="M512.13,50.72c0-1.38,0.32-2.5,0.96-3.33c0.64-0.84,1.5-1.26,2.58-1.26c0.95,0,1.72,0.33,2.31,1v-4.6H520
			v12.75h-1.83l-0.1-0.93c-0.6,0.73-1.41,1.1-2.42,1.1c-1.05,0-1.9-0.42-2.55-1.27C512.46,53.33,512.13,52.18,512.13,50.72z
			 M514.15,50.89c0,0.91,0.18,1.63,0.53,2.14s0.85,0.77,1.5,0.77c0.83,0,1.43-0.37,1.81-1.1v-3.83c-0.37-0.72-0.97-1.08-1.79-1.08
			c-0.65,0-1.16,0.26-1.51,0.78C514.33,49.07,514.15,49.85,514.15,50.89z"/>
		<path class="st1" d="M526.81,48.14c-0.27-0.04-0.54-0.07-0.82-0.07c-0.92,0-1.55,0.35-1.87,1.06v6.14h-2.02V46.3h1.93l0.05,1
			c0.49-0.78,1.16-1.17,2.03-1.17c0.29,0,0.53,0.04,0.71,0.12L526.81,48.14z"/>
		<path class="st1" d="M528.08,43.96c0-0.31,0.1-0.57,0.29-0.77c0.2-0.21,0.48-0.31,0.84-0.31s0.65,0.1,0.85,0.31s0.3,0.46,0.3,0.77
			c0,0.3-0.1,0.56-0.3,0.76s-0.48,0.3-0.85,0.3s-0.65-0.1-0.84-0.3C528.18,44.52,528.08,44.27,528.08,43.96z M530.23,55.28h-2.02
			V46.3h2.02V55.28z"/>
		<path class="st1" d="M535.59,52.72l1.9-6.42h2.08l-3.11,8.98h-1.75l-3.14-8.98h2.09L535.59,52.72z"/>
		<path class="st1" d="M540.83,43.96c0-0.31,0.1-0.57,0.29-0.77c0.2-0.21,0.48-0.31,0.84-0.31s0.65,0.1,0.85,0.31s0.3,0.46,0.3,0.77
			c0,0.3-0.1,0.56-0.3,0.76s-0.48,0.3-0.85,0.3s-0.65-0.1-0.84-0.3C540.93,44.52,540.83,44.27,540.83,43.96z M542.98,55.28h-2.02
			V46.3h2.02V55.28z"/>
		<path class="st1" d="M547.04,46.3l0.06,1.04c0.66-0.8,1.54-1.2,2.62-1.2c1.87,0,2.82,1.07,2.86,3.21v5.94h-2.02v-5.82
			c0-0.57-0.12-0.99-0.37-1.27c-0.25-0.27-0.65-0.41-1.21-0.41c-0.81,0-1.42,0.37-1.82,1.1v6.39h-2.02V46.3H547.04z"/>
		<path class="st1" d="M554.27,50.72c0-1.39,0.33-2.51,0.98-3.34c0.66-0.83,1.53-1.25,2.61-1.25c1.02,0,1.83,0.36,2.42,1.07
			l0.09-0.91h1.82V55c0,1.18-0.37,2.11-1.1,2.79c-0.73,0.68-1.72,1.02-2.97,1.02c-0.66,0-1.3-0.14-1.93-0.41
			c-0.63-0.27-1.11-0.63-1.43-1.07l0.95-1.21c0.62,0.74,1.38,1.1,2.29,1.1c0.67,0,1.2-0.18,1.59-0.54c0.39-0.36,0.58-0.89,0.58-1.6
			v-0.61c-0.58,0.65-1.36,0.97-2.32,0.97c-1.05,0-1.91-0.42-2.58-1.25C554.61,53.35,554.27,52.2,554.27,50.72z M556.28,50.89
			c0,0.9,0.18,1.61,0.55,2.13c0.37,0.52,0.88,0.78,1.53,0.78c0.81,0,1.42-0.35,1.81-1.05V48.8c-0.38-0.68-0.98-1.02-1.79-1.02
			c-0.66,0-1.18,0.26-1.55,0.79C556.47,49.1,556.28,49.87,556.28,50.89z"/>
		<path class="st1" d="M572.19,53.83c0.5,0,0.92-0.15,1.25-0.44c0.33-0.29,0.51-0.66,0.53-1.09h1.9c-0.02,0.56-0.2,1.08-0.52,1.56
			c-0.33,0.48-0.77,0.87-1.33,1.15c-0.56,0.28-1.16,0.42-1.81,0.42c-1.26,0-2.25-0.41-2.99-1.22c-0.74-0.81-1.1-1.94-1.1-3.37v-0.21
			c0-1.37,0.37-2.46,1.1-3.28c0.73-0.82,1.73-1.23,2.99-1.23c1.07,0,1.94,0.31,2.61,0.93c0.67,0.62,1.02,1.44,1.06,2.45h-1.9
			c-0.02-0.51-0.2-0.94-0.53-1.27s-0.75-0.5-1.26-0.5c-0.65,0-1.16,0.24-1.51,0.71c-0.35,0.47-0.53,1.19-0.54,2.15v0.32
			c0,0.97,0.18,1.7,0.53,2.18C571.01,53.59,571.52,53.83,572.19,53.83z"/>
		<path class="st1" d="M582.76,55.28c-0.09-0.17-0.17-0.45-0.23-0.84c-0.64,0.67-1.43,1-2.36,1c-0.9,0-1.64-0.26-2.21-0.77
			c-0.57-0.52-0.85-1.15-0.85-1.91c0-0.96,0.36-1.69,1.07-2.2s1.73-0.77,3.05-0.77h1.24V49.2c0-0.46-0.13-0.84-0.39-1.12
			c-0.26-0.28-0.66-0.42-1.19-0.42c-0.46,0-0.83,0.11-1.13,0.34c-0.29,0.23-0.44,0.52-0.44,0.88h-2.02c0-0.49,0.16-0.95,0.49-1.38
			c0.33-0.43,0.77-0.77,1.33-1.01s1.19-0.37,1.88-0.37c1.05,0,1.89,0.26,2.52,0.79c0.62,0.53,0.95,1.27,0.96,2.23v4.05
			c0,0.81,0.11,1.45,0.34,1.93v0.14H582.76z M580.55,53.82c0.4,0,0.77-0.1,1.12-0.29c0.35-0.19,0.62-0.45,0.79-0.78v-1.69h-1.09
			c-0.75,0-1.31,0.13-1.69,0.39c-0.38,0.26-0.56,0.63-0.56,1.1c0,0.39,0.13,0.7,0.39,0.93C579.77,53.71,580.11,53.82,580.55,53.82z"
			/>
		<path class="st1" d="M591.29,48.14c-0.27-0.04-0.54-0.07-0.82-0.07c-0.92,0-1.55,0.35-1.87,1.06v6.14h-2.02V46.3h1.93l0.05,1
			c0.49-0.78,1.16-1.17,2.03-1.17c0.29,0,0.53,0.04,0.71,0.12L591.29,48.14z"/>
		<path class="st1" d="M594.44,51.73c0-0.74,0.09-1.32,0.27-1.76s0.54-0.92,1.08-1.44c0.54-0.52,0.88-0.9,1.02-1.12
			c0.22-0.34,0.33-0.7,0.33-1.09c0-0.52-0.13-0.92-0.39-1.19c-0.26-0.27-0.63-0.41-1.13-0.41c-0.48,0-0.86,0.13-1.15,0.4
			c-0.29,0.27-0.44,0.63-0.44,1.09h-2.02c0.01-0.98,0.34-1.76,1-2.33c0.66-0.57,1.52-0.86,2.6-0.86c1.11,0,1.98,0.28,2.6,0.85
			c0.62,0.56,0.93,1.35,0.93,2.37c0,0.9-0.42,1.79-1.26,2.67l-1.02,1c-0.37,0.42-0.55,1.02-0.56,1.82H594.44z M594.3,54.31
			c0-0.33,0.1-0.59,0.31-0.79c0.2-0.2,0.48-0.3,0.83-0.3c0.35,0,0.63,0.1,0.84,0.31c0.21,0.21,0.31,0.47,0.31,0.78
			c0,0.3-0.1,0.56-0.3,0.76s-0.48,0.31-0.85,0.31s-0.65-0.1-0.84-0.31S594.3,54.61,594.3,54.31z"/>
	</g>
</g>
<g>
	<g class="st0">
		<path class="st1" d="M40.66,27.55c0,1.15-0.18,2.14-0.54,2.98c-0.36,0.84-0.87,1.5-1.52,2l2.08,1.62l-1.36,1.23l-2.57-2.03
			c-0.34,0.07-0.7,0.11-1.09,0.11c-0.97,0-1.84-0.24-2.61-0.72c-0.77-0.48-1.36-1.16-1.78-2.05c-0.42-0.89-0.63-1.91-0.63-3.06
			v-0.68c0-1.18,0.21-2.22,0.63-3.12c0.42-0.9,1.01-1.59,1.77-2.07c0.76-0.48,1.63-0.72,2.61-0.72c1,0,1.87,0.24,2.64,0.71
			c0.76,0.47,1.35,1.15,1.76,2.04c0.42,0.89,0.63,1.92,0.63,3.1V27.55z M38.55,26.92c0-1.36-0.25-2.39-0.76-3.1
			c-0.51-0.7-1.23-1.05-2.16-1.05c-0.9,0-1.61,0.36-2.12,1.07c-0.51,0.71-0.77,1.71-0.78,3.01v0.71c0,1.31,0.26,2.33,0.77,3.06
			c0.51,0.74,1.23,1.1,2.15,1.1c0.94,0,1.65-0.35,2.15-1.06c0.5-0.71,0.75-1.74,0.75-3.1V26.92z"/>
		<path class="st1" d="M43.82,24.1c0.38,0,0.67,0.11,0.87,0.32S45,24.9,45,25.23c0,0.32-0.1,0.58-0.31,0.78
			c-0.2,0.21-0.5,0.31-0.87,0.31c-0.36,0-0.64-0.1-0.85-0.31c-0.21-0.2-0.32-0.47-0.32-0.79s0.1-0.59,0.31-0.8
			S43.45,24.1,43.82,24.1z M43.82,31.15c0.38,0,0.67,0.11,0.87,0.32S45,31.95,45,32.27c0,0.31-0.1,0.58-0.31,0.78
			c-0.2,0.21-0.5,0.31-0.87,0.31c-0.36,0-0.64-0.1-0.85-0.31s-0.32-0.47-0.32-0.79c0-0.32,0.1-0.59,0.31-0.8
			S43.45,31.15,43.82,31.15z"/>
		<path class="st1" d="M65.37,33.28h-2.09v-5.36h-5.4v5.36h-2.1V21.19h2.1v5.03h5.4v-5.03h2.09V33.28z"/>
		<path class="st1" d="M67.27,28.7c0-0.88,0.17-1.67,0.52-2.38c0.35-0.71,0.84-1.25,1.47-1.63s1.36-0.57,2.17-0.57
			c1.21,0,2.2,0.39,2.95,1.17c0.76,0.78,1.16,1.81,1.22,3.1l0.01,0.47c0,0.89-0.17,1.68-0.51,2.37c-0.34,0.7-0.83,1.24-1.46,1.62
			c-0.63,0.38-1.37,0.57-2.2,0.57c-1.27,0-2.28-0.42-3.04-1.27c-0.76-0.84-1.14-1.97-1.14-3.38V28.7z M69.29,28.88
			c0,0.92,0.19,1.65,0.57,2.17c0.38,0.52,0.91,0.78,1.59,0.78s1.21-0.27,1.59-0.8c0.38-0.53,0.57-1.31,0.57-2.33
			c0-0.91-0.19-1.63-0.59-2.16c-0.39-0.53-0.92-0.8-1.59-0.8c-0.66,0-1.18,0.26-1.57,0.79C69.49,27.06,69.29,27.84,69.29,28.88z"/>
		<path class="st1" d="M85.22,30.5l1.43-6.2h1.97l-2.45,8.98h-1.66l-1.93-6.17l-1.89,6.17h-1.66l-2.46-8.98h1.97l1.45,6.13
			l1.84-6.13h1.52L85.22,30.5z"/>
		<path class="st1" d="M96.34,33.28h-2.02V20.53h2.02V33.28z"/>
		<path class="st1" d="M98.54,21.96c0-0.31,0.1-0.57,0.29-0.77c0.2-0.21,0.48-0.31,0.84-0.31s0.65,0.1,0.85,0.31s0.3,0.46,0.3,0.77
			c0,0.3-0.1,0.56-0.3,0.76s-0.48,0.3-0.85,0.3s-0.65-0.1-0.84-0.3C98.64,22.52,98.54,22.27,98.54,21.96z M100.69,33.28h-2.02V24.3
			h2.02V33.28z"/>
		<path class="st1" d="M105.8,29.43l-0.9,0.92v2.93h-2.02V20.53h2.02v7.35l0.63-0.79l2.48-2.8h2.42l-3.34,3.74l3.69,5.24h-2.33
			L105.8,29.43z"/>
		<path class="st1" d="M115.54,33.44c-1.28,0-2.31-0.4-3.11-1.21c-0.79-0.8-1.19-1.88-1.19-3.22v-0.25c0-0.9,0.17-1.7,0.52-2.4
			c0.35-0.71,0.83-1.25,1.46-1.65c0.63-0.39,1.32-0.59,2.09-0.59c1.22,0,2.17,0.39,2.83,1.17c0.67,0.78,1,1.88,1,3.31v0.81h-5.87
			c0.06,0.74,0.31,1.33,0.74,1.76c0.43,0.43,0.98,0.65,1.64,0.65c0.92,0,1.68-0.37,2.26-1.12l1.09,1.04
			c-0.36,0.54-0.84,0.95-1.44,1.25C116.96,33.29,116.29,33.44,115.54,33.44z M115.3,25.75c-0.55,0-1,0.19-1.34,0.58
			c-0.34,0.39-0.56,0.93-0.65,1.62h3.84V27.8c-0.04-0.67-0.22-1.19-0.54-1.53S115.86,25.75,115.3,25.75z"/>
		<path class="st1" d="M122.86,33.28h-2.02V20.53h2.02V33.28z"/>
		<path class="st1" d="M128.19,30.39l1.83-6.09h2.15l-3.57,10.34c-0.55,1.51-1.48,2.27-2.79,2.27c-0.29,0-0.62-0.05-0.97-0.15v-1.57
			l0.38,0.02c0.51,0,0.89-0.09,1.15-0.28c0.26-0.19,0.46-0.5,0.61-0.93l0.29-0.77l-3.15-8.93h2.17L128.19,30.39z"/>
		<path class="st1" d="M142.93,33.28c-0.09-0.17-0.17-0.45-0.23-0.84c-0.64,0.67-1.43,1-2.36,1c-0.9,0-1.64-0.26-2.21-0.77
			c-0.57-0.52-0.85-1.15-0.85-1.91c0-0.96,0.36-1.69,1.07-2.2c0.71-0.51,1.73-0.77,3.05-0.77h1.24V27.2c0-0.46-0.13-0.84-0.39-1.12
			s-0.66-0.42-1.19-0.42c-0.46,0-0.84,0.11-1.13,0.34s-0.44,0.52-0.44,0.88h-2.02c0-0.49,0.16-0.95,0.49-1.38s0.77-0.77,1.33-1.01
			c0.56-0.24,1.19-0.37,1.88-0.37c1.05,0,1.89,0.26,2.52,0.79s0.95,1.27,0.96,2.23v4.05c0,0.81,0.11,1.45,0.34,1.93v0.14H142.93z
			 M140.71,31.82c0.4,0,0.77-0.1,1.12-0.29c0.35-0.19,0.62-0.45,0.79-0.78v-1.69h-1.09c-0.75,0-1.31,0.13-1.69,0.39
			c-0.38,0.26-0.56,0.63-0.56,1.1c0,0.39,0.13,0.7,0.39,0.93C139.94,31.71,140.28,31.82,140.71,31.82z"/>
		<path class="st1" d="M151.46,26.14c-0.27-0.04-0.54-0.07-0.82-0.07c-0.92,0-1.55,0.35-1.87,1.06v6.14h-2.02V24.3h1.93l0.05,1
			c0.49-0.78,1.16-1.17,2.03-1.17c0.29,0,0.53,0.04,0.71,0.12L151.46,26.14z"/>
		<path class="st1" d="M156.53,33.44c-1.28,0-2.31-0.4-3.11-1.21c-0.79-0.8-1.19-1.88-1.19-3.22v-0.25c0-0.9,0.17-1.7,0.52-2.4
			c0.35-0.71,0.83-1.25,1.46-1.65c0.63-0.39,1.32-0.59,2.09-0.59c1.22,0,2.17,0.39,2.83,1.17c0.67,0.78,1,1.88,1,3.31v0.81h-5.87
			c0.06,0.74,0.31,1.33,0.74,1.76c0.43,0.43,0.98,0.65,1.64,0.65c0.92,0,1.68-0.37,2.26-1.12l1.09,1.04
			c-0.36,0.54-0.84,0.95-1.44,1.25C157.95,33.29,157.28,33.44,156.53,33.44z M156.29,25.75c-0.55,0-1,0.19-1.34,0.58
			c-0.34,0.39-0.56,0.93-0.65,1.62h3.84V27.8c-0.04-0.67-0.22-1.19-0.54-1.53S156.85,25.75,156.29,25.75z"/>
		<path class="st1" d="M169.08,30.39l1.83-6.09h2.15l-3.57,10.34c-0.55,1.51-1.48,2.27-2.79,2.27c-0.29,0-0.62-0.05-0.97-0.15v-1.57
			l0.38,0.02c0.51,0,0.89-0.09,1.15-0.28c0.26-0.19,0.46-0.5,0.61-0.93l0.29-0.77L165,24.3h2.17L169.08,30.39z"/>
		<path class="st1" d="M173.71,28.7c0-0.88,0.17-1.67,0.52-2.38c0.35-0.71,0.84-1.25,1.47-1.63s1.36-0.57,2.17-0.57
			c1.21,0,2.2,0.39,2.95,1.17c0.76,0.78,1.16,1.81,1.22,3.1l0.01,0.47c0,0.89-0.17,1.68-0.51,2.37c-0.34,0.7-0.83,1.24-1.46,1.62
			c-0.63,0.38-1.37,0.57-2.2,0.57c-1.27,0-2.28-0.42-3.04-1.27c-0.76-0.84-1.14-1.97-1.14-3.38V28.7z M175.72,28.88
			c0,0.92,0.19,1.65,0.57,2.17c0.38,0.52,0.91,0.78,1.59,0.78s1.21-0.27,1.59-0.8c0.38-0.53,0.57-1.31,0.57-2.33
			c0-0.91-0.19-1.63-0.59-2.16c-0.39-0.53-0.92-0.8-1.59-0.8c-0.66,0-1.18,0.26-1.57,0.79C175.92,27.06,175.72,27.84,175.72,28.88z"
			/>
		<path class="st1" d="M189.2,32.4c-0.59,0.7-1.43,1.05-2.52,1.05c-0.97,0-1.71-0.29-2.21-0.86c-0.5-0.57-0.75-1.39-0.75-2.47V24.3
			h2.02v5.79c0,1.14,0.47,1.71,1.42,1.71c0.98,0,1.64-0.35,1.98-1.05V24.3h2.02v8.98h-1.9L189.2,32.4z"/>
		<path class="st1" d="M199.97,22.11v2.18h1.59v1.49h-1.59v5.01c0,0.34,0.07,0.59,0.2,0.74c0.14,0.15,0.38,0.23,0.73,0.23
			c0.23,0,0.47-0.03,0.71-0.08v1.56c-0.46,0.13-0.9,0.19-1.33,0.19c-1.55,0-2.32-0.86-2.32-2.56v-5.09h-1.48V24.3h1.48v-2.18H199.97
			z"/>
		<path class="st1" d="M202.47,28.7c0-0.88,0.17-1.67,0.52-2.38c0.35-0.71,0.84-1.25,1.47-1.63s1.36-0.57,2.17-0.57
			c1.21,0,2.2,0.39,2.95,1.17c0.76,0.78,1.16,1.81,1.22,3.1l0.01,0.47c0,0.89-0.17,1.68-0.51,2.37c-0.34,0.7-0.83,1.24-1.46,1.62
			c-0.63,0.38-1.37,0.57-2.2,0.57c-1.27,0-2.28-0.42-3.04-1.27c-0.76-0.84-1.14-1.97-1.14-3.38V28.7z M204.49,28.88
			c0,0.92,0.19,1.65,0.57,2.17c0.38,0.52,0.91,0.78,1.59,0.78s1.21-0.27,1.59-0.8c0.38-0.53,0.57-1.31,0.57-2.33
			c0-0.91-0.19-1.63-0.59-2.16c-0.39-0.53-0.92-0.8-1.59-0.8c-0.66,0-1.18,0.26-1.57,0.79C204.68,27.06,204.49,27.84,204.49,28.88z"
			/>
		<path class="st1" d="M224.62,28.88c0,1.39-0.32,2.5-0.95,3.32s-1.48,1.24-2.54,1.24c-0.98,0-1.77-0.32-2.37-0.97v4.26h-2.02V24.3
			h1.86l0.08,0.91c0.59-0.72,1.4-1.08,2.42-1.08c1.1,0,1.95,0.41,2.58,1.22c0.62,0.82,0.93,1.95,0.93,3.4V28.88z M222.62,28.7
			c0-0.9-0.18-1.61-0.54-2.13c-0.36-0.53-0.87-0.79-1.53-0.79c-0.82,0-1.42,0.34-1.78,1.02v3.98c0.37,0.7,0.96,1.05,1.79,1.05
			c0.64,0,1.14-0.26,1.51-0.78C222.43,30.54,222.62,29.75,222.62,28.7z"/>
		<path class="st1" d="M231.77,32.4c-0.59,0.7-1.43,1.05-2.52,1.05c-0.97,0-1.71-0.29-2.21-0.86c-0.5-0.57-0.75-1.39-0.75-2.47V24.3
			h2.02v5.79c0,1.14,0.47,1.71,1.42,1.71c0.98,0,1.64-0.35,1.98-1.05V24.3h2.02v8.98h-1.9L231.77,32.4z"/>
		<path class="st1" d="M240.48,26.14c-0.27-0.04-0.54-0.07-0.82-0.07c-0.92,0-1.55,0.35-1.87,1.06v6.14h-2.02V24.3h1.93l0.05,1
			c0.49-0.78,1.16-1.17,2.03-1.17c0.29,0,0.53,0.04,0.71,0.12L240.48,26.14z"/>
		<path class="st1" d="M245.28,31.83c0.5,0,0.92-0.15,1.25-0.44c0.33-0.29,0.51-0.66,0.53-1.09h1.9c-0.02,0.56-0.2,1.08-0.52,1.56
			s-0.77,0.87-1.33,1.15c-0.56,0.28-1.16,0.42-1.81,0.42c-1.26,0-2.25-0.41-2.99-1.22c-0.74-0.81-1.1-1.94-1.1-3.37v-0.21
			c0-1.37,0.37-2.46,1.1-3.28c0.73-0.82,1.73-1.23,2.99-1.23c1.07,0,1.94,0.31,2.61,0.93c0.67,0.62,1.02,1.44,1.06,2.45h-1.9
			c-0.02-0.51-0.2-0.94-0.53-1.27c-0.33-0.33-0.75-0.5-1.26-0.5c-0.65,0-1.16,0.24-1.51,0.71c-0.35,0.47-0.53,1.19-0.54,2.15v0.32
			c0,0.97,0.18,1.7,0.53,2.18C244.11,31.59,244.62,31.83,245.28,31.83z"/>
		<path class="st1" d="M252.48,25.27c0.66-0.76,1.49-1.15,2.5-1.15c1.91,0,2.89,1.09,2.91,3.28v5.87h-2.02v-5.79
			c0-0.62-0.13-1.06-0.4-1.32c-0.27-0.26-0.66-0.39-1.18-0.39c-0.81,0-1.41,0.36-1.81,1.08v6.42h-2.02V20.53h2.02V25.27z"/>
		<path class="st1" d="M265.3,33.28c-0.09-0.17-0.17-0.45-0.23-0.84c-0.64,0.67-1.43,1-2.36,1c-0.9,0-1.64-0.26-2.21-0.77
			c-0.57-0.52-0.85-1.15-0.85-1.91c0-0.96,0.36-1.69,1.07-2.2c0.71-0.51,1.73-0.77,3.05-0.77H265V27.2c0-0.46-0.13-0.84-0.39-1.12
			s-0.66-0.42-1.19-0.42c-0.46,0-0.84,0.11-1.13,0.34s-0.44,0.52-0.44,0.88h-2.02c0-0.49,0.16-0.95,0.49-1.38s0.77-0.77,1.33-1.01
			c0.56-0.24,1.19-0.37,1.88-0.37c1.05,0,1.89,0.26,2.52,0.79s0.95,1.27,0.96,2.23v4.05c0,0.81,0.11,1.45,0.34,1.93v0.14H265.3z
			 M263.08,31.82c0.4,0,0.77-0.1,1.12-0.29c0.35-0.19,0.62-0.45,0.79-0.78v-1.69h-1.09c-0.75,0-1.31,0.13-1.69,0.39
			c-0.38,0.26-0.56,0.63-0.56,1.1c0,0.39,0.13,0.7,0.39,0.93C262.31,31.71,262.65,31.82,263.08,31.82z"/>
		<path class="st1" d="M274.16,30.84c0-0.36-0.15-0.63-0.44-0.82c-0.3-0.19-0.79-0.35-1.47-0.5c-0.69-0.14-1.26-0.33-1.72-0.55
			c-1.01-0.49-1.51-1.19-1.51-2.12c0-0.77,0.33-1.42,0.98-1.94s1.48-0.78,2.49-0.78c1.07,0,1.94,0.27,2.6,0.8
			c0.66,0.53,0.99,1.22,0.99,2.07h-2.02c0-0.39-0.14-0.71-0.43-0.97c-0.29-0.26-0.67-0.39-1.15-0.39c-0.44,0-0.8,0.1-1.08,0.31
			c-0.28,0.21-0.42,0.48-0.42,0.82c0,0.31,0.13,0.55,0.39,0.72c0.26,0.17,0.79,0.34,1.58,0.52c0.79,0.17,1.41,0.38,1.86,0.62
			c0.45,0.24,0.79,0.53,1,0.87c0.22,0.34,0.33,0.75,0.33,1.23c0,0.81-0.33,1.46-1,1.96s-1.55,0.75-2.63,0.75
			c-0.74,0-1.39-0.13-1.97-0.4s-1.02-0.63-1.34-1.1s-0.48-0.97-0.48-1.5h1.96c0.03,0.48,0.21,0.84,0.54,1.1
			c0.33,0.26,0.77,0.39,1.32,0.39c0.53,0,0.94-0.1,1.21-0.3S274.16,31.16,274.16,30.84z"/>
		<path class="st1" d="M281.86,33.44c-1.28,0-2.31-0.4-3.11-1.21c-0.79-0.8-1.19-1.88-1.19-3.22v-0.25c0-0.9,0.17-1.7,0.52-2.4
			c0.35-0.71,0.83-1.25,1.46-1.65c0.63-0.39,1.32-0.59,2.09-0.59c1.22,0,2.17,0.39,2.83,1.17c0.67,0.78,1,1.88,1,3.31v0.81h-5.87
			c0.06,0.74,0.31,1.33,0.74,1.76c0.43,0.43,0.98,0.65,1.64,0.65c0.92,0,1.68-0.37,2.26-1.12l1.09,1.04
			c-0.36,0.54-0.84,0.95-1.44,1.25C283.28,33.29,282.6,33.44,281.86,33.44z M281.62,25.75c-0.55,0-1,0.19-1.34,0.58
			c-0.34,0.39-0.56,0.93-0.65,1.62h3.84V27.8c-0.04-0.67-0.22-1.19-0.54-1.53S282.18,25.75,281.62,25.75z"/>
	</g>
	<g class="st0">
		<path class="st1" d="M36.23,57.28c-0.09-0.17-0.17-0.45-0.23-0.84c-0.64,0.67-1.43,1-2.36,1c-0.9,0-1.64-0.26-2.21-0.77
			c-0.57-0.52-0.85-1.15-0.85-1.91c0-0.96,0.36-1.69,1.07-2.2c0.71-0.51,1.73-0.77,3.05-0.77h1.24V51.2c0-0.46-0.13-0.84-0.39-1.12
			s-0.66-0.42-1.19-0.42c-0.46,0-0.84,0.11-1.13,0.34s-0.44,0.52-0.44,0.88h-2.02c0-0.49,0.16-0.95,0.49-1.38s0.77-0.77,1.33-1.01
			c0.56-0.24,1.19-0.37,1.88-0.37c1.05,0,1.89,0.26,2.52,0.79s0.95,1.27,0.96,2.23v4.05c0,0.81,0.11,1.45,0.34,1.93v0.14H36.23z
			 M34.01,55.82c0.4,0,0.77-0.1,1.12-0.29c0.35-0.19,0.62-0.45,0.79-0.78v-1.69h-1.09c-0.75,0-1.31,0.13-1.69,0.39
			c-0.38,0.26-0.56,0.63-0.56,1.1c0,0.39,0.13,0.7,0.39,0.93C33.24,55.71,33.58,55.82,34.01,55.82z"/>
		<path class="st1" d="M49.33,54.84c0-0.36-0.15-0.63-0.44-0.82c-0.3-0.19-0.79-0.35-1.47-0.5c-0.69-0.14-1.26-0.33-1.72-0.55
			c-1.01-0.49-1.51-1.19-1.51-2.12c0-0.77,0.33-1.42,0.98-1.94s1.48-0.78,2.49-0.78c1.07,0,1.94,0.27,2.6,0.8
			c0.66,0.53,0.99,1.22,0.99,2.07h-2.02c0-0.39-0.14-0.71-0.43-0.97c-0.29-0.26-0.67-0.39-1.15-0.39c-0.44,0-0.8,0.1-1.08,0.31
			c-0.28,0.21-0.42,0.48-0.42,0.82c0,0.31,0.13,0.55,0.39,0.72c0.26,0.17,0.79,0.34,1.58,0.52c0.79,0.17,1.41,0.38,1.86,0.62
			c0.45,0.24,0.79,0.53,1,0.87c0.22,0.34,0.33,0.75,0.33,1.23c0,0.81-0.33,1.46-1,1.96s-1.55,0.75-2.63,0.75
			c-0.74,0-1.39-0.13-1.97-0.4s-1.02-0.63-1.34-1.1s-0.48-0.97-0.48-1.5h1.96c0.03,0.48,0.21,0.84,0.54,1.1
			c0.33,0.26,0.77,0.39,1.32,0.39c0.53,0,0.94-0.1,1.21-0.3S49.33,55.16,49.33,54.84z"/>
		<path class="st1" d="M57.02,57.44c-1.28,0-2.31-0.4-3.11-1.21c-0.79-0.8-1.19-1.88-1.19-3.22v-0.25c0-0.9,0.17-1.7,0.52-2.4
			c0.35-0.71,0.83-1.25,1.46-1.65c0.63-0.39,1.32-0.59,2.09-0.59c1.22,0,2.17,0.39,2.83,1.17c0.67,0.78,1,1.88,1,3.31v0.81h-5.87
			c0.06,0.74,0.31,1.33,0.74,1.76c0.43,0.43,0.98,0.65,1.64,0.65c0.92,0,1.68-0.37,2.26-1.12l1.09,1.04
			c-0.36,0.54-0.84,0.95-1.44,1.25C58.44,57.29,57.77,57.44,57.02,57.44z M56.78,49.75c-0.55,0-1,0.19-1.34,0.58
			c-0.34,0.39-0.56,0.93-0.65,1.62h3.84V51.8c-0.04-0.67-0.22-1.19-0.54-1.53S57.34,49.75,56.78,49.75z"/>
		<path class="st1" d="M64.34,57.28h-2.02V44.53h2.02V57.28z"/>
		<path class="st1" d="M67.24,57.28v-7.49h-1.37V48.3h1.37v-0.82c0-1,0.28-1.77,0.83-2.31c0.55-0.54,1.33-0.81,2.32-0.81
			c0.35,0,0.73,0.05,1.13,0.15l-0.05,1.58c-0.22-0.04-0.48-0.07-0.77-0.07c-0.96,0-1.44,0.5-1.44,1.49v0.8h1.83v1.49h-1.83v7.49
			H67.24z"/>
		<path class="st1" d="M76.47,52.95h-4.36v-1.63h4.36V52.95z"/>
		<path class="st1" d="M77.76,52.72c0-1.38,0.32-2.5,0.96-3.33c0.64-0.84,1.5-1.26,2.58-1.26c0.95,0,1.72,0.33,2.31,1v-4.6h2.02
			v12.75H83.8l-0.1-0.93c-0.6,0.73-1.41,1.1-2.42,1.1c-1.05,0-1.9-0.42-2.55-1.27C78.08,55.33,77.76,54.18,77.76,52.72z
			 M79.78,52.89c0,0.91,0.18,1.63,0.53,2.14c0.35,0.51,0.85,0.77,1.5,0.77c0.82,0,1.43-0.37,1.81-1.1v-3.83
			c-0.37-0.72-0.97-1.08-1.79-1.08c-0.65,0-1.16,0.26-1.51,0.78S79.78,51.85,79.78,52.89z"/>
		<path class="st1" d="M92.43,50.14c-0.27-0.04-0.54-0.07-0.82-0.07c-0.92,0-1.55,0.35-1.87,1.06v6.14h-2.02V48.3h1.93l0.05,1
			c0.49-0.78,1.16-1.17,2.03-1.17c0.29,0,0.53,0.04,0.71,0.12L92.43,50.14z"/>
		<path class="st1" d="M93.71,45.96c0-0.31,0.1-0.57,0.29-0.77c0.2-0.21,0.48-0.31,0.84-0.31s0.65,0.1,0.85,0.31s0.3,0.46,0.3,0.77
			c0,0.3-0.1,0.56-0.3,0.76s-0.48,0.3-0.85,0.3s-0.65-0.1-0.84-0.3C93.81,46.52,93.71,46.27,93.71,45.96z M95.85,57.28h-2.02V48.3
			h2.02V57.28z"/>
		<path class="st1" d="M101.22,54.72l1.9-6.42h2.08l-3.11,8.98h-1.75L97.2,48.3h2.09L101.22,54.72z"/>
		<path class="st1" d="M106.46,45.96c0-0.31,0.1-0.57,0.29-0.77c0.2-0.21,0.48-0.31,0.84-0.31s0.65,0.1,0.85,0.31s0.3,0.46,0.3,0.77
			c0,0.3-0.1,0.56-0.3,0.76s-0.48,0.3-0.85,0.3s-0.65-0.1-0.84-0.3C106.56,46.52,106.46,46.27,106.46,45.96z M108.6,57.28h-2.02
			V48.3h2.02V57.28z"/>
		<path class="st1" d="M112.67,48.3l0.06,1.04c0.66-0.8,1.54-1.2,2.61-1.2c1.87,0,2.82,1.07,2.86,3.21v5.94h-2.02v-5.82
			c0-0.57-0.12-0.99-0.37-1.27c-0.25-0.27-0.65-0.41-1.21-0.41c-0.81,0-1.42,0.37-1.82,1.1v6.39h-2.02V48.3H112.67z"/>
		<path class="st1" d="M119.9,52.72c0-1.39,0.33-2.51,0.98-3.34c0.66-0.83,1.53-1.25,2.61-1.25c1.02,0,1.83,0.36,2.42,1.07L126,48.3
			h1.82V57c0,1.18-0.37,2.11-1.1,2.79c-0.73,0.68-1.72,1.02-2.97,1.02c-0.66,0-1.3-0.14-1.93-0.41c-0.63-0.27-1.11-0.63-1.43-1.07
			l0.95-1.21c0.62,0.74,1.38,1.1,2.29,1.1c0.67,0,1.2-0.18,1.59-0.54s0.58-0.89,0.58-1.6v-0.61c-0.58,0.65-1.36,0.97-2.32,0.97
			c-1.05,0-1.91-0.42-2.58-1.25C120.23,55.35,119.9,54.2,119.9,52.72z M121.91,52.89c0,0.9,0.18,1.61,0.55,2.13
			c0.37,0.52,0.88,0.78,1.53,0.78c0.81,0,1.42-0.35,1.81-1.05V50.8c-0.38-0.68-0.98-1.02-1.79-1.02c-0.66,0-1.18,0.26-1.55,0.79
			C122.09,51.1,121.91,51.87,121.91,52.89z"/>
		<path class="st1" d="M137.81,55.83c0.5,0,0.92-0.15,1.25-0.44c0.33-0.29,0.51-0.66,0.53-1.09h1.9c-0.02,0.56-0.2,1.08-0.52,1.56
			s-0.77,0.87-1.33,1.15c-0.56,0.28-1.16,0.42-1.81,0.42c-1.26,0-2.25-0.41-2.99-1.22c-0.74-0.81-1.1-1.94-1.1-3.37v-0.21
			c0-1.37,0.37-2.46,1.1-3.28c0.73-0.82,1.73-1.23,2.99-1.23c1.07,0,1.94,0.31,2.61,0.93c0.67,0.62,1.02,1.44,1.06,2.45h-1.9
			c-0.02-0.51-0.2-0.94-0.53-1.27c-0.33-0.33-0.75-0.5-1.26-0.5c-0.65,0-1.16,0.24-1.51,0.71c-0.35,0.47-0.53,1.19-0.54,2.15v0.32
			c0,0.97,0.18,1.7,0.53,2.18C136.64,55.59,137.15,55.83,137.81,55.83z"/>
		<path class="st1" d="M148.39,57.28c-0.09-0.17-0.17-0.45-0.23-0.84c-0.64,0.67-1.43,1-2.36,1c-0.9,0-1.64-0.26-2.21-0.77
			c-0.57-0.52-0.85-1.15-0.85-1.91c0-0.96,0.36-1.69,1.07-2.2c0.71-0.51,1.73-0.77,3.05-0.77h1.24V51.2c0-0.46-0.13-0.84-0.39-1.12
			s-0.66-0.42-1.19-0.42c-0.46,0-0.84,0.11-1.13,0.34s-0.44,0.52-0.44,0.88h-2.02c0-0.49,0.16-0.95,0.49-1.38s0.77-0.77,1.33-1.01
			c0.56-0.24,1.19-0.37,1.88-0.37c1.05,0,1.89,0.26,2.52,0.79s0.95,1.27,0.96,2.23v4.05c0,0.81,0.11,1.45,0.34,1.93v0.14H148.39z
			 M146.17,55.82c0.4,0,0.77-0.1,1.12-0.29c0.35-0.19,0.62-0.45,0.79-0.78v-1.69H147c-0.75,0-1.31,0.13-1.69,0.39
			c-0.38,0.26-0.56,0.63-0.56,1.1c0,0.39,0.13,0.7,0.39,0.93C145.4,55.71,145.74,55.82,146.17,55.82z"/>
		<path class="st1" d="M156.92,50.14c-0.27-0.04-0.54-0.07-0.82-0.07c-0.92,0-1.55,0.35-1.87,1.06v6.14h-2.02V48.3h1.93l0.05,1
			c0.49-0.78,1.16-1.17,2.03-1.17c0.29,0,0.53,0.04,0.71,0.12L156.92,50.14z"/>
		<path class="st1" d="M160.07,53.73c0-0.74,0.09-1.32,0.27-1.76s0.54-0.92,1.08-1.44c0.54-0.52,0.88-0.9,1.02-1.12
			c0.22-0.34,0.33-0.7,0.33-1.09c0-0.52-0.13-0.92-0.39-1.19c-0.26-0.27-0.63-0.41-1.13-0.41c-0.48,0-0.86,0.13-1.15,0.4
			c-0.29,0.27-0.44,0.63-0.44,1.09h-2.02c0.01-0.98,0.34-1.76,1-2.33c0.66-0.57,1.52-0.86,2.6-0.86c1.11,0,1.98,0.28,2.6,0.85
			c0.62,0.56,0.93,1.35,0.93,2.37c0,0.9-0.42,1.79-1.26,2.67l-1.02,1c-0.37,0.42-0.55,1.02-0.56,1.82H160.07z M159.93,56.31
			c0-0.33,0.1-0.59,0.31-0.79s0.48-0.3,0.83-0.3c0.35,0,0.63,0.1,0.84,0.31c0.2,0.21,0.31,0.47,0.31,0.78c0,0.3-0.1,0.56-0.3,0.76
			s-0.48,0.31-0.85,0.31s-0.65-0.1-0.84-0.31C160.03,56.87,159.93,56.61,159.93,56.31z"/>
	</g>
</g>
<line class="st2" x1="321.05" y1="306.24" x2="676.96" y2="306.24"/>
<rect x="404.26" y="284.64" class="st3" width="72.14" height="21.29"/>
<rect x="404.26" y="181.74" class="st4" width="72.14" height="102.89"/>
<rect x="517.05" y="75.3" class="st5" width="72.14" height="230.62"/>
<g class="st0">
	<path class="st3" d="M342.26,288.71h-2.99v2.03h3.51v1.25h-5.07v-7.57h5.06v1.26h-3.5v1.8h2.99V288.71z"/>
	<path class="st3" d="M346.4,287.03l1.42-2.61h1.79l-2.2,3.75l2.26,3.81h-1.81l-1.46-2.65l-1.46,2.65h-1.81l2.26-3.81l-2.2-3.75
		h1.79L346.4,287.03z"/>
	<path class="st3" d="M356.15,285.68h-2.32v6.3h-1.56v-6.3h-2.29v-1.26h6.16V285.68z"/>
	<path class="st3" d="M359.84,289.22h-1.24v2.77h-1.56v-7.57h2.81c0.89,0,1.58,0.2,2.07,0.6s0.73,0.96,0.73,1.69
		c0,0.52-0.11,0.95-0.33,1.29s-0.56,0.62-1.02,0.82l1.64,3.09v0.07h-1.67L359.84,289.22z M358.6,287.96h1.26
		c0.39,0,0.7-0.1,0.91-0.3s0.32-0.47,0.32-0.82c0-0.36-0.1-0.64-0.3-0.84c-0.2-0.2-0.51-0.31-0.93-0.31h-1.25V287.96z"/>
	<path class="st3" d="M368.38,288.71h-2.99v2.03h3.51v1.25h-5.07v-7.57h5.06v1.26h-3.5v1.8h2.99V288.71z"/>
	<path class="st3" d="M371.85,284.42l1.94,5.49l1.93-5.49h2.05v7.57h-1.56v-2.07l0.16-3.57l-2.04,5.64h-1.07l-2.04-5.63l0.16,3.57
		v2.07h-1.56v-7.57H371.85z"/>
	<path class="st3" d="M383.69,288.71h-2.99v2.03h3.51v1.25h-5.07v-7.57h5.06v1.26h-3.5v1.8h2.99V288.71z"/>
	<path class="st3" d="M386.69,290.74H390v1.25h-4.87v-7.57h1.56V290.74z"/>
	<path class="st3" d="M392.05,287.83l1.57-3.41h1.71l-2.48,4.82v2.74h-1.58v-2.74l-2.48-4.82h1.71L392.05,287.83z"/>
</g>
<g class="st0">
	<path class="st3" d="M365.07,301.38h3.31v1.25h-4.87v-7.57h1.56V301.38z"/>
	<path class="st3" d="M370.93,302.63h-1.56v-7.57h1.56V302.63z"/>
	<path class="st3" d="M374.75,299.59l-0.81,0.87v2.16h-1.56v-7.57h1.56v3.43l0.69-0.94l1.93-2.49h1.92l-2.69,3.36l2.76,4.21h-1.86
		L374.75,299.59z"/>
	<path class="st3" d="M383.69,299.35h-2.99v2.03h3.51v1.25h-5.07v-7.57h5.06v1.26h-3.5v1.8h2.99V299.35z"/>
	<path class="st3" d="M386.68,301.38h3.31v1.25h-4.87v-7.57h1.56V301.38z"/>
	<path class="st3" d="M392.05,298.47l1.58-3.41h1.71l-2.48,4.82v2.74h-1.59v-2.74l-2.48-4.82h1.71L392.05,298.47z"/>
</g>
<g class="st0">
	<path class="st6" d="M441.9,319.98h3.31v1.25h-4.87v-7.57h1.56V319.98z"/>
	<path class="st6" d="M447.77,321.24h-1.56v-7.57h1.56V321.24z"/>
	<path class="st6" d="M451.58,318.2l-0.81,0.87v2.16h-1.56v-7.57h1.56v3.43l0.69-0.94l1.93-2.49h1.92l-2.69,3.36l2.76,4.21h-1.86
		L451.58,318.2z"/>
	<path class="st6" d="M460.52,317.96h-2.99v2.03h3.51v1.25h-5.07v-7.57h5.06v1.26h-3.5v1.8h2.99V317.96z"/>
	<path class="st6" d="M463.51,319.98h3.31v1.25h-4.87v-7.57h1.56V319.98z"/>
	<path class="st6" d="M468.88,317.08l1.58-3.41h1.71l-2.48,4.82v2.74h-1.59v-2.74l-2.48-4.82h1.71L468.88,317.08z"/>
</g>
<g class="st0">
	<path class="st6" d="M542.63,313.67v4.98c0,0.83-0.26,1.48-0.78,1.96c-0.52,0.48-1.23,0.72-2.12,0.72c-0.88,0-1.58-0.23-2.11-0.7
		c-0.52-0.47-0.78-1.11-0.79-1.93v-5.04h1.56v5c0,0.5,0.12,0.86,0.36,1.08c0.24,0.23,0.57,0.34,0.99,0.34
		c0.88,0,1.32-0.46,1.34-1.38v-5.04H542.63z"/>
	<path class="st6" d="M550.06,321.24h-1.56l-3.04-4.98v4.98h-1.56v-7.57h1.56l3.04,4.99v-4.99h1.55V321.24z"/>
	<path class="st6" d="M552.98,319.98h3.31v1.25h-4.87v-7.57h1.56V319.98z"/>
	<path class="st6" d="M558.84,321.24h-1.56v-7.57h1.56V321.24z"/>
	<path class="st6" d="M562.66,318.2l-0.81,0.87v2.16h-1.56v-7.57h1.56v3.43l0.69-0.94l1.93-2.49h1.92l-2.69,3.36l2.76,4.21h-1.86
		L562.66,318.2z"/>
	<path class="st6" d="M571.6,317.96h-2.99v2.03h3.51v1.25h-5.07v-7.57h5.06v1.26h-3.5v1.8h2.99V317.96z"/>
	<path class="st6" d="M574.59,319.98h3.31v1.25h-4.87v-7.57h1.56V319.98z"/>
	<path class="st6" d="M579.96,317.08l1.57-3.41h1.71l-2.48,4.82v2.74h-1.58v-2.74l-2.48-4.82h1.71L579.96,317.08z"/>
</g>
<g class="st0">
	<path class="st4" d="M341.62,225.78c0-0.29-0.1-0.52-0.31-0.68c-0.21-0.16-0.58-0.32-1.12-0.5c-0.54-0.18-0.97-0.35-1.28-0.52
		c-0.86-0.46-1.29-1.09-1.29-1.88c0-0.41,0.12-0.77,0.35-1.09c0.23-0.32,0.56-0.57,0.99-0.75c0.43-0.18,0.92-0.27,1.45-0.27
		c0.54,0,1.02,0.1,1.44,0.29c0.42,0.2,0.75,0.47,0.99,0.83c0.23,0.36,0.35,0.76,0.35,1.22h-1.56c0-0.35-0.11-0.62-0.33-0.81
		c-0.22-0.19-0.52-0.29-0.92-0.29c-0.38,0-0.68,0.08-0.89,0.24s-0.32,0.37-0.32,0.64c0,0.25,0.12,0.45,0.37,0.62
		c0.25,0.17,0.61,0.32,1.09,0.47c0.89,0.27,1.53,0.6,1.94,0.99c0.41,0.39,0.61,0.89,0.61,1.48c0,0.66-0.25,1.17-0.74,1.54
		c-0.5,0.37-1.16,0.56-2,0.56c-0.58,0-1.11-0.11-1.59-0.32c-0.48-0.21-0.84-0.5-1.09-0.88c-0.25-0.37-0.38-0.8-0.38-1.29h1.56
		c0,0.84,0.5,1.25,1.5,1.25c0.37,0,0.66-0.08,0.87-0.23C341.51,226.26,341.62,226.05,341.62,225.78z"/>
	<path class="st4" d="M350.45,224.16c0,0.75-0.13,1.4-0.39,1.96c-0.26,0.56-0.64,0.99-1.13,1.3s-1.05,0.46-1.69,0.46
		c-0.63,0-1.19-0.15-1.68-0.45c-0.49-0.3-0.87-0.73-1.14-1.29c-0.27-0.56-0.41-1.2-0.41-1.93v-0.37c0-0.75,0.13-1.4,0.4-1.97
		s0.65-1,1.14-1.3c0.49-0.3,1.05-0.45,1.68-0.45c0.63,0,1.19,0.15,1.68,0.45c0.49,0.3,0.87,0.74,1.14,1.3s0.4,1.22,0.4,1.96V224.16z
		 M348.87,223.81c0-0.79-0.14-1.4-0.43-1.81s-0.69-0.62-1.22-0.62c-0.52,0-0.93,0.2-1.21,0.61c-0.28,0.41-0.43,1-0.43,1.79v0.37
		c0,0.77,0.14,1.37,0.43,1.8c0.28,0.43,0.69,0.64,1.23,0.64c0.52,0,0.93-0.21,1.21-0.62c0.28-0.41,0.42-1.01,0.43-1.8V223.81z"/>
	<path class="st4" d="M353.62,220.2l1.94,5.49l1.93-5.49h2.05v7.57h-1.56v-2.07l0.16-3.57l-2.04,5.64h-1.07l-2.04-5.63l0.16,3.57
		v2.07h-1.56v-7.57H353.62z"/>
	<path class="st4" d="M365.46,224.49h-2.99v2.03h3.51v1.25h-5.07v-7.57h5.06v1.26h-3.5v1.8h2.99V224.49z"/>
	<path class="st4" d="M372.79,225.59l1.02-5.38h1.55l-1.68,7.57h-1.57l-1.23-5.06l-1.23,5.06h-1.57l-1.68-7.57h1.55l1.02,5.37
		l1.25-5.37h1.32L372.79,225.59z"/>
	<path class="st4" d="M382.36,227.77h-1.56v-3.24h-3.04v3.24h-1.56v-7.57h1.56v3.07h3.04v-3.07h1.56V227.77z"/>
	<path class="st4" d="M388.09,226.21h-2.73l-0.52,1.56h-1.66l2.82-7.57h1.45l2.83,7.57h-1.66L388.09,226.21z M385.78,224.95h1.89
		l-0.95-2.83L385.78,224.95z"/>
	<path class="st4" d="M396.05,221.46h-2.32v6.3h-1.56v-6.3h-2.29v-1.26h6.16V221.46z"/>
</g>
<g class="st0">
	<path class="st4" d="M365.08,237.16h3.31v1.25h-4.87v-7.57h1.56V237.16z"/>
	<path class="st4" d="M370.94,238.41h-1.56v-7.57h1.56V238.41z"/>
	<path class="st4" d="M374.76,235.38l-0.81,0.87v2.16h-1.56v-7.57h1.56v3.43l0.69-0.94l1.93-2.49h1.92l-2.69,3.36l2.76,4.21h-1.86
		L374.76,235.38z"/>
	<path class="st4" d="M383.7,235.13h-2.99v2.03h3.51v1.25h-5.07v-7.57h5.06v1.26h-3.5v1.8h2.99V235.13z"/>
	<path class="st4" d="M386.69,237.16H390v1.25h-4.87v-7.57h1.56V237.16z"/>
	<path class="st4" d="M392.06,234.25l1.57-3.41h1.71l-2.48,4.82v2.74h-1.58v-2.74l-2.48-4.82h1.71L392.06,234.25z"/>
</g>
<g class="st0">
	<path class="st7" d="M465.34,280.26h-5.19v-1.03l2.45-2.61c0.34-0.37,0.58-0.69,0.75-0.96s0.24-0.53,0.24-0.78
		c0-0.34-0.08-0.6-0.25-0.79s-0.41-0.29-0.73-0.29c-0.34,0-0.61,0.12-0.8,0.35c-0.2,0.23-0.29,0.54-0.29,0.92H460
		c0-0.46,0.11-0.88,0.33-1.26c0.22-0.38,0.53-0.68,0.93-0.9c0.4-0.22,0.86-0.32,1.37-0.32c0.78,0,1.39,0.19,1.82,0.56
		c0.43,0.38,0.65,0.9,0.65,1.59c0,0.37-0.1,0.75-0.29,1.14c-0.19,0.39-0.53,0.84-1,1.36l-1.72,1.81h3.25V280.26z"/>
	<path class="st7" d="M469.77,277.24c-0.39,0.38-0.85,0.58-1.37,0.58c-0.67,0-1.2-0.23-1.61-0.69c-0.4-0.46-0.6-1.08-0.6-1.86
		c0-0.5,0.11-0.95,0.33-1.36c0.22-0.41,0.52-0.74,0.91-0.97c0.39-0.23,0.83-0.34,1.31-0.34c0.5,0,0.94,0.12,1.33,0.37
		c0.39,0.25,0.69,0.61,0.9,1.08s0.32,1,0.33,1.61v0.56c0,1.26-0.31,2.25-0.94,2.97s-1.52,1.1-2.67,1.15l-0.37,0.01v-1.25l0.33,0
		C468.96,279.02,469.66,278.4,469.77,277.24z M468.77,276.67c0.24,0,0.45-0.06,0.63-0.19c0.17-0.12,0.31-0.28,0.4-0.45v-0.62
		c0-0.51-0.1-0.9-0.29-1.18c-0.19-0.28-0.45-0.42-0.78-0.42c-0.3,0-0.55,0.14-0.74,0.41c-0.19,0.28-0.29,0.62-0.29,1.04
		c0,0.41,0.09,0.75,0.28,1.02C468.16,276.53,468.42,276.67,468.77,276.67z"/>
</g>
<g class="st0">
	<path class="st7" d="M470.33,294.37v1.24h-0.15c-0.68,0.01-1.23,0.19-1.64,0.53c-0.41,0.34-0.66,0.82-0.75,1.43
		c0.4-0.41,0.91-0.61,1.52-0.61c0.66,0,1.18,0.24,1.57,0.71c0.39,0.47,0.58,1.09,0.58,1.86c0,0.49-0.11,0.94-0.32,1.34
		s-0.51,0.71-0.9,0.93s-0.83,0.33-1.32,0.33c-0.8,0-1.44-0.28-1.93-0.83c-0.49-0.55-0.74-1.29-0.74-2.22v-0.54
		c0-0.82,0.16-1.55,0.47-2.17c0.31-0.63,0.75-1.12,1.34-1.46c0.58-0.34,1.25-0.52,2.02-0.52H470.33z M468.87,298.16
		c-0.24,0-0.46,0.06-0.66,0.19s-0.34,0.29-0.44,0.5v0.46c0,0.5,0.1,0.89,0.3,1.17c0.2,0.28,0.47,0.42,0.83,0.42
		c0.32,0,0.58-0.13,0.78-0.38s0.3-0.58,0.3-0.99c0-0.41-0.1-0.74-0.3-1C469.48,298.29,469.21,298.16,468.87,298.16z"/>
</g>
<g class="st0">
	<path class="st7" d="M577.08,292.59v1.24h-0.15c-0.68,0.01-1.23,0.19-1.64,0.53c-0.41,0.34-0.66,0.82-0.75,1.43
		c0.4-0.41,0.91-0.61,1.52-0.61c0.66,0,1.18,0.24,1.57,0.71c0.39,0.47,0.58,1.09,0.58,1.86c0,0.49-0.11,0.94-0.32,1.34
		s-0.51,0.71-0.9,0.93s-0.83,0.33-1.32,0.33c-0.8,0-1.44-0.28-1.93-0.83s-0.74-1.29-0.74-2.22v-0.54c0-0.82,0.16-1.55,0.46-2.17
		c0.31-0.63,0.76-1.12,1.34-1.46s1.25-0.52,2.02-0.52H577.08z M575.61,296.39c-0.24,0-0.46,0.06-0.66,0.19
		c-0.2,0.13-0.34,0.29-0.44,0.5v0.46c0,0.5,0.1,0.89,0.3,1.17c0.2,0.28,0.47,0.42,0.83,0.42c0.32,0,0.58-0.13,0.78-0.38
		s0.3-0.58,0.3-0.99c0-0.41-0.1-0.74-0.3-1C576.22,296.51,575.95,296.39,575.61,296.39z"/>
	<path class="st7" d="M579.33,296.52l0.44-3.85h4.24v1.25H581l-0.19,1.63c0.36-0.19,0.74-0.29,1.14-0.29c0.72,0,1.29,0.22,1.69,0.67
		c0.41,0.45,0.61,1.07,0.61,1.88c0,0.49-0.1,0.93-0.31,1.31c-0.21,0.39-0.5,0.69-0.89,0.9s-0.84,0.32-1.36,0.32
		c-0.46,0-0.88-0.09-1.27-0.28c-0.39-0.19-0.7-0.45-0.93-0.78s-0.35-0.72-0.36-1.15h1.49c0.03,0.31,0.14,0.56,0.33,0.74
		s0.44,0.26,0.74,0.26c0.34,0,0.6-0.12,0.78-0.37s0.28-0.59,0.28-1.04c0-0.43-0.11-0.76-0.32-0.99c-0.21-0.23-0.51-0.34-0.9-0.34
		c-0.36,0-0.65,0.09-0.87,0.28l-0.15,0.14L579.33,296.52z"/>
</g>
<line class="st2" x1="1.96" y1="305.07" x2="321.96" y2="306.19"/>
<rect x="95.52" y="294.35" class="st3" width="70.72" height="10.43"/>
<rect x="95.52" y="270" class="st4" width="70.72" height="24.35"/>
<rect x="95.66" y="183.03" class="st8" width="70.72" height="86.95"/>
<rect x="206.09" y="78.69" class="st5" width="70.72" height="226.08"/>
<g class="st0">
	<path class="st3" d="M38.19,300.61l1.68-5.58h1.7l-2.58,7.42h-1.59l-2.57-7.42h1.7L38.19,300.61z"/>
	<path class="st3" d="M46.73,299.23H43.8v1.99h3.44v1.23h-4.97v-7.42h4.96v1.24H43.8v1.77h2.93V299.23z"/>
	<path class="st3" d="M50.88,299.73h-1.22v2.72h-1.53v-7.42h2.76c0.88,0,1.55,0.2,2.03,0.59c0.48,0.39,0.71,0.94,0.71,1.66
		c0,0.51-0.11,0.93-0.33,1.27c-0.22,0.34-0.55,0.61-1,0.81l1.6,3.03v0.07h-1.64L50.88,299.73z M49.67,298.49h1.23
		c0.38,0,0.68-0.1,0.89-0.29s0.32-0.46,0.32-0.81c0-0.35-0.1-0.62-0.3-0.83c-0.2-0.2-0.5-0.3-0.91-0.3h-1.23V298.49z"/>
	<path class="st3" d="M57.11,298.37l1.54-3.34h1.67l-2.44,4.73v2.69h-1.55v-2.69l-2.44-4.73h1.68L57.11,298.37z"/>
	<path class="st3" d="M67.45,300.5c0-0.29-0.1-0.51-0.31-0.67c-0.2-0.15-0.57-0.32-1.1-0.49c-0.53-0.17-0.95-0.34-1.26-0.51
		c-0.84-0.46-1.26-1.07-1.26-1.84c0-0.4,0.11-0.76,0.34-1.07c0.23-0.31,0.55-0.56,0.97-0.74c0.42-0.18,0.9-0.27,1.42-0.27
		c0.53,0,1,0.1,1.42,0.29c0.41,0.19,0.74,0.46,0.97,0.81c0.23,0.35,0.34,0.75,0.34,1.19h-1.53c0-0.34-0.11-0.6-0.32-0.79
		c-0.21-0.19-0.51-0.28-0.9-0.28c-0.37,0-0.66,0.08-0.87,0.24c-0.21,0.16-0.31,0.37-0.31,0.62c0,0.24,0.12,0.44,0.36,0.61
		s0.6,0.32,1.07,0.46c0.87,0.26,1.5,0.59,1.9,0.97c0.4,0.39,0.6,0.87,0.6,1.45c0,0.64-0.24,1.15-0.73,1.51
		c-0.49,0.37-1.14,0.55-1.96,0.55c-0.57,0-1.09-0.1-1.56-0.31c-0.47-0.21-0.83-0.49-1.07-0.86c-0.25-0.36-0.37-0.78-0.37-1.26h1.53
		c0,0.82,0.49,1.23,1.47,1.23c0.36,0,0.65-0.07,0.85-0.22C67.35,300.97,67.45,300.76,67.45,300.5z"/>
	<path class="st3" d="M74.2,300.92h-2.68l-0.51,1.53h-1.63l2.76-7.42h1.42l2.78,7.42h-1.62L74.2,300.92z M71.94,299.68h1.85
		l-0.93-2.78L71.94,299.68z"/>
	<path class="st3" d="M81.5,299.41h-2.93v3.03h-1.53v-7.42h4.83v1.24h-3.3v1.92h2.93V299.41z"/>
	<path class="st3" d="M87.22,299.23h-2.93v1.99h3.44v1.23h-4.97v-7.42h4.96v1.24h-3.43v1.77h2.93V299.23z"/>
</g>
<g class="st0">
	<path class="st4" d="M67.69,283.6c0-0.29-0.1-0.51-0.31-0.67c-0.2-0.15-0.57-0.32-1.1-0.49c-0.53-0.17-0.95-0.34-1.26-0.51
		c-0.84-0.46-1.26-1.07-1.26-1.84c0-0.4,0.11-0.76,0.34-1.07c0.23-0.31,0.55-0.56,0.97-0.74c0.42-0.18,0.9-0.27,1.42-0.27
		c0.53,0,1,0.1,1.42,0.29c0.41,0.19,0.74,0.46,0.97,0.81c0.23,0.35,0.34,0.75,0.34,1.19H67.7c0-0.34-0.11-0.6-0.32-0.79
		c-0.21-0.19-0.51-0.28-0.9-0.28c-0.37,0-0.66,0.08-0.87,0.24c-0.21,0.16-0.31,0.37-0.31,0.62c0,0.24,0.12,0.44,0.36,0.61
		s0.6,0.32,1.07,0.46c0.87,0.26,1.5,0.59,1.9,0.97c0.4,0.39,0.6,0.87,0.6,1.45c0,0.64-0.24,1.15-0.73,1.51
		c-0.49,0.37-1.14,0.55-1.96,0.55c-0.57,0-1.09-0.1-1.56-0.31c-0.47-0.21-0.83-0.49-1.07-0.86c-0.25-0.36-0.37-0.78-0.37-1.26h1.53
		c0,0.82,0.49,1.23,1.47,1.23c0.36,0,0.65-0.07,0.85-0.22C67.59,284.07,67.69,283.86,67.69,283.6z"/>
	<path class="st4" d="M74.45,284.01h-2.68l-0.51,1.53h-1.63l2.76-7.42h1.42l2.78,7.42h-1.62L74.45,284.01z M72.18,282.78h1.85
		L73.1,280L72.18,282.78z"/>
	<path class="st4" d="M81.74,282.51h-2.93v3.03h-1.53v-7.42h4.83v1.24h-3.3v1.92h2.93V282.51z"/>
	<path class="st4" d="M87.46,282.33h-2.93v1.99h3.44v1.23H83v-7.42h4.96v1.24h-3.43v1.77h2.93V282.33z"/>
</g>
<g class="st0">
	<path class="st6" d="M143.01,317.83c0-0.29-0.1-0.51-0.31-0.67c-0.2-0.15-0.57-0.32-1.1-0.49c-0.53-0.17-0.95-0.34-1.26-0.51
		c-0.84-0.46-1.26-1.07-1.26-1.84c0-0.4,0.11-0.76,0.34-1.07c0.23-0.31,0.55-0.56,0.97-0.74c0.42-0.18,0.9-0.27,1.42-0.27
		c0.53,0,1,0.1,1.42,0.29c0.41,0.19,0.74,0.46,0.97,0.81c0.23,0.35,0.34,0.75,0.34,1.19h-1.53c0-0.34-0.11-0.6-0.32-0.79
		c-0.21-0.19-0.51-0.28-0.9-0.28c-0.37,0-0.66,0.08-0.87,0.24c-0.21,0.16-0.31,0.37-0.31,0.62c0,0.24,0.12,0.44,0.36,0.61
		s0.6,0.32,1.07,0.46c0.87,0.26,1.5,0.59,1.9,0.97c0.4,0.39,0.6,0.87,0.6,1.45c0,0.64-0.24,1.15-0.73,1.51
		c-0.49,0.37-1.14,0.55-1.96,0.55c-0.57,0-1.09-0.1-1.56-0.31c-0.47-0.21-0.83-0.49-1.07-0.86c-0.25-0.36-0.37-0.78-0.37-1.26h1.53
		c0,0.82,0.49,1.23,1.47,1.23c0.36,0,0.65-0.07,0.85-0.22C142.9,318.3,143.01,318.09,143.01,317.83z"/>
	<path class="st6" d="M149.76,318.24h-2.68l-0.51,1.53h-1.63l2.76-7.42h1.42l2.78,7.42h-1.62L149.76,318.24z M147.49,317h1.85
		l-0.93-2.78L147.49,317z"/>
	<path class="st6" d="M157.06,316.74h-2.93v3.03h-1.53v-7.42h4.83v1.24h-3.3v1.92h2.93V316.74z"/>
	<path class="st6" d="M162.77,316.56h-2.93v1.99h3.44v1.23h-4.97v-7.42h4.96v1.24h-3.43v1.77h2.93V316.56z"/>
</g>
<g class="st0">
	<path class="st6" d="M239.43,312.35v4.89c0,0.81-0.25,1.45-0.76,1.93c-0.51,0.47-1.2,0.71-2.08,0.71c-0.87,0-1.55-0.23-2.06-0.69
		c-0.51-0.46-0.77-1.09-0.78-1.89v-4.94h1.53v4.9c0,0.49,0.12,0.84,0.35,1.06c0.23,0.22,0.55,0.33,0.97,0.33
		c0.86,0,1.3-0.45,1.31-1.36v-4.94H239.43z"/>
	<path class="st6" d="M246.71,319.77h-1.53l-2.98-4.88v4.88h-1.53v-7.42h1.53l2.98,4.89v-4.89h1.52V319.77z"/>
	<path class="st6" d="M251.9,317.83c0-0.29-0.1-0.51-0.31-0.67c-0.2-0.15-0.57-0.32-1.1-0.49c-0.53-0.17-0.95-0.34-1.26-0.51
		c-0.84-0.46-1.26-1.07-1.26-1.84c0-0.4,0.11-0.76,0.34-1.07c0.23-0.31,0.55-0.56,0.97-0.74c0.42-0.18,0.9-0.27,1.42-0.27
		c0.53,0,1,0.1,1.42,0.29c0.41,0.19,0.74,0.46,0.97,0.81c0.23,0.35,0.34,0.75,0.34,1.19h-1.53c0-0.34-0.11-0.6-0.32-0.79
		c-0.21-0.19-0.51-0.28-0.9-0.28c-0.37,0-0.66,0.08-0.87,0.24c-0.21,0.16-0.31,0.37-0.31,0.62c0,0.24,0.12,0.44,0.36,0.61
		s0.6,0.32,1.07,0.46c0.87,0.26,1.5,0.59,1.9,0.97c0.4,0.39,0.6,0.87,0.6,1.45c0,0.64-0.24,1.15-0.73,1.51
		c-0.49,0.37-1.14,0.55-1.96,0.55c-0.57,0-1.09-0.1-1.56-0.31c-0.47-0.21-0.83-0.49-1.07-0.86c-0.25-0.36-0.37-0.78-0.37-1.26h1.53
		c0,0.82,0.49,1.23,1.47,1.23c0.36,0,0.65-0.07,0.85-0.22C251.79,318.3,251.9,318.09,251.9,317.83z"/>
	<path class="st6" d="M258.65,318.24h-2.68l-0.51,1.53h-1.63l2.76-7.42h1.42l2.78,7.42h-1.62L258.65,318.24z M256.38,317h1.85
		l-0.93-2.78L256.38,317z"/>
	<path class="st6" d="M265.95,316.74h-2.93v3.03h-1.53v-7.42h4.83v1.24h-3.3v1.92h2.93V316.74z"/>
	<path class="st6" d="M271.66,316.56h-2.93v1.99h3.44v1.23h-4.97v-7.42h4.96v1.24h-3.43v1.77h2.93V316.56z"/>
</g>
<g class="st0">
	<path class="st8" d="M34.11,226.2c0-0.29-0.1-0.51-0.31-0.67c-0.2-0.15-0.57-0.32-1.1-0.49c-0.53-0.17-0.95-0.34-1.26-0.51
		c-0.84-0.46-1.26-1.07-1.26-1.84c0-0.4,0.11-0.76,0.34-1.07c0.23-0.31,0.55-0.56,0.97-0.74c0.42-0.18,0.9-0.27,1.42-0.27
		c0.53,0,1,0.1,1.42,0.29c0.41,0.19,0.74,0.46,0.97,0.81c0.23,0.35,0.34,0.75,0.34,1.19h-1.53c0-0.34-0.11-0.6-0.32-0.79
		c-0.21-0.19-0.51-0.28-0.9-0.28c-0.37,0-0.66,0.08-0.87,0.24c-0.21,0.16-0.31,0.37-0.31,0.62c0,0.24,0.12,0.44,0.36,0.61
		s0.6,0.32,1.07,0.46c0.87,0.26,1.5,0.59,1.9,0.97c0.4,0.39,0.6,0.87,0.6,1.45c0,0.64-0.24,1.15-0.73,1.51
		c-0.49,0.37-1.14,0.55-1.96,0.55c-0.57,0-1.09-0.1-1.56-0.31c-0.47-0.21-0.83-0.49-1.07-0.86c-0.25-0.36-0.37-0.78-0.37-1.26h1.53
		c0,0.82,0.49,1.23,1.47,1.23c0.36,0,0.65-0.07,0.85-0.22C34.01,226.67,34.11,226.47,34.11,226.2z"/>
	<path class="st8" d="M42.77,224.61c0,0.73-0.13,1.37-0.39,1.92c-0.26,0.55-0.63,0.97-1.11,1.27c-0.48,0.3-1.03,0.45-1.65,0.45
		c-0.61,0-1.16-0.15-1.65-0.44c-0.48-0.29-0.86-0.72-1.12-1.27c-0.27-0.55-0.4-1.18-0.4-1.89v-0.37c0-0.73,0.13-1.37,0.4-1.93
		c0.26-0.55,0.64-0.98,1.12-1.28c0.48-0.3,1.03-0.45,1.65-0.45s1.17,0.15,1.65,0.45c0.48,0.3,0.85,0.72,1.12,1.28
		c0.26,0.56,0.39,1.2,0.39,1.92V224.61z M41.22,224.27c0-0.78-0.14-1.37-0.42-1.77c-0.28-0.4-0.68-0.61-1.19-0.61
		c-0.51,0-0.91,0.2-1.19,0.6c-0.28,0.4-0.42,0.98-0.42,1.76v0.36c0,0.76,0.14,1.34,0.42,1.76s0.68,0.63,1.2,0.63
		c0.51,0,0.91-0.2,1.18-0.6c0.27-0.4,0.41-0.99,0.42-1.76V224.27z"/>
	<path class="st8" d="M45.88,220.73l1.91,5.38l1.9-5.38h2.01v7.42h-1.53v-2.03l0.15-3.5l-2,5.53h-1.05l-2-5.52l0.15,3.5v2.03h-1.53
		v-7.42H45.88z"/>
	<path class="st8" d="M57.49,224.93h-2.93v1.99H58v1.23h-4.97v-7.42h4.96v1.24h-3.43v1.77h2.93V224.93z"/>
	<path class="st8" d="M64.67,226.01l1-5.28h1.52l-1.65,7.42h-1.54l-1.21-4.96l-1.21,4.96h-1.54l-1.65-7.42h1.52l1,5.27l1.22-5.27
		h1.29L64.67,226.01z"/>
	<path class="st8" d="M74.06,228.15h-1.53v-3.18h-2.98v3.18h-1.53v-7.42h1.53v3.01h2.98v-3.01h1.53V228.15z"/>
	<path class="st8" d="M79.67,226.62h-2.68l-0.51,1.53h-1.63l2.76-7.42h1.42l2.78,7.42h-1.62L79.67,226.62z M77.4,225.38h1.85
		l-0.93-2.78L77.4,225.38z"/>
	<path class="st8" d="M87.48,221.97H85.2v6.18h-1.53v-6.18h-2.24v-1.24h6.04V221.97z"/>
</g>
<g class="st0">
	<path class="st8" d="M67.69,236.63c0-0.29-0.1-0.51-0.31-0.67c-0.2-0.15-0.57-0.32-1.1-0.49c-0.53-0.17-0.95-0.34-1.26-0.51
		c-0.84-0.46-1.26-1.07-1.26-1.84c0-0.4,0.11-0.76,0.34-1.07c0.23-0.31,0.55-0.56,0.97-0.74c0.42-0.18,0.9-0.27,1.42-0.27
		c0.53,0,1,0.1,1.42,0.29c0.41,0.19,0.74,0.46,0.97,0.81c0.23,0.35,0.34,0.75,0.34,1.19H67.7c0-0.34-0.11-0.6-0.32-0.79
		c-0.21-0.19-0.51-0.28-0.9-0.28c-0.37,0-0.66,0.08-0.87,0.24c-0.21,0.16-0.31,0.37-0.31,0.62c0,0.24,0.12,0.44,0.36,0.61
		s0.6,0.32,1.07,0.46c0.87,0.26,1.5,0.59,1.9,0.97c0.4,0.39,0.6,0.87,0.6,1.45c0,0.64-0.24,1.15-0.73,1.51
		c-0.49,0.37-1.14,0.55-1.96,0.55c-0.57,0-1.09-0.1-1.56-0.31c-0.47-0.21-0.83-0.49-1.07-0.86c-0.25-0.36-0.37-0.78-0.37-1.26h1.53
		c0,0.82,0.49,1.23,1.47,1.23c0.36,0,0.65-0.07,0.85-0.22C67.59,237.1,67.69,236.9,67.69,236.63z"/>
	<path class="st8" d="M74.45,237.05h-2.68l-0.51,1.53h-1.63l2.76-7.42h1.42l2.78,7.42h-1.62L74.45,237.05z M72.18,235.81h1.85
		l-0.93-2.78L72.18,235.81z"/>
	<path class="st8" d="M81.74,235.55h-2.93v3.03h-1.53v-7.42h4.83v1.24h-3.3v1.92h2.93V235.55z"/>
	<path class="st8" d="M87.46,235.36h-2.93v1.99h3.44v1.23H83v-7.42h4.96v1.24h-3.43v1.77h2.93V235.36z"/>
</g>
<g class="st0">
	<path class="st7" d="M161.34,284.51l-2.87,6.6h-1.55l2.87-6.23h-3.69v-1.19h5.24V284.51z"/>
</g>
<g class="st0">
	<path class="st7" d="M155.4,267.42h-5.08v-1.01l2.4-2.56c0.33-0.36,0.57-0.68,0.73-0.94c0.16-0.27,0.24-0.52,0.24-0.76
		c0-0.33-0.08-0.59-0.25-0.78c-0.17-0.19-0.4-0.28-0.71-0.28c-0.33,0-0.6,0.12-0.79,0.34c-0.19,0.23-0.29,0.53-0.29,0.9h-1.48
		c0-0.45,0.11-0.86,0.32-1.24c0.22-0.37,0.52-0.67,0.91-0.88c0.39-0.21,0.84-0.32,1.34-0.32c0.76,0,1.36,0.18,1.78,0.55
		s0.63,0.88,0.63,1.55c0,0.37-0.1,0.74-0.29,1.12c-0.19,0.38-0.52,0.82-0.98,1.33l-1.69,1.78h3.19V267.42z"/>
	<path class="st7" d="M156.52,263.78l0.43-3.77h4.16v1.23h-2.95l-0.18,1.6c0.35-0.19,0.72-0.28,1.12-0.28
		c0.71,0,1.26,0.22,1.66,0.66c0.4,0.44,0.6,1.05,0.6,1.84c0,0.48-0.1,0.91-0.3,1.29s-0.49,0.67-0.87,0.88
		c-0.38,0.21-0.82,0.31-1.33,0.31c-0.45,0-0.86-0.09-1.25-0.27s-0.69-0.44-0.91-0.77c-0.22-0.33-0.34-0.71-0.35-1.13h1.46
		c0.03,0.31,0.14,0.55,0.32,0.72c0.19,0.17,0.43,0.26,0.73,0.26c0.33,0,0.59-0.12,0.77-0.36c0.18-0.24,0.27-0.58,0.27-1.02
		c0-0.42-0.1-0.74-0.31-0.97c-0.21-0.22-0.5-0.34-0.88-0.34c-0.35,0-0.63,0.09-0.85,0.28l-0.14,0.13L156.52,263.78z"/>
</g>
<g class="st0">
	<path class="st7" d="M157.79,299.46h0.78c0.37,0,0.65-0.09,0.83-0.28c0.18-0.19,0.27-0.43,0.27-0.74c0-0.3-0.09-0.53-0.27-0.7
		c-0.18-0.17-0.42-0.25-0.74-0.25c-0.28,0-0.52,0.08-0.71,0.23c-0.19,0.16-0.29,0.36-0.29,0.6h-1.47c0-0.39,0.1-0.74,0.31-1.04
		c0.21-0.31,0.5-0.55,0.88-0.72c0.38-0.17,0.79-0.26,1.24-0.26c0.78,0,1.4,0.19,1.84,0.56c0.45,0.38,0.67,0.89,0.67,1.55
		c0,0.34-0.1,0.65-0.31,0.94c-0.21,0.29-0.48,0.5-0.82,0.66c0.42,0.15,0.73,0.37,0.94,0.67s0.31,0.65,0.31,1.06
		c0,0.66-0.24,1.19-0.72,1.58c-0.48,0.4-1.12,0.6-1.91,0.6c-0.74,0-1.35-0.2-1.82-0.59c-0.47-0.39-0.71-0.91-0.71-1.55h1.47
		c0,0.28,0.1,0.51,0.31,0.68c0.21,0.18,0.47,0.27,0.77,0.27c0.35,0,0.62-0.09,0.82-0.28c0.2-0.18,0.3-0.43,0.3-0.74
		c0-0.74-0.41-1.11-1.22-1.11h-0.78V299.46z"/>
</g>
<g class="st0">
	<path class="st7" d="M264.93,291.69v1.21h-0.14c-0.67,0.01-1.2,0.18-1.61,0.52c-0.41,0.34-0.65,0.8-0.73,1.4
		c0.39-0.4,0.89-0.6,1.49-0.6c0.65,0,1.16,0.23,1.54,0.69s0.57,1.07,0.57,1.82c0,0.48-0.1,0.92-0.31,1.31
		c-0.21,0.39-0.5,0.69-0.89,0.91c-0.38,0.22-0.81,0.33-1.3,0.33c-0.78,0-1.41-0.27-1.89-0.81c-0.48-0.54-0.72-1.27-0.72-2.18v-0.53
		c0-0.8,0.15-1.52,0.46-2.13c0.3-0.62,0.74-1.09,1.31-1.43s1.23-0.51,1.98-0.51H264.93z M263.5,295.41c-0.24,0-0.45,0.06-0.65,0.19
		s-0.34,0.29-0.43,0.49v0.45c0,0.49,0.1,0.88,0.29,1.15c0.19,0.28,0.47,0.42,0.82,0.42c0.32,0,0.57-0.12,0.77-0.37
		s0.29-0.57,0.29-0.97c0-0.4-0.1-0.73-0.3-0.98C264.09,295.54,263.83,295.41,263.5,295.41z"/>
	<path class="st7" d="M267.15,295.54l0.43-3.77h4.16V293h-2.95l-0.18,1.59c0.35-0.19,0.72-0.28,1.12-0.28
		c0.71,0,1.26,0.22,1.66,0.66c0.4,0.44,0.6,1.05,0.6,1.84c0,0.48-0.1,0.91-0.3,1.29s-0.49,0.67-0.87,0.88
		c-0.38,0.21-0.82,0.31-1.33,0.31c-0.45,0-0.86-0.09-1.25-0.27s-0.69-0.44-0.91-0.77c-0.22-0.33-0.34-0.71-0.35-1.13h1.46
		c0.03,0.31,0.14,0.55,0.32,0.72c0.19,0.17,0.43,0.26,0.73,0.26c0.33,0,0.59-0.12,0.77-0.36s0.27-0.58,0.27-1.02
		c0-0.42-0.1-0.74-0.31-0.97c-0.21-0.22-0.5-0.34-0.88-0.34c-0.35,0-0.63,0.09-0.85,0.28l-0.14,0.13L267.15,295.54z"/>
</g>
</svg>
